<?xml version="1.0" encoding="utf-8"?>
<!-- Generator: Adobe Illustrator 18.0.0, SVG Export Plug-In . SVG Version: 6.00 Build 0)  -->
<!DOCTYPE svg PUBLIC "-//W3C//DTD SVG 1.1//EN" "http://www.w3.org/Graphics/SVG/1.1/DTD/svg11.dtd">
<svg version="1.1" xmlns="http://www.w3.org/2000/svg" xmlns:xlink="http://www.w3.org/1999/xlink" x="0px" y="0px"
	 viewBox="0 0 148.8 149.3" enable-background="new 0 0 148.8 149.3" xml:space="preserve">
<g id="fon" display="none">
</g>
<g id="orange">
</g>
<g id="outline">
	<g>
		<g>
			<g>
				<path fill="#F7A934" d="M59.6,78.9c0-4.6,0-9.1,0-13.7c0.8-0.1,1.6-0.2,2.4-0.2c2,0,4,0,6,0c0-2.3-0.1-4.4,0-6.5
					c0.1-2.5,0.1-5.1,0.5-7.6c0.9-5.4,3.9-9.3,9.3-10.9c2.3-0.7,4.8-1,7.3-1.1c3.5-0.2,7.1,0,10.7,0c0.4,0,0.8,0,1.2,0.1
					c0,4.5,0,8.8,0,13.1c0,0.8-0.5,0.8-1,0.8c-2.4,0-4.9,0-7.3,0c-2.4,0.1-3.8,1.1-4,3.3c-0.2,2.9,0,5.9,0,9c4.2,0,8.2,0,12.4,0
					c-0.5,4.7-1,9.2-1.5,13.9c-3.7,0-7.3,0-11.1,0c0,13.4,0,26.7,0,40c-5.6,0-11,0-16.6,0c0-13.3,0-26.6,0-40
					C65.1,78.9,62.3,78.9,59.6,78.9z"/>
			</g>
			<g>
				
					<path fill="none" stroke="#3C3C3B" stroke-width="3" stroke-linecap="round" stroke-linejoin="round" stroke-miterlimit="10" d="
					M56.6,75.9c0-4.6,0-9.1,0-13.7c0.8-0.1,1.6-0.2,2.4-0.2c2,0,4,0,6,0c0-2.3-0.1-4.4,0-6.5c0.1-2.5,0.1-5.1,0.5-7.6
					c0.9-5.4,3.9-9.3,9.3-10.9c2.3-0.7,4.8-1,7.3-1.1c3.5-0.2,7.1,0,10.7,0c0.4,0,0.8,0,1.2,0.1c0,4.5,0,8.8,0,13.1
					c0,0.8-0.5,0.8-1,0.8c-2.4,0-4.9,0-7.3,0c-2.4,0.1-3.8,1.1-4,3.3c-0.2,2.9,0,5.9,0,9c4.2,0,8.2,0,12.4,0
					c-0.5,4.7-1,9.2-1.5,13.9c-3.7,0-7.3,0-11.1,0c0,13.4,0,26.7,0,40c-5.6,0-11,0-16.6,0c0-13.3,0-26.6,0-40
					C62.1,75.9,59.3,75.9,56.6,75.9z"/>
			</g>
			
				<circle fill="none" stroke="#3C3C3B" stroke-width="3" stroke-linecap="round" stroke-linejoin="round" stroke-miterlimit="10" cx="74.3" cy="75.8" r="69.3"/>
		</g>
	</g>
</g>
</svg>
