<?xml version="1.0" encoding="utf-8"?>
<!-- Generator: Adobe Illustrator 18.0.0, SVG Export Plug-In . SVG Version: 6.00 Build 0)  -->
<!DOCTYPE svg PUBLIC "-//W3C//DTD SVG 1.1//EN" "http://www.w3.org/Graphics/SVG/1.1/DTD/svg11.dtd">
<svg version="1.1" xmlns="http://www.w3.org/2000/svg" xmlns:xlink="http://www.w3.org/1999/xlink" x="0px" y="0px"
	 viewBox="0 0 147 149.3" enable-background="new 0 0 147 149.3" xml:space="preserve">
<g id="fon" display="none">
</g>
<g id="orange">
</g>
<g id="outline">
	<g>
		<g>
			<g id="post-instagram_1_">
				<path fill="#F7A934" d="M101.7,46.6H50.1c-3.5,0-6.5,2.9-6.5,6.5v51.6c0,3.5,2.9,6.5,6.5,6.5h51.6c3.5,0,6.5-2.9,6.5-6.5V53
					C108.2,49.5,105.3,46.6,101.7,46.6z M75.9,65.9c7.1,0,12.9,5.8,12.9,12.9S83,91.7,75.9,91.7S63,85.9,63,78.8
					S68.8,65.9,75.9,65.9z M51.7,104.6c-1,0-1.6-0.6-1.6-1.6V75.6h6.8c-0.3,1-0.3,2.3-0.3,3.2c0,10.6,8.7,19.4,19.4,19.4
					s19.4-8.7,19.4-19.4c0-1,0-2.3-0.3-3.2h6.8V103c0,1-0.6,1.6-1.6,1.6H51.7z M101.7,61.1c0,1-0.6,1.6-1.6,1.6h-6.5
					c-1,0-1.6-0.6-1.6-1.6v-6.5c0-1,0.6-1.6,1.6-1.6h6.5c1,0,1.6,0.6,1.6,1.6V61.1z"/>
			</g>
		</g>
		
			<circle fill="none" stroke="#3C3C3B" stroke-width="3" stroke-linecap="round" stroke-linejoin="round" stroke-miterlimit="10" cx="72.9" cy="75.8" r="69.3"/>
		<g>
			<g id="post-instagram">
				
					<path fill="none" stroke="#3C3C3B" stroke-width="3" stroke-linecap="round" stroke-linejoin="round" stroke-miterlimit="10" d="
					M98.7,43.6H47.1c-3.5,0-6.5,2.9-6.5,6.5v51.6c0,3.5,2.9,6.5,6.5,6.5h51.6c3.5,0,6.5-2.9,6.5-6.5V50
					C105.2,46.5,102.3,43.6,98.7,43.6z M72.9,62.9c7.1,0,12.9,5.8,12.9,12.9S80,88.7,72.9,88.7S60,82.9,60,75.8S65.8,62.9,72.9,62.9
					z M48.7,101.6c-1,0-1.6-0.6-1.6-1.6V72.6h6.8c-0.3,1-0.3,2.3-0.3,3.2c0,10.6,8.7,19.4,19.4,19.4s19.4-8.7,19.4-19.4
					c0-1,0-2.3-0.3-3.2h6.8V100c0,1-0.6,1.6-1.6,1.6H48.7z M98.7,58.1c0,1-0.6,1.6-1.6,1.6h-6.5c-1,0-1.6-0.6-1.6-1.6v-6.5
					c0-1,0.6-1.6,1.6-1.6h6.5c1,0,1.6,0.6,1.6,1.6V58.1z"/>
			</g>
		</g>
	</g>
</g>
</svg>
