<?xml version="1.0" encoding="utf-8"?>
<!-- Generator: Adobe Illustrator 18.0.0, SVG Export Plug-In . SVG Version: 6.00 Build 0)  -->
<!DOCTYPE svg PUBLIC "-//W3C//DTD SVG 1.1//EN" "http://www.w3.org/Graphics/SVG/1.1/DTD/svg11.dtd">
<svg version="1.1" xmlns="http://www.w3.org/2000/svg" xmlns:xlink="http://www.w3.org/1999/xlink" x="0px" y="0px"
	 viewBox="0 0 124 108.5" enable-background="new 0 0 124 108.5" xml:space="preserve">
<g id="fon" display="none">
</g>
<g id="orange">
</g>
<g id="outline">
	<path fill="#F7A934" d="M112.2,47.5L99.8,23C96,15.4,88.3,10.7,79.7,10.7c-3.5,0-7,0.8-10.2,2.4L29.9,33.3
		c-5.4,2.7-9.3,7.4-11.2,13.1c-1.9,5.7-1.4,11.8,1.3,17.2L32.4,88c3.9,7.6,11.6,12.3,20.1,12.3h0c3.6,0,7-0.8,10.2-2.4l4.7-2.4
		c3.3,3.7,8,6,13.1,6h0c2.7,0,5.5-0.7,7.9-1.9c4.2-2.1,7.3-5.7,8.7-10.2c1-3,1.1-6.2,0.4-9.2l4.8-2.4c5.4-2.7,9.3-7.4,11.2-13.1
		C115.4,59,115,52.9,112.2,47.5z M27,49.1c1.1-3.5,3.6-6.3,6.9-8l39.6-20.1c2-1,4-1.5,6.2-1.5c5.2,0,9.9,2.9,12.3,7.5l7.4,14.5
		L35.2,74.1l-7.4-14.6C26.2,56.3,25.9,52.6,27,49.1z M88.9,86.7c-0.7,2.2-2.3,4-4.4,5.1c-1.2,0.6-2.6,0.9-4,0.9h0
		c-1.8,0-3.4-0.5-4.8-1.5c-0.6-0.4-1.2-0.9-1.7-1.4c-0.5-0.6-1-1.2-1.3-1.9c-0.3-0.7-0.6-1.4-0.7-2.1c0-0.1,0-0.2-0.1-0.3
		c-0.1-0.7-0.2-1.4-0.1-2.1c0.2-3,1.9-5.8,4.7-7.3c1.2-0.6,2.6-0.9,4-0.9c1.7,0,3.4,0.5,4.8,1.4c0.6,0.4,1.2,0.9,1.7,1.5
		c0.5,0.6,1,1.2,1.3,1.9c0.3,0.7,0.6,1.3,0.7,2c0,0.1,0,0.2,0.1,0.3c0.1,0.7,0.2,1.4,0.1,2.1C89.2,85.2,89.1,85.9,88.9,86.7z
		 M105.3,62c-1.1,3.5-3.6,6.3-6.9,8l-4.7,2.4c-3.3-3.7-8-5.9-13.1-5.9c-2.7,0-5.5,0.7-7.9,1.9c-7.2,3.7-10.8,11.7-9.1,19.3l-4.8,2.4
		c-2,1-4,1.5-6.2,1.5h0c-5.2,0-9.9-2.9-12.3-7.5l-1-2l64.1-32.7l0,0l1.1,2.1C106.1,54.7,106.4,58.5,105.3,62z"/>
	<g>
		<path fill="#3C3C3B" d="M77.7,8.7c8.5,0,16.2,4.7,20.1,12.3l12.4,24.5c2.7,5.4,3.2,11.5,1.3,17.2c-1.9,5.7-5.8,10.4-11.2,13.1
			l-4.8,2.4c0.7,3,0.6,6.2-0.4,9.2c-1.5,4.4-4.5,8.1-8.7,10.2c-2.4,1.2-5.2,1.9-7.9,1.9h0c-5.1,0-9.9-2.2-13.1-6l-4.7,2.4
			c-3.2,1.6-6.6,2.4-10.2,2.4h0c-8.5,0-16.2-4.7-20.1-12.3L18,61.5c-2.7-5.4-3.2-11.5-1.3-17.2c1.9-5.7,5.9-10.4,11.2-13.1
			l39.6-20.1C70.7,9.5,74.2,8.7,77.7,8.7 M33.2,72.1l64.2-32.7L90,25c-2.4-4.7-7.1-7.5-12.3-7.5c-2.2,0-4.3,0.5-6.2,1.5L31.9,39.1
			c-3.3,1.7-5.7,4.5-6.9,8c-1.1,3.5-0.9,7.2,0.8,10.5L33.2,72.1 M50.5,89.6L50.5,89.6c2.2,0,4.3-0.5,6.2-1.5l4.8-2.4
			c-1.6-7.6,1.9-15.6,9.1-19.3c2.4-1.2,5.2-1.9,7.9-1.9c5.1,0,9.8,2.2,13.1,5.9l4.7-2.4c3.3-1.7,5.7-4.5,6.9-8
			c1.1-3.5,0.9-7.2-0.8-10.5l-1.1-2.1l0,0L37.2,80l1,2C40.6,86.7,45.3,89.6,50.5,89.6 M78.6,90.7L78.6,90.7c1.4,0,2.7-0.3,4-0.9
			c2.1-1.1,3.6-2.9,4.4-5.1c0.2-0.7,0.3-1.5,0.4-2.3c0-0.7,0-1.4-0.1-2.1c0-0.1,0-0.2-0.1-0.3c-0.1-0.7-0.4-1.4-0.7-2
			c-0.4-0.7-0.8-1.3-1.3-1.9c-0.5-0.6-1.1-1.1-1.7-1.5c-1.4-0.9-3-1.4-4.8-1.4c-1.4,0-2.7,0.3-4,0.9c-2.9,1.5-4.5,4.3-4.7,7.3
			c0,0.7,0,1.4,0.1,2.1c0,0.1,0,0.2,0.1,0.3c0.1,0.7,0.4,1.4,0.7,2.1c0.4,0.7,0.8,1.3,1.3,1.9c0.5,0.6,1.1,1,1.7,1.4
			C75.2,90.2,76.8,90.7,78.6,90.7 M77.7,5.7c-4,0-8,1-11.5,2.8L26.6,28.6c-6.1,3.1-10.6,8.4-12.7,14.8c-2.1,6.5-1.6,13.4,1.5,19.5
			l12.4,24.5c4.4,8.6,13.1,14,22.8,14c4,0,7.9-0.9,11.5-2.8l2.8-1.4c3.7,3.4,8.6,5.3,13.7,5.3c3.2,0,6.4-0.8,9.3-2.2
			c4.9-2.5,8.5-6.7,10.2-11.9c0.9-2.7,1.2-5.6,0.9-8.5l2.8-1.4c6.1-3.1,10.6-8.4,12.7-14.8c2.1-6.5,1.6-13.4-1.5-19.5l-12.4-24.5
			C96.1,11,87.4,5.7,77.7,5.7L77.7,5.7z M34.5,68.1l-6-11.9c-1.3-2.6-1.5-5.5-0.6-8.2c0.9-2.7,2.8-5,5.4-6.3l39.6-20.1
			c1.5-0.8,3.2-1.2,4.9-1.2c4.1,0,7.8,2.3,9.6,5.9l6,11.8L34.5,68.1L34.5,68.1z M80.2,61.5L100,51.4c1,2.4,1.2,5.1,0.4,7.6
			c-0.9,2.7-2.8,5-5.4,6.3l-2.8,1.4C88.9,63.7,84.7,61.9,80.2,61.5L80.2,61.5z M41.3,81.3l19.8-10.1c-2.3,3.7-3.3,8.2-2.9,12.7
			l-2.8,1.4c-1.5,0.8-3.2,1.2-4.9,1.2h0C46.7,86.6,43.2,84.6,41.3,81.3L41.3,81.3z M73,83.2c0-0.1,0-0.2,0-0.2
			c-0.1-0.5-0.1-0.9-0.1-1.4c0.1-2.1,1.3-3.9,3.1-4.8c0.8-0.4,1.7-0.6,2.6-0.6c1.1,0,2.2,0.3,3.1,0.9c0.4,0.3,0.8,0.6,1.2,1
			c0.3,0.4,0.6,0.8,0.9,1.2c0.2,0.4,0.3,0.8,0.5,1.3c0,0,0,0,0,0c0,0.1,0,0.2,0,0.2c0.1,0.5,0.1,0.9,0.1,1.4c0,0.6-0.1,1.1-0.2,1.5
			c-0.5,1.5-1.5,2.7-2.9,3.3c-0.8,0.4-1.7,0.6-2.6,0.6h0c-1.1,0-2.2-0.3-3.2-1c-0.4-0.3-0.8-0.6-1.1-1c-0.3-0.4-0.6-0.8-0.9-1.2
			C73.2,84.2,73.1,83.7,73,83.2C73,83.2,73,83.2,73,83.2L73,83.2z"/>
	</g>
</g>
</svg>
