<?xml version="1.0" encoding="utf-8"?>
<!-- Generator: Adobe Illustrator 18.0.0, SVG Export Plug-In . SVG Version: 6.00 Build 0)  -->
<!DOCTYPE svg PUBLIC "-//W3C//DTD SVG 1.1//EN" "http://www.w3.org/Graphics/SVG/1.1/DTD/svg11.dtd">
<svg version="1.1" xmlns="http://www.w3.org/2000/svg" xmlns:xlink="http://www.w3.org/1999/xlink" x="0px" y="0px"
	 viewBox="0 0 185.5 217" enable-background="new 0 0 185.5 217" xml:space="preserve">
<g id="fon" display="none">
</g>
<g id="orange">
</g>
<g id="outline">
	<g>
		<path fill="#F7A934" d="M95.4,44.9c9.7,0,17.6-7.9,17.6-17.6c0-9.7-7.9-17.6-17.6-17.6c-9.7,0-17.6,7.9-17.6,17.6
			C77.8,37,85.7,44.9,95.4,44.9z"/>
		<path fill="#F7A934" d="M95.4,47.6c-1.9,0-3.7-0.3-5.4-0.8l19.6,54.6c0,0,14,2.9,20.6,17.5c6.7,14.6,35.5,78,35.5,78L109.1,42.3
			C105.5,45.6,100.7,47.6,95.4,47.6z"/>
		<path fill="#F7A934" d="M66.2,109.1c1.6-1.3,3-2.4,4.2-3.4c5-3.4,9.4-4.3,9.4-4.3l13.5-37.6l-6.5-18.2c-2.3-1.1-4.4-2.6-6.1-4.4
			L23.6,197c0,0,28.9-63.4,35.5-78C61.1,114.8,63.6,111.6,66.2,109.1z"/>
		<path fill="#F7A934" d="M175.7,131.2l6.3-6l-2-0.8c-0.2-0.1-5.6-2.2-11.7,0c-8.6,3-15.1,3.3-19,0.7l-0.9-0.6l-4.5,4.2l9,24.6
			l8.4-8.1l0,0l5.9-5.7l0,0l1.3-1.3l0,0l5.9-5.7l0,0L175.7,131.2L175.7,131.2z"/>
		<path fill="#F7A934" d="M94.5,174.9l-40.6-38.1c-3.2,7-6.9,15.2-10.6,23.3l51.2,49.4l51.6-49.7c-3.7-8.1-7.4-16.3-10.6-23.3
			L94.5,174.9z"/>
		<path fill="#F7A934" d="M20.5,138.3L20.5,138.3l4.4,4.2l2.9,2.8l0,0l8.7,8.4l9-24.6l-4.8-4.5l-0.9,0.6c-3.9,2.5-10.4,2.3-19-0.7
			c-6.1-2.2-11.5-0.1-11.7,0l-2,0.8l6.3,6.1l0,0l7,6.7L20.5,138.3z"/>
	</g>
	<g>
		<g>
			<path fill="#3C3C3B" d="M93.6,7.6c9.7,0,17.6,7.9,17.6,17.6s-7.9,17.6-17.6,17.6C83.9,42.9,76,35,76,25.3S83.9,7.6,93.6,7.6
				 M93.6,4.6C82.2,4.6,73,13.9,73,25.3c0,11.4,9.2,20.6,20.6,20.6c11.4,0,20.6-9.2,20.6-20.6C114.2,13.9,104.9,4.6,93.6,4.6
				L93.6,4.6z"/>
		</g>
		<g>
			<path fill="#3C3C3B" d="M107.3,40.3L163.9,195c0,0-28.9-63.4-35.5-78c-6.7-14.6-20.6-17.5-20.6-17.5L88.1,44.8
				c1.7,0.5,3.5,0.8,5.4,0.8C98.8,45.6,103.6,43.6,107.3,40.3 M107.3,37.3c-0.7,0-1.5,0.3-2,0.8c-3.2,2.9-7.4,4.6-11.7,4.6
				c-1.5,0-3.1-0.2-4.6-0.6c-0.3-0.1-0.5-0.1-0.8-0.1c-0.8,0-1.6,0.3-2.2,1c-0.8,0.8-1,2-0.6,3.1l19.6,54.6c0.4,1,1.2,1.7,2.2,1.9
				c0.5,0.1,12.6,2.9,18.5,15.8c6.6,14.4,35.2,77.4,35.5,78c0.5,1.1,1.6,1.8,2.7,1.8c0.4,0,0.8-0.1,1.1-0.2c1.5-0.6,2.2-2.3,1.7-3.8
				L110.1,39.2c-0.3-0.9-1.1-1.6-2.1-1.9C107.7,37.3,107.5,37.3,107.3,37.3L107.3,37.3z"/>
		</g>
		<g>
			<path fill="#3C3C3B" d="M78.8,39.2c1.7,1.8,3.8,3.3,6.1,4.4l6.5,18.2L77.9,99.4c0,0-4.4,0.9-9.4,4.3c-1.2,0.9-2.6,2.1-4.2,3.4
				c-2.6,2.5-5.1,5.7-7.1,9.9c-6.7,14.6-35.5,78-35.5,78L78.8,39.2 M78.8,36.2c-0.2,0-0.4,0-0.6,0.1c-1,0.2-1.9,0.9-2.2,1.9L19,194
				c-0.6,1.5,0.2,3.2,1.7,3.8c0.4,0.2,0.8,0.2,1.1,0.2c1.1,0,2.2-0.7,2.7-1.8c0.3-0.6,28.9-63.6,35.5-78c1.5-3.4,3.7-6.4,6.3-8.9
				c1.4-1.2,2.7-2.2,3.9-3.2c4.4-2.9,8.2-3.8,8.3-3.8c1-0.2,1.8-0.9,2.2-1.9l13.5-37.6c0.2-0.7,0.2-1.4,0-2l-6.5-18.2
				c-0.3-0.7-0.8-1.4-1.5-1.7c-2-0.9-3.7-2.2-5.2-3.7C80.4,36.6,79.7,36.2,78.8,36.2L78.8,36.2z"/>
		</g>
		<g>
			<path fill="#3C3C3B" d="M172.2,121.4c3.4,0,5.8,0.9,5.9,1l2,0.8l-6.3,6l-1.3,1.3v0l-5.9,5.7v0l-1.3,1.3l-5.9,5.7l-8.4,8.1
				l-9-24.6l4.5-4.2l0.9,0.6c1.8,1.2,4.1,1.7,6.9,1.7c3.4,0,7.4-0.8,12.1-2.5C168.5,121.6,170.5,121.4,172.2,121.4 M172.2,118.4
				c-2.3,0-4.6,0.4-6.8,1.2c-4.3,1.5-8.1,2.3-11.1,2.3c-2.2,0-4-0.4-5.2-1.2l-0.9-0.6c-0.5-0.3-1.1-0.5-1.6-0.5
				c-0.7,0-1.5,0.3-2.1,0.8l-4.5,4.2c-0.9,0.8-1.2,2.1-0.8,3.2l9,24.6c0.3,1,1.2,1.7,2.1,1.9c0.2,0.1,0.4,0.1,0.7,0.1
				c0.8,0,1.5-0.3,2.1-0.8l8.4-8.1l5.9-5.7l1.3-1.3l5.9-5.7l1.3-1.3l6.3-6c0.7-0.7,1.1-1.7,0.9-2.7s-0.9-1.8-1.8-2.2l-2-0.8
				C178.9,119.5,176.1,118.4,172.2,118.4L172.2,118.4z"/>
		</g>
		<g>
			<path fill="#3C3C3B" d="M133.6,134.6c3.2,7,6.9,15.2,10.6,23.3l-51.6,49.7l-51.2-49.4c3.7-8.1,7.4-16.2,10.6-23.3l40.6,38.1
				L133.6,134.6 M133.6,131.6c-0.8,0-1.5,0.3-2.1,0.8l-38.9,36.4l-38.6-36.1c-0.6-0.5-1.3-0.8-2.1-0.8c-0.2,0-0.4,0-0.6,0.1
				c-0.9,0.2-1.7,0.8-2.1,1.7l-5.8,12.7l-4.8,10.6c-0.5,1.2-0.3,2.5,0.6,3.4l51.2,49.4c0.6,0.6,1.3,0.8,2.1,0.8
				c0.8,0,1.5-0.3,2.1-0.8l51.6-49.7c0.9-0.9,1.2-2.2,0.6-3.4l-6.8-14.9l-3.8-8.4c-0.4-0.9-1.2-1.5-2.1-1.7
				C134,131.6,133.8,131.6,133.6,131.6L133.6,131.6z"/>
		</g>
		<g>
			<path fill="#3C3C3B" d="M13.1,121.4c1.7,0,3.7,0.2,5.8,1c4.7,1.7,8.7,2.5,12.1,2.5c2.8,0,5.1-0.6,6.9-1.7l0.9-0.6l4.8,4.5
				l-9,24.6l-8.7-8.4l-2.9-2.8l-4.4-4.2l-0.3-0.3l-7-6.7l-6.3-6.1l2-0.8C7.3,122.3,9.7,121.4,13.1,121.4 M13.1,118.4
				c-3.9,0-6.8,1.1-7.1,1.2l-2,0.8c-0.9,0.4-1.6,1.2-1.8,2.2s0.1,2,0.9,2.7l6.3,6.1l7,6.7l0.3,0.3l4.4,4.2l2.9,2.8l8.7,8.4
				c0.6,0.5,1.3,0.8,2.1,0.8c0.2,0,0.5,0,0.7-0.1c1-0.2,1.8-0.9,2.1-1.9l9-24.6c0.4-1.1,0.1-2.4-0.8-3.2l-4.8-4.5
				c-0.6-0.5-1.3-0.8-2.1-0.8c-0.6,0-1.1,0.2-1.6,0.5l-0.9,0.6c-1.2,0.8-3,1.2-5.2,1.2c-3,0-6.8-0.8-11.1-2.3
				C17.7,118.8,15.4,118.4,13.1,118.4L13.1,118.4z"/>
		</g>
	</g>
</g>
</svg>
