<?xml version="1.0" encoding="utf-8"?>
<!-- Generator: Adobe Illustrator 19.0.0, SVG Export Plug-In . SVG Version: 6.00 Build 0)  -->
<svg version="1.1" id="Слой_1" xmlns="http://www.w3.org/2000/svg" xmlns:xlink="http://www.w3.org/1999/xlink" x="0px" y="0px"
	 viewBox="-57 131.8 496.1 531.2" style="enable-background:new -57 131.8 496.1 531.2;" xml:space="preserve">
<style type="text/css">
	.sttt0{fill:none;}
	.sttt1{fill:#FFFFFF;}
	.sttt2{fill:#FFFFFF;stroke:#000000;stroke-width:0.5;stroke-miterlimit:10;}
	.sttt3{fill:url(#SVGID_1_);}
	.sttt4{fill:url(#SVGID_2_);}
	.sttt5{fill:url(#SVGID_3_);}
	.sttt6{fill:url(#SVGID_4_);}
	.sttt7{fill:none;stroke:#000000;stroke-linecap:round;stroke-linejoin:round;stroke-miterlimit:10;}
	.sttt8{fill:url(#SVGID_5_);}
	.sttt9{fill:url(#SVGID_6_);}
	.sttt10{fill:url(#SVGID_7_);}
	.sttt11{fill:url(#SVGID_8_);}
	.sttt12{fill:url(#SVGID_9_);}
	.sttt13{fill:url(#SVGID_10_);}
</style>
<pattern  x="-57" y="663" width="21.7" height="27.1" patternUnits="userSpaceOnUse" id="New_Pattern_Swatch_2" viewBox="0 -27.1 21.7 27.1" style="overflow:visible;">
	<g>
		<polygon class="sttt0" points="0,0 21.7,0 21.7,-27.1 0,-27.1 		"/>
		<g>
			<polygon class="sttt0" points="0,-27.1 21.7,-27.1 21.7,0 0,0 			"/>
			<path d="M0.5-0.9c0.3,0.1,0.7,0.1,1,0.2C2-0.6,1.8,0.1,1.3,0C1-0.1,0.6-0.1,0.3-0.2C-0.2-0.3,0-1,0.5-0.9z"/>
			<path d="M2.4-3.4c0.3,0,0.7,0,1,0c0.5,0,0.5,0.8,0,0.8c-0.3,0-0.7,0-1,0C1.9-2.6,1.9-3.4,2.4-3.4z"/>
			<path d="M5.4-0.8c0.5-0.3,1-0.7,1.5-1c0.4-0.3,0.8,0.4,0.4,0.6c-0.5,0.3-1,0.7-1.5,1C5.4,0.1,5-0.5,5.4-0.8z"/>
			<path d="M10.8-3.3c0.4-0.1,0.6-0.4,0.7-0.8c0.1-0.5,0.8-0.3,0.7,0.2c-0.2,0.6-0.6,1.1-1.3,1.3C10.5-2.5,10.3-3.2,10.8-3.3z"/>
			<path d="M7-4.7c0-0.4,0.3-0.8,0.7-0.9C8.2-5.7,8.4-5,7.9-4.9c0,0.1-0.1,0.1-0.1,0.2C7.7-4.3,7-4.3,7-4.7z"/>
			<path d="M2.4-6.9c0.3,0,0.5,0,0.8,0c0.5,0,0.5,0.8,0,0.8c-0.3,0-0.5,0-0.8,0C1.9-6.1,1.9-6.9,2.4-6.9z"/>
			<path d="M6.2-11.8c-1.2,0.3-2.4,0.6-3.5,0.9c-0.5,0.1-0.7-0.6-0.2-0.7c1.2-0.3,2.4-0.6,3.5-0.9C6.5-12.6,6.7-11.9,6.2-11.8z"/>
			<path d="M11.7-8.7c0,0.3,0,0.5,0,0.8c0,0.5-0.8,0.5-0.8,0c0-0.3,0-0.5,0-0.8C11-9.2,11.7-9.2,11.7-8.7z"/>
			<path d="M5-8.3c0.6-0.2,1.1-0.4,1.7-0.6c0.5-0.2,0.7,0.6,0.2,0.7C6.3-8,5.8-7.8,5.2-7.6C4.8-7.4,4.6-8.1,5-8.3z"/>
			<path d="M8.6-16.4c0.3-0.4,0.9,0,0.6,0.4c-0.2,0.3-0.3,0.5-0.5,0.8c-0.3,0.4-0.9,0-0.6-0.4C8.2-15.9,8.4-16.2,8.6-16.4z"/>
			<path d="M2.3-14.5c0.4-0.3,0.9,0.2,0.5,0.5S2-13.3,1.5-13c-0.4,0.3-0.9-0.2-0.5-0.5C1.5-13.9,1.9-14.2,2.3-14.5z"/>
			<path d="M3-18.7c0-0.8,0-1.5,0-2.3c0-0.5,0.8-0.5,0.8,0c0,0.8,0,1.5,0,2.3C3.7-18.3,3-18.3,3-18.7z"/>
			<path d="M5.9-16.8c-0.2,0.4-0.5,0.8-0.7,1.3c-0.2,0.4-0.9,0-0.6-0.4c0.2-0.4,0.5-0.8,0.7-1.3C5.5-17.6,6.2-17.2,5.9-16.8z"/>
			<path d="M6.2-20.1c0.3-0.8,0.6-1.6,0.8-2.5c0.2-0.5,0.9-0.3,0.7,0.2c-0.2,0.8-0.5,1.7-0.8,2.5C6.8-19.5,6-19.6,6.2-20.1z"/>
			<path d="M10.8-20.2c0.1-0.5,0.8-0.5,0.8,0c-0.1,0.6-0.3,1.1-0.6,1.5s-0.8-0.2-0.5-0.5C10.6-19.5,10.7-19.9,10.8-20.2z"/>
			<path d="M13.5-16.6c-0.1,0.4-0.2,0.8-0.3,1.2c-0.1,0.5-0.8,0.3-0.7-0.2c0.1-0.4,0.2-0.8,0.3-1.2C12.9-17.3,13.6-17.1,13.5-16.6z"
				/>
			<path d="M17.5-11.8c0.5-0.1,0.9-0.4,1.3-0.9c0.3-0.4,0.9,0,0.6,0.4c-0.4,0.6-1,1-1.7,1.2C17.2-11,17.1-11.7,17.5-11.8z"/>
			<path d="M20.5-17c0-0.5,0-1,0-1.5s0.8-0.5,0.8,0s0,1,0,1.5C21.2-16.5,20.5-16.5,20.5-17z"/>
			<path d="M18.5-23.1c0.1-0.5,0.8-0.3,0.7,0.2c-0.1,0.4,0,0.8,0.2,1.2c0.2,0.5-0.4,0.8-0.6,0.4C18.5-21.9,18.4-22.4,18.5-23.1z"/>
			<path d="M15.7-17.2c0-0.2,0-0.3,0-0.5c0-0.5,0.8-0.5,0.8,0c0,0.2,0,0.3,0,0.5C16.5-16.8,15.7-16.8,15.7-17.2z"/>
			<path d="M11.1-11.7c0.5-0.8,1.4-1.3,2.3-1.2c0.5,0,0.5,0.8,0,0.8c-0.7,0-1.3,0.2-1.7,0.8C11.5-10.9,10.8-11.2,11.1-11.7z"/>
			<path d="M9.2-13.5c0,0.3,0,0.5,0,0.8c0,0.5-0.8,0.5-0.8,0c0-0.3,0-0.5,0-0.8C8.5-14,9.2-14,9.2-13.5z"/>
			<path d="M9.1-10.1c0.5,0,0.5,0.8,0,0.8S8.6-10.1,9.1-10.1z"/>
			<path d="M17-14c-0.3,0.1-0.5,0.2-0.8,0.2c-0.5,0.1-0.7-0.6-0.2-0.7c0.3-0.1,0.5-0.2,0.8-0.2C17.2-14.9,17.4-14.2,17-14z"/>
			<path d="M13.8-9.6c0.2-0.1,0.5-0.2,0.7-0.3c0.5-0.2,0.6,0.5,0.2,0.7C14.5-9.1,14.2-9,14-8.9C13.5-8.7,13.3-9.4,13.8-9.6z"/>
			<path d="M15.8-6c0.3-0.1,0.7-0.2,1-0.3c0.5-0.1,0.7,0.6,0.2,0.7c-0.3,0.1-0.7,0.2-1,0.3C15.5-5.2,15.3-5.9,15.8-6z"/>
			<path d="M20-10.8c0.3-0.4,0.8,0.2,0.5,0.5S20-9.7,19.7-9.4c-0.3,0.4-0.8-0.2-0.5-0.5S19.8-10.5,20-10.8z"/>
			<path d="M21.7-14.2c0,0.1,0,0.2,0,0.3c0,0.5-0.8,0.5-0.8,0c0-0.1,0-0.2,0-0.3C21-14.7,21.7-14.7,21.7-14.2z"/>
			<path d="M19.1-15.9c0.5,0,0.5,0.8,0,0.8S18.6-15.9,19.1-15.9z"/>
			<path d="M13.4-7.6c0.4-0.3,0.8,0.4,0.4,0.6c-0.3,0.3-0.7,0.5-1,0.8c-0.4,0.3-0.8-0.4-0.4-0.6C12.7-7.1,13.1-7.3,13.4-7.6z"/>
			<path d="M4.3-24.8c0.1-0.1,0.2-0.2,0.3-0.3c0.3-0.2,0.9,0.3,0.5,0.6C5-24.4,5-24.3,4.9-24.2C4.5-23.9,4-24.4,4.3-24.8z"/>
			<path d="M9.4-22.6c0.1-0.4,0.2-0.8,0.3-1.2c0.1-0.5,0.9-0.3,0.8,0.2c-0.1,0.4-0.2,0.8-0.3,1.2C10.1-21.9,9.3-22.1,9.4-22.6z"/>
			<path d="M14.7-23.2c-0.1,0.5-0.9,0.3-0.8-0.1c0.1-0.3,0.2-0.7,0.3-1c0.1-0.5,0.8-0.3,0.7,0.2C14.8-23.8,14.8-23.5,14.7-23.2z"/>
			<path d="M14.6-20.1c-0.3,0-0.5,0.2-0.5,0.5c0.1,0.5-0.6,0.7-0.7,0.2c-0.1-0.8,0.4-1.5,1.2-1.5C15.1-20.9,15.1-20.1,14.6-20.1z"/>
			<path d="M16.2-23.7c-0.1-1,0-2.1,0.3-3.1c0.1-0.5,0.9-0.3,0.7,0.2c-0.3,1-0.3,1.9-0.2,2.9C17-23.3,16.3-23.3,16.2-23.7z"/>
			<path d="M21.7-22.7c0,0.5-0.8,0.5-0.8,0s0-1,0-1.5s0.8-0.5,0.8,0S21.7-23.2,21.7-22.7z"/>
		</g>
	</g>
</pattern>
<g id="burgers_x5F_noodles">
	<g>
		<g>
			<g>
				<g>
					<g>
						<path class="sttt1" d="M-49.9,657.9c-0.2,0-0.4-0.2-0.4-0.2c0-0.1-0.1-0.2-0.1-0.3c-0.1,0-0.3-0.1-0.3-0.2
							c-0.1-0.1-0.2-0.3-0.1-0.5l0.1-0.3c-0.9-9.3-0.9-19-0.8-29v-0.1c-0.1-0.1-0.1-0.2-0.1-0.4c0-0.3,0.2-0.7,0.6-0.9l0.7-0.3
							c1.5-0.6,3.2-1.2,4.6-1.2h0.1c0.1,0,0.2,0,0.3,0.1h0.1c0.3,0.1,0.7,0.2,1.2,0.2c0.3,0,0.7,0,1-0.1c0.3,0,0.7-0.1,1-0.1
							c0.6,0,1.4,0.1,2.1,0.7c0.8,0.7,1.8,2,1.8,3.6c0,2-0.3,2.3-1.6,3.8c-0.2,0.2-0.4,0.5-0.7,0.8l-6.1,7.3c2.7,1,5.6,1.7,8.5,2.2
							c0.1,0,0.2,0,0.2,0.1c0.2,0,0.3,0.2,0.4,0.3c0.1,0.2,0,0.5-0.2,0.7c-2.9,3.7-5.6,6.9-8.2,10c-0.2,0.3-0.4,0.6-0.7,0.9
							C-47.5,656.3-48.6,657.8-49.9,657.9L-49.9,657.9z M-47.7,645.8c-0.3,2.4-0.5,4.3-0.8,6.1c1.2-1,2.4-2,3.7-3
							c1.1-0.8,2.2-1.8,3.2-2.7c-0.9,0.2-1.7,0.3-2.5,0.3C-45.4,646.5-46.6,646.3-47.7,645.8z M-45.3,629.8
							c-0.2,1.7-0.6,3.5-0.9,5.2l-0.1,0.5c0.6-0.6,1.2-1.2,1.8-1.7c0.9-0.7,1.9-1.4,2.9-2.1c-0.6-0.4-1.3-0.8-2.1-1.1
							C-44.3,630.3-44.8,630-45.3,629.8z"/>
						<path d="M-45.8,624.8L-45.8,624.8c0.2,0,0.3,0,0.3,0.1c0,0,0,0,0.1,0c0,0,0,0,0.1,0c0.4,0.1,0.8,0.2,1.3,0.2
							c0.7,0,1.4-0.1,2-0.1c0.7,0,1.4,0.1,2,0.6c0.9,0.8,1.7,1.9,1.7,3.4c0,2.2-0.3,2.2-2.2,4.4c-2.1,2.5-4.2,5.1-6.3,7.6
							c2.8,1.1,5.8,1.8,8.9,2.3c0.1,0,0.1,0,0.2,0.1c0.3,0,0.4,0.3,0.1,0.6c-2.7,3.4-5.4,6.7-8.1,10c-1.1,1.3-2.4,3.5-3.9,3.5h-0.1
							c-0.3,0-0.3-0.3-0.1-0.6c-0.1,0-0.2,0.1-0.3,0.1c-0.2,0-0.3-0.1-0.3-0.4c0-0.1,0-0.2,0.1-0.3c-0.9-9.4-0.9-19.2-0.8-29
							c0-0.1,0-0.2,0-0.2c-0.3-0.1-0.2-0.7,0.2-0.9C-49.3,625.7-47.3,624.8-45.8,624.8 M-46.7,636.2c0.8-0.8,1.5-1.6,2.4-2.3
							c1-0.9,2.1-1.6,3.2-2.3c-0.8-0.5-1.6-1-2.5-1.4c-0.7-0.3-1.3-0.6-1.9-0.9C-45.8,631.6-46.3,633.9-46.7,636.2 M-48.9,652.6
							c1.4-1.2,2.7-2.3,4.2-3.4c1.4-1,2.6-2.2,3.9-3.4c-1.2,0.3-2.3,0.5-3.3,0.5c-1.4,0-2.6-0.2-3.8-0.7
							C-48.2,647.8-48.5,650.2-48.9,652.6 M-45.8,624.3L-45.8,624.3c-1.4,0-3.1,0.7-4.6,1.3c-0.2,0.1-0.5,0.2-0.7,0.3
							c-0.5,0.2-0.8,0.6-0.7,1.1c0,0.2,0.1,0.3,0.1,0.5l0,0c-0.1,9.9-0.1,19.6,0.8,29v0.1v0.1c-0.1,0.3,0,0.5,0.1,0.7
							c0.1,0.1,0.2,0.2,0.3,0.2c0,0.1,0,0.1,0.1,0.2c0.1,0.2,0.3,0.4,0.6,0.4h0.1c1.5,0,2.6-1.5,3.7-2.9c0.2-0.3,0.5-0.6,0.7-0.8
							c2.6-3.1,5.2-6.3,8.2-10c0.3-0.3,0.3-0.7,0.2-1c-0.1-0.2-0.3-0.4-0.5-0.4c-0.1-0.1-0.2-0.1-0.3-0.1c-2.8-0.4-5.6-1.1-8.1-2
							l5.9-7.1c0.3-0.3,0.5-0.6,0.7-0.8c1.3-1.6,1.6-1.9,1.6-4c0-1.7-1-3-1.9-3.8c-0.8-0.7-1.6-0.8-2.3-0.8c-0.3,0-0.7,0-1,0.1
							c-0.3,0-0.7,0.1-1,0.1c-0.4,0-0.8,0-1.1-0.1H-45c-0.1-0.1-0.2-0.1-0.4-0.1L-45.8,624.3L-45.8,624.3L-45.8,624.3z M-45.9,634.7
							c0.3-1.5,0.6-3.1,0.8-4.6c0.4,0.2,0.9,0.4,1.3,0.6c0.6,0.3,1.2,0.6,1.7,0.9c-1,0.6-1.8,1.2-2.6,1.9
							C-45.1,633.9-45.5,634.3-45.9,634.7L-45.9,634.7z M-48.2,651.3c0.2-1.5,0.4-3.2,0.7-5.1c1.1,0.4,2.2,0.5,3.4,0.5
							c0.6,0,1.1,0,1.7-0.1c-0.8,0.7-1.7,1.5-2.6,2.1C-46.1,649.6-47.1,650.4-48.2,651.3L-48.2,651.3z"/>
					</g>
					<g>
						<path class="sttt1" d="M-28.6,647.8c-0.3,0-0.5-0.2-0.6-0.4l0,0c-0.6-1.9-1.5-3.7-2.4-5.4c-1.2-2.4-2.4-4.9-3-7.7
							c-0.6-3.1-1.1-6.5-1.5-9.7c-0.1-1-0.3-1.9-0.4-2.9c0-0.2,0-0.4,0.2-0.6c0.2-0.2,0.4-0.3,0.6-0.3c0.7-0.5,1.4-0.8,2.2-0.8
							c0.1-0.1,0.3-0.1,0.5-0.1c0.2,0,0.4,0.1,0.5,0.3c0.9,1.8,1.2,4,1.5,6.1c0.3,1.8,0.5,3.6,1.1,5.2c0.5,1.3,0.8,2.8,1.1,4.2
							c0.2,0.9,0.4,1.8,0.6,2.6c0.1-1.2,0.1-2.4,0.2-3.6c0.1-3.2,0.2-6.5,0.8-9.9c0-0.3,0.1-0.8,0.1-1.5c0-2.3,0-5.8,2.1-6.9
							l0.2,0.2l-0.1-0.2c1-0.6,2-1,3-1.5c0.1,0,0.2-0.1,0.3-0.1c0.2,0,0.3,0.1,0.4,0.2c0.1,0.2,0.1,0.5,0,0.7
							c-0.7,9.9-1.8,19.8-6.5,31.5C-28,647.6-28.3,647.8-28.6,647.8L-28.6,647.8z"/>
						<path d="M-21.8,615c0.3,0,0.3,0.3,0.2,0.6c-0.8,10.8-2,20.3-6.5,31.6c-0.1,0.3-0.3,0.4-0.5,0.4s-0.3-0.1-0.3-0.3l0,0
							c-1.5-4.5-4.4-8.3-5.4-13.1c-0.8-4.1-1.3-8.4-1.9-12.6c0-0.3,0.3-0.6,0.6-0.6l0,0c0.7-0.5,1.4-0.8,2.1-0.8h0.1
							c0.1-0.1,0.3-0.1,0.4-0.1s0.2,0,0.3,0.2c1.6,3.3,1.3,7.8,2.6,11.3c0.9,2.4,1.2,5.6,2,8.2c0.3-5,0.2-9.8,1-14.9
							c0.2-1.5-0.5-6.9,2.1-8.2l0,0c0,0,0,0,0.1,0c1-0.5,2-1,3-1.4C-21.9,615-21.8,615-21.8,615 M-21.8,614.5c-0.1,0-0.2,0-0.4,0.1
							c-1,0.4-2,0.9-3,1.5l0,0l0,0l0,0c-2.2,1.2-2.3,4.8-2.3,7.1c0,0.6,0,1.1-0.1,1.4c-0.5,3.4-0.6,6.7-0.8,10c0,0.6,0,1.2-0.1,1.8
							c-0.1-0.3-0.1-0.6-0.2-0.9c-0.3-1.5-0.6-3-1.1-4.2c-0.6-1.6-0.9-3.4-1.1-5.2c-0.3-2.1-0.6-4.3-1.5-6.1
							c-0.1-0.3-0.4-0.4-0.7-0.4c-0.2,0-0.4,0.1-0.5,0.1c-0.7,0-1.5,0.3-2.2,0.8c-0.3,0-0.5,0.2-0.7,0.4s-0.3,0.5-0.2,0.8
							c0.1,1,0.3,1.9,0.4,2.9c0.4,3.2,0.8,6.6,1.5,9.7c0.6,2.8,1.8,5.3,3,7.7c0.9,1.7,1.7,3.5,2.4,5.4v0.1l0,0
							c0.1,0.3,0.4,0.6,0.8,0.6s0.8-0.3,1-0.7c4.7-11.8,5.8-21.7,6.5-31.6c0.1-0.3,0.1-0.6-0.1-0.9
							C-21.3,614.6-21.5,614.5-21.8,614.5L-21.8,614.5z"/>
					</g>
					<g>
						<path class="sttt1" d="M-16.7,644c-0.1,0-0.3,0-0.4-0.1c-0.1-0.1-0.2-0.2-0.1-0.4v-0.2c-0.1-0.1-0.1-0.2-0.1-0.3
							c0-6.1,0-11.1,0-15.8c-0.1-0.1-0.1-0.2-0.1-0.3c0-0.2,0-0.4,0.1-0.6c0-1.1,0.1-2.1,0.1-3.2c0.2-3.4,0.3-6.9-0.4-9.8
							c-0.1-0.2,0-0.5,0.2-0.7s0.4-0.4,0.7-0.4l0,0l0,0l5.3-1.4c0.2-0.2,0.3-0.2,0.5-0.2s0.4,0.1,0.5,0.3l0.5,0.3
							c2.4,1.5,5.3,3.4,6.3,6c0.1,0.2,0,0.5-0.1,0.7c-0.5,0.6-1,1.1-1.5,1.5c-0.4,0.3-0.7,0.6-1,0.9c-1,1-1.9,2-2.8,3.2
							c0.8,4.9,1.4,10,1.8,15.2l0.2,0.1l0.1,0.2c0.1,0.2,0,0.4-0.1,0.7c-0.2,0.3-0.5,0.4-0.7,0.4l0,0c-0.1,0-0.3,0-0.4-0.1
							c-0.2-0.1-0.3-0.2-0.3-0.5v-0.2c-1.3-3.4-2.8-6.8-4.4-10.2c-0.4,0.5-0.8,1-1.2,1.4c-0.2,1.6-0.5,3.3-0.8,4.9
							c-0.5,2.6-1,5.2-1,7.7C-15.8,643.6-16.3,644-16.7,644z M-12.1,616.9c-0.6,2.3-0.9,4.4-1.1,6.2c2-1.6,4-3.3,6-5
							c-0.1,0-0.1,0-0.2,0c-0.3,0-0.6,0.1-0.9,0.1c-0.4,0-0.8-0.1-1.1-0.2C-10.1,617.6-11.1,617.2-12.1,616.9z"/>
						<path d="M-10.7,610.7c0.1,0,0.3,0.1,0.3,0.2c2.3,1.5,5.7,3.5,6.8,6.3c0,0.1,0,0.3-0.1,0.5c-0.7,1-1.7,1.6-2.6,2.4
							c-1,1.1-2,2.2-2.9,3.3c0.8,5,1.4,10.1,1.8,15.2c0,0.1,0.1,0.2,0.1,0.4c0.1,0.4-0.3,0.7-0.6,0.7c-0.1,0-0.2,0-0.2-0.1
							c-0.1,0-0.2-0.1-0.2-0.3c0-0.1,0-0.1,0-0.2c-1.4-3.7-2.9-7.2-4.6-10.7c-0.5,0.6-0.9,1.2-1.4,1.8c-0.5,4.2-1.8,8.7-1.8,12.7
							c0,0.4-0.4,0.6-0.6,0.6c-0.1,0-0.3-0.1-0.3-0.3c0-0.1,0-0.2,0-0.3c0,0-0.1-0.1-0.1-0.2c0-5.3,0-10.6,0-15.9
							c-0.2-0.1-0.2-0.4,0-0.7c0.1-4.4,0.7-9.3-0.3-13.2c-0.1-0.4,0.3-0.8,0.6-0.8h0.1c0,0,0,0,0.1,0c1.8-0.5,3.5-0.9,5.3-1.4
							C-11,610.8-10.9,610.7-10.7,610.7 M-13.5,623.7c2.4-1.9,4.7-3.8,7-5.9l0,0c-0.6,0-1.2,0.1-1.8,0.1c-0.3,0-0.7,0-1-0.2
							c-1-0.5-2-0.9-3.1-1.1C-12.9,619-13.3,621.4-13.5,623.7 M-10.7,610.2c-0.2,0-0.5,0.1-0.7,0.3l-5.2,1.3l0,0
							c-0.3,0-0.6,0.2-0.9,0.5c-0.2,0.3-0.3,0.6-0.2,0.9c0.7,2.9,0.5,6.4,0.4,9.8c0,1.1-0.1,2.1-0.1,3.2c-0.1,0.2-0.2,0.5-0.1,0.7
							c0,0.1,0.1,0.2,0.1,0.3c-0.1,4.7-0.1,9.7,0,15.7c0,0.1,0,0.2,0.1,0.4v0.1c0,0.3,0.1,0.5,0.2,0.6c0.1,0.1,0.3,0.2,0.5,0.2
							c0.5,0,1.1-0.5,1.1-1.1c0-2.5,0.5-5.1,1-7.7c0.3-1.6,0.6-3.2,0.8-4.9c0.3-0.3,0.6-0.7,0.9-1.1c1.5,3.2,2.9,6.5,4.2,9.8l0,0
							v0.1c0,0.3,0.2,0.5,0.4,0.6c0.1,0.1,0.3,0.2,0.5,0.2c0.3,0,0.7-0.2,0.9-0.5c0.2-0.3,0.2-0.6,0.1-0.9l-0.1-0.2v-0.1
							c-0.4-5.1-1-10.1-1.8-15c0.9-1.1,1.8-2.1,2.7-3.1c0.3-0.3,0.7-0.6,1-0.9c0.5-0.5,1.1-0.9,1.6-1.5c0.2-0.2,0.3-0.6,0.2-1
							c-1.1-2.7-4-4.6-6.4-6.1l-0.5-0.3C-10.2,610.4-10.4,610.2-10.7,610.2L-10.7,610.2z M-12.9,622.6c0.2-1.6,0.5-3.4,0.9-5.3
							c1,0.3,1.8,0.7,2.5,1c0.3,0.2,0.7,0.2,1.2,0.2c0.1,0,0.2,0,0.4,0C-9.6,619.9-11.2,621.2-12.9,622.6L-12.9,622.6z"/>
					</g>
					<g>
						<path class="sttt1" d="M2.8,636.2c-0.1,0-0.2,0-0.3-0.1c-0.2,0-0.3-0.2-0.4-0.4c-0.8-3-1.8-24.5,2.6-30.2c0.8-1,1.7-1.5,2.7-1.5
							c0.2,0,0.4,0,0.6,0.1c0.1,0,0.2,0.1,0.2,0.1c0.9,0.2,1.8,0.5,2.5,1c0.4,0.3,0.4,0.6,0.3,0.9c0,0.1-0.1,0.3-0.2,0.4
							c0,0.1-0.1,0.1-0.1,0.2c-0.1,0.4-0.2,0.7-0.2,1.1c0,0.5-0.5,0.9-0.9,0.9c-0.1,0-0.2,0-0.2,0s0,0-0.1,0c-0.7,0-1.3-0.1-2-0.3
							c-1,6.9-1.8,14-2.6,21.1c1.9-1.9,3.7-4,5.3-6.1c-1.3-0.7-2.4-1.7-3.2-3.1c-0.1-0.2-0.1-0.5,0-0.7c0.1-0.3,0.4-0.5,0.7-0.5
							c0.2-0.1,0.3-0.1,0.4-0.1c0.3,0,0.5,0.1,0.8,0.2l0.2,0.1c0.5,0.2,1.1,0.3,1.7,0.3h0.3c1.2,0.1,2.5,0.2,3.7,0.6
							c0.3,0.1,0.4,0.4,0.3,0.8c0,0.1,0,0.2-0.1,0.3c-0.7,1.1-1.4,2.2-2.2,3.2c-0.3,0.3-0.5,0.7-0.8,1.1c-0.6,0.9-1.2,1.8-1.7,2.6
							c-0.3,0.6-0.7,1.2-1.1,1.7c-1.6,2.5-3.6,4.5-5.9,6.3C3,636.1,2.9,636.2,2.8,636.2L2.8,636.2z"/>
						<path d="M7.4,604.3c0.2,0,0.4,0,0.5,0.1c0.1,0,0.1,0.1,0.2,0.1c0.9,0.2,1.7,0.5,2.5,1c0.2,0.1,0.3,0.4,0.2,0.7
							c0,0.2-0.2,0.4-0.2,0.5c-0.2,0.4-0.2,0.8-0.3,1.2c0,0.4-0.4,0.6-0.6,0.6c-0.1,0-0.1,0-0.2-0.1H9.4l0,0c-0.8,0-1.5-0.1-2.3-0.3
							c-1,7.4-1.9,14.7-2.7,22c2.2-2.1,4.2-4.4,6-6.9c-1.4-0.7-2.5-1.7-3.4-3.1c-0.2-0.3,0.2-0.9,0.6-0.9l0,0c0,0,0,0,0.1,0
							s0.3,0,0.4,0c0.3,0,0.5,0.1,0.9,0.3c0.6,0.3,1.4,0.3,2.1,0.3c1.3,0.1,2.5,0.2,3.6,0.6c0.2,0.1,0.2,0.3,0.2,0.5
							c0,0.1,0,0.2-0.1,0.2c-0.9,1.5-2,2.8-3,4.2s-1.8,2.9-2.8,4.4c-1.6,2.5-3.5,4.5-5.9,6.2C3,636,2.9,636,2.8,636s-0.1,0-0.2-0.1
							l0,0c-0.1,0-0.2-0.1-0.2-0.2C1.5,632.5,0.2,604.3,7.4,604.3 M7.4,603.8c-1.1,0-2,0.5-2.9,1.6C0,611.3,1,632.8,1.8,635.9
							c0.1,0.3,0.3,0.5,0.6,0.5c0.1,0.1,0.2,0.1,0.4,0.1s0.4-0.1,0.6-0.2c2.4-1.7,4.4-3.8,6-6.3c0.4-0.6,0.7-1.2,1.1-1.8
							c0.5-0.9,1-1.8,1.7-2.6c0.3-0.4,0.5-0.7,0.8-1.1c0.8-1,1.5-2,2.2-3.2c0.1-0.1,0.1-0.3,0.1-0.4c0.1-0.5-0.1-0.9-0.5-1
							c-1.2-0.4-2.5-0.5-3.7-0.6h-0.3c-0.6,0-1.2-0.1-1.7-0.3l-0.2-0.1c-0.2-0.1-0.5-0.2-0.9-0.2c-0.1,0-0.3,0-0.5,0.1H7.4l0,0
							c-0.4,0-0.7,0.3-0.9,0.6c-0.2,0.3-0.2,0.7,0,1c0.8,1.3,1.8,2.3,3.1,3c-1.4,1.9-3,3.7-4.6,5.4c0.7-6.7,1.6-13.5,2.5-20.1
							c0.6,0.1,1.2,0.2,1.8,0.2l0,0c0.1,0,0.2,0,0.3,0c0.5,0,1.1-0.5,1.1-1.1c0-0.4,0.1-0.7,0.2-1c0,0,0-0.1,0.1-0.1
							c0.1-0.1,0.2-0.3,0.2-0.5c0-0.2,0.1-0.8-0.4-1.2c-0.7-0.5-1.6-0.8-2.5-1c-0.1-0.1-0.2-0.1-0.3-0.1
							C7.8,603.8,7.6,603.8,7.4,603.8L7.4,603.8L7.4,603.8L7.4,603.8z"/>
					</g>
					<g>
						<path class="sttt1" d="M18.1,631.3c-0.1,0-0.1,0-0.2,0s-0.2-0.1-0.3-0.2c-0.1-0.1-0.1-0.2-0.1-0.3c-0.1-0.1-0.1-0.2-0.1-0.3
							c-0.4-9.5-0.8-19.2-1.3-28.7c0-0.4,0.3-0.7,0.6-0.8c0.1-0.2,0.3-0.3,0.5-0.4c1.5-0.4,2.4-0.6,3.1-0.6c0.1,0,0.1,0,0.2,0
							l7.2-2.7h0.1c0,0,0.1-0.1,0.3-0.1c0.2,0,0.4,0.1,0.5,0.3c0.1,0.2,0.1,0.6-0.2,0.9l-6.6,6.7l-0.1,3.7c0.1,0,0.2,0,0.3,0
							c0.2,0,0.3,0,0.4,0c0.6,0.1,1.1,0.2,1.7,0.3c1.1,0.2,2.2,0.5,3.2,0.9c0.2,0.1,0.3,0.2,0.4,0.4s0,0.5-0.1,0.7
							c-1.2,1.7-2.7,2.6-4.2,3.4c-0.7,0.4-1.3,0.8-2,1.2c-0.2,2.9-0.5,5.4-0.8,7.8c0.4,0.1,0.9,0.1,1.3,0.1h0.7c0.2,0,0.4,0,0.7,0
							c1.2,0.1,2.4,0.2,3.6,0.4c0.2,0,0.4,0.2,0.4,0.4c0.1,0.3-0.1,0.7-0.4,0.9c-0.7,0.5-1.5,0.9-2.2,1.3c-0.7,0.4-1.4,0.7-2.1,1.2
							c-1.3,0.9-2.5,2-3.7,3.2C18.5,631.2,18.3,631.3,18.1,631.3z"/>
						<path d="M28,597.4c0.3,0,0.4,0.4,0.1,0.8c-2.2,2.3-4.4,4.5-6.7,6.8c0,0.2,0,0.4,0,0.6c0,1.1-0.1,2.3-0.1,3.5c0.3,0,0.8,0,1,0
							c0.6,0.1,1.1,0.2,1.7,0.3c1.1,0.2,2.2,0.5,3.2,0.9c0.2,0.1,0.3,0.4,0.1,0.7c-1.7,2.4-4.1,3.1-6.3,4.7
							c-0.2,2.7-0.4,5.4-0.9,8.1c0.5,0.1,1.1,0.1,1.6,0.1c0.2,0,0.5,0,0.7,0s0.4,0,0.7,0c1.2,0.1,2.4,0.2,3.6,0.4
							c0.4,0.1,0.3,0.6-0.1,0.9c-1.4,1-2.9,1.5-4.3,2.5c-1.3,0.9-2.5,2-3.7,3.2c-0.1,0.1-0.3,0.2-0.4,0.2h-0.1
							c-0.2,0-0.3-0.1-0.3-0.3c-0.1,0-0.1-0.1-0.1-0.2c-0.4-9.6-0.8-19.2-1.3-28.7c0-0.3,0.3-0.6,0.5-0.6c0.1-0.1,0.2-0.3,0.4-0.3
							c1.4-0.4,2.4-0.6,3-0.6c0.1,0,0.2,0,0.2,0c2.4-0.9,4.8-1.8,7.2-2.7h0.1C27.8,597.4,27.9,597.4,28,597.4 M28,596.9
							c-0.1,0-0.2,0-0.3,0.1h-0.1l-0.4,0.2l-6.7,2.5c-0.1,0-0.1,0-0.2,0c-0.7,0-1.7,0.2-3.2,0.6c-0.2,0.1-0.4,0.2-0.6,0.4
							c-0.4,0.2-0.7,0.6-0.7,1c0.5,9.5,1,19.1,1.3,28.7c0,0.2,0.1,0.3,0.1,0.4c0,0.1,0.1,0.3,0.2,0.3c0.1,0.1,0.3,0.2,0.5,0.2
							c0.1,0,0.2,0,0.2,0c0.2,0,0.4-0.1,0.7-0.3c1.2-1.1,2.3-2.2,3.6-3.1c0.7-0.5,1.4-0.8,2.1-1.2c0.7-0.4,1.5-0.8,2.3-1.3
							c0.4-0.3,0.6-0.8,0.5-1.2c-0.1-0.3-0.3-0.5-0.6-0.6c-1.2-0.2-2.4-0.3-3.6-0.4c-0.2,0-0.4,0-0.7,0H22h-0.4c-0.3,0-0.7,0-1,0
							c0.4-2.3,0.6-4.7,0.8-7.4c0.6-0.4,1.2-0.8,1.9-1.2c1.5-0.9,3.1-1.8,4.3-3.5c0.2-0.3,0.3-0.6,0.2-0.9c-0.1-0.2-0.3-0.4-0.5-0.5
							c-1.1-0.4-2.2-0.7-3.3-0.9c-0.6-0.1-1.2-0.2-1.7-0.3c-0.1,0-0.3,0-0.5,0c0,0,0,0-0.1,0c0-0.9,0.1-1.8,0.1-2.7v-0.3v-0.4
							l2.7-2.7l3.8-3.9c0.3-0.3,0.4-0.8,0.3-1.1C28.6,597.1,28.3,596.9,28,596.9L28,596.9z"/>
					</g>
					<g>
						<path class="sttt1" d="M32.7,624.9c-0.3,0-0.5-0.2-0.5-0.5c-0.2-3.5-0.4-7-0.4-10.6c-0.1-0.1-0.2-0.4,0-0.7
							c0-5.9,0.2-12,0.7-18.1c-0.1-0.1-0.1-0.3-0.1-0.5c0.1-0.4,0.5-0.7,0.9-0.7c0.2,0,0.4,0,0.6,0c1.2,0,2.4-0.3,3.7-0.8
							c0.1,0,0.2,0,0.2,0c0.1,0,0.1,0,0.2,0c0.2,0,0.3,0.1,0.4,0.2c0,0.1,0.1,0.2,0.1,0.3c1.4,0.4,3.4,0.9,4.1,2.3
							c0.3,0.7,0.3,1.5,0,2.4c-0.5,1.3-1.5,2.6-2.6,4c0.9,1.5,1,3.3,1.1,5.2c0,0.7,0.1,1.4,0.2,2c0.1,0.8,0.2,1.7,0.3,2.5
							c0.4,2.9,0.8,6,0.5,9.3c0,0.2-0.1,0.3-0.1,0.4c-0.1,0.1-0.1,0.1-0.1,0.2c-0.2,0.2-0.4,0.4-0.7,0.4c-0.2,0-0.4-0.1-0.5-0.4
							l-4.5-14c-0.7,1.2-1.4,2.4-2,3.6c-0.1,3.9-0.1,7.9,0,11.7v0.6c0,0.4-0.2,0.6-0.5,0.8C33.5,624.6,33.1,624.9,32.7,624.9z
							 M37.5,597.1c-0.3,0.8-0.5,1.6-0.8,2.4c-0.5,1.4-1,2.9-1.4,4.3c0.4-0.6,0.8-1.2,1.2-1.8l0.5-0.9c1-1.6,1.9-2.7,3-3.6
							C39.2,597.3,38.3,597.2,37.5,597.1z"/>
						<path d="M38,593.1c0.2,0,0.3,0.1,0.3,0.4l0,0c2.1,0.5,5.3,1.4,4.1,4.5c-0.5,1.3-1.6,2.7-2.7,4c1.3,2,1,4.6,1.3,7.2
							c0.4,3.9,1.1,7.5,0.8,11.7c0,0.1-0.1,0.2-0.1,0.3l0,0c0,0,0,0.1-0.1,0.1c-0.1,0.2-0.3,0.3-0.5,0.3c-0.1,0-0.2-0.1-0.2-0.2
							c-1.5-4.8-3.1-9.7-4.6-14.5c-0.8,1.4-1.6,2.8-2.3,4.2c-0.2,4.2-0.1,8.2,0,12.3c0,0.3-0.2,0.5-0.5,0.6c0,0.3-0.3,0.6-0.6,0.6
							c-0.1,0-0.3-0.1-0.3-0.3c-0.3-3.5-0.4-7.1-0.4-10.7c-0.1-0.1-0.2-0.2-0.1-0.5c0,0,0-0.1,0.1-0.1c0-5.9,0.2-12,0.7-18.2l0,0
							c-0.3-0.2,0.1-0.9,0.6-0.9l0,0c0.2,0,0.4,0,0.5,0c1.2,0,2.5-0.3,3.8-0.8C37.9,593.1,37.9,593.1,38,593.1c0,0,0,0,0.1,0
							C37.9,593.2,38,593.1,38,593.1 M34.6,605.5c0.8-1.4,1.8-2.9,2.6-4.3c1-1.6,2-2.8,3.4-3.9c-1.1-0.2-2.1-0.4-3.3-0.6
							C36.4,599.7,35.3,602.7,34.6,605.5 M38,592.6c-0.1,0-0.1,0-0.2,0l0,0c-0.1,0-0.2,0-0.3,0.1c-1.3,0.5-2.5,0.7-3.6,0.7
							c-0.2,0-0.3,0-0.5,0l0,0l0,0c-0.6,0-1,0.5-1.1,0.9c-0.1,0.2,0,0.5,0,0.6c-0.5,6-0.7,12-0.7,17.9l0,0c-0.2,0.4-0.1,0.7,0,0.9
							c0,3.6,0.2,7.1,0.4,10.6c0,0.4,0.4,0.7,0.8,0.7s0.9-0.3,1-0.7c0.3-0.2,0.5-0.5,0.5-1v-0.5c-0.1-3.8-0.1-7.7,0-11.6
							c0.5-1,1.1-2.1,1.7-3.1l4.3,13.4c0.1,0.3,0.4,0.5,0.7,0.5c0.3,0,0.6-0.2,0.9-0.5l0.1-0.1l0,0l0,0l0,0l0,0
							c0.1-0.1,0.1-0.3,0.2-0.5c0.3-3.3-0.1-6.4-0.5-9.3c-0.1-0.8-0.2-1.6-0.3-2.5c-0.1-0.7-0.1-1.4-0.1-2c-0.1-1.9-0.2-3.6-1-5.1
							c1.1-1.3,2.1-2.7,2.6-3.9c0.4-1,0.4-1.9,0-2.6c-0.7-1.4-2.6-2-4.1-2.4c0-0.1-0.1-0.2-0.1-0.2C38.5,592.7,38.2,592.6,38,592.6
							L38,592.6z M36.1,602.1c0.3-0.8,0.5-1.7,0.8-2.5c0.3-0.7,0.5-1.5,0.7-2.2c0.6,0.1,1.2,0.2,1.8,0.3c-1,0.9-1.8,1.9-2.7,3.3
							l-0.6,0.9C36.2,601.9,36.1,602,36.1,602.1L36.1,602.1z"/>
					</g>
					<g>
						<path class="sttt1" d="M47,619.1c-0.1,0-0.2,0-0.3-0.1c-0.1,0-0.3-0.1-0.3-0.3c-0.1-0.1-0.1-0.3,0-0.6c0.2-0.5,0.4-1.1,0.6-1.6
							c1.1-2.7,2.2-5.6,3.8-8.3c-1.2-0.7-2.2-1.6-3.2-2.4c-0.9-0.7-1.8-1.5-2.8-2.1c-0.2-0.1-0.3-0.4-0.2-0.7c0-0.1,0-0.2,0-0.3
							c1.2-5.1,3.4-10.3,6.4-15.2c0.2-0.3,0.4-0.4,0.6-0.4s0.4,0.1,0.5,0.3s0.1,0.5-0.1,0.8l-0.2,0.3c0,0.1-0.1,0.2-0.1,0.4
							c-2.2,3.2-2.6,6.6-2.9,9.8c-0.1,1-0.2,2-0.4,3c2.6,0.7,5.2,1.6,7.7,2.6c0.2,0.1,0.3,0.2,0.3,0.5c0.1,0.2,0,0.5-0.1,0.7
							c-3.1,4.3-6,8.8-8.7,13.3C47.4,619,47.2,619.1,47,619.1z"/>
						<path d="M51.7,587.5c0.3,0,0.4,0.3,0.2,0.7c-0.1,0.1-0.1,0.2-0.2,0.3c0,0.1,0,0.2-0.1,0.3c-3,4.4-2.6,8.8-3.4,13.1
							c2.7,0.7,5.3,1.6,7.9,2.6c0.1,0.1,0.2,0.2,0.1,0.3c0.1,0.1,0.1,0.3-0.1,0.5c-3.1,4.3-6,8.8-8.7,13.3c-0.1,0.2-0.3,0.3-0.4,0.3
							s-0.1,0-0.2-0.1c-0.2,0-0.3-0.2-0.2-0.5c1.4-3.4,2.6-6.8,4.6-10.1c-2.3-1.2-4-3.3-6.2-4.7c-0.1-0.1-0.2-0.3-0.1-0.4
							c0-0.1,0-0.1,0-0.2c1.2-5.2,3.4-10.2,6.4-15.2C51.4,587.5,51.5,587.5,51.7,587.5 M51.7,587c-0.3,0-0.6,0.2-0.8,0.5
							c-3.1,5-5.2,10.2-6.4,15.3c0,0.1,0,0.2,0,0.3c-0.1,0.4,0,0.7,0.3,0.9c1,0.6,1.9,1.4,2.8,2.1c1,0.8,1.9,1.6,3,2.3
							c-1.6,2.6-2.7,5.4-3.7,8.1c-0.2,0.5-0.4,1.1-0.6,1.6c-0.1,0.3-0.1,0.6,0,0.8s0.3,0.3,0.4,0.4c0.1,0.1,0.3,0.1,0.4,0.1
							c0.3,0,0.6-0.2,0.8-0.5c2.7-4.5,5.6-9,8.7-13.3c0.2-0.3,0.3-0.6,0.2-0.9c0-0.3-0.2-0.5-0.5-0.6c-2.4-1-4.9-1.8-7.5-2.5
							c0.1-0.9,0.3-1.9,0.4-2.8c0.4-3.3,0.7-6.5,2.9-9.7c0.1-0.1,0.2-0.3,0.2-0.4v-0.1l0.1-0.2c0.2-0.3,0.2-0.7,0.1-1
							C52.2,587.1,52,587,51.7,587L51.7,587z"/>
					</g>
				</g>
				<g>
					<g>
						<path class="sttt1" d="M101.2,597.7c-0.3,0-0.5-0.2-0.5-0.5c-0.3-9.6-0.1-19.4,0.7-29.4c0-0.3,0.3-0.7,0.6-0.8
							c1.3-0.3,2.6-0.7,3.9-1.3c0.1,0,0.2,0,0.2,0s0.1-0.1,0.3-0.1s0.3,0.1,0.4,0.2c0.1,0.1,0.1,0.2,0.1,0.4l0.1,0.1
							c2.7,6.2,4.3,13.2,5.5,19.4v-10.8c0-1-0.1-2.1-0.1-3.2c-0.2-2.6-0.4-5.5,0.4-8.1c0.1-0.2,0.2-0.5,0.4-0.6
							c0.9-0.5,1.8-0.7,2.7-0.9c0.3-0.1,0.6-0.1,0.9-0.2c0.1,0,0.1,0,0.2,0h0.1c0.1,0,0.1,0,0.2,0c0.2,0,0.3,0.1,0.4,0.2
							c0.1,0.1,0.2,0.3,0.1,0.5c-1.1,6.1-1.6,12-2.1,19c0,0.7-0.1,1.5-0.1,2.2c0,2.8-0.1,5.6-1.7,8.4c-0.2,0.3-0.5,0.5-0.8,0.5l0,0
							c-0.2,0-0.3-0.1-0.4-0.2l-0.1-0.1c-0.2,0-0.4-0.1-0.4-0.4c-2.1-5.9-4.3-11.6-7.1-17c-0.6,2.7-1.3,5.4-1.6,8
							c-0.2,1.8-0.3,3.5-0.4,5.2c-0.1,2.6-0.2,5.2-0.9,8c0,0.1,0,0.2-0.1,0.2v0.3c0,0.2-0.1,0.4-0.2,0.6
							C101.6,597.6,101.4,597.7,101.2,597.7z"/>
						<path d="M117.2,562c0.2,0,0.3,0.1,0.3,0.4c-1.2,6.5-1.7,12.8-2.1,19c-0.2,3.3,0.3,7-1.7,10.5c-0.1,0.3-0.4,0.4-0.6,0.4
							c-0.2,0-0.4-0.1-0.3-0.4l0,0c-0.1,0-0.1,0.1-0.2,0.1c-0.1,0-0.2-0.1-0.3-0.2c-2.2-6.1-4.5-12.1-7.4-17.6
							c-0.7,2.9-1.4,5.8-1.8,8.7c-0.6,4.5,0,8.6-1.3,13.2c0,0.1-0.1,0.2-0.1,0.2c0,0.1,0,0.3,0,0.4c0,0.4-0.3,0.6-0.6,0.6
							c-0.2,0-0.3-0.1-0.3-0.3c-0.3-9.6-0.1-19.4,0.7-29.3c0-0.2,0.2-0.5,0.4-0.6c1.3-0.3,2.6-0.7,3.9-1.3c0.1,0,0.1,0,0.1,0
							c0.1,0,0.2-0.1,0.2-0.1c0.2,0,0.4,0.1,0.3,0.4l0,0l0.1,0.1c2.9,6.8,4.6,14.3,6,22c0-4.5,0-9,0-13.5c0-3.4-0.8-7.6,0.2-11.3
							c0-0.2,0.2-0.4,0.3-0.4c1.2-0.6,2.3-0.8,3.5-1.1h0.1h0.1C117,562,117.1,562,117.2,562 M117.2,561.5c-0.1,0-0.2,0-0.2,0l0,0
							c-0.1,0-0.2,0-0.2,0c-0.3,0.1-0.6,0.1-0.8,0.2c-0.9,0.2-1.8,0.4-2.7,0.9c-0.3,0.2-0.5,0.5-0.6,0.7c-0.7,2.6-0.5,5.6-0.4,8.2
							c0.1,1.1,0.1,2.2,0.1,3.2v8.3c-1.2-5.6-2.7-11.6-5.1-17c0,0,0-0.1-0.1-0.1c0-0.2-0.1-0.3-0.2-0.5c-0.2-0.2-0.4-0.3-0.6-0.3
							c-0.1,0-0.2,0-0.3,0.1c-0.1,0-0.1,0-0.2,0.1c-1.3,0.6-2.6,1-3.9,1.3c-0.5,0.1-0.8,0.7-0.8,1.1c-0.7,9.9-1,19.8-0.7,29.4
							c0,0.5,0.3,0.8,0.8,0.8c0.3,0,0.6-0.1,0.8-0.4c0.2-0.2,0.3-0.5,0.3-0.8v-0.2v-0.1c0-0.1,0.1-0.1,0.1-0.2
							c0.8-2.8,0.8-5.5,0.9-8.1c0.1-1.7,0.1-3.4,0.4-5.2c0.3-2.4,0.9-4.9,1.5-7.4c2.7,5.2,4.8,10.9,6.8,16.3
							c0.1,0.2,0.3,0.4,0.5,0.5c0,0,0,0,0,0.1c0.1,0.2,0.4,0.3,0.6,0.3c0.4,0,0.8-0.2,1-0.6c1.6-2.8,1.7-5.9,1.7-8.5
							c0-0.8,0-1.5,0.1-2.2c0.4-7,1-12.9,2.1-19c0-0.3,0-0.5-0.2-0.7C117.6,561.6,117.4,561.5,117.2,561.5L117.2,561.5z"/>
					</g>
					<g>
						<path class="sttt1" d="M124.2,589.2c-0.1,0-0.3,0-0.4-0.1c-0.2,0-0.3-0.1-0.4-0.3c-2.8-5.2-3.6-12.3-2.2-20.4
							c0.4-2.4,2.1-10.4,5.9-10.4h0.2c2.3,0.1,2.6,1.6,2.9,3.6c0,0.3,0.1,0.5,0.1,0.8c0.2,0.9,0.3,1.8,0.5,2.8c0.5,2.3,1,4.7,1,7.1
							c0,5.1-2.2,12.3-7.1,16.6C124.5,589.1,124.3,589.2,124.2,589.2z M125.4,566.2c-1.6,2.6-1.3,6.8-1.2,9.1v0.3
							c0.1,2.5,0.5,4.8,1.1,7.1C128.2,575.9,127,570.3,125.4,566.2z"/>
						<path d="M127.1,558.3h0.1c2.4,0.1,2.4,1.8,2.8,4.2c0.5,3.2,1.5,6.4,1.5,9.9c0,5.1-2.2,12.2-7,16.4c-0.1,0.1-0.3,0.2-0.4,0.2
							s-0.2,0-0.3-0.1c0,0,0,0-0.1,0s-0.2,0-0.2-0.1c-3-5.5-3.5-12.6-2.2-20.3C121.8,566.5,123.4,558.3,127.1,558.3 M125.3,583.4
							c3.2-6.8,2.2-12.6,0.2-17.8c-2,2.7-1.6,7.5-1.5,9.9C124.1,578.3,124.6,580.9,125.3,583.4 M127.1,557.8
							c-3.9,0-5.6,7.4-6.1,10.6c-1.4,8.2-0.7,15.3,2.2,20.6c0.1,0.2,0.3,0.3,0.5,0.4c0.1,0.1,0.3,0.1,0.4,0.1c0.2,0,0.4,0,0.7-0.3
							c5-4.4,7.2-11.6,7.2-16.8c0-2.5-0.5-4.9-1-7.2c-0.2-1-0.4-1.9-0.5-2.8c0-0.3-0.1-0.5-0.1-0.8c-0.3-2-0.6-3.7-3.1-3.8
							C127.2,557.8,127.2,557.8,127.1,557.8L127.1,557.8z M125.4,581.9c-0.5-2.1-0.8-4.1-0.9-6.3v-0.3c-0.1-2.1-0.4-5.9,0.9-8.4
							C126.8,570.7,127.8,575.8,125.4,581.9L125.4,581.9z"/>
					</g>
					<g>
						<path class="sttt1" d="M137.5,584.1c-0.1,0-0.3,0-0.4-0.1c-0.2,0-0.3-0.1-0.4-0.3c-2.8-5.2-3.6-12.3-2.2-20.4
							c0.4-2.4,2.1-10.4,5.9-10.4h0.2c2.3,0.1,2.6,1.6,2.9,3.6c0,0.3,0.1,0.5,0.1,0.8c0.2,0.9,0.3,1.8,0.5,2.8c0.5,2.3,1,4.7,1,7.2
							c0,5.1-2.2,12.3-7.1,16.6C137.8,584,137.6,584.1,137.5,584.1L137.5,584.1z M138.8,561c-1.6,2.6-1.3,6.7-1.2,9v0.3
							c0.1,2.5,0.5,4.8,1.1,7.1C141.6,570.8,140.3,565.2,138.8,561z"/>
						<path d="M140.4,553.1h0.1c2.4,0.1,2.4,1.8,2.8,4.2c0.5,3.2,1.5,6.4,1.5,9.9c0,5.1-2.2,12.2-7,16.4c-0.1,0.1-0.3,0.2-0.4,0.2
							c-0.1,0-0.2,0-0.3-0.1c0,0,0,0-0.1,0s-0.2,0-0.2-0.1c-3-5.5-3.5-12.6-2.2-20.3C135.2,561.3,136.8,553.1,140.4,553.1
							 M138.6,578.3c3.2-6.8,2.2-12.6,0.2-17.8c-2,2.7-1.6,7.5-1.5,9.9C137.5,573.2,137.9,575.8,138.6,578.3 M140.4,552.6
							c-3.9,0-5.6,7.4-6.1,10.6c-1.4,8.2-0.7,15.3,2.2,20.6c0.1,0.2,0.3,0.3,0.5,0.4c0.1,0.1,0.3,0.1,0.4,0.1c0.2,0,0.4,0,0.7-0.3
							c5-4.4,7.2-11.6,7.2-16.8c0-2.5-0.5-4.9-1-7.2c-0.2-1-0.4-1.9-0.5-2.8c0-0.3-0.1-0.5-0.1-0.8c-0.3-2-0.6-3.7-3.1-3.8
							C140.6,552.6,140.5,552.6,140.4,552.6L140.4,552.6z M138.8,576.7c-0.5-2.1-0.8-4.1-0.9-6.3v-0.3c-0.1-2.1-0.4-5.9,0.9-8.4
							C140.1,565.6,141.1,570.7,138.8,576.7L138.8,576.7z"/>
					</g>
					<g>
						<path class="sttt1" d="M150.8,578.6c-0.3,0-0.5-0.2-0.5-0.5c-0.5-8.9-0.9-17.9-1.2-26.8c0-0.4,0.3-0.7,0.6-0.8
							c1.8-0.7,3.5-1.4,5.2-2l0,0l0,0c0.1-0.1,0.3-0.1,0.4-0.1c0.1,0,0.3,0.1,0.3,0.1c0.1,0.1,0.1,0.2,0.1,0.4v0.1
							c0.8,0.2,1.6,0.4,2.4,0.5c2.2,0.4,4.5,0.9,5.5,2.5c0.6,1.1,0.7,2.5,0.1,4.4c-1,3.2-2.5,6.6-4,9.9l-0.7,1.6
							c-1,2.3-2.4,3.8-3.7,5.3c-1.1,1.2-2.2,2.5-3.2,4.3l0,0c0,0.3-0.1,0.5-0.2,0.7c-0.2,0.2-0.4,0.3-0.6,0.3l0,0h-0.1
							C151.1,578.5,150.9,578.6,150.8,578.6z M155.2,553c-0.3,2-0.8,4.2-1.2,6.2c-1,5-2.1,10.1-2,14.8c0.9-1.8,1.8-3.6,2.8-5.4
							c1.2-2.1,2.3-4.3,3.3-6.5c0.1-0.3,0.3-0.6,0.4-0.9c0.9-2,1.7-3.8,1.2-5.1c-0.3-0.6-0.8-1-1.7-1.3c-0.4-0.2-0.8-0.4-1.2-0.6
							C156.2,553.9,155.7,553.5,155.2,553z"/>
						<path d="M155.3,548.5c0.1,0,0.2,0.1,0.2,0.3c0,0.1,0,0.2,0,0.3c4,1.3,10.1,0.6,8,7.2c-1.2,3.7-3,7.8-4.6,11.5
							c-1.8,4.2-4.7,5.6-6.9,9.6c0,0,0,0,0,0.1v0.1c0.1,0.3-0.3,0.7-0.6,0.7c-0.1,0-0.1,0-0.2-0.1c-0.1,0.1-0.3,0.2-0.4,0.2
							c-0.1,0-0.3-0.1-0.3-0.3c-0.5-8.9-0.9-17.9-1.2-26.8c0-0.2,0.2-0.5,0.4-0.6c1.7-0.7,3.4-1.4,5.2-2c0,0,0,0,0.1,0
							C155.1,548.5,155.2,548.5,155.3,548.5 M151.7,575c2-4.3,4.6-8.5,6.6-12.8c1.4-3.2,3.4-6.5-0.3-7.7c-0.4-0.2-0.8-0.3-1.2-0.5
							c-0.7-0.5-1.3-0.9-1.9-1.5C153.8,560.1,151.4,568.2,151.7,575 M155.3,548c-0.2,0-0.3,0-0.5,0.1c0,0,0,0-0.1,0
							c-1.7,0.6-3.4,1.3-5.2,2c-0.4,0.2-0.7,0.6-0.7,1c0.3,8.9,0.7,18,1.2,26.8c0,0.4,0.3,0.7,0.8,0.7c0.2,0,0.4-0.1,0.5-0.1h0.1
							c0.3,0,0.6-0.2,0.8-0.4c0.2-0.2,0.3-0.5,0.3-0.8c1-1.7,2.1-3,3.2-4.2c1.3-1.5,2.7-3,3.7-5.4l0.7-1.6c1.4-3.3,2.9-6.7,4-9.9
							c0.6-2,0.6-3.5-0.1-4.6c-1-1.8-3.4-2.2-5.7-2.7c-0.7-0.1-1.5-0.3-2.2-0.5c0-0.2-0.1-0.4-0.2-0.5
							C155.7,548.1,155.5,548,155.3,548L155.3,548z M152.2,572.9c0.1-4.3,1.1-9,2-13.6c0.4-1.9,0.8-3.9,1.1-5.8
							c0.4,0.3,0.8,0.6,1.2,0.9c0.4,0.2,0.8,0.4,1.3,0.6c0.9,0.3,1.4,0.7,1.6,1.2c0.5,1.1-0.4,3-1.2,4.8c-0.1,0.3-0.3,0.6-0.4,0.9
							c-1,2.2-2.2,4.4-3.3,6.5C153.7,569.9,152.9,571.4,152.2,572.9L152.2,572.9z"/>
					</g>
					<g>
						<path class="sttt1" d="M166,572.8c-0.5-1.5,0-2.7,0-2.7c0.9-2.8,1.2-5.5,1.3-7.5l0,0c0.1-1.1,0.1-2.3,0.2-3.4
							c0.1-1.1,0.1-2.2,0.2-3.3c0.3-3.5,0.8-7.3,1.7-12.3c0.1-0.4,0.5-0.7,0.9-0.7c0.3,0,0.4,0.2,0.5,0.4c0.2,1.1,0.4,2.2,0.6,3.3
							c0.4,2.3,0.8,4.6,1,7.1c0.2,3.2-0.1,6.7-0.3,10.2c-0.1,1.2-0.2,2.5-0.3,3.7l0,0c1.1,0,3.7-0.6,6-1.2c1.7-0.4,3.3-0.8,4.1-0.9
							l0,0c0.4,0,0.6,0.2,0.6,0.5c0,0.4-0.3,0.9-0.7,1l0,0c0,0,0,0-0.1,0c-3.6,1.4-11.9,4.7-15.3,6.1l-0.3,0.1L166,572.8z"/>
						<path d="M170.3,543.1c0.1,0,0.2,0.1,0.2,0.2c0.5,3.5,1.3,6.8,1.6,10.4c0.3,4.4-0.4,9.4-0.6,14.1c0.1,0,0.2,0,0.3,0h0.1
							c1.8,0,8.3-1.9,10-2.1l0,0c0.5,0,0.3,0.9-0.3,0.9c0,0-0.1,0-0.1,0.1c-3.5,1.3-11.8,4.6-15.3,6.1l0,0c-0.6-1.5,0-2.6,0-2.6
							c0.8-2.6,1.2-5.1,1.3-7.6l0,0l0,0c0.2-2.2,0.2-4.5,0.4-6.7c0.3-4,0.9-8.1,1.7-12.3C169.7,543.3,170,543.1,170.3,543.1
							 M170.3,542.6c-0.5,0-1,0.4-1.1,0.9c-0.9,5-1.5,8.8-1.7,12.3c-0.1,1.1-0.1,2.3-0.2,3.3c-0.1,1.1-0.1,2.2-0.2,3.4v0.1
							c-0.1,2-0.4,4.6-1.3,7.3c-0.1,0.2-0.5,1.4,0,2.8v0.1l0.1,0.6l0.5-0.2c3.4-1.5,11.7-4.7,15.3-6.1c0,0,0.1,0,0.1-0.1
							c0.5-0.2,0.9-0.7,0.8-1.2c0-0.4-0.4-0.7-0.8-0.7l0,0h-0.1c-0.8,0.1-2.3,0.5-4.1,0.9c-2.2,0.5-4.6,1.1-5.7,1.2
							c0.1-1.1,0.2-2.3,0.3-3.4c0.3-3.4,0.6-7,0.3-10.2c-0.2-2.5-0.6-4.8-1-7.1c-0.2-1.1-0.4-2.2-0.6-3.3
							C171,542.8,170.7,542.6,170.3,542.6L170.3,542.6z"/>
					</g>
					<g>
						<path class="sttt1" d="M185.6,566c-0.3,0-0.5-0.2-0.5-0.5c-0.7-9.3-0.8-18.9-0.4-28.6c0-0.3,0.3-0.8,0.6-0.8
							c1.1-0.2,2.1-0.6,3.2-1c0.1,0,0.2-0.1,0.3-0.1c0.2,0,0.3,0.1,0.4,0.2c0.1,0.1,0.2,0.3,0.1,0.5v0.1c0.7-0.1,1.4-0.2,2.1-0.2
							c0.8,0,1.7,0.1,2.5,0.2c0.1,0,0.3,0,0.6,0.1c0.8,0.1,2,0.2,2.1,1c0.1,0.3,0,0.6-0.3,0.8c-0.9,0.9-2.2,1.6-3.3,2.2
							c-0.4,0.2-0.7,0.4-1,0.6c-1.1,0.7-2.3,1.3-3.7,2.1c-0.4,2.9-0.7,6-0.9,9c1.3-0.1,2.5-0.2,3.5-0.2c0.3,0,0.6,0,0.8,0h0.4
							c0.4,0,0.9,0,1.2,0.3c0.1,0.1,0.2,0.3,0.1,0.6c-0.2,0.9-1.2,1.4-1.9,1.8c-0.1,0.1-0.3,0.1-0.4,0.2c-1.4,0.8-2.7,1.5-4,2
							c-0.1,1.5-0.1,2.8-0.1,4.1c1.4-0.2,2.6-0.2,3.6-0.2c1.8,0,3.3,0.2,4.4,0.7c0.2,0.1,0.3,0.3,0.3,0.5c0,0.3-0.3,0.7-0.6,0.8
							c-2.7,0.7-5.4,1.7-8.2,2.8c0,0.2-0.1,0.3-0.2,0.5C186,565.9,185.8,566,185.6,566z"/>
						<path d="M188.7,535.2c0.2,0,0.3,0.2,0.3,0.4c0,0.2-0.1,0.3-0.1,0.5c0.8-0.2,1.6-0.2,2.4-0.2c0.9,0,1.7,0.1,2.5,0.2
							c0.7,0.1,2.3,0,2.5,0.8c0,0.2,0,0.4-0.2,0.6c-1.1,1.1-3,2-4.3,2.8c-1.3,0.7-2.5,1.5-3.8,2.1c-0.4,3.2-0.7,6.3-1,9.5
							c0.1,0,0.1,0,0.2-0.1c1.2-0.1,2.5-0.2,3.6-0.2c0.3,0,0.5,0,0.8,0c0,0,0,0,0.1,0s0.2,0,0.4,0c0.5,0,1.2,0.1,1,0.7
							c-0.2,0.9-1.5,1.5-2.2,1.9c-1.3,0.8-2.7,1.5-4,2.1h-0.1c-0.1,1.5-0.1,3-0.1,4.5c1.3-0.1,2.6-0.3,3.9-0.3
							c1.6,0,3.1,0.2,4.3,0.7c0.3,0.1,0.1,0.8-0.3,0.9c-2.8,0.8-5.6,1.7-8.4,2.8l0,0c0,0.4-0.3,0.6-0.6,0.6c-0.2,0-0.3-0.1-0.3-0.3
							c-0.7-9.3-0.8-18.8-0.4-28.6c0-0.2,0.2-0.6,0.4-0.6c1.1-0.2,2.2-0.6,3.2-1C188.6,535.2,188.7,535.2,188.7,535.2 M188.7,534.7
							L188.7,534.7L188.7,534.7c-0.1,0-0.2,0-0.3,0.1c-1.1,0.5-2.1,0.8-3.2,1c-0.5,0.1-0.8,0.7-0.8,1.1c-0.4,9.7-0.3,19.3,0.4,28.6
							c0,0.4,0.4,0.7,0.8,0.7c0.3,0,0.6-0.1,0.8-0.4c0.1-0.1,0.2-0.3,0.3-0.4c2.7-1.1,5.4-2,8-2.7c0.5-0.1,0.8-0.6,0.8-1.1
							c0-0.4-0.1-0.6-0.4-0.8c-1.2-0.5-2.7-0.7-4.5-0.7c-1,0-2.1,0.1-3.4,0.2c0-1.1,0-2.3,0.1-3.6c1.3-0.6,2.6-1.2,3.9-2
							c0.1-0.1,0.2-0.1,0.4-0.2c0.8-0.4,1.8-1,2.1-2c0.1-0.4,0-0.7-0.2-0.8c-0.3-0.4-0.9-0.4-1.4-0.4h-0.2h-0.1h-0.1
							c-0.3,0-0.6,0-0.8,0c-1,0-2.1,0-3.3,0.1c0.2-2.9,0.5-5.8,0.9-8.6c1.3-0.7,2.5-1.4,3.6-2c0.3-0.2,0.7-0.4,1-0.6
							c1.2-0.6,2.5-1.4,3.4-2.3c0.3-0.3,0.4-0.7,0.3-1c-0.2-1-1.4-1.1-2.4-1.2c-0.2,0-0.4,0-0.5-0.1c-0.9-0.2-1.7-0.3-2.6-0.3
							c-0.6,0-1.2,0-1.8,0.1c0-0.2-0.1-0.4-0.2-0.5C189.2,534.8,189,534.7,188.7,534.7L188.7,534.7L188.7,534.7z"/>
					</g>
					<g>
						<path class="sttt1" d="M201.5,561c-0.1,0-0.2,0-0.3-0.1c-0.1,0-0.3-0.1-0.3-0.3c-0.1-0.1-0.1-0.3,0-0.6c0.2-0.6,0.4-1.1,0.7-1.7
							c1.1-2.8,2.3-5.8,4-8.6c-1.2-0.7-2.3-1.6-3.3-2.5c-0.9-0.8-1.8-1.6-2.9-2.2c-0.2-0.1-0.3-0.4-0.2-0.7c0-0.1,0-0.2,0-0.3
							c1.3-5.3,3.5-10.6,6.6-15.8c0.2-0.3,0.4-0.4,0.6-0.4s0.4,0.1,0.5,0.3c0.1,0.2,0.1,0.5-0.1,0.8l-0.2,0.3c0,0.1-0.1,0.3-0.2,0.4
							c-2.3,3.3-2.7,6.8-3,10.1c-0.1,1-0.2,2.1-0.4,3.1c2.7,0.7,5.4,1.6,7.9,2.7c0.2,0.1,0.3,0.3,0.3,0.5c0.1,0.2,0.1,0.5-0.1,0.7
							c-3.2,4.5-6.2,9.1-9,13.8C202,560.9,201.8,561,201.5,561z"/>
						<path d="M206.4,528.2c0.3,0,0.5,0.3,0.2,0.7c-0.1,0.1-0.1,0.2-0.2,0.3c0,0.1,0,0.2-0.1,0.3c-3.1,4.5-2.7,9.1-3.5,13.5
							c2.8,0.8,5.5,1.7,8.1,2.7c0.1,0.1,0.2,0.2,0.2,0.3c0.1,0.1,0.1,0.3-0.1,0.5c-3.2,4.5-6.2,9.1-9,13.8c-0.1,0.2-0.3,0.3-0.4,0.3
							s-0.1,0-0.2-0.1c-0.2,0-0.3-0.2-0.2-0.6c1.4-3.5,2.7-7,4.8-10.4c-2.4-1.3-4.1-3.4-6.4-4.8c-0.2-0.1-0.2-0.3-0.1-0.5
							c0-0.1,0-0.1,0-0.2c1.3-5.3,3.5-10.6,6.6-15.7C206.1,528.3,206.3,528.2,206.4,528.2 M206.4,527.7c-0.3,0-0.7,0.2-0.9,0.5
							c-3.2,5.2-5.4,10.5-6.7,15.8c0,0.1,0,0.2,0,0.3c-0.1,0.4,0,0.7,0.3,0.9c1,0.6,1.9,1.4,2.8,2.2c1,0.8,2,1.7,3.2,2.4
							c-1.6,2.7-2.8,5.6-3.9,8.4c-0.2,0.5-0.4,1.1-0.7,1.6c-0.1,0.3-0.1,0.6,0,0.8c0.1,0.2,0.3,0.3,0.4,0.4s0.3,0.1,0.4,0.1
							c0.3,0,0.6-0.2,0.9-0.5c2.8-4.7,5.8-9.3,9-13.7c0.2-0.3,0.3-0.7,0.2-0.9c0-0.3-0.2-0.5-0.5-0.6c-2.5-1-5.1-1.9-7.7-2.6
							c0.2-1,0.3-2,0.4-2.9c0.4-3.4,0.7-6.7,3-10c0.1-0.1,0.2-0.3,0.2-0.4v-0.1c0-0.1,0.1-0.1,0.1-0.2c0.2-0.4,0.2-0.7,0.1-1
							C207,527.9,206.7,527.7,206.4,527.7L206.4,527.7z"/>
					</g>
				</g>
				<path class="sttt2" d="M232.7,527.2"/>
				<g>
					<path class="sttt1" d="M72.6,604.3c-0.1,0-0.3-0.1-0.3-0.2V604c-0.1,0-0.2-0.1-0.2-0.1c-0.1-0.1-0.1-0.2-0.1-0.4v-0.2
						c-0.6-6.2-0.6-12.7-0.5-19.3c0,0,0,0,0-0.1c-0.1-0.1-0.1-0.2-0.1-0.3c0-0.2,0.1-0.5,0.4-0.6l0.4-0.2c1-0.4,2.1-0.8,3.1-0.8
						c0.2,0,0.3,0,0.3,0.1h0.1c0.2,0.1,0.5,0.1,0.8,0.1c0.2,0,0.5,0,0.7,0s0.5,0,0.7,0c0.4,0,1,0.1,1.5,0.5c0.6,0.5,1.3,1.4,1.2,2.5
						c0,1.4-0.2,1.6-1.1,2.6l-0.4,0.5l-4,4.8c1.6,0.6,3.4,1.1,5.2,1.3l5.6-5.3l0.6,2.4l-0.1,0.1c0,0-2.1,1.6-4,3.1l5.6,0.8l-3.2,4.5
						l-5.2-2.9l-0.1,0.1c-1.3,1.6-2.6,3.2-3.9,4.8c-0.1,0.2-0.3,0.4-0.4,0.6C74.3,603.3,73.6,604.3,72.6,604.3L72.6,604.3z
						 M74.1,596.3c-0.2,1.4-0.3,2.6-0.5,3.7c0.7-0.6,1.5-1.2,2.3-1.8c0.2-0.2,0.5-0.4,0.7-0.5l1.1-1.1c-0.5,0.1-0.9,0.1-1.3,0.1
						C75.6,596.7,74.8,596.5,74.1,596.3z M75.6,585.6c-0.2,1.1-0.4,2.2-0.6,3.3v0.1c0.3-0.3,0.7-0.7,1-1c0.6-0.5,1.2-0.9,1.9-1.3
						c-0.4-0.2-0.8-0.5-1.3-0.7C76.3,585.9,76,585.7,75.6,585.6z"/>
					<path d="M75.3,582.1L75.3,582.1c0.2,0,0.2,0,0.2,0.1l0,0l0,0c0.3,0.1,0.6,0.1,0.8,0.1c0.5,0,0.9-0.1,1.4-0.1s0.9,0.1,1.3,0.4
						c0.6,0.5,1.2,1.3,1.1,2.3c0,1.5-0.2,1.5-1.5,3c-1.4,1.7-2.8,3.4-4.2,5.1c1.8,0.7,3.7,1.2,5.7,1.5l5.4-5.1l0.4,1.8
						c0,0-2.4,1.9-4.4,3.5l5.7,0.9l-2.8,3.9l-5.2-2.9c-0.1,0.1-0.2,0.2-0.3,0.3l0,0c-1.3,1.6-2.6,3.2-3.9,4.8
						c-0.7,0.9-1.6,2.4-2.6,2.4c0,0,0,0-0.1,0c-0.2,0-0.2-0.2-0.1-0.4c-0.1,0-0.1,0-0.2,0c-0.1,0-0.2-0.1-0.2-0.3c0-0.1,0-0.1,0-0.2
						c-0.6-6.3-0.6-12.8-0.5-19.3c0-0.1,0-0.1,0-0.1c-0.2-0.1-0.1-0.5,0.2-0.6C72.9,582.7,74.2,582.1,75.3,582.1 M74.6,589.7
						c0.5-0.5,1-1,1.6-1.5c0.7-0.6,1.4-1.1,2.2-1.5c-0.5-0.3-1.1-0.7-1.7-0.9c-0.4-0.2-0.9-0.4-1.3-0.6
						C75.3,586.6,74.9,588.2,74.6,589.7 M73.2,600.7c0.9-0.8,1.8-1.6,2.8-2.3c0.2-0.2,0.5-0.4,0.7-0.5l1.8-1.7
						c-0.7,0.2-1.5,0.3-2.1,0.3c-0.9,0-1.7-0.2-2.5-0.5C73.7,597.5,73.5,599.1,73.2,600.7 M75.3,581.6c-1,0-2.1,0.5-3.2,0.9
						l-0.4,0.2c-0.4,0.1-0.6,0.5-0.6,0.9c0,0.1,0,0.2,0.1,0.3c-0.1,6.6-0.1,13.1,0.5,19.3l0,0v0.1c-0.1,0.2,0,0.5,0.1,0.6
						s0.1,0.1,0.2,0.2v0.1c0.1,0.2,0.3,0.3,0.5,0.3h0.1c1.1,0,1.9-1.1,2.6-2c0.2-0.2,0.3-0.4,0.4-0.6c1.1-1.4,2.4-2.9,3.9-4.7l0,0
						l0,0l4.8,2.7l0.4,0.2l0.3-0.4l2.8-3.9l0.5-0.7l-0.8-0.1l-4.6-0.7c1.7-1.4,3.5-2.8,3.5-2.8l0.3-0.2l-0.1-0.3l-0.4-1.8l-0.2-0.8
						l-0.6,0.6l-5.2,4.9c-1.6-0.3-3.2-0.7-4.7-1.2l0.7-0.8l3.1-3.7c0.2-0.2,0.3-0.4,0.4-0.5c0.9-1.1,1.1-1.3,1.1-2.7
						c0-1.2-0.7-2.1-1.3-2.6s-1.2-0.6-1.6-0.6c-0.2,0-0.5,0-0.7,0s-0.4,0-0.7,0s-0.5,0-0.7-0.1h-0.1l0,0
						C75.6,581.7,75.5,581.6,75.3,581.6L75.3,581.6L75.3,581.6z M75.4,588.2c0.1-0.8,0.3-1.6,0.4-2.3c0.2,0.1,0.5,0.2,0.7,0.3
						c0.3,0.1,0.6,0.3,0.9,0.4c-0.6,0.4-1.1,0.7-1.5,1.1C75.7,588,75.6,588.1,75.4,588.2L75.4,588.2z M73.9,599.4
						c0.1-0.8,0.2-1.7,0.4-2.8c0.7,0.2,1.4,0.3,2.1,0.3c0.2,0,0.4,0,0.6,0l-0.6,0.6c-0.2,0.2-0.4,0.3-0.7,0.5
						C75.1,598.4,74.5,598.9,73.9,599.4L73.9,599.4z"/>
				</g>
			</g>
		</g>
	</g>
</g>
<g id="food">
	<g>
		<g>
			<path class="sttt1" d="M2.6,453.7c-0.2-0.1-0.5-0.2-0.8-0.2c-10.7,1.4-21.3,2.8-32,4.2c-1.3,0.2-2.1,1.4-2.2,2.4
				c-0.3-0.3-0.7-0.5-1.4-0.2c-7.1,2.6-14.3,5.2-21.4,7.8c-1.7,0.6-2.2,2.8-1.3,3.5c-1.1,40.2,4.9,77.3,3.9,117.3
				c0,1.8,2.1,1.4,3.1,0c0.7,1.2,3.4-0.1,3.4-2.2c0.3-19.3,2.8-38.7,5.9-58.2c5.6-4.3,11.1-8.5,16.7-12.8
				c3.7-2.9,10.1-6.1,11.7-10.8c0.6-1.7-0.8-2-2-1.4h-0.1c-7.6,1.1-15,1.6-22.4,1.7c1.3-7.5,2.5-15,3.7-22.5
				c11.8-8.2,23.5-16.6,35.2-25.1C4.4,455.9,4,453.5,2.6,453.7z"/>
			<path class="sttt1" d="M30.6,434.3c-0.6-0.2-1.7,0.4-2.2,1.1c-28.7,47.2-22,94.7-2.7,126.4c0.7,1.1,2.3,0.2,3-1.1
				c0.4,0.2,0.9,0.2,1.6-0.3c7.3-5.1,12-9.9,14.9-18.7c6.6-19.7,13.8-40.1,18-59.6C68.1,459.3,45.8,440.1,30.6,434.3z M32.5,533.2
				c-1.7-8.7-4.5-16.8-6.6-25.5c-4-16.7-2.9-32.8,5.3-51.9c8.1,12.1,22.1,21,13.1,42.9C39.6,510.1,35.7,521.7,32.5,533.2z"/>
			<path class="sttt1" d="M90.1,410.7c-0.5,0.2-1,0.7-1.3,1.3c-21.3,44.2-6,85.6,4.8,118.6c0.5,1.5,2.5,0.6,3.2-0.7
				c0.9,0,2.1-0.7,2.5-2.1c6.7-22.3,27.3-54,28.3-75.5c0.9-20.6-22.8-32.5-34.2-43.3C92.4,408.2,90.6,409.4,90.1,410.7z
				 M104.5,487.1c-2.3,4.5-4.5,8.9-6.5,13.5c-5.2-19.2-10-45-2.7-68.3c7.8,6.9,16,13.9,20,24.2C119,465.9,109.8,477,104.5,487.1z"/>
			<path class="sttt1" d="M164.4,385.9c0-0.4,0.1-0.8,0.1-1.2c0.2-1.5-1.2-1.5-2.3-0.7c-0.1,0-0.2,0-0.3,0.1c-7.6,2.8-15.2,5.8-22.8,9
				c-1,0.4-1.9,1.5-1.8,2.5c1.4,39.7,3.1,79.3,5.2,118.8c0.1,1.7,2.1,1.4,3.1,0.2c0.8,1.2,3.6-0.8,3.3-2.8c0-0.1,0-0.3,0-0.4
				c0.1-0.1,0.1-0.2,0.2-0.2c9.6-17.5,22.4-23.8,30.5-42.4c7.1-16.4,15.3-34.3,20.5-50.7C209.2,388.7,182,391.5,164.4,385.9z
				 M147.8,501c-1.5-30.5,9-66.3,14.5-99.6c2.5,2.4,5.1,4.6,8.2,6.6c1.6,0.9,3.4,1.7,5.2,2.4c16.2,5.2,7.5,19.6,1.2,33.9
				C168.2,463.5,156.4,481.8,147.8,501z"/>
		</g>
	</g>
	<g>
		<g>
			<g>
				<pattern  id="SVGID_1_" xlink:href="#New_Pattern_Swatch_2" patternTransform="matrix(1 0 0 -1 -4509.3999 -14318.5195)">
				</pattern>
				<path class="sttt3" d="M2.6,453.7c-0.2-0.1-0.5-0.2-0.8-0.2c-10.7,1.4-21.3,2.8-32,4.2c-1.3,0.2-2.1,1.4-2.2,2.4
					c-0.3-0.3-0.7-0.5-1.4-0.2c-7.1,2.6-14.3,5.2-21.4,7.8c-1.7,0.6-2.2,2.8-1.3,3.5c-1.1,40.2,4.9,77.3,3.9,117.3
					c0,1.8,2.1,1.4,3.1,0c0.7,1.2,3.4-0.1,3.4-2.2c0.3-19.3,2.8-38.7,5.9-58.2c5.6-4.3,11.1-8.5,16.7-12.8
					c3.7-2.9,10.1-6.1,11.7-10.8c0.6-1.7-0.8-2-2-1.4h-0.1c-7.6,1.1-15,1.6-22.4,1.7c1.3-7.5,2.5-15,3.7-22.5
					c11.8-8.2,23.5-16.6,35.2-25.1C4.4,455.9,4,453.5,2.6,453.7z"/>
			</g>
			<g>
				<pattern  id="SVGID_2_" xlink:href="#New_Pattern_Swatch_2" patternTransform="matrix(1 0 0 -1 -4509.3999 -14318.5195)">
				</pattern>
				<path class="sttt4" d="M30.6,434.3c-0.6-0.2-1.7,0.4-2.2,1.1c-28.7,47.2-22,94.7-2.7,126.4c0.7,1.1,2.3,0.2,3-1.1
					c0.4,0.2,0.9,0.2,1.6-0.3c7.3-5.1,12-9.9,14.9-18.7c6.6-19.7,13.8-40.1,18-59.6C68.1,459.3,45.8,440.1,30.6,434.3z M32.5,533.2
					c-1.7-8.7-4.5-16.8-6.6-25.5c-4-16.7-2.9-32.8,5.3-51.9c8.1,12.1,22.1,21,13.1,42.9C39.6,510.1,35.7,521.7,32.5,533.2z"/>
			</g>
			<g>
				<pattern  id="SVGID_3_" xlink:href="#New_Pattern_Swatch_2" patternTransform="matrix(1 0 0 -1 -4509.3999 -14318.5195)">
				</pattern>
				<path class="sttt5" d="M90.1,410.7c-0.5,0.2-1,0.7-1.3,1.3c-21.3,44.2-6,85.6,4.8,118.6c0.5,1.5,2.5,0.6,3.2-0.7
					c0.9,0,2.1-0.7,2.5-2.1c6.7-22.3,27.3-54,28.3-75.5c0.9-20.6-22.8-32.5-34.2-43.3C92.4,408.2,90.6,409.4,90.1,410.7z
					 M104.5,487.1c-2.3,4.5-4.5,8.9-6.5,13.5c-5.2-19.2-10-45-2.7-68.3c7.8,6.9,16,13.9,20,24.2C119,465.9,109.8,477,104.5,487.1z"
					/>
			</g>
			<g>
				<pattern  id="SVGID_4_" xlink:href="#New_Pattern_Swatch_2" patternTransform="matrix(1 0 0 -1 -4509.3999 -14318.5195)">
				</pattern>
				<path class="sttt6" d="M164.4,385.9c0-0.4,0.1-0.8,0.1-1.2c0.2-1.5-1.2-1.5-2.3-0.7c-0.1,0-0.2,0-0.3,0.1
					c-7.6,2.8-15.2,5.8-22.8,9c-1,0.4-1.9,1.5-1.8,2.5c1.4,39.7,3.1,79.3,5.2,118.8c0.1,1.7,2.1,1.4,3.1,0.2
					c0.8,1.2,3.6-0.8,3.3-2.8c0-0.1,0-0.3,0-0.4c0.1-0.1,0.1-0.2,0.2-0.2c9.6-17.5,22.4-23.8,30.5-42.4
					c7.1-16.4,15.3-34.3,20.5-50.7C209.2,388.7,182,391.5,164.4,385.9z M147.8,501c-1.5-30.5,9-66.3,14.5-99.6
					c2.5,2.4,5.1,4.6,8.2,6.6c1.6,0.9,3.4,1.7,5.2,2.4c16.2,5.2,7.5,19.6,1.2,33.9C168.2,463.5,156.4,481.8,147.8,501z"/>
			</g>
		</g>
	</g>
	<path class="sttt7" d="M-32.7,482.8c0,0-0.7,4.4-1.2,7.6s-1.2,6.9-1.4,8.7c-0.3,1.7-1.9,5.8-1,5.7c0.9-0.1,3.6,0.4,7.3,0
		s4.8-0.4,8.7-0.9c3.8-0.4,7.2-1.4,7.8-1.1s2.8,0.9-0.9,4.4s-6,5.1-8.1,6.6s-3.9,2.9-6,4.5c-2.1,1.6-3.4,2.6-6.1,4.6
		c-2.7,2-6.2,1.9-6.7,5.1c-0.5,3.2-0.8,4.7-1.7,10.8c-0.9,6.1-1.2,8-1.7,12.4s-0.9,6.9-1.3,12s-0.7,8.4-0.9,11.3
		c-0.1,2.8-0.7,6.2-1,8.5s-0.4,4.9-1.4,5.7s-2.7,0.8-3.3,0.8s-2.4-2.5-1.8-9.5c0.6-7,0.9-17-0.1-24.2s-0.6-13.8-0.8-17.7
		s-0.7-11.3-1.1-16.7c-0.3-5.4-0.6-9.9-0.7-13s-0.4-13.2-0.5-16.6c-0.1-3.4,0.1-13,0-14.9c-0.1-1.9,0.3-3.9,0-5.8
		c-0.3-1.8-1.3-2.6,1.3-3.5c2.6-0.9,8.3-3,13-4.7s9.2-1.3,9.8-2.8c0.6-1.5-1.3-2,3.1-2.6c4.3-0.6,11.8-1.5,18.1-2.3
		s9.6-1.8,12.1-1.6c2.4,0.2,2.9-0.7,2.9,0.7s-1.3,3-3.1,4.3s-6.4,4.7-10.3,7.4c-3.9,2.8-10,7.1-13.4,9.6S-32.7,482.8-32.7,482.8z"/>
	<path class="sttt7" d="M31.2,455.7c0,0,1.3,2.1,3.4,4.6c2,2.5,3.8,4.7,4.8,6s4.2,5.7,5.2,8.2s3.3,5,2.5,9.6c-0.7,4.5,0.4,4.7-1,9.1
		c-1.4,4.3-3.3,8.9-4.6,12.5c-1.3,3.6-2.4,6.6-3.4,9.3s-2.7,8.3-3.6,11.2c-0.9,2.9-2.1,6.7-2.1,6.7s-3-12.2-4.1-16s-3.8-14.4-4.2-19
		c-0.4-4.6-0.7-6.8-0.5-10.5c0.2-3.6-0.2-10.3,1.8-14.2s2.5-9.2,3.1-10.8C29.1,460.8,31.2,455.7,31.2,455.7z"/>
	<path class="sttt7" d="M37,437.3c0,0,5.5,3.1,8.6,5.8s5.4,4.7,7.2,6.8c1.8,2.1,3.2,3.7,4.2,5.3s2.2,3.2,3.2,5.3c1,2.2,2,4.6,2.4,6.1
		s2.8,7.5-0.1,18.8s-5.3,18.1-6,22.2s-3.1,9.7-3.9,12.4c-0.9,2.6-3.2,10.3-6.1,18.2s-4.1,10.6-5.8,12.7c-1.7,2.1-2.1,2.7-3.6,4.1
		c-1.6,1.4-4.5,3.8-5.6,4.6c-1.1,0.8-2.5,0.9-2.9,1.4s-0.7,1.9-2,0.9s-3-3.3-5.3-8.3s-6-11.9-6.3-15.4s-4.1-10.1-4.9-22
		c-0.9-11.9-1.4-16.4-0.6-23.8s1.6-14.7,3.7-21.7s2.6-6.6,2.8-9.1c0.2-2.5,2.7-7.1,3.9-9.9c1.2-2.7,3.3-7.2,5.4-11s2.3-6.9,4.2-6.6
		c1.9,0.3,1.4,0,3.7,1.1S37,437.3,37,437.3z"/>
	<path class="sttt7" d="M95.3,432.3c0,0-1.8,5.9-2.4,9.8c-0.6,3.9-1.3,3.1-1.1,8.9s-0.3,12.2,0.1,16.8c0.5,4.7,0.3,4.5,1.1,9.5
		s1.5,9.7,2.3,12.7s2.5,9.7,2.5,9.7s3.1-8,4.7-10c1.6-1.9,5.4-10.8,6.5-11.7c1.1-0.9,6.5-7.9,6.7-13.6s0.5-5.8-0.5-8.1
		c-1-2.3-4.1-7.9-5.5-9.7c-1.4-1.8-7.5-8.2-8.2-8.8S95.3,432.3,95.3,432.3z"/>
	<path class="sttt7" d="M92.5,408.8c0,0-0.6-0.7,3.6,2.7c4.2,3.4,5.1,4,9,7.1s7.1,5.5,9.8,8.3c2.7,2.7,6,5.8,7.9,9.2s4.4,6,4.3,10.4
		s1.4,7.6-1.2,16.1s-4,12.8-6.3,17.9c-2.2,5.1-4.1,6.8-5.2,10.4c-1.1,3.6-3.7,7.3-4.5,11s-2.7,4.2-4.4,9.6c-1.7,5.4-3.6,6.7-4.5,11
		s-2,6.3-2.7,6.7c-0.6,0.4-0.6-0.4-1.6,0.7c-1.1,1.1-2.1,3.3-2.9,1.3s-6.8-19.7-8.9-27.7c-2.1-8-2.5-9-3.5-14.2s-1.3-6.4-1.8-9.8
		s-1.7-14.7-1.6-20c0.1-5.3,0.7-12.1,1.6-19c0.8-6.9,1.6-8.3,3-12.6c1.4-4.3,2.8-7.1,3.9-10.7c1-3.6,2.9-6.1,3.3-6.3
		C90.1,410.7,91.8,408.6,92.5,408.8z"/>
	<path class="sttt7" d="M162.2,401.3c-0.1,0.6-1.6,9.1-2.7,14.7s-2.1,6.1-2.3,11.4c-0.2,5.2-2.4,11.6-3.5,17.2s-1.4,4.4-1.8,9.5
		c-0.4,5.1-2.2,13.3-2.6,16.6c-0.4,3.3-0.3,1.2-0.8,6.9c-0.5,5.8-0.6,5.4-0.7,9.2c-0.2,3.8-0.1,13.5-0.1,13.5s9.4-18.1,10.4-20
		s5.3-8.6,7.2-13.3c1.9-4.7,8.2-15.9,9-17.5c0.8-1.7,2.3-5,3.2-7c0.9-2.1,1.9-4.2,2.5-5.6s3.3-7.7,3.9-10.1c0.5-2.4,1.1-4.3,0.8-6.4
		s-0.4-4.7-2.9-6.6s-3.9-2.6-5.7-3.3c-1.8-0.7-0.6,0-2.9-1.2s-4.9-2.9-5.5-3.3c-0.5-0.4-5.6-5.3-5.6-5.3L162.2,401.3z"/>
	<path class="sttt7" d="M164.5,384.2l-0.1,1.7c0,0,4.2,1.2,9.3,2.2s11.5,1.4,14.2,2.8s3.6,1.2,6.4,3.2c2.7,1.9,6,4.4,6.3,6.7
		c0.2,2.4,3,7.1-1.2,18.9c-4.2,11.8-5.8,15.8-6.7,18.1s-2.9,7-3.7,8.8s-5.4,12.4-6.8,15.6s-2.8,6-4.8,10.6c-2,4.5-3.2,5.6-4.6,7.6
		c-1.4,2-4.1,5.5-7.8,9.6c-3.7,4.2-4.6,5.1-6,6.8c-1.4,1.6-3.3,3.8-5,6.3s-4.4,6.8-4.4,6.8s-0.2,3.5-1.8,4.2s-2,0.5-2.9,0.9
		c-0.9,0.4-2.4,1.1-2.3,0c0.1-1.1-0.6-7.3-0.8-12.7c-0.3-5.4-0.4-20.5-1.3-25.9c-0.8-5.4-0.8-6.7-0.8-8.3c0-1.6-0.2-2.4,0-3.9
		s-1.3-19.6-0.8-24.9s-0.3-7.8-0.5-12.2c-0.2-4.4-0.6-16-0.8-20.8s-0.4-8.6-0.4-8.9c0.1-0.3,0.1-3.5,2.7-4.3
		c2.6-0.7,6.8-2.1,8.6-3.4s5.9-3.6,9.1-4.1C161,385,163.5,382.2,164.5,384.2z"/>
</g>
<g id="street">
	<g>
		<path class="sttt1" d="M1.3,309.3c0.5-1.3-0.3-1.8-1.3-1.6c-0.6-0.2-1.5,0-2.2,1.1c-10.9,16.7-21.7,33.3-32.6,50
			c-3.3,5.1-2.8,5.7-1.6,9.5C-32.7,380.5-5.5,367-20,396c-9,17.9-22.9,32.1-35.7,47.4l0,0c-2.1,1.5-1.1,4.5,1.1,3
			c20.5-13.7,58.1-37,65.3-62.5c2.8-9.7-6.8-16.4-11.5-20.5C-16.5,349.7-7.4,333.3,1.3,309.3z"/>
		<path class="sttt1" d="M93.7,270.6c-0.3-0.3-0.7-0.4-1.4-0.1c-22.2,9.7-44.4,18.6-66.6,26.7c-1.1,0.4-1.6,1.3-1.7,2.2
			c-0.1,0-0.3-0.1-0.4-0.1c-2-0.5-3.8,3.4-1.8,3.8c7.4,1.7,15.8,3.8,24.3,4.2c3.4,15.9,6.7,31.7,7.2,49.2c0.5,16.3-0.1,32.6,3,47.7
			c0,0.1,0,0.1,0,0.2c-0.3,2.4,3.3,1,3.6-1.4c4.2-35.3,10-71.5,11.8-106.1c8.3-6.6,15.4-14.4,22.9-23.6
			C95.7,271.7,94.9,270.5,93.7,270.6z"/>
		<path class="sttt1" d="M135.4,254.2c-0.4-0.5-1.1-0.5-1.8-0.1l0,0c-7.1,1.3-14.3,3.7-21.5,7.4c-0.3,0.2-0.6,0.4-0.8,0.6
			c-1.1-0.4-3,0.8-2.8,2.4c4.7,39.3,1.7,81.7,1.6,122.9c0,0.7,0.3,1,0.8,1.1c0.2,1.7,3,1.1,3.6-1.1c5.4-20.1,8.9-40.3,11.7-60.6
			c3.5-3.4,7.2-6.4,10.9-9.2l0,0c8.1,15.9,15.7,32.2,22.7,49c0.1,0.3,0.3,0.4,0.5,0.6c0.6,1.6,3.7,0.3,3.5-1.8
			c-2-20.9-4.3-41.6-6.7-62.3c5.7-4.4,11.3-9.2,16.1-15.3c0.6-0.8,0.6-1.7,0.3-2.3C164.3,270.7,146.1,267.1,135.4,254.2z
			 M142.4,298.5c-3.7,2.8-6.5,6.1-10.6,8.4c-1.2,0.7-2.3,1.3-3.3,2c0.9-7.6,1.8-15.1,2.8-22.6c2.2,1.6,5,2.4,8.4,2.5
			c6.6,0.3,13.3,0.2,19.9,0.4C153.7,291.7,147.7,294.5,142.4,298.5z"/>
		<path class="sttt1" d="M259.3,210.2c-0.3-0.1-0.6-0.1-1.1,0.1c-17.2,7.4-33.8,9.3-51.2,16.7c-0.1,0-0.2,0.1-0.3,0.2
			c-0.1-0.6-0.5-1-1.2-0.9c-6,0.7-12.1,2.2-18.2,4.5c-1.5,0.6-2,2.2-1.6,3.1c0,0.1-0.1,0.1-0.1,0.2c-2.6,41.2-0.2,80,7.3,116.8
			c0,0.2,0.1,0.3,0.2,0.4c0,0.1,0,0.2,0,0.4c0.1,0.3,0.1,0.5,0.2,0.8c0.3,1,1.5,0.9,2.4,0.3c0.3,0.1,0.6,0.2,0.9,0.1
			c20.8-5.3,40-22.4,58.8-37.3c0.4-0.2,0.8-0.4,1-0.8c0.1-0.1,0.2-0.2,0.4-0.3c2.1-1.7,1.2-4.8-1-3.1c-0.3,0.3-0.7,0.5-1,0.8
			c-18.1,4.7-36.3,11-54.5,18.9c0.3-9.4-0.3-19,0-26.5c14.6-9.2,28.9-19.2,42.9-30c1.4-1,1.5-2.7,0.9-3.3c-0.2-0.4-0.5-0.6-1.2-0.5
			c-13.3,2.2-27,5.9-40.6,9.1c0.9-9.1,2-18.1,2.8-27.2c18.6-10.5,37.3-26.3,55-39C262,211.9,261.3,209.1,259.3,210.2z"/>
		<path class="sttt1" d="M345.1,285.9c-16.5,0.7-33.4,3.3-50.7,7.6c1.6-13.4,3.1-26.9,4.4-40.2h0.1c9.8-4,19.2-9.3,28.4-16.1
			c2-1.5,1.4-4.1-0.4-3.4c-0.1,0-0.3-0.1-0.4-0.1c-8.5,0.4-17.2,1.3-25.9,2.6c-0.1,0-0.2,0.1-0.3,0.1c0.6-7,1.2-14,1.7-21
			c6-4.1,12.4-6.3,18.4-10.6c6.8-4.8,12.4-11.8,19.4-16.5c1.3-0.8,1.5-2.2,1.1-3c-0.1-0.5-0.5-0.9-1.2-0.9
			c-11.5,0.2-23.3,4.4-35.1,6.3c-0.3,0-0.5,0.1-0.8,0.3c0.3-1.1-0.3-2.3-1.7-1.8c-7.4,2.6-14.8,5.3-22.2,7.9
			c-1.6,0.6-2.1,2.4-1.5,3.2c4.1,38.4,7.1,77.3,9.1,116.7c0,0.5,0.2,0.8,0.5,0.9c0.2,0.6,0.7,0.9,1.3,0.8c0.3,0.5,1,0.7,2,0.1
			c8.5-6.2,17.4-9.3,26.2-13.7c8.9-4.4,16.5-11.9,25.7-14.5c0.7-0.2,1.1-0.7,1.4-1.2C346.5,289,347.1,285.8,345.1,285.9z"/>
		<path class="sttt1" d="M431.2,139.8c-0.3-0.1-0.6-0.1-1.1,0.1c-21.4,9.4-42.8,17.7-64.2,24.9c-1.1,0.4-1.7,1.4-1.7,2.2
			c-0.8-1.5-3.8,0.6-3.3,2.6c1.3,5.3,7.6,4,12.6,3.9c4.1-0.1,8.2,0,12.4-0.1c6.1,32.9,10.5,66.5,13.4,101c0,0.3-0.1,0.6-0.1,0.9
			c-0.3,2.2,2.6,2.1,3.3,0.2c0.3-0.4,0.6-0.9,0.5-1.5c0-0.3-0.1-0.6-0.1-0.9c4.9-37,11.6-75.1,11.7-110.7c1.3-1.2,2.7-2.4,3.9-3.6
			c5.1-4.9,9.6-10.8,13.9-16.4C433.6,140.7,432.6,139.4,431.2,139.8z"/>
	</g>
	<g>
		<g>
			<pattern  id="SVGID_5_" xlink:href="#New_Pattern_Swatch_2" patternTransform="matrix(1 0 0 -1 -4509.3999 -14318.5195)">
			</pattern>
			<path class="sttt8" d="M1.3,309.3c0.5-1.3-0.3-1.8-1.3-1.6c-0.6-0.2-1.5,0-2.2,1.1c-10.9,16.7-21.7,33.3-32.6,50
				c-3.3,5.1-2.8,5.7-1.6,9.5C-32.7,380.5-5.5,367-20,396c-9,17.9-22.9,32.1-35.7,47.4l0,0c-2.1,1.5-1.1,4.5,1.1,3
				c20.5-13.7,58.1-37,65.3-62.5c2.8-9.7-6.8-16.4-11.5-20.5C-16.5,349.7-7.4,333.3,1.3,309.3z"/>
		</g>
		<g>
			<pattern  id="SVGID_6_" xlink:href="#New_Pattern_Swatch_2" patternTransform="matrix(1 0 0 -1 -4509.3999 -14318.5195)">
			</pattern>
			<path class="sttt9" d="M93.7,270.6c-0.3-0.3-0.7-0.4-1.4-0.1c-22.2,9.7-44.4,18.6-66.6,26.7c-1.1,0.4-1.6,1.3-1.7,2.2
				c-0.1,0-0.3-0.1-0.4-0.1c-2-0.5-3.8,3.4-1.8,3.8c7.4,1.7,15.8,3.8,24.3,4.2c3.4,15.9,6.7,31.7,7.2,49.2c0.5,16.3-0.1,32.6,3,47.7
				c0,0.1,0,0.1,0,0.2c-0.3,2.4,3.3,1,3.6-1.4c4.2-35.3,10-71.5,11.8-106.1c8.3-6.6,15.4-14.4,22.9-23.6
				C95.7,271.7,94.9,270.5,93.7,270.6z"/>
		</g>
		<g>
			<pattern  id="SVGID_7_" xlink:href="#New_Pattern_Swatch_2" patternTransform="matrix(1 0 0 -1 -4509.3999 -14318.5195)">
			</pattern>
			<path class="sttt10" d="M135.4,254.2c-0.4-0.5-1.1-0.5-1.8-0.1l0,0c-7.1,1.3-14.3,3.7-21.5,7.4c-0.3,0.2-0.6,0.4-0.8,0.6
				c-1.1-0.4-3,0.8-2.8,2.4c4.7,39.3,1.7,81.7,1.6,122.9c0,0.7,0.3,1,0.8,1.1c0.2,1.7,3,1.1,3.6-1.1c5.4-20.1,8.9-40.3,11.7-60.6
				c3.5-3.4,7.2-6.4,10.9-9.2l0,0c8.1,15.9,15.7,32.2,22.7,49c0.1,0.3,0.3,0.4,0.5,0.6c0.6,1.6,3.7,0.3,3.5-1.8
				c-2-20.9-4.3-41.6-6.7-62.3c5.7-4.4,11.3-9.2,16.1-15.3c0.6-0.8,0.6-1.7,0.3-2.3C164.3,270.7,146.1,267.1,135.4,254.2z
				 M142.4,298.5c-3.7,2.8-6.5,6.1-10.6,8.4c-1.2,0.7-2.3,1.3-3.3,2c0.9-7.6,1.8-15.1,2.8-22.6c2.2,1.6,5,2.4,8.4,2.5
				c6.6,0.3,13.3,0.2,19.9,0.4C153.7,291.7,147.7,294.5,142.4,298.5z"/>
		</g>
		<g>
			<pattern  id="SVGID_8_" xlink:href="#New_Pattern_Swatch_2" patternTransform="matrix(1 0 0 -1 -4509.3999 -14318.5195)">
			</pattern>
			<path class="sttt11" d="M259.3,210.2c-0.3-0.1-0.6-0.1-1.1,0.1c-17.2,7.4-33.8,9.3-51.2,16.7c-0.1,0-0.2,0.1-0.3,0.2
				c-0.1-0.6-0.5-1-1.2-0.9c-6,0.7-12.1,2.2-18.2,4.5c-1.5,0.6-2,2.2-1.6,3.1c0,0.1-0.1,0.1-0.1,0.2c-2.6,41.2-0.2,80,7.3,116.8
				c0,0.2,0.1,0.3,0.2,0.4c0,0.1,0,0.2,0,0.4c0.1,0.3,0.1,0.5,0.2,0.8c0.3,1,1.5,0.9,2.4,0.3c0.3,0.1,0.6,0.2,0.9,0.1
				c20.8-5.3,40-22.4,58.8-37.3c0.4-0.2,0.8-0.4,1-0.8c0.1-0.1,0.2-0.2,0.4-0.3c2.1-1.7,1.2-4.8-1-3.1c-0.3,0.3-0.7,0.5-1,0.8
				c-18.1,4.7-36.3,11-54.5,18.9c0.3-9.4-0.3-19,0-26.5c14.6-9.2,28.9-19.2,42.9-30c1.4-1,1.5-2.7,0.9-3.3c-0.2-0.4-0.5-0.6-1.2-0.5
				c-13.3,2.2-27,5.9-40.6,9.1c0.9-9.1,2-18.1,2.8-27.2c18.6-10.5,37.3-26.3,55-39C262,211.9,261.3,209.1,259.3,210.2z"/>
		</g>
		<g>
			<pattern  id="SVGID_9_" xlink:href="#New_Pattern_Swatch_2" patternTransform="matrix(1 0 0 -1 -4509.3999 -14318.5195)">
			</pattern>
			<path class="sttt12" d="M345.1,285.9c-16.5,0.7-33.4,3.3-50.7,7.6c1.6-13.4,3.1-26.9,4.4-40.2h0.1c9.8-4,19.2-9.3,28.4-16.1
				c2-1.5,1.4-4.1-0.4-3.4c-0.1,0-0.3-0.1-0.4-0.1c-8.5,0.4-17.2,1.3-25.9,2.6c-0.1,0-0.2,0.1-0.3,0.1c0.6-7,1.2-14,1.7-21
				c6-4.1,12.4-6.3,18.4-10.6c6.8-4.8,12.4-11.8,19.4-16.5c1.3-0.8,1.5-2.2,1.1-3c-0.1-0.5-0.5-0.9-1.2-0.9
				c-11.5,0.2-23.3,4.4-35.1,6.3c-0.3,0-0.5,0.1-0.8,0.3c0.3-1.1-0.3-2.3-1.7-1.8c-7.4,2.6-14.8,5.3-22.2,7.9
				c-1.6,0.6-2.1,2.4-1.5,3.2c4.1,38.4,7.1,77.3,9.1,116.7c0,0.5,0.2,0.8,0.5,0.9c0.2,0.6,0.7,0.9,1.3,0.8c0.3,0.5,1,0.7,2,0.1
				c8.5-6.2,17.4-9.3,26.2-13.7c8.9-4.4,16.5-11.9,25.7-14.5c0.7-0.2,1.1-0.7,1.4-1.2C346.5,289,347.1,285.8,345.1,285.9z"/>
		</g>
		<g>
			<pattern  id="SVGID_10_" xlink:href="#New_Pattern_Swatch_2" patternTransform="matrix(1 0 0 -1 -4509.3999 -14318.5195)">
			</pattern>
			<path class="sttt13" d="M431.2,139.8c-0.3-0.1-0.6-0.1-1.1,0.1c-21.4,9.4-42.8,17.7-64.2,24.9c-1.1,0.4-1.7,1.4-1.7,2.2
				c-0.8-1.5-3.8,0.6-3.3,2.6c1.3,5.3,7.6,4,12.6,3.9c4.1-0.1,8.2,0,12.4-0.1c6.1,32.9,10.5,66.5,13.4,101c0,0.3-0.1,0.6-0.1,0.9
				c-0.3,2.2,2.6,2.1,3.3,0.2c0.3-0.4,0.6-0.9,0.5-1.5c0-0.3-0.1-0.6-0.1-0.9c4.9-37,11.6-75.1,11.7-110.7c1.3-1.2,2.7-2.4,3.9-3.6
				c5.1-4.9,9.6-10.8,13.9-16.4C433.6,140.7,432.6,139.4,431.2,139.8z"/>
		</g>
	</g>
	<path class="sttt7" d="M-16.6,379.1c0,0,2.6,1.9,0,8.4s-4.3,10.2-5.3,12s-6.2,10.1-7.6,12s-2.1,2.9-3.2,4.4c-1.2,1.5-1.5,2-2.4,3.1
		c-0.9,1.1-3.4,3.2-4.6,4.1c-1.2,1-3.9,6.1-5.3,7.7c-1.4,1.7-4.4,5.1-5.2,6s-2,2.3-3.8,4.4s-3.3,3.5-2.9,4.4c0.4,0.9,4.3-0.6,6-1.7
		c1.7-1.1,15.6-10.5,18.1-12.3S-26,427-20,422s8.3-6.6,12.5-11s9.1-10,10.8-12.4c1.6-2.4,3.7-4.8,5.4-9.4c1.7-4.6,2.3-6.1,1.5-9.2
		c-0.8-3.1-0.1-5.9-2.8-8.8c-2.7-2.9-6.7-5.4-10-9.4s-6.8-10.1-6.7-14.8c0.2-4.7,0.3-11,1.9-13.3c1.6-2.3,1.1-3.9,2.9-8.7
		c1.8-4.8,3.7-9.9,4.6-12.4S0,307.8,0,307.8s-2.3,1.3-3.2,2.6s-5.1,9.3-8.8,13.5s-9.5,14.5-10.4,16s-5.4,8.3-7.8,12s-7,8.3-6.9,11.4
		c0.1,3-0.7,4.2,1.3,6.5s3.7,3.6,6.4,4.2c2.7,0.6,11,2.1,12.4,4.7"/>
	<path class="sttt7" d="M46.1,307.3c0,0,1.1,5.1,1.7,8.1s1.5,3.3,1.6,7.9c0.1,4.6,1.2,6.2,1.7,9.9s1.7,8.6,1.5,11.8
		c-0.3,3.2-0.7,4.6,0,8.7s0.8,8.6,0.9,11.9s0.1,6.2,0.2,10c0.1,3.7,0.1,5.4,0.3,8.6c0.2,3.2,0.1,2.8,0.4,6s0.4,4.2,0.7,6.6
		s0.5,7.9,1.9,8.2c1.4,0.3,2.5,1.6,3-2.8s2.3-14,2.4-18.7c0-4.7,0.7-5.3,1.2-9.2s1.9-14.4,2.4-18.5s1.7-14,2-16.8
		c0.3-2.7,0.9-8.1,1.1-9.8s-0.1-5.4,0.8-8s0.4-4.3,0.7-8.3c0.3-4,0.4-4.8,0.5-7.1c0.2-2.3,0.4-6.9,0.5-7.3c0-0.5-1-0.7,0.5-2
		c1.5-1.3,7-6.1,9.1-8.2c2.1-2.1,2.3-2.3,4.3-4.5c2-2.2,2-2.1,3.7-4.2c1.7-2,3.5-4.2,3.5-4.2s2.7-3.4,2.5-3.9s-1-1.9-3.6-0.8
		c-2.6,1.1-2,1.8-6.4,2.8s-5.9,2-9.5,4s-6.3,2.6-8.3,3.4s-2.9,1.2-5.7,2.3s-4.9,2-5.9,2.4s-7.9,3.1-11.3,4.4
		c-3.3,1.3-4.9,1.9-6.5,2.5s-2.8,1.7-5.7,2.8c-3,1.1-5,0.3-6.5,1.8s-1.3,1.5-2.5,2.1c-1.3,0.6-2,1-2.1,1.9s-3.2,1,1.5,2.1
		s5.3,1.3,9,2s4,1.3,6.6,1.2C40.7,306.3,44.7,307.9,46.1,307.3z"/>
	<path class="sttt7" d="M131,285.7c0.1,1,0,1.6-0.5,5.8c-0.5,4.2-0.8,6.4-0.9,7.5c-0.1,1.1,0,2.1,0,4.2s-2.7,5.7-1.2,5.7
		c1.5,0,3-1.6,4.6-2.7s4.1-3.2,6-4.8c1.8-1.6,5-4.2,7.7-5.8s3.7-2.1,5.4-3c1.7-0.8,6.3-2.7,6.7-3.1c0.4-0.3-1-0.4-3-0.4
		s-4.8,0-8.2-0.1s-1.1,1.2-6.5,0.2s-6.2-1.2-6.7-1.4C133.8,287.7,131,285.7,131,285.7z"/>
	<path class="sttt7" d="M137,317.6c0,0-1.2,0.8-2.8,2.1c-1.6,1.3-2.7,2.2-3.7,3c-1,0.9-3.4,2.4-4,3.6s-0.4,0.2-0.8,3.2
		c-0.4,3-1.2,12.3-2.5,16.5s-1.8,4.2-2.3,8.2s-1.3,11.5-1.9,14.2c-0.6,2.6-0.8,3.6-1.3,5.8c-0.5,2.2-1.1,4.8-1.7,7.1
		c-0.6,2.3-1.6,6.9-2.4,7.4c-0.8,0.5-1.3,2.1-2.3,0.7c-1-1.3-1.2-1.5-1.2-3.9s0.2-16.2,0.2-18.7s-0.7-6.2-0.2-9.5
		c0.5-3.3,0.6-11.1,0.7-14.7c0.1-3.6,0.6-5.8,0.8-9.8s-0.5-7.2-0.5-10c0-2.8,0-15.1-0.1-17.7c-0.1-2.6-0.5-16.3-0.6-18.2
		c-0.1-1.9-0.3-4.4-0.4-6.2s-0.2-4.3-1-6.9c-0.8-2.5-0.8-10.1-0.2-10.7c0.6-0.7,0.8-0.1,2.6-1.2s8-3.2,11.4-4.7
		c3.4-1.5,4-1.8,6.7-2.4c2.7-0.6,4.9-2,6-0.7c1.1,1.3,3.6,4.4,7.7,7.2c4.1,2.8,4.4,3.1,9.2,6.1s4.7,4.1,8.1,5.8
		c3.4,1.8,3.8,1.9,5.7,3.7c1.9,1.8,4.5,4.4,5.6,6c1.1,1.6,2.5,1.9,1.9,3.9s-3.3,4.6-6.8,7.8s-3.3,3.1-4.8,4.4s-4.9,0.8-4.8,3.9
		c0.1,3,0.5,6,0.9,9.8c0.4,3.8,1.6,14.3,1.8,16.2s0.3,2.6,0.6,5.9s0.6,5.2,0.9,8.2c0.3,3-1,4-0.1,6.2s1.1,3.7,1.4,6.4
		c0.3,2.8,0.5,4.7,0.6,6.1s0.5,4.8-0.8,5.9c-1.3,1.1-2.7-0.7-3.6-2.8c-0.9-2.1-1.9-7.7-3.2-8.9c-1.2-1.2-1.9-1.6-3.5-6.4
		s-4.2-6.9-4.7-9c-0.5-2.1-2.5-6.4-2.8-7.1c-0.3-0.7-1.3-2.7-2-4.1C142.1,327.8,136.6,318.6,137,317.6z"/>
	<path class="sttt7" d="M185.4,233c0,0.8-0.1,4.2-0.3,7.8s-0.3,5.8-0.3,7.9c-0.1,2.1-1.1,5.3-0.7,8.1c0.4,2.8,0.4,3.3,0.4,5.7
		c0,2.4,0.4,6.2,0,9.3s0.2,4.1,0.2,7.1s1.1,5.6,0.7,8.1c-0.3,2.5-0.2,5.4,0,8.9s-0.3,3.3,0.6,7.8c0.9,4.5-0.3,7.3,0.6,10.7
		c0.9,3.4,0.6,1.5,1.1,5.5s-0.4,6.1,0.9,10.6c1.3,4.5,1.2,4.4,1.9,8.2c0.7,3.8,1.3,7.4,1.7,9.2s-0.6,4.8,1.4,5.1s2.4,1,3.7,0
		s11.2-4.2,17.4-7.9s13-8.2,15.2-9.9s6.3-4,9.3-7.1s3.6-3.7,7.8-6.2c4.2-2.5,5.5-4.4,6.9-5.5c1.4-1.1,4-2.8,3.9-4
		c-0.1-1.3-1-1-3.3-0.4c-2.3,0.6-4.8,1.3-7.6,2.1c-2.8,0.8-6.5,1.9-9.8,3c-3.4,1.1-6.7,3.9-10.1,4.2s-3.6,0.3-6.7,1.5
		s-5.8,2.2-6.9,2.6c-1.1,0.4-4.6,1.8-6,2.4c-1.5,0.6-7.2,3-7.2,3s0.1-3.7,0.1-7.7s0.4-4.6-0.1-6.4c-0.4-1.8-0.1-2.9-0.1-6.1
		s0.3-6.5,0.3-6.5s10-6.4,13.6-8.9s9.4-6.4,12.8-8.9c3.4-2.4,2.8-2,4.5-3.3s1.4-1,5.5-4.1s4.7-3.6,5.5-4.2c0.8-0.6,2.3-1.4,2-2.7
		s1.6-2.4-3.4-1.4c-5,0.9-6.3,1.2-9.7,1.9c-3.4,0.8-5,0-9.3,1.6s-4.3,2.1-9.9,2.9c-5.6,0.9-9.7,2.4-9.7,2.4s1.5-8.5,1.1-10.3
		c-0.4-1.7-0.2-2,0.6-5.4c0.8-3.4,1.1-10.9,1.1-11.2s11.2-6,14.9-9.7c3.7-3.6,7.4-5.2,9.3-6.6c1.9-1.4,4.1-4.3,8.5-7
		c4.5-2.7,8.1-5.5,9.9-6.8c1.8-1.4,5.8-3.1,8.3-6.2c2.4-3.1,5.7-3.7,5.4-4.9c-0.3-1.2,0.4-3.3-4.1-0.9c-4.4,2.4-7.3,2.9-11.9,4.3
		c-4.6,1.4-12.2,3.5-15.3,4.4s-8.5,2.3-13.3,4c-4.9,1.7-6.2,2.3-8.3,3.1c-2.1,0.7-2.8-0.4-6.5,0.3c-3.6,0.7-11.6,2.7-13.5,3.6
		C186.3,231.2,185.4,232.5,185.4,233z"/>
	<path class="sttt7" d="M302,215.4c0,0.7-0.2,3-0.4,4.9c-0.1,1.9-0.2,3.2-0.4,4.8c-0.1,1.6-0.3,3.2-0.4,4.9c-0.1,1.7-0.5,6.3-0.5,6.3
		s6.4-1,8.6-1.3c2.2-0.3,5.4-0.6,6.7-0.7c1.3-0.1,4.1-0.4,7-0.5c2.9-0.2,4.8-0.9,5.4-0.1s0.9,2.3-0.4,3.2c-1.2,0.9-3.4,2.5-4.6,3.3
		s-3.6,2.4-5.4,3.5s-4.5,2.7-6.2,3.6c-1.6,0.9-4.4,2.3-4.4,2.3s-1.9,0.9-2.6,1.3c-0.8,0.4-5.2,1.5-5.4,2.4c-0.2,0.9-0.5,3.8-0.9,7.6
		c-0.4,3.9-0.7,6.8-1.2,11c-0.5,4.2-0.7,6.1-0.9,8.4c-0.3,2.2-0.4,3.1-0.5,4.7c-0.2,1.5-2.6,7.1-1,8.1c1.6,0.9,10-1.9,14.4-2.8
		c4.4-0.8,6-1.2,9.5-1.7s9-1.3,11.4-1.5s2.8-0.5,8.9-0.8c6.1-0.3,7.3-0.8,7.5,0.1c0.2,0.9,0.6,3.2-2.4,4.3s-4.5,1.5-6.9,2.9
		s-3.9,2.2-5.8,3.4c-1.8,1.2-6.7,4.2-10.9,7.1c-4.3,2.8-3.8,2.7-7.8,3.8c-4,1.1-4.9,2.1-8,3.7c-3.1,1.5-5.3,2.7-6.1,3.1
		s-5.1,3.1-5.8,3.6c-0.8,0.5-2.4,1.4-3.1,0.7c-0.6-0.7-1.7,0.9-2-4.7s-0.9-16.7-1.3-22.4s-0.8-4.6-0.5-8.4s-0.4-5.6-0.6-9.4
		c-0.3-3.8-0.8-11.5-1.1-15.2c-0.3-3.7-1.5-18.2-1.8-22s0.1-6.6,0-8.6s-1-2.9-1.2-4.7c-0.2-1.9-0.8-8.2-1.2-12.4
		c-0.4-4.2-0.4-4.1-0.7-6.3c-0.2-2.2-0.2-3.5-0.4-4.2s-2.1-2.5,2-3.4c4.1-0.9,7.8-2.8,12.1-4.3c4.3-1.5,7.1-2.7,8.8-3.1
		c1.6-0.4,1.6,0.4,2.6,0.8s0.3,0.7,6.4-0.7c6.1-1.4,5.2-1.3,11.7-2.6c6.6-1.3,3.6-1,7.9-1.6c4.3-0.6,4.8-1.1,6.7-0.8
		c1.9,0.3,3.7-1.2,4.1,0.3s0.5,2.2-2.3,4.4c-2.8,2.2-6.7,5.7-9.5,8.2c-2.8,2.6-5.2,5-8.1,6.9s-8,4.8-10.7,6.2S302,215.4,302,215.4z"
		/>
	<path class="sttt7" d="M385.8,173.4c0,0-2-0.4-6.8,0c-4.8,0.4-6.6,0.1-8.8,0.2c-2.2,0-6,1.2-7.1-0.4c-1.2-1.6-2.9-3.4-2.2-4.7
		s1.5-1.6,2.1-2.1c0.5-0.4,0.8,1,1.3,0s0.6-1.1,2.9-1.9c2.3-0.7,16.1-6,19.6-7.3c3.5-1.3,5.1-1.9,10.6-4c5.5-2.2,6.5-2.5,9.9-3.9
		c3.5-1.4,6.3-2.6,8.7-3.6c2.4-1,7.4-2.5,9-3.8c1.7-1.3,3.9-2.1,5-2.2c1.1-0.1,3.1-0.4,2.5,1.3s-1.2,4.6-3.3,6.2
		c-2,1.6-2.1,1.9-4.7,4.8c-2.5,2.9-5.8,6.3-6.8,7.2c-0.9,0.9-3,2.7-3.1,2.8c-0.1,0.1-0.2,6-0.6,13.5s-1.8,11-1.3,13.6
		c0.5,2.6-1.2,13.2-1.2,17.4s-1.4,12.1-1.9,15.5c-0.4,3.4-2.9,21-3.2,23.3c-0.3,2.3,0.3,5.1-0.6,8.1s-2.3,6.2-2.4,9.8
		s-0.8,7.9-0.8,9.2c0,1.4-0.6,3.6-1.7,4.4c-1.2,0.7-2-2.7-2.2-5c-0.2-2.3-2.1-22.1-2.4-24.7c-0.3-2.5-2.9-20.6-3-24.7
		s-1.3-5-1.2-8.7c0.1-3.7-3.1-15.2-2.9-18.8c0.2-3.7-2.1-12.6-2.3-13.9C387,180.1,385.8,173.4,385.8,173.4z"/>
</g>
</svg>
