<?xml version="1.0" encoding="utf-8"?>
<!-- Generator: Adobe Illustrator 18.0.0, SVG Export Plug-In . SVG Version: 6.00 Build 0)  -->
<!DOCTYPE svg PUBLIC "-//W3C//DTD SVG 1.1//EN" "http://www.w3.org/Graphics/SVG/1.1/DTD/svg11.dtd">
<svg version="1.1" xmlns="http://www.w3.org/2000/svg" xmlns:xlink="http://www.w3.org/1999/xlink" x="0px" y="0px"
	 viewBox="0 0 73 79" enable-background="new 0 0 73 79" xml:space="preserve">
<g id="fon" display="none">
</g>
<g id="orange">
</g>
<g id="outline">
	<g>
		<polyline fill="#D17911" points="58.2,13.6 58.2,7.2 16.8,7.2 16.7,13.4 27.8,16.9 		"/>
		<path fill="#D17911" d="M66.3,38.9c0.1,0,4-3.2,4-3.2v-6.3c0,0-1,4.4-11.4,5.7c-10.4,1.3-42.6,1-42.6,1L5.6,29.4v6.2
			c0,0,6.8,4.5,9.7,6.8"/>
		<path fill="#D17911" d="M34.6,76.1c1.8,2.4,4.7,2.4,6.5,0l28.1-38.3c1.8-2.4,1-3.5-1.9-2.4l-11.9,4.7c-2.8,1.1-4.5-0.4-3.6-3.3
			l6.2-22.2c0.8-2.9-1-5.3-4-5.3H21c-3,0-4.8,2.4-4,5.3l6.2,22.1c0.8,2.9-0.8,4.4-3.6,3.3L8.3,35.4c-2.8-1.1-3.6-0.1-1.9,2.4
			L34.6,76.1z"/>
		<g>
			<g>
				<path fill="none" d="M70.2,29.4c0,0-1,4.4-11.4,5.7c-1.7,0.2-4,0.4-6.6,0.5l5.9-20.9c0.1-0.4,0.2-0.8,0.2-1.2l0,0v-0.2
					c0,0,0-0.1,0-0.1v-6H16.9l-0.1,6c0,0,0,0,0,0.1l0,0.1l0,0c0,0.4,0.1,0.9,0.2,1.4l6,21.4c-4.1,0-6.8,0-6.8,0L5.7,29.4v6
					c-0.2,0.5,0.1,1.3,0.9,2.4l28.1,38.3c1.8,2.4,4.7,2.4,6.5,0l28.1-38.3c0.6-0.9,0.9-1.5,0.9-2c0,0,0,0,0,0V29.4z M52.3,39.9
					l4.4-0.3l-1.2,0.5C54.1,40.6,53,40.5,52.3,39.9z"/>
				<g>
					<g>
						<g>
							<path d="M51.9,40.3C51.9,40.3,51.8,40.4,51.9,40.3C51.8,40.4,51.9,40.3,51.9,40.3z"/>
							<polygon points="52.3,40.3 52.2,40.4 52.3,40.3 							"/>
							<path d="M52.5,40.5C52.5,40.3,52.4,40.5,52.5,40.5l-0.1-0.1l-0.1,0.1C52.4,40.5,52.5,40.4,52.5,40.5z"/>
							<path d="M52.4,40.9C52.4,40.8,52.5,40.8,52.4,40.9C52.4,40.9,52.4,40.9,52.4,40.9C52.4,40.9,52.4,40.9,52.4,40.9z"/>
							<path d="M52.4,40.9C52.4,40.9,52.4,40.9,52.4,40.9L52.4,40.9z"/>
							<path d="M52.5,40.9L52.5,40.9c-0.1,0.1,0,0.1-0.1,0.1C52.5,41,52.5,41,52.5,40.9z"/>
							<path d="M52.6,40.8L52.6,40.8C52.6,40.8,52.6,40.8,52.6,40.8z"/>
							<path d="M52.5,40.8L52.5,40.8C52.6,40.8,52.6,40.7,52.5,40.8C52.6,40.8,52.6,40.8,52.5,40.8z"/>
							<path d="M52.5,40.8c0,0,0-0.1,0-0.1C52.5,40.7,52.4,40.8,52.5,40.8z"/>
							<path d="M52.6,40.3L52.6,40.3L52.6,40.3C52.6,40.3,52.5,40.4,52.6,40.3z"/>
							<path d="M52.7,41.1c0,0,0-0.1,0-0.1l0,0C52.7,41,52.8,41,52.7,41.1z"/>
							<path d="M52.8,40.9L52.8,40.9C52.8,40.8,52.8,40.9,52.8,40.9z"/>
							<polygon points="52.7,40.6 52.6,40.7 52.7,40.6 							"/>
							<polygon points="52.9,41.1 52.8,41.2 52.9,41.1 							"/>
							<path d="M53,41.1c0,0.1,0,0.1,0,0.2C53,41.3,53,41.2,53,41.1C53,41.2,53,41.2,53,41.1z"/>
							<path d="M53.1,41.1C53.1,41.1,53.1,41.2,53.1,41.1C53.1,41.2,53.1,41.1,53.1,41.1z"/>
							<path d="M52.9,40.9c0,0,0,0.1,0,0.1L52.9,40.9L52.9,40.9z"/>
							<path d="M52.9,40.9L52.9,40.9C52.9,40.9,52.9,40.9,52.9,40.9C52.9,40.9,52.9,40.9,52.9,40.9z"/>
							<path d="M52.9,40.9L52.9,40.9C52.9,40.9,52.9,40.9,52.9,40.9z"/>
							<path d="M52.8,40.7c0,0,0.1-0.1,0.1-0.2C52.8,40.6,52.8,40.7,52.8,40.7z"/>
							<path d="M52.9,40.8L52.9,40.8C52.9,40.8,52.9,40.8,52.9,40.8L52.9,40.8z"/>
							<polygon points="52.9,40.7 52.9,40.8 52.9,40.8 							"/>
							<path d="M53.1,41C53.1,41,53.1,41,53.1,41C53.1,40.9,53.1,40.9,53.1,41C53.1,40.9,53,41,53.1,41z"/>
							<path d="M53,40.9L53,40.9C53,40.9,53,40.9,53,40.9z"/>
							<polygon points="53.4,41 53.4,41 53.4,41 							"/>
							<path d="M53.1,40.9C53.1,40.9,53.1,40.9,53.1,40.9C53.1,40.9,53.1,40.9,53.1,40.9C53.1,40.9,53.1,40.9,53.1,40.9z"/>
							<path d="M53.2,41.1C53.2,41,53.2,41,53.2,41.1C53.2,41,53.2,41.1,53.2,41.1z"/>
							<path d="M53,41L53,41C53,41,53,41,53,41z"/>
							<path d="M53,41C53,41,53,40.9,53,41C53,40.9,53,40.9,53,41C53,40.9,53,41,53,41z"/>
							<path d="M53.5,40.3C53.5,40.4,53.4,40.5,53.5,40.3c-0.1,0.1-0.2,0.5-0.1,0.7c0,0,0-0.1,0.1-0.1c0-0.1-0.1-0.1,0-0.2
								c0.1,0,0,0,0.1,0.1C53.4,40.6,53.5,40.5,53.5,40.3L53.5,40.3C53.5,40.4,53.5,40.3,53.5,40.3z"/>
							<path d="M53.3,40.9L53.3,40.9c0,0,0,0.1,0,0.2C53.3,41.1,53.4,41,53.3,40.9L53.3,40.9L53.3,40.9z"/>
							<path d="M53.2,40.9c0-0.1,0.1-0.1,0.1-0.3c0,0,0,0.1-0.1,0.1C53.3,40.8,53.2,40.9,53.2,40.9C53.2,40.9,53.2,41,53.2,40.9
								C53.2,41,53.2,41,53.2,40.9L53.2,40.9L53.2,40.9L53.2,40.9C53.2,41,53.2,41,53.2,40.9L53.2,40.9L53.2,40.9
								C53.2,41,53.2,41,53.2,40.9L53.2,40.9L53.2,40.9L53.2,40.9C53.3,40.9,53.2,40.9,53.2,40.9z"/>
							<path d="M53,40.3L53,40.3C53,40.3,53,40.3,53,40.3z"/>
							<path d="M53,40.4C53,40.4,53,40.5,53,40.4C52.9,40.4,53,40.4,53,40.4C52.9,40.4,52.9,40.4,53,40.4L53,40.4c0,0.1,0,0.2,0,0.3
								C53,40.6,53,40.5,53,40.4z"/>
							<path d="M53.1,40.6L53.1,40.6l0.1-0.1L53.1,40.6C53.1,40.5,53.1,40.6,53.1,40.6z"/>
							<polygon points="53.4,41 53.3,41.2 53.4,41 							"/>
							<polygon points="53.5,41 53.4,41.1 53.5,41.1 							"/>
							<path d="M56.1,40.2L56.1,40.2C56.1,40.2,56.1,40.2,56.1,40.2z"/>
							<path d="M56.2,40.2L56.2,40.2C56.2,40.2,56.2,40.2,56.2,40.2z"/>
							<path d="M55.4,40.8c0.1,0.1,0.1,0.2,0.1,0.1L55.4,40.8C55.5,40.8,55.4,40.8,55.4,40.8z"/>
							<path d="M56.3,39.7L56.3,39.7C56.3,39.7,56.3,39.8,56.3,39.7L56.3,39.7z"/>
							<path d="M56.2,39.3L56.2,39.3C56.2,39.3,56.2,39.3,56.2,39.3z"/>
							<path d="M55.5,40.4l0,0.1C55.5,40.5,55.5,40.4,55.5,40.4z"/>
							<path d="M54.3,41C54.3,41,54.4,41,54.3,41C54.3,41,54.3,40.9,54.3,41z"/>
							<path d="M56.1,39.1C56.1,39.1,56.1,39.1,56.1,39.1C56.1,39.1,56.1,39.1,56.1,39.1z"/>
							<path d="M54.4,41C54.4,41,54.4,41,54.4,41C54.4,41,54.4,41,54.4,41C54.4,41.1,54.4,41.1,54.4,41z"/>
							<path d="M53.2,40.4L53.2,40.4C53.2,40.4,53.2,40.4,53.2,40.4z"/>
							<path d="M52.5,39.4C52.5,39.4,52.5,39.4,52.5,39.4C52.5,39.4,52.5,39.4,52.5,39.4z"/>
							<path d="M53.8,41.1C53.8,41.1,53.8,41.1,53.8,41.1L53.8,41.1z"/>
							<path d="M53.7,40.7C53.7,40.7,53.7,40.6,53.7,40.7C53.7,40.6,53.7,40.7,53.7,40.7z"/>
							<path d="M54.5,40.3L54.5,40.3C54.5,40.3,54.5,40.3,54.5,40.3z"/>
							<path d="M53.8,41.1C53.8,41.1,53.8,41.1,53.8,41.1C53.8,41.1,53.8,41.1,53.8,41.1z"/>
							<path d="M53.8,41.1C53.8,41.1,53.8,41.1,53.8,41.1C53.8,41.1,53.8,41.1,53.8,41.1z"/>
							<path d="M53.8,41.1C53.8,41.1,53.8,41.1,53.8,41.1C53.8,41.1,53.8,41.1,53.8,41.1C53.8,41.1,53.8,41.1,53.8,41.1z"/>
							<path d="M54.4,40.1L54.4,40.1C54.4,40.1,54.4,40.1,54.4,40.1z"/>
							<polygon points="55.4,39.6 55.4,39.6 55.4,39.6 							"/>
							<path d="M55.4,39.5c0,0.1,0,0.1,0,0.1l0.1,0.3L55.4,39.5z"/>
							<path d="M55.8,40.3L55.8,40.3c0,0.3,0,0.2,0,0.3c0-0.3,0.1,0,0.1-0.4l0,0.1c0,0,0,0,0,0c0.1,0.2,0-0.2,0.1-0.2
								c0,0,0,0.1,0,0.1l0-0.1c0,0,0,0.1,0,0.1l0.1,0l0,0c0-0.1,0-0.1,0-0.2c0,0,0,0,0,0.1l0-0.1c0,0.1,0,0.2,0,0.2
								c0.1,0.3,0-0.1,0.1,0.1l0,0c0,0.2,0.1,0.1,0.1,0.2c0-0.1-0.1-0.3-0.1-0.4c0,0,0,0,0.1,0c0,0.1,0,0.1,0.1,0.1l0,0.2
								c0,0,0-0.1,0-0.2c0,0,0.1,0.1,0.1,0.2c0.1,0-0.1-0.2,0-0.2c0,0.1,0.1,0,0.1-0.1l-0.2-1l0,0c-0.1,0,0-0.1-0.1-0.1l0,0.1
								c0,0,0,0,0-0.1c0,0.1,0.1,0.1,0,0.2c0.1,0.2-0.2-0.2-0.1,0c0,0,0-0.1-0.1-0.1c0,0.1,0,0.1,0,0.3l-0.1-0.1
								c0.1,0.1,0.1,0.2,0.1,0.4c0,0,0.1,0.1,0.1,0.1l0,0.1c0,0,0-0.1,0-0.1l0,0c0,0-0.1-0.1-0.1-0.2l0.1,0.1c0-0.1,0-0.2-0.1-0.3
								c0,0,0,0,0,0c0,0,0,0,0-0.1c0,0,0,0,0,0.1l-0.1-0.2l0,0.1L56,39.3c0,0.2,0.1,0.5,0,0.6c0-0.1-0.1-0.2-0.1-0.3
								c0.1,0.1,0-0.1,0.1-0.1c0,0-0.1-0.1-0.1-0.1l0,0.2c0-0.1-0.1-0.1-0.1-0.1c0.1,0.2,0,0.2,0,0.3c0-0.1-0.1-0.2,0-0.2
								c-0.1-0.2,0.1,0.3,0,0.2c0,0,0,0,0,0c0,0.1-0.1,0-0.1,0l0,0c-0.1,0-0.2,0.1-0.1,0.3c0,0-0.1-0.2-0.1-0.3l0.2,0.7
								c-0.1-0.2-0.3-0.6-0.2-0.7c0,0-0.1,0-0.1,0c0,0,0.1,0.2,0.1,0.3c-0.1-0.2-0.1-0.1-0.2-0.2c0,0,0.1,0.3,0.1,0.3
								c0,0-0.1-0.3-0.1-0.3l0,0.3c0-0.1-0.1-0.2-0.1-0.3c0,0,0,0-0.1,0l0,0.1c-0.1,0,0.1,0.4,0,0.4c0-0.1-0.1-0.3-0.1-0.4
								c0,0.1,0.1,0.7,0.1,0.8l0-0.1l0,0.1c0-0.2-0.1-0.7-0.1-0.9c0-0.1,0-0.1-0.1-0.1c0-0.1,0-0.1,0-0.1l-0.1,0
								c0.1,0.2,0,0.2,0,0.3l0-0.2c0.1,0.2,0.1,0.5,0,0.5c0-0.1-0.1-0.3-0.1-0.3c0,0.1,0,0.1,0,0.1l0-0.1c0-0.1,0,0.2-0.1,0.1
								c0,0-0.1-0.2-0.1-0.1c0.1,0.2,0.2,0.8,0.2,0.9c0,0-0.1-0.2-0.2-0.2c-0.1-0.1,0-0.4-0.1-0.5c0,0,0,0.1,0,0.1
								c0,0,0-0.1-0.1-0.1c0,0.2-0.1,0,0,0.1c0,0.1,0,0-0.1,0c0,0.1,0,0.4,0,0.4c0,0,0-0.1,0-0.1c-0.1,0-0.1-0.1-0.2-0.1
								c0,0,0-0.1,0-0.2c0,0,0,0.1,0,0.1c-0.1-0.1,0,0,0-0.2c0,0.1,0,0.1-0.1,0.2c0,0.2,0.1,0,0.1,0c0,0.2,0,0.4-0.1,0.5
								c-0.1,0.1,0-0.1,0-0.1c-0.1,0-0.1,0.4-0.2,0.2c0-0.1,0-0.3,0-0.4c0-0.1,0.1,0.1,0.1,0.1l0-0.1c0,0,0-0.1,0.1,0
								c0-0.1-0.2,0-0.3-0.1c0,0,0,0.1,0,0.1l0,0c0,0.1,0,0.1,0,0.2c0,0.1-0.1,0.2-0.1,0.1l0-0.2c0,0,0,0.1,0,0c0,0.1-0.1-0.2-0.1,0
								l0,0.1c0,0.1-0.1,0.2-0.1,0.2c0,0.2,0,0,0,0.2c0-0.2,0.1,0,0.1-0.2c0,0.2,0.1,0.1,0.1,0.3c0-0.1,0-0.1,0-0.1c0,0,0,0,0,0l0,0
								l0,0c0,0,0,0,0,0c0,0,0,0,0-0.1c0-0.1,0.1-0.1,0.1-0.2c0,0,0,0.1,0,0.1l0-0.1c0,0.1,0.1,0.2,0,0.3l0.1,0c0,0.1,0.1,0.1,0.1,0
								c0,0,0.1-0.1,0,0l0.1-0.1l0,0c0.1,0,0.1-0.2,0.3,0c0,0,0-0.1,0.1,0l0,0.1c0,0,0.1,0.1,0.1,0c0.1,0.2,0.2,0,0.2,0.1l0-0.1
								c0,0,0.1,0,0.1-0.1l0-0.1c0-0.1,0.1,0,0.2,0c0,0,0,0,0,0c0.2,0.2,0.1-0.2,0.2-0.1c0,0,0,0,0,0l0,0l0,0l0,0c0,0,0,0,0-0.1
								c0,0,0,0,0-0.1l0,0.1l0,0c0,0,0-0.1,0-0.1c0,0,0,0,0-0.1c0.1,0.2,0-0.1,0.1,0.1c0-0.1,0.1-0.1,0-0.3c0,0,0,0,0,0
								c0,0,0.1,0,0.1,0l0.1,0.1l0-0.2c0.1,0.1,0.1,0.1,0.1,0.2C55.8,40.3,55.8,40.4,55.8,40.3L55.8,40.3
								C55.8,40.3,55.8,40.2,55.8,40.3c0.1,0.1,0.2-0.1,0.4,0.1c-0.1-0.3,0.1,0.1,0-0.1c0,0.1,0.1,0.1,0.1,0.2
								c0-0.1,0.1,0.1,0.1-0.1c0,0.1,0,0.1,0,0.1c0,0,0-0.1,0,0c0,0,0,0.1,0,0.1c0.1,0,0-0.2-0.1-0.4c0.1,0.1,0.1,0.1,0-0.1
								c0,0.1,0.1,0.1,0,0.1c0,0,0.2,0,0.1-0.1c0,0,0,0,0,0c0,0,0.1,0,0.1,0l0,0c-0.1-0.2,0-0.1,0-0.1l0,0c0.1,0.1,0.1,0,0.1,0
								l1.5-0.2l-1.6-0.4c0,0,0,0,0-0.1l0,0.1c0,0.3-0.1-0.1-0.1,0l0,0.1c0,0.1-0.1-0.3-0.1-0.4c0,0,0,0,0-0.1c-0.1-0.1,0,0.2,0,0.2
								c0-0.1,0-0.2,0-0.2c0-0.1-0.1,0.3-0.1,0.1c0,0.1,0,0.1,0,0.2c0,0-0.1-0.2-0.1,0c0,0,0,0,0-0.1c0,0.1-0.1,0.1-0.1,0.2
								c-0.1-0.4-0.2,0.2-0.2-0.2l-0.1,0l0,0c-0.1,0-0.1,0.1-0.1,0.2c0,0,0-0.1,0-0.1c-0.1-0.1-0.1-0.1-0.2,0.1l0-0.1
								c0,0.1-0.1-0.2-0.2,0c0,0,0,0,0-0.1c-0.1,0.2-0.2-0.3-0.2,0.1l-0.1,0.1c0.1,0,0,0.2,0,0.3c0,0-0.1-0.1-0.1-0.2l0,0
								c0-0.2-0.1-0.1-0.1-0.2c-0.2,0-0.3-0.1-0.5-0.1l0,0.2l-0.1,0c0,0,0-0.1,0-0.1c0-0.1-0.1,0.1-0.1,0.1c-0.1-0.1,0-0.2,0-0.2
								l0,0l0,0c0,0.1,0,0.2-0.1,0.1c0,0,0-0.1,0-0.1c0,0,0,0,0,0l-0.1,0l0,0.1c0,0.1-0.1,0,0,0.2c-0.1-0.2-0.2-0.1-0.3-0.2
								c0,0.1-0.1,0.1-0.1,0.1c0,0,0,0.2,0,0.2c0-0.3-0.1-0.1-0.1-0.4c0,0.2-0.1,0-0.1,0.3c0,0,0-0.1,0-0.2c-0.1,0.1-0.2-0.1-0.3,0
								c0,0,0,0.1,0,0.2l-0.1-0.2c0,0,0,0.3,0,0.1c0,0,0,0.1,0,0.1c-0.2-0.2-0.4,0.2-0.6-0.2c0,0.1,0,0.1,0,0.1c0,0,0,0.1,0,0.2
								l-0.1-0.2c0,0.2-0.1,0-0.1,0.2l0,0c0,0.2,0.1,0.4,0.1,0.6c0-0.2,0.1,0.3,0.2,0c0,0,0,0.1,0,0.1c0-0.1,0-0.1,0.1-0.1l0,0
								c0.1,0,0.2,0.1,0.3,0.1l0-0.1c0,0,0,0.1,0,0.1c0-0.2-0.1,0-0.1-0.2c0,0.2,0.2,0,0.2,0.3c0,0,0-0.1,0-0.1l0,0.1l0-0.1
								c0,0,0,0.1,0.1,0.2c0,0,0,0,0,0c0,0.1,0.1,0,0.1,0l0,0c0.1-0.1,0.2,0,0.3-0.1l0-0.1c0.1-0.1,0.1,0.1,0.1,0l0,0
								c0-0.1,0-0.1,0.1-0.1c0,0.1,0,0.1,0,0.2c0.1-0.1,0-0.1,0.1-0.3l0,0.1c0-0.1,0-0.1,0.1-0.2c0,0.1,0,0.1,0,0.2
								c0.1,0.2,0.1-0.2,0.2,0.1c0-0.3-0.1-0.1-0.1-0.2c0-0.1,0-0.2,0.1-0.2c0,0,0.1,0.3,0.1,0.3c0,0,0,0,0,0c0,0.1,0-0.1,0.1,0
								c0-0.2,0,0,0-0.2l-0.1,0.1c0-0.1,0.1-0.3,0.1-0.2c0,0,0,0.1,0,0.1c0,0.1,0,0,0.1,0c0,0.2-0.1,0-0.1,0.2
								c0,0.1,0.1-0.1,0.1,0.1c0-0.3,0.1,0,0.1-0.2l0,0.1c0,0,0-0.1,0-0.1l0,0.2c0-0.1,0.1,0.1,0.1,0c-0.1,0,0-0.1-0.1-0.2
								c0.1-0.2,0.1,0.3,0.2,0.2c0,0-0.1-0.1,0-0.1c0,0,0.1,0.1,0.1,0.1c0.1,0,0-0.1,0-0.2c0,0.1,0-0.1,0.1-0.1l0,0.1
								c0.1,0.1,0-0.3,0.1-0.2l0,0.2l0,0l0,0.1c0-0.1,0-0.1,0.1,0c0-0.1,0-0.2,0-0.2c0,0.1,0,0.1,0,0.1c0,0.1,0,0.2,0,0.1l0,0.1
								c0,0.1,0.1,0,0.1,0c0,0,0,0,0,0l0.1-0.2c0,0,0,0.1,0,0.1c0,0,0-0.1,0-0.1c0,0.1,0,0.2,0,0.2l0.1-0.1c0,0,0,0.1,0,0.2
								c0,0.1,0.1-0.2,0.1-0.1c0,0,0,0,0-0.1c0.1,0,0.1,0.1,0.2,0l0,0.2c0,0-0.1-0.2,0-0.3c0.1-0.1,0,0.1,0.1,0.2
								C55.8,40.3,55.8,40.1,55.8,40.3C55.9,40.3,55.9,40.3,55.8,40.3z M56.4,40.2C56.4,40.2,56.4,40.3,56.4,40.2
								C56.4,40.1,56.4,40.1,56.4,40.2z M56.2,39.5C56.2,39.5,56.2,39.5,56.2,39.5C56.2,39.6,56.2,39.6,56.2,39.5z M54,41L54,41
								C54,41,54,41,54,41z M53.9,41C53.9,41,53.9,41,53.9,41C53.9,41,53.9,41,53.9,41C54,40.9,53.9,40.9,53.9,41z M54.2,39.3
								L54.2,39.3C54.2,39.3,54.2,39.3,54.2,39.3z"/>
							<path d="M56.2,39.3L56.2,39.3C56.2,39.4,56.2,39.4,56.2,39.3z"/>
							<polygon points="55.5,40.4 55.5,40.4 55.5,40.4 							"/>
							<path d="M54.6,39.8C54.6,39.9,54.6,39.9,54.6,39.8C54.6,39.9,54.6,39.8,54.6,39.8z"/>
							<path d="M53.6,41.2L53.6,41.2C53.6,41.1,53.6,41.1,53.6,41.2C53.6,41.1,53.6,41.2,53.6,41.2z"/>
							<path d="M53.4,40.4C53.4,40.4,53.4,40.4,53.4,40.4L53.4,40.4C53.4,40.4,53.4,40.4,53.4,40.4z"/>
							<path d="M53.6,40.8C53.6,40.7,53.6,40.7,53.6,40.8L53.6,40.8C53.5,40.8,53.6,40.8,53.6,40.8z"/>
							<path d="M53.5,40.7C53.5,40.7,53.5,40.7,53.5,40.7C53.5,40.8,53.5,40.7,53.5,40.7z"/>
							<path d="M53.9,41C53.8,41,53.9,41.2,53.9,41C53.8,41.2,53.9,41,53.9,41z"/>
							<polygon points="53.6,40.4 53.6,40.5 53.6,40.4 							"/>
							<path d="M53.8,40.5L53.8,40.5C53.7,40.5,53.7,40.5,53.8,40.5C53.8,40.5,53.8,40.6,53.8,40.5z"/>
							<path d="M53.7,40.5C53.7,40.5,53.7,40.5,53.7,40.5C53.7,40.5,53.7,40.5,53.7,40.5z"/>
							<polygon points="53.7,40.4 53.7,40.4 53.7,40.4 							"/>
							<path d="M54.2,40.5L54.2,40.5C54.2,40.4,54.2,40.4,54.2,40.5C54.2,40.5,54.2,40.5,54.2,40.5z"/>
							<path d="M54,40.2C54,40.2,54,40.2,54,40.2L54,40.2L54,40.2z"/>
							<path d="M54.1,40.1c0,0,0-0.1,0-0.1C54.1,40.1,54.1,40.1,54.1,40.1z"/>
							<polygon points="54.7,40.2 54.7,40.2 54.8,40.5 							"/>
							<path d="M55,39.5C55,39.5,55.1,39.7,55,39.5c0,0.2,0,0.1,0,0.2C55.1,39.6,55.1,39.7,55,39.5z"/>
							<path d="M55.1,39.7C55.1,39.7,55.1,39.7,55.1,39.7C55.1,39.7,55.1,39.7,55.1,39.7z"/>
							<polygon points="52.3,39.3 52.3,39.2 52.3,39.3 							"/>
							<path d="M52.3,39.5l0-0.2L52.3,39.5C52.3,39.4,52.3,39.4,52.3,39.5z"/>
							<path d="M56.5,40.5L56.5,40.5C56.5,40.4,56.5,40.4,56.5,40.5L56.5,40.5z"/>
							<polygon points="56.1,40.4 56.1,40.4 56.1,40.2 							"/>
							<path d="M55.8,40.6C55.8,40.6,55.8,40.6,55.8,40.6C55.8,40.6,55.7,40.4,55.8,40.6z"/>
						</g>
					</g>
				</g>
				<g>
					<g>
						<g>
							<path d="M69.6,29.7c0-0.4-0.1-0.2-0.1-0.3C69.5,30.1,69.7,29.7,69.6,29.7z"/>
							<path d="M69.8,36L69.8,36c0-0.1,0,0.1-0.1,0.3c0,0.2-0.1,0.4-0.1,0.4C69.7,36.7,69.9,36,69.8,36z"/>
							<path d="M66.7,40.8c0.5-0.3,1.2-1.7,1.9-2.6l0.1-0.1l0.2-0.5C68.1,38.7,67.2,40.1,66.7,40.8z"/>
							<path d="M64.5,43.1c0.2-0.1-0.4,0.6,0.5-0.6c0,0-0.1,0.1-0.1,0.1C64.8,42.7,64.7,42.8,64.5,43.1z"/>
							<path d="M64.8,42.6C65.2,42.1,64.6,42.9,64.8,42.6L64.8,42.6z"/>
							<path d="M63.2,44.9l0.4-0.7c-0.1,0.1-0.6,0.7-0.4,0.5C62.7,45.4,62.8,45.3,63.2,44.9z"/>
							<path d="M62.8,45.7l0.2-0.4C63,45.3,62.9,45.4,62.8,45.7z"/>
							<path d="M63.5,44.5L63,45.3c0.1-0.1,0.1-0.1,0.2-0.3C63.3,45,63.3,44.9,63.5,44.5z"/>
							<path d="M63.9,44.1c0.3-0.3,0.7-0.8,0.2-0.1C65,42.7,64.8,42.9,63.9,44.1z"/>
							<path d="M66.6,41.1l0.4-0.5l0.3-0.5C67.2,40.4,66.6,41.1,66.6,41.1z"/>
							<path d="M60.1,49c0,0.1,0.2-0.2,0.3-0.2l0.3-0.5C60.5,48.6,60.1,49,60.1,49z"/>
							<path d="M60.4,48.8l-0.5,0.8C60.4,49,60.5,48.8,60.4,48.8z"/>
							<polygon points="62.9,45.9 63.7,44.6 62.7,46.1 							"/>
							<polygon points="58,51.8 58.3,51.3 57.8,52.2 							"/>
							<path d="M56.7,53.7c0.2-0.4-0.4,0.3-0.2,0c-0.4,0.5-0.6,1-0.9,1.4C55.9,54.6,56.2,54.2,56.7,53.7z"/>
							<path d="M55.2,55.8c0.1-0.2,0.3-0.4,0.4-0.7C55.5,55.3,55.3,55.5,55.2,55.8z"/>
							<path d="M59,50.8c-0.1,0-0.2,0.1-0.5,0.5l0.3-0.2C58.8,51,58.9,50.9,59,50.8z"/>
							<path d="M58.8,51.1L58.8,51.1c-0.2,0.3-0.4,0.5-0.5,0.6C58.4,51.7,58.5,51.5,58.8,51.1z"/>
							<path d="M59,50.8C59,50.8,59,50.8,59,50.8C59,50.8,59,50.8,59,50.8z"/>
							<path d="M61.4,47.7c-0.3,0.5-0.9,1.4-0.2,0.6C61.4,48,61,48.4,61.4,47.7z"/>
							<path d="M59.4,50.5l0.6-0.8c0,0-0.2,0.1,0-0.1L59.4,50.5z"/>
							<polygon points="59.1,50.9 59.4,50.5 59.2,50.8 							"/>
							<path d="M56.2,54.5c-0.2,0.4-0.5,0.7-0.8,1.2c0.3-0.4,0.7-0.9,1-1.3C56.5,54.2,56.6,54,56.2,54.5z"/>
							<path d="M57.5,52.9C57.5,52.9,57.4,52.9,57.5,52.9C57.5,52.9,57.5,52.9,57.5,52.9z"/>
							<polygon points="52.5,59.7 52.5,59.7 52.5,59.6 							"/>
							<path d="M56.6,54.3c0.3-0.3,0.4-0.5,0.5-0.7C56.9,53.8,56.7,54,56.6,54.3C56.5,54.4,56.5,54.4,56.6,54.3z"/>
							<path d="M54.4,56.9c0.1-0.2,0.3-0.4,0.5-0.5C54.7,56.5,54.4,56.9,54.4,56.9z"/>
							<path d="M57.3,53L57.3,53C57.3,53.1,57.3,53.1,57.3,53z"/>
							<path d="M57.3,53c-0.1,0.2-0.2,0.3-0.3,0.5c0.1-0.2,0.3-0.4,0.4-0.6C57.4,53,57.4,53,57.3,53z"/>
							<path d="M52.1,61.4c0-0.1,0.5-1.1,1.2-1.7c0.5-0.8-0.1-0.5-0.8,0c0,0,0.1,0.1-0.5,0.9c0.2-0.2,1.4-1.6,0.9-0.9
								c-0.7,1-0.6,0.8-1,1.3c0.4-0.3-0.8,1.4-0.5,1.3l0.6-0.9C52.1,61.3,51.9,61.6,52.1,61.4z"/>
							<path d="M53.6,58.2l0.2-0.3c-0.3,0.4-0.5,0.6-0.9,1c-0.3,0.6-0.4,0.7-0.4,0.7l1.2-1.5L53.6,58.2z"/>
							<path d="M54.9,56.5c-0.1,0.3-0.6,1.1-0.2,0.7c0.7-0.9,0.4-0.7,0.8-1.3C54.4,57.4,55.7,55.4,54.9,56.5
								c0.2-0.3,0.4-0.6,0.6-0.8C55.3,55.9,55.1,56.2,54.9,56.5l0-0.1l0,0v0c0.1-0.1,0.1-0.1,0,0C54.9,56.4,54.9,56.4,54.9,56.5
								C54.9,56.4,54.9,56.4,54.9,56.5C54.5,56.9,54.8,56.5,54.9,56.5c0-0.1,0-0.1,0-0.1l0,0l-1.1,1.5
								C54.1,57.6,54.4,57.2,54.9,56.5z"/>
							<path d="M60.8,49.3C60.8,49.3,60.8,49.3,60.8,49.3C60.7,49.4,60.7,49.5,60.8,49.3z"/>
							<path d="M60.3,49.8c0.1-0.1,0.1-0.2,0.4-0.6c0.3-0.3,0,0,0.1,0c0.1-0.2,0.5-0.8,0-0.2l-0.1,0.1c-0.5,0.6-1.2,1.3-1.1,1.2
								C59.8,50.3,60,50.2,60.3,49.8z"/>
							<path d="M57.6,53.2l-0.9,1.3l0.5-0.6l-0.1,0C57.7,53.2,57.6,53.3,57.6,53.2z"/>
							<polygon points="52.3,59.8 52.4,59.6 52,60.4 							"/>
							<polygon points="51.1,61.5 51.1,61.3 50.8,61.8 							"/>
							<path d="M19,24.1l-0.2-0.4C18.9,23.9,18.9,24,19,24.1z"/>
							<path d="M19.9,27.3L19.9,27.3C19.9,27.2,19.8,27.1,19.9,27.3z"/>
							<path d="M21,56.5c-0.3-0.6-0.6-1.3-0.7-1.1l0,0.2C20.6,55.9,20.8,56.2,21,56.5z"/>
							<path d="M7.1,30.3l-0.2-0.1c-0.2-0.1-0.3-0.1-0.4-0.1C6.7,30.1,6.9,30.2,7.1,30.3z"/>
							<path d="M7.7,30.2l0.7,0.5C8.2,30.6,8,30.4,7.7,30.2z"/>
							<path d="M17.7,6.5c0.1,0,0.6-0.1,0.6-0.1c-0.2,0-0.3,0-0.4,0C17.8,6.4,17.7,6.4,17.7,6.5C17.6,6.4,17.8,6.5,17.7,6.5z"/>
							<path d="M38.7,77.2c-0.5,0.1-0.8,0.1-1.2,0C38.1,77.4,38.6,77.4,38.7,77.2z"/>
							<path d="M20.4,25c-0.1-0.3-0.1-0.4-0.2-0.4C20.4,25,20.4,25.1,20.4,25z"/>
							<path d="M36.3,76.8c0.1,0.1,0.1,0.1,0.2,0.2c0.3,0.1,0.6,0.3,1.1,0.3C37.2,77.2,36.7,77,36.3,76.8z"/>
							<path d="M54,31.4c0,0,0,0.1-0.1,0.1C54,31.6,54,31.5,54,31.4z"/>
							<path d="M66.5,33.6c-0.2,0.1-0.5,0.2-0.7,0.3C65.9,33.8,66.2,33.8,66.5,33.6z"/>
							<path d="M46.3,68C46.6,67.6,46.3,67.9,46.3,68L46.3,68z"/>
							<path d="M47.9,66.5c0,0.1-0.1,0.1-0.1,0.2C47.8,66.7,47.9,66.6,47.9,66.5z"/>
							<path d="M33.2,74.2L33.2,74.2C33.2,74.2,33.2,74.2,33.2,74.2z"/>
							<path d="M46.7,67.5c-0.1,0.1-0.2,0.3-0.3,0.4C46.4,67.8,46.6,67.7,46.7,67.5z"/>
							<path d="M46.6,67.5c0.1-0.1,0.2-0.2,0.2-0.3C46.9,67.2,46.9,67.2,46.6,67.5z"/>
							<path d="M46,68.4c0.1-0.2,0.3-0.4,0.4-0.6C46.3,68,46.3,68,46.3,68C46.2,68.1,46.1,68.2,46,68.4z"/>
							<path d="M48,6.9C48.1,6.9,48.1,6.9,48,6.9C48.6,6.8,48.4,6.9,48,6.9z"/>
							<path d="M13.5,48.2C13.5,48.2,13.5,48.2,13.5,48.2C13.5,48.2,13.5,48.2,13.5,48.2L13.5,48.2z"/>
							<path d="M12.5,47c0.5,0.4,0.7,0.8,1,1.2l0-0.6L12.5,47z"/>
							<path d="M16.8,16.5l0.2,1.1c-0.5-1.2-0.7-2.1-0.6-1.1c0.4,0.1,1.2,4,1.5,4.1l0.1,0.7C18,21,18,21,18,20.8
								c0.2,1.4,0.5,0.9,1,2.6c0.1,0.6,0.2,1,0.1,0.6l0.5,1.3c0.1,0.4,0,0.3-0.1-0.1l0.6,2l0,0c0.1,0.3,0.4,0.9,0.5,1.2
								c0.1,0.5-0.1-0.2-0.1-0.1l0.4,1.1c0,0.5-0.3-0.4-0.5-1.2c0,1.1,0.3,0.9,0.8,3.2l-0.3-1c0,0.7,0.3,1.5,0.5,2.8
								c0-0.3-0.4-2.5,0-1.3c0.1,0.4,0.2,0.8,0.4,1.4c-0.1,0,0.1,0.7,0.3,1.5l-0.2,0c0.1,0.3,0.1,0.2,0.1,0.3c0,0,0.1,0.1,0.1,0.1
								c0.1,0.1,0.1,0.1,0.2,0.3c0,0.1-0.1,0-0.1,0c0,0-0.1,0-0.1,0c-0.1,0-0.1,0-0.2-0.1c-0.1,0-0.1-0.1-0.2-0.2
								c-1.6,0,1.1,0.2-0.8,0.2c-1.3-0.1-2.3,0-3.9,0.1c-0.9-0.1,0.2-0.1-0.2-0.1c0,0-0.1,0-0.1,0c-0.1,0-0.2,0-0.2,0
								c-0.1,0.1-0.2,0-0.2,0c-0.2-0.1-0.1-0.1,0-0.1c-0.6-0.3-0.1,0.1-1.1-0.4c-0.3,0-1.8-1.4-3-2c-0.3-0.2,0.2,0,0.1-0.1
								c-1.7-0.9-1.4-0.8-2.8-1.4l-1.1-0.8c0.7,0.6-0.4,0.1-1.3-0.4c0.3,0.2,0.5,0.4,0.6,0.6l-1.3-0.7C6.2,30,6.3,30,6.5,30
								c-0.1,0-0.2-0.1-0.2-0.1c-0.5-0.4-0.4-0.4,0-0.3c0.2,0.2,0.4,0.3,0.6,0.5c0.4,0.2,0.8,0.3,0.8,0.1c-0.1-0.1-0.3-0.1-0.5-0.3
								c0.1,0.1,0.2,0.1,0.2,0C7.3,30,7,29.9,6.7,29.7c0,0-0.5-0.5-0.5-0.5l-0.1,0l-0.9-0.6l-0.1,2.2l0,0.4l0,0.3L5.2,32
								c0,0.3,0.1,0.7,0.1,1c0.1,0.7,0.2,1.5,0.2,2.4l0,0c-0.1,0.3,0,0.7,0.1,1.1c-0.3-0.6-0.3-0.1-0.4,0c0-0.3-0.1-0.6,0-1.1l0,0.1
								c0-0.7-0.1-1.5-0.1-2.4c0,0.7-0.1,0.5-0.1,0.4l0.1,2l0-0.2c-0.1,0.2-0.1,0.3-0.1,0.5c-0.1,0-0.1,0.1-0.1,0.4
								c0,0.3,0.1,0.6,0.3,0.9c0-0.3,0.2,0.1,0.6,0.7c0.4,0.5,0.9,1.1,1.2,1.5c0,0.1-0.2,0-0.9-1c0.6,1.2,1.2,1.2,1.8,2.3
								c-0.2-0.2-0.3-0.4-0.4-0.4c0.5,0.5,1.4,1.8,1.1,1.6l-0.2-0.2c1.1,1.5,3.4,4.7,3.8,4.8c0,0-0.4,0-0.5-0.1l2.6,2.3
								c-0.3-0.1,0,1-1-0.2c0.2,0.4,0.6,0.8,1.2,1.6c-0.2-0.3-0.2-0.8,0-0.4c0.5,1.1,0.4,0.7,1.1,2c-0.2-0.4,0.3-0.2,0.7,0.4
								c-0.1-0.1-0.2,0.2-0.4,0l1.3,1.3c-0.3-0.3-0.2,0.1-0.1,0.5c-0.1-0.2,0.9,1.3,1.2,1.6l-0.4-0.7c1.2,1.7,1.5,1.4,2.7,3
								c-0.2-0.2-0.6-0.3-0.1,0.6c0.4,0.3,1.8,1.3,3,2.7l0.1,0.3l0.9,1.1c-0.7-0.6-2.5-2.2-3.4-3.2c0.4,0.7,0,0.2,0.7,1.2
								c0.2,0.4-0.5-0.4-0.7-0.7l1.5,2.2c0.1-0.2,1.3,1.5,1.4,1.4l-1.9-2.2c0.1-0.2,1.4,1.1,2.5,2.6c0.2,0.4-0.5-0.1-0.5,0
								c0.2,0.2,1.2,1.4,1.2,1.5l-0.5-0.6c0.6,0.9,1.2,1.3,1.8,2.4c0.3,0.4,0.6,1.2,0.7,1.2c-0.3-0.7,0.1-1.2,0.5-0.9
								c0.1,0.1,1.2,2,1.4,2.4c0.3,0.7-0.9-0.7-0.7-0.1c0.1,0,0.3,0.3,0.4,0.4c0.2,0.4-0.2-0.1,0.4,0.7c0.2,0,1.2,1.6,0.4,0.3
								c0.6,0.8,0.6,0.9,1.3,1.8c-0.1-0.4,0.9,0.6,1.5,1.4c-0.1,0,0,0.2,0.1,0.3c0.6,0.8,1,1.4,1.5,2.1c0.4,0.6,1,1.2,1.9,1.6
								c0.1,0.1,0.3,0.2,0.5,0.2c0.2,0.1,0.3,0.1,0.1,0.1c0.3,0,0.6,0,1.2,0c0.6,0,0.3,0.1-0.1,0.1c-0.4,0.1-0.8,0-0.3,0.1
								c0-0.1,0.5-0.1,0.9-0.2c0.5-0.1,1-0.4,1.3-0.7c-0.2,0-0.6,0.3-1.1,0.5c-0.5,0.2-1.2,0.3-1.6,0.3c0-0.1,0.4-0.1,1-0.3
								c0.6-0.2,1.3-0.5,1.9-1.2c0.9-1.1,0.5-0.4,0.7-0.6c1.8-2.3,1.2-2.2,2.7-4.1c0.7-0.7,0.2,0.1,0.4,0c-0.7,1-1.2,1.5-1.7,2.2
								l0.7-0.8c-0.2,0.4-0.7,1.1-1,1.4c0.6-0.6,2.9-4,4.3-5.7c0.2-0.3,0.6-0.9,0.3-0.7l-0.4,0.6c-0.5,0.5,0.7-1.2,0.1-0.5
								c0.5-0.8,1-1.7,1.9-2.8l0.3-0.1c-0.1,0-0.6,0.7-0.8,1c0.3-0.5,1.4-1.5,1.6-2.1l-0.6,0.7c0.5-0.8,1.1-1.9,1.8-2.8
								c-0.4,0.3-0.1,0.2-0.8,0.8c0.6-0.5-1.8,2.4-0.9,1.6c-0.7,0.6-1,1.2-1.8,2c0.1,0,0.3-0.3-0.3,0.5c0,0-0.1,0.1-0.1,0.2
								c0,0,0,0,0,0.1l0,0c0,0,0,0,0,0c0.2-0.2,0.3-0.3,0.4-0.4c-0.2,0.5-1.1,1.7-1.4,2.2c-0.4,0.5,0.1-0.2-0.1,0L45.2,70
								c-0.1,0-1.1,1.2-0.3,0l-0.7,1c-0.5,0.6-1.1,1.4-1.4,1.9c-0.4,0.5-0.8,1.3-0.6,0.8L41,75.3l0,0c-0.3,0.4-0.5,0.8-0.9,1.1
								c-0.3,0.3-0.7,0.6-1.1,0.8c-0.8,0.4-1.8,0.3-2.6-0.2c-0.5-0.2-1-0.6-1.6-1.5l0-0.2c-0.5-0.7-1.4-2.1-1.7-2.3
								c-0.3-0.9-2.4-3.3-3.2-4.5l-0.1,0c-0.6-0.8-1.2-1.6-2-2.6l0,0.1c-0.7-0.8-1.6-2.3-2.6-3.7c0.1,0.1,0.4,0.4,0.5,0.7
								c-1-1.8-2.7-3.4-3.7-5c-0.3-0.4-0.5-0.6-0.7-0.9c0,0,0.1,0.1,0.1,0.1c0,0-0.1-0.1-0.1-0.2c-0.1-0.2-0.2-0.4-0.3-0.6
								c0.1,0.2,0.2,0.3,0.3,0.5c-0.2-0.3-0.5-0.7-0.9-1.1l0-0.3c0,0,0-0.1-0.1-0.1c-0.3-0.4-0.3-0.3-0.2,0
								c-0.2-0.2-0.3-0.4-0.5-0.5c-0.1-0.5-0.9-1.1-1.1-1.7c-0.3-0.2-1.6-2.1-2-2.2c0,0-0.1-0.2,0.1,0.1c-0.3-0.5-0.7-1-1-1.4l0-0.3
								l-0.9-0.9c-0.4-0.7-0.5-1,0-0.4c-1.3-1.4-1-1.2-2.1-2.4l0.1,0c-0.3-0.5-1-1.1-1.1-1.5c-0.3-0.6-1.2-1.9-2.3-3.3
								c-0.5-0.7-1.1-1.5-1.7-2.3C7,37.8,6.5,37,6.2,36.3c0,0.2-0.1,0.1-0.1-0.1C6,36,6,35.7,6.1,35.6l0,0l0-0.2
								c0-0.3,0-0.5-0.1-0.5c0.1-0.2,0.1-0.7,0.2-0.1c-0.1-1.7,0.1-2.6-0.1-3.6c0,0,0.1,0,0.1,0c0,0.1,0,0.2,0.1,0.1
								c0-0.1,0-0.1,0-0.2c0-0.1,0-0.1,0-0.1c0,0,0.1,0.1,0.1,0.2c0-0.2-0.1-0.4-0.1-0.7c0-0.1,0-0.2,0-0.4c0.6,0.5,0.6,0.5,1.3,0.8
								c0.2,0.2,0.6,0.5-0.3,0c0.5,0.3,3.1,2,3.2,1.9c0.1,0.1,0.7,0.5,0.8,0.5c1.1,0.7,1.2,0.8,2.4,1.5l-0.3-0.2
								c0.5,0.1,1,0.6,1.9,1.1l0,0c0.3,0.2,0.5,0.3,0.6,0.4c0.1,0.1,0.2,0.1,0.3,0.2c0,0,0.1,0.1,0.1,0.1c0,0,0.1,0,0.1,0
								c0.4,0,0.4,0,0.6,0c0.3,0,0.5,0,1.7,0.1l-0.1-0.1c0.1-0.1,0.6-0.1,1.3,0c0.3,0,0.7,0.1,1.1,0.1c0.2,0,0.4,0,0.6,0l0.3,0
								l0.3,0c0,0-0.2,0-0.3,0c-0.1,0-0.3,0-0.3,0c0.4,0,1.1,0,1.9,0.2l0.1,0c0,0,0,0,0,0l0-0.1l0-0.2c0-0.2,0-0.4-0.1-0.5
								c0-0.2-0.1-0.4-0.1-0.5c0-0.2-0.1-0.3-0.1-0.4c0-0.1,0,0,0.1,0.1c0.1,0.2,0.1,0.4,0.2,0.6c-0.1-0.4-0.1-0.6-0.2-0.8
								c0-0.1-0.1-0.2-0.1-0.3c0-0.1-0.1-0.1-0.1-0.1c-0.1,0-0.1,0.1-0.3-0.6c0-0.3,0.3,0.3,0-0.7c-0.1-0.5-1.1-2.7-1.3-4.1
								c0,0.3,0,0.6-0.2,0c-0.3-1-0.5-2.8-1-3.7c0-0.1,0-0.2,0-0.2c-0.3-0.8-0.8-2.5-1-3c0.2-0.8-1.6-4.8-1.2-4.9
								c0,0-0.2-0.6-0.4-1.2c-0.1-0.3-0.2-0.6-0.2-0.8c-0.1-0.2-0.1-0.4-0.1-0.4l0.1,0c-0.1-0.4-0.1-0.8-0.1-1.1l0-0.4l-0.3-0.1l0,0
								c0.1,0.2,0.2,0.3,0.3,0.5c0-0.7-0.1-1.2-0.1-1.6c0-0.4,0.1-0.1,0.1-0.1c0.1-1.2,0.1-1.8,0.1-2.4c0-0.3,0-0.6,0-0.9
								c0-0.1,0-0.2,0-0.3c0-0.1,0-0.1,0-0.2c0-0.1,0-0.3-0.1-0.5l0,0c0.1,0,0.2,0.1,0.2,0.1c0.1,0,0.2,0,0.5,0c0.4,0,0.9,0,1.4,0.1
								c1.1,0,2.4,0.1,3.5,0c0,0-0.1,0-0.3,0.1c2.6-0.1,6.2,0.3,7.1-0.1l1.7-0.1c-2.2,0,0.3-0.2-0.6-0.3c0.9,0,2.2,0.1,1.2,0.2
								l-0.2,0c-0.4,0.2,2.7,0.1,2.7,0.2c4.3,0,8.6,0.1,12.7,0.1l-0.5-0.2l1.4,0c0.4,0,0.5,0.1-0.5,0.1c0.5,0.1,1.7-0.1,1.7-0.1
								c2,0.1-0.8,0.2-0.2,0.2l0.8,0l-0.2,0c0.7-0.1,0.7-0.2,1.9-0.1c0.8,0,0.4,0.1,0.7,0.1c0,0,0.1,0,0.5,0l1.8,0L54,7.6
								c0.8-0.1,1.7,0,0.9-0.2c0.3,0.1,0.8,0.1,1.4,0.1c0.5,0,1.1,0,1.7,0c0,0.7,0,1.5,0,2.1c0,0.7,0,1.3,0,1.5
								c0.1,0.8,0.1,1.6,0.1,2.4c0.1-0.1,0.2-0.2,0.3-0.3l0,0l-0.3,0l0,0.3c0,0.3-0.1,0.7-0.2,1.1c0.1-0.3,0.3-0.5,0,0.7
								c-0.2-0.5-0.7,2-1.2,2.9c0.4-0.8-0.9,3.2-0.3,2c-0.3,0.9-0.1,0-0.4,0.7c-0.5,2.3-1.5,4.9-2.2,7.7c0,0.1,0.2-0.4,0.1,0.2
								l-0.6,1.4c-0.1,0.6,0.1,0.6-0.3,1.5c0.1-0.1,0.2-0.3,0.1,0l-0.6,2l-0.4,1.3c-0.1,0.4-0.6,1.2,0.2,1c1.6-0.1,3.2-0.3,4.8-0.4
								c0.7-0.1,1.4-0.1,2.2-0.2c0.7-0.1,1.5-0.2,2.2-0.3c1.4-0.2,2.9-0.6,4.3-1c-0.8,0.2-0.3,0,0.3-0.2c-0.4,0.1,0-0.1-0.1-0.1
								c0,0,0.6-0.2,1.1-0.4c0.3-0.1,0.6-0.3,0.8-0.4c0.2-0.1,0.3-0.2,0.3-0.2c0.1-0.2,0.7-0.6,1.2-1c0.5-0.4,0.9-1,0.9-1.1
								c0,0-0.5,0.6-0.5,0.6c0.3-0.5,0-0.2-0.4,0c-0.4,0.2-0.9,0.5-0.9,0.4c-0.8,0.9-2.6,1.3-4.2,2.1c-0.4,0.1,0.3-0.2,0.1-0.2
								c-0.4,0.3-0.9,0.4-2,0.6l0.1,0c-1.4,0.3-2.5,0.5-3.5,0.6c-1.1,0.1-2.2,0.1-3.9,0.2L55,35c-0.7,0-0.9,0-1.2,0
								c-0.8,0.2,2-0.1,1.3,0.1c-0.2,0-0.7,0-1.2,0c-0.2,0-0.4,0-0.6,0l-0.3,0l-0.1,0c0,0-0.1,0-0.1,0c0.1-0.4,0.2-0.8,0.3-1.1
								c0.2-0.5,0.3-0.8,0.4-1c0.3-1.1-0.2,0.3,0.1-0.8l0.2-0.3l0-0.3c0.2-0.7,0.4-1,0.5-1c-0.1,0.2-0.1,0.5-0.2,0.7
								c0.3-0.9,0.7-2.5,0.8-2.8l-0.3,1c0.7-2.9,1.8-6.4,2.5-9.2l-0.1,0.2c0.5-2.2,0.5-1.7,1.2-4l0,0.1c0.1-0.5,0.2-1.1,0.4-1.8
								c-0.1,0.3,0.1,0,0.2-0.2c0.1-0.3,0.2-0.5,0.1-0.1c0.1-0.4,0.1-0.7,0.1-0.9c-0.2,0.2-0.4,0.4-0.4,0.5l0,0l0.5-0.1l0-0.4
								c-0.1-1.3-0.1-0.6-0.3-1.9l0.1-0.4c-0.1-0.5-0.1-0.6-0.2-1.8c0.1,1,0.1-0.8,0.2,0.3c0-0.5,0.1-1,0.1-1.5c0-0.3,0-0.6,0-0.8
								c0-0.3,0-0.6,0-0.8c-0.6,0-1.2,0-1.7,0c-0.4,0-0.7,0-1-0.1c-1.2,0.3,2.2,0.1,1.6,0.2c0.4,0,0,0.1-0.4,0.1c-0.4,0-1,0.1-1.4,0
								c-0.8,0-1.4-0.3-3.4-0.3c0.2,0,0.2,0,0.4,0c-0.8-0.1-1.5,0.1-2.4,0c-0.5,0.2-1.2,0-1.4,0.2l1.9,0C49.8,6.9,48.8,7.1,47,7
								c0.1,0,0.7-0.1,1-0.1c-0.5-0.1-1,0-1.5,0c0.2-0.2,2.3,0,3.4-0.2c-0.5-0.1-2.2,0.1-1.6-0.1c-0.8,0.3-2,0-3.4,0.2L45,6.7
								c-0.2,0-0.7,0.1-1.1,0.1l0.7-0.2c-1.1,0.1-2.2-0.1-3.2,0c2.3,0,0.5,0.1,1.5,0.2c-2.8,0.2-1.6-0.3-4.7-0.3
								c0.4,0,1.6,0.1,0.9,0.1c-0.6,0-1.4-0.1-1.7-0.1c-2.1,0,0.3,0.1-0.6,0.2c-0.7-0.1-1,0.1-1.9,0.1l0-0.1
								c-2.3-0.1-0.6,0.3-2.7,0.2l0.9-0.2l-1.1,0l0.2-0.1c-1.2,0.1-1.6,0.1-2.7,0c0.3,0.1-0.2,0.2-1.2,0.2c-0.7-0.1,0.4-0.1-1.1-0.1
								c0.3-0.1,0.7-0.2,1.3-0.1c0.1,0,0.3-0.1,0.4-0.1c-0.8-0.1-1.9,0-2.5,0c0.2,0,0.5,0,0.6,0l-2.1,0.2c-0.3,0-0.1-0.1,0.2-0.1
								c-0.4,0-0.7,0.1-1.4,0.1c0.2-0.1,0.1-0.2,1-0.2l-2,0.1c-0.1,0-1-0.1-0.8-0.2c-0.6,0-1.3,0-2,0.1c-0.4,0-0.8,0-1.1,0.1l-0.6,0
								l-0.7,0c-0.1,0-0.4,0-0.9,0.1c-0.2,0-0.3,0-0.5,0c0,0.9-0.1,1.7-0.1,2.6c0,0.7,0,1.3,0,2.1L16,12.2c0,1.3,0.2-1.3,0.3,0.9
								c0,0.1,0,0.2,0,0.3l0,0.4l0.4,0.1l0,0c-0.1-0.2-0.3-0.4-0.4-0.5c0.1,1.2-0.2,0.4-0.1,0.9c0.1,0.2,0.1,0.5,0.2,0.7
								c0.1,0.2,0.2,0.5,0.3,0.8c0.2,0.6,0.4,1.2,0.5,1.9C17,17.3,16.9,16.9,16.8,16.5z M21.3,32c-0.1-0.3-0.4-0.9-0.3-1.1
								C21.1,31.2,21.1,31.5,21.3,32z M5.4,29.9c0-0.3,0-0.6,0-0.9c0.1,0.1,0.2,0.1,0.3,0.2c-0.1-0.1-0.2-0.1-0.3-0.2
								C5.4,29.3,5.4,29.6,5.4,29.9z M43.6,71.8L43.6,71.8C43.2,72.4,43.3,72.2,43.6,71.8z M44.5,70.7
								C44.6,70.5,44.6,70.5,44.5,70.7c0,0-0.2,0.3-0.4,0.6C44.2,71.2,44.3,71,44.5,70.7z M52.6,7.7l-0.3,0
								C52.9,7.6,52.8,7.7,52.6,7.7z"/>
							<path d="M7.6,30.2c0.1,0.1,0.1,0.1,0.1,0.1C7.8,30.3,7.8,30.3,7.6,30.2z"/>
							<path d="M17.5,6.5L17.5,6.5c0.1,0,0.2,0,0.2,0L17.5,6.5z"/>
							<path d="M29.4,69.8c-0.2-0.2-0.2-0.4-0.3-0.5C29.1,69.3,29.1,69.4,29.4,69.8z"/>
							<path d="M48.9,64.4l-0.5,0.8c0.3-0.4,0.4-0.5,0.5-0.6C48.9,64.5,48.7,64.6,48.9,64.4z"/>
							<path d="M54.2,58.3c0.1-0.1,0.2-0.2,0.2-0.3l-0.1,0C54.1,58.5,53.9,58.8,54.2,58.3z"/>
							<path d="M49.7,63.9c0.1,0,0.4-0.5,0.8-1L50.5,63C50.5,62.8,50.1,63.3,49.7,63.9z"/>
							<path d="M50.6,62.8c0.1-0.2,0.2-0.3,0.4-0.5C51,62.2,50.8,62.5,50.6,62.8z"/>
							<path d="M45.6,69.1c0.2-0.2,0-0.2,0.1-0.3C45.8,68.4,44.6,70.5,45.6,69.1z"/>
							<polygon points="50.3,63.7 50.1,63.8 49.9,64.2 							"/>
							<path d="M47.2,67.8l0.6-0.8c0,0,0-0.1,0.1-0.2C47.6,67.2,47.2,67.8,47.2,67.8z"/>
							<path d="M48,66.7c0.2-0.3,0.4-0.5,0.5-0.7C48.3,66.2,48.1,66.5,48,66.7z"/>
							<polygon points="49.5,64.9 49.3,65.1 48.8,65.7 							"/>
							<path d="M40.6,76.7c0,0-0.8,0.7-0.8,0.7c-0.1,0.1,0.2,0,0.5-0.3C40.4,76.9,40.7,76.6,40.6,76.7z"/>
							<path d="M42.9,74.2c-0.2,0.2-0.2,0.2-0.4,0.3l0.1,0.1L42.9,74.2z"/>
							<path d="M40.9,76.8c0,0.1-1.3,1.2-0.1,0.2C40.9,77,41.7,76,40.9,76.8z"/>
							<polygon points="28.7,68.1 28.9,68.4 29.1,68.2 							"/>
							<path d="M19.3,56.4c0.7,1.1,0.3,0.2,1,1.2c0.2,0.2-0.5-0.8-0.3-0.6C19.5,56.4,19.3,56,19.3,56.4z"/>
							<path d="M20,57c0.1,0.1,0.2,0.2,0.3,0.3C20.1,57.1,20.1,57,20,57z"/>
							<path d="M69.3,31.8c0,0,0.7-0.6,0.7-0.7c0,0-0.5,0.4-0.5,0.4S69.4,31.8,69.3,31.8z"/>
							<path d="M70.3,30.3l0.3-0.1c0,0,0.1-0.6,0.1-0.6C70.6,29.8,70.4,30.2,70.3,30.3z"/>
							<path d="M21.6,34.4L21.6,34.4c0.1-0.1,0-0.3-0.1-0.7L21.6,34.4z"/>
							<polygon points="18.5,23.1 18.6,23.3 18.6,22.9 							"/>
							<path d="M15.8,13.4c0,0.5,0.1,1,0.2,1.5C15.8,13.9,16,13.3,15.8,13.4z"/>
						</g>
					</g>
				</g>
			</g>
		</g>
		<path fill="#F7A934" d="M34.6,70.1c1.8,2.4,4.7,2.4,6.5,0l28.1-38.3c1.8-2.4,1-3.5-1.9-2.4l-11.9,4.7c-2.8,1.1-4.5-0.4-3.6-3.3
			l6.2-22.2c0.8-2.9-1-5.3-4-5.3H21c-3,0-4.8,2.4-4,5.3l6.2,22.1c0.8,2.9-0.8,4.4-3.6,3.3L8.3,29.4c-2.8-1.1-3.6-0.1-1.9,2.4
			L34.6,70.1z"/>
		<g>
			<g>
				<g>
					<g>
						<g>
							<path d="M34.9,69.5c0.2,0.3,0.2,0.1,0.3,0.2C34.8,69.2,34.9,69.6,34.9,69.5z"/>
							<polygon points="31.2,64.9 31.3,64.9 30.7,64.3 							"/>
							<path d="M27.9,60.3c0.2,0.5,1.2,1.6,1.8,2.5l0.1,0.2l0.4,0.3C29.4,62.3,28.4,61.1,27.9,60.3z"/>
							<path d="M26.4,57.7c0.1,0.2-0.4-0.5,0.4,0.6c0-0.1,0-0.1-0.1-0.1C26.7,58.1,26.6,57.9,26.4,57.7z"/>
							<path d="M26.8,58.2C27.1,58.6,26.6,57.8,26.8,58.2L26.8,58.2z"/>
							<path d="M25.1,56l0.5,0.6c-0.1-0.2-0.5-0.7-0.3-0.5C24.9,55.4,24.9,55.6,25.1,56z"/>
							<path d="M24.6,55.5l0.3,0.3C24.8,55.7,24.8,55.6,24.6,55.5z"/>
							<path d="M25.4,56.4l-0.5-0.7c0,0.1,0,0.2,0.2,0.3C25,56.1,25.2,56.2,25.4,56.4z"/>
							<path d="M25.7,56.8c0.2,0.4,0.5,0.8,0,0.3C26.6,58.3,26.6,58,25.7,56.8z"/>
							<path d="M27.6,60.2l0.3,0.5l0.3,0.4C28.1,60.9,27.6,60.2,27.6,60.2z"/>
							<path d="M22.3,52c-0.1,0,0.1,0.3,0.1,0.3l0.4,0.4C22.6,52.6,22.3,52.1,22.3,52z"/>
							<path d="M22.4,52.4l-0.6-0.7C22.3,52.4,22.4,52.5,22.4,52.4z"/>
							<polygon points="24.4,55.5 25.3,56.5 24.2,55.3 							"/>
							<polygon points="20.4,49.4 20.8,49.7 20.1,49.1 							"/>
							<path d="M19.1,47.7c0.3,0.2-0.2-0.5,0.1-0.2c-0.4-0.5-0.7-0.8-1-1.2C18.5,46.7,18.8,47.1,19.1,47.7z"/>
							<path d="M17.6,45.7c0.2,0.2,0.3,0.4,0.5,0.6C18,46.1,17.8,45.9,17.6,45.7z"/>
							<path d="M21,50.5c0-0.1,0-0.2-0.3-0.6l0.1,0.3C20.9,50.4,20.9,50.5,21,50.5z"/>
							<path d="M20.8,50.3L20.8,50.3c-0.2-0.3-0.4-0.5-0.4-0.6C20.4,49.8,20.6,49.9,20.8,50.3z"/>
							<path d="M21.1,50.6C21,50.6,21,50.6,21.1,50.6C21,50.6,21,50.6,21.1,50.6z"/>
							<path d="M23.1,53.6c-0.3-0.4-1-1.2-0.5-0.3C22.9,53.6,22.6,53.1,23.1,53.6z"/>
							<path d="M21.2,51l0.5,0.7c0,0-0.1-0.2,0.1,0L21.2,51z"/>
							<polygon points="20.9,50.7 21.2,51 21,50.8 							"/>
							<path d="M18.5,47c-0.3-0.3-0.5-0.6-0.8-1c0.3,0.4,0.6,0.9,0.9,1.3C18.6,47.3,18.8,47.5,18.5,47z"/>
							<path d="M19.6,48.6C19.6,48.6,19.6,48.6,19.6,48.6C19.6,48.6,19.6,48.6,19.6,48.6z"/>
							<polygon points="14.8,42.2 14.9,42.2 14.9,42.2 							"/>
							<path d="M18.6,47.4c0.2,0.3,0.4,0.5,0.5,0.7C19,47.8,18.8,47.6,18.6,47.4C18.5,47.3,18.5,47.3,18.6,47.4z"/>
							<path d="M16.8,44.7c0.1,0.2,0.2,0.4,0.4,0.6C17.1,45.1,16.9,44.7,16.8,44.7z"/>
							<path d="M19.5,48.4L19.5,48.4C19.5,48.4,19.5,48.4,19.5,48.4z"/>
							<path d="M19.5,48.4c-0.1-0.2-0.2-0.3-0.4-0.4c0.1,0.2,0.3,0.4,0.4,0.5C19.5,48.5,19.5,48.5,19.5,48.4z"/>
							<path d="M13.4,41.4c0.1,0,0.8,0.8,1.2,1.6c0.6,0.7,0.5,0,0.2-0.7c-0.1,0-0.1,0-0.7-0.7c0.1,0.3,1.1,1.7,0.6,1.1
								c-0.7-0.9-0.6-0.8-0.9-1.3c0.2,0.5-1-1.1-1-0.8l0.7,0.8C13.5,41.4,13.3,41.1,13.4,41.4z"/>
							<path d="M15.9,43.6l0.2,0.3c-0.2-0.4-0.4-0.6-0.7-1.1c-0.4-0.5-0.5-0.5-0.6-0.6L15.9,43.6L15.9,43.6z"/>
							<path d="M17.1,45.3c-0.3-0.2-0.8-0.9-0.6-0.4c0.6,0.9,0.5,0.6,0.9,1.1C16.4,44.6,17.8,46.3,17.1,45.3
								c0.2,0.3,0.4,0.5,0.6,0.8C17.5,45.8,17.3,45.5,17.1,45.3c0.1,0,0.1,0,0.1,0l0,0l0,0c0,0.1,0,0.1,0,0
								C17.2,45.3,17.2,45.3,17.1,45.3C17.1,45.3,17.1,45.3,17.1,45.3C16.8,44.8,17.1,45.2,17.1,45.3c0.1,0,0.1,0,0.1,0l0,0
								l-1.1-1.4C16.3,44.2,16.6,44.6,17.1,45.3z"/>
							<path d="M21.9,52.7C21.8,52.6,21.8,52.6,21.9,52.7C21.8,52.5,21.7,52.5,21.9,52.7z"/>
							<path d="M21.5,52.1c0.1,0.1,0.2,0.2,0.4,0.5c0.2,0.3,0,0-0.1,0.1c0.2,0.2,0.6,0.7,0.2,0l-0.1-0.1c-0.4-0.6-0.8-1.4-0.7-1.3
								C21.2,51.4,21.3,51.6,21.5,52.1z"/>
							<path d="M19.2,48.6l-0.9-1.1l0.4,0.7l0-0.1C19.2,48.8,19.1,48.6,19.2,48.6z"/>
							<polygon points="14.8,42 15,42.1 14.3,41.5 							"/>
							<polygon points="13.6,40.5 13.8,40.5 13.4,40.1 							"/>
							<path d="M58.3,10.3l-0.1,0.4C58.3,10.5,58.3,10.4,58.3,10.3z"/>
							<path d="M58.8,6.9L58.8,6.9C58.8,7,58.8,7.1,58.8,6.9z"/>
							<path d="M20.6,19.8c-0.1-0.6-0.1-1.3-0.2-1.2l-0.1,0.2C20.5,19.2,20.6,19.6,20.6,19.8z"/>
							<path d="M34,4.2c-0.1,0-0.1,0-0.2,0c-0.2,0-0.3,0.1-0.4,0.1C33.6,4.2,33.8,4.2,34,4.2z"/>
							<path d="M34.5,3.7l0.8,0.1C35.1,3.8,34.8,3.7,34.5,3.7z"/>
							<path d="M53.8,26.7l0,0.5C53.9,26.4,53.8,26.7,53.8,26.7z"/>
							<path d="M10.6,31c0.5,0.2,0.9,0.4,1.2,0.6C11.3,31.3,10.8,31,10.6,31z"/>
							<path d="M57.5,8.8c0,0.2-0.1,0.4,0,0.4C57.6,8.9,57.6,8.7,57.5,8.8z"/>
							<path d="M13.3,32.2c-0.1,0-0.2-0.1-0.3-0.1c-0.4-0.1-0.7-0.3-1.2-0.5C12.3,31.8,12.8,32.1,13.3,32.2z"/>
							<path d="M50.8,58c0,0-0.1,0.1-0.1,0.1C50.7,58.2,50.7,58.1,50.8,58z"/>
							<path d="M39,71.3c0.1-0.1,0.4-0.2,0.6-0.3C39.5,71,39.3,71.1,39,71.3z"/>
							<path d="M9.1,34.3C9.4,34.6,9.2,34.3,9.1,34.3L9.1,34.3z"/>
							<path d="M10,36.1C9.9,36,9.8,36,9.8,36C9.9,36,9.9,36.1,10,36.1z"/>
							<path d="M17.3,33.1C17.3,33.1,17.3,33.1,17.3,33.1C17.2,33,17.2,33.1,17.3,33.1z"/>
							<path d="M9.5,34.8c-0.1-0.1-0.2-0.3-0.3-0.4C9.2,34.4,9.3,34.6,9.5,34.8z"/>
							<path d="M9.4,34.7c0.1,0.1,0.1,0.2,0.2,0.3C9.7,35,9.7,35,9.4,34.7z"/>
							<path d="M8.8,33.8c0.1,0.2,0.3,0.4,0.4,0.5c0-0.1-0.1-0.1,0-0.1C9.1,34.2,9,34,8.8,33.8z"/>
							<path d="M70.1,31.2C70.1,31.2,70,31.2,70.1,31.2C69.8,31.6,69.9,31.4,70.1,31.2z"/>
							<path d="M16.7,10C16.7,10.1,16.7,10.1,16.7,10C16.7,10.1,16.7,10,16.7,10L16.7,10z"/>
							<path d="M16.2,8.6c0.3,0.7,0.4,1,0.5,1.4l0.2-0.5c0,0-0.2-0.2-0.3-0.4C16.4,8.8,16.2,8.6,16.2,8.6z"/>
							<path d="M56.3,17.4l0.4-1c-0.2,1.2-0.5,2.1-0.1,1.2c-0.3-0.2,1.1-3.8,0.8-4l0.3-0.6c0,0.2-0.1,0.2-0.1,0.4
								c0.5-1.2,0-1,0.5-2.6c0.2-0.6,0.3-0.9,0.3-0.5c0,0,0.1-0.3,0.1-0.6c0-0.2,0.1-0.3,0.1-0.4c0-0.1,0-0.2,0-0.2
								c0.1-0.4,0.1-0.3,0,0.1c0,0,0.1-0.5,0.2-1.1c0-0.3,0-0.6,0-0.8c0-0.2-0.1-0.4-0.1-0.4l0,0c-0.1-0.3-0.5-1-0.7-1.2
								c-0.3-0.5,0.2,0.2,0.1,0.1c0,0-0.2-0.3-0.4-0.5c-0.1-0.1-0.2-0.2-0.3-0.3c-0.1-0.1-0.2-0.1-0.2-0.1c-0.4-0.4,0.6,0.1,1,1
								c-0.2-0.6-0.4-0.8-0.8-1.1c-0.4-0.2-0.9-0.6-2.1-1c0,0,1.1,0.3,1.1,0.3C56,3.5,55,3.3,53.7,3.3c0.1,0,0.8,0.1,1.2,0.2
								c0.4,0.1,0.7,0.3,0,0.2c-0.4-0.1-0.9-0.1-1.5,0c0-0.1-0.6-0.1-1.4-0.1l0.1-0.2c-0.9,0-0.8,0.1-1.3,0.2c-1,0-1.1-0.1-1.4-0.2
								c-1.5,0,1.1,0.2-0.8,0.2c-1.3-0.1-2.2,0-3.7,0.1c-0.9-0.1,0.2-0.1-0.2-0.1l-0.8,0.1c-0.2,0-0.1,0-0.1-0.1
								c-0.7,0-0.1,0.2-1.1,0.2c-0.3,0.2-2.1-0.3-3.4-0.1c-0.3,0,0.2-0.1,0.1-0.2c-1.8,0.1-1.5,0.1-3,0.3l-1.2-0.1
								C36.2,3.9,35,4,34,4.2c0.3,0.1,0.6,0.1,0.8,0.1l-1.6,0.1c-0.2,0,0-0.1,0.2-0.1c-0.1,0-0.2,0-0.3,0c-0.6-0.1-0.3-0.2,0.1-0.2
								c0.2,0,0.4,0.1,0.6,0.1c0.4-0.1,0.8-0.2,0.7-0.3c-0.1,0-0.3,0-0.5,0c0.1,0,0.2-0.1,0.1-0.1c-0.1,0-0.2,0-0.5,0.1l-0.4-0.2
								l-0.1,0.1l-2.1-0.1c-1.5,0.2-2.8,0.4-5.2,0.5C26.4,4,25.9,4,26,3.8c0.7,0.2,1.9-0.1,3.1,0c-0.7,0-0.5-0.1-0.3-0.1l-2.2,0.1
								c0-0.1-0.5-0.1-1.1-0.1c0.4,0.3-1.7,0.2-2.6,0.2c-0.1-0.1,0.2-0.2,1.3-0.1c-1.2-0.2-1.6,0.3-2.8,0.1c0.3,0,0.4,0,0.5,0
								c-0.3,0-0.8,0-1.3,0c-0.4,0-0.8,0-0.6,0l0.3,0c-0.5,0-1.1,0.1-1.7,0.4c-0.6,0.3-1.2,0.7-1.6,1.2c-0.8,1.1-0.6,2.3-0.5,2.4
								c0,0-0.3-0.2-0.3-0.4c0,0,0,0.2,0.1,0.6c0.1,0.3,0.3,0.7,0.4,1.1c0.4,0.7,0.8,1.4,0.8,1.4c-0.3-0.2-0.4,0.9-0.9-0.5
								c0.1,0.4,0.2,0.9,0.5,1.8c-0.1-0.3,0.1-0.8,0.2-0.4c0.1,1.1,0.1,0.8,0.3,2.1c-0.1-0.4,0.3,0,0.5,0.6
								c-0.1-0.1-0.3,0.1-0.4-0.1l0.7,1.6c-0.2-0.4-0.3,0-0.2,0.4c0-0.2,0.4,1.4,0.6,1.9l-0.1-0.7c0.5,1.9,0.9,1.7,1.4,3.6
								c-0.1-0.2-0.5-0.5-0.3,0.5c0.3,0.4,1.2,1.7,1.8,3.3l0,0.3l0.4,1.2c-0.4-0.7-1.5-2.8-2-3.9c0.1,0.7,0,0.2,0.3,1.3
								c0,0.4-0.3-0.5-0.4-0.8l0.6,2.4c0.1-0.2,0.7,1.8,0.8,1.7l-0.9-2.6c0.1-0.2,0.9,1.4,1.4,3.1c0.1,0.5-0.4-0.2-0.4-0.2
								c0.1,0.2,0.6,1.6,0.6,1.8l-0.3-0.7c0.2,1,0.7,1.5,0.8,2.7c0.1,0.4,0,1.1,0.1,1.2c0.1-0.6,0.7-0.9,0.9-0.4
								c0,0.1,0.1,0.7-0.1,1.3c-0.2,0.6-0.7,1.1-0.9,1.2c-0.3,0.1-0.1-0.1,0-0.3c0.1-0.2,0.2-0.4,0-0.3c0,0-0.1,0.3-0.3,0.4
								c-0.2,0.1-0.2,0-0.2,0c0,0-0.1,0-0.5,0.1c-0.1,0.3-1.7-0.1-0.4,0.2c-0.4,0-0.7,0-0.9-0.1c-0.2-0.1-0.5-0.2-1-0.4
								c0.3,0.2-1,0-1.9-0.3c0.1,0-0.1-0.2-0.2-0.2c-1.7-0.7-2.7-1.2-4.3-1.8c-0.1-0.1-0.9-0.5-0.5-0.4c-0.2-0.1-0.5-0.1-1-0.3
								c-0.9-0.5,1.1,0.4,0.5,0c-0.1,0.1-1.4-0.4-2.1-0.6c0.2,0.2,1.6,0.7,2.4,0.9c-0.1,0.2-1.4-0.1-3.2-0.7
								c-1.4-0.5-0.5-0.4-0.8-0.4c-1.3-0.5-1.9-0.4-2.1-0.2C6,29.5,6,29.7,6,29.9C6,30,6,30,6.1,30.2c0.1,0.2,0.1,0.4,0.2,0.6
								c0.3,0.8-0.2,0.2-0.2,0.4c-0.3-0.5-0.5-0.9-0.5-1.3c0-0.2,0-0.4,0.2-0.5c0.1-0.1,0.3-0.2,0.4-0.2c0,0-0.2,0-0.4,0.2
								c-0.2,0.1-0.2,0.4-0.2,0.4c0-0.2,0.1-0.5,0.4-0.6C6.3,29,6.6,29,6.8,29.1C6.7,29,6.6,29,6.4,29c-0.2,0-0.4,0-0.6,0.2
								c-0.2,0.2-0.3,0.5-0.2,0.8c0.1,0.3,0.2,0.6,0.3,0.9c0.3,0.6,0.8,1.2,1.1,1.7c0.4,0.5,0.8,1.1,1.1,1.5
								c0.3,0.3,0.7,0.8,0.5,0.5l-0.4-0.5c-0.3-0.6,0.9,0.9,0.4,0.2c0.6,0.7,1.3,1.4,2,2.5l0,0.3c0,0-0.4-0.7-0.7-1
								c0.4,0.4,1,1.7,1.5,2L11,37.4c0.6,0.7,1.4,1.5,2,2.4c-0.2-0.5-0.2-0.2-0.5-0.9c0.2,0.7-1.7-2.3-1.2-1.3
								c-0.3-0.8-0.8-1.2-1.3-2.2c0,0.1,0.1,0.4-0.4-0.4c0,0-0.1-0.1-0.2-0.1c0,0,0,0,0-0.1l0,0c0,0,0,0,0,0
								c0.1,0.2,0.2,0.4,0.2,0.4c-0.4-0.3-1.3-1.5-1.6-1.9c-0.3-0.5,0.2,0.2,0-0.1l-0.5-0.6c0-0.1-0.7-1.3,0.1-0.3l-0.7-1
								c-0.2-0.3-0.4-0.6-0.5-0.9c-0.1-0.2-0.1-0.3-0.2-0.4c0-0.1,0-0.1-0.1-0.2c0-0.2,0.2-0.4,0.1-0.2c0,0,0,0,0.1,0
								c0,0,0.1,0,0.1,0c0.1,0,0.2,0,0.3,0c0.4,0,0.8,0.2,0.8,0.2l0,0c1.6,0.6,3.6,1.2,5.4,2.2c0.6,0.2,1.2,0.4,2.1,0.8l0.2,0.2
								c0.7,0.3,2.2,1,2.5,1c0.4,0.3,1.1,0.7,2.3,1c0.6,0.1,1.3,0.2,1.9,0c0.7-0.2,1.2-0.6,1.5-1l-0.1-0.1c0.7-1.2,0.4-2.4,0-3.5
								l-0.1,0.1c-0.4-1-0.6-2.6-1.1-4.1c0.1,0.1,0.2,0.5,0.2,0.8c-0.3-1.9-1.3-3.9-1.6-5.6c-0.2-0.4-0.2-0.7-0.3-1c0,0,0,0.1,0,0.1
								c0,0,0-0.1,0-0.2c0-0.2-0.1-0.4-0.1-0.6c0,0.2,0.1,0.4,0.1,0.5c-0.1-0.3-0.2-0.8-0.4-1.3l0.1-0.2c0,0,0-0.1,0-0.1
								c-0.1-0.5-0.2-0.4-0.2-0.1c-0.1-0.2-0.2-0.5-0.3-0.6c0.1-0.4-0.4-1.3-0.4-1.8c-0.2-0.3-0.8-2.4-1-2.6c0,0,0-0.2,0.1,0.1
								c-0.1-0.5-0.3-1.1-0.5-1.6l0.1-0.3l-0.5-1.1c-0.1-0.7-0.1-1.1,0.2-0.4c-0.3-0.8-0.5-1.2-0.5-1.5c-0.1-0.3-0.2-0.6-0.3-1.3
								l0.1,0.1c0-0.5,0.1-1.3,0.4-1.5c0.2-0.2,0.5-0.6,1-0.9c0.5-0.3,1.2-0.6,2-0.6c1.7,0,3.7,0,5.3,0.1c-0.6-0.3,1.5,0.1,1.6-0.1
								c0.2,0.1,0.6,0.1,0.1,0.2c1.6-0.1,2.4,0.1,3.5-0.1c0.2,0.1-0.3,0.1-0.2,0.1c0.1,0,0.5-0.1,0.7,0c0.2,0-0.2,0.1-0.5,0.1
								c1.6,0,1.8-0.2,1.9-0.4c0.8,0.1,1.2,0.1,1.8,0c0.3,0.1,0.8,0.1-0.2,0.2c0.6,0,3.5,0.1,3.5-0.1c0.2,0,0.8,0,0.9,0
								c1.3,0,1.4,0,2.6,0l-0.3,0c0.5-0.2,1,0,2.1-0.1l0,0c2.3,0.1,1-0.1,3.3,0.1l-0.1-0.1c0.2-0.3,2,0.2,3.4,0.1l-0.5-0.1
								c0.7-0.1,2,0.4,2.8,0.4c0.2,0-0.3,0-0.5,0.1c1.9,0.2,0.2-0.2,1.7-0.2c0.3,0.1-0.3,0.2,0.6,0.2c0.3,0,0.9,0,1.6,0.1
								c0.7,0.1,1.4,0.5,1.7,1c-0.1-0.2-0.2-0.5,0.2-0.1c0.3,0.3,0.5,0.9,0.5,1.5c0,0.6-0.1,1.2-0.1,1.6c-0.1,0.1-0.1,0.2-0.1,0.2
								c-0.2,0.8-0.6,2.4-0.6,2.9c-0.6,0.6-1.1,4.7-1.5,4.6l-0.6,2.3l0-0.1c-0.4,1.5-0.5,2-0.6,2.5c-0.1,0.3-0.1,0.1-0.1,0
								c-0.7,2.1-0.7,2.3-1.1,4.2l-0.2,0.2c-0.1,0.5-1.1,3-1.5,5.2c0,0,0-0.1,0-0.3c-0.1,0.6-0.3,1.4-0.2,2.2
								c0.1,0.4,0.2,0.8,0.4,1.2c0.3,0.4,0.6,0.6,1,0.8c0.8,0.3,1.5,0.3,2,0.1c0.5-0.1,0.9-0.3,1.1-0.5l1.5-0.7
								c-2,0.7,0.2-0.3-0.6-0.1c0.8-0.3,2-0.7,1.1-0.3l-0.2,0c-0.3,0.4,2.4-0.9,2.5-0.7c1.9-0.8,3.8-1.5,5.7-2.2
								c0.9-0.3,1.9-0.7,2.7-1c0.4-0.1,0.9-0.2,1.1-0.1c0.2,0.1,0.3,0.3,0.2,0.6c0,0,0.2-0.2,0.2-0.2c0,0,0,0.2-0.1,0.5
								c-0.1,0.3-0.3,0.6-0.3,0.6c-0.2,0.3-0.3,0.3,0.1-0.5c-0.2,0.4-0.7,1.3-0.7,1.4c-1.2,1.5,0.3-0.7-0.1-0.3l-0.5,0.6l0.1-0.1
								c-0.3,0.6-0.3,0.6-1,1.6c-0.5,0.6-0.3,0.2-0.5,0.5c0,0-0.1,0.1-0.3,0.4l-1,1.4l0.5-0.5c-0.4,0.6-0.9,1.3-0.4,0.7
								c-0.9,0.8-3.8,5-4.3,5.6c-0.5,0.9-1.2,1.7-1.9,2.8c0.2-0.2,0.5-0.3-0.2,0.6c0-0.5-1.3,1.6-2,2.1c0.6-0.6-1.8,2.6-0.9,1.7
								c-0.6,0.7-0.1,0-0.6,0.5c-1.2,1.9-2.9,3.9-4.5,6.1c0,0.1,0.3-0.3,0,0.2l-1,1c-0.3,0.4-0.1,0.5-0.8,1.3
								c0.1-0.1,0.3-0.2,0.1,0.1c-1.7,2.1-3.2,4.3-4.8,6.5c-0.8,1.1-1.6,2.2-2.4,3.3c-0.4,0.5-0.8,1.1-1.3,1.6
								c-0.4,0.6-0.8,1-1.3,1.3c0.6-0.3,0.2,0-0.2,0.2c0.3-0.2,0.1,0.1,0.1,0.1c0,0-0.5,0.3-1,0.4c-0.2,0.1-0.5,0.1-0.7,0.1
								c-0.2,0-0.3,0-0.3,0c-0.2,0.1-0.7,0-1.2-0.2c-0.5-0.2-0.9-0.6-1-0.6c0,0,0.5,0.4,0.5,0.4c-0.4-0.2-0.2,0.1,0.1,0.4
								c0.3,0.3,0.8,0.6,0.7,0.7c0.6,0,1.3,0.2,2.2-0.1c0.8-0.2,1.7-0.8,2.2-1.6c0.3-0.3-0.2,0.3,0,0.2c0.2-0.4,0.5-0.9,1.1-1.6
								l0,0.1c1.6-2.3,2.4-3.2,4.3-5.7l-0.2,0.1c0.4-0.5,0.5-0.6,0.7-0.9c0.3-0.7-1.1,1.5-0.9,0.8c0.7-0.6,2.8-3.8,3.4-4.2
								c0.6-0.8-0.3,0.2,0.3-0.7l0.2-0.2l0.1-0.3c0.4-0.5,0.7-0.8,0.8-0.7c-0.1,0.1-0.3,0.4-0.4,0.5c0.6-0.7,1.4-2,1.7-2.3l-0.6,0.8
								c1.6-2.3,3.7-5.1,5.2-7.4l-0.2,0.1c1.2-1.7,1-1.3,2.4-3.2l0,0.1c0.2-0.4,0.6-0.9,0.9-1.4c-0.3,0.5,0.7-0.8,0.4-0.1
								c1.3-1.9,0.6-1,1.3-2.3l0.3-0.2c0.2-0.5,0.2-0.5,0.9-1.5c-0.5,0.8,0.5-0.5,0,0.4c1.6-1.8,1.9-3,2.8-3.7c0.4-1-1.3,1.6-1,1.1
								c-0.4,0.4,0.4-0.8,0.9-1.4c0.5-0.6,1-0.9,2.2-2.4c-0.1,0.2-0.1,0.2-0.2,0.3c0.5-0.5,0.8-1.2,1.4-1.8c0.2-0.5,0.7-0.9,0.6-1.2
								l-1,1.5c0.3-0.4,0.5-0.9,0.8-1.3c0.3-0.5,0.7-1,1-1.9c0,0.2-0.1,0.7-0.3,1c0.1-0.2,0.3-0.4,0.3-0.7c0.1-0.2,0.1-0.6,0.1-0.9
								c0.1,0,0.1,0.3,0.1,0.6c0,0.3-0.2,0.6-0.3,1c-0.3,0.6-0.8,1.3-1.1,1.7c0.2-0.2,0.5-0.6,0.7-1c0.2-0.3,0.3-0.6,0.3-0.3
								c0.1-0.2,0.1-0.4,0.2-0.7c0.1-0.2,0.2-0.5,0.3-0.9c0.1-0.4,0-0.9-0.3-1.2c-0.3-0.3-0.9-0.4-1.3-0.3c0,0,0.1-0.1,0.1-0.1
								c-0.3,0-0.7,0.1-1.1,0.3c0,0,0.7-0.3,0.7-0.3c-0.6,0.1-1.1,0.3-1.6,0.5c-0.5,0.2-1,0.3-1.4,0.5c2-0.8,0.5,0,1.4-0.3
								c-2.4,1.1-1.5,0.3-4.2,1.4c0.4-0.2,1.4-0.5,0.9-0.2c-0.5,0.2-1.2,0.4-1.6,0.5c-1.8,0.7,0.3,0-0.4,0.4
								c-0.7,0.1-0.9,0.4-1.6,0.8l0-0.1c-2.1,0.7-0.5,0.4-2.3,1.1l0.7-0.5l-1,0.4l0.1-0.2c-1,0.5-1.4,0.6-2.4,1c0.1,0,0.1,0.1,0,0.2
								c-0.2,0.1-0.5,0.2-0.9,0.3C53.9,34,54,34,54,34c0,0-0.1,0-0.7,0c0.3,0,0.5-0.1,1.1-0.1c0-0.1,0.3-0.1,0.3-0.2
								c-0.3,0-0.7,0.1-1,0.1c-0.3,0-0.6-0.1-0.7-0.2c0.1,0.1,0.3,0.1,0.3,0.2c0,0-0.1,0-0.2,0c-0.1,0-0.3-0.1-0.4-0.2
								c-0.3-0.2-0.4-0.6-0.4-0.6c0-0.3,0-0.1,0.2,0.1c-0.1-0.3-0.2-0.5-0.2-1c0.1,0.1,0.1,0.1,0.3,0.8c0,0-0.1-0.3-0.1-0.7
								c0-0.4,0.1-0.8,0.1-0.8c0-0.1,0.4-0.9,0.3-0.6c0.3-1,0.5-2.6,1-3.9c0-0.1,0-0.2,0.1-0.5c0.4-1.3,0.8-2.4,1.1-3.9l0.4-0.8
								c0.3-1.2-0.5,1.1,0-0.9c0.3-1.4,0.3-0.5,0.5-1c0.1-0.7,0.3-2,0.8-3.2C56.5,16.7,56.4,17,56.3,17.4z M55,3.7
								c0.3,0,1,0.1,1.2,0.3C55.8,4,55.5,3.8,55,3.7z M31.8,3.9c0.2,0,0.6,0,0.9,0C32.5,4,32.1,4,31.8,3.9z M6.5,30.8L6.5,30.8
								C6.3,30.2,6.3,30.4,6.5,30.8z M7.2,31.9C7.3,32,7.3,32,7.2,31.9c0,0-0.2-0.3-0.4-0.6C6.9,31.4,6.9,31.6,7.2,31.9z M66.9,34.2
								l0.2-0.2C66.8,34.5,66.8,34.4,66.9,34.2z"/>
							<path d="M34.4,3.8c0.1,0,0.1,0,0.1,0.1C34.7,3.8,34.7,3.8,34.4,3.8z"/>
							<path d="M53.8,26.6L53.8,26.6C53.8,26.6,53.8,26.6,53.8,26.6L53.8,26.6z"/>
							<path d="M22.2,33.7c0.2-0.1,0.3-0.2,0.3-0.2C22.5,33.5,22.5,33.5,22.2,33.7z"/>
							<path d="M11.7,37.6l-0.5-0.7c0.3,0.3,0.3,0.5,0.4,0.7C11.6,37.5,11.5,37.4,11.7,37.6z"/>
							<path d="M15.5,44.2c0.1,0.1,0.2,0.2,0.2,0.3l0-0.1C15.5,44,15.2,43.7,15.5,44.2z"/>
							<path d="M11.8,38.5c0,0.1,0.3,0.5,0.7,1l-0.1-0.1C12.7,39.5,12.2,39,11.8,38.5z"/>
							<path d="M12.6,39.6c0.1,0.2,0.2,0.3,0.3,0.5C13,40.1,12.8,39.9,12.6,39.6z"/>
							<path d="M8.3,33.3c0.2,0.2,0.2,0.1,0.3,0.2C8.9,33.7,7.3,32,8.3,33.3z"/>
							<polygon points="11.8,39.1 11.8,38.8 11.5,38.6 							"/>
							<path d="M9,35.1l0.6,0.8c0,0,0.1,0.1,0.2,0.2C9.4,35.6,9.1,35.1,9,35.1z"/>
							<path d="M9.8,36.1c0.2,0.3,0.4,0.5,0.5,0.6C10.2,36.6,9.9,36.3,9.8,36.1z"/>
							<polygon points="11,38 10.9,37.8 10.5,37.2 							"/>
							<path d="M9,29.9l1,0.4c0.1,0-0.1-0.1-0.5-0.3C9.3,29.9,8.9,29.8,9,29.9z"/>
							<path d="M5.8,28.9c0.3-0.1,0.4-0.1,0.6,0l0-0.2C6.4,28.7,5.8,28.9,5.8,28.9z"/>
							<path d="M9.1,29.5c0.1,0,1.5,0.5,0.2,0C9.2,29.4,8.2,29.1,9.1,29.5z"/>
							<path d="M23.2,32.8L23.2,33l0.3,0C23.4,33,23.2,32.8,23.2,32.8z"/>
							<path d="M19.1,19.3c0.3,1.2,0.2,0.2,0.5,1.4c0.1,0.3-0.2-0.9-0.1-0.6C19.3,19.3,19.2,18.9,19.1,19.3z"/>
							<path d="M19.5,20c0,0.1,0.1,0.2,0.1,0.4C19.6,20.1,19.6,20,19.5,20z"/>
							<path d="M36.6,71c0,0-0.6-0.4-0.6-0.4c0,0,0.3,0.3,0.3,0.3C36.3,71,36.6,71,36.6,71z"/>
							<path d="M35.4,70.4c0,0,0-0.2,0-0.2L35,69.9C35.1,70,35.3,70.2,35.4,70.4z"/>
							<path d="M52.7,3.3L52.7,3.3c0.1,0.1,0.3,0.1,0.6,0.1L52.7,3.3z"/>
							<polygon points="58.2,11.3 58.2,11.1 58,11.4 							"/>
							<path d="M55.8,20.3c0.1-0.4,0.2-0.8,0.3-1.2C55.9,19.9,55.6,20.3,55.8,20.3z"/>
						</g>
					</g>
				</g>
			</g>
		</g>
	</g>
	<path d="M52.3,36.2c1.2,0.2,2.4,0,3.6-0.5c0,0,0.1,0,0.1-0.1c0-0.1-0.1-0.2-0.2-0.1c-1.1,0.5-2.2,0.6-3.4,0.4c0,0-0.1,0-0.1,0
		C52.2,36.1,52.2,36.2,52.3,36.2z"/>
	<path d="M50.3,38.7c2.6,0.4,5.1,0.1,7.5-1c0.1,0,0.1-0.1,0.1-0.1c0-0.2-0.2-0.4-0.4-0.3c-2.3,1-4.7,1.3-7.1,0.9
		c-0.1,0-0.2,0-0.2,0.1C50.1,38.4,50.1,38.7,50.3,38.7z"/>
	<path d="M25.5,5.8c-2.6-0.4-5.1-0.1-7.5,1c-0.1,0-0.1,0.1-0.1,0.1c0,0.2,0.2,0.4,0.4,0.3c2.3-1,4.7-1.3,7.1-0.9
		c0.1,0,0.2,0,0.2-0.1C25.7,6.1,25.7,5.8,25.5,5.8z"/>
	<path fill="none" stroke="#000000" stroke-width="0.25" stroke-miterlimit="10" d="M14.7,36.8c0,0,9.9,13.7,11,16.8"/>
	<path fill="none" stroke="#000000" stroke-width="0.25" stroke-miterlimit="10" d="M21.8,43.8c0,0,2.7,2.2,3.8,5.4"/>
	<path fill="none" stroke="#000000" stroke-width="0.25" stroke-miterlimit="10" d="M44.2,62c0,0-4.3,8.1-6.7,8"/>
</g>
</svg>
