<?xml version="1.0" encoding="utf-8"?>
<!-- Generator: Adobe Illustrator 19.0.0, SVG Export Plug-In . SVG Version: 6.00 Build 0)  -->
<svg version="1.1" id="Слой_1" xmlns="http://www.w3.org/2000/svg" xmlns:xlink="http://www.w3.org/1999/xlink" x="0px" y="0px"
	 viewBox="-209 340.9 191.7 113.1" style="enable-background:new -209 340.9 191.7 113.1;" xml:space="preserve">
<style type="text/css">
	.burger0{fill:none;}
	.burger1{fill:#D17911;}
	.burger2{fill:#F8AA34;}
	.burger3{fill:none;stroke:#000000;stroke-width:0.5;stroke-linecap:round;stroke-linejoin:round;stroke-miterlimit:10;}
	.burger4{display:none;fill:none;stroke:#000000;stroke-width:0.5;stroke-linecap:round;stroke-linejoin:round;stroke-miterlimit:10;}
	.burger5{fill:url(#SVGID_1_);}
	.burger6{fill:url(#SVGID_2_);}
	.burger7{fill:url(#SVGID_3_);}
</style>
<pattern  x="-209" y="454" width="21.7" height="27.1" patternUnits="userSpaceOnUse" id="New_Pattern_Swatch_2" viewBox="0 -27.1 21.7 27.1" style="overflow:visible;">
	<g>
		<polygon class="burger0" points="0,0 21.7,0 21.7,-27.1 0,-27.1 		"/>
		<g>
			<polygon class="burger0" points="0,-27.1 21.7,-27.1 21.7,0 0,0 			"/>
			<path d="M0.5-0.9c0.3,0.1,0.7,0.1,1,0.2C2-0.6,1.8,0.1,1.3,0C1-0.1,0.6-0.1,0.3-0.2C-0.2-0.3,0-1,0.5-0.9z"/>
			<path d="M2.4-3.4c0.3,0,0.7,0,1,0c0.5,0,0.5,0.8,0,0.8c-0.3,0-0.7,0-1,0C1.9-2.6,1.9-3.4,2.4-3.4z"/>
			<path d="M5.4-0.8c0.5-0.3,1-0.7,1.5-1c0.4-0.3,0.8,0.4,0.4,0.6c-0.5,0.3-1,0.7-1.5,1C5.4,0.1,5-0.5,5.4-0.8z"/>
			<path d="M10.8-3.3c0.4-0.1,0.6-0.4,0.7-0.8c0.1-0.5,0.8-0.3,0.7,0.2c-0.2,0.6-0.6,1.1-1.3,1.3C10.5-2.5,10.3-3.2,10.8-3.3z"/>
			<path d="M7-4.7c0-0.4,0.3-0.8,0.7-0.9C8.2-5.7,8.4-5,7.9-4.9c0,0.1-0.1,0.1-0.1,0.2C7.7-4.3,7-4.3,7-4.7z"/>
			<path d="M2.4-6.9c0.3,0,0.5,0,0.8,0c0.5,0,0.5,0.8,0,0.8c-0.3,0-0.5,0-0.8,0C1.9-6.1,1.9-6.9,2.4-6.9z"/>
			<path d="M6.2-11.8c-1.2,0.3-2.4,0.6-3.5,0.9c-0.5,0.1-0.7-0.6-0.2-0.7c1.2-0.3,2.4-0.6,3.5-0.9C6.5-12.6,6.7-11.9,6.2-11.8z"/>
			<path d="M11.7-8.7c0,0.3,0,0.5,0,0.8c0,0.5-0.8,0.5-0.8,0c0-0.3,0-0.5,0-0.8C11-9.2,11.7-9.2,11.7-8.7z"/>
			<path d="M5-8.3c0.6-0.2,1.1-0.4,1.7-0.6c0.5-0.2,0.7,0.6,0.2,0.7C6.3-8,5.8-7.8,5.2-7.6C4.8-7.4,4.6-8.1,5-8.3z"/>
			<path d="M8.6-16.4c0.3-0.4,0.9,0,0.6,0.4c-0.2,0.3-0.3,0.5-0.5,0.8c-0.3,0.4-0.9,0-0.6-0.4C8.2-15.9,8.4-16.2,8.6-16.4z"/>
			<path d="M2.3-14.5c0.4-0.3,0.9,0.2,0.5,0.5S2-13.3,1.5-13c-0.4,0.3-0.9-0.2-0.5-0.5C1.5-13.9,1.9-14.2,2.3-14.5z"/>
			<path d="M3-18.7c0-0.8,0-1.5,0-2.3c0-0.5,0.8-0.5,0.8,0c0,0.8,0,1.5,0,2.3C3.7-18.3,3-18.3,3-18.7z"/>
			<path d="M5.9-16.8c-0.2,0.4-0.5,0.8-0.7,1.3c-0.2,0.4-0.9,0-0.6-0.4c0.2-0.4,0.5-0.8,0.7-1.3C5.5-17.6,6.2-17.2,5.9-16.8z"/>
			<path d="M6.2-20.1c0.3-0.8,0.6-1.6,0.8-2.5c0.2-0.5,0.9-0.3,0.7,0.2c-0.2,0.8-0.5,1.7-0.8,2.5C6.8-19.5,6-19.6,6.2-20.1z"/>
			<path d="M10.8-20.2c0.1-0.5,0.8-0.5,0.8,0c-0.1,0.6-0.3,1.1-0.6,1.5s-0.8-0.2-0.5-0.5C10.6-19.5,10.7-19.9,10.8-20.2z"/>
			<path d="M13.5-16.6c-0.1,0.4-0.2,0.8-0.3,1.2c-0.1,0.5-0.8,0.3-0.7-0.2c0.1-0.4,0.2-0.8,0.3-1.2C12.9-17.3,13.6-17.1,13.5-16.6z"
				/>
			<path d="M17.5-11.8c0.5-0.1,0.9-0.4,1.3-0.9c0.3-0.4,0.9,0,0.6,0.4c-0.4,0.6-1,1-1.7,1.2C17.2-11,17.1-11.7,17.5-11.8z"/>
			<path d="M20.5-17c0-0.5,0-1,0-1.5s0.8-0.5,0.8,0s0,1,0,1.5C21.2-16.5,20.5-16.5,20.5-17z"/>
			<path d="M18.5-23.1c0.1-0.5,0.8-0.3,0.7,0.2c-0.1,0.4,0,0.8,0.2,1.2c0.2,0.5-0.4,0.8-0.6,0.4C18.5-21.9,18.4-22.4,18.5-23.1z"/>
			<path d="M15.7-17.2c0-0.2,0-0.3,0-0.5c0-0.5,0.8-0.5,0.8,0c0,0.2,0,0.3,0,0.5C16.5-16.8,15.7-16.8,15.7-17.2z"/>
			<path d="M11.1-11.7c0.5-0.8,1.4-1.3,2.3-1.2c0.5,0,0.5,0.8,0,0.8c-0.7,0-1.3,0.2-1.7,0.8C11.5-10.9,10.8-11.2,11.1-11.7z"/>
			<path d="M9.2-13.5c0,0.3,0,0.5,0,0.8c0,0.5-0.8,0.5-0.8,0c0-0.3,0-0.5,0-0.8C8.5-14,9.2-14,9.2-13.5z"/>
			<path d="M9.1-10.1c0.5,0,0.5,0.8,0,0.8S8.6-10.1,9.1-10.1z"/>
			<path d="M17-14c-0.3,0.1-0.5,0.2-0.8,0.2c-0.5,0.1-0.7-0.6-0.2-0.7c0.3-0.1,0.5-0.2,0.8-0.2C17.2-14.9,17.4-14.2,17-14z"/>
			<path d="M13.8-9.6c0.2-0.1,0.5-0.2,0.7-0.3c0.5-0.2,0.6,0.5,0.2,0.7C14.5-9.1,14.2-9,14-8.9C13.5-8.7,13.3-9.4,13.8-9.6z"/>
			<path d="M15.8-6c0.3-0.1,0.7-0.2,1-0.3c0.5-0.1,0.7,0.6,0.2,0.7c-0.3,0.1-0.7,0.2-1,0.3C15.5-5.2,15.3-5.9,15.8-6z"/>
			<path d="M20-10.8c0.3-0.4,0.8,0.2,0.5,0.5S20-9.7,19.7-9.4c-0.3,0.4-0.8-0.2-0.5-0.5S19.8-10.5,20-10.8z"/>
			<path d="M21.7-14.2c0,0.1,0,0.2,0,0.3c0,0.5-0.8,0.5-0.8,0c0-0.1,0-0.2,0-0.3C21-14.7,21.7-14.7,21.7-14.2z"/>
			<path d="M19.1-15.9c0.5,0,0.5,0.8,0,0.8S18.6-15.9,19.1-15.9z"/>
			<path d="M13.4-7.6c0.4-0.3,0.8,0.4,0.4,0.6c-0.3,0.3-0.7,0.5-1,0.8c-0.4,0.3-0.8-0.4-0.4-0.6C12.7-7.1,13.1-7.3,13.4-7.6z"/>
			<path d="M4.3-24.8c0.1-0.1,0.2-0.2,0.3-0.3c0.3-0.2,0.9,0.3,0.5,0.6C5-24.4,5-24.3,4.9-24.2C4.5-23.9,4-24.4,4.3-24.8z"/>
			<path d="M9.4-22.6c0.1-0.4,0.2-0.8,0.3-1.2c0.1-0.5,0.9-0.3,0.8,0.2c-0.1,0.4-0.2,0.8-0.3,1.2C10.1-21.9,9.3-22.1,9.4-22.6z"/>
			<path d="M14.7-23.2c-0.1,0.5-0.9,0.3-0.8-0.1c0.1-0.3,0.2-0.7,0.3-1c0.1-0.5,0.8-0.3,0.7,0.2C14.8-23.8,14.8-23.5,14.7-23.2z"/>
			<path d="M14.6-20.1c-0.3,0-0.5,0.2-0.5,0.5c0.1,0.5-0.6,0.7-0.7,0.2c-0.1-0.8,0.4-1.5,1.2-1.5C15.1-20.9,15.1-20.1,14.6-20.1z"/>
			<path d="M16.2-23.7c-0.1-1,0-2.1,0.3-3.1c0.1-0.5,0.9-0.3,0.7,0.2c-0.3,1-0.3,1.9-0.2,2.9C17-23.3,16.3-23.3,16.2-23.7z"/>
			<path d="M21.7-22.7c0,0.5-0.8,0.5-0.8,0s0-1,0-1.5s0.8-0.5,0.8,0S21.7-23.2,21.7-22.7z"/>
		</g>
	</g>
</pattern>
<g id="burger">
	<g>
		<g>
			<path class="burger1" d="M-76,402c0,0,1,4.7-0.5,6.5c-1.5,1.8-0.9,2.7-3.5,2.6c-2.6-0.2-10.6-0.5-13.5-0.3s-13.8,0-15.4,0
				s-21.2,0.1-22.2,0.1s-13.6,0.1-13.7,0.1c-0.2,0-6.1,0.9-6.1-3c0-3.9-0.2-6.5,0-7c0.2-0.6,0.4-2.7,3.9-3.4c3.5-0.7,17.7,0,23.1,0
				s23.4,0.6,27.3,0.2c3.9-0.4,12.2-0.4,13.8-0.3c1.6,0.1,5.1,1,5.7,1.5c0.6,0.5,1.5,1,1.3,2.9"/>
			<g>
				<path class="burger2" d="M-102,421.1l-11-6.2h-34.8v7.5c0,0,1.8,9.2,13.7,9.2c11.9,0,43.8,0,43.8,0s10.7-2.7,10.7-9
					c0-6.3,0-6.9,0-6.9l-12.9-0.2L-102,421.1z"/>
				<path class="burger2" d="M-79.5,382.3c0,0-0.9-28.8-33.9-28.8s-34.2,28.8-34.2,28.8H-79.5z"/>
				<path class="burger3" d="M-113.5,353.5c-34.8,0-34.3,28.8-34.3,28.8h34.3h34.3C-79.3,382.3-78.8,353.5-113.5,353.5z"/>
				<path class="burger3" d="M-80,397.4h-67.1c-2.2,0-3.9,1.8-3.9,3.9v5.6c0,2.2,1.8,3.9,3.9,3.9h67.2c2.2,0,3.9-1.8,3.9-3.9v-5.5
					C-76,399.2-77.8,397.4-80,397.4z"/>
				<path class="burger3" d="M-91.4,414.9c-4.9,2.9-10.6,6.2-10.6,6.2l-10.3-6.2h-1.2h-34.3v6.5c0,8.8,11.1,10.2,11.1,10.2h23.2h23.2
					c0,0,11.1-1.3,11.1-10.2v-6.5H-91.4z"/>
				<path class="burger3" d="M-113.5,387.9c0,0,3.2-0.2,4.5,1.1c2.1,2,9.3,5.3,14.4,0.8s10.8-0.6,10.8-0.6s4.9,2.9,8.9,2.9"/>
				<path class="burger3" d="M-113.5,387.9c0,0-3.1-0.1-4.5,1.1c-2.1,2-9.3,5.3-14.4,0.8c-5.1-4.5-10.8-0.6-10.8-0.6"/>
				<path class="burger3" d="M-83,378.7c0,0-2.8-11.5-11.3-17.3"/>
				<path class="burger3" d="M-88.6,374.4c0,0-1.6-3.8-5-6.5"/>
				<path class="burger3" d="M-78.8,403.2c0,0,1,4.7-4.2,4.7"/>
				<line class="burger3" x1="-106.5" y1="422.4" x2="-114.5" y2="417.2"/>
				<g>
					<g>
						<path class="burger3" d="M-79.3,382.3"/>
					</g>
				</g>
				<g>
					<g>
						<path class="burger3" d="M-147.6,382.3"/>
					</g>
				</g>
			</g>
			<g>
				<path class="burger3" d="M-75.1,382.1"/>
				<path class="burger3" d="M-79.1,382.3"/>
				<path class="burger3" d="M-112.3,414.9c0,0,1.9,0.1,3,1.3c1,1.1-0.4,1,2.5,2c3,1,4.4,2.8,4.8,2.9s3.1-1.1,4.1-2.4
					c1-1.3,3-1.8,4.1-2.4c1.1-0.6,2.6-1.4,2.6-1.4s3,0,4.3,0s2.4-0.6,3.1-0.5s1.9,0.5,2.7,0.5s1.8,0,1.8,0s0.1,1.4,0.4,2.6
					c0.3,1.2-0.1,2.3-0.2,3.9c-0.1,1.6,0.5,2.1-1.2,4.5s-2.5,3.5-4.8,4.1c-2.3,0.6-3.1,1.2-4.9,1.5c-1.7,0.3-2.1,0-7,0
					s-8,0-11.6,0.1c-3.6,0.1-3.9,0.4-7,0c-3.1-0.4-7.5,0-8.7,0.2c-1.3,0.2-4.3-0.3-6.5-0.3s-5.3,0.4-7.5-0.4
					c-2.2-0.8-2.9-1.4-5.2-2.3c-2.3-0.8-2.3-3.5-2.9-4.3c-0.6-0.8-2.1-2.1-1.9-2.6c0.2-0.5,0.2-2.5,0.5-3.9c0.3-1.4,0.6-3.6,0.6-3.6
					s2.2,0.5,6.7,0.5c4.4,0,9.5,0,12,0s6.3,0.4,8.2,0.2C-118.5,414.9-112.3,414.9-112.3,414.9z"/>
				<path class="burger3" d="M-84.4,410.8c0,0-4.7-0.7-10.3,0c-5.5,0.7-9.4,0-11.8,0c-2.5,0-5.9-0.2-7,0c-1.2,0.2-6.4,0.3-7.6,0.3
					s-10.7-0.3-11.1-0.3c-0.4,0-5.9,0.4-7,0.3c-1.2-0.1-8.1-0.2-8.4-0.3c-0.3-0.1-3.5-1.1-3.4-2.1c0.1-1-0.4-2.2-0.3-3.5
					c0.1-1.3,0.1-3.9,0.4-4.8s1.2-2.1,1.7-2.4c0.6-0.3,0.7-0.2,2.8-0.6c2.1-0.4,4.1-0.5,6.6-0.4s10,0.6,12.8,0.4
					c2.8-0.2,16-0.9,19.5-0.4c3.5,0.4,2.5,0.4,7.4,0.4s12.5,0,13.7,0s5.3-0.1,6.2,0c0.9,0.1,1.1,0.1,2.8,1.4
					c1.7,1.3,1.3,1.7,1.3,3.2s0.1,4.2,0,4.8c-0.1,0.6-0.7,2.5-1.4,3s-1.5,1.3-2.6,1.3C-81.1,411-84.4,410.8-84.4,410.8z"/>
				<path class="burger3" d="M-74,391.8c-0.5,0-1.7,0.7-3.7,0c-2-0.7-4.4-1.3-5.3-1.9c-0.9-0.7-3.2-1.8-3.9-2c-0.7-0.2-3.1-0.5-4.6,0.1
					c-1.5,0.6-3.5,1.8-4.3,2.4s-1.5,1.3-2.9,1.5s-2.1,0.7-4.7-0.1c-2.5-0.8-2.6-0.8-3.2-1.1c-0.5-0.3-2-0.1-2.4-0.8
					c-0.4-0.7-0.4-1.5-1.9-1.7c-1.4-0.2-4.7-0.9-6.9,0.6c-2.2,1.5-3.2,2.4-5.4,2.8c-2.2,0.4-2.9,0.5-3.8,0.4s-2.6-0.5-3-0.7
					c-0.4-0.2-1.8-1.7-3.3-2.5c-1.5-0.8-4.7-1.9-5.3-1.5c-0.6,0.3-3.1,1-3.3,1.1s-0.9,0.3-3.3,1.3"/>
				<path class="burger3" d="M-79.5,382.1c-0.1,0.3-4.1-0.2-6.5,0.2c-2.4,0.3-6.7,0.6-8.3,0.4c-1.5-0.2-3.5-0.4-4.8-0.4s-3.4,0-5.3,0
					c-1.8,0-7.6,0.6-10.4,0c-2.8-0.6-2.8-1.2-5.5-0.8c-2.8,0.5-7,0.3-7.8,0.5c-0.8,0.2-10.1,0.2-11.3,0.2s-5.5,0.4-6.9,0.2
					c-1.4-0.2-2-0.7-1.6-1.6c0.5-0.9,0.8-6,2.1-8.9c1.3-2.8,2.3-4.8,3.2-6c0.9-1.2,4.9-5.5,5.8-6.3c1-0.8,5.7-4.7,12.1-5.3
					c6.4-0.6,7.6-0.8,9-0.8c1.5,0,6.5-0.8,11.3,0.7c4.9,1.6,4.6,1.1,7.6,2.2s3.1,1.1,4.4,1.8c1.3,0.7,4.5,3.7,5.9,5.5
					c1.4,1.7,2.5,3.2,3.3,4.8s0.9,2.2,1.8,4c0.9,1.8,1,1.3,1.2,4S-79.3,381.6-79.5,382.1z"/>
				<path class="burger3" d="M-147.8,382.3"/>
				<path class="burger3" d="M-83,378.9c0-0.3-0.4-1.7-0.7-2.5s-1.4-3.5-2-4.7c-0.6-1.2-0.8-2.1-1.7-3c-0.9-0.9-1.1-1.6-1.3-1.9
					c-0.2-0.3-0.7-0.9-1.1-1.4s-0.8-0.9-1.1-1.2c-0.3-0.3-0.7-0.7-1-0.9c-0.2-0.2-2.4-1.9-2.4-1.9"/>
				<path class="burger3" d="M-94.3,367.6c0.3,0,0.9,0.4,1.5,1c0.6,0.6,1.2,1.2,1.7,1.8c0.5,0.7,1.1,1.5,1.3,1.8
					c0.2,0.3,1.5,0.9,1.2,1.3s0.1,0.7,0,0.9"/>
				<path class="burger3" d="M-79.1,402.8c0.1,0.6,0.5,1.4,0.4,2c-0.1,0.6-0.7,1.2-0.9,1.6c-0.2,0.3-0.5,0.9-1,1.1
					c-0.5,0.2-2.1,0.5-2.1,0.5"/>
				<path class="burger3" d="M-106.1,422.7c-0.1-0.1-0.3-0.5-1.4-1s-2.3-1.1-2.6-1.2s-0.8-1.3-1.3-1.6c-0.5-0.3-2-1-2-1"/>
			</g>
			<path class="burger3" d="M-80.8,425.7c0,0-0.6-0.1-1.6,0"/>
			<path class="burger3" d="M-80.3,424.9c0,0-0.6-0.1-1.6,0"/>
			<path class="burger3" d="M-80,423.4c0,0-0.6-0.1-1.6,0"/>
			<path class="burger3" d="M-79.7,422.1c0,0-0.6-0.1-1.6,0"/>
			<path class="burger3" d="M-79.5,420.9c0,0-0.6-0.1-1.6,0"/>
			<path class="burger3" d="M-79.6,419.4c0,0-0.6-0.1-1.6,0"/>
			<path class="burger3" d="M-79.3,418.1c0,0-0.6-0.1-1.6,0"/>
			<path class="burger3" d="M-79.3,416.7c0,0-0.6-0.1-1.6,0"/>
			<path class="burger3" d="M-143.9,389.2c0,0-4.9,2.9-8.9,2.9"/>
			<path class="burger4" d="M-145.9,389.7c-2.4,1-5.7,2.3-6.7,2.3"/>
		</g>
		<pattern  id="SVGID_1_" xlink:href="#New_Pattern_Swatch_2" patternTransform="matrix(1 0 0 -1 -4684.2002 -14132.4199)">
		</pattern>
		<path class="burger5" d="M-135.4,382.3c0,0-2.4-0.8-3.8-4c-1.4-3.2-2.2-2.4-0.5-5.4c1.7-3,3.1-4,2.9-6.1s-0.6-1.9,0.3-4
			c0.9-2.1,1.8-4.7,1.8-4.7s-4.9,3.6-7.2,7.1c-2.3,3.5-2.9,5.2-3.4,5.8s-2.2,5.8-2.2,6.4s-2.8,4.8,1.6,4.8
			C-141.4,382.3-135.4,382.3-135.4,382.3z"/>
		<pattern  id="SVGID_2_" xlink:href="#New_Pattern_Swatch_2" patternTransform="matrix(1 0 0 -1 -4684.2002 -14132.4199)">
		</pattern>
		<path class="burger6" d="M-101.8,420.9c0,0,4,1.1,6.6-0.7c2.6-1.8,1.3,1.1,3.9,0.6s4.4,0.2,6-0.8s5.8-4.3,5.8-4.3s0.2-0.9-1.8-0.9
			c-2.1,0-10.2-0.5-11.2,0.4S-101.8,420.9-101.8,420.9z"/>
		<pattern  id="SVGID_3_" xlink:href="#New_Pattern_Swatch_2" patternTransform="matrix(1 0 0 -1 -4684.2002 -14132.4199)">
		</pattern>
		<path class="burger7" d="M-82.3,382.3c0,0-1.1-3.8-1.3-5.5c-0.2-1.6-4-8.5-5.1-9.9s-3.3-3.6-4.2-4.4c-0.9-0.8-3.6-2.5-5.1-3.5
			s-4.1-4-5-4.3c-0.9-0.3,10.3,1.8,14.4,6.7s6.8,10.1,7.5,11.4c0.7,1.3,1,1.9,1.2,4.2C-79.5,379.2-77.4,383.5-82.3,382.3z"/>
	</g>
</g>
<g id="wings-left">
	<path class="burger3" d="M-148.3,382.3c0,0-15.8,1.6-20.4-13.9c0,0-21.9,18-35.5,11.4c0,0-7,5.2,2,11.9c0,0,2.3,7.3,8.4,5.9
		c0,0,5.8,4.3,10-0.3c0,0,7.3,2.6,10.8-3.1c0,0,5.7,1.6,8.2-3c0,0,4.9,2.5,7.3-1.9"/>
	<path class="burger3" d="M-202.1,391.7c0,0,11.7-1.3,18.1-6.9"/>
	<path class="burger3" d="M-193.7,397.6c0,0,7.1-4.2,9.5-7.4"/>
	<path class="burger3" d="M-183.7,397.3c0,0,1.8-2.2,4.9-5.9"/>
	<path class="burger3" d="M-172.9,394.2c0,0,2.4-3.9,2.2-5.6"/>
	<path class="burger3" d="M-164.7,391.2c0,0,1-2.3,0.9-4"/>
	<path class="burger3" d="M-148.5,382.3c0,0-2.1-0.3-3.7-0.3c-1.6,0-1.6,0.1-3.3-0.4c-1.6-0.5-3.3-1.1-3.9-1.5c-0.7-0.4-2.3-1.2-3.5-2.3
		c-1.2-1.1-2.1-1.7-2.5-2.3c-0.4-0.6-0.8-1.4-1.3-2.4s-0.2-1.3-0.6-1.7s-1.3-2.8-1.3-2.8s-2.6,1.7-4.2,2.8s-3.4,1.7-4.5,2.6
		c-1,0.9-3.8,2-5.3,2.7c-1.5,0.7-6.2,3.2-9.3,3.5c-3.1,0.3-4.9,1-5.6,1c-0.7,0-4.3-0.4-5.4-0.9c-1.1-0.5-1.3-0.7-1.8-0.2
		s-1.2,1.5-1.8,2.5c-0.6,1-1.3,1.5-0.8,2.9c0.5,1.4,0.4,1.1,1.6,3c1.2,2,2.8,2.4,3.2,2.9c0.4,0.5,0.2,0.4,1.5,2.7
		c1.2,2.3,1.7,3.2,2.5,3.1c0.7-0.1,2.5,1,3.1,0.9c0.6-0.1,1.1-0.6,2.1-0.3c1,0.3,3.4,1.7,4.9,1.5c1.5-0.2,2.4,0.1,2.9-0.7
		c0.5-0.8,1.9-1.5,2.6-1.4c0.7,0,3.4,1.4,6.1,0.1c2.7-1.3,2.8-1.7,3.3-2.3c0.5-0.7,0.4-0.9,1.4-0.8s3.7,0.6,4.6-0.5
		c0.9-1,1.7-1,2.1-1.5c0.4-0.5,0.5-1.1,1.1-1c0.6,0.1,2.3,0.4,3.3,0.3s1.8,0.2,2.4-0.9c0.6-1.1,1.3-1.9,1.3-1.9"/>
	<path class="burger3" d="M-202.1,391.7c0,0,2.7-0.3,5.3-1c2.6-0.7,5.1-0.8,5.5-1.3c0.4-0.5,4.1-2.3,4.7-2.7"/>
	<path class="burger3" d="M-184.8,390.5c0.1,0.2-0.9,1.3-2.2,2.4c-1.3,1.1-4.2,1.8-4.9,2.6c-0.7,0.8-1.8,2.1-1.8,2.1"/>
	<path class="burger3" d="M-183.7,397.3c0,0,0.2-0.7,1.4-1.7s1.9-1.2,2.1-2c0.2-0.8,1-1.4,1-1.4"/>
	<path class="burger3" d="M-172.9,394.2c0,0,0.9-0.9,1.1-1.7c0.2-0.8,0.9-1.3,0.9-2"/>
	<path class="burger3" d="M-164.7,391.4c0,0,0.6-2,0.7-2.4c0.1-0.4-0.8-1.4-0.8-1.4"/>
	<g id="wind-left">
		<path class="burger3" d="M-192.4,404.1c0,0,0.5,13.8,8.3,27.1"/>
		<path class="burger3" d="M-180.2,402.5c0,0,3.6,24.6,16,36.5"/>
		<path class="burger3" d="M-166.9,400.2c0,0,1.3,13.5,7,19.3"/>
		<path class="burger3" d="M-166.9,400.2c0,0-0.2,0.7,0.7,4.4c0.8,3.6,0.7,3.4,1.3,5.3c0.6,1.9,0.1,3.1,0.9,3.9c0.9,0.9,2,2.5,2.9,4.3"/>
		<path class="burger3" d="M-180.2,402.5c0,0-0.9,1.8,0.3,4.8c1.3,2.9,1.8,4.8,2,5.7c0.2,0.8,1.2,4,1.9,6s1.7,4.5,2.3,5.7
			c0.6,1.2,2.1,2.7,3,5c0.9,2.3,1.2,2.8,1.7,3.6c0.5,0.8,3.8,4.2,3.8,4.2"/>
		<path class="burger3" d="M-184.1,430.6c0,0-1.7-2.5-2.4-4s-0.8-1.7-1.6-3.6c-0.7-1.9-1.2-4.9-1.8-6.1c-0.6-1.2-1-2.6-1.2-3.6
			c-0.2-1.1-0.9-4.7-1-5.4c-0.1-0.7-0.3-2.5-0.3-2.5"/>
	</g>
</g>
<g id="wings-right">
	<path class="burger3" d="M-76.1,382.3c0,0,15.8,1.6,20.4-13.9c0,0,21.9,18,35.5,11.4c0,0,7,5.2-2,11.9c0,0-2.3,7.3-8.4,5.9
		c0,0-5.8,4.3-10-0.3c0,0-7.3,2.6-10.8-3.1c0,0-5.7,1.6-8.2-3c0,0-4.9,2.5-7.3-1.9"/>
	<path class="burger3" d="M-22.3,391.7c0,0-11.7-1.3-18.1-6.9"/>
	<path class="burger3" d="M-30.7,397.6c0,0-7.1-4.2-9.5-7.4"/>
	<path class="burger3" d="M-40.7,397.3c0,0-1.8-2.2-4.9-5.9"/>
	<path class="burger3" d="M-51.5,394.2c0,0-2.4-3.9-2.2-5.6"/>
	<path class="burger3" d="M-59.7,391.2c0,0-1-2.3-0.9-4"/>
	<path class="burger3" d="M-71.9,382.1c2.6-0.5,2.5-0.5,4-0.7c1.5-0.2,1.5-1.2,3.5-2.1c2-0.9,3-1.8,3.3-2c0.2-0.2,1.9-1.8,2.8-3.2
		c0.9-1.5,1.3-1.6,1.3-2.3c0-0.7,0.6-0.6,0.7-1.6c0.1-1,0.1-1.8,0.6-1.7s0.5,0.9,3.2,2.4s4.7,3.4,7.2,4.3c2.4,0.8,3.4,0.6,4.4,1.7
		c1,1.1,1.6,1.4,3.4,2.1c1.8,0.6,2.5,1.2,4.5,1.4c2,0.2,3.5,0.9,4.8,1c1.3,0.1,2.4,0.2,3.3-0.1c0.9-0.3,2.4-0.6,3.2-0.9
		c0.8-0.3,1.4-0.8,1.9-0.3s2.7,2.2,2.5,4.3c-0.2,2.1-0.6,2.5-1.2,3.5c-0.7,1-0.9,2.1-1.9,2.7s-1.5,0.5-1.9,1.5
		c-0.4,0.9-1,2.1-1.5,2.8c-0.5,0.6-0.6,0.8-1.5,1.6c-0.9,0.9-2.1,1.5-2.4,1.6s-1.8,0.2-2.5,0s-0.6-0.6-1.5,0
		c-0.8,0.6-2.9,1.5-4.1,1.4s-1.7,0-2.7-0.6c-1-0.6-1-1.3-2-1.3s-1.6,0.2-2.6,0.3c-1.1,0.1-2.5,0.2-3,0.1s-1.5-0.4-1.8-0.7
		c-0.3-0.2-1.3-0.6-2.1-1.5c-0.8-0.9-0.5-1.6-1.6-1.6s-1.9,0-2.5,0s-0.4,1-2,0s-1.6-0.8-2.2-1.4c-0.6-0.6-0.2-0.8-1-1.1
		c-0.7-0.3-1-0.4-1.7-0.3c-0.7,0.1-1.9,1-3.2,0.3c-1.3-0.7-1.7-0.9-2.1-1.5"/>
	<path class="burger3" d="M-22.4,392c0,0-1-0.4-3-0.8c-1.9-0.4-5-0.8-6-1.4c-1-0.6-1.6-1.4-2.3-1.6c-0.7-0.1-3.2-1-3.5-1.2"/>
	<path class="burger3" d="M-30.9,397.8c0,0-0.2-0.4-1.3-1.2c-1.1-0.7-3.2-1.9-3.2-1.9s-0.6,0-1-0.5s-0.3-0.7-1.1-1.4
		c-0.8-0.7-1.9-1.6-1.9-1.6"/>
	<path class="burger3" d="M-51.5,394c0,0-0.3-0.8-1-1.6c-0.7-0.8-0.9-0.4-0.9-1.3c0-0.8-0.3-2.3-0.3-2.3"/>
	<path class="burger3" d="M-59.7,391.4c0,0,0.3-0.6-0.5-1.6s-0.4-2.7-0.4-2.7"/>
	<path class="burger3" d="M-79.6,382.6c0,0,1.5,0.3,4-0.2"/>
	<g id="wind-right">
		<path class="burger3" d="M-34.5,404.2c0,0-0.5,13.8-8.3,27.1"/>
		<path class="burger3" d="M-46.7,402.6c0,0-3.6,24.6-16,36.5"/>
		<path class="burger3" d="M-60,400.3c0,0-1.3,13.5-7,19.3"/>
		<path class="burger3" d="M-60.2,404.5c-0.8,1.6-1.9,2.8-1.8,4.2c0.1,1.4-0.6,3.4-0.8,4c-0.2,0.6-1,3.7-1.8,4.4s-1.6,1.8-1.6,1.8"/>
		<path class="burger3" d="M-46.7,402.8c0,0.2-0.2,3.4-1.4,6.7s-0.9,3.6-1.6,5.7c-0.7,2.1-2.1,6.5-3.3,9.1c-1.2,2.6-1.9,4.8-2.8,5.6
			c-0.9,0.9-2.4,2.2-2.6,2.7s-1.5,3.4-2.1,4.1"/>
	</g>
</g>
</svg>
