<?xml version="1.0" encoding="utf-8"?>
<!-- Generator: Adobe Illustrator 18.0.0, SVG Export Plug-In . SVG Version: 6.00 Build 0)  -->
<!DOCTYPE svg PUBLIC "-//W3C//DTD SVG 1.1//EN" "http://www.w3.org/Graphics/SVG/1.1/DTD/svg11.dtd">
<svg version="1.1" xmlns="http://www.w3.org/2000/svg" xmlns:xlink="http://www.w3.org/1999/xlink" x="0px" y="0px"
	 viewBox="0 0 36.8 32.6" enable-background="new 0 0 36.8 32.6" xml:space="preserve">
<g id="fon" display="none">
</g>
<g id="orange">
</g>
<g id="outline">
	<path fill="#F7A934" d="M3.5,15.4c0,0-0.1-1.4,1.4-1.4h29.2c0,0,0.1,0.7,0.1,1.4H3.5z"/>
	<path fill="#F7A934" d="M13.9,25.5v-4.8h10.3v4.4c0,0,0.2,0.4-0.6,0.4C22.9,25.5,13.9,25.5,13.9,25.5z"/>
	<path fill="#F7A934" d="M12.9,30.9v-1.3H8.5c0,0-0.6-0.3-0.6,0.3c0,0.6,0.1,1,0.8,1C9.5,30.9,12.9,30.9,12.9,30.9z"/>
	<path fill="#F7A934" d="M29,30.9v-1.3h-5.4c0,0-0.7-0.3-0.7,0.3c0,0.6,0.1,1,1,1S29,30.9,29,30.9z"/>
	<g>
		<path fill="none" stroke="#3C3C3B" stroke-miterlimit="10" d="M33.3,13.1H18.5H3.8c-1.2,0-0.9,2.3-0.9,2.3h15.7h15.7
			C34.2,15.4,34.5,13.1,33.3,13.1z"/>
		<path fill="none" stroke="#3C3C3B" stroke-miterlimit="10" d="M29.2,29.7c0,0,0.1,0.9-0.2,1.3h-5.5"/>
		<path fill="none" stroke="#3C3C3B" stroke-miterlimit="10" d="M25.3,13.1l-4.6-9.6c-0.2-0.5-0.9-0.7-1.4-0.5l0,0
			c-0.5,0.2-0.7,0.9-0.5,1.4l4.2,8.7"/>
		<g>
			<g>
				<path fill="none" stroke="#3C3C3B" stroke-miterlimit="10" d="M18.5,29.7h11.4c0.8-1.9,1.9-14.3,1.9-14.3"/>
				<path fill="none" stroke="#3C3C3B" stroke-miterlimit="10" d="M5.2,15.4c0,0,1.1,12.3,1.9,14.3H20"/>
			</g>
			<path fill="none" stroke="#3C3C3B" stroke-miterlimit="10" d="M7.9,29.7c0,0-0.1,0.9,0.2,1.3h5.5"/>
			<path fill="none" stroke="#3C3C3B" stroke-miterlimit="10" d="M11.7,13.1l4.6-9.6c0.2-0.5,0.9-0.7,1.4-0.5l0,0
				c0.5,0.2,0.7,0.9,0.5,1.4L14,13.1"/>
		</g>
		<path fill="none" stroke="#3C3C3B" stroke-miterlimit="10" d="M23.3,25.5h-9.6c-0.5,0-0.9-0.4-0.9-0.9v-4.3c0-0.5,0.4-0.9,0.9-0.9
			h9.6c0.5,0,0.9,0.4,0.9,0.9v4.3C24.2,25.1,23.8,25.5,23.3,25.5z"/>
		<g>
			
				<line fill="none" stroke="#3C3C3B" stroke-linecap="round" stroke-linejoin="round" stroke-miterlimit="10" x1="28.7" y1="28.5" x2="28.7" y2="16.7"/>
			
				<line fill="none" stroke="#3C3C3B" stroke-linecap="round" stroke-linejoin="round" stroke-miterlimit="10" x1="26.4" y1="28.5" x2="26.4" y2="16.7"/>
			
				<line fill="none" stroke="#3C3C3B" stroke-linecap="round" stroke-linejoin="round" stroke-miterlimit="10" x1="24.2" y1="28.5" x2="24.2" y2="26.7"/>
			
				<line fill="none" stroke="#3C3C3B" stroke-linecap="round" stroke-linejoin="round" stroke-miterlimit="10" x1="21.9" y1="28.5" x2="21.9" y2="26.7"/>
			
				<line fill="none" stroke="#3C3C3B" stroke-linecap="round" stroke-linejoin="round" stroke-miterlimit="10" x1="19.6" y1="28.5" x2="19.6" y2="26.7"/>
			
				<line fill="none" stroke="#3C3C3B" stroke-linecap="round" stroke-linejoin="round" stroke-miterlimit="10" x1="24.2" y1="18.4" x2="24.2" y2="16.7"/>
			
				<line fill="none" stroke="#3C3C3B" stroke-linecap="round" stroke-linejoin="round" stroke-miterlimit="10" x1="21.9" y1="18.4" x2="21.9" y2="16.7"/>
			
				<line fill="none" stroke="#3C3C3B" stroke-linecap="round" stroke-linejoin="round" stroke-miterlimit="10" x1="19.6" y1="18.4" x2="19.6" y2="16.7"/>
		</g>
		<g>
			
				<line fill="none" stroke="#3C3C3B" stroke-linecap="round" stroke-linejoin="round" stroke-miterlimit="10" x1="8.3" y1="16.7" x2="8.3" y2="28.5"/>
			
				<line fill="none" stroke="#3C3C3B" stroke-linecap="round" stroke-linejoin="round" stroke-miterlimit="10" x1="10.5" y1="16.7" x2="10.5" y2="28.5"/>
			
				<line fill="none" stroke="#3C3C3B" stroke-linecap="round" stroke-linejoin="round" stroke-miterlimit="10" x1="12.8" y1="16.7" x2="12.8" y2="18.4"/>
			
				<line fill="none" stroke="#3C3C3B" stroke-linecap="round" stroke-linejoin="round" stroke-miterlimit="10" x1="15.1" y1="16.7" x2="15.1" y2="18.4"/>
			
				<line fill="none" stroke="#3C3C3B" stroke-linecap="round" stroke-linejoin="round" stroke-miterlimit="10" x1="17.3" y1="16.7" x2="17.3" y2="18.4"/>
			
				<line fill="none" stroke="#3C3C3B" stroke-linecap="round" stroke-linejoin="round" stroke-miterlimit="10" x1="12.8" y1="26.7" x2="12.8" y2="28.5"/>
			
				<line fill="none" stroke="#3C3C3B" stroke-linecap="round" stroke-linejoin="round" stroke-miterlimit="10" x1="15.1" y1="26.7" x2="15.1" y2="28.5"/>
			
				<line fill="none" stroke="#3C3C3B" stroke-linecap="round" stroke-linejoin="round" stroke-miterlimit="10" x1="17.3" y1="26.7" x2="17.3" y2="28.5"/>
		</g>
	</g>
</g>
</svg>
