<?xml version="1.0" encoding="utf-8"?>
<!-- Generator: Adobe Illustrator 19.0.0, SVG Export Plug-In . SVG Version: 6.00 Build 0)  -->
<svg version="1.1" id="cow-svg" xmlns="http://www.w3.org/2000/svg" xmlns:xlink="http://www.w3.org/1999/xlink" x="0px" y="0px"
	 viewBox="-239 323.7 131.8 146.3" style="enable-background:new -239 323.7 131.8 146.3;" xml:space="preserve">
<style type="text/css">
	.cow0{fill:none;}
	.cow1{fill:none;stroke:#F8AA34;stroke-width:0.5;stroke-linecap:round;stroke-linejoin:round;stroke-miterlimit:10;}
	.cow2{fill:none;stroke:#000000;stroke-width:0.5;stroke-linecap:round;stroke-linejoin:round;stroke-miterlimit:10;}
	.cow3{fill:#F4DCC1;stroke:#000000;stroke-width:0.5;stroke-linecap:round;stroke-linejoin:round;stroke-miterlimit:10;}
	.cow4{fill:#F8AA34;stroke:#000000;stroke-linecap:round;stroke-linejoin:round;stroke-miterlimit:10;}
	.cow5{display:none;fill:none;stroke:#000000;stroke-width:0.5;stroke-linecap:round;stroke-linejoin:round;stroke-miterlimit:10;}
	.cow6{fill:#D17911;stroke:#000000;stroke-linecap:round;stroke-linejoin:round;stroke-miterlimit:10;}
	.cow7{fill:#D17911;stroke:#000000;stroke-width:0.5;stroke-linecap:round;stroke-linejoin:round;stroke-miterlimit:10;}
	.cow8{fill:#F4DCC1;}
	
		.cow9{display:none;fill:url(#SVGID_1_);stroke:#000000;stroke-width:0.5;stroke-linecap:round;stroke-linejoin:round;stroke-miterlimit:10;}
	.cow10{fill:url(#SVGID_2_);stroke:#000000;stroke-width:0.5;stroke-linecap:round;stroke-linejoin:round;stroke-miterlimit:10;}
	.cow11{fill:url(#SVGID_3_);}
	.cow12{fill:url(#SVGID_4_);}
	.cow13{fill:url(#SVGID_5_);}
	.cow14{fill:url(#SVGID_6_);}
	.cow15{fill:none;stroke:url(#SVGID_7_);stroke-miterlimit:10;}
	.cow16{fill:none;stroke:url(#SVGID_8_);stroke-miterlimit:10;}
	.cow17{fill:#F8AA34;}
</style>
<pattern  x="-239" y="470" width="21.7" height="27.1" patternUnits="userSpaceOnUse" id="SVGID_10_" viewBox="0 -27.1 21.7 27.1" style="overflow:visible;">
	<g>
		<polygon class="cow0" points="0,0 21.7,0 21.7,-27.1 0,-27.1 		"/>
		<g>
			<polygon class="cow0" points="0,-27.1 21.7,-27.1 21.7,0 0,0 			"/>
			<g>
				<polygon class="cow0" points="0,0 21.7,0 21.7,-27.1 0,-27.1 				"/>
				<g>
					<polygon class="cow0" points="0,-27.1 21.7,-27.1 21.7,0 0,0 					"/>
					<path d="M0.5-0.9c0.3,0.1,0.7,0.1,1,0.2C2-0.6,1.8,0.1,1.3,0C1-0.1,0.6-0.1,0.3-0.2C-0.2-0.3,0-1,0.5-0.9z"/>
					<path d="M2.4-3.4c0.3,0,0.7,0,1,0c0.5,0,0.5,0.8,0,0.8c-0.3,0-0.7,0-1,0C1.9-2.6,1.9-3.4,2.4-3.4z"/>
					<path d="M5.4-0.8c0.5-0.3,1-0.7,1.5-1c0.4-0.3,0.8,0.4,0.4,0.6c-0.5,0.3-1,0.7-1.5,1C5.4,0.1,5-0.5,5.4-0.8z"/>
					<path d="M10.8-3.3c0.4-0.1,0.6-0.4,0.7-0.8c0.1-0.5,0.8-0.3,0.7,0.2c-0.2,0.6-0.6,1.1-1.3,1.3C10.5-2.5,10.3-3.2,10.8-3.3z"/>
					<path d="M7-4.7c0-0.4,0.3-0.8,0.7-0.9C8.2-5.7,8.4-5,7.9-4.9c0,0.1-0.1,0.1-0.1,0.2C7.7-4.3,7-4.3,7-4.7z"/>
					<path d="M2.4-6.9c0.3,0,0.5,0,0.8,0c0.5,0,0.5,0.8,0,0.8c-0.3,0-0.5,0-0.8,0C1.9-6.1,1.9-6.9,2.4-6.9z"/>
					<path d="M6.2-11.8c-1.2,0.3-2.4,0.6-3.5,0.9c-0.5,0.1-0.7-0.6-0.2-0.7c1.2-0.3,2.4-0.6,3.5-0.9C6.5-12.6,6.7-11.9,6.2-11.8z"/>
					<path d="M11.7-8.7c0,0.3,0,0.5,0,0.8c0,0.5-0.8,0.5-0.8,0c0-0.3,0-0.5,0-0.8C11-9.2,11.7-9.2,11.7-8.7z"/>
					<path d="M5-8.3c0.6-0.2,1.1-0.4,1.7-0.6c0.5-0.2,0.7,0.6,0.2,0.7C6.3-8,5.8-7.8,5.2-7.6C4.8-7.4,4.6-8.1,5-8.3z"/>
					<path d="M8.6-16.4c0.3-0.4,0.9,0,0.6,0.4c-0.2,0.3-0.3,0.5-0.5,0.8c-0.3,0.4-0.9,0-0.6-0.4C8.2-15.9,8.4-16.2,8.6-16.4z"/>
					<path d="M2.3-14.5c0.4-0.3,0.9,0.2,0.5,0.5S2-13.3,1.5-13c-0.4,0.3-0.9-0.2-0.5-0.5C1.5-13.9,1.9-14.2,2.3-14.5z"/>
					<path d="M3-18.7c0-0.8,0-1.5,0-2.3c0-0.5,0.8-0.5,0.8,0c0,0.8,0,1.5,0,2.3C3.7-18.3,3-18.3,3-18.7z"/>
					<path d="M5.9-16.8c-0.2,0.4-0.5,0.8-0.7,1.3c-0.2,0.4-0.9,0-0.6-0.4c0.2-0.4,0.5-0.8,0.7-1.3C5.5-17.6,6.2-17.2,5.9-16.8z"/>
					<path d="M6.2-20.1c0.3-0.8,0.6-1.6,0.8-2.5c0.2-0.5,0.9-0.3,0.7,0.2c-0.2,0.8-0.5,1.7-0.8,2.5C6.8-19.5,6-19.6,6.2-20.1z"/>
					<path d="M10.8-20.2c0.1-0.5,0.8-0.5,0.8,0c-0.1,0.6-0.3,1.1-0.6,1.5s-0.8-0.2-0.5-0.5C10.6-19.5,10.7-19.9,10.8-20.2z"/>
					<path d="M13.5-16.6c-0.1,0.4-0.2,0.8-0.3,1.2c-0.1,0.5-0.8,0.3-0.7-0.2c0.1-0.4,0.2-0.8,0.3-1.2C12.9-17.3,13.6-17.1,13.5-16.6
						z"/>
					<path d="M17.5-11.8c0.5-0.1,0.9-0.4,1.3-0.9c0.3-0.4,0.9,0,0.6,0.4c-0.4,0.6-1,1-1.7,1.2C17.2-11,17.1-11.7,17.5-11.8z"/>
					<path d="M20.5-17c0-0.5,0-1,0-1.5s0.8-0.5,0.8,0s0,1,0,1.5C21.2-16.5,20.5-16.5,20.5-17z"/>
					<path d="M18.5-23.1c0.1-0.5,0.8-0.3,0.7,0.2c-0.1,0.4,0,0.8,0.2,1.2c0.2,0.5-0.4,0.8-0.6,0.4C18.5-21.9,18.4-22.4,18.5-23.1z"
						/>
					<path d="M15.7-17.2c0-0.2,0-0.3,0-0.5c0-0.5,0.8-0.5,0.8,0c0,0.2,0,0.3,0,0.5C16.5-16.8,15.7-16.8,15.7-17.2z"/>
					<path d="M11.1-11.7c0.5-0.8,1.4-1.3,2.3-1.2c0.5,0,0.5,0.8,0,0.8c-0.7,0-1.3,0.2-1.7,0.8C11.5-10.9,10.8-11.2,11.1-11.7z"/>
					<path d="M9.2-13.5c0,0.3,0,0.5,0,0.8c0,0.5-0.8,0.5-0.8,0c0-0.3,0-0.5,0-0.8C8.5-14,9.2-14,9.2-13.5z"/>
					<path d="M9.1-10.1c0.5,0,0.5,0.8,0,0.8S8.6-10.1,9.1-10.1z"/>
					<path d="M17-14c-0.3,0.1-0.5,0.2-0.8,0.2c-0.5,0.1-0.7-0.6-0.2-0.7c0.3-0.1,0.5-0.2,0.8-0.2C17.2-14.9,17.4-14.2,17-14z"/>
					<path d="M13.8-9.6c0.2-0.1,0.5-0.2,0.7-0.3c0.5-0.2,0.6,0.5,0.2,0.7C14.5-9.1,14.2-9,14-8.9C13.5-8.7,13.3-9.4,13.8-9.6z"/>
					<path d="M15.8-6c0.3-0.1,0.7-0.2,1-0.3c0.5-0.1,0.7,0.6,0.2,0.7c-0.3,0.1-0.7,0.2-1,0.3C15.5-5.2,15.3-5.9,15.8-6z"/>
					<path d="M20-10.8c0.3-0.4,0.8,0.2,0.5,0.5S20-9.7,19.7-9.4c-0.3,0.4-0.8-0.2-0.5-0.5S19.8-10.5,20-10.8z"/>
					<path d="M21.7-14.2c0,0.1,0,0.2,0,0.3c0,0.5-0.8,0.5-0.8,0c0-0.1,0-0.2,0-0.3C21-14.7,21.7-14.7,21.7-14.2z"/>
					<path d="M19.1-15.9c0.5,0,0.5,0.8,0,0.8S18.6-15.9,19.1-15.9z"/>
					<path d="M13.4-7.6c0.4-0.3,0.8,0.4,0.4,0.6c-0.3,0.3-0.7,0.5-1,0.8c-0.4,0.3-0.8-0.4-0.4-0.6C12.7-7.1,13.1-7.3,13.4-7.6z"/>
					<path d="M4.3-24.8c0.1-0.1,0.2-0.2,0.3-0.3c0.3-0.2,0.9,0.3,0.5,0.6C5-24.4,5-24.3,4.9-24.2C4.5-23.9,4-24.4,4.3-24.8z"/>
					<path d="M9.4-22.6c0.1-0.4,0.2-0.8,0.3-1.2c0.1-0.5,0.9-0.3,0.8,0.2c-0.1,0.4-0.2,0.8-0.3,1.2C10.1-21.9,9.3-22.1,9.4-22.6z"/>
					<path d="M14.7-23.2c-0.1,0.5-0.9,0.3-0.8-0.1c0.1-0.3,0.2-0.7,0.3-1c0.1-0.5,0.8-0.3,0.7,0.2C14.8-23.8,14.8-23.5,14.7-23.2z"
						/>
					<path d="M14.6-20.1c-0.3,0-0.5,0.2-0.5,0.5c0.1,0.5-0.6,0.7-0.7,0.2c-0.1-0.8,0.4-1.5,1.2-1.5C15.1-20.9,15.1-20.1,14.6-20.1z"
						/>
					<path d="M16.2-23.7c-0.1-1,0-2.1,0.3-3.1c0.1-0.5,0.9-0.3,0.7,0.2c-0.3,1-0.3,1.9-0.2,2.9C17-23.3,16.3-23.3,16.2-23.7z"/>
					<path d="M21.7-22.7c0,0.5-0.8,0.5-0.8,0s0-1,0-1.5s0.8-0.5,0.8,0S21.7-23.2,21.7-22.7z"/>
				</g>
			</g>
		</g>
	</g>
</pattern>
<pattern  x="-239" y="470" width="21.7" height="27.1" patternUnits="userSpaceOnUse" id="SVGID_11_" viewBox="0 -27.1 21.7 27.1" style="overflow:visible;">
	<g>
		<polygon class="cow0" points="0,0 21.7,0 21.7,-27.1 0,-27.1 		"/>
		<g>
			<polygon class="cow0" points="0,-27.1 21.7,-27.1 21.7,0 0,0 			"/>
			<g>
				<polygon class="cow0" points="0,0 21.7,0 21.7,-27.1 0,-27.1 				"/>
				<g>
					<polygon class="cow0" points="0,-27.1 21.7,-27.1 21.7,0 0,0 					"/>
					<path d="M0.5-0.9c0.3,0.1,0.7,0.1,1,0.2C2-0.6,1.8,0.1,1.3,0C1-0.1,0.6-0.1,0.3-0.2C-0.2-0.3,0-1,0.5-0.9z"/>
					<path d="M2.4-3.4c0.3,0,0.7,0,1,0c0.5,0,0.5,0.8,0,0.8c-0.3,0-0.7,0-1,0C1.9-2.6,1.9-3.4,2.4-3.4z"/>
					<path d="M5.4-0.8c0.5-0.3,1-0.7,1.5-1c0.4-0.3,0.8,0.4,0.4,0.6c-0.5,0.3-1,0.7-1.5,1C5.4,0.1,5-0.5,5.4-0.8z"/>
					<path d="M10.8-3.3c0.4-0.1,0.6-0.4,0.7-0.8c0.1-0.5,0.8-0.3,0.7,0.2c-0.2,0.6-0.6,1.1-1.3,1.3C10.5-2.5,10.3-3.2,10.8-3.3z"/>
					<path d="M7-4.7c0-0.4,0.3-0.8,0.7-0.9C8.2-5.7,8.4-5,7.9-4.9c0,0.1-0.1,0.1-0.1,0.2C7.7-4.3,7-4.3,7-4.7z"/>
					<path d="M2.4-6.9c0.3,0,0.5,0,0.8,0c0.5,0,0.5,0.8,0,0.8c-0.3,0-0.5,0-0.8,0C1.9-6.1,1.9-6.9,2.4-6.9z"/>
					<path d="M6.2-11.8c-1.2,0.3-2.4,0.6-3.5,0.9c-0.5,0.1-0.7-0.6-0.2-0.7c1.2-0.3,2.4-0.6,3.5-0.9C6.5-12.6,6.7-11.9,6.2-11.8z"/>
					<path d="M11.7-8.7c0,0.3,0,0.5,0,0.8c0,0.5-0.8,0.5-0.8,0c0-0.3,0-0.5,0-0.8C11-9.2,11.7-9.2,11.7-8.7z"/>
					<path d="M5-8.3c0.6-0.2,1.1-0.4,1.7-0.6c0.5-0.2,0.7,0.6,0.2,0.7C6.3-8,5.8-7.8,5.2-7.6C4.8-7.4,4.6-8.1,5-8.3z"/>
					<path d="M8.6-16.4c0.3-0.4,0.9,0,0.6,0.4c-0.2,0.3-0.3,0.5-0.5,0.8c-0.3,0.4-0.9,0-0.6-0.4C8.2-15.9,8.4-16.2,8.6-16.4z"/>
					<path d="M2.3-14.5c0.4-0.3,0.9,0.2,0.5,0.5S2-13.3,1.5-13c-0.4,0.3-0.9-0.2-0.5-0.5C1.5-13.9,1.9-14.2,2.3-14.5z"/>
					<path d="M3-18.7c0-0.8,0-1.5,0-2.3c0-0.5,0.8-0.5,0.8,0c0,0.8,0,1.5,0,2.3C3.7-18.3,3-18.3,3-18.7z"/>
					<path d="M5.9-16.8c-0.2,0.4-0.5,0.8-0.7,1.3c-0.2,0.4-0.9,0-0.6-0.4c0.2-0.4,0.5-0.8,0.7-1.3C5.5-17.6,6.2-17.2,5.9-16.8z"/>
					<path d="M6.2-20.1c0.3-0.8,0.6-1.6,0.8-2.5c0.2-0.5,0.9-0.3,0.7,0.2c-0.2,0.8-0.5,1.7-0.8,2.5C6.8-19.5,6-19.6,6.2-20.1z"/>
					<path d="M10.8-20.2c0.1-0.5,0.8-0.5,0.8,0c-0.1,0.6-0.3,1.1-0.6,1.5s-0.8-0.2-0.5-0.5C10.6-19.5,10.7-19.9,10.8-20.2z"/>
					<path d="M13.5-16.6c-0.1,0.4-0.2,0.8-0.3,1.2c-0.1,0.5-0.8,0.3-0.7-0.2c0.1-0.4,0.2-0.8,0.3-1.2C12.9-17.3,13.6-17.1,13.5-16.6
						z"/>
					<path d="M17.5-11.8c0.5-0.1,0.9-0.4,1.3-0.9c0.3-0.4,0.9,0,0.6,0.4c-0.4,0.6-1,1-1.7,1.2C17.2-11,17.1-11.7,17.5-11.8z"/>
					<path d="M20.5-17c0-0.5,0-1,0-1.5s0.8-0.5,0.8,0s0,1,0,1.5C21.2-16.5,20.5-16.5,20.5-17z"/>
					<path d="M18.5-23.1c0.1-0.5,0.8-0.3,0.7,0.2c-0.1,0.4,0,0.8,0.2,1.2c0.2,0.5-0.4,0.8-0.6,0.4C18.5-21.9,18.4-22.4,18.5-23.1z"
						/>
					<path d="M15.7-17.2c0-0.2,0-0.3,0-0.5c0-0.5,0.8-0.5,0.8,0c0,0.2,0,0.3,0,0.5C16.5-16.8,15.7-16.8,15.7-17.2z"/>
					<path d="M11.1-11.7c0.5-0.8,1.4-1.3,2.3-1.2c0.5,0,0.5,0.8,0,0.8c-0.7,0-1.3,0.2-1.7,0.8C11.5-10.9,10.8-11.2,11.1-11.7z"/>
					<path d="M9.2-13.5c0,0.3,0,0.5,0,0.8c0,0.5-0.8,0.5-0.8,0c0-0.3,0-0.5,0-0.8C8.5-14,9.2-14,9.2-13.5z"/>
					<path d="M9.1-10.1c0.5,0,0.5,0.8,0,0.8S8.6-10.1,9.1-10.1z"/>
					<path d="M17-14c-0.3,0.1-0.5,0.2-0.8,0.2c-0.5,0.1-0.7-0.6-0.2-0.7c0.3-0.1,0.5-0.2,0.8-0.2C17.2-14.9,17.4-14.2,17-14z"/>
					<path d="M13.8-9.6c0.2-0.1,0.5-0.2,0.7-0.3c0.5-0.2,0.6,0.5,0.2,0.7C14.5-9.1,14.2-9,14-8.9C13.5-8.7,13.3-9.4,13.8-9.6z"/>
					<path d="M15.8-6c0.3-0.1,0.7-0.2,1-0.3c0.5-0.1,0.7,0.6,0.2,0.7c-0.3,0.1-0.7,0.2-1,0.3C15.5-5.2,15.3-5.9,15.8-6z"/>
					<path d="M20-10.8c0.3-0.4,0.8,0.2,0.5,0.5S20-9.7,19.7-9.4c-0.3,0.4-0.8-0.2-0.5-0.5S19.8-10.5,20-10.8z"/>
					<path d="M21.7-14.2c0,0.1,0,0.2,0,0.3c0,0.5-0.8,0.5-0.8,0c0-0.1,0-0.2,0-0.3C21-14.7,21.7-14.7,21.7-14.2z"/>
					<path d="M19.1-15.9c0.5,0,0.5,0.8,0,0.8S18.6-15.9,19.1-15.9z"/>
					<path d="M13.4-7.6c0.4-0.3,0.8,0.4,0.4,0.6c-0.3,0.3-0.7,0.5-1,0.8c-0.4,0.3-0.8-0.4-0.4-0.6C12.7-7.1,13.1-7.3,13.4-7.6z"/>
					<path d="M4.3-24.8c0.1-0.1,0.2-0.2,0.3-0.3c0.3-0.2,0.9,0.3,0.5,0.6C5-24.4,5-24.3,4.9-24.2C4.5-23.9,4-24.4,4.3-24.8z"/>
					<path d="M9.4-22.6c0.1-0.4,0.2-0.8,0.3-1.2c0.1-0.5,0.9-0.3,0.8,0.2c-0.1,0.4-0.2,0.8-0.3,1.2C10.1-21.9,9.3-22.1,9.4-22.6z"/>
					<path d="M14.7-23.2c-0.1,0.5-0.9,0.3-0.8-0.1c0.1-0.3,0.2-0.7,0.3-1c0.1-0.5,0.8-0.3,0.7,0.2C14.8-23.8,14.8-23.5,14.7-23.2z"
						/>
					<path d="M14.6-20.1c-0.3,0-0.5,0.2-0.5,0.5c0.1,0.5-0.6,0.7-0.7,0.2c-0.1-0.8,0.4-1.5,1.2-1.5C15.1-20.9,15.1-20.1,14.6-20.1z"
						/>
					<path d="M16.2-23.7c-0.1-1,0-2.1,0.3-3.1c0.1-0.5,0.9-0.3,0.7,0.2c-0.3,1-0.3,1.9-0.2,2.9C17-23.3,16.3-23.3,16.2-23.7z"/>
					<path d="M21.7-22.7c0,0.5-0.8,0.5-0.8,0s0-1,0-1.5s0.8-0.5,0.8,0S21.7-23.2,21.7-22.7z"/>
				</g>
			</g>
		</g>
	</g>
</pattern>
<pattern  x="-239" y="470" width="21.7" height="27.1" patternUnits="userSpaceOnUse" id="SVGID_12_" viewBox="0 -27.1 21.7 27.1" style="overflow:visible;">
	<g>
		<polygon class="cow0" points="0,0 21.7,0 21.7,-27.1 0,-27.1 		"/>
		<g>
			<polygon class="cow0" points="0,-27.1 21.7,-27.1 21.7,0 0,0 			"/>
			<g>
				<polygon class="cow0" points="0,0 21.7,0 21.7,-27.1 0,-27.1 				"/>
				<g>
					<polygon class="cow0" points="0,-27.1 21.7,-27.1 21.7,0 0,0 					"/>
					<path d="M0.5-0.9c0.3,0.1,0.7,0.1,1,0.2C2-0.6,1.8,0.1,1.3,0C1-0.1,0.6-0.1,0.3-0.2C-0.2-0.3,0-1,0.5-0.9z"/>
					<path d="M2.4-3.4c0.3,0,0.7,0,1,0c0.5,0,0.5,0.8,0,0.8c-0.3,0-0.7,0-1,0C1.9-2.6,1.9-3.4,2.4-3.4z"/>
					<path d="M5.4-0.8c0.5-0.3,1-0.7,1.5-1c0.4-0.3,0.8,0.4,0.4,0.6c-0.5,0.3-1,0.7-1.5,1C5.4,0.1,5-0.5,5.4-0.8z"/>
					<path d="M10.8-3.3c0.4-0.1,0.6-0.4,0.7-0.8c0.1-0.5,0.8-0.3,0.7,0.2c-0.2,0.6-0.6,1.1-1.3,1.3C10.5-2.5,10.3-3.2,10.8-3.3z"/>
					<path d="M7-4.7c0-0.4,0.3-0.8,0.7-0.9C8.2-5.7,8.4-5,7.9-4.9c0,0.1-0.1,0.1-0.1,0.2C7.7-4.3,7-4.3,7-4.7z"/>
					<path d="M2.4-6.9c0.3,0,0.5,0,0.8,0c0.5,0,0.5,0.8,0,0.8c-0.3,0-0.5,0-0.8,0C1.9-6.1,1.9-6.9,2.4-6.9z"/>
					<path d="M6.2-11.8c-1.2,0.3-2.4,0.6-3.5,0.9c-0.5,0.1-0.7-0.6-0.2-0.7c1.2-0.3,2.4-0.6,3.5-0.9C6.5-12.6,6.7-11.9,6.2-11.8z"/>
					<path d="M11.7-8.7c0,0.3,0,0.5,0,0.8c0,0.5-0.8,0.5-0.8,0c0-0.3,0-0.5,0-0.8C11-9.2,11.7-9.2,11.7-8.7z"/>
					<path d="M5-8.3c0.6-0.2,1.1-0.4,1.7-0.6c0.5-0.2,0.7,0.6,0.2,0.7C6.3-8,5.8-7.8,5.2-7.6C4.8-7.4,4.6-8.1,5-8.3z"/>
					<path d="M8.6-16.4c0.3-0.4,0.9,0,0.6,0.4c-0.2,0.3-0.3,0.5-0.5,0.8c-0.3,0.4-0.9,0-0.6-0.4C8.2-15.9,8.4-16.2,8.6-16.4z"/>
					<path d="M2.3-14.5c0.4-0.3,0.9,0.2,0.5,0.5S2-13.3,1.5-13c-0.4,0.3-0.9-0.2-0.5-0.5C1.5-13.9,1.9-14.2,2.3-14.5z"/>
					<path d="M3-18.7c0-0.8,0-1.5,0-2.3c0-0.5,0.8-0.5,0.8,0c0,0.8,0,1.5,0,2.3C3.7-18.3,3-18.3,3-18.7z"/>
					<path d="M5.9-16.8c-0.2,0.4-0.5,0.8-0.7,1.3c-0.2,0.4-0.9,0-0.6-0.4c0.2-0.4,0.5-0.8,0.7-1.3C5.5-17.6,6.2-17.2,5.9-16.8z"/>
					<path d="M6.2-20.1c0.3-0.8,0.6-1.6,0.8-2.5c0.2-0.5,0.9-0.3,0.7,0.2c-0.2,0.8-0.5,1.7-0.8,2.5C6.8-19.5,6-19.6,6.2-20.1z"/>
					<path d="M10.8-20.2c0.1-0.5,0.8-0.5,0.8,0c-0.1,0.6-0.3,1.1-0.6,1.5s-0.8-0.2-0.5-0.5C10.6-19.5,10.7-19.9,10.8-20.2z"/>
					<path d="M13.5-16.6c-0.1,0.4-0.2,0.8-0.3,1.2c-0.1,0.5-0.8,0.3-0.7-0.2c0.1-0.4,0.2-0.8,0.3-1.2C12.9-17.3,13.6-17.1,13.5-16.6
						z"/>
					<path d="M17.5-11.8c0.5-0.1,0.9-0.4,1.3-0.9c0.3-0.4,0.9,0,0.6,0.4c-0.4,0.6-1,1-1.7,1.2C17.2-11,17.1-11.7,17.5-11.8z"/>
					<path d="M20.5-17c0-0.5,0-1,0-1.5s0.8-0.5,0.8,0s0,1,0,1.5C21.2-16.5,20.5-16.5,20.5-17z"/>
					<path d="M18.5-23.1c0.1-0.5,0.8-0.3,0.7,0.2c-0.1,0.4,0,0.8,0.2,1.2c0.2,0.5-0.4,0.8-0.6,0.4C18.5-21.9,18.4-22.4,18.5-23.1z"
						/>
					<path d="M15.7-17.2c0-0.2,0-0.3,0-0.5c0-0.5,0.8-0.5,0.8,0c0,0.2,0,0.3,0,0.5C16.5-16.8,15.7-16.8,15.7-17.2z"/>
					<path d="M11.1-11.7c0.5-0.8,1.4-1.3,2.3-1.2c0.5,0,0.5,0.8,0,0.8c-0.7,0-1.3,0.2-1.7,0.8C11.5-10.9,10.8-11.2,11.1-11.7z"/>
					<path d="M9.2-13.5c0,0.3,0,0.5,0,0.8c0,0.5-0.8,0.5-0.8,0c0-0.3,0-0.5,0-0.8C8.5-14,9.2-14,9.2-13.5z"/>
					<path d="M9.1-10.1c0.5,0,0.5,0.8,0,0.8S8.6-10.1,9.1-10.1z"/>
					<path d="M17-14c-0.3,0.1-0.5,0.2-0.8,0.2c-0.5,0.1-0.7-0.6-0.2-0.7c0.3-0.1,0.5-0.2,0.8-0.2C17.2-14.9,17.4-14.2,17-14z"/>
					<path d="M13.8-9.6c0.2-0.1,0.5-0.2,0.7-0.3c0.5-0.2,0.6,0.5,0.2,0.7C14.5-9.1,14.2-9,14-8.9C13.5-8.7,13.3-9.4,13.8-9.6z"/>
					<path d="M15.8-6c0.3-0.1,0.7-0.2,1-0.3c0.5-0.1,0.7,0.6,0.2,0.7c-0.3,0.1-0.7,0.2-1,0.3C15.5-5.2,15.3-5.9,15.8-6z"/>
					<path d="M20-10.8c0.3-0.4,0.8,0.2,0.5,0.5S20-9.7,19.7-9.4c-0.3,0.4-0.8-0.2-0.5-0.5S19.8-10.5,20-10.8z"/>
					<path d="M21.7-14.2c0,0.1,0,0.2,0,0.3c0,0.5-0.8,0.5-0.8,0c0-0.1,0-0.2,0-0.3C21-14.7,21.7-14.7,21.7-14.2z"/>
					<path d="M19.1-15.9c0.5,0,0.5,0.8,0,0.8S18.6-15.9,19.1-15.9z"/>
					<path d="M13.4-7.6c0.4-0.3,0.8,0.4,0.4,0.6c-0.3,0.3-0.7,0.5-1,0.8c-0.4,0.3-0.8-0.4-0.4-0.6C12.7-7.1,13.1-7.3,13.4-7.6z"/>
					<path d="M4.3-24.8c0.1-0.1,0.2-0.2,0.3-0.3c0.3-0.2,0.9,0.3,0.5,0.6C5-24.4,5-24.3,4.9-24.2C4.5-23.9,4-24.4,4.3-24.8z"/>
					<path d="M9.4-22.6c0.1-0.4,0.2-0.8,0.3-1.2c0.1-0.5,0.9-0.3,0.8,0.2c-0.1,0.4-0.2,0.8-0.3,1.2C10.1-21.9,9.3-22.1,9.4-22.6z"/>
					<path d="M14.7-23.2c-0.1,0.5-0.9,0.3-0.8-0.1c0.1-0.3,0.2-0.7,0.3-1c0.1-0.5,0.8-0.3,0.7,0.2C14.8-23.8,14.8-23.5,14.7-23.2z"
						/>
					<path d="M14.6-20.1c-0.3,0-0.5,0.2-0.5,0.5c0.1,0.5-0.6,0.7-0.7,0.2c-0.1-0.8,0.4-1.5,1.2-1.5C15.1-20.9,15.1-20.1,14.6-20.1z"
						/>
					<path d="M16.2-23.7c-0.1-1,0-2.1,0.3-3.1c0.1-0.5,0.9-0.3,0.7,0.2c-0.3,1-0.3,1.9-0.2,2.9C17-23.3,16.3-23.3,16.2-23.7z"/>
					<path d="M21.7-22.7c0,0.5-0.8,0.5-0.8,0s0-1,0-1.5s0.8-0.5,0.8,0S21.7-23.2,21.7-22.7z"/>
				</g>
			</g>
		</g>
	</g>
</pattern>
<pattern  x="-239" y="470" width="21.7" height="27.1" patternUnits="userSpaceOnUse" id="SVGID_13_" viewBox="0 -27.1 21.7 27.1" style="overflow:visible;">
	<g>
		<polygon class="cow0" points="0,0 21.7,0 21.7,-27.1 0,-27.1 		"/>
		<g>
			<polygon class="cow0" points="0,-27.1 21.7,-27.1 21.7,0 0,0 			"/>
			<g>
				<polygon class="cow0" points="0,0 21.7,0 21.7,-27.1 0,-27.1 				"/>
				<g>
					<polygon class="cow0" points="0,-27.1 21.7,-27.1 21.7,0 0,0 					"/>
					<path d="M0.5-0.9c0.3,0.1,0.7,0.1,1,0.2C2-0.6,1.8,0.1,1.3,0C1-0.1,0.6-0.1,0.3-0.2C-0.2-0.3,0-1,0.5-0.9z"/>
					<path d="M2.4-3.4c0.3,0,0.7,0,1,0c0.5,0,0.5,0.8,0,0.8c-0.3,0-0.7,0-1,0C1.9-2.6,1.9-3.4,2.4-3.4z"/>
					<path d="M5.4-0.8c0.5-0.3,1-0.7,1.5-1c0.4-0.3,0.8,0.4,0.4,0.6c-0.5,0.3-1,0.7-1.5,1C5.4,0.1,5-0.5,5.4-0.8z"/>
					<path d="M10.8-3.3c0.4-0.1,0.6-0.4,0.7-0.8c0.1-0.5,0.8-0.3,0.7,0.2c-0.2,0.6-0.6,1.1-1.3,1.3C10.5-2.5,10.3-3.2,10.8-3.3z"/>
					<path d="M7-4.7c0-0.4,0.3-0.8,0.7-0.9C8.2-5.7,8.4-5,7.9-4.9c0,0.1-0.1,0.1-0.1,0.2C7.7-4.3,7-4.3,7-4.7z"/>
					<path d="M2.4-6.9c0.3,0,0.5,0,0.8,0c0.5,0,0.5,0.8,0,0.8c-0.3,0-0.5,0-0.8,0C1.9-6.1,1.9-6.9,2.4-6.9z"/>
					<path d="M6.2-11.8c-1.2,0.3-2.4,0.6-3.5,0.9c-0.5,0.1-0.7-0.6-0.2-0.7c1.2-0.3,2.4-0.6,3.5-0.9C6.5-12.6,6.7-11.9,6.2-11.8z"/>
					<path d="M11.7-8.7c0,0.3,0,0.5,0,0.8c0,0.5-0.8,0.5-0.8,0c0-0.3,0-0.5,0-0.8C11-9.2,11.7-9.2,11.7-8.7z"/>
					<path d="M5-8.3c0.6-0.2,1.1-0.4,1.7-0.6c0.5-0.2,0.7,0.6,0.2,0.7C6.3-8,5.8-7.8,5.2-7.6C4.8-7.4,4.6-8.1,5-8.3z"/>
					<path d="M8.6-16.4c0.3-0.4,0.9,0,0.6,0.4c-0.2,0.3-0.3,0.5-0.5,0.8c-0.3,0.4-0.9,0-0.6-0.4C8.2-15.9,8.4-16.2,8.6-16.4z"/>
					<path d="M2.3-14.5c0.4-0.3,0.9,0.2,0.5,0.5S2-13.3,1.5-13c-0.4,0.3-0.9-0.2-0.5-0.5C1.5-13.9,1.9-14.2,2.3-14.5z"/>
					<path d="M3-18.7c0-0.8,0-1.5,0-2.3c0-0.5,0.8-0.5,0.8,0c0,0.8,0,1.5,0,2.3C3.7-18.3,3-18.3,3-18.7z"/>
					<path d="M5.9-16.8c-0.2,0.4-0.5,0.8-0.7,1.3c-0.2,0.4-0.9,0-0.6-0.4c0.2-0.4,0.5-0.8,0.7-1.3C5.5-17.6,6.2-17.2,5.9-16.8z"/>
					<path d="M6.2-20.1c0.3-0.8,0.6-1.6,0.8-2.5c0.2-0.5,0.9-0.3,0.7,0.2c-0.2,0.8-0.5,1.7-0.8,2.5C6.8-19.5,6-19.6,6.2-20.1z"/>
					<path d="M10.8-20.2c0.1-0.5,0.8-0.5,0.8,0c-0.1,0.6-0.3,1.1-0.6,1.5s-0.8-0.2-0.5-0.5C10.6-19.5,10.7-19.9,10.8-20.2z"/>
					<path d="M13.5-16.6c-0.1,0.4-0.2,0.8-0.3,1.2c-0.1,0.5-0.8,0.3-0.7-0.2c0.1-0.4,0.2-0.8,0.3-1.2C12.9-17.3,13.6-17.1,13.5-16.6
						z"/>
					<path d="M17.5-11.8c0.5-0.1,0.9-0.4,1.3-0.9c0.3-0.4,0.9,0,0.6,0.4c-0.4,0.6-1,1-1.7,1.2C17.2-11,17.1-11.7,17.5-11.8z"/>
					<path d="M20.5-17c0-0.5,0-1,0-1.5s0.8-0.5,0.8,0s0,1,0,1.5C21.2-16.5,20.5-16.5,20.5-17z"/>
					<path d="M18.5-23.1c0.1-0.5,0.8-0.3,0.7,0.2c-0.1,0.4,0,0.8,0.2,1.2c0.2,0.5-0.4,0.8-0.6,0.4C18.5-21.9,18.4-22.4,18.5-23.1z"
						/>
					<path d="M15.7-17.2c0-0.2,0-0.3,0-0.5c0-0.5,0.8-0.5,0.8,0c0,0.2,0,0.3,0,0.5C16.5-16.8,15.7-16.8,15.7-17.2z"/>
					<path d="M11.1-11.7c0.5-0.8,1.4-1.3,2.3-1.2c0.5,0,0.5,0.8,0,0.8c-0.7,0-1.3,0.2-1.7,0.8C11.5-10.9,10.8-11.2,11.1-11.7z"/>
					<path d="M9.2-13.5c0,0.3,0,0.5,0,0.8c0,0.5-0.8,0.5-0.8,0c0-0.3,0-0.5,0-0.8C8.5-14,9.2-14,9.2-13.5z"/>
					<path d="M9.1-10.1c0.5,0,0.5,0.8,0,0.8S8.6-10.1,9.1-10.1z"/>
					<path d="M17-14c-0.3,0.1-0.5,0.2-0.8,0.2c-0.5,0.1-0.7-0.6-0.2-0.7c0.3-0.1,0.5-0.2,0.8-0.2C17.2-14.9,17.4-14.2,17-14z"/>
					<path d="M13.8-9.6c0.2-0.1,0.5-0.2,0.7-0.3c0.5-0.2,0.6,0.5,0.2,0.7C14.5-9.1,14.2-9,14-8.9C13.5-8.7,13.3-9.4,13.8-9.6z"/>
					<path d="M15.8-6c0.3-0.1,0.7-0.2,1-0.3c0.5-0.1,0.7,0.6,0.2,0.7c-0.3,0.1-0.7,0.2-1,0.3C15.5-5.2,15.3-5.9,15.8-6z"/>
					<path d="M20-10.8c0.3-0.4,0.8,0.2,0.5,0.5S20-9.7,19.7-9.4c-0.3,0.4-0.8-0.2-0.5-0.5S19.8-10.5,20-10.8z"/>
					<path d="M21.7-14.2c0,0.1,0,0.2,0,0.3c0,0.5-0.8,0.5-0.8,0c0-0.1,0-0.2,0-0.3C21-14.7,21.7-14.7,21.7-14.2z"/>
					<path d="M19.1-15.9c0.5,0,0.5,0.8,0,0.8S18.6-15.9,19.1-15.9z"/>
					<path d="M13.4-7.6c0.4-0.3,0.8,0.4,0.4,0.6c-0.3,0.3-0.7,0.5-1,0.8c-0.4,0.3-0.8-0.4-0.4-0.6C12.7-7.1,13.1-7.3,13.4-7.6z"/>
					<path d="M4.3-24.8c0.1-0.1,0.2-0.2,0.3-0.3c0.3-0.2,0.9,0.3,0.5,0.6C5-24.4,5-24.3,4.9-24.2C4.5-23.9,4-24.4,4.3-24.8z"/>
					<path d="M9.4-22.6c0.1-0.4,0.2-0.8,0.3-1.2c0.1-0.5,0.9-0.3,0.8,0.2c-0.1,0.4-0.2,0.8-0.3,1.2C10.1-21.9,9.3-22.1,9.4-22.6z"/>
					<path d="M14.7-23.2c-0.1,0.5-0.9,0.3-0.8-0.1c0.1-0.3,0.2-0.7,0.3-1c0.1-0.5,0.8-0.3,0.7,0.2C14.8-23.8,14.8-23.5,14.7-23.2z"
						/>
					<path d="M14.6-20.1c-0.3,0-0.5,0.2-0.5,0.5c0.1,0.5-0.6,0.7-0.7,0.2c-0.1-0.8,0.4-1.5,1.2-1.5C15.1-20.9,15.1-20.1,14.6-20.1z"
						/>
					<path d="M16.2-23.7c-0.1-1,0-2.1,0.3-3.1c0.1-0.5,0.9-0.3,0.7,0.2c-0.3,1-0.3,1.9-0.2,2.9C17-23.3,16.3-23.3,16.2-23.7z"/>
					<path d="M21.7-22.7c0,0.5-0.8,0.5-0.8,0s0-1,0-1.5s0.8-0.5,0.8,0S21.7-23.2,21.7-22.7z"/>
				</g>
			</g>
		</g>
	</g>
</pattern>
<pattern  x="-239" y="470" width="21.7" height="27.1" patternUnits="userSpaceOnUse" id="SVGID_14_" viewBox="0 -27.1 21.7 27.1" style="overflow:visible;">
	<g>
		<polygon class="cow0" points="0,0 21.7,0 21.7,-27.1 0,-27.1 		"/>
		<g>
			<polygon class="cow0" points="0,-27.1 21.7,-27.1 21.7,0 0,0 			"/>
			<g>
				<polygon class="cow0" points="0,0 21.7,0 21.7,-27.1 0,-27.1 				"/>
				<g>
					<polygon class="cow0" points="0,-27.1 21.7,-27.1 21.7,0 0,0 					"/>
					<path d="M0.5-0.9c0.3,0.1,0.7,0.1,1,0.2C2-0.6,1.8,0.1,1.3,0C1-0.1,0.6-0.1,0.3-0.2C-0.2-0.3,0-1,0.5-0.9z"/>
					<path d="M2.4-3.4c0.3,0,0.7,0,1,0c0.5,0,0.5,0.8,0,0.8c-0.3,0-0.7,0-1,0C1.9-2.6,1.9-3.4,2.4-3.4z"/>
					<path d="M5.4-0.8c0.5-0.3,1-0.7,1.5-1c0.4-0.3,0.8,0.4,0.4,0.6c-0.5,0.3-1,0.7-1.5,1C5.4,0.1,5-0.5,5.4-0.8z"/>
					<path d="M10.8-3.3c0.4-0.1,0.6-0.4,0.7-0.8c0.1-0.5,0.8-0.3,0.7,0.2c-0.2,0.6-0.6,1.1-1.3,1.3C10.5-2.5,10.3-3.2,10.8-3.3z"/>
					<path d="M7-4.7c0-0.4,0.3-0.8,0.7-0.9C8.2-5.7,8.4-5,7.9-4.9c0,0.1-0.1,0.1-0.1,0.2C7.7-4.3,7-4.3,7-4.7z"/>
					<path d="M2.4-6.9c0.3,0,0.5,0,0.8,0c0.5,0,0.5,0.8,0,0.8c-0.3,0-0.5,0-0.8,0C1.9-6.1,1.9-6.9,2.4-6.9z"/>
					<path d="M6.2-11.8c-1.2,0.3-2.4,0.6-3.5,0.9c-0.5,0.1-0.7-0.6-0.2-0.7c1.2-0.3,2.4-0.6,3.5-0.9C6.5-12.6,6.7-11.9,6.2-11.8z"/>
					<path d="M11.7-8.7c0,0.3,0,0.5,0,0.8c0,0.5-0.8,0.5-0.8,0c0-0.3,0-0.5,0-0.8C11-9.2,11.7-9.2,11.7-8.7z"/>
					<path d="M5-8.3c0.6-0.2,1.1-0.4,1.7-0.6c0.5-0.2,0.7,0.6,0.2,0.7C6.3-8,5.8-7.8,5.2-7.6C4.8-7.4,4.6-8.1,5-8.3z"/>
					<path d="M8.6-16.4c0.3-0.4,0.9,0,0.6,0.4c-0.2,0.3-0.3,0.5-0.5,0.8c-0.3,0.4-0.9,0-0.6-0.4C8.2-15.9,8.4-16.2,8.6-16.4z"/>
					<path d="M2.3-14.5c0.4-0.3,0.9,0.2,0.5,0.5S2-13.3,1.5-13c-0.4,0.3-0.9-0.2-0.5-0.5C1.5-13.9,1.9-14.2,2.3-14.5z"/>
					<path d="M3-18.7c0-0.8,0-1.5,0-2.3c0-0.5,0.8-0.5,0.8,0c0,0.8,0,1.5,0,2.3C3.7-18.3,3-18.3,3-18.7z"/>
					<path d="M5.9-16.8c-0.2,0.4-0.5,0.8-0.7,1.3c-0.2,0.4-0.9,0-0.6-0.4c0.2-0.4,0.5-0.8,0.7-1.3C5.5-17.6,6.2-17.2,5.9-16.8z"/>
					<path d="M6.2-20.1c0.3-0.8,0.6-1.6,0.8-2.5c0.2-0.5,0.9-0.3,0.7,0.2c-0.2,0.8-0.5,1.7-0.8,2.5C6.8-19.5,6-19.6,6.2-20.1z"/>
					<path d="M10.8-20.2c0.1-0.5,0.8-0.5,0.8,0c-0.1,0.6-0.3,1.1-0.6,1.5s-0.8-0.2-0.5-0.5C10.6-19.5,10.7-19.9,10.8-20.2z"/>
					<path d="M13.5-16.6c-0.1,0.4-0.2,0.8-0.3,1.2c-0.1,0.5-0.8,0.3-0.7-0.2c0.1-0.4,0.2-0.8,0.3-1.2C12.9-17.3,13.6-17.1,13.5-16.6
						z"/>
					<path d="M17.5-11.8c0.5-0.1,0.9-0.4,1.3-0.9c0.3-0.4,0.9,0,0.6,0.4c-0.4,0.6-1,1-1.7,1.2C17.2-11,17.1-11.7,17.5-11.8z"/>
					<path d="M20.5-17c0-0.5,0-1,0-1.5s0.8-0.5,0.8,0s0,1,0,1.5C21.2-16.5,20.5-16.5,20.5-17z"/>
					<path d="M18.5-23.1c0.1-0.5,0.8-0.3,0.7,0.2c-0.1,0.4,0,0.8,0.2,1.2c0.2,0.5-0.4,0.8-0.6,0.4C18.5-21.9,18.4-22.4,18.5-23.1z"
						/>
					<path d="M15.7-17.2c0-0.2,0-0.3,0-0.5c0-0.5,0.8-0.5,0.8,0c0,0.2,0,0.3,0,0.5C16.5-16.8,15.7-16.8,15.7-17.2z"/>
					<path d="M11.1-11.7c0.5-0.8,1.4-1.3,2.3-1.2c0.5,0,0.5,0.8,0,0.8c-0.7,0-1.3,0.2-1.7,0.8C11.5-10.9,10.8-11.2,11.1-11.7z"/>
					<path d="M9.2-13.5c0,0.3,0,0.5,0,0.8c0,0.5-0.8,0.5-0.8,0c0-0.3,0-0.5,0-0.8C8.5-14,9.2-14,9.2-13.5z"/>
					<path d="M9.1-10.1c0.5,0,0.5,0.8,0,0.8S8.6-10.1,9.1-10.1z"/>
					<path d="M17-14c-0.3,0.1-0.5,0.2-0.8,0.2c-0.5,0.1-0.7-0.6-0.2-0.7c0.3-0.1,0.5-0.2,0.8-0.2C17.2-14.9,17.4-14.2,17-14z"/>
					<path d="M13.8-9.6c0.2-0.1,0.5-0.2,0.7-0.3c0.5-0.2,0.6,0.5,0.2,0.7C14.5-9.1,14.2-9,14-8.9C13.5-8.7,13.3-9.4,13.8-9.6z"/>
					<path d="M15.8-6c0.3-0.1,0.7-0.2,1-0.3c0.5-0.1,0.7,0.6,0.2,0.7c-0.3,0.1-0.7,0.2-1,0.3C15.5-5.2,15.3-5.9,15.8-6z"/>
					<path d="M20-10.8c0.3-0.4,0.8,0.2,0.5,0.5S20-9.7,19.7-9.4c-0.3,0.4-0.8-0.2-0.5-0.5S19.8-10.5,20-10.8z"/>
					<path d="M21.7-14.2c0,0.1,0,0.2,0,0.3c0,0.5-0.8,0.5-0.8,0c0-0.1,0-0.2,0-0.3C21-14.7,21.7-14.7,21.7-14.2z"/>
					<path d="M19.1-15.9c0.5,0,0.5,0.8,0,0.8S18.6-15.9,19.1-15.9z"/>
					<path d="M13.4-7.6c0.4-0.3,0.8,0.4,0.4,0.6c-0.3,0.3-0.7,0.5-1,0.8c-0.4,0.3-0.8-0.4-0.4-0.6C12.7-7.1,13.1-7.3,13.4-7.6z"/>
					<path d="M4.3-24.8c0.1-0.1,0.2-0.2,0.3-0.3c0.3-0.2,0.9,0.3,0.5,0.6C5-24.4,5-24.3,4.9-24.2C4.5-23.9,4-24.4,4.3-24.8z"/>
					<path d="M9.4-22.6c0.1-0.4,0.2-0.8,0.3-1.2c0.1-0.5,0.9-0.3,0.8,0.2c-0.1,0.4-0.2,0.8-0.3,1.2C10.1-21.9,9.3-22.1,9.4-22.6z"/>
					<path d="M14.7-23.2c-0.1,0.5-0.9,0.3-0.8-0.1c0.1-0.3,0.2-0.7,0.3-1c0.1-0.5,0.8-0.3,0.7,0.2C14.8-23.8,14.8-23.5,14.7-23.2z"
						/>
					<path d="M14.6-20.1c-0.3,0-0.5,0.2-0.5,0.5c0.1,0.5-0.6,0.7-0.7,0.2c-0.1-0.8,0.4-1.5,1.2-1.5C15.1-20.9,15.1-20.1,14.6-20.1z"
						/>
					<path d="M16.2-23.7c-0.1-1,0-2.1,0.3-3.1c0.1-0.5,0.9-0.3,0.7,0.2c-0.3,1-0.3,1.9-0.2,2.9C17-23.3,16.3-23.3,16.2-23.7z"/>
					<path d="M21.7-22.7c0,0.5-0.8,0.5-0.8,0s0-1,0-1.5s0.8-0.5,0.8,0S21.7-23.2,21.7-22.7z"/>
				</g>
			</g>
		</g>
	</g>
</pattern>
<pattern  x="-239" y="470" width="21.7" height="27.1" patternUnits="userSpaceOnUse" id="SVGID_15_" viewBox="0 -27.1 21.7 27.1" style="overflow:visible;">
	<g>
		<polygon class="cow0" points="0,0 21.7,0 21.7,-27.1 0,-27.1 		"/>
		<g>
			<polygon class="cow0" points="0,-27.1 21.7,-27.1 21.7,0 0,0 			"/>
			<g>
				<polygon class="cow0" points="0,0 21.7,0 21.7,-27.1 0,-27.1 				"/>
				<g>
					<polygon class="cow0" points="0,-27.1 21.7,-27.1 21.7,0 0,0 					"/>
					<path d="M0.5-0.9c0.3,0.1,0.7,0.1,1,0.2C2-0.6,1.8,0.1,1.3,0C1-0.1,0.6-0.1,0.3-0.2C-0.2-0.3,0-1,0.5-0.9z"/>
					<path d="M2.4-3.4c0.3,0,0.7,0,1,0c0.5,0,0.5,0.8,0,0.8c-0.3,0-0.7,0-1,0C1.9-2.6,1.9-3.4,2.4-3.4z"/>
					<path d="M5.4-0.8c0.5-0.3,1-0.7,1.5-1c0.4-0.3,0.8,0.4,0.4,0.6c-0.5,0.3-1,0.7-1.5,1C5.4,0.1,5-0.5,5.4-0.8z"/>
					<path d="M10.8-3.3c0.4-0.1,0.6-0.4,0.7-0.8c0.1-0.5,0.8-0.3,0.7,0.2c-0.2,0.6-0.6,1.1-1.3,1.3C10.5-2.5,10.3-3.2,10.8-3.3z"/>
					<path d="M7-4.7c0-0.4,0.3-0.8,0.7-0.9C8.2-5.7,8.4-5,7.9-4.9c0,0.1-0.1,0.1-0.1,0.2C7.7-4.3,7-4.3,7-4.7z"/>
					<path d="M2.4-6.9c0.3,0,0.5,0,0.8,0c0.5,0,0.5,0.8,0,0.8c-0.3,0-0.5,0-0.8,0C1.9-6.1,1.9-6.9,2.4-6.9z"/>
					<path d="M6.2-11.8c-1.2,0.3-2.4,0.6-3.5,0.9c-0.5,0.1-0.7-0.6-0.2-0.7c1.2-0.3,2.4-0.6,3.5-0.9C6.5-12.6,6.7-11.9,6.2-11.8z"/>
					<path d="M11.7-8.7c0,0.3,0,0.5,0,0.8c0,0.5-0.8,0.5-0.8,0c0-0.3,0-0.5,0-0.8C11-9.2,11.7-9.2,11.7-8.7z"/>
					<path d="M5-8.3c0.6-0.2,1.1-0.4,1.7-0.6c0.5-0.2,0.7,0.6,0.2,0.7C6.3-8,5.8-7.8,5.2-7.6C4.8-7.4,4.6-8.1,5-8.3z"/>
					<path d="M8.6-16.4c0.3-0.4,0.9,0,0.6,0.4c-0.2,0.3-0.3,0.5-0.5,0.8c-0.3,0.4-0.9,0-0.6-0.4C8.2-15.9,8.4-16.2,8.6-16.4z"/>
					<path d="M2.3-14.5c0.4-0.3,0.9,0.2,0.5,0.5S2-13.3,1.5-13c-0.4,0.3-0.9-0.2-0.5-0.5C1.5-13.9,1.9-14.2,2.3-14.5z"/>
					<path d="M3-18.7c0-0.8,0-1.5,0-2.3c0-0.5,0.8-0.5,0.8,0c0,0.8,0,1.5,0,2.3C3.7-18.3,3-18.3,3-18.7z"/>
					<path d="M5.9-16.8c-0.2,0.4-0.5,0.8-0.7,1.3c-0.2,0.4-0.9,0-0.6-0.4c0.2-0.4,0.5-0.8,0.7-1.3C5.5-17.6,6.2-17.2,5.9-16.8z"/>
					<path d="M6.2-20.1c0.3-0.8,0.6-1.6,0.8-2.5c0.2-0.5,0.9-0.3,0.7,0.2c-0.2,0.8-0.5,1.7-0.8,2.5C6.8-19.5,6-19.6,6.2-20.1z"/>
					<path d="M10.8-20.2c0.1-0.5,0.8-0.5,0.8,0c-0.1,0.6-0.3,1.1-0.6,1.5s-0.8-0.2-0.5-0.5C10.6-19.5,10.7-19.9,10.8-20.2z"/>
					<path d="M13.5-16.6c-0.1,0.4-0.2,0.8-0.3,1.2c-0.1,0.5-0.8,0.3-0.7-0.2c0.1-0.4,0.2-0.8,0.3-1.2C12.9-17.3,13.6-17.1,13.5-16.6
						z"/>
					<path d="M17.5-11.8c0.5-0.1,0.9-0.4,1.3-0.9c0.3-0.4,0.9,0,0.6,0.4c-0.4,0.6-1,1-1.7,1.2C17.2-11,17.1-11.7,17.5-11.8z"/>
					<path d="M20.5-17c0-0.5,0-1,0-1.5s0.8-0.5,0.8,0s0,1,0,1.5C21.2-16.5,20.5-16.5,20.5-17z"/>
					<path d="M18.5-23.1c0.1-0.5,0.8-0.3,0.7,0.2c-0.1,0.4,0,0.8,0.2,1.2c0.2,0.5-0.4,0.8-0.6,0.4C18.5-21.9,18.4-22.4,18.5-23.1z"
						/>
					<path d="M15.7-17.2c0-0.2,0-0.3,0-0.5c0-0.5,0.8-0.5,0.8,0c0,0.2,0,0.3,0,0.5C16.5-16.8,15.7-16.8,15.7-17.2z"/>
					<path d="M11.1-11.7c0.5-0.8,1.4-1.3,2.3-1.2c0.5,0,0.5,0.8,0,0.8c-0.7,0-1.3,0.2-1.7,0.8C11.5-10.9,10.8-11.2,11.1-11.7z"/>
					<path d="M9.2-13.5c0,0.3,0,0.5,0,0.8c0,0.5-0.8,0.5-0.8,0c0-0.3,0-0.5,0-0.8C8.5-14,9.2-14,9.2-13.5z"/>
					<path d="M9.1-10.1c0.5,0,0.5,0.8,0,0.8S8.6-10.1,9.1-10.1z"/>
					<path d="M17-14c-0.3,0.1-0.5,0.2-0.8,0.2c-0.5,0.1-0.7-0.6-0.2-0.7c0.3-0.1,0.5-0.2,0.8-0.2C17.2-14.9,17.4-14.2,17-14z"/>
					<path d="M13.8-9.6c0.2-0.1,0.5-0.2,0.7-0.3c0.5-0.2,0.6,0.5,0.2,0.7C14.5-9.1,14.2-9,14-8.9C13.5-8.7,13.3-9.4,13.8-9.6z"/>
					<path d="M15.8-6c0.3-0.1,0.7-0.2,1-0.3c0.5-0.1,0.7,0.6,0.2,0.7c-0.3,0.1-0.7,0.2-1,0.3C15.5-5.2,15.3-5.9,15.8-6z"/>
					<path d="M20-10.8c0.3-0.4,0.8,0.2,0.5,0.5S20-9.7,19.7-9.4c-0.3,0.4-0.8-0.2-0.5-0.5S19.8-10.5,20-10.8z"/>
					<path d="M21.7-14.2c0,0.1,0,0.2,0,0.3c0,0.5-0.8,0.5-0.8,0c0-0.1,0-0.2,0-0.3C21-14.7,21.7-14.7,21.7-14.2z"/>
					<path d="M19.1-15.9c0.5,0,0.5,0.8,0,0.8S18.6-15.9,19.1-15.9z"/>
					<path d="M13.4-7.6c0.4-0.3,0.8,0.4,0.4,0.6c-0.3,0.3-0.7,0.5-1,0.8c-0.4,0.3-0.8-0.4-0.4-0.6C12.7-7.1,13.1-7.3,13.4-7.6z"/>
					<path d="M4.3-24.8c0.1-0.1,0.2-0.2,0.3-0.3c0.3-0.2,0.9,0.3,0.5,0.6C5-24.4,5-24.3,4.9-24.2C4.5-23.9,4-24.4,4.3-24.8z"/>
					<path d="M9.4-22.6c0.1-0.4,0.2-0.8,0.3-1.2c0.1-0.5,0.9-0.3,0.8,0.2c-0.1,0.4-0.2,0.8-0.3,1.2C10.1-21.9,9.3-22.1,9.4-22.6z"/>
					<path d="M14.7-23.2c-0.1,0.5-0.9,0.3-0.8-0.1c0.1-0.3,0.2-0.7,0.3-1c0.1-0.5,0.8-0.3,0.7,0.2C14.8-23.8,14.8-23.5,14.7-23.2z"
						/>
					<path d="M14.6-20.1c-0.3,0-0.5,0.2-0.5,0.5c0.1,0.5-0.6,0.7-0.7,0.2c-0.1-0.8,0.4-1.5,1.2-1.5C15.1-20.9,15.1-20.1,14.6-20.1z"
						/>
					<path d="M16.2-23.7c-0.1-1,0-2.1,0.3-3.1c0.1-0.5,0.9-0.3,0.7,0.2c-0.3,1-0.3,1.9-0.2,2.9C17-23.3,16.3-23.3,16.2-23.7z"/>
					<path d="M21.7-22.7c0,0.5-0.8,0.5-0.8,0s0-1,0-1.5s0.8-0.5,0.8,0S21.7-23.2,21.7-22.7z"/>
				</g>
			</g>
		</g>
	</g>
</pattern>
<pattern  x="-239" y="470" width="21.7" height="27.1" patternUnits="userSpaceOnUse" id="SVGID_16_" viewBox="0 -27.1 21.7 27.1" style="overflow:visible;">
	<g>
		<polygon class="cow0" points="0,0 21.7,0 21.7,-27.1 0,-27.1 		"/>
		<g>
			<polygon class="cow0" points="0,-27.1 21.7,-27.1 21.7,0 0,0 			"/>
			<g>
				<polygon class="cow0" points="0,0 21.7,0 21.7,-27.1 0,-27.1 				"/>
				<g>
					<polygon class="cow0" points="0,-27.1 21.7,-27.1 21.7,0 0,0 					"/>
					<path d="M0.5-0.9c0.3,0.1,0.7,0.1,1,0.2C2-0.6,1.8,0.1,1.3,0C1-0.1,0.6-0.1,0.3-0.2C-0.2-0.3,0-1,0.5-0.9z"/>
					<path d="M2.4-3.4c0.3,0,0.7,0,1,0c0.5,0,0.5,0.8,0,0.8c-0.3,0-0.7,0-1,0C1.9-2.6,1.9-3.4,2.4-3.4z"/>
					<path d="M5.4-0.8c0.5-0.3,1-0.7,1.5-1c0.4-0.3,0.8,0.4,0.4,0.6c-0.5,0.3-1,0.7-1.5,1C5.4,0.1,5-0.5,5.4-0.8z"/>
					<path d="M10.8-3.3c0.4-0.1,0.6-0.4,0.7-0.8c0.1-0.5,0.8-0.3,0.7,0.2c-0.2,0.6-0.6,1.1-1.3,1.3C10.5-2.5,10.3-3.2,10.8-3.3z"/>
					<path d="M7-4.7c0-0.4,0.3-0.8,0.7-0.9C8.2-5.7,8.4-5,7.9-4.9c0,0.1-0.1,0.1-0.1,0.2C7.7-4.3,7-4.3,7-4.7z"/>
					<path d="M2.4-6.9c0.3,0,0.5,0,0.8,0c0.5,0,0.5,0.8,0,0.8c-0.3,0-0.5,0-0.8,0C1.9-6.1,1.9-6.9,2.4-6.9z"/>
					<path d="M6.2-11.8c-1.2,0.3-2.4,0.6-3.5,0.9c-0.5,0.1-0.7-0.6-0.2-0.7c1.2-0.3,2.4-0.6,3.5-0.9C6.5-12.6,6.7-11.9,6.2-11.8z"/>
					<path d="M11.7-8.7c0,0.3,0,0.5,0,0.8c0,0.5-0.8,0.5-0.8,0c0-0.3,0-0.5,0-0.8C11-9.2,11.7-9.2,11.7-8.7z"/>
					<path d="M5-8.3c0.6-0.2,1.1-0.4,1.7-0.6c0.5-0.2,0.7,0.6,0.2,0.7C6.3-8,5.8-7.8,5.2-7.6C4.8-7.4,4.6-8.1,5-8.3z"/>
					<path d="M8.6-16.4c0.3-0.4,0.9,0,0.6,0.4c-0.2,0.3-0.3,0.5-0.5,0.8c-0.3,0.4-0.9,0-0.6-0.4C8.2-15.9,8.4-16.2,8.6-16.4z"/>
					<path d="M2.3-14.5c0.4-0.3,0.9,0.2,0.5,0.5S2-13.3,1.5-13c-0.4,0.3-0.9-0.2-0.5-0.5C1.5-13.9,1.9-14.2,2.3-14.5z"/>
					<path d="M3-18.7c0-0.8,0-1.5,0-2.3c0-0.5,0.8-0.5,0.8,0c0,0.8,0,1.5,0,2.3C3.7-18.3,3-18.3,3-18.7z"/>
					<path d="M5.9-16.8c-0.2,0.4-0.5,0.8-0.7,1.3c-0.2,0.4-0.9,0-0.6-0.4c0.2-0.4,0.5-0.8,0.7-1.3C5.5-17.6,6.2-17.2,5.9-16.8z"/>
					<path d="M6.2-20.1c0.3-0.8,0.6-1.6,0.8-2.5c0.2-0.5,0.9-0.3,0.7,0.2c-0.2,0.8-0.5,1.7-0.8,2.5C6.8-19.5,6-19.6,6.2-20.1z"/>
					<path d="M10.8-20.2c0.1-0.5,0.8-0.5,0.8,0c-0.1,0.6-0.3,1.1-0.6,1.5s-0.8-0.2-0.5-0.5C10.6-19.5,10.7-19.9,10.8-20.2z"/>
					<path d="M13.5-16.6c-0.1,0.4-0.2,0.8-0.3,1.2c-0.1,0.5-0.8,0.3-0.7-0.2c0.1-0.4,0.2-0.8,0.3-1.2C12.9-17.3,13.6-17.1,13.5-16.6
						z"/>
					<path d="M17.5-11.8c0.5-0.1,0.9-0.4,1.3-0.9c0.3-0.4,0.9,0,0.6,0.4c-0.4,0.6-1,1-1.7,1.2C17.2-11,17.1-11.7,17.5-11.8z"/>
					<path d="M20.5-17c0-0.5,0-1,0-1.5s0.8-0.5,0.8,0s0,1,0,1.5C21.2-16.5,20.5-16.5,20.5-17z"/>
					<path d="M18.5-23.1c0.1-0.5,0.8-0.3,0.7,0.2c-0.1,0.4,0,0.8,0.2,1.2c0.2,0.5-0.4,0.8-0.6,0.4C18.5-21.9,18.4-22.4,18.5-23.1z"
						/>
					<path d="M15.7-17.2c0-0.2,0-0.3,0-0.5c0-0.5,0.8-0.5,0.8,0c0,0.2,0,0.3,0,0.5C16.5-16.8,15.7-16.8,15.7-17.2z"/>
					<path d="M11.1-11.7c0.5-0.8,1.4-1.3,2.3-1.2c0.5,0,0.5,0.8,0,0.8c-0.7,0-1.3,0.2-1.7,0.8C11.5-10.9,10.8-11.2,11.1-11.7z"/>
					<path d="M9.2-13.5c0,0.3,0,0.5,0,0.8c0,0.5-0.8,0.5-0.8,0c0-0.3,0-0.5,0-0.8C8.5-14,9.2-14,9.2-13.5z"/>
					<path d="M9.1-10.1c0.5,0,0.5,0.8,0,0.8S8.6-10.1,9.1-10.1z"/>
					<path d="M17-14c-0.3,0.1-0.5,0.2-0.8,0.2c-0.5,0.1-0.7-0.6-0.2-0.7c0.3-0.1,0.5-0.2,0.8-0.2C17.2-14.9,17.4-14.2,17-14z"/>
					<path d="M13.8-9.6c0.2-0.1,0.5-0.2,0.7-0.3c0.5-0.2,0.6,0.5,0.2,0.7C14.5-9.1,14.2-9,14-8.9C13.5-8.7,13.3-9.4,13.8-9.6z"/>
					<path d="M15.8-6c0.3-0.1,0.7-0.2,1-0.3c0.5-0.1,0.7,0.6,0.2,0.7c-0.3,0.1-0.7,0.2-1,0.3C15.5-5.2,15.3-5.9,15.8-6z"/>
					<path d="M20-10.8c0.3-0.4,0.8,0.2,0.5,0.5S20-9.7,19.7-9.4c-0.3,0.4-0.8-0.2-0.5-0.5S19.8-10.5,20-10.8z"/>
					<path d="M21.7-14.2c0,0.1,0,0.2,0,0.3c0,0.5-0.8,0.5-0.8,0c0-0.1,0-0.2,0-0.3C21-14.7,21.7-14.7,21.7-14.2z"/>
					<path d="M19.1-15.9c0.5,0,0.5,0.8,0,0.8S18.6-15.9,19.1-15.9z"/>
					<path d="M13.4-7.6c0.4-0.3,0.8,0.4,0.4,0.6c-0.3,0.3-0.7,0.5-1,0.8c-0.4,0.3-0.8-0.4-0.4-0.6C12.7-7.1,13.1-7.3,13.4-7.6z"/>
					<path d="M4.3-24.8c0.1-0.1,0.2-0.2,0.3-0.3c0.3-0.2,0.9,0.3,0.5,0.6C5-24.4,5-24.3,4.9-24.2C4.5-23.9,4-24.4,4.3-24.8z"/>
					<path d="M9.4-22.6c0.1-0.4,0.2-0.8,0.3-1.2c0.1-0.5,0.9-0.3,0.8,0.2c-0.1,0.4-0.2,0.8-0.3,1.2C10.1-21.9,9.3-22.1,9.4-22.6z"/>
					<path d="M14.7-23.2c-0.1,0.5-0.9,0.3-0.8-0.1c0.1-0.3,0.2-0.7,0.3-1c0.1-0.5,0.8-0.3,0.7,0.2C14.8-23.8,14.8-23.5,14.7-23.2z"
						/>
					<path d="M14.6-20.1c-0.3,0-0.5,0.2-0.5,0.5c0.1,0.5-0.6,0.7-0.7,0.2c-0.1-0.8,0.4-1.5,1.2-1.5C15.1-20.9,15.1-20.1,14.6-20.1z"
						/>
					<path d="M16.2-23.7c-0.1-1,0-2.1,0.3-3.1c0.1-0.5,0.9-0.3,0.7,0.2c-0.3,1-0.3,1.9-0.2,2.9C17-23.3,16.3-23.3,16.2-23.7z"/>
					<path d="M21.7-22.7c0,0.5-0.8,0.5-0.8,0s0-1,0-1.5s0.8-0.5,0.8,0S21.7-23.2,21.7-22.7z"/>
				</g>
			</g>
		</g>
	</g>
</pattern>
<pattern  x="-239" y="470" width="21.7" height="27.1" patternUnits="userSpaceOnUse" id="SVGID_9_" viewBox="0 -27.1 21.7 27.1" style="overflow:visible;">
	<g>
		<polygon class="cow0" points="0,0 21.7,0 21.7,-27.1 0,-27.1 		"/>
		<g>
			<polygon class="cow0" points="0,-27.1 21.7,-27.1 21.7,0 0,0 			"/>
			<g>
				<polygon class="cow0" points="0,0 21.7,0 21.7,-27.1 0,-27.1 				"/>
				<g>
					<polygon class="cow0" points="0,-27.1 21.7,-27.1 21.7,0 0,0 					"/>
					<path d="M0.5-0.9c0.3,0.1,0.7,0.1,1,0.2C2-0.6,1.8,0.1,1.3,0C1-0.1,0.6-0.1,0.3-0.2C-0.2-0.3,0-1,0.5-0.9z"/>
					<path d="M2.4-3.4c0.3,0,0.7,0,1,0c0.5,0,0.5,0.8,0,0.8c-0.3,0-0.7,0-1,0C1.9-2.6,1.9-3.4,2.4-3.4z"/>
					<path d="M5.4-0.8c0.5-0.3,1-0.7,1.5-1c0.4-0.3,0.8,0.4,0.4,0.6c-0.5,0.3-1,0.7-1.5,1C5.4,0.1,5-0.5,5.4-0.8z"/>
					<path d="M10.8-3.3c0.4-0.1,0.6-0.4,0.7-0.8c0.1-0.5,0.8-0.3,0.7,0.2c-0.2,0.6-0.6,1.1-1.3,1.3C10.5-2.5,10.3-3.2,10.8-3.3z"/>
					<path d="M7-4.7c0-0.4,0.3-0.8,0.7-0.9C8.2-5.7,8.4-5,7.9-4.9c0,0.1-0.1,0.1-0.1,0.2C7.7-4.3,7-4.3,7-4.7z"/>
					<path d="M2.4-6.9c0.3,0,0.5,0,0.8,0c0.5,0,0.5,0.8,0,0.8c-0.3,0-0.5,0-0.8,0C1.9-6.1,1.9-6.9,2.4-6.9z"/>
					<path d="M6.2-11.8c-1.2,0.3-2.4,0.6-3.5,0.9c-0.5,0.1-0.7-0.6-0.2-0.7c1.2-0.3,2.4-0.6,3.5-0.9C6.5-12.6,6.7-11.9,6.2-11.8z"/>
					<path d="M11.7-8.7c0,0.3,0,0.5,0,0.8c0,0.5-0.8,0.5-0.8,0c0-0.3,0-0.5,0-0.8C11-9.2,11.7-9.2,11.7-8.7z"/>
					<path d="M5-8.3c0.6-0.2,1.1-0.4,1.7-0.6c0.5-0.2,0.7,0.6,0.2,0.7C6.3-8,5.8-7.8,5.2-7.6C4.8-7.4,4.6-8.1,5-8.3z"/>
					<path d="M8.6-16.4c0.3-0.4,0.9,0,0.6,0.4c-0.2,0.3-0.3,0.5-0.5,0.8c-0.3,0.4-0.9,0-0.6-0.4C8.2-15.9,8.4-16.2,8.6-16.4z"/>
					<path d="M2.3-14.5c0.4-0.3,0.9,0.2,0.5,0.5S2-13.3,1.5-13c-0.4,0.3-0.9-0.2-0.5-0.5C1.5-13.9,1.9-14.2,2.3-14.5z"/>
					<path d="M3-18.7c0-0.8,0-1.5,0-2.3c0-0.5,0.8-0.5,0.8,0c0,0.8,0,1.5,0,2.3C3.7-18.3,3-18.3,3-18.7z"/>
					<path d="M5.9-16.8c-0.2,0.4-0.5,0.8-0.7,1.3c-0.2,0.4-0.9,0-0.6-0.4c0.2-0.4,0.5-0.8,0.7-1.3C5.5-17.6,6.2-17.2,5.9-16.8z"/>
					<path d="M6.2-20.1c0.3-0.8,0.6-1.6,0.8-2.5c0.2-0.5,0.9-0.3,0.7,0.2c-0.2,0.8-0.5,1.7-0.8,2.5C6.8-19.5,6-19.6,6.2-20.1z"/>
					<path d="M10.8-20.2c0.1-0.5,0.8-0.5,0.8,0c-0.1,0.6-0.3,1.1-0.6,1.5s-0.8-0.2-0.5-0.5C10.6-19.5,10.7-19.9,10.8-20.2z"/>
					<path d="M13.5-16.6c-0.1,0.4-0.2,0.8-0.3,1.2c-0.1,0.5-0.8,0.3-0.7-0.2c0.1-0.4,0.2-0.8,0.3-1.2C12.9-17.3,13.6-17.1,13.5-16.6
						z"/>
					<path d="M17.5-11.8c0.5-0.1,0.9-0.4,1.3-0.9c0.3-0.4,0.9,0,0.6,0.4c-0.4,0.6-1,1-1.7,1.2C17.2-11,17.1-11.7,17.5-11.8z"/>
					<path d="M20.5-17c0-0.5,0-1,0-1.5s0.8-0.5,0.8,0s0,1,0,1.5C21.2-16.5,20.5-16.5,20.5-17z"/>
					<path d="M18.5-23.1c0.1-0.5,0.8-0.3,0.7,0.2c-0.1,0.4,0,0.8,0.2,1.2c0.2,0.5-0.4,0.8-0.6,0.4C18.5-21.9,18.4-22.4,18.5-23.1z"
						/>
					<path d="M15.7-17.2c0-0.2,0-0.3,0-0.5c0-0.5,0.8-0.5,0.8,0c0,0.2,0,0.3,0,0.5C16.5-16.8,15.7-16.8,15.7-17.2z"/>
					<path d="M11.1-11.7c0.5-0.8,1.4-1.3,2.3-1.2c0.5,0,0.5,0.8,0,0.8c-0.7,0-1.3,0.2-1.7,0.8C11.5-10.9,10.8-11.2,11.1-11.7z"/>
					<path d="M9.2-13.5c0,0.3,0,0.5,0,0.8c0,0.5-0.8,0.5-0.8,0c0-0.3,0-0.5,0-0.8C8.5-14,9.2-14,9.2-13.5z"/>
					<path d="M9.1-10.1c0.5,0,0.5,0.8,0,0.8S8.6-10.1,9.1-10.1z"/>
					<path d="M17-14c-0.3,0.1-0.5,0.2-0.8,0.2c-0.5,0.1-0.7-0.6-0.2-0.7c0.3-0.1,0.5-0.2,0.8-0.2C17.2-14.9,17.4-14.2,17-14z"/>
					<path d="M13.8-9.6c0.2-0.1,0.5-0.2,0.7-0.3c0.5-0.2,0.6,0.5,0.2,0.7C14.5-9.1,14.2-9,14-8.9C13.5-8.7,13.3-9.4,13.8-9.6z"/>
					<path d="M15.8-6c0.3-0.1,0.7-0.2,1-0.3c0.5-0.1,0.7,0.6,0.2,0.7c-0.3,0.1-0.7,0.2-1,0.3C15.5-5.2,15.3-5.9,15.8-6z"/>
					<path d="M20-10.8c0.3-0.4,0.8,0.2,0.5,0.5S20-9.7,19.7-9.4c-0.3,0.4-0.8-0.2-0.5-0.5S19.8-10.5,20-10.8z"/>
					<path d="M21.7-14.2c0,0.1,0,0.2,0,0.3c0,0.5-0.8,0.5-0.8,0c0-0.1,0-0.2,0-0.3C21-14.7,21.7-14.7,21.7-14.2z"/>
					<path d="M19.1-15.9c0.5,0,0.5,0.8,0,0.8S18.6-15.9,19.1-15.9z"/>
					<path d="M13.4-7.6c0.4-0.3,0.8,0.4,0.4,0.6c-0.3,0.3-0.7,0.5-1,0.8c-0.4,0.3-0.8-0.4-0.4-0.6C12.7-7.1,13.1-7.3,13.4-7.6z"/>
					<path d="M4.3-24.8c0.1-0.1,0.2-0.2,0.3-0.3c0.3-0.2,0.9,0.3,0.5,0.6C5-24.4,5-24.3,4.9-24.2C4.5-23.9,4-24.4,4.3-24.8z"/>
					<path d="M9.4-22.6c0.1-0.4,0.2-0.8,0.3-1.2c0.1-0.5,0.9-0.3,0.8,0.2c-0.1,0.4-0.2,0.8-0.3,1.2C10.1-21.9,9.3-22.1,9.4-22.6z"/>
					<path d="M14.7-23.2c-0.1,0.5-0.9,0.3-0.8-0.1c0.1-0.3,0.2-0.7,0.3-1c0.1-0.5,0.8-0.3,0.7,0.2C14.8-23.8,14.8-23.5,14.7-23.2z"
						/>
					<path d="M14.6-20.1c-0.3,0-0.5,0.2-0.5,0.5c0.1,0.5-0.6,0.7-0.7,0.2c-0.1-0.8,0.4-1.5,1.2-1.5C15.1-20.9,15.1-20.1,14.6-20.1z"
						/>
					<path d="M16.2-23.7c-0.1-1,0-2.1,0.3-3.1c0.1-0.5,0.9-0.3,0.7,0.2c-0.3,1-0.3,1.9-0.2,2.9C17-23.3,16.3-23.3,16.2-23.7z"/>
					<path d="M21.7-22.7c0,0.5-0.8,0.5-0.8,0s0-1,0-1.5s0.8-0.5,0.8,0S21.7-23.2,21.7-22.7z"/>
				</g>
			</g>
		</g>
	</g>
</pattern>
<g id="cow-circle">
	<path class="cow1" d="M-120.8,433.6c-0.2,0.2-2-1.5-4.6-3c-2.6-1.5-4.5-3.9-5.2-4.7c-0.7-0.9-8.1-6.7-9.1-7.6c-1.1-0.9-5.2-4-6.3-5
		c-1.1-1.1-2-1.9-2-1.9"/>
	<path class="cow1" d="M-138.1,449.5c0,0-2.4-3.2-3.7-5.8c-1.3-2.5-1.3-2.4-2.6-4.7c-1.3-2.3-2.9-4.6-3.6-6c-0.7-1.5-1.9-4.8-3.2-6.3
		c-1.2-1.5-2.4-3.6-3-4.5s-3.3-4.7-3.3-4.7"/>
	<path class="cow1" d="M-158.8,430.1c0,0,1.5,1.9,2.3,4s1.9,4.5,1.9,4.5"/>
	<path class="cow1" d="M-182.2,448.5c0,0,0.2,3.1-0.6,4.2"/>
	<path class="cow1" d="M-162.6,444.1c0,0,0.4,2.1,0.9,4.2s0.5,4,0.8,5.6"/>
	<path class="cow1" d="M-195.3,410.5c0,0-2.2,1.9-4,3.5s-3.5,2.4-4.5,3.5s-4,3.6-4.7,4.2s-2.7,2.3-3.6,3c-0.9,0.7-2.2,1.7-3.5,3.3
		c-1.3,1.6-3.8,2.8-4.5,3.4s-2.3,2-2.3,2"/>
	<path class="cow1" d="M-189.1,421.6c0,0-3,4-4.3,5.6s-1.1,3.7-2.9,6.2s-3.7,5.7-4.5,7.2c-0.8,1.4-4.4,7.7-4.4,7.7"/>
	<path class="cow1" d="M-222.1,382.1c0,0,2.6,0.5,4.8,0.9s5.4,1.1,5.4,1.1"/>
	<path class="cow1" d="M-198.9,381.4c-0.6-0.1-3.4-1.6-5-2s-3.3-0.6-4.9-1.5c-1.6-0.9-9.6-3.1-10.9-3.9c-1.4-0.8-10.5-4.8-12.3-4.8
		s-3.7-0.7-3.7-0.7"/>
	<path class="cow1" d="M-224.9,348.9c0.8,0,1-1.4,4.4,1.5s5.1,3.9,7.6,6.2c2.5,2.3,4.7,3.1,6.3,5s1.7,2.4,3.6,3.8s5.1,3.1,5.1,3.1"/>
	<path class="cow1" d="M-189.3,343.6c0,0,0.5,1.2,1.1,2.4c0.6,1.2,1,3.1,1.1,3.7s0.5,1.3,0.9,1.8"/>
	<path class="cow1" d="M-205.1,332.8c0,0.3,0.6,3.3,2,4.6c1.5,1.4,3.1,5.4,4.1,7.1s2.2,3.8,3.4,5.8s2,3.2,2.2,4.6"/>
	<path class="cow1" d="M-183.6,324.7c-0.1,0.2,0.3,3.3,0.7,5.2c0.3,1.9,0.2,2.7,0.9,4.9c0.7,2.3,1.3,2.3,1.4,5.6
		c0.1,3.3,0.2,3.8,0.5,5.2c0.2,1.3,1,7.6,1.5,8.7"/>
	<path class="cow1" d="M-160.6,325.2c0,0,0.3,3.7-0.5,6.1s-1.5,5.2-1.7,6.6c-0.2,1.5-1,8.2-1.5,9s-1.1,8.6-1.2,8.7"/>
	<path class="cow1" d="M-154.6,343.3c0,0-1.2,0.6-1.3,1.7c0,1.1-0.2,2.3-0.6,3.1c-0.4,0.8-1.9,3.2-1.8,4.2"/>
	<path class="cow1" d="M-138.6,332.8c0,0.3-1,1.9-1.8,3.2c-0.7,1.3-2.4,2.5-2.8,4c-0.4,1.5-1,2.7-1.9,4.1c-0.8,1.4-1.9,3.1-1.9,3.1"
		/>
	<path class="cow1" d="M-121.6,348.7c0,0-3.8,3.2-5,4.2s-2.8,1.5-4.2,2.8c-1.4,1.3-3.5,2-3.9,3.2s-2.2,2.1-2.8,2.9
		c-0.7,0.8-2.6,2.4-3.7,3.4c-1.1,1-3.1,3-3.3,3.5"/>
	<path class="cow1" d="M-109.9,368.7c0,0-2.4,0.5-3.9,1.1s-3.2,1.5-4.1,1.5c-1,0-1.2,0.4-1.8,0.7c-0.6,0.2-21.8,6.9-22.7,8.2"/>
	<path class="cow2" d="M-138.1,389.3c0.9,0,1.1,0.1,2.8-0.2c1.7-0.3,2.6,0,3.4,0.1c0.8,0.1,2.4,0.1,3,0.1c0.6,0,2.3,0,3,0
		s1.8-0.3,2.5,0s2,0.7,2.5,0.6s2-0.3,3-0.5c1-0.1,2.8,0.1,3.2,0c0.4-0.1,1.8-0.1,2.3-0.3c0.5-0.2,1.8-0.2,2.3,0
		c0.4,0.2,1.7,0.3,1.7,0.3"/>
	<path class="cow2" d="M-144.6,400c0.3,0,1.3,0.6,1.9,0.8c0.6,0.2,1.9,0.7,2.2,0.8c0.3,0.1,0.9,0.5,1.4,0.6s1.6,0.2,1.8,0.4
		c0.2,0.2,1.3,0.8,1.8,1.1c0.5,0.3,5.1,1.9,6.4,2c1.3,0.1,4.3,1.5,5.2,1.9c1,0.4,3,1.4,3.9,1.6s3.3,1.4,3.9,1.5s3.6,1.1,3.6,1.1"/>
	<path class="cow2" d="M-138.6,410c0.1,0,1.7,0.8,2.1,1c0.4,0.2,0.8,0.5,1.2,0.7s2,1.5,2.4,1.8c0.4,0.3,1.5,0.4,1.5,0.4"/>
	<path class="cow2" d="M-150.9,408.9c0,0,1.8,1.5,2.9,2.5c1.2,1,1.6,1.3,2.5,2.4s3.4,2,3.8,2.5c0.4,0.6,3.4,2.7,3.9,3.5
		s4.4,3.6,5.4,4.5s2.9,2.4,3.5,2.9c0.6,0.5,3.6,3,4.1,3.4c0.5,0.5,2.3,2,2.3,2"/>
	<path class="cow2" d="M-145.6,423.4c0,0,1,1.1,1.1,1.3c0.1,0.1,0.5,1,1.1,1.5"/>
	<path class="cow2" d="M-156.9,419.8c0,0,1.7,1.9,2.6,3.6c0.9,1.7,2.7,4.8,3.3,5.8c0.6,1.1,1,2.4,1.8,3.5c0.9,1.1,2.1,3.2,2.7,4.3
		c0.6,1.1,1.3,2.2,2,3.5s1.8,3,2.5,4.2s1.3,2,1.3,2.2"/>
	<path class="cow2" d="M-163.9,447c0,0,0.8,1.4,0.6,2.2c-0.1,0.8-0.3,1.1,0,2.2s0.5,2.1,0.6,2.7"/>
	<path class="cow2" d="M-183.9,446.4c0,0-0.7,0.7-0.9,2.1s0.1,2.4-0.3,3.3"/>
	<path class="cow2" d="M-207.6,446.7c0,0,1.8-2.3,2.6-3.8c0.9-1.5,1.6-3.7,2.3-4.7s1.2-1.3,1.7-2.2s2.8-4.9,3.8-6.6s1.4-2.4,1.9-3.3
		c0.5-1,1.5-1.3,1.7-3s2.2-3.8,2.5-4.3"/>
	<path class="cow2" d="M-197.4,408.8c0,0-0.9,0.9-1.9,1.7c-1,0.8-3.2,1.9-3.8,2.7c-0.5,0.8-1.3,2.2-2.1,2.5c-0.9,0.4-3.7,3.1-4.7,3.6
		s-5.1,3.4-5.7,4.4c-0.7,1-1.5,1.6-2.4,2.4s-5.5,4.9-5.5,4.9"/>
	<path class="cow2" d="M-235.8,411.8c0,0,3.9-1.7,7-2.5s6.9-2.5,8.2-3c1.2-0.5,4.3-1.1,4.8-1.5s3.1-1.4,3.9-1.7
		c0.8-0.3,4.6-1.7,4.9-1.8"/>
	<path class="cow2" d="M-210.8,410.5c0,0-1.4,0.4-2.1,1.2c-0.7,0.8-2.4,1.4-3.1,1.8"/>
	<path class="cow2" d="M-215.8,396.3c0,0,0.4-0.1-2,0.7c-2.4,0.9-3,0.2-4.3,0.9"/>
	<path class="cow2" d="M-239.1,389.3c0,0,3-0.4,6.9,0s7.7,0,9,0s4.7-0.3,5.8,0s4.1,0,4.6,0"/>
	<path class="cow2" d="M-216.1,381.9c0,0-1.1-0.2-2.9-0.3c-1.8-0.2-3-0.7-3.8-0.7"/>
	<path class="cow2" d="M-230.6,368.8c0,0-0.8-0.7-2.5-0.9s-2.2-0.6-2.7-1"/>
	<path class="cow2" d="M-132.8,382.1c0,0,1.1-0.8,2.3-0.7c1.2,0.1,1.4,0.4,2.5-0.1"/>
	<path class="cow2" d="M-111.9,366.5c0,0,0.2-0.2-1,0.4s-2.1,1-2.6,1c-0.5,0.1-2,0.7-2,0.7"/>
	<path class="cow2" d="M-123.6,347.2c0,0-4,3.2-5.4,4.4c-1.4,1.2-3.1,2-4.1,3s-2,2.1-2.9,2.9s-2.3,1.9-2.9,2.4
		c-0.6,0.5-1.8,1.9-2.4,2.5c-0.6,0.5-4.2,3.1-4.9,3.7s-1,1.2-1,1.2"/>
	<path class="cow2" d="M-141.9,350.8c0,0-0.2,0.5-1.1,1.6c-1,1.1-1.3,2.2-2,2.7s-1.3,1.2-1.3,1.2"/>
	<path class="cow2" d="M-141.1,332c-0.1,0.4-2.2,3.3-3,5s-1.1,3.5-1.7,3.9c-0.6,0.4-1.8,3.6-2.4,4.1c-0.6,0.6-3,4.7-3,4.7"/>
	<path class="cow2" d="M-157.2,342.6c-0.2,0.1-0.9,0.9-0.9,2c-0.1,1.1-0.7,2.8-1,3.6"/>
	<path class="cow2" d="M-162.8,324.5c0,0-0.9,3-1.1,5.7c-0.2,2.7-0.5,4.2-0.9,6.6s-1.1,6.5-1.3,7.1c-0.1,0.6-1.1,2.5-1.1,3.1
		s-0.3,1.9-0.3,2.8"/>
	<path class="cow2" d="M-173.9,339.9c0,0,0.3,0.4-0.2,2.3s-0.2,2-0.2,3.2"/>
	<path class="cow2" d="M-185.6,324.5c0,0,0.2,3.6,0.8,5.8c0.6,2.2,0.2-0.2,1.2,5.5s1.2,7.1,1.4,8.2s0.2,3.3,0.6,4.5
		c0.4,1.2,0.7,2.8,0.7,3"/>
	<path class="cow2" d="M-191.1,342.9c0,0-0.5,0.8,0.4,2.1c0.9,1.4,1.1,1.2,1.3,2.4"/>
	<path class="cow2" d="M-196.4,350.9c0,0-1.2-2.3-2.4-4.4s-2-3.5-2.2-3.9c-0.2-0.3-1-1.8-1.3-2.2c-0.2-0.4-1-1.6-1.8-2.5
		s-1.5-1.9-1.5-2.5s-1-2.4-1-2.4"/>
	<g>
		<g>
			<g>
				<line class="cow2" x1="-210.6" y1="389.3" x2="-239.9" y2="389.3"/>
				<line class="cow2" x1="-137.6" y1="389.3" x2="-108.2" y2="389.3"/>
				<line class="cow2" x1="-205.1" y1="400.6" x2="-236.1" y2="411.9"/>
				<line class="cow2" x1="-112.2" y1="366.8" x2="-144.6" y2="378.5"/>
				<line class="cow2" x1="-123.6" y1="347" x2="-149.9" y2="369.1"/>
				<line class="cow2" x1="-197.8" y1="409.2" x2="-224.6" y2="431.7"/>
				<line class="cow2" x1="-189.4" y1="415.8" x2="-207.1" y2="446.4"/>
				<line class="cow2" x1="-141.1" y1="332.3" x2="-158.3" y2="362.1"/>
				<line class="cow2" x1="-162.6" y1="324.5" x2="-167.6" y2="352.1"/>
				<line class="cow2" x1="-185.6" y1="454.2" x2="-180.3" y2="424.5"/>
				<line class="cow2" x1="-167.9" y1="424.5" x2="-162.6" y2="454.2"/>
				<line class="cow2" x1="-180.6" y1="352.7" x2="-185.6" y2="324.5"/>
				<line class="cow2" x1="-207.1" y1="332.3" x2="-189.8" y2="362.2"/>
				<line class="cow2" x1="-141.1" y1="446.4" x2="-158.9" y2="415.8"/>
				<line class="cow2" x1="-123.6" y1="431.7" x2="-150.6" y2="409.3"/>
				<line class="cow2" x1="-223.6" y1="347" x2="-197.1" y2="369.2"/>
				<line class="cow2" x1="-236.1" y1="366.8" x2="-203.4" y2="378.6"/>
				<line class="cow2" x1="-112.2" y1="411.9" x2="-143.3" y2="400.5"/>
			</g>
			<line class="cow2" x1="-125.4" y1="380.8" x2="-131.9" y2="381.9"/>
			<line class="cow2" x1="-222.8" y1="397.9" x2="-215.8" y2="396.7"/>
			<line class="cow2" x1="-216.9" y1="414" x2="-210.8" y2="410.5"/>
			<line class="cow2" x1="-131.4" y1="364.6" x2="-137.1" y2="367.9"/>
			<line class="cow2" x1="-146.6" y1="356.6" x2="-142.3" y2="351.5"/>
			<line class="cow2" x1="-205.8" y1="427.2" x2="-203.1" y2="423.8"/>
			<line class="cow2" x1="-159.6" y1="349.2" x2="-157.2" y2="342.9"/>
			<line class="cow2" x1="-191.1" y1="435.8" x2="-188.6" y2="429.3"/>
			<path class="cow2" d="M-174.1,438.8"/>
			<line class="cow2" x1="-174.1" y1="339.9" x2="-174.1" y2="346.8"/>
			<line class="cow2" x1="-159.6" y1="429.4" x2="-157.2" y2="435.8"/>
			<line class="cow2" x1="-191.1" y1="342.9" x2="-188.6" y2="349.4"/>
			<line class="cow2" x1="-201.3" y1="356.8" x2="-205.8" y2="351.5"/>
			<line class="cow2" x1="-145.3" y1="423.7" x2="-142.3" y2="427.2"/>
			<line class="cow2" x1="-216.9" y1="364.6" x2="-210.8" y2="368.1"/>
			<line class="cow2" x1="-131.4" y1="414" x2="-137.1" y2="410.7"/>
			<line class="cow2" x1="-125.4" y1="397.9" x2="-131.9" y2="396.8"/>
			<line class="cow2" x1="-222.8" y1="380.8" x2="-215.8" y2="382"/>
			<line class="cow2" x1="-133.9" y1="404" x2="-133.9" y2="404"/>
			<line class="cow2" x1="-152.8" y1="352.4" x2="-152.8" y2="352.4"/>
			<line class="cow2" x1="-181.6" y1="431.2" x2="-181.6" y2="431.2"/>
			<line class="cow2" x1="-166.8" y1="347.4" x2="-166.8" y2="347.4"/>
			<line class="cow2" x1="-141.3" y1="361.9" x2="-141.3" y2="361.9"/>
			<line class="cow2" x1="-195.3" y1="426.1" x2="-195.3" y2="426.1"/>
			<line class="cow2" x1="-213.9" y1="403.8" x2="-213.9" y2="403.8"/>
			<line class="cow2" x1="-206.6" y1="362.1" x2="-206.6" y2="362.1"/>
			<line class="cow2" x1="-213.9" y1="374.8" x2="-213.9" y2="374.8"/>
			<line class="cow2" x1="-152.8" y1="426.3" x2="-152.8" y2="426.3"/>
			<line class="cow2" x1="-166.8" y1="431.3" x2="-166.8" y2="431.3"/>
			<line class="cow2" x1="-206.6" y1="416.6" x2="-206.6" y2="416.6"/>
			<line class="cow2" x1="-195.3" y1="352.6" x2="-195.3" y2="352.6"/>
			<line class="cow2" x1="-133.9" y1="374.7" x2="-133.9" y2="374.7"/>
			<line class="cow2" x1="-181.6" y1="347.4" x2="-181.6" y2="347.4"/>
		</g>
		<g>
			<g>
				<line class="cow1" x1="-208.6" y1="391" x2="-237.9" y2="391"/>
				<line class="cow1" x1="-135.6" y1="391" x2="-106.2" y2="391"/>
				<line class="cow1" x1="-203.1" y1="402.3" x2="-234.1" y2="413.6"/>
				<line class="cow1" x1="-110.2" y1="368.5" x2="-142.6" y2="380.2"/>
				<line class="cow1" x1="-121.6" y1="348.7" x2="-147.9" y2="370.8"/>
				<line class="cow1" x1="-195.8" y1="410.9" x2="-222.6" y2="433.4"/>
				<line class="cow1" x1="-187.4" y1="417.5" x2="-205.1" y2="448.1"/>
				<line class="cow1" x1="-139.1" y1="334" x2="-156.3" y2="363.8"/>
				<line class="cow1" x1="-160.6" y1="326.2" x2="-165.6" y2="353.8"/>
				<line class="cow1" x1="-183.6" y1="455.9" x2="-178.3" y2="426.2"/>
				<line class="cow1" x1="-165.9" y1="426.2" x2="-160.6" y2="455.9"/>
				<line class="cow1" x1="-178.6" y1="354.4" x2="-183.6" y2="326.2"/>
				<line class="cow1" x1="-205.1" y1="334" x2="-187.8" y2="363.9"/>
				<line class="cow1" x1="-139.1" y1="448.1" x2="-156.9" y2="417.5"/>
				<line class="cow1" x1="-121.6" y1="433.4" x2="-148.6" y2="411"/>
				<line class="cow1" x1="-222.6" y1="348.7" x2="-196.1" y2="370.9"/>
				<line class="cow1" x1="-234.1" y1="368.5" x2="-201.4" y2="380.3"/>
				<line class="cow1" x1="-110.2" y1="413.6" x2="-141.3" y2="402.2"/>
			</g>
			<line class="cow1" x1="-123.4" y1="382.4" x2="-129.9" y2="383.6"/>
			<line class="cow1" x1="-220.8" y1="399.6" x2="-213.8" y2="398.4"/>
			<line class="cow1" x1="-214.9" y1="415.7" x2="-208.8" y2="412.2"/>
			<line class="cow1" x1="-129.4" y1="366.3" x2="-135.1" y2="369.6"/>
			<line class="cow1" x1="-144.6" y1="358.3" x2="-140.3" y2="353.2"/>
			<line class="cow1" x1="-203.8" y1="428.9" x2="-201.1" y2="425.5"/>
			<line class="cow1" x1="-157.6" y1="350.9" x2="-155.2" y2="344.6"/>
			<line class="cow1" x1="-189.1" y1="437.5" x2="-186.6" y2="431"/>
			<line class="cow1" x1="-172.1" y1="440.5" x2="-172.1" y2="433.6"/>
			<line class="cow1" x1="-172.1" y1="341.6" x2="-172.1" y2="348.5"/>
			<line class="cow1" x1="-157.6" y1="431.1" x2="-155.2" y2="437.5"/>
			<line class="cow1" x1="-189.1" y1="344.6" x2="-186.6" y2="351.1"/>
			<line class="cow1" x1="-199.3" y1="358.5" x2="-203.8" y2="353.2"/>
			<line class="cow1" x1="-143.3" y1="425.4" x2="-140.3" y2="428.9"/>
			<line class="cow1" x1="-214.9" y1="366.3" x2="-208.8" y2="369.8"/>
			<line class="cow1" x1="-129.4" y1="415.7" x2="-135.1" y2="412.4"/>
			<line class="cow1" x1="-123.4" y1="399.6" x2="-129.9" y2="398.5"/>
			<line class="cow1" x1="-220.8" y1="382.4" x2="-213.8" y2="383.7"/>
			<line class="cow1" x1="-131.9" y1="405.7" x2="-131.9" y2="405.7"/>
			<line class="cow1" x1="-150.8" y1="354.1" x2="-150.8" y2="354.1"/>
			<line class="cow1" x1="-179.6" y1="432.9" x2="-179.6" y2="432.9"/>
			<line class="cow1" x1="-164.8" y1="349.1" x2="-164.8" y2="349.1"/>
			<line class="cow1" x1="-139.3" y1="363.6" x2="-139.3" y2="363.6"/>
			<line class="cow1" x1="-193.3" y1="427.8" x2="-193.3" y2="427.8"/>
			<line class="cow1" x1="-211.9" y1="405.5" x2="-211.9" y2="405.5"/>
			<line class="cow1" x1="-204.6" y1="363.8" x2="-204.6" y2="363.8"/>
			<line class="cow1" x1="-211.9" y1="376.5" x2="-211.9" y2="376.5"/>
			<line class="cow1" x1="-150.8" y1="428" x2="-150.8" y2="428"/>
			<line class="cow1" x1="-164.8" y1="433" x2="-164.8" y2="433"/>
			<line class="cow1" x1="-204.6" y1="418.3" x2="-204.6" y2="418.3"/>
			<line class="cow1" x1="-193.3" y1="354.3" x2="-193.3" y2="354.3"/>
			<line class="cow1" x1="-131.9" y1="376.4" x2="-131.9" y2="376.4"/>
			<line class="cow1" x1="-179.6" y1="349.1" x2="-179.6" y2="349.1"/>
		</g>
	</g>
	<g>
		<path d="M-158.1,351.5L-158.1,351.5 M-156.1,352.5L-156.1,352.5 M-156.6,353.7L-156.6,353.7 M-156.8,355L-156.8,355 M-150.8,356
			L-150.8,356 M-151.8,356.1L-151.8,356.1 M-153.6,357.6L-153.6,357.6 M-154.6,357.9L-154.6,357.9 M-150.1,359.2L-150.1,359.2
			 M-148.6,359.6L-148.6,359.6"/>
	</g>
	<path class="cow2" d="M-167.9,442.6"/>
	<path class="cow1" d="M-136.3,390.8c0.7,0.2,5.1-0.2,7,0c1.9,0.2,2.8,0.2,6,0.2s6-0.8,8,0s6.9,0,8,0"/>
	<path class="cow1" d="M-130.8,398.5c0.7,0,2.1,0.2,3.4,0.5c1.3,0.3,3.1,0.8,3.6,0.6"/>
	<path class="cow1" d="M-131.4,384c0,0,0.7-0.2,3.5-0.9c2.8-0.7,4.8-0.6,4.8-0.6"/>
	<path class="cow1" d="M-139.9,352.4c-0.4,0.8-0.5,0.9-1.6,2.2c-1.1,1.3-1.7,2.4-2.6,3.1"/>
	<path class="cow1" d="M-172.1,340.3c0,0.1,0,1,0,2.6s0,3.5,0,4.6s-0.4,2.2-0.3,2.3"/>
	<path class="cow1" d="M-239.6,391.9c0,0,0.6-1.1,4.4-1.1c3.8,0,6.2,0.2,9,0.2s5.2,0.3,6.6,0.3s3.3-0.3,5.2-0.6c1.8-0.2,6,0.2,6,0.2"
		/>
	<path class="cow1" d="M-212.9,397.9c-0.2,0.1-2.6,0-3.2,0.5c-0.5,0.5-1.6,0.7-2.5,0.8"/>
	<path class="cow1" d="M-201.9,401.7c0,0-3.1,1.3-4.6,1.9s-4.5,1.4-5.7,1.9c-1.2,0.6-5.1,1.4-6.7,2.6c-1.6,1.2-1.6,1.4-3.8,1.8
		s-3.6,0.9-5.5,1.6s-5.8,2.5-5.8,2.5"/>
	<path class="cow1" d="M-207.9,412c-0.4,0.2-0.7,0.6-2.1,1.2c-1.4,0.5-3.6,0.9-3.9,1.5"/>
	<path class="cow1" d="M-200.8,424.8c-0.2,0.1-0.8,1.2-1.8,2c-0.9,0.8-1.8,2.4-2,2.7"/>
	<path class="cow1" d="M-139.8,429.4c-0.3-0.2-0.1-1.5-1.6-2.1c-1.4-0.6-2.2-1.9-2.2-1.9"/>
	<path class="cow1" d="M-136.1,412.4c0.2,0.1,1.3,0.2,2.5,0.9s2.3,1.3,3.3,1.9"/>
	<path class="cow1" d="M-142.8,401.6c0,0,3.8,1.4,5.7,2.1s5.7,2.6,7.1,2.9c1.5,0.3,3.6,0.6,5.6,1.8c2.1,1.2,4.2,2.3,5.2,2.3
		s4.7,1.3,6.1,1.8"/>
	<path class="cow2" d="M-167.1,435.7c-0.5,4.2-0.2,4.4-0.2,7"/>
</g>
<g id="cow-chin">
	<path class="cow3" d="M-158.9,440.3c-1.8,4.4-4.3,14.8-13.1,14.6c-8.8,0.3-11.3-10.2-13.1-14.6c3.5-0.4,8.3-0.6,13-0.7
		C-167.3,439.7-162.4,439.8-158.9,440.3L-158.9,440.3z"/>
	<path class="cow2" d="M-159.9,442.6c0,0,0.2,1.7-0.9,2.8s-1.5,2-1.7,2.9s-0.6,1.7-1.2,2.4c-0.6,0.7-1.5,2.2-2.2,2.3"/>
	<path class="cow2" d="M-177.4,453.7c0,0-1.8-0.7-2.4-2.2c-0.6-1.5-1.4-1.9-1.7-2.5s-1.3-2.5-1.6-3.2s-1.4-2.7-1.1-2.8"/>
</g>
<g id="cow-tongue">
	<path class="cow4" d="M-175.8,444.1c2.1,7.7-4.7,17.3-4.7,17.3c-0.8,1.4,0.7,5.2,1.6,6.2c0.5,0.6,1.1,1.1,1.8,1.3
		c3.2,1.1,7.1-2.5,8.7-4.9c0.1-0.2,1.4-2,1.8-3.8c0.1-0.6,0.3-1.7,0.4-2.5c0-0.3,0.1-0.5,0.1-0.8c0-0.4,0.1-0.9,0.1-1.8
		c0-0.6,0-1.3,0-2.2c-0.1-0.5-0.1-1-0.1-1.4c0-0.5,0.1-0.6,0.1-1.1c0-0.2,0-0.5-0.1-1.3c-0.1-0.9-0.2-1.6-0.2-1.6
		c-0.5-3.1-0.5-3.4-0.8-3.6c-0.2-0.1-0.3-0.1-1.9,0.1c-1.9,0.3-2.3,0.4-2.9,0.4c-0.2,0-0.9-0.1-2.2-0.2c-0.4-0.1-0.8-0.1-1-0.1"/>
	<path class="cow4" d="M-166.9,443.9c0,0,4.3,18.8-4.9,23.8"/>
	<path class="cow5" d="M-171.4,467.6c2.2-1.1,2.2-1.6,2.9-2.8c0.7-1.3,1.3-1.2,1.5-3.1c0.1-1.9,0.1-2.7,0.4-3.5"/>
	<path class="cow5" d="M-178.3,457.3c-0.3,0.6-0.8,1.8-1.3,2.7c-0.5,0.9-1,1-0.9,2.4s0.5,2.4,0.6,3.5s0.7,1.9,1.5,2.4"/>
	<path class="cow2" d="M-166.6,457.4c0.3-0.8,0.4-2.5,0.6-3.5c0.2-1,0.2-2.1,0.1-3c-0.1-0.9-0.3-1.4-0.2-2.7c0.1-1.3-0.3-2.4-0.4-3
		c-0.1-0.6-0.4-1.9-0.4-1.9"/>
	<path class="cow2" d="M-178.3,467.5c0.8,0.5,1.9,1.2,2.8,1c0.8-0.3,2-0.6,4.2-1.7"/>
	<path class="cow2" d="M-175.6,443.4c0,0-0.5,1.6-0.3,2.9s0.4,2.5,0,3.5s-0.3,3.2-1,4.1s-1.1,2-1.4,2.6"/>
</g>
<g id="cow">
	<g>
		<g>
			<path class="cow1" d="M-156.8,430.3c0,0,1.5,1.9,2.3,4"/>
			<g>
				<g>
					<line class="cow2" x1="-129.4" y1="364.8" x2="-135.1" y2="368.1"/>
					<line class="cow2" x1="-189.1" y1="436" x2="-186.8" y2="429.5"/>
					<line class="cow2" x1="-172.2" y1="439" x2="-172.2" y2="432.1"/>
					<line class="cow2" x1="-157.6" y1="429.6" x2="-155.3" y2="436"/>
					<line class="cow2" x1="-199.4" y1="357" x2="-203.9" y2="351.7"/>
					<line class="cow2" x1="-215.1" y1="364.8" x2="-208.9" y2="368.3"/>
					<line class="cow2" x1="-150.8" y1="352.6" x2="-150.8" y2="352.6"/>
					<line class="cow2" x1="-179.6" y1="431.4" x2="-179.6" y2="431.4"/>
					<line class="cow2" x1="-212.1" y1="375" x2="-212.1" y2="375"/>
					<line class="cow2" x1="-164.8" y1="431.5" x2="-164.8" y2="431.5"/>
					<line class="cow2" x1="-193.4" y1="352.8" x2="-193.4" y2="352.8"/>
					<line class="cow2" x1="-132" y1="374.9" x2="-132" y2="374.9"/>
				</g>
				<g>
					<line class="cow1" x1="-127.4" y1="366.5" x2="-133.1" y2="369.8"/>
					<line class="cow1" x1="-187.1" y1="437.7" x2="-184.8" y2="431.2"/>
					<line class="cow1" x1="-170.2" y1="440.7" x2="-170.2" y2="433.8"/>
					<path class="cow1" d="M-155.6,431.3"/>
					<line class="cow1" x1="-197.4" y1="358.7" x2="-201.9" y2="353.4"/>
					<line class="cow1" x1="-213.1" y1="366.5" x2="-206.9" y2="370"/>
					<path class="cow1" d="M-211.9,383.9"/>
					<line class="cow1" x1="-148.8" y1="354.3" x2="-148.8" y2="354.3"/>
					<line class="cow1" x1="-177.6" y1="433.1" x2="-177.6" y2="433.1"/>
					<line class="cow1" x1="-210.1" y1="376.7" x2="-210.1" y2="376.7"/>
					<line class="cow1" x1="-162.8" y1="433.2" x2="-162.8" y2="433.2"/>
					<line class="cow1" x1="-191.4" y1="354.5" x2="-191.4" y2="354.5"/>
					<line class="cow1" x1="-130" y1="376.6" x2="-130" y2="376.6"/>
				</g>
			</g>
			<path class="cow4" d="M-176.6,442.7"/>
			<path class="cow4" d="M-172.3,467.5"/>
			<path class="cow4" d="M-167.4,443.7"/>
			<path class="cow3" d="M-151.6,365.8c9.4,3.8,19.9,0.8,30.9-5.4c11.1,3,3,12.9-0.5,16.6c-8.4,8.8-19,2.2-26.2-0.2
				C-147.4,376.8-151.6,365.6-151.6,365.8L-151.6,365.8z"/>
			<path class="cow6" d="M-163.4,439.6c-1.2,2.9-2.9,4.8-8.8,4.6c-5.9,0.2-7.6-1.7-8.8-4.6c2.4-0.3,5.6-0.4,8.7-0.4
				C-169.1,439.2-165.8,439.3-163.4,439.6L-163.4,439.6z"/>
			<path class="cow3" d="M-192.8,365.8c-9.4,3.8-19.9,0.8-30.9-5.4c-11.1,3-3,12.9,0.5,16.6c8.4,8.8,18.9,2.2,26.2-0.2
				C-196.9,376.8-192.8,365.6-192.8,365.8L-192.8,365.8z"/>
			<path class="cow7" d="M-164.1,357.3c6.3-2.3,12-4.8,16.1-8c2-2.8,8.6-2.9,4.9,3.8c-2.5,4.7-5.3,7.7-8.2,10.9
				c-3.6-0.3-7.1-0.5-10.7-0.8C-162.1,363.3-164.1,357-164.1,357.3L-164.1,357.3z"/>
			<path class="cow3" d="M-172.2,358.6c-4.8-0.5-6.2-1.5-7.4-3.3c-2.2,2.1-5.4,3.9-10,2.2c-1.4,1.7-2.1,4.2-3.1,5.7
				c-1.4,2.1-2.6,3.9-3.7,6.1c-4.9,8.9-4.5,17.2-1.2,24.8c1.3,3,1.4,10.5,2.5,14.1c1.8,6.1,5.3,6.5,5.8,14
				c1.4,20.9,7.9,17.3,17.3,14.3c10,2.7,15.7,6.6,17-14.3c0.5-7.5,4-7.8,5.8-14c1-3.7,1.1-11.1,2.5-14.1c3.3-7.5,3.7-15.9-1.2-24.8
				c-1.1-2.2-2.3-4-3.7-6.1c-1-1.5-1.8-4-3.1-5.7c-4.6,1.7-7.8-0.2-10-2.2C-165.9,357.1-167.4,358.1-172.2,358.6L-172.2,358.6z"/>
			<path class="cow7" d="M-181.6,357.3c-6.3-2.3-12-4.8-16.1-8c-2.1-2.8-8.6-2.9-4.9,3.8c2.5,4.7,5.3,7.7,8.2,10.9
				c3.6-0.3,7.1-0.5,10.7-0.8C-183.6,363.3-181.6,357-181.6,357.3L-181.6,357.3z"/>
			<g>
				<path class="cow8" d="M-185.1,428.8c-0.1,0-0.2-0.1-0.2-0.2c-0.5-1.3-0.6-2.9-0.6-4.9v-0.1c1.9-3.2,5-11.3,3.8-29.4
					c-0.7-9.8-8.6-15-17-19.1c-0.1,0-0.2-0.2-0.1-0.3c0.2-1.4,0.6-2.6,1-3.7c0.8-2,1.7-3.7,2.9-5.6c0,0,0-0.1-0.1-0.1v-0.3
					c0-0.1-0.1-0.2-0.1-0.2c0-0.1,0-0.2,0-0.3l0,0l-0.1-0.1c-0.1-0.1,0-0.3,0.1-0.3v-0.1c-0.1-1-0.6-2.4-2.4-3.8
					c-0.1-0.1-0.1-0.2-0.1-0.3c0-0.1,0.1-0.1,0.2-0.1h0.1c0.6,0.3,1.2,0.7,1.7,1.1c-0.2-0.3-0.3-0.7-0.5-1.1c0-0.1,0-0.3,0.1-0.3
					h0.1c0.1,0,0.2,0,0.2,0.1c0.3,0.6,1.1,1.1,2,1.2c-0.1-1-0.5-2.4-1.7-4.2c-0.1-0.1-0.1-0.3,0-0.3c0,0,0.1-0.1,0.2-0.1
					c0.1,0,0.1,0,0.2,0.1c0.3,0.3,0.5,0.6,0.8,0.9c-0.1-0.2-0.1-0.4-0.2-0.6c0-0.1,0-0.3,0.2-0.3h0.1c0.1,0,0.2,0.1,0.2,0.1
					c0.3,0.7,0.7,1.2,1.2,1.6c0-0.1,0-0.2,0.1-0.2h0.1c0.1,0,0.1,0,0.2,0.1c0.2,0.2,0.4,0.3,0.7,0.5c0,0,0,0,0.1,0
					c0-0.1,0-0.1,0.1-0.2c0.1,0,0.1-0.1,0.2-0.1l0,0c0.3,0.1,0.4,0.1,0.5,0.2c0.2,0.1,0.3,0.1,0.8,0.2c0-0.1,0-0.1,0.1-0.2
					c0-0.1,0.1-0.2,0.2-0.2h0.3c0.5-0.7,0.5-1.6,0-2.5c-0.1-0.1,0-0.3,0.1-0.3h0.1c0,0,0,0,0.1,0c-0.2-0.3-0.4-0.6-0.6-0.9
					c-0.1-0.1-0.1-0.3,0-0.3c0,0,0.1-0.1,0.2-0.1h0.1c-0.2-0.3-0.4-0.5-0.7-0.8c-0.1-0.1-0.1-0.2,0-0.3c0,0,0.1-0.1,0.2-0.1
					c0.1,0,0.1,0,0.2,0.1c0.8,0.7,1.6,1.3,2.4,1.8c-0.4-0.8-0.7-1.7-0.9-2.5c0-0.1,0-0.3,0.2-0.3h0.1c0.1,0,0.2,0.1,0.2,0.1
					c0.7,1.5,1.6,2.5,2.7,3.1c0.3,0,0.7,0.1,1.1,0.1c0.5,0,1.1-0.1,1.7-0.2c0,0,0,0,0.1,0s0.1,0,0.1,0c0.3,0.2,0.7,0.4,1.2,0.4
					c1,0,2.2-0.6,3.5-1.2c1.6-0.8,3.5-1.6,5.5-1.7c2,0.1,3.9,1,5.5,1.7c1.4,0.6,2.5,1.2,3.5,1.2c0.5,0,0.8-0.1,1.2-0.4h0.1
					c0,0,0,0,0.1,0c0.6,0.1,1.2,0.2,1.7,0.2c0.4,0,0.8,0,1.1-0.1c1-0.5,1.9-1.5,2.6-3.1c0-0.1,0.1-0.1,0.2-0.1h0.1
					c0.1,0,0.2,0.2,0.2,0.3c-0.2,0.9-0.6,1.7-0.9,2.5c0.8-0.5,1.6-1.2,2.4-1.8c0,0,0.1-0.1,0.2-0.1c0.1,0,0.1,0,0.2,0.1
					c0.1,0.1,0.1,0.2,0,0.3c-0.2,0.2-0.4,0.5-0.7,0.8h0.1c0.1,0,0.1,0,0.2,0.1s0.1,0.2,0,0.3c-0.2,0.3-0.4,0.6-0.6,0.9
					c0,0,0,0,0.1,0h0.1c0.1,0.1,0.1,0.2,0.1,0.3c-0.5,0.9-0.5,1.9,0,2.5h0.3c0.1,0,0.2,0.1,0.2,0.2l0.1,0.2c0.5-0.1,0.6-0.1,0.8-0.2
					c0.1,0,0.3-0.1,0.5-0.2h0.1c0.1,0,0.1,0,0.2,0.1s0.1,0.1,0.1,0.2c0,0,0,0,0.1,0c0.3-0.1,0.5-0.2,0.7-0.5c0,0,0.1-0.1,0.2-0.1
					h0.1c0.1,0,0.1,0.1,0.1,0.2c0.4-0.4,0.8-1,1.2-1.6c0-0.1,0.1-0.1,0.2-0.1h0.1c0.1,0,0.2,0.2,0.2,0.3c-0.3-0.2-0.3,0.1-0.4,0.3
					c0.3-0.3,0.5-0.6,0.8-0.9c0,0,0.1-0.1,0.2-0.1c0.1,0,0.1,0,0.2,0.1c0.1,0.1,0.1,0.2,0,0.3c-1.2,1.8-1.6,3.2-1.7,4.2
					c0.9-0.2,1.6-0.6,2-1.2c0-0.1,0.1-0.1,0.2-0.1h0.1c0.1,0.1,0.2,0.2,0.1,0.3c-0.1,0.4-0.3,0.8-0.5,1.1c0.5-0.4,1.1-0.7,1.7-1.1
					h0.1c0.1,0,0.2,0,0.2,0.1c0.1,0.1,0,0.3-0.1,0.3c-1.7,1.4-2.2,2.9-2.4,3.9v0.1c0.2,0,0.2,0.2,0.2,0.3l-0.1,0.1l0,0
					c0,0.1,0,0.3,0,0.3c0,0.1,0,0.2-0.1,0.2v0.3c0,0,0,0.1-0.1,0.1c1.1,2,2.1,3.7,2.9,5.6c0.4,1.1,0.8,2.3,1,3.7
					c0,0.1,0,0.2-0.1,0.3c-8.4,4.1-16.3,9.3-17,19.1c-1.3,18.2,1.8,26.2,3.8,29.4v0.1c0.1,2-0.1,3.6-0.5,4.9c0,0.1-0.1,0.2-0.2,0.2
					h-26L-185.1,428.8L-185.1,428.8z"/>
				<path d="M-156.1,351.7L-156.1,351.7 M-156.1,351.7c-0.3,1-0.7,1.9-1.1,2.8c0,0.1,0,0.2,0.1,0.3c0.9-0.6,1.9-1.3,2.9-2.1
					c-1,1.1-1.8,2.3-2.4,3.4c0,0.1,0.1,0.1,0.1,0.1c0.6-0.8,1.2-1.6,1.9-2.4c-0.8,1.1-1.2,2.1-1.5,3.1c0,0,0,0.1,0.1,0.1
					c0.2-0.6,0.6-1.2,1.1-1.9c-0.6,1.2-0.4,2.2,0.1,2.9h0.4c0.1,0.2,0.1,0.3,0.2,0.4c1-0.1,0.7-0.1,1.6-0.4c0,0.2,0,0.3-0.1,0.4h0.1
					c0.4-0.3,0.8-0.3,1.1-0.7c0,0.1-0.3,0.6-0.3,0.7c0.7-0.4,1.4-1.1,2-2.2c-0.3,0.9-0.7,1.8-1.1,2.6c0.6-0.9,1.3-1.8,2.1-2.7
					c-1.2,1.7-1.7,3.3-1.8,4.6c1.1-0.1,2.1-0.7,2.5-1.4c-0.3,0.9-0.7,1.5-1.1,2.1h0.1c0.8-0.6,1.6-1.3,2.6-1.8
					c-1.6,1.3-2.3,2.7-2.5,4c0,0.1,0,0.2,0,0.3c0,0,0.1,0,0.1,0.1c-0.1,0-0.1,0-0.2,0c0,0.1,0,0.2,0,0.3c0,0.2,0,0.3,0,0.4l-0.1,0.1
					v0.4l-0.3-0.1c1.2,2,2.2,3.9,3.1,6c0.5,1.1,0.8,2.4,1,3.7c-7.8,3.8-16.4,8.9-17.2,19.3c-1.3,18.5,2,26.6,3.8,29.6
					c0.1,2-0.1,3.6-0.5,4.8h-13h-13c-0.4-1.2-0.6-2.8-0.5-4.8c1.8-3,5.1-11.1,3.8-29.6c-0.7-10.4-9.4-15.5-17.2-19.3
					c0.2-1.3,0.5-2.5,1-3.7c0.9-2.1,1.9-4,3.1-6l-0.3,0.1v-0.4l-0.1-0.1c0-0.1,0-0.3,0-0.4s0-0.2,0-0.3c-0.1,0-0.1,0-0.2,0
					c0.1,0,0.1-0.1,0.2-0.1c0-0.1,0-0.2,0-0.3c-0.1-1.3-0.9-2.8-2.5-4c0.9,0.5,1.8,1.1,2.6,1.8h0.1c-0.4-0.5-0.8-1.2-1.1-2.1
					c0.4,0.7,1.4,1.3,2.5,1.4c-0.1-1.3-0.6-2.9-1.8-4.6c0.8,0.8,1.5,1.8,2.1,2.7c-0.4-0.8-0.8-1.7-1.1-2.6c0.6,1.1,1.3,1.9,2,2.2
					c0-0.2-0.3-0.6-0.3-0.7c0.4,0.4,0.7,0.4,1.1,0.7h0.1c0-0.1,0-0.3-0.1-0.4c0.9,0.3,0.6,0.3,1.6,0.4c0.1-0.1,0.1-0.3,0.2-0.4h0.4
					c0.6-0.7,0.8-1.7,0.1-2.9c0.6,0.7,0.9,1.3,1.1,1.9l0.1-0.1c-0.3-0.9-0.8-2-1.5-3.1c0.7,0.7,1.4,1.5,1.9,2.4c0,0,0-0.1,0.1-0.1
					c-0.6-1.1-1.4-2.3-2.4-3.4c0.9,0.8,1.9,1.5,2.9,2.1c0-0.1,0.1-0.2,0.1-0.3c-0.4-0.9-0.8-1.9-1.1-2.8c0.9,1.8,1.8,2.7,2.8,3.2
					c0.4,0.1,0.8,0.1,1.2,0.1c0.5,0,1.1-0.1,1.8-0.2c0.4,0.3,0.9,0.4,1.3,0.4c2.3,0,5.4-2.8,9-2.9c3.6,0.2,6.7,2.9,9,2.9
					c0.5,0,0.9-0.1,1.3-0.4c0.7,0.1,1.2,0.2,1.8,0.2c0.4,0,0.8,0,1.2-0.1C-157.9,354.5-156.9,353.5-156.1,351.7 M-154.2,352.7
					L-154.2,352.7 M-154.6,353.9L-154.6,353.9 M-154.9,355.2L-154.9,355.2 M-148.8,356.2L-148.8,356.2 M-149.8,356.3L-149.8,356.3
					 M-151.6,357.8L-151.6,357.8 M-152.8,358.1L-152.8,358.1 M-148.1,359.4L-148.1,359.4 M-146.6,359.8L-146.6,359.8 M-188.2,351.2
					c-0.1,0-0.1,0-0.2,0c-0.2,0.1-0.4,0.3-0.3,0.6c0.2,0.6,0.4,1.2,0.6,1.8c-0.6-0.4-1.1-0.8-1.6-1.3c-0.1-0.1-0.2-0.1-0.3-0.1
					s-0.3,0.1-0.4,0.2c-0.2,0.2-0.2,0.5,0,0.7c0.1,0.2,0.3,0.3,0.4,0.5c-0.2,0.2-0.2,0.4-0.1,0.7c0.1,0.2,0.3,0.4,0.4,0.6
					c-0.2,0.2-0.2,0.4-0.1,0.6c0.4,0.8,0.5,1.6,0.1,2.2h-0.2c-0.2,0-0.4,0.1-0.5,0.4c-0.3,0-0.4-0.1-0.6-0.1c-0.1,0-0.3-0.1-0.5-0.2
					c-0.1,0-0.1,0-0.2,0c-0.1,0-0.2,0-0.3,0.1l0,0c-0.2-0.1-0.3-0.2-0.4-0.3c-0.1-0.1-0.2-0.1-0.4-0.1c-0.1,0-0.2,0-0.2,0.1
					c0,0,0,0-0.1,0c-0.3-0.4-0.6-0.8-0.9-1.3c-0.1-0.2-0.3-0.3-0.4-0.3c-0.1,0-0.1,0-0.2,0c-0.1,0.1-0.2,0.2-0.3,0.3
					c-0.1-0.1-0.1-0.1-0.2-0.2c-0.1-0.1-0.2-0.2-0.4-0.2c-0.1,0-0.2,0-0.3,0.1c-0.2,0.2-0.2,0.5-0.1,0.7c1,1.5,1.5,2.8,1.6,3.7
					c-0.7-0.2-1.2-0.6-1.5-1c-0.1-0.2-0.3-0.3-0.4-0.3s-0.1,0-0.2,0c-0.2,0.1-0.4,0.4-0.3,0.6c0,0.1,0.1,0.2,0.1,0.3
					c-0.3-0.2-0.6-0.4-1-0.6c-0.1,0-0.2-0.1-0.2-0.1c-0.2,0-0.3,0.1-0.4,0.2c-0.1,0.2-0.1,0.5,0.1,0.7c1.7,1.3,2.2,2.7,2.3,3.7
					c-0.1,0.1-0.2,0.4-0.1,0.5c0,0.1,0.1,0.1,0.1,0.1c0,0.1,0,0.1,0,0.2s0,0.3,0.1,0.4v0.2v0.1c-1.1,1.9-2,3.6-2.8,5.5
					c-0.5,1.1-0.8,2.3-1,3.8c0,0.2,0.1,0.4,0.3,0.5c8.4,4.1,16.2,9.2,16.9,18.9c1.3,18.8-2.2,26.7-3.7,29.3c0,0.1-0.1,0.2-0.1,0.2
					c-0.1,2.1,0.1,3.7,0.6,5c0.1,0.2,0.3,0.3,0.5,0.3h13h13c0.2,0,0.4-0.1,0.5-0.3c0.5-1.4,0.6-3,0.5-5c0-0.1,0-0.2-0.1-0.2
					c-1.6-2.5-5-10.5-3.7-29.3c0.7-9.7,8.5-14.8,16.9-18.9c0.2-0.1,0.3-0.3,0.3-0.5c-0.2-1.5-0.6-2.7-1-3.8
					c-0.8-1.9-1.7-3.6-2.8-5.5v-0.1v-0.2c0.1-0.1,0.1-0.3,0.1-0.4c0,0,0-0.1,0-0.2l0.1-0.1c0.1-0.2,0.1-0.4-0.1-0.6
					c0.2-1.4,1-2.6,2.3-3.7c0.1-0.1,0.2-0.2,0.2-0.4c0-0.3-0.2-0.5-0.5-0.5l0,0h-0.1c-0.1,0-0.1,0-0.1,0.1c-0.3,0.2-0.7,0.4-1,0.6
					c0-0.1,0.1-0.2,0.1-0.3s0-0.1,0-0.2c0-0.3-0.2-0.5-0.5-0.5l0,0c0,0,0,0-0.1,0s-0.2,0-0.2,0.1c-0.1,0-0.1,0.1-0.1,0.1l0,0l0,0
					c0,0,0,0,0,0.1c-0.3,0.5-0.8,0.8-1.5,1c0.2-0.9,0.6-2.2,1.6-3.7c0.1-0.1,0.1-0.2,0.1-0.3c0-0.3-0.2-0.5-0.5-0.5l0,0l0,0l0,0l0,0
					l0,0c-0.1,0-0.2,0-0.2,0.1l-0.1,0.1c-0.1,0.1-0.1,0.1-0.2,0.2c-0.1-0.2-0.2-0.3-0.5-0.3l0,0c0,0,0,0-0.1,0s-0.2,0-0.2,0.1
					c-0.1,0-0.1,0.1-0.1,0.1s0,0,0,0.1c-0.3,0.6-0.6,1-0.9,1.3c-0.1-0.1-0.2-0.1-0.3-0.1l0,0l0,0l0,0l0,0l0,0
					c-0.1,0-0.3,0.1-0.3,0.1c-0.1,0.1-0.3,0.2-0.4,0.3c-0.1-0.1-0.2-0.2-0.4-0.2l0,0l0,0l0,0c-0.1,0-0.1,0-0.1,0
					c-0.3,0.1-0.4,0.1-0.5,0.2c-0.2,0.1-0.3,0.1-0.6,0.1l0,0c-0.1-0.2-0.3-0.3-0.5-0.3h-0.2c-0.4-0.6-0.4-1.4,0-2.1
					c0.1-0.1,0.1-0.2,0.1-0.3c0-0.2-0.1-0.3-0.2-0.4c0.1-0.2,0.3-0.4,0.4-0.6c0.1-0.1,0.1-0.2,0.1-0.3s-0.1-0.3-0.2-0.4
					c0.1-0.2,0.3-0.3,0.4-0.4s0.2-0.2,0.2-0.4c0-0.3-0.2-0.5-0.5-0.5l0,0l0,0l0,0l0,0l0,0l0,0l0,0c-0.1,0-0.2,0.1-0.3,0.1
					c-0.5,0.5-1.1,0.9-1.6,1.3c0.2-0.6,0.4-1.1,0.6-1.7c0-0.1,0-0.1,0-0.2c0-0.3-0.2-0.5-0.5-0.5l0,0c0,0,0,0-0.1,0s-0.2,0-0.2,0.1
					c-0.1,0-0.1,0.1-0.1,0.1l0,0l0,0c0,0,0,0,0,0.1c-0.7,1.5-1.5,2.4-2.5,2.9c-0.3,0.1-0.7,0.1-1,0.1c-0.5,0-1-0.1-1.6-0.2h-0.1
					c-0.1,0-0.2,0-0.3,0.1c-0.3,0.2-0.6,0.3-1,0.3c-0.9,0-2.1-0.5-3.4-1.2c-1.7-0.8-3.5-1.7-5.6-1.8c-2.1,0.1-4,1-5.6,1.8
					c-1.3,0.6-2.5,1.2-3.4,1.2c-0.4,0-0.7-0.1-1-0.3c-0.1-0.1-0.2-0.1-0.3-0.1h-0.1c-0.6,0.1-1.1,0.2-1.6,0.2c-0.3,0-0.7,0-1-0.1
					c-1-0.5-1.8-1.5-2.5-3C-187.9,351.3-188.1,351.2-188.2,351.2L-188.2,351.2z"/>
			</g>
			<path class="cow3" d="M-175.2,442.2c-4.7,0.9-8.7,0.7-11.1,0.1c-3.2-0.8-3.8-2.4-3.6-5.8c0.1-2.3,0.6-4.8,1.2-6.7
				c1.2-3.9,2.5-7.2,6.9-8.6c1.4-0.5,5.6-0.6,9.6-0.6s8.2,0.1,9.6,0.6c2,0.6,3.8,1.9,4.8,3.5c0.9,1.3,2.2,3.5,2.7,5.1
				c0.6,2,0.5,4.4,0.7,6.7c0.2,3.4-0.3,5.1-3.6,5.8c-3.2,0.6-7,0.7-11.1,0c-1.4-0.5-2.5-1.5-3.1-3.1
				C-172.8,440.8-173.8,441.7-175.2,442.2L-175.2,442.2z"/>
			<path class="cow6" d="M-172.3,427.5c6.9,0,12.4-0.6,12.4,2.2c0,2.9-5.6,6.5-12.4,6.5c-6.9,0-12.5-3.6-12.5-6.5
				C-184.8,426.9-179.2,427.5-172.3,427.5L-172.3,427.5z"/>
			<path class="cow3" d="M-172.2,439.9c1.5-0.2,3.3-0.3,4.8-0.7c3.9-1,7.3-3.8,7.7-6.6c0.5-3.1-2.3,1.1-4.9,2.1
				c-3.2,1.2-3.5-2.3-0.8-3.8c1.6-0.9,3.9-1.3,5.6-2.2c1.5-1.3,1.5-4.7-1.1-4.6c-3.3,1.4-7.2,3-11.3,2.8c-4,0.2-8-1.4-11.3-2.8
				c-2.6-0.1-2.6,3.3-1.1,4.6c1.6,0.9,3.9,1.3,5.6,2.2c2.7,1.5,2.5,5.1-0.8,3.8c-2.6-1-5.4-5.2-4.9-2.1c0.4,2.8,3.8,5.6,7.7,6.6
				C-175.6,439.5-173.8,439.7-172.2,439.9L-172.2,439.9z"/>
			<path class="cow2" d="M-147.6,367c0,0,2.2,0.5,3.7,0.7s3.9-0.1,4.8-0.3c0.9-0.3,1.9-0.1,3.4-0.6s4-1.3,4.9-1.9
				c0.9-0.6,2.2-0.8,3-1.2c0.8-0.4,1.7-0.3,2.4-0.9c0.7-0.6,2-1,2.7-1.4s1.6-1.1,2.4-0.8c0.9,0.3,3.3,0.9,3.9,1.8s0.9,1,0.9,2.3
				s0.3,3.2-0.4,4.7s-1.8,2.8-2.7,4c-0.9,1.2-1.7,1.3-2.3,2.6s-1.2,1.7-2.1,2.4c-1,0.7-2.5,2.1-5,2.5c-2.4,0.4-3,0.2-4.5,0.4
				c-1.5,0.2-2.6,0.2-4.2-0.7s-3.1-1.1-3.9-1.2c-0.8-0.1-2.5-0.9-3-1.2c-0.5-0.2-1.4-0.2-1.4-0.2"/>
			<path class="cow2" d="M-196.6,366.9c0,0-0.5,0.1-3,0.4s-4.7,0.8-6.4,0s-3.9-1.1-4.4-1.2s-5.4-2.6-6.6-2.4c-1.3,0.2-1-0.4-2.1-1
				s-4.2-2.4-4.8-2.3c-0.5,0.2-2.6,0.7-3.9,1.8c-1.3,1.1-1.8,1.5-1.4,3c0.4,1.5,0.4,3.3,0.9,4.4s2.2,3.7,2.4,4s-0.4-0.2,2,2.5
				c2.4,2.6,1.6,2.5,4.4,3.6c2.8,1.1,3.5,1.6,5.6,1.6c2,0,3.3-0.5,5-1s3.9-1.5,4.9-1.4s2.7-0.5,3.1-0.7"/>
			<path class="cow2" d="M-159.8,422.5c0,0,1.3,1,1.8,1.8s1.3,1.9,1.9,3.1c0.6,1.2,1.9,1.5,1.7,3.1s-0.1,2.6-0.1,3.7s0.4,3.5,0.1,4.5
				c-0.2,1-0.1,2.3-2,3c-1.9,0.6-2.3,0.7-4.9,1c-2.6,0.3-3.3,0.4-4.6,0.1s-2.4-0.3-3.1-0.6c-0.7-0.3-1-0.3-1.7-1s-0.7-1.4-1.1-1.4
				s-0.5,0.1-1.1,0.8c-0.7,0.7-0.7,1-1.7,1.3s-1.1,0.7-1.9,0.8c-0.8,0.2-1.7-0.1-2.8,0.2c-1.1,0.3-2.7,0.4-5-0.2s-3-0.7-3.7-1.1
				c-0.6-0.4-2.7-1.5-2.3-3.4s0.4-3.2,0.6-4.5c0.2-1.3,0.1-1.4,0.5-3.5s1.4-4.2,1.9-5.3s1.2-1.2,2-1.9s3.3-1.6,4.8-2.2
				s0.8-0.9,3.7-0.9s6.1,1,7.1,0.9c1,0,2.3-0.5,3.8-0.3C-164.6,420.9-161.1,420.5-159.8,422.5z"/>
			<path class="cow2" d="M-166.1,442.8c0,0-1.6,1.8-3,1.3s-2,0-2.7,0.1s-2.2,0.1-2.5,0c-0.2,0-1.6,0.5-2.1,0s-2.2-1.2-2.5-1.4"/>
			<path class="cow2" d="M-170.9,439.6c0.1-0.1,2.7,0.7,3.6,0c0.9-0.7,2.9-1.2,3.3-1.6c0.4-0.4,1.2-1.5,1.7-1.7s1.3-1,1.5-1.3
				s-0.1-0.7,0.5-1.4c0.6-0.7,0.6-1.2,0.6-1.5s-0.8-0.5-1.4,0c-0.6,0.5-2.2,1.3-2.9,1.9s-2,1.1-2.2,1.2s-1.1-1.3-1.2-1.8
				s0.7-1.6,1.2-2s-0.2-0.7,1.7-1.2c1.8-0.5,2.7-0.3,3.2-0.6c0.5-0.3,1.6-0.9,1.8-1.3c0.3-0.4,1.1-1.4,0.8-2.2
				c-0.2-0.8,0.5-0.4-0.4-1.2c-0.9-0.8-1.6-1.3-2-0.9s-1.3,0.7-2,1s-2.6,0.5-4,0.8s-1.2,0.7-2.6,0.8c-1.3,0.1-2.2,0.3-4,0.1
				s-4.4-0.5-5.3-1.1c-0.9-0.6-1.1-1-1.8-0.9c-0.7,0-2.3-0.6-2.9-0.7c-0.5,0-1.6,0.1-1.9,0.7c-0.2,0.6-0.2,1.8,0,2.6
				c0.2,0.8-0.5,1.2,1,1.5s2.6,0.9,3.1,1.1c0.6,0.2,1.2,0.5,2.6,1.1c1.4,0.6,1.9,1.3,1.9,1.8s-0.2,0.9-1,1.6
				c-0.8,0.8-1.2,0.9-2.7-0.2s-2.3-1.9-3-2.4c-0.7-0.4-1.2-0.6-1.2-0.2s-0.8,0.7,0.2,2.1s0.1,1.6,2.4,3.2c2.4,1.6,2.4,1.7,4.6,2
				C-175.2,439.2-172.4,440.5-170.9,439.6z"/>
			<path class="cow2" d="M-160.1,428.9c0,0,0.3,0.2,0.2,0.9c-0.1,0.7-0.7,1.5-0.5,1.9"/>
			<path class="cow2" d="M-184.6,428.6c0,0-0.3,0.7-0.2,1.2s-0.2,0.7,0.1,1.2"/>
			<path class="cow2" d="M-147.8,398.8c0,0,0,3.1-0.3,3.7s-0.3,1.2-0.5,2.5s-0.2,3.4-0.7,4.2c-0.5,0.8-0.9,1.8-1.5,2.8
				c-0.7,1.1-1.7,2.5-2.3,3.6s-2,1.9-1.9,3.7c0.1,1.8,0,2.9-0.1,4.4s-0.6,4.6-0.6,4.6"/>
			<path class="cow2" d="M-196.6,398.9c0,0,0.2,1.5,0.4,3.6c0.3,2.1,0.1,2.4,0.2,4.3c0.2,1.9,0.6,3.1,1.5,4.2s0.9,1.2,2,2.8
				c1,1.6,1.7,2.6,2,3.6s1.2,1.6,1.1,3.3c-0.1,1.8-0.4,2,0,4.4c0.4,2.3,0.8,3,0.8,3"/>
			<path class="cow2" d="M-158.6,422.9c0,0-0.4-3.2-1.5-4.5s-1.3-2.4-1.2-3.3s-0.9-3.6-0.7-5.5s0.6-0.7,0.2-3.1
				c-0.4-2.4-0.1-6.2-0.2-7.2c0-1,0.4-1.9,0.2-3.2c-0.2-1.3-0.3-4.7,0.6-6.6c0.9-1.9,1.7-3.8,2.7-4.7c0.9-0.9,1.4-2.1,2.5-2.9
				s2.6-2.4,4.4-3.4c1.8-1,2.3-0.9,2.9-1.5c0.7-0.6,1.9-1.3,2.9-1.7c1-0.5,1.2-0.6,1.1-1.2s-1.1-1.2-1.1-2.5s-0.4-2.3-0.5-2.5
				s-1.1-1.4-1.5-2.3s-0.7-1.4-0.6-2.1c0-0.7,0.2-1.3,0.4-2s-0.1-0.8,0.5-1.5s1.3-1.3,1.1-1.4c-0.2-0.2-0.5-0.9-0.6-0.8"/>
			<path class="cow2" d="M-145.6,375.4c0,0,0.4,0.9,0.6,1.8c0.2,0.9-0.1,1.7,0,2.5c0.1,0.9,0.3,2.5,0.5,2.9"/>
			<path class="cow2" d="M-185.8,423.7c0,0,0.1-2.2,1.1-3.7s1.7-1.8,1.6-3.6c-0.1-1.7-0.3-1.3,0-3s0.8-3,0.5-5.3s0-3.1,0.1-4.1
				s0.2-2.4,0.3-3.8c0.1-1.3-0.1-4.4,0-5.7c0.1-1.3,0.4-1.9-0.5-4.2c-0.9-2.4-1.8-2.8-2.3-4.2s-1.1-1.4-2.1-2.9
				c-1.1-1.5-5.7-3.8-6.4-4.5s0-1.5-1.7-1.9s-3.7-0.7-4-1.5s-1.5-0.6-0.4-2.1c1.2-1.5,1.2-3.1,2-4.9s1.6-2.7,1.6-2.7"/>
			<path class="cow2" d="M-199.1,375.4c0,0-0.3,1.7-0.5,2.5s-0.4,1.8-0.4,2.5s-0.6,1.7-0.4,1.9"/>
			<path class="cow2" d="M-153.8,352.7c0,0,0.9-0.4,2-0.8s1.4-0.1,1.9-1c0.5-0.8,2.1-1.3,2.5-1.9s0.7-1.1,2.1-1.3
				c1.4-0.2,1.7,0,2.2,0s1.1,0.3,1.1,1.3s-0.1,2-0.6,3c-0.4,0.9-0.7,1.9-1.3,2.4c-0.5,0.5-1.1,1.1-1.5,2s-1.1,1.6-1.4,2.3"/>
			<path class="cow2" d="M-190.6,353.6c0,0,0.1-0.4-1.3-0.6c-1.4-0.2-2.5-1-3.2-1.7c-0.8-0.7-1-0.5-2.3-1.7s-1.6-1.5-2.3-1.7
				s-1.1-0.4-2.4-0.2c-1.2,0.2-1.3,0.5-1.7,1.5s-0.7,0.7,0.1,2.3c0.8,1.7,0.2,1.5,1.4,2.9c1.1,1.4,1.8,1.3,2.4,2.8
				c0.7,1.4,1.4,2.3,1.4,2.3"/>
			<path class="cow2" d="M-150.6,400.2c0,0,0.3,6.5-3,11.4"/>
			<path class="cow2" d="M-117.5,366.2c0,0,1.2,3.1-2.2,5.9c-3.4,2.8-3.8,4.9-3.8,4.9"/>
			<path class="cow2" d="M-185.2,391c0,0,1.3,4.5,0.9,7.6c-0.4,3-0.8,3.4-0.4,5"/>
			<path class="cow2" d="M-163.2,356.5c0,0-3,0.7-5.1-0.7c-2.1-1.4-5.4-2.4-6.6-1.2"/>
			<path class="cow2" d="M-211.1,378c0,0-0.6,1.5-3.2,1s-4.2-1.4-6.5-3.6"/>
			<path class="cow2" d="M-117.5,366c0,0,0.3,1.3,0.1,2.2c-0.2,0.9-0.9,1.7-1.1,2.1s-0.9,1-1.2,1.3c-0.4,0.3-0.5,0.8-1.3,1.7
				c-0.8,0.9-1.2,1.3-1.6,1.9"/>
			<path class="cow2" d="M-162.6,356.3c-0.3,0.2-1.4,0.2-2.6,0.4c-1.2,0.2-2.1-0.2-2.7-0.6c-0.6-0.4-1.2-1.5-2.1-1.5
				c-0.9-0.1-2.5-0.6-3.2-0.5"/>
			<path class="cow2" d="M-210.6,377.7c-0.2,0.1-1.1,1-1.1,1s-2.7,0-3.3,0.1c-0.5,0.1-2.5-0.9-3.2-1.4s-2.1-1.3-2.1-1.3"/>
			<path class="cow2" d="M-185.8,390.3c0,0,0.2,0.3,0.6,1.8c0.4,1.5,0.8,2.6,0.8,4.2s-0.6,3.5-0.7,4.2c-0.1,0.7,0.4,1.7,0.2,1.9"/>
			<path class="cow2" d="M-150.6,400c0,0,0.3,2.3-0.2,3.9s-0.7,2.2-0.9,3.4c-0.2,1.2-0.8,2.7-1.2,3.3"/>
			<path class="cow2" d="M-184.4,418.5c0,0-0.6-0.1-1.6,0"/>
			<path class="cow2" d="M-184.1,417.7c0,0-0.6-0.1-1.6,0"/>
			<path class="cow2" d="M-183.6,416.3c0,0-0.6-0.1-1.6,0"/>
			<path class="cow2" d="M-183.4,414.9c0,0-0.6-0.1-1.6,0"/>
			<path class="cow2" d="M-183.2,413.8c0,0-0.6-0.1-1.6,0"/>
			<path class="cow2" d="M-182.6,412.7c0,0-0.6-0.1-1.6,0"/>
			<path class="cow2" d="M-182.4,411.4c0,0-0.6-0.1-1.6,0"/>
			<path class="cow2" d="M-182.4,410c0,0-0.6-0.1-1.6,0"/>
			<pattern  id="SVGID_1_" xlink:href="#SVGID_9_" patternTransform="matrix(1 0 0 -1 -4972.2002 -30763.7402)">
			</pattern>
			<path class="cow9" d="M-169.6,439.6c0,0,4.2-0.9,6.1-2.3c1.9-1.5,2.5-2.9,2.9-3.4s1.5-0.6,0.8-1.8c-0.7-1.2-0.8-0.4-0.5-1.5
				s0.6-2.3,0.6-2.3l0.8-2.2c0,0,0.3-1.4,0.6-1.4s2.2,1.3,2.5,2.9s0.9,3.6,1,5.1s0.3,7-0.5,7.8s-1.9,0.5-2.8,1.1
				c-0.8,0.6-3.8,1.3-5,1.2s-4.4-0.3-5.4-0.5s-3-1.6-3.1-1.7C-171.4,440.5-171.6,440-169.6,439.6z"/>
			<pattern  id="SVGID_2_" xlink:href="#SVGID_10_" patternTransform="matrix(1 0 0 -1 -4972.2002 -30763.7402)">
			</pattern>
			<path class="cow10" d="M-174.1,441.3c0,0-4.2,2.2-6.8,2s-4.9-0.8-5.4-0.9s-3-1.1-3.3-2.4s-1.5-4-0.2-4.8c1.3-0.7,1.4-5.4,1.5-6.6
				s1.3-4.1,1.9-4.1s1,0.7,1.1,1.9c0.1,1.2,0.3,1.2,0.4,2.6s0.3,2.9,0.1,3.6s0.7,1.9,1.1,2.6c0.4,0.7,1.8,1.6,2.4,2.1
				c0.6,0.5,2.9,1.7,3.3,1.7C-177.4,439-170.1,439.7-174.1,441.3z"/>
		</g>
		<pattern  id="SVGID_3_" xlink:href="#SVGID_11_" patternTransform="matrix(1 0 0 -1 -4972.2002 -30763.7402)">
		</pattern>
		<path class="cow11" d="M-187.2,390.1c0-0.2,0.7,5,0,6.3s-1.2,2-2.4,3.5s-2,2.4-2,2.4s-1,1.1-0.9,2.7s0.5,3.1,0.5,3.1
			s0.5,3.8,0.5,4.5s-0.4,1.8-0.4,1.8s-3.7-4.2-3.6-5.8c0.1-1.6-1.6-9.8-1-9.8s4.9,0.3,6.2-2C-189.1,394.5-186.6,393.7-187.2,390.1z"
			/>
		<pattern  id="SVGID_4_" xlink:href="#SVGID_12_" patternTransform="matrix(1 0 0 -1 -4972.2002 -30763.7402)">
		</pattern>
		<path class="cow12" d="M-197.9,367.1c-0.6,0.4-1.6,2.1-2.2,4c-0.6,1.9-2.6,3.9-2.6,3.9s-2.6,2.1-2.8,2.2s-0.3,2.8-0.3,2.8
			s2.4-1.1,3.1-1.2c0.7-0.2,3.2-0.9,3.2-0.9s0-3.2,0.5-5s2.9-6.1,2.9-6.1L-197.9,367.1z"/>
		<pattern  id="SVGID_5_" xlink:href="#SVGID_13_" patternTransform="matrix(1 0 0 -1 -4972.2002 -30763.7402)">
		</pattern>
		<path class="cow13" d="M-155.8,383.8c0,0,2.3-1.6,2.3-2.2s-0.8-1.1-0.2-1.5c0.6-0.5,8.1-4.7,8.1-4.7s1,2.1,0.8,2.7s-0.1,2.8,0,3.3
			s0.3,1.3,0.3,1.3s-2.5-1.6-4.8-1.3C-151.8,381.7-155.8,383.8-155.8,383.8z"/>
		<pattern  id="SVGID_6_" xlink:href="#SVGID_14_" patternTransform="matrix(1 0 0 -1 -4972.2002 -30763.7402)">
		</pattern>
		<path class="cow14" d="M-162.2,397c-0.4,0-1,5.7-1.5,8.3c-0.5,2.6-1.1,2-0.7,4.9c0.4,2.9,0.8,5.6,0.4,6c-0.4,0.4-0.1,0.9-1.2,1.4
			c-1.1,0.5-3.1,1.1-4.5,1.4s-2.3-0.2-2.4,0.3c-0.2,0.5-1.1,1.4-0.7,1.3c0.3,0,4.3-0.3,6.5-0.1c2.1,0.3,4.5,0.7,5.3,1.2
			c0.8,0.4,2,1.1,2,1.1s-2.1-5.1-2.7-8.7c-0.6-3.6-0.2-9.6-0.4-11.1S-162.2,397-162.2,397z"/>
		<g>
			<g>
				<pattern  id="SVGID_7_" xlink:href="#SVGID_15_" patternTransform="matrix(1 0 0 -1 -4972.2002 -30763.7402)">
				</pattern>
				<path class="cow15" d="M-157.3,401.8"/>
			</g>
		</g>
		<pattern  id="SVGID_8_" xlink:href="#SVGID_16_" patternTransform="matrix(1 0 0 -1 -4972.2002 -30763.7402)">
		</pattern>
		<path class="cow16" d="M-147.1,367.1c0,0,3.6,1.7,3.9,2.7c0.3,1,0.4,1.8,1.2,3.4s1.9,3,1.9,3l3.4,2.8l1.8,2l-8.4-2.7l-1.5-0.6
			l-0.8-2.3l0.5-1.3c0,0-1.2-4.6-1.6-4.6c-0.4,0-1.4-2.8-1.4-2.8L-147.1,367.1z"/>
	</g>
</g>
<g id="cow-eyeball-l">
	<g>
		<circle class="cow17" cx="-195.9" cy="390.3" r="8.7"/>
	</g>
	<circle class="cow2" cx="-195.9" cy="390.1" r="8.7"/>
	<path class="cow2" d="M-187.8,387.1c0,0.2,1.4,2.4,0.2,5.5c-1.2,3.2-2.7,3.6-3.4,4.6s-1.4,1.4-2.8,1.5c-1.4,0.1-1.7,0.9-4.5-0.2
		s-3,0.1-4.6-2.8s-2-3.3-1.9-4.8s0-3.3,0.9-4.8c1-1.5,0.6-1.9,1.6-2.7c1-0.8,2.3-1.8,4.5-2s2.7-0.9,4.4,0.1
		C-191.6,382.6-188.3,384.6-187.8,387.1z"/>
</g>
<g id="cow-eyeball-r">
	<g>
		<circle class="cow17" cx="-149.2" cy="390.2" r="8.7"/>
	</g>
	<circle class="cow2" cx="-148.9" cy="390.2" r="8.7"/>
	<path class="cow2" d="M-146.5,381.8c0.2,0.1,2.6,1.1,3.2,1.5c0.6,0.4,1.1,0.8,1.5,1.9s1.1,1.9,1.3,2.7c0.2,0.8,0.6,2.8,0.1,4.1
		c-0.5,1.3-0.9,2.8-1.2,3.2s-1.3,1.6-1.8,2s-1.3,1.1-2.3,1.3c-1,0.3-1.9,0.4-3.4,0.6s-2.8-0.4-3.6-0.9c-0.9-0.5-3.1-1.1-3.7-3.6
		c-0.7-2.5-0.7-2.5-1-3.3c-0.3-0.9,0.1-2.6,0.5-3.9s0.6-3,2.2-3.6c1.5-0.5,3.5-1.2,3.9-1.6c0.5-0.4,2.5-1.2,4.7-0.2"/>
</g>
<g id="cow-eye-left">
	<circle cx="-197.8" cy="392.5" r="2"/>
	<path class="cow2" d="M-197.6,394.2c0,0,0.1,0.1,0.3,0.1c0.3,0,0.8,0,1-0.5c0.3-0.7,0.7-0.4,0.7-0.9s0-0.9-0.4-1.2
		c-0.4-0.3-0.8-0.9-1-0.9c-0.2-0.1,0-1.2-0.9-0.2c-0.9,0.9-1.4,0.2-1.8,1.2c-0.6,1.6,0,2.6,1,2.5"/>
	<circle cx="-197.8" cy="392.5" r="2"/>
	<path class="cow2" d="M-197.6,394.2c0,0,0.1,0.1,0.3,0.1c0.3,0,0.8,0,1-0.5c0.3-0.7,0.7-0.4,0.7-0.9s0-0.9-0.4-1.2
		c-0.4-0.3-0.8-0.9-1-0.9c-0.2-0.1,0-1.2-0.9-0.2c-0.9,0.9-1.4,0.2-1.8,1.2c-0.6,1.6,0,2.6,1,2.5"/>
</g>
<g id="cow-eye-right">
	<path d="M-146.8,394.5c-1.1,0-2-0.9-2-2s0.9-2,2-2s2,0.9,2,2S-145.8,394.5-146.8,394.5"/>
	<path class="cow2" d="M-145.1,393.6c0.4-0.1,0.4-0.7,0.2-1.1s-0.1-0.9-0.5-1.3s-1-0.8-1.5-0.7s-0.3,0.5-1.1,0.8
		c-0.7,0.3-1-0.3-0.9,0.7c0.1,0.9,0.1,1.5,0.8,1.9c0.6,0.3,0.5-0.1,0.5-0.1"/>
	<path class="cow2" d="M-147.3,393.9c0,0,1,0.9,1.4,0.5"/>
	<path d="M-146.8,394.5c-1.1,0-2-0.9-2-2s0.9-2,2-2s2,0.9,2,2S-145.8,394.5-146.8,394.5"/>
	<path class="cow2" d="M-145.1,393.6c0.4-0.1,0.4-0.7,0.2-1.1s-0.1-0.9-0.5-1.3s-1-0.8-1.5-0.7s-0.3,0.5-1.1,0.8
		c-0.7,0.3-1-0.3-0.9,0.7c0.1,0.9,0.1,1.5,0.8,1.9c0.6,0.3,0.5-0.1,0.5-0.1"/>
	<path class="cow2" d="M-147.3,393.9c0,0,1,0.9,1.4,0.5"/>
</g>
</svg>
