<?xml version="1.0" encoding="utf-8"?>
<!-- Generator: Adobe Illustrator 19.1.1, SVG Export Plug-In . SVG Version: 6.00 Build 0)  -->
<svg version="1.1" id="cow-svg" xmlns="http://www.w3.org/2000/svg" xmlns:xlink="http://www.w3.org/1999/xlink" x="0px" y="0px"
	 viewBox="-239 323.7 131.8 146.3" style="enable-background:new -239 323.7 131.8 146.3;" xml:space="preserve">
<style type="text/css">
	.cow0{fill:none;}
	.cow1{fill:none;stroke:#F8AA34;stroke-width:0.5;stroke-linecap:round;stroke-linejoin:round;stroke-miterlimit:10;}
	.cow2{fill:none;stroke:#000000;stroke-width:0.5;stroke-linecap:round;stroke-linejoin:round;stroke-miterlimit:10;}
	.cow3{fill:#F4DCC1;stroke:#000000;stroke-width:0.5;stroke-linecap:round;stroke-linejoin:round;stroke-miterlimit:10;}
	.cow4{fill:#F8AA34;stroke:#000000;stroke-linecap:round;stroke-linejoin:round;stroke-miterlimit:10;}
	.cow5{display:none;fill:none;stroke:#000000;stroke-width:0.5;stroke-linecap:round;stroke-linejoin:round;stroke-miterlimit:10;}
	.cow6{fill:#D17911;stroke:#000000;stroke-linecap:round;stroke-linejoin:round;stroke-miterlimit:10;}
	.cow7{fill:#D17911;stroke:#000000;stroke-width:0.5;stroke-linecap:round;stroke-linejoin:round;stroke-miterlimit:10;}
	.cow8{fill:#F4DCC1;}
	.cow9{display:none;fill:url(#SVGID_9_);stroke:#000000;stroke-width:0.5;stroke-linecap:round;stroke-linejoin:round;stroke-miterlimit:10;}
	.cow10{fill:url(#SVGID_10_);stroke:#000000;stroke-width:0.5;stroke-linecap:round;stroke-linejoin:round;stroke-miterlimit:10;}
	.cow11{fill:url(#SVGID_11_);}
	.cow12{fill:url(#SVGID_12_);}
	.cow13{fill:url(#SVGID_13_);}
	.cow14{fill:url(#SVGID_14_);}
	.cow15{fill:none;stroke:url(#SVGID_15_);stroke-miterlimit:10;}
	.cow16{fill:none;stroke:url(#SVGID_16_);stroke-miterlimit:10;}
	.cow17{fill:#F8AA34;}
</style>
<pattern  x="-239" y="470" width="21.7" height="27.1" patternUnits="userSpaceOnUse" id="SVGID_1_" viewBox="0 -27.1 21.7 27.1" style="overflow:visible;">
	<g>
		<polygon class="cow0" points="0,0 21.7,0 21.7,-27.1 0,-27.1 		"/>
		<g>
			<polygon class="cow0" points="0,-27.1 21.7,-27.1 21.7,0 0,0 			"/>
			<g>
				<polygon class="cow0" points="0,0 21.7,0 21.7,-27.1 0,-27.1 				"/>
				<g>
					<polygon class="cow0" points="0,-27.1 21.7,-27.1 21.7,0 0,0 					"/>
					<g>
						<polygon class="cow0" points="0,0 21.7,0 21.7,-27.1 0,-27.1 						"/>
						<path d="M0.5-26.2c0.3-0.1,0.7-0.1,1-0.2c0.5-0.1,0.3-0.8-0.2-0.7C1-27,0.6-27,0.3-26.9C-0.2-26.8,0-26.1,0.5-26.2z"/>
						<path d="M2.4-23.7c0.3,0,0.7,0,1,0c0.5,0,0.5-0.8,0-0.8c-0.3,0-0.7,0-1,0C1.9-24.5,1.9-23.7,2.4-23.7z"/>
						<path d="M5.4-26.3c0.5,0.3,1,0.7,1.5,1c0.4,0.3,0.8-0.4,0.4-0.6c-0.5-0.3-1-0.7-1.5-1C5.4-27.2,5-26.6,5.4-26.3z"/>
						<path d="M10.8-23.8c0.4,0.1,0.6,0.4,0.7,0.8c0.1,0.5,0.8,0.3,0.7-0.2c-0.2-0.6-0.6-1.1-1.3-1.3C10.5-24.6,10.3-23.9,10.8-23.8
							z"/>
						<path d="M7-22.4c0,0.4,0.3,0.8,0.7,0.9c0.5,0.1,0.7-0.6,0.2-0.7c0-0.1-0.1-0.1-0.1-0.2C7.7-22.8,7-22.8,7-22.4z"/>
						<path d="M2.4-20.2c0.3,0,0.5,0,0.8,0c0.5,0,0.5-0.8,0-0.8c-0.3,0-0.5,0-0.8,0C1.9-21,1.9-20.2,2.4-20.2z"/>
						<path d="M6.2-15.3c-1.2-0.3-2.4-0.6-3.5-0.9c-0.5-0.1-0.7,0.6-0.2,0.7c1.2,0.3,2.4,0.6,3.5,0.9C6.5-14.5,6.7-15.2,6.2-15.3z"
							/>
						<path d="M11.7-18.4c0-0.3,0-0.5,0-0.8c0-0.5-0.8-0.5-0.8,0c0,0.3,0,0.5,0,0.8C11-17.9,11.7-17.9,11.7-18.4z"/>
						<path d="M5-18.8c0.6,0.2,1.1,0.4,1.7,0.6c0.5,0.2,0.7-0.6,0.2-0.7c-0.6-0.2-1.1-0.4-1.7-0.6C4.8-19.7,4.6-19,5-18.8z"/>
						<path d="M8.6-10.7c0.3,0.4,0.9,0,0.6-0.4c-0.2-0.3-0.3-0.5-0.5-0.8c-0.3-0.4-0.9,0-0.6,0.4C8.2-11.2,8.4-10.9,8.6-10.7z"/>
						<path d="M2.3-12.6c0.4,0.3,0.9-0.2,0.5-0.5s-0.8-0.7-1.3-1c-0.4-0.3-0.9,0.2-0.5,0.5C1.5-13.2,1.9-12.9,2.3-12.6z"/>
						<path d="M3-8.4c0,0.8,0,1.5,0,2.3c0,0.5,0.8,0.5,0.8,0c0-0.8,0-1.5,0-2.3C3.7-8.8,3-8.8,3-8.4z"/>
						<path d="M5.9-10.3c-0.2-0.4-0.5-0.8-0.7-1.3c-0.2-0.4-0.9,0-0.6,0.4c0.2,0.4,0.5,0.8,0.7,1.3C5.5-9.5,6.2-9.9,5.9-10.3z"/>
						<path d="M6.2-7C6.5-6.2,6.8-5.4,7-4.5C7.2-4,7.9-4.2,7.7-4.7C7.5-5.5,7.2-6.4,6.9-7.2C6.8-7.6,6-7.5,6.2-7z"/>
						<path d="M10.8-6.9c0.1,0.5,0.8,0.5,0.8,0C11.5-7.5,11.3-8,11-8.4s-0.8,0.2-0.5,0.5C10.6-7.6,10.7-7.2,10.8-6.9z"/>
						<path d="M13.5-10.5c-0.1-0.4-0.2-0.8-0.3-1.2c-0.1-0.5-0.8-0.3-0.7,0.2c0.1,0.4,0.2,0.8,0.3,1.2C12.9-9.8,13.6-10,13.5-10.5z"
							/>
						<path d="M17.5-15.3c0.5,0.1,0.9,0.4,1.3,0.9c0.3,0.4,0.9,0,0.6-0.4c-0.4-0.6-1-1-1.7-1.2C17.2-16.1,17.1-15.4,17.5-15.3z"/>
						<path d="M20.5-10.1c0,0.5,0,1,0,1.5s0.8,0.5,0.8,0s0-1,0-1.5C21.2-10.6,20.5-10.6,20.5-10.1z"/>
						<path d="M18.5-4c0.1,0.5,0.8,0.3,0.7-0.2c-0.1-0.4,0-0.8,0.2-1.2c0.2-0.5-0.4-0.8-0.6-0.4C18.5-5.2,18.4-4.7,18.5-4z"/>
						<path d="M15.7-9.9c0,0.2,0,0.3,0,0.5c0,0.5,0.8,0.5,0.8,0c0-0.2,0-0.3,0-0.5C16.5-10.3,15.7-10.3,15.7-9.9z"/>
						<path d="M11.1-15.4c0.5,0.8,1.4,1.3,2.3,1.2c0.5,0,0.5-0.8,0-0.8c-0.7,0-1.3-0.2-1.7-0.8C11.5-16.2,10.8-15.9,11.1-15.4z"/>
						<path d="M9.2-13.6c0-0.3,0-0.5,0-0.8c0-0.5-0.8-0.5-0.8,0c0,0.3,0,0.5,0,0.8C8.5-13.1,9.2-13.1,9.2-13.6z"/>
						<path d="M9.1-17c0.5,0,0.5-0.8,0-0.8S8.6-17,9.1-17z"/>
						<path d="M17-13.1c-0.3-0.1-0.5-0.2-0.8-0.2c-0.5-0.1-0.7,0.6-0.2,0.7c0.3,0.1,0.5,0.2,0.8,0.2C17.2-12.2,17.4-12.9,17-13.1z"
							/>
						<path d="M13.8-17.5c0.2,0.1,0.5,0.2,0.7,0.3c0.5,0.2,0.6-0.5,0.2-0.7c-0.2-0.1-0.5-0.2-0.7-0.3C13.5-18.4,13.3-17.7,13.8-17.5
							z"/>
						<path d="M15.8-21.1c0.3,0.1,0.7,0.2,1,0.3c0.5,0.1,0.7-0.6,0.2-0.7c-0.3-0.1-0.7-0.2-1-0.3C15.5-21.9,15.3-21.2,15.8-21.1z"/>
						<path d="M20-16.3c0.3,0.4,0.8-0.2,0.5-0.5c-0.3-0.3-0.5-0.6-0.8-0.9c-0.3-0.4-0.8,0.2-0.5,0.5S19.8-16.6,20-16.3z"/>
						<path d="M21.7-12.9c0-0.1,0-0.2,0-0.3c0-0.5-0.8-0.5-0.8,0c0,0.1,0,0.2,0,0.3C21-12.4,21.7-12.4,21.7-12.9z"/>
						<path d="M19.1-11.2c0.5,0,0.5-0.8,0-0.8S18.6-11.2,19.1-11.2z"/>
						<path d="M13.4-19.5c0.4,0.3,0.8-0.4,0.4-0.6c-0.3-0.3-0.7-0.5-1-0.8c-0.4-0.3-0.8,0.4-0.4,0.6C12.7-20,13.1-19.8,13.4-19.5z"
							/>
						<path d="M4.3-2.3C4.4-2.2,4.5-2.1,4.6-2c0.3,0.2,0.9-0.3,0.5-0.6C5-2.7,5-2.8,4.9-2.9C4.5-3.2,4-2.7,4.3-2.3z"/>
						<path d="M9.4-4.5c0.1,0.4,0.2,0.8,0.3,1.2c0.1,0.5,0.9,0.3,0.8-0.2c-0.1-0.4-0.2-0.8-0.3-1.2C10.1-5.2,9.3-5,9.4-4.5z"/>
						<path d="M14.7-3.9c-0.1-0.5-0.9-0.3-0.8,0.1c0.1,0.3,0.2,0.7,0.3,1C14.3-2.3,15-2.5,14.9-3C14.8-3.3,14.8-3.6,14.7-3.9z"/>
						<path d="M14.6-7c-0.3,0-0.5-0.2-0.5-0.5c0.1-0.5-0.6-0.7-0.7-0.2c-0.1,0.8,0.4,1.5,1.2,1.5C15.1-6.2,15.1-7,14.6-7z"/>
						<path d="M16.2-3.4c-0.1,1,0,2.1,0.3,3.1c0.1,0.5,0.9,0.3,0.7-0.2c-0.3-1-0.3-1.9-0.2-2.9C17-3.8,16.3-3.8,16.2-3.4z"/>
						<path d="M21.7-4.4c0-0.5-0.8-0.5-0.8,0s0,1,0,1.5s0.8,0.5,0.8,0S21.7-3.9,21.7-4.4z"/>
					</g>
				</g>
			</g>
		</g>
	</g>
</pattern>
<pattern  x="-239" y="470" width="21.7" height="27.1" patternUnits="userSpaceOnUse" id="SVGID_2_" viewBox="0 -27.1 21.7 27.1" style="overflow:visible;">
	<g>
		<polygon class="cow0" points="0,0 21.7,0 21.7,-27.1 0,-27.1 		"/>
		<g>
			<polygon class="cow0" points="0,-27.1 21.7,-27.1 21.7,0 0,0 			"/>
			<g>
				<polygon class="cow0" points="0,0 21.7,0 21.7,-27.1 0,-27.1 				"/>
				<g>
					<polygon class="cow0" points="0,-27.1 21.7,-27.1 21.7,0 0,0 					"/>
					<g>
						<polygon class="cow0" points="0,0 21.7,0 21.7,-27.1 0,-27.1 						"/>
						<path d="M0.5-26.2c0.3-0.1,0.7-0.1,1-0.2c0.5-0.1,0.3-0.8-0.2-0.7C1-27,0.6-27,0.3-26.9C-0.2-26.8,0-26.1,0.5-26.2z"/>
						<path d="M2.4-23.7c0.3,0,0.7,0,1,0c0.5,0,0.5-0.8,0-0.8c-0.3,0-0.7,0-1,0C1.9-24.5,1.9-23.7,2.4-23.7z"/>
						<path d="M5.4-26.3c0.5,0.3,1,0.7,1.5,1c0.4,0.3,0.8-0.4,0.4-0.6c-0.5-0.3-1-0.7-1.5-1C5.4-27.2,5-26.6,5.4-26.3z"/>
						<path d="M10.8-23.8c0.4,0.1,0.6,0.4,0.7,0.8c0.1,0.5,0.8,0.3,0.7-0.2c-0.2-0.6-0.6-1.1-1.3-1.3C10.5-24.6,10.3-23.9,10.8-23.8
							z"/>
						<path d="M7-22.4c0,0.4,0.3,0.8,0.7,0.9c0.5,0.1,0.7-0.6,0.2-0.7c0-0.1-0.1-0.1-0.1-0.2C7.7-22.8,7-22.8,7-22.4z"/>
						<path d="M2.4-20.2c0.3,0,0.5,0,0.8,0c0.5,0,0.5-0.8,0-0.8c-0.3,0-0.5,0-0.8,0C1.9-21,1.9-20.2,2.4-20.2z"/>
						<path d="M6.2-15.3c-1.2-0.3-2.4-0.6-3.5-0.9c-0.5-0.1-0.7,0.6-0.2,0.7c1.2,0.3,2.4,0.6,3.5,0.9C6.5-14.5,6.7-15.2,6.2-15.3z"
							/>
						<path d="M11.7-18.4c0-0.3,0-0.5,0-0.8c0-0.5-0.8-0.5-0.8,0c0,0.3,0,0.5,0,0.8C11-17.9,11.7-17.9,11.7-18.4z"/>
						<path d="M5-18.8c0.6,0.2,1.1,0.4,1.7,0.6c0.5,0.2,0.7-0.6,0.2-0.7c-0.6-0.2-1.1-0.4-1.7-0.6C4.8-19.7,4.6-19,5-18.8z"/>
						<path d="M8.6-10.7c0.3,0.4,0.9,0,0.6-0.4c-0.2-0.3-0.3-0.5-0.5-0.8c-0.3-0.4-0.9,0-0.6,0.4C8.2-11.2,8.4-10.9,8.6-10.7z"/>
						<path d="M2.3-12.6c0.4,0.3,0.9-0.2,0.5-0.5s-0.8-0.7-1.3-1c-0.4-0.3-0.9,0.2-0.5,0.5C1.5-13.2,1.9-12.9,2.3-12.6z"/>
						<path d="M3-8.4c0,0.8,0,1.5,0,2.3c0,0.5,0.8,0.5,0.8,0c0-0.8,0-1.5,0-2.3C3.7-8.8,3-8.8,3-8.4z"/>
						<path d="M5.9-10.3c-0.2-0.4-0.5-0.8-0.7-1.3c-0.2-0.4-0.9,0-0.6,0.4c0.2,0.4,0.5,0.8,0.7,1.3C5.5-9.5,6.2-9.9,5.9-10.3z"/>
						<path d="M6.2-7C6.5-6.2,6.8-5.4,7-4.5C7.2-4,7.9-4.2,7.7-4.7C7.5-5.5,7.2-6.4,6.9-7.2C6.8-7.6,6-7.5,6.2-7z"/>
						<path d="M10.8-6.9c0.1,0.5,0.8,0.5,0.8,0C11.5-7.5,11.3-8,11-8.4s-0.8,0.2-0.5,0.5C10.6-7.6,10.7-7.2,10.8-6.9z"/>
						<path d="M13.5-10.5c-0.1-0.4-0.2-0.8-0.3-1.2c-0.1-0.5-0.8-0.3-0.7,0.2c0.1,0.4,0.2,0.8,0.3,1.2C12.9-9.8,13.6-10,13.5-10.5z"
							/>
						<path d="M17.5-15.3c0.5,0.1,0.9,0.4,1.3,0.9c0.3,0.4,0.9,0,0.6-0.4c-0.4-0.6-1-1-1.7-1.2C17.2-16.1,17.1-15.4,17.5-15.3z"/>
						<path d="M20.5-10.1c0,0.5,0,1,0,1.5s0.8,0.5,0.8,0s0-1,0-1.5C21.2-10.6,20.5-10.6,20.5-10.1z"/>
						<path d="M18.5-4c0.1,0.5,0.8,0.3,0.7-0.2c-0.1-0.4,0-0.8,0.2-1.2c0.2-0.5-0.4-0.8-0.6-0.4C18.5-5.2,18.4-4.7,18.5-4z"/>
						<path d="M15.7-9.9c0,0.2,0,0.3,0,0.5c0,0.5,0.8,0.5,0.8,0c0-0.2,0-0.3,0-0.5C16.5-10.3,15.7-10.3,15.7-9.9z"/>
						<path d="M11.1-15.4c0.5,0.8,1.4,1.3,2.3,1.2c0.5,0,0.5-0.8,0-0.8c-0.7,0-1.3-0.2-1.7-0.8C11.5-16.2,10.8-15.9,11.1-15.4z"/>
						<path d="M9.2-13.6c0-0.3,0-0.5,0-0.8c0-0.5-0.8-0.5-0.8,0c0,0.3,0,0.5,0,0.8C8.5-13.1,9.2-13.1,9.2-13.6z"/>
						<path d="M9.1-17c0.5,0,0.5-0.8,0-0.8S8.6-17,9.1-17z"/>
						<path d="M17-13.1c-0.3-0.1-0.5-0.2-0.8-0.2c-0.5-0.1-0.7,0.6-0.2,0.7c0.3,0.1,0.5,0.2,0.8,0.2C17.2-12.2,17.4-12.9,17-13.1z"
							/>
						<path d="M13.8-17.5c0.2,0.1,0.5,0.2,0.7,0.3c0.5,0.2,0.6-0.5,0.2-0.7c-0.2-0.1-0.5-0.2-0.7-0.3C13.5-18.4,13.3-17.7,13.8-17.5
							z"/>
						<path d="M15.8-21.1c0.3,0.1,0.7,0.2,1,0.3c0.5,0.1,0.7-0.6,0.2-0.7c-0.3-0.1-0.7-0.2-1-0.3C15.5-21.9,15.3-21.2,15.8-21.1z"/>
						<path d="M20-16.3c0.3,0.4,0.8-0.2,0.5-0.5c-0.3-0.3-0.5-0.6-0.8-0.9c-0.3-0.4-0.8,0.2-0.5,0.5S19.8-16.6,20-16.3z"/>
						<path d="M21.7-12.9c0-0.1,0-0.2,0-0.3c0-0.5-0.8-0.5-0.8,0c0,0.1,0,0.2,0,0.3C21-12.4,21.7-12.4,21.7-12.9z"/>
						<path d="M19.1-11.2c0.5,0,0.5-0.8,0-0.8S18.6-11.2,19.1-11.2z"/>
						<path d="M13.4-19.5c0.4,0.3,0.8-0.4,0.4-0.6c-0.3-0.3-0.7-0.5-1-0.8c-0.4-0.3-0.8,0.4-0.4,0.6C12.7-20,13.1-19.8,13.4-19.5z"
							/>
						<path d="M4.3-2.3C4.4-2.2,4.5-2.1,4.6-2c0.3,0.2,0.9-0.3,0.5-0.6C5-2.7,5-2.8,4.9-2.9C4.5-3.2,4-2.7,4.3-2.3z"/>
						<path d="M9.4-4.5c0.1,0.4,0.2,0.8,0.3,1.2c0.1,0.5,0.9,0.3,0.8-0.2c-0.1-0.4-0.2-0.8-0.3-1.2C10.1-5.2,9.3-5,9.4-4.5z"/>
						<path d="M14.7-3.9c-0.1-0.5-0.9-0.3-0.8,0.1c0.1,0.3,0.2,0.7,0.3,1C14.3-2.3,15-2.5,14.9-3C14.8-3.3,14.8-3.6,14.7-3.9z"/>
						<path d="M14.6-7c-0.3,0-0.5-0.2-0.5-0.5c0.1-0.5-0.6-0.7-0.7-0.2c-0.1,0.8,0.4,1.5,1.2,1.5C15.1-6.2,15.1-7,14.6-7z"/>
						<path d="M16.2-3.4c-0.1,1,0,2.1,0.3,3.1c0.1,0.5,0.9,0.3,0.7-0.2c-0.3-1-0.3-1.9-0.2-2.9C17-3.8,16.3-3.8,16.2-3.4z"/>
						<path d="M21.7-4.4c0-0.5-0.8-0.5-0.8,0s0,1,0,1.5s0.8,0.5,0.8,0S21.7-3.9,21.7-4.4z"/>
					</g>
				</g>
			</g>
		</g>
	</g>
</pattern>
<pattern  x="-239" y="470" width="21.7" height="27.1" patternUnits="userSpaceOnUse" id="SVGID_3_" viewBox="0 -27.1 21.7 27.1" style="overflow:visible;">
	<g>
		<polygon class="cow0" points="0,0 21.7,0 21.7,-27.1 0,-27.1 		"/>
		<g>
			<polygon class="cow0" points="0,-27.1 21.7,-27.1 21.7,0 0,0 			"/>
			<g>
				<polygon class="cow0" points="0,0 21.7,0 21.7,-27.1 0,-27.1 				"/>
				<g>
					<polygon class="cow0" points="0,-27.1 21.7,-27.1 21.7,0 0,0 					"/>
					<g>
						<polygon class="cow0" points="0,0 21.7,0 21.7,-27.1 0,-27.1 						"/>
						<path d="M0.5-26.2c0.3-0.1,0.7-0.1,1-0.2c0.5-0.1,0.3-0.8-0.2-0.7C1-27,0.6-27,0.3-26.9C-0.2-26.8,0-26.1,0.5-26.2z"/>
						<path d="M2.4-23.7c0.3,0,0.7,0,1,0c0.5,0,0.5-0.8,0-0.8c-0.3,0-0.7,0-1,0C1.9-24.5,1.9-23.7,2.4-23.7z"/>
						<path d="M5.4-26.3c0.5,0.3,1,0.7,1.5,1c0.4,0.3,0.8-0.4,0.4-0.6c-0.5-0.3-1-0.7-1.5-1C5.4-27.2,5-26.6,5.4-26.3z"/>
						<path d="M10.8-23.8c0.4,0.1,0.6,0.4,0.7,0.8c0.1,0.5,0.8,0.3,0.7-0.2c-0.2-0.6-0.6-1.1-1.3-1.3C10.5-24.6,10.3-23.9,10.8-23.8
							z"/>
						<path d="M7-22.4c0,0.4,0.3,0.8,0.7,0.9c0.5,0.1,0.7-0.6,0.2-0.7c0-0.1-0.1-0.1-0.1-0.2C7.7-22.8,7-22.8,7-22.4z"/>
						<path d="M2.4-20.2c0.3,0,0.5,0,0.8,0c0.5,0,0.5-0.8,0-0.8c-0.3,0-0.5,0-0.8,0C1.9-21,1.9-20.2,2.4-20.2z"/>
						<path d="M6.2-15.3c-1.2-0.3-2.4-0.6-3.5-0.9c-0.5-0.1-0.7,0.6-0.2,0.7c1.2,0.3,2.4,0.6,3.5,0.9C6.5-14.5,6.7-15.2,6.2-15.3z"
							/>
						<path d="M11.7-18.4c0-0.3,0-0.5,0-0.8c0-0.5-0.8-0.5-0.8,0c0,0.3,0,0.5,0,0.8C11-17.9,11.7-17.9,11.7-18.4z"/>
						<path d="M5-18.8c0.6,0.2,1.1,0.4,1.7,0.6c0.5,0.2,0.7-0.6,0.2-0.7c-0.6-0.2-1.1-0.4-1.7-0.6C4.8-19.7,4.6-19,5-18.8z"/>
						<path d="M8.6-10.7c0.3,0.4,0.9,0,0.6-0.4c-0.2-0.3-0.3-0.5-0.5-0.8c-0.3-0.4-0.9,0-0.6,0.4C8.2-11.2,8.4-10.9,8.6-10.7z"/>
						<path d="M2.3-12.6c0.4,0.3,0.9-0.2,0.5-0.5s-0.8-0.7-1.3-1c-0.4-0.3-0.9,0.2-0.5,0.5C1.5-13.2,1.9-12.9,2.3-12.6z"/>
						<path d="M3-8.4c0,0.8,0,1.5,0,2.3c0,0.5,0.8,0.5,0.8,0c0-0.8,0-1.5,0-2.3C3.7-8.8,3-8.8,3-8.4z"/>
						<path d="M5.9-10.3c-0.2-0.4-0.5-0.8-0.7-1.3c-0.2-0.4-0.9,0-0.6,0.4c0.2,0.4,0.5,0.8,0.7,1.3C5.5-9.5,6.2-9.9,5.9-10.3z"/>
						<path d="M6.2-7C6.5-6.2,6.8-5.4,7-4.5C7.2-4,7.9-4.2,7.7-4.7C7.5-5.5,7.2-6.4,6.9-7.2C6.8-7.6,6-7.5,6.2-7z"/>
						<path d="M10.8-6.9c0.1,0.5,0.8,0.5,0.8,0C11.5-7.5,11.3-8,11-8.4s-0.8,0.2-0.5,0.5C10.6-7.6,10.7-7.2,10.8-6.9z"/>
						<path d="M13.5-10.5c-0.1-0.4-0.2-0.8-0.3-1.2c-0.1-0.5-0.8-0.3-0.7,0.2c0.1,0.4,0.2,0.8,0.3,1.2C12.9-9.8,13.6-10,13.5-10.5z"
							/>
						<path d="M17.5-15.3c0.5,0.1,0.9,0.4,1.3,0.9c0.3,0.4,0.9,0,0.6-0.4c-0.4-0.6-1-1-1.7-1.2C17.2-16.1,17.1-15.4,17.5-15.3z"/>
						<path d="M20.5-10.1c0,0.5,0,1,0,1.5s0.8,0.5,0.8,0s0-1,0-1.5C21.2-10.6,20.5-10.6,20.5-10.1z"/>
						<path d="M18.5-4c0.1,0.5,0.8,0.3,0.7-0.2c-0.1-0.4,0-0.8,0.2-1.2c0.2-0.5-0.4-0.8-0.6-0.4C18.5-5.2,18.4-4.7,18.5-4z"/>
						<path d="M15.7-9.9c0,0.2,0,0.3,0,0.5c0,0.5,0.8,0.5,0.8,0c0-0.2,0-0.3,0-0.5C16.5-10.3,15.7-10.3,15.7-9.9z"/>
						<path d="M11.1-15.4c0.5,0.8,1.4,1.3,2.3,1.2c0.5,0,0.5-0.8,0-0.8c-0.7,0-1.3-0.2-1.7-0.8C11.5-16.2,10.8-15.9,11.1-15.4z"/>
						<path d="M9.2-13.6c0-0.3,0-0.5,0-0.8c0-0.5-0.8-0.5-0.8,0c0,0.3,0,0.5,0,0.8C8.5-13.1,9.2-13.1,9.2-13.6z"/>
						<path d="M9.1-17c0.5,0,0.5-0.8,0-0.8S8.6-17,9.1-17z"/>
						<path d="M17-13.1c-0.3-0.1-0.5-0.2-0.8-0.2c-0.5-0.1-0.7,0.6-0.2,0.7c0.3,0.1,0.5,0.2,0.8,0.2C17.2-12.2,17.4-12.9,17-13.1z"
							/>
						<path d="M13.8-17.5c0.2,0.1,0.5,0.2,0.7,0.3c0.5,0.2,0.6-0.5,0.2-0.7c-0.2-0.1-0.5-0.2-0.7-0.3C13.5-18.4,13.3-17.7,13.8-17.5
							z"/>
						<path d="M15.8-21.1c0.3,0.1,0.7,0.2,1,0.3c0.5,0.1,0.7-0.6,0.2-0.7c-0.3-0.1-0.7-0.2-1-0.3C15.5-21.9,15.3-21.2,15.8-21.1z"/>
						<path d="M20-16.3c0.3,0.4,0.8-0.2,0.5-0.5c-0.3-0.3-0.5-0.6-0.8-0.9c-0.3-0.4-0.8,0.2-0.5,0.5S19.8-16.6,20-16.3z"/>
						<path d="M21.7-12.9c0-0.1,0-0.2,0-0.3c0-0.5-0.8-0.5-0.8,0c0,0.1,0,0.2,0,0.3C21-12.4,21.7-12.4,21.7-12.9z"/>
						<path d="M19.1-11.2c0.5,0,0.5-0.8,0-0.8S18.6-11.2,19.1-11.2z"/>
						<path d="M13.4-19.5c0.4,0.3,0.8-0.4,0.4-0.6c-0.3-0.3-0.7-0.5-1-0.8c-0.4-0.3-0.8,0.4-0.4,0.6C12.7-20,13.1-19.8,13.4-19.5z"
							/>
						<path d="M4.3-2.3C4.4-2.2,4.5-2.1,4.6-2c0.3,0.2,0.9-0.3,0.5-0.6C5-2.7,5-2.8,4.9-2.9C4.5-3.2,4-2.7,4.3-2.3z"/>
						<path d="M9.4-4.5c0.1,0.4,0.2,0.8,0.3,1.2c0.1,0.5,0.9,0.3,0.8-0.2c-0.1-0.4-0.2-0.8-0.3-1.2C10.1-5.2,9.3-5,9.4-4.5z"/>
						<path d="M14.7-3.9c-0.1-0.5-0.9-0.3-0.8,0.1c0.1,0.3,0.2,0.7,0.3,1C14.3-2.3,15-2.5,14.9-3C14.8-3.3,14.8-3.6,14.7-3.9z"/>
						<path d="M14.6-7c-0.3,0-0.5-0.2-0.5-0.5c0.1-0.5-0.6-0.7-0.7-0.2c-0.1,0.8,0.4,1.5,1.2,1.5C15.1-6.2,15.1-7,14.6-7z"/>
						<path d="M16.2-3.4c-0.1,1,0,2.1,0.3,3.1c0.1,0.5,0.9,0.3,0.7-0.2c-0.3-1-0.3-1.9-0.2-2.9C17-3.8,16.3-3.8,16.2-3.4z"/>
						<path d="M21.7-4.4c0-0.5-0.8-0.5-0.8,0s0,1,0,1.5s0.8,0.5,0.8,0S21.7-3.9,21.7-4.4z"/>
					</g>
				</g>
			</g>
		</g>
	</g>
</pattern>
<pattern  x="-239" y="470" width="21.7" height="27.1" patternUnits="userSpaceOnUse" id="SVGID_4_" viewBox="0 -27.1 21.7 27.1" style="overflow:visible;">
	<g>
		<polygon class="cow0" points="0,0 21.7,0 21.7,-27.1 0,-27.1 		"/>
		<g>
			<polygon class="cow0" points="0,-27.1 21.7,-27.1 21.7,0 0,0 			"/>
			<g>
				<polygon class="cow0" points="0,0 21.7,0 21.7,-27.1 0,-27.1 				"/>
				<g>
					<polygon class="cow0" points="0,-27.1 21.7,-27.1 21.7,0 0,0 					"/>
					<g>
						<polygon class="cow0" points="0,0 21.7,0 21.7,-27.1 0,-27.1 						"/>
						<path d="M0.5-26.2c0.3-0.1,0.7-0.1,1-0.2c0.5-0.1,0.3-0.8-0.2-0.7C1-27,0.6-27,0.3-26.9C-0.2-26.8,0-26.1,0.5-26.2z"/>
						<path d="M2.4-23.7c0.3,0,0.7,0,1,0c0.5,0,0.5-0.8,0-0.8c-0.3,0-0.7,0-1,0C1.9-24.5,1.9-23.7,2.4-23.7z"/>
						<path d="M5.4-26.3c0.5,0.3,1,0.7,1.5,1c0.4,0.3,0.8-0.4,0.4-0.6c-0.5-0.3-1-0.7-1.5-1C5.4-27.2,5-26.6,5.4-26.3z"/>
						<path d="M10.8-23.8c0.4,0.1,0.6,0.4,0.7,0.8c0.1,0.5,0.8,0.3,0.7-0.2c-0.2-0.6-0.6-1.1-1.3-1.3C10.5-24.6,10.3-23.9,10.8-23.8
							z"/>
						<path d="M7-22.4c0,0.4,0.3,0.8,0.7,0.9c0.5,0.1,0.7-0.6,0.2-0.7c0-0.1-0.1-0.1-0.1-0.2C7.7-22.8,7-22.8,7-22.4z"/>
						<path d="M2.4-20.2c0.3,0,0.5,0,0.8,0c0.5,0,0.5-0.8,0-0.8c-0.3,0-0.5,0-0.8,0C1.9-21,1.9-20.2,2.4-20.2z"/>
						<path d="M6.2-15.3c-1.2-0.3-2.4-0.6-3.5-0.9c-0.5-0.1-0.7,0.6-0.2,0.7c1.2,0.3,2.4,0.6,3.5,0.9C6.5-14.5,6.7-15.2,6.2-15.3z"
							/>
						<path d="M11.7-18.4c0-0.3,0-0.5,0-0.8c0-0.5-0.8-0.5-0.8,0c0,0.3,0,0.5,0,0.8C11-17.9,11.7-17.9,11.7-18.4z"/>
						<path d="M5-18.8c0.6,0.2,1.1,0.4,1.7,0.6c0.5,0.2,0.7-0.6,0.2-0.7c-0.6-0.2-1.1-0.4-1.7-0.6C4.8-19.7,4.6-19,5-18.8z"/>
						<path d="M8.6-10.7c0.3,0.4,0.9,0,0.6-0.4c-0.2-0.3-0.3-0.5-0.5-0.8c-0.3-0.4-0.9,0-0.6,0.4C8.2-11.2,8.4-10.9,8.6-10.7z"/>
						<path d="M2.3-12.6c0.4,0.3,0.9-0.2,0.5-0.5s-0.8-0.7-1.3-1c-0.4-0.3-0.9,0.2-0.5,0.5C1.5-13.2,1.9-12.9,2.3-12.6z"/>
						<path d="M3-8.4c0,0.8,0,1.5,0,2.3c0,0.5,0.8,0.5,0.8,0c0-0.8,0-1.5,0-2.3C3.7-8.8,3-8.8,3-8.4z"/>
						<path d="M5.9-10.3c-0.2-0.4-0.5-0.8-0.7-1.3c-0.2-0.4-0.9,0-0.6,0.4c0.2,0.4,0.5,0.8,0.7,1.3C5.5-9.5,6.2-9.9,5.9-10.3z"/>
						<path d="M6.2-7C6.5-6.2,6.8-5.4,7-4.5C7.2-4,7.9-4.2,7.7-4.7C7.5-5.5,7.2-6.4,6.9-7.2C6.8-7.6,6-7.5,6.2-7z"/>
						<path d="M10.8-6.9c0.1,0.5,0.8,0.5,0.8,0C11.5-7.5,11.3-8,11-8.4s-0.8,0.2-0.5,0.5C10.6-7.6,10.7-7.2,10.8-6.9z"/>
						<path d="M13.5-10.5c-0.1-0.4-0.2-0.8-0.3-1.2c-0.1-0.5-0.8-0.3-0.7,0.2c0.1,0.4,0.2,0.8,0.3,1.2C12.9-9.8,13.6-10,13.5-10.5z"
							/>
						<path d="M17.5-15.3c0.5,0.1,0.9,0.4,1.3,0.9c0.3,0.4,0.9,0,0.6-0.4c-0.4-0.6-1-1-1.7-1.2C17.2-16.1,17.1-15.4,17.5-15.3z"/>
						<path d="M20.5-10.1c0,0.5,0,1,0,1.5s0.8,0.5,0.8,0s0-1,0-1.5C21.2-10.6,20.5-10.6,20.5-10.1z"/>
						<path d="M18.5-4c0.1,0.5,0.8,0.3,0.7-0.2c-0.1-0.4,0-0.8,0.2-1.2c0.2-0.5-0.4-0.8-0.6-0.4C18.5-5.2,18.4-4.7,18.5-4z"/>
						<path d="M15.7-9.9c0,0.2,0,0.3,0,0.5c0,0.5,0.8,0.5,0.8,0c0-0.2,0-0.3,0-0.5C16.5-10.3,15.7-10.3,15.7-9.9z"/>
						<path d="M11.1-15.4c0.5,0.8,1.4,1.3,2.3,1.2c0.5,0,0.5-0.8,0-0.8c-0.7,0-1.3-0.2-1.7-0.8C11.5-16.2,10.8-15.9,11.1-15.4z"/>
						<path d="M9.2-13.6c0-0.3,0-0.5,0-0.8c0-0.5-0.8-0.5-0.8,0c0,0.3,0,0.5,0,0.8C8.5-13.1,9.2-13.1,9.2-13.6z"/>
						<path d="M9.1-17c0.5,0,0.5-0.8,0-0.8S8.6-17,9.1-17z"/>
						<path d="M17-13.1c-0.3-0.1-0.5-0.2-0.8-0.2c-0.5-0.1-0.7,0.6-0.2,0.7c0.3,0.1,0.5,0.2,0.8,0.2C17.2-12.2,17.4-12.9,17-13.1z"
							/>
						<path d="M13.8-17.5c0.2,0.1,0.5,0.2,0.7,0.3c0.5,0.2,0.6-0.5,0.2-0.7c-0.2-0.1-0.5-0.2-0.7-0.3C13.5-18.4,13.3-17.7,13.8-17.5
							z"/>
						<path d="M15.8-21.1c0.3,0.1,0.7,0.2,1,0.3c0.5,0.1,0.7-0.6,0.2-0.7c-0.3-0.1-0.7-0.2-1-0.3C15.5-21.9,15.3-21.2,15.8-21.1z"/>
						<path d="M20-16.3c0.3,0.4,0.8-0.2,0.5-0.5c-0.3-0.3-0.5-0.6-0.8-0.9c-0.3-0.4-0.8,0.2-0.5,0.5S19.8-16.6,20-16.3z"/>
						<path d="M21.7-12.9c0-0.1,0-0.2,0-0.3c0-0.5-0.8-0.5-0.8,0c0,0.1,0,0.2,0,0.3C21-12.4,21.7-12.4,21.7-12.9z"/>
						<path d="M19.1-11.2c0.5,0,0.5-0.8,0-0.8S18.6-11.2,19.1-11.2z"/>
						<path d="M13.4-19.5c0.4,0.3,0.8-0.4,0.4-0.6c-0.3-0.3-0.7-0.5-1-0.8c-0.4-0.3-0.8,0.4-0.4,0.6C12.7-20,13.1-19.8,13.4-19.5z"
							/>
						<path d="M4.3-2.3C4.4-2.2,4.5-2.1,4.6-2c0.3,0.2,0.9-0.3,0.5-0.6C5-2.7,5-2.8,4.9-2.9C4.5-3.2,4-2.7,4.3-2.3z"/>
						<path d="M9.4-4.5c0.1,0.4,0.2,0.8,0.3,1.2c0.1,0.5,0.9,0.3,0.8-0.2c-0.1-0.4-0.2-0.8-0.3-1.2C10.1-5.2,9.3-5,9.4-4.5z"/>
						<path d="M14.7-3.9c-0.1-0.5-0.9-0.3-0.8,0.1c0.1,0.3,0.2,0.7,0.3,1C14.3-2.3,15-2.5,14.9-3C14.8-3.3,14.8-3.6,14.7-3.9z"/>
						<path d="M14.6-7c-0.3,0-0.5-0.2-0.5-0.5c0.1-0.5-0.6-0.7-0.7-0.2c-0.1,0.8,0.4,1.5,1.2,1.5C15.1-6.2,15.1-7,14.6-7z"/>
						<path d="M16.2-3.4c-0.1,1,0,2.1,0.3,3.1c0.1,0.5,0.9,0.3,0.7-0.2c-0.3-1-0.3-1.9-0.2-2.9C17-3.8,16.3-3.8,16.2-3.4z"/>
						<path d="M21.7-4.4c0-0.5-0.8-0.5-0.8,0s0,1,0,1.5s0.8,0.5,0.8,0S21.7-3.9,21.7-4.4z"/>
					</g>
				</g>
			</g>
		</g>
	</g>
</pattern>
<pattern  x="-239" y="470" width="21.7" height="27.1" patternUnits="userSpaceOnUse" id="SVGID_5_" viewBox="0 -27.1 21.7 27.1" style="overflow:visible;">
	<g>
		<polygon class="cow0" points="0,0 21.7,0 21.7,-27.1 0,-27.1 		"/>
		<g>
			<polygon class="cow0" points="0,-27.1 21.7,-27.1 21.7,0 0,0 			"/>
			<g>
				<polygon class="cow0" points="0,0 21.7,0 21.7,-27.1 0,-27.1 				"/>
				<g>
					<polygon class="cow0" points="0,-27.1 21.7,-27.1 21.7,0 0,0 					"/>
					<g>
						<polygon class="cow0" points="0,0 21.7,0 21.7,-27.1 0,-27.1 						"/>
						<path d="M0.5-26.2c0.3-0.1,0.7-0.1,1-0.2c0.5-0.1,0.3-0.8-0.2-0.7C1-27,0.6-27,0.3-26.9C-0.2-26.8,0-26.1,0.5-26.2z"/>
						<path d="M2.4-23.7c0.3,0,0.7,0,1,0c0.5,0,0.5-0.8,0-0.8c-0.3,0-0.7,0-1,0C1.9-24.5,1.9-23.7,2.4-23.7z"/>
						<path d="M5.4-26.3c0.5,0.3,1,0.7,1.5,1c0.4,0.3,0.8-0.4,0.4-0.6c-0.5-0.3-1-0.7-1.5-1C5.4-27.2,5-26.6,5.4-26.3z"/>
						<path d="M10.8-23.8c0.4,0.1,0.6,0.4,0.7,0.8c0.1,0.5,0.8,0.3,0.7-0.2c-0.2-0.6-0.6-1.1-1.3-1.3C10.5-24.6,10.3-23.9,10.8-23.8
							z"/>
						<path d="M7-22.4c0,0.4,0.3,0.8,0.7,0.9c0.5,0.1,0.7-0.6,0.2-0.7c0-0.1-0.1-0.1-0.1-0.2C7.7-22.8,7-22.8,7-22.4z"/>
						<path d="M2.4-20.2c0.3,0,0.5,0,0.8,0c0.5,0,0.5-0.8,0-0.8c-0.3,0-0.5,0-0.8,0C1.9-21,1.9-20.2,2.4-20.2z"/>
						<path d="M6.2-15.3c-1.2-0.3-2.4-0.6-3.5-0.9c-0.5-0.1-0.7,0.6-0.2,0.7c1.2,0.3,2.4,0.6,3.5,0.9C6.5-14.5,6.7-15.2,6.2-15.3z"
							/>
						<path d="M11.7-18.4c0-0.3,0-0.5,0-0.8c0-0.5-0.8-0.5-0.8,0c0,0.3,0,0.5,0,0.8C11-17.9,11.7-17.9,11.7-18.4z"/>
						<path d="M5-18.8c0.6,0.2,1.1,0.4,1.7,0.6c0.5,0.2,0.7-0.6,0.2-0.7c-0.6-0.2-1.1-0.4-1.7-0.6C4.8-19.7,4.6-19,5-18.8z"/>
						<path d="M8.6-10.7c0.3,0.4,0.9,0,0.6-0.4c-0.2-0.3-0.3-0.5-0.5-0.8c-0.3-0.4-0.9,0-0.6,0.4C8.2-11.2,8.4-10.9,8.6-10.7z"/>
						<path d="M2.3-12.6c0.4,0.3,0.9-0.2,0.5-0.5s-0.8-0.7-1.3-1c-0.4-0.3-0.9,0.2-0.5,0.5C1.5-13.2,1.9-12.9,2.3-12.6z"/>
						<path d="M3-8.4c0,0.8,0,1.5,0,2.3c0,0.5,0.8,0.5,0.8,0c0-0.8,0-1.5,0-2.3C3.7-8.8,3-8.8,3-8.4z"/>
						<path d="M5.9-10.3c-0.2-0.4-0.5-0.8-0.7-1.3c-0.2-0.4-0.9,0-0.6,0.4c0.2,0.4,0.5,0.8,0.7,1.3C5.5-9.5,6.2-9.9,5.9-10.3z"/>
						<path d="M6.2-7C6.5-6.2,6.8-5.4,7-4.5C7.2-4,7.9-4.2,7.7-4.7C7.5-5.5,7.2-6.4,6.9-7.2C6.8-7.6,6-7.5,6.2-7z"/>
						<path d="M10.8-6.9c0.1,0.5,0.8,0.5,0.8,0C11.5-7.5,11.3-8,11-8.4s-0.8,0.2-0.5,0.5C10.6-7.6,10.7-7.2,10.8-6.9z"/>
						<path d="M13.5-10.5c-0.1-0.4-0.2-0.8-0.3-1.2c-0.1-0.5-0.8-0.3-0.7,0.2c0.1,0.4,0.2,0.8,0.3,1.2C12.9-9.8,13.6-10,13.5-10.5z"
							/>
						<path d="M17.5-15.3c0.5,0.1,0.9,0.4,1.3,0.9c0.3,0.4,0.9,0,0.6-0.4c-0.4-0.6-1-1-1.7-1.2C17.2-16.1,17.1-15.4,17.5-15.3z"/>
						<path d="M20.5-10.1c0,0.5,0,1,0,1.5s0.8,0.5,0.8,0s0-1,0-1.5C21.2-10.6,20.5-10.6,20.5-10.1z"/>
						<path d="M18.5-4c0.1,0.5,0.8,0.3,0.7-0.2c-0.1-0.4,0-0.8,0.2-1.2c0.2-0.5-0.4-0.8-0.6-0.4C18.5-5.2,18.4-4.7,18.5-4z"/>
						<path d="M15.7-9.9c0,0.2,0,0.3,0,0.5c0,0.5,0.8,0.5,0.8,0c0-0.2,0-0.3,0-0.5C16.5-10.3,15.7-10.3,15.7-9.9z"/>
						<path d="M11.1-15.4c0.5,0.8,1.4,1.3,2.3,1.2c0.5,0,0.5-0.8,0-0.8c-0.7,0-1.3-0.2-1.7-0.8C11.5-16.2,10.8-15.9,11.1-15.4z"/>
						<path d="M9.2-13.6c0-0.3,0-0.5,0-0.8c0-0.5-0.8-0.5-0.8,0c0,0.3,0,0.5,0,0.8C8.5-13.1,9.2-13.1,9.2-13.6z"/>
						<path d="M9.1-17c0.5,0,0.5-0.8,0-0.8S8.6-17,9.1-17z"/>
						<path d="M17-13.1c-0.3-0.1-0.5-0.2-0.8-0.2c-0.5-0.1-0.7,0.6-0.2,0.7c0.3,0.1,0.5,0.2,0.8,0.2C17.2-12.2,17.4-12.9,17-13.1z"
							/>
						<path d="M13.8-17.5c0.2,0.1,0.5,0.2,0.7,0.3c0.5,0.2,0.6-0.5,0.2-0.7c-0.2-0.1-0.5-0.2-0.7-0.3C13.5-18.4,13.3-17.7,13.8-17.5
							z"/>
						<path d="M15.8-21.1c0.3,0.1,0.7,0.2,1,0.3c0.5,0.1,0.7-0.6,0.2-0.7c-0.3-0.1-0.7-0.2-1-0.3C15.5-21.9,15.3-21.2,15.8-21.1z"/>
						<path d="M20-16.3c0.3,0.4,0.8-0.2,0.5-0.5c-0.3-0.3-0.5-0.6-0.8-0.9c-0.3-0.4-0.8,0.2-0.5,0.5S19.8-16.6,20-16.3z"/>
						<path d="M21.7-12.9c0-0.1,0-0.2,0-0.3c0-0.5-0.8-0.5-0.8,0c0,0.1,0,0.2,0,0.3C21-12.4,21.7-12.4,21.7-12.9z"/>
						<path d="M19.1-11.2c0.5,0,0.5-0.8,0-0.8S18.6-11.2,19.1-11.2z"/>
						<path d="M13.4-19.5c0.4,0.3,0.8-0.4,0.4-0.6c-0.3-0.3-0.7-0.5-1-0.8c-0.4-0.3-0.8,0.4-0.4,0.6C12.7-20,13.1-19.8,13.4-19.5z"
							/>
						<path d="M4.3-2.3C4.4-2.2,4.5-2.1,4.6-2c0.3,0.2,0.9-0.3,0.5-0.6C5-2.7,5-2.8,4.9-2.9C4.5-3.2,4-2.7,4.3-2.3z"/>
						<path d="M9.4-4.5c0.1,0.4,0.2,0.8,0.3,1.2c0.1,0.5,0.9,0.3,0.8-0.2c-0.1-0.4-0.2-0.8-0.3-1.2C10.1-5.2,9.3-5,9.4-4.5z"/>
						<path d="M14.7-3.9c-0.1-0.5-0.9-0.3-0.8,0.1c0.1,0.3,0.2,0.7,0.3,1C14.3-2.3,15-2.5,14.9-3C14.8-3.3,14.8-3.6,14.7-3.9z"/>
						<path d="M14.6-7c-0.3,0-0.5-0.2-0.5-0.5c0.1-0.5-0.6-0.7-0.7-0.2c-0.1,0.8,0.4,1.5,1.2,1.5C15.1-6.2,15.1-7,14.6-7z"/>
						<path d="M16.2-3.4c-0.1,1,0,2.1,0.3,3.1c0.1,0.5,0.9,0.3,0.7-0.2c-0.3-1-0.3-1.9-0.2-2.9C17-3.8,16.3-3.8,16.2-3.4z"/>
						<path d="M21.7-4.4c0-0.5-0.8-0.5-0.8,0s0,1,0,1.5s0.8,0.5,0.8,0S21.7-3.9,21.7-4.4z"/>
					</g>
				</g>
			</g>
		</g>
	</g>
</pattern>
<pattern  x="-239" y="470" width="21.7" height="27.1" patternUnits="userSpaceOnUse" id="SVGID_6_" viewBox="0 -27.1 21.7 27.1" style="overflow:visible;">
	<g>
		<polygon class="cow0" points="0,0 21.7,0 21.7,-27.1 0,-27.1 		"/>
		<g>
			<polygon class="cow0" points="0,-27.1 21.7,-27.1 21.7,0 0,0 			"/>
			<g>
				<polygon class="cow0" points="0,0 21.7,0 21.7,-27.1 0,-27.1 				"/>
				<g>
					<polygon class="cow0" points="0,-27.1 21.7,-27.1 21.7,0 0,0 					"/>
					<g>
						<polygon class="cow0" points="0,0 21.7,0 21.7,-27.1 0,-27.1 						"/>
						<path d="M0.5-26.2c0.3-0.1,0.7-0.1,1-0.2c0.5-0.1,0.3-0.8-0.2-0.7C1-27,0.6-27,0.3-26.9C-0.2-26.8,0-26.1,0.5-26.2z"/>
						<path d="M2.4-23.7c0.3,0,0.7,0,1,0c0.5,0,0.5-0.8,0-0.8c-0.3,0-0.7,0-1,0C1.9-24.5,1.9-23.7,2.4-23.7z"/>
						<path d="M5.4-26.3c0.5,0.3,1,0.7,1.5,1c0.4,0.3,0.8-0.4,0.4-0.6c-0.5-0.3-1-0.7-1.5-1C5.4-27.2,5-26.6,5.4-26.3z"/>
						<path d="M10.8-23.8c0.4,0.1,0.6,0.4,0.7,0.8c0.1,0.5,0.8,0.3,0.7-0.2c-0.2-0.6-0.6-1.1-1.3-1.3C10.5-24.6,10.3-23.9,10.8-23.8
							z"/>
						<path d="M7-22.4c0,0.4,0.3,0.8,0.7,0.9c0.5,0.1,0.7-0.6,0.2-0.7c0-0.1-0.1-0.1-0.1-0.2C7.7-22.8,7-22.8,7-22.4z"/>
						<path d="M2.4-20.2c0.3,0,0.5,0,0.8,0c0.5,0,0.5-0.8,0-0.8c-0.3,0-0.5,0-0.8,0C1.9-21,1.9-20.2,2.4-20.2z"/>
						<path d="M6.2-15.3c-1.2-0.3-2.4-0.6-3.5-0.9c-0.5-0.1-0.7,0.6-0.2,0.7c1.2,0.3,2.4,0.6,3.5,0.9C6.5-14.5,6.7-15.2,6.2-15.3z"
							/>
						<path d="M11.7-18.4c0-0.3,0-0.5,0-0.8c0-0.5-0.8-0.5-0.8,0c0,0.3,0,0.5,0,0.8C11-17.9,11.7-17.9,11.7-18.4z"/>
						<path d="M5-18.8c0.6,0.2,1.1,0.4,1.7,0.6c0.5,0.2,0.7-0.6,0.2-0.7c-0.6-0.2-1.1-0.4-1.7-0.6C4.8-19.7,4.6-19,5-18.8z"/>
						<path d="M8.6-10.7c0.3,0.4,0.9,0,0.6-0.4c-0.2-0.3-0.3-0.5-0.5-0.8c-0.3-0.4-0.9,0-0.6,0.4C8.2-11.2,8.4-10.9,8.6-10.7z"/>
						<path d="M2.3-12.6c0.4,0.3,0.9-0.2,0.5-0.5s-0.8-0.7-1.3-1c-0.4-0.3-0.9,0.2-0.5,0.5C1.5-13.2,1.9-12.9,2.3-12.6z"/>
						<path d="M3-8.4c0,0.8,0,1.5,0,2.3c0,0.5,0.8,0.5,0.8,0c0-0.8,0-1.5,0-2.3C3.7-8.8,3-8.8,3-8.4z"/>
						<path d="M5.9-10.3c-0.2-0.4-0.5-0.8-0.7-1.3c-0.2-0.4-0.9,0-0.6,0.4c0.2,0.4,0.5,0.8,0.7,1.3C5.5-9.5,6.2-9.9,5.9-10.3z"/>
						<path d="M6.2-7C6.5-6.2,6.8-5.4,7-4.5C7.2-4,7.9-4.2,7.7-4.7C7.5-5.5,7.2-6.4,6.9-7.2C6.8-7.6,6-7.5,6.2-7z"/>
						<path d="M10.8-6.9c0.1,0.5,0.8,0.5,0.8,0C11.5-7.5,11.3-8,11-8.4s-0.8,0.2-0.5,0.5C10.6-7.6,10.7-7.2,10.8-6.9z"/>
						<path d="M13.5-10.5c-0.1-0.4-0.2-0.8-0.3-1.2c-0.1-0.5-0.8-0.3-0.7,0.2c0.1,0.4,0.2,0.8,0.3,1.2C12.9-9.8,13.6-10,13.5-10.5z"
							/>
						<path d="M17.5-15.3c0.5,0.1,0.9,0.4,1.3,0.9c0.3,0.4,0.9,0,0.6-0.4c-0.4-0.6-1-1-1.7-1.2C17.2-16.1,17.1-15.4,17.5-15.3z"/>
						<path d="M20.5-10.1c0,0.5,0,1,0,1.5s0.8,0.5,0.8,0s0-1,0-1.5C21.2-10.6,20.5-10.6,20.5-10.1z"/>
						<path d="M18.5-4c0.1,0.5,0.8,0.3,0.7-0.2c-0.1-0.4,0-0.8,0.2-1.2c0.2-0.5-0.4-0.8-0.6-0.4C18.5-5.2,18.4-4.7,18.5-4z"/>
						<path d="M15.7-9.9c0,0.2,0,0.3,0,0.5c0,0.5,0.8,0.5,0.8,0c0-0.2,0-0.3,0-0.5C16.5-10.3,15.7-10.3,15.7-9.9z"/>
						<path d="M11.1-15.4c0.5,0.8,1.4,1.3,2.3,1.2c0.5,0,0.5-0.8,0-0.8c-0.7,0-1.3-0.2-1.7-0.8C11.5-16.2,10.8-15.9,11.1-15.4z"/>
						<path d="M9.2-13.6c0-0.3,0-0.5,0-0.8c0-0.5-0.8-0.5-0.8,0c0,0.3,0,0.5,0,0.8C8.5-13.1,9.2-13.1,9.2-13.6z"/>
						<path d="M9.1-17c0.5,0,0.5-0.8,0-0.8S8.6-17,9.1-17z"/>
						<path d="M17-13.1c-0.3-0.1-0.5-0.2-0.8-0.2c-0.5-0.1-0.7,0.6-0.2,0.7c0.3,0.1,0.5,0.2,0.8,0.2C17.2-12.2,17.4-12.9,17-13.1z"
							/>
						<path d="M13.8-17.5c0.2,0.1,0.5,0.2,0.7,0.3c0.5,0.2,0.6-0.5,0.2-0.7c-0.2-0.1-0.5-0.2-0.7-0.3C13.5-18.4,13.3-17.7,13.8-17.5
							z"/>
						<path d="M15.8-21.1c0.3,0.1,0.7,0.2,1,0.3c0.5,0.1,0.7-0.6,0.2-0.7c-0.3-0.1-0.7-0.2-1-0.3C15.5-21.9,15.3-21.2,15.8-21.1z"/>
						<path d="M20-16.3c0.3,0.4,0.8-0.2,0.5-0.5c-0.3-0.3-0.5-0.6-0.8-0.9c-0.3-0.4-0.8,0.2-0.5,0.5S19.8-16.6,20-16.3z"/>
						<path d="M21.7-12.9c0-0.1,0-0.2,0-0.3c0-0.5-0.8-0.5-0.8,0c0,0.1,0,0.2,0,0.3C21-12.4,21.7-12.4,21.7-12.9z"/>
						<path d="M19.1-11.2c0.5,0,0.5-0.8,0-0.8S18.6-11.2,19.1-11.2z"/>
						<path d="M13.4-19.5c0.4,0.3,0.8-0.4,0.4-0.6c-0.3-0.3-0.7-0.5-1-0.8c-0.4-0.3-0.8,0.4-0.4,0.6C12.7-20,13.1-19.8,13.4-19.5z"
							/>
						<path d="M4.3-2.3C4.4-2.2,4.5-2.1,4.6-2c0.3,0.2,0.9-0.3,0.5-0.6C5-2.7,5-2.8,4.9-2.9C4.5-3.2,4-2.7,4.3-2.3z"/>
						<path d="M9.4-4.5c0.1,0.4,0.2,0.8,0.3,1.2c0.1,0.5,0.9,0.3,0.8-0.2c-0.1-0.4-0.2-0.8-0.3-1.2C10.1-5.2,9.3-5,9.4-4.5z"/>
						<path d="M14.7-3.9c-0.1-0.5-0.9-0.3-0.8,0.1c0.1,0.3,0.2,0.7,0.3,1C14.3-2.3,15-2.5,14.9-3C14.8-3.3,14.8-3.6,14.7-3.9z"/>
						<path d="M14.6-7c-0.3,0-0.5-0.2-0.5-0.5c0.1-0.5-0.6-0.7-0.7-0.2c-0.1,0.8,0.4,1.5,1.2,1.5C15.1-6.2,15.1-7,14.6-7z"/>
						<path d="M16.2-3.4c-0.1,1,0,2.1,0.3,3.1c0.1,0.5,0.9,0.3,0.7-0.2c-0.3-1-0.3-1.9-0.2-2.9C17-3.8,16.3-3.8,16.2-3.4z"/>
						<path d="M21.7-4.4c0-0.5-0.8-0.5-0.8,0s0,1,0,1.5s0.8,0.5,0.8,0S21.7-3.9,21.7-4.4z"/>
					</g>
				</g>
			</g>
		</g>
	</g>
</pattern>
<pattern  x="-239" y="470" width="21.7" height="27.1" patternUnits="userSpaceOnUse" id="SVGID_7_" viewBox="0 -27.1 21.7 27.1" style="overflow:visible;">
	<g>
		<polygon class="cow0" points="0,0 21.7,0 21.7,-27.1 0,-27.1 		"/>
		<g>
			<polygon class="cow0" points="0,-27.1 21.7,-27.1 21.7,0 0,0 			"/>
			<g>
				<polygon class="cow0" points="0,0 21.7,0 21.7,-27.1 0,-27.1 				"/>
				<g>
					<polygon class="cow0" points="0,-27.1 21.7,-27.1 21.7,0 0,0 					"/>
					<g>
						<polygon class="cow0" points="0,0 21.7,0 21.7,-27.1 0,-27.1 						"/>
						<path d="M0.5-26.2c0.3-0.1,0.7-0.1,1-0.2c0.5-0.1,0.3-0.8-0.2-0.7C1-27,0.6-27,0.3-26.9C-0.2-26.8,0-26.1,0.5-26.2z"/>
						<path d="M2.4-23.7c0.3,0,0.7,0,1,0c0.5,0,0.5-0.8,0-0.8c-0.3,0-0.7,0-1,0C1.9-24.5,1.9-23.7,2.4-23.7z"/>
						<path d="M5.4-26.3c0.5,0.3,1,0.7,1.5,1c0.4,0.3,0.8-0.4,0.4-0.6c-0.5-0.3-1-0.7-1.5-1C5.4-27.2,5-26.6,5.4-26.3z"/>
						<path d="M10.8-23.8c0.4,0.1,0.6,0.4,0.7,0.8c0.1,0.5,0.8,0.3,0.7-0.2c-0.2-0.6-0.6-1.1-1.3-1.3C10.5-24.6,10.3-23.9,10.8-23.8
							z"/>
						<path d="M7-22.4c0,0.4,0.3,0.8,0.7,0.9c0.5,0.1,0.7-0.6,0.2-0.7c0-0.1-0.1-0.1-0.1-0.2C7.7-22.8,7-22.8,7-22.4z"/>
						<path d="M2.4-20.2c0.3,0,0.5,0,0.8,0c0.5,0,0.5-0.8,0-0.8c-0.3,0-0.5,0-0.8,0C1.9-21,1.9-20.2,2.4-20.2z"/>
						<path d="M6.2-15.3c-1.2-0.3-2.4-0.6-3.5-0.9c-0.5-0.1-0.7,0.6-0.2,0.7c1.2,0.3,2.4,0.6,3.5,0.9C6.5-14.5,6.7-15.2,6.2-15.3z"
							/>
						<path d="M11.7-18.4c0-0.3,0-0.5,0-0.8c0-0.5-0.8-0.5-0.8,0c0,0.3,0,0.5,0,0.8C11-17.9,11.7-17.9,11.7-18.4z"/>
						<path d="M5-18.8c0.6,0.2,1.1,0.4,1.7,0.6c0.5,0.2,0.7-0.6,0.2-0.7c-0.6-0.2-1.1-0.4-1.7-0.6C4.8-19.7,4.6-19,5-18.8z"/>
						<path d="M8.6-10.7c0.3,0.4,0.9,0,0.6-0.4c-0.2-0.3-0.3-0.5-0.5-0.8c-0.3-0.4-0.9,0-0.6,0.4C8.2-11.2,8.4-10.9,8.6-10.7z"/>
						<path d="M2.3-12.6c0.4,0.3,0.9-0.2,0.5-0.5s-0.8-0.7-1.3-1c-0.4-0.3-0.9,0.2-0.5,0.5C1.5-13.2,1.9-12.9,2.3-12.6z"/>
						<path d="M3-8.4c0,0.8,0,1.5,0,2.3c0,0.5,0.8,0.5,0.8,0c0-0.8,0-1.5,0-2.3C3.7-8.8,3-8.8,3-8.4z"/>
						<path d="M5.9-10.3c-0.2-0.4-0.5-0.8-0.7-1.3c-0.2-0.4-0.9,0-0.6,0.4c0.2,0.4,0.5,0.8,0.7,1.3C5.5-9.5,6.2-9.9,5.9-10.3z"/>
						<path d="M6.2-7C6.5-6.2,6.8-5.4,7-4.5C7.2-4,7.9-4.2,7.7-4.7C7.5-5.5,7.2-6.4,6.9-7.2C6.8-7.6,6-7.5,6.2-7z"/>
						<path d="M10.8-6.9c0.1,0.5,0.8,0.5,0.8,0C11.5-7.5,11.3-8,11-8.4s-0.8,0.2-0.5,0.5C10.6-7.6,10.7-7.2,10.8-6.9z"/>
						<path d="M13.5-10.5c-0.1-0.4-0.2-0.8-0.3-1.2c-0.1-0.5-0.8-0.3-0.7,0.2c0.1,0.4,0.2,0.8,0.3,1.2C12.9-9.8,13.6-10,13.5-10.5z"
							/>
						<path d="M17.5-15.3c0.5,0.1,0.9,0.4,1.3,0.9c0.3,0.4,0.9,0,0.6-0.4c-0.4-0.6-1-1-1.7-1.2C17.2-16.1,17.1-15.4,17.5-15.3z"/>
						<path d="M20.5-10.1c0,0.5,0,1,0,1.5s0.8,0.5,0.8,0s0-1,0-1.5C21.2-10.6,20.5-10.6,20.5-10.1z"/>
						<path d="M18.5-4c0.1,0.5,0.8,0.3,0.7-0.2c-0.1-0.4,0-0.8,0.2-1.2c0.2-0.5-0.4-0.8-0.6-0.4C18.5-5.2,18.4-4.7,18.5-4z"/>
						<path d="M15.7-9.9c0,0.2,0,0.3,0,0.5c0,0.5,0.8,0.5,0.8,0c0-0.2,0-0.3,0-0.5C16.5-10.3,15.7-10.3,15.7-9.9z"/>
						<path d="M11.1-15.4c0.5,0.8,1.4,1.3,2.3,1.2c0.5,0,0.5-0.8,0-0.8c-0.7,0-1.3-0.2-1.7-0.8C11.5-16.2,10.8-15.9,11.1-15.4z"/>
						<path d="M9.2-13.6c0-0.3,0-0.5,0-0.8c0-0.5-0.8-0.5-0.8,0c0,0.3,0,0.5,0,0.8C8.5-13.1,9.2-13.1,9.2-13.6z"/>
						<path d="M9.1-17c0.5,0,0.5-0.8,0-0.8S8.6-17,9.1-17z"/>
						<path d="M17-13.1c-0.3-0.1-0.5-0.2-0.8-0.2c-0.5-0.1-0.7,0.6-0.2,0.7c0.3,0.1,0.5,0.2,0.8,0.2C17.2-12.2,17.4-12.9,17-13.1z"
							/>
						<path d="M13.8-17.5c0.2,0.1,0.5,0.2,0.7,0.3c0.5,0.2,0.6-0.5,0.2-0.7c-0.2-0.1-0.5-0.2-0.7-0.3C13.5-18.4,13.3-17.7,13.8-17.5
							z"/>
						<path d="M15.8-21.1c0.3,0.1,0.7,0.2,1,0.3c0.5,0.1,0.7-0.6,0.2-0.7c-0.3-0.1-0.7-0.2-1-0.3C15.5-21.9,15.3-21.2,15.8-21.1z"/>
						<path d="M20-16.3c0.3,0.4,0.8-0.2,0.5-0.5c-0.3-0.3-0.5-0.6-0.8-0.9c-0.3-0.4-0.8,0.2-0.5,0.5S19.8-16.6,20-16.3z"/>
						<path d="M21.7-12.9c0-0.1,0-0.2,0-0.3c0-0.5-0.8-0.5-0.8,0c0,0.1,0,0.2,0,0.3C21-12.4,21.7-12.4,21.7-12.9z"/>
						<path d="M19.1-11.2c0.5,0,0.5-0.8,0-0.8S18.6-11.2,19.1-11.2z"/>
						<path d="M13.4-19.5c0.4,0.3,0.8-0.4,0.4-0.6c-0.3-0.3-0.7-0.5-1-0.8c-0.4-0.3-0.8,0.4-0.4,0.6C12.7-20,13.1-19.8,13.4-19.5z"
							/>
						<path d="M4.3-2.3C4.4-2.2,4.5-2.1,4.6-2c0.3,0.2,0.9-0.3,0.5-0.6C5-2.7,5-2.8,4.9-2.9C4.5-3.2,4-2.7,4.3-2.3z"/>
						<path d="M9.4-4.5c0.1,0.4,0.2,0.8,0.3,1.2c0.1,0.5,0.9,0.3,0.8-0.2c-0.1-0.4-0.2-0.8-0.3-1.2C10.1-5.2,9.3-5,9.4-4.5z"/>
						<path d="M14.7-3.9c-0.1-0.5-0.9-0.3-0.8,0.1c0.1,0.3,0.2,0.7,0.3,1C14.3-2.3,15-2.5,14.9-3C14.8-3.3,14.8-3.6,14.7-3.9z"/>
						<path d="M14.6-7c-0.3,0-0.5-0.2-0.5-0.5c0.1-0.5-0.6-0.7-0.7-0.2c-0.1,0.8,0.4,1.5,1.2,1.5C15.1-6.2,15.1-7,14.6-7z"/>
						<path d="M16.2-3.4c-0.1,1,0,2.1,0.3,3.1c0.1,0.5,0.9,0.3,0.7-0.2c-0.3-1-0.3-1.9-0.2-2.9C17-3.8,16.3-3.8,16.2-3.4z"/>
						<path d="M21.7-4.4c0-0.5-0.8-0.5-0.8,0s0,1,0,1.5s0.8,0.5,0.8,0S21.7-3.9,21.7-4.4z"/>
					</g>
				</g>
			</g>
		</g>
	</g>
</pattern>
<pattern  x="-239" y="470" width="21.7" height="27.1" patternUnits="userSpaceOnUse" id="SVGID_8_" viewBox="0 -27.1 21.7 27.1" style="overflow:visible;">
	<g>
		<polygon class="cow0" points="0,0 21.7,0 21.7,-27.1 0,-27.1 		"/>
		<g>
			<polygon class="cow0" points="0,-27.1 21.7,-27.1 21.7,0 0,0 			"/>
			<g>
				<polygon class="cow0" points="0,0 21.7,0 21.7,-27.1 0,-27.1 				"/>
				<g>
					<polygon class="cow0" points="0,-27.1 21.7,-27.1 21.7,0 0,0 					"/>
					<g>
						<polygon class="cow0" points="0,0 21.7,0 21.7,-27.1 0,-27.1 						"/>
						<path d="M0.5-26.2c0.3-0.1,0.7-0.1,1-0.2c0.5-0.1,0.3-0.8-0.2-0.7C1-27,0.6-27,0.3-26.9C-0.2-26.8,0-26.1,0.5-26.2z"/>
						<path d="M2.4-23.7c0.3,0,0.7,0,1,0c0.5,0,0.5-0.8,0-0.8c-0.3,0-0.7,0-1,0C1.9-24.5,1.9-23.7,2.4-23.7z"/>
						<path d="M5.4-26.3c0.5,0.3,1,0.7,1.5,1c0.4,0.3,0.8-0.4,0.4-0.6c-0.5-0.3-1-0.7-1.5-1C5.4-27.2,5-26.6,5.4-26.3z"/>
						<path d="M10.8-23.8c0.4,0.1,0.6,0.4,0.7,0.8c0.1,0.5,0.8,0.3,0.7-0.2c-0.2-0.6-0.6-1.1-1.3-1.3C10.5-24.6,10.3-23.9,10.8-23.8
							z"/>
						<path d="M7-22.4c0,0.4,0.3,0.8,0.7,0.9c0.5,0.1,0.7-0.6,0.2-0.7c0-0.1-0.1-0.1-0.1-0.2C7.7-22.8,7-22.8,7-22.4z"/>
						<path d="M2.4-20.2c0.3,0,0.5,0,0.8,0c0.5,0,0.5-0.8,0-0.8c-0.3,0-0.5,0-0.8,0C1.9-21,1.9-20.2,2.4-20.2z"/>
						<path d="M6.2-15.3c-1.2-0.3-2.4-0.6-3.5-0.9c-0.5-0.1-0.7,0.6-0.2,0.7c1.2,0.3,2.4,0.6,3.5,0.9C6.5-14.5,6.7-15.2,6.2-15.3z"
							/>
						<path d="M11.7-18.4c0-0.3,0-0.5,0-0.8c0-0.5-0.8-0.5-0.8,0c0,0.3,0,0.5,0,0.8C11-17.9,11.7-17.9,11.7-18.4z"/>
						<path d="M5-18.8c0.6,0.2,1.1,0.4,1.7,0.6c0.5,0.2,0.7-0.6,0.2-0.7c-0.6-0.2-1.1-0.4-1.7-0.6C4.8-19.7,4.6-19,5-18.8z"/>
						<path d="M8.6-10.7c0.3,0.4,0.9,0,0.6-0.4c-0.2-0.3-0.3-0.5-0.5-0.8c-0.3-0.4-0.9,0-0.6,0.4C8.2-11.2,8.4-10.9,8.6-10.7z"/>
						<path d="M2.3-12.6c0.4,0.3,0.9-0.2,0.5-0.5s-0.8-0.7-1.3-1c-0.4-0.3-0.9,0.2-0.5,0.5C1.5-13.2,1.9-12.9,2.3-12.6z"/>
						<path d="M3-8.4c0,0.8,0,1.5,0,2.3c0,0.5,0.8,0.5,0.8,0c0-0.8,0-1.5,0-2.3C3.7-8.8,3-8.8,3-8.4z"/>
						<path d="M5.9-10.3c-0.2-0.4-0.5-0.8-0.7-1.3c-0.2-0.4-0.9,0-0.6,0.4c0.2,0.4,0.5,0.8,0.7,1.3C5.5-9.5,6.2-9.9,5.9-10.3z"/>
						<path d="M6.2-7C6.5-6.2,6.8-5.4,7-4.5C7.2-4,7.9-4.2,7.7-4.7C7.5-5.5,7.2-6.4,6.9-7.2C6.8-7.6,6-7.5,6.2-7z"/>
						<path d="M10.8-6.9c0.1,0.5,0.8,0.5,0.8,0C11.5-7.5,11.3-8,11-8.4s-0.8,0.2-0.5,0.5C10.6-7.6,10.7-7.2,10.8-6.9z"/>
						<path d="M13.5-10.5c-0.1-0.4-0.2-0.8-0.3-1.2c-0.1-0.5-0.8-0.3-0.7,0.2c0.1,0.4,0.2,0.8,0.3,1.2C12.9-9.8,13.6-10,13.5-10.5z"
							/>
						<path d="M17.5-15.3c0.5,0.1,0.9,0.4,1.3,0.9c0.3,0.4,0.9,0,0.6-0.4c-0.4-0.6-1-1-1.7-1.2C17.2-16.1,17.1-15.4,17.5-15.3z"/>
						<path d="M20.5-10.1c0,0.5,0,1,0,1.5s0.8,0.5,0.8,0s0-1,0-1.5C21.2-10.6,20.5-10.6,20.5-10.1z"/>
						<path d="M18.5-4c0.1,0.5,0.8,0.3,0.7-0.2c-0.1-0.4,0-0.8,0.2-1.2c0.2-0.5-0.4-0.8-0.6-0.4C18.5-5.2,18.4-4.7,18.5-4z"/>
						<path d="M15.7-9.9c0,0.2,0,0.3,0,0.5c0,0.5,0.8,0.5,0.8,0c0-0.2,0-0.3,0-0.5C16.5-10.3,15.7-10.3,15.7-9.9z"/>
						<path d="M11.1-15.4c0.5,0.8,1.4,1.3,2.3,1.2c0.5,0,0.5-0.8,0-0.8c-0.7,0-1.3-0.2-1.7-0.8C11.5-16.2,10.8-15.9,11.1-15.4z"/>
						<path d="M9.2-13.6c0-0.3,0-0.5,0-0.8c0-0.5-0.8-0.5-0.8,0c0,0.3,0,0.5,0,0.8C8.5-13.1,9.2-13.1,9.2-13.6z"/>
						<path d="M9.1-17c0.5,0,0.5-0.8,0-0.8S8.6-17,9.1-17z"/>
						<path d="M17-13.1c-0.3-0.1-0.5-0.2-0.8-0.2c-0.5-0.1-0.7,0.6-0.2,0.7c0.3,0.1,0.5,0.2,0.8,0.2C17.2-12.2,17.4-12.9,17-13.1z"
							/>
						<path d="M13.8-17.5c0.2,0.1,0.5,0.2,0.7,0.3c0.5,0.2,0.6-0.5,0.2-0.7c-0.2-0.1-0.5-0.2-0.7-0.3C13.5-18.4,13.3-17.7,13.8-17.5
							z"/>
						<path d="M15.8-21.1c0.3,0.1,0.7,0.2,1,0.3c0.5,0.1,0.7-0.6,0.2-0.7c-0.3-0.1-0.7-0.2-1-0.3C15.5-21.9,15.3-21.2,15.8-21.1z"/>
						<path d="M20-16.3c0.3,0.4,0.8-0.2,0.5-0.5c-0.3-0.3-0.5-0.6-0.8-0.9c-0.3-0.4-0.8,0.2-0.5,0.5S19.8-16.6,20-16.3z"/>
						<path d="M21.7-12.9c0-0.1,0-0.2,0-0.3c0-0.5-0.8-0.5-0.8,0c0,0.1,0,0.2,0,0.3C21-12.4,21.7-12.4,21.7-12.9z"/>
						<path d="M19.1-11.2c0.5,0,0.5-0.8,0-0.8S18.6-11.2,19.1-11.2z"/>
						<path d="M13.4-19.5c0.4,0.3,0.8-0.4,0.4-0.6c-0.3-0.3-0.7-0.5-1-0.8c-0.4-0.3-0.8,0.4-0.4,0.6C12.7-20,13.1-19.8,13.4-19.5z"
							/>
						<path d="M4.3-2.3C4.4-2.2,4.5-2.1,4.6-2c0.3,0.2,0.9-0.3,0.5-0.6C5-2.7,5-2.8,4.9-2.9C4.5-3.2,4-2.7,4.3-2.3z"/>
						<path d="M9.4-4.5c0.1,0.4,0.2,0.8,0.3,1.2c0.1,0.5,0.9,0.3,0.8-0.2c-0.1-0.4-0.2-0.8-0.3-1.2C10.1-5.2,9.3-5,9.4-4.5z"/>
						<path d="M14.7-3.9c-0.1-0.5-0.9-0.3-0.8,0.1c0.1,0.3,0.2,0.7,0.3,1C14.3-2.3,15-2.5,14.9-3C14.8-3.3,14.8-3.6,14.7-3.9z"/>
						<path d="M14.6-7c-0.3,0-0.5-0.2-0.5-0.5c0.1-0.5-0.6-0.7-0.7-0.2c-0.1,0.8,0.4,1.5,1.2,1.5C15.1-6.2,15.1-7,14.6-7z"/>
						<path d="M16.2-3.4c-0.1,1,0,2.1,0.3,3.1c0.1,0.5,0.9,0.3,0.7-0.2c-0.3-1-0.3-1.9-0.2-2.9C17-3.8,16.3-3.8,16.2-3.4z"/>
						<path d="M21.7-4.4c0-0.5-0.8-0.5-0.8,0s0,1,0,1.5s0.8,0.5,0.8,0S21.7-3.9,21.7-4.4z"/>
					</g>
				</g>
			</g>
		</g>
	</g>
</pattern>
<g id="cow-circle">
	<path class="cow1" d="M-119.9,433.6c-0.2,0.2-2-1.5-4.6-3s-4.5-3.9-5.2-4.7c-0.7-0.9-8.1-6.7-9.1-7.6c-1.1-0.9-5.2-4-6.3-5
		c-1.1-1.1-2-1.9-2-1.9"/>
	<path class="cow1" d="M-137.2,449.5c0,0-2.4-3.2-3.7-5.8c-1.3-2.5-1.3-2.4-2.6-4.7c-1.3-2.3-2.9-4.6-3.6-6c-0.7-1.5-1.9-4.8-3.2-6.3
		c-1.2-1.5-2.4-3.6-3-4.5s-3.3-4.7-3.3-4.7"/>
	<path class="cow1" d="M-157.9,430.1c0,0,1.5,1.9,2.3,4s1.9,4.5,1.9,4.5"/>
	<path class="cow1" d="M-181.3,448.5c0,0,0.2,3.1-0.6,4.2"/>
	<path class="cow1" d="M-161.7,444.1c0,0,0.4,2.1,0.9,4.2s0.5,4,0.8,5.6"/>
	<path class="cow1" d="M-194.4,410.5c0,0-2.2,1.9-4,3.5s-3.5,2.4-4.5,3.5s-4,3.6-4.7,4.2s-2.7,2.3-3.6,3c-0.9,0.7-2.2,1.7-3.5,3.3
		c-1.3,1.6-3.8,2.8-4.5,3.4s-2.3,2-2.3,2"/>
	<path class="cow1" d="M-188.2,421.6c0,0-3,4-4.3,5.6s-1.1,3.7-2.9,6.2s-3.7,5.7-4.5,7.2c-0.8,1.4-4.4,7.7-4.4,7.7"/>
	<path class="cow1" d="M-221.2,382.1c0,0,2.6,0.5,4.8,0.9s5.4,1.1,5.4,1.1"/>
	<path class="cow1" d="M-198,381.4c-0.6-0.1-3.4-1.6-5-2s-3.3-0.6-4.9-1.5c-1.6-0.9-9.6-3.1-10.9-3.9c-1.4-0.8-10.5-4.8-12.3-4.8
		s-3.7-0.7-3.7-0.7"/>
	<path class="cow1" d="M-224,348.9c0.8,0,1-1.4,4.4,1.5s5.1,3.9,7.6,6.2c2.5,2.3,4.7,3.1,6.3,5s1.7,2.4,3.6,3.8s5.1,3.1,5.1,3.1"/>
	<path class="cow1" d="M-188.4,343.6c0,0,0.5,1.2,1.1,2.4c0.6,1.2,1,3.1,1.1,3.7s0.5,1.3,0.9,1.8"/>
	<path class="cow1" d="M-204.2,332.8c0,0.3,0.6,3.3,2,4.6c1.5,1.4,3.1,5.4,4.1,7.1s2.2,3.8,3.4,5.8s2,3.2,2.2,4.6"/>
	<path class="cow1" d="M-182.7,324.7c-0.1,0.2,0.3,3.3,0.7,5.2c0.3,1.9,0.2,2.7,0.9,4.9c0.7,2.3,1.3,2.3,1.4,5.6
		c0.1,3.3,0.2,3.8,0.5,5.2c0.2,1.3,1,7.6,1.5,8.7"/>
	<path class="cow1" d="M-159.7,325.2c0,0,0.3,3.7-0.5,6.1s-1.5,5.2-1.7,6.6c-0.2,1.5-1,8.2-1.5,9s-1.1,8.6-1.2,8.7"/>
	<path class="cow1" d="M-153.7,343.3c0,0-1.2,0.6-1.3,1.7c0,1.1-0.2,2.3-0.6,3.1c-0.4,0.8-1.9,3.2-1.8,4.2"/>
	<path class="cow1" d="M-137.7,332.8c0,0.3-1,1.9-1.8,3.2c-0.7,1.3-2.4,2.5-2.8,4c-0.4,1.5-1,2.7-1.9,4.1c-0.8,1.4-1.9,3.1-1.9,3.1"
		/>
	<path class="cow1" d="M-120.7,348.7c0,0-3.8,3.2-5,4.2s-2.8,1.5-4.2,2.8c-1.4,1.3-3.5,2-3.9,3.2s-2.2,2.1-2.8,2.9
		c-0.7,0.8-2.6,2.4-3.7,3.4c-1.1,1-3.1,3-3.3,3.5"/>
	<path class="cow1" d="M-109,368.7c0,0-2.4,0.5-3.9,1.1s-3.2,1.5-4.1,1.5c-1,0-1.2,0.4-1.8,0.7c-0.6,0.2-21.8,6.9-22.7,8.2"/>
	<path class="cow2" d="M-137.2,389.3c0.9,0,1.1,0.1,2.8-0.2c1.7-0.3,2.6,0,3.4,0.1c0.8,0.1,2.4,0.1,3,0.1s2.3,0,3,0s1.8-0.3,2.5,0
		s2,0.7,2.5,0.6s2-0.3,3-0.5c1-0.1,2.8,0.1,3.2,0c0.4-0.1,1.8-0.1,2.3-0.3c0.5-0.2,1.8-0.2,2.3,0c0.4,0.2,1.7,0.3,1.7,0.3"/>
	<path class="cow2" d="M-143.7,400c0.3,0,1.3,0.6,1.9,0.8c0.6,0.2,1.9,0.7,2.2,0.8c0.3,0.1,0.9,0.5,1.4,0.6s1.6,0.2,1.8,0.4
		c0.2,0.2,1.3,0.8,1.8,1.1c0.5,0.3,5.1,1.9,6.4,2c1.3,0.1,4.3,1.5,5.2,1.9c1,0.4,3,1.4,3.9,1.6s3.3,1.4,3.9,1.5s3.6,1.1,3.6,1.1"/>
	<path class="cow2" d="M-137.7,410c0.1,0,1.7,0.8,2.1,1c0.4,0.2,0.8,0.5,1.2,0.7s2,1.5,2.4,1.8s1.5,0.4,1.5,0.4"/>
	<path class="cow2" d="M-150,408.9c0,0,1.8,1.5,2.9,2.5c1.2,1,1.6,1.3,2.5,2.4s3.4,2,3.8,2.5c0.4,0.6,3.4,2.7,3.9,3.5
		s4.4,3.6,5.4,4.5s2.9,2.4,3.5,2.9s3.6,3,4.1,3.4c0.5,0.5,2.3,2,2.3,2"/>
	<path class="cow2" d="M-144.7,423.4c0,0,1,1.1,1.1,1.3c0.1,0.1,0.5,1,1.1,1.5"/>
	<path class="cow2" d="M-156,419.8c0,0,1.7,1.9,2.6,3.6c0.9,1.7,2.7,4.8,3.3,5.8c0.6,1.1,1,2.4,1.8,3.5c0.9,1.1,2.1,3.2,2.7,4.3
		c0.6,1.1,1.3,2.2,2,3.5s1.8,3,2.5,4.2s1.3,2,1.3,2.2"/>
	<path class="cow2" d="M-163,447c0,0,0.8,1.4,0.6,2.2c-0.1,0.8-0.3,1.1,0,2.2s0.5,2.1,0.6,2.7"/>
	<path class="cow2" d="M-183,446.4c0,0-0.7,0.7-0.9,2.1s0.1,2.4-0.3,3.3"/>
	<path class="cow2" d="M-206.7,446.7c0,0,1.8-2.3,2.6-3.8c0.9-1.5,1.6-3.7,2.3-4.7s1.2-1.3,1.7-2.2s2.8-4.9,3.8-6.6s1.4-2.4,1.9-3.3
		c0.5-1,1.5-1.3,1.7-3s2.2-3.8,2.5-4.3"/>
	<path class="cow2" d="M-196.5,408.8c0,0-0.9,0.9-1.9,1.7c-1,0.8-3.2,1.9-3.8,2.7c-0.5,0.8-1.3,2.2-2.1,2.5c-0.9,0.4-3.7,3.1-4.7,3.6
		s-5.1,3.4-5.7,4.4c-0.7,1-1.5,1.6-2.4,2.4s-5.5,4.9-5.5,4.9"/>
	<path class="cow2" d="M-234.9,411.8c0,0,3.9-1.7,7-2.5s6.9-2.5,8.2-3c1.2-0.5,4.3-1.1,4.8-1.5s3.1-1.4,3.9-1.7
		c0.8-0.3,4.6-1.7,4.9-1.8"/>
	<path class="cow2" d="M-209.9,410.5c0,0-1.4,0.4-2.1,1.2c-0.7,0.8-2.4,1.4-3.1,1.8"/>
	<path class="cow2" d="M-214.9,396.3c0,0,0.4-0.1-2,0.7c-2.4,0.9-3,0.2-4.3,0.9"/>
	<path class="cow2" d="M-238.2,389.3c0,0,3-0.4,6.9,0s7.7,0,9,0s4.7-0.3,5.8,0s4.1,0,4.6,0"/>
	<path class="cow2" d="M-215.2,381.9c0,0-1.1-0.2-2.9-0.3c-1.8-0.2-3-0.7-3.8-0.7"/>
	<path class="cow2" d="M-229.7,368.8c0,0-0.8-0.7-2.5-0.9s-2.2-0.6-2.7-1"/>
	<path class="cow2" d="M-131.9,382.1c0,0,1.1-0.8,2.3-0.7c1.2,0.1,1.4,0.4,2.5-0.1"/>
	<path class="cow2" d="M-111,366.5c0,0,0.2-0.2-1,0.4s-2.1,1-2.6,1c-0.5,0.1-2,0.7-2,0.7"/>
	<path class="cow2" d="M-122.7,347.2c0,0-4,3.2-5.4,4.4c-1.4,1.2-3.1,2-4.1,3s-2,2.1-2.9,2.9s-2.3,1.9-2.9,2.4
		c-0.6,0.5-1.8,1.9-2.4,2.5c-0.6,0.5-4.2,3.1-4.9,3.7s-1,1.2-1,1.2"/>
	<path class="cow2" d="M-141,350.8c0,0-0.2,0.5-1.1,1.6c-1,1.1-1.3,2.2-2,2.7s-1.3,1.2-1.3,1.2"/>
	<path class="cow2" d="M-140.2,332c-0.1,0.4-2.2,3.3-3,5s-1.1,3.5-1.7,3.9c-0.6,0.4-1.8,3.6-2.4,4.1c-0.6,0.6-3,4.7-3,4.7"/>
	<path class="cow2" d="M-156.3,342.6c-0.2,0.1-0.9,0.9-0.9,2c-0.1,1.1-0.7,2.8-1,3.6"/>
	<path class="cow2" d="M-161.9,324.5c0,0-0.9,3-1.1,5.7c-0.2,2.7-0.5,4.2-0.9,6.6s-1.1,6.5-1.3,7.1c-0.1,0.6-1.1,2.5-1.1,3.1
		s-0.3,1.9-0.3,2.8"/>
	<path class="cow2" d="M-173,339.9c0,0,0.3,0.4-0.2,2.3s-0.2,2-0.2,3.2"/>
	<path class="cow2" d="M-184.7,324.5c0,0,0.2,3.6,0.8,5.8c0.6,2.2,0.2-0.2,1.2,5.5s1.2,7.1,1.4,8.2s0.2,3.3,0.6,4.5
		c0.4,1.2,0.7,2.8,0.7,3"/>
	<path class="cow2" d="M-190.2,342.9c0,0-0.5,0.8,0.4,2.1c0.9,1.4,1.1,1.2,1.3,2.4"/>
	<path class="cow2" d="M-195.5,350.9c0,0-1.2-2.3-2.4-4.4s-2-3.5-2.2-3.9c-0.2-0.3-1-1.8-1.3-2.2c-0.2-0.4-1-1.6-1.8-2.5
		s-1.5-1.9-1.5-2.5s-1-2.4-1-2.4"/>
	<g>
		<g>
			<g>
				<line class="cow2" x1="-209.7" y1="389.3" x2="-239" y2="389.3"/>
				<line class="cow2" x1="-136.7" y1="389.3" x2="-107.3" y2="389.3"/>
				<line class="cow2" x1="-204.2" y1="400.6" x2="-235.2" y2="411.9"/>
				<line class="cow2" x1="-111.3" y1="366.8" x2="-143.7" y2="378.5"/>
				<line class="cow2" x1="-122.7" y1="347" x2="-149" y2="369.1"/>
				<line class="cow2" x1="-196.9" y1="409.2" x2="-223.7" y2="431.7"/>
				<line class="cow2" x1="-188.5" y1="415.8" x2="-206.2" y2="446.4"/>
				<line class="cow2" x1="-140.2" y1="332.3" x2="-157.4" y2="362.1"/>
				<line class="cow2" x1="-161.7" y1="324.5" x2="-166.7" y2="352.1"/>
				<line class="cow2" x1="-184.7" y1="454.2" x2="-179.4" y2="424.5"/>
				<line class="cow2" x1="-167" y1="424.5" x2="-161.7" y2="454.2"/>
				<line class="cow2" x1="-179.7" y1="352.7" x2="-184.7" y2="324.5"/>
				<line class="cow2" x1="-206.2" y1="332.3" x2="-188.9" y2="362.2"/>
				<line class="cow2" x1="-140.2" y1="446.4" x2="-158" y2="415.8"/>
				<line class="cow2" x1="-122.7" y1="431.7" x2="-149.7" y2="409.3"/>
				<line class="cow2" x1="-222.7" y1="347" x2="-196.2" y2="369.2"/>
				<line class="cow2" x1="-235.2" y1="366.8" x2="-202.5" y2="378.6"/>
				<line class="cow2" x1="-111.3" y1="411.9" x2="-142.4" y2="400.5"/>
			</g>
			<line class="cow2" x1="-124.5" y1="380.8" x2="-131" y2="381.9"/>
			<line class="cow2" x1="-221.9" y1="397.9" x2="-214.9" y2="396.7"/>
			<line class="cow2" x1="-216" y1="414" x2="-209.9" y2="410.5"/>
			<line class="cow2" x1="-130.5" y1="364.6" x2="-136.2" y2="367.9"/>
			<line class="cow2" x1="-145.7" y1="356.6" x2="-141.4" y2="351.5"/>
			<line class="cow2" x1="-204.9" y1="427.2" x2="-202.2" y2="423.8"/>
			<line class="cow2" x1="-158.7" y1="349.2" x2="-156.3" y2="342.9"/>
			<line class="cow2" x1="-190.2" y1="435.8" x2="-187.7" y2="429.3"/>
			<path class="cow2" d="M-173.2,438.8"/>
			<line class="cow2" x1="-173.2" y1="339.9" x2="-173.2" y2="346.8"/>
			<line class="cow2" x1="-158.7" y1="429.4" x2="-156.3" y2="435.8"/>
			<line class="cow2" x1="-190.2" y1="342.9" x2="-187.7" y2="349.4"/>
			<line class="cow2" x1="-200.4" y1="356.8" x2="-204.9" y2="351.5"/>
			<line class="cow2" x1="-144.4" y1="423.7" x2="-141.4" y2="427.2"/>
			<line class="cow2" x1="-216" y1="364.6" x2="-209.9" y2="368.1"/>
			<line class="cow2" x1="-130.5" y1="414" x2="-136.2" y2="410.7"/>
			<line class="cow2" x1="-124.5" y1="397.9" x2="-131" y2="396.8"/>
			<line class="cow2" x1="-221.9" y1="380.8" x2="-214.9" y2="382"/>
			<line class="cow2" x1="-133" y1="404" x2="-133" y2="404"/>
			<line class="cow2" x1="-151.9" y1="352.4" x2="-151.9" y2="352.4"/>
			<line class="cow2" x1="-180.7" y1="431.2" x2="-180.7" y2="431.2"/>
			<line class="cow2" x1="-165.9" y1="347.4" x2="-165.9" y2="347.4"/>
			<line class="cow2" x1="-140.4" y1="361.9" x2="-140.4" y2="361.9"/>
			<line class="cow2" x1="-194.4" y1="426.1" x2="-194.4" y2="426.1"/>
			<line class="cow2" x1="-213" y1="403.8" x2="-213" y2="403.8"/>
			<line class="cow2" x1="-205.7" y1="362.1" x2="-205.7" y2="362.1"/>
			<line class="cow2" x1="-213" y1="374.8" x2="-213" y2="374.8"/>
			<line class="cow2" x1="-151.9" y1="426.3" x2="-151.9" y2="426.3"/>
			<line class="cow2" x1="-165.9" y1="431.3" x2="-165.9" y2="431.3"/>
			<line class="cow2" x1="-205.7" y1="416.6" x2="-205.7" y2="416.6"/>
			<line class="cow2" x1="-194.4" y1="352.6" x2="-194.4" y2="352.6"/>
			<line class="cow2" x1="-133" y1="374.7" x2="-133" y2="374.7"/>
			<line class="cow2" x1="-180.7" y1="347.4" x2="-180.7" y2="347.4"/>
		</g>
		<g>
			<g>
				<line class="cow1" x1="-207.7" y1="391" x2="-237" y2="391"/>
				<line class="cow1" x1="-134.7" y1="391" x2="-105.3" y2="391"/>
				<line class="cow1" x1="-202.2" y1="402.3" x2="-233.2" y2="413.6"/>
				<line class="cow1" x1="-109.3" y1="368.5" x2="-141.7" y2="380.2"/>
				<line class="cow1" x1="-120.7" y1="348.7" x2="-147" y2="370.8"/>
				<line class="cow1" x1="-194.9" y1="410.9" x2="-221.7" y2="433.4"/>
				<line class="cow1" x1="-186.5" y1="417.5" x2="-204.2" y2="448.1"/>
				<line class="cow1" x1="-138.2" y1="334" x2="-155.4" y2="363.8"/>
				<line class="cow1" x1="-159.7" y1="326.2" x2="-164.7" y2="353.8"/>
				<line class="cow1" x1="-182.7" y1="455.9" x2="-177.4" y2="426.2"/>
				<line class="cow1" x1="-165" y1="426.2" x2="-159.7" y2="455.9"/>
				<line class="cow1" x1="-177.7" y1="354.4" x2="-182.7" y2="326.2"/>
				<line class="cow1" x1="-204.2" y1="334" x2="-186.9" y2="363.9"/>
				<line class="cow1" x1="-138.2" y1="448.1" x2="-156" y2="417.5"/>
				<line class="cow1" x1="-120.7" y1="433.4" x2="-147.7" y2="411"/>
				<line class="cow1" x1="-221.7" y1="348.7" x2="-195.2" y2="370.9"/>
				<line class="cow1" x1="-233.2" y1="368.5" x2="-200.5" y2="380.3"/>
				<line class="cow1" x1="-109.3" y1="413.6" x2="-140.4" y2="402.2"/>
			</g>
			<line class="cow1" x1="-122.5" y1="382.4" x2="-129" y2="383.6"/>
			<line class="cow1" x1="-219.9" y1="399.6" x2="-212.9" y2="398.4"/>
			<line class="cow1" x1="-214" y1="415.7" x2="-207.9" y2="412.2"/>
			<line class="cow1" x1="-128.5" y1="366.3" x2="-134.2" y2="369.6"/>
			<line class="cow1" x1="-143.7" y1="358.3" x2="-139.4" y2="353.2"/>
			<line class="cow1" x1="-202.9" y1="428.9" x2="-200.2" y2="425.5"/>
			<line class="cow1" x1="-156.7" y1="350.9" x2="-154.3" y2="344.6"/>
			<line class="cow1" x1="-188.2" y1="437.5" x2="-185.7" y2="431"/>
			<line class="cow1" x1="-171.2" y1="440.5" x2="-171.2" y2="433.6"/>
			<line class="cow1" x1="-171.2" y1="341.6" x2="-171.2" y2="348.5"/>
			<line class="cow1" x1="-156.7" y1="431.1" x2="-154.3" y2="437.5"/>
			<line class="cow1" x1="-188.2" y1="344.6" x2="-185.7" y2="351.1"/>
			<line class="cow1" x1="-198.4" y1="358.5" x2="-202.9" y2="353.2"/>
			<line class="cow1" x1="-142.4" y1="425.4" x2="-139.4" y2="428.9"/>
			<line class="cow1" x1="-214" y1="366.3" x2="-207.9" y2="369.8"/>
			<line class="cow1" x1="-128.5" y1="415.7" x2="-134.2" y2="412.4"/>
			<line class="cow1" x1="-122.5" y1="399.6" x2="-129" y2="398.5"/>
			<line class="cow1" x1="-219.9" y1="382.4" x2="-212.9" y2="383.7"/>
			<line class="cow1" x1="-131" y1="405.7" x2="-131" y2="405.7"/>
			<line class="cow1" x1="-149.9" y1="354.1" x2="-149.9" y2="354.1"/>
			<line class="cow1" x1="-178.7" y1="432.9" x2="-178.7" y2="432.9"/>
			<line class="cow1" x1="-163.9" y1="349.1" x2="-163.9" y2="349.1"/>
			<line class="cow1" x1="-138.4" y1="363.6" x2="-138.4" y2="363.6"/>
			<line class="cow1" x1="-192.4" y1="427.8" x2="-192.4" y2="427.8"/>
			<line class="cow1" x1="-211" y1="405.5" x2="-211" y2="405.5"/>
			<line class="cow1" x1="-203.7" y1="363.8" x2="-203.7" y2="363.8"/>
			<line class="cow1" x1="-211" y1="376.5" x2="-211" y2="376.5"/>
			<line class="cow1" x1="-149.9" y1="428" x2="-149.9" y2="428"/>
			<line class="cow1" x1="-163.9" y1="433" x2="-163.9" y2="433"/>
			<line class="cow1" x1="-203.7" y1="418.3" x2="-203.7" y2="418.3"/>
			<line class="cow1" x1="-192.4" y1="354.3" x2="-192.4" y2="354.3"/>
			<line class="cow1" x1="-131" y1="376.4" x2="-131" y2="376.4"/>
			<line class="cow1" x1="-178.7" y1="349.1" x2="-178.7" y2="349.1"/>
		</g>
	</g>
	<g>
		<path d="M-157.2,351.5L-157.2,351.5 M-155.2,352.5L-155.2,352.5 M-155.7,353.7L-155.7,353.7 M-155.9,355L-155.9,355 M-149.9,356
			L-149.9,356 M-150.9,356.1L-150.9,356.1 M-152.7,357.6L-152.7,357.6 M-153.7,357.9L-153.7,357.9 M-149.2,359.2L-149.2,359.2
			 M-147.7,359.6L-147.7,359.6"/>
	</g>
	<path class="cow2" d="M-167,442.6"/>
	<path class="cow1" d="M-135.4,390.8c0.7,0.2,5.1-0.2,7,0c1.9,0.2,2.8,0.2,6,0.2s6-0.8,8,0s6.9,0,8,0"/>
	<path class="cow1" d="M-129.9,398.5c0.7,0,2.1,0.2,3.4,0.5c1.3,0.3,3.1,0.8,3.6,0.6"/>
	<path class="cow1" d="M-130.5,384c0,0,0.7-0.2,3.5-0.9c2.8-0.7,4.8-0.6,4.8-0.6"/>
	<path class="cow1" d="M-139,352.4c-0.4,0.8-0.5,0.9-1.6,2.2c-1.1,1.3-1.7,2.4-2.6,3.1"/>
	<path class="cow1" d="M-171.2,340.3c0,0.1,0,1,0,2.6s0,3.5,0,4.6s-0.4,2.2-0.3,2.3"/>
	<path class="cow1" d="M-238.7,391.9c0,0,0.6-1.1,4.4-1.1c3.8,0,6.2,0.2,9,0.2s5.2,0.3,6.6,0.3s3.3-0.3,5.2-0.6c1.8-0.2,6,0.2,6,0.2"
		/>
	<path class="cow1" d="M-212,397.9c-0.2,0.1-2.6,0-3.2,0.5c-0.5,0.5-1.6,0.7-2.5,0.8"/>
	<path class="cow1" d="M-201,401.7c0,0-3.1,1.3-4.6,1.9s-4.5,1.4-5.7,1.9c-1.2,0.6-5.1,1.4-6.7,2.6c-1.6,1.2-1.6,1.4-3.8,1.8
		s-3.6,0.9-5.5,1.6s-5.8,2.5-5.8,2.5"/>
	<path class="cow1" d="M-207,412c-0.4,0.2-0.7,0.6-2.1,1.2c-1.4,0.5-3.6,0.9-3.9,1.5"/>
	<path class="cow1" d="M-199.9,424.8c-0.2,0.1-0.8,1.2-1.8,2c-0.9,0.8-1.8,2.4-2,2.7"/>
	<path class="cow1" d="M-138.9,429.4c-0.3-0.2-0.1-1.5-1.6-2.1c-1.4-0.6-2.2-1.9-2.2-1.9"/>
	<path class="cow1" d="M-135.2,412.4c0.2,0.1,1.3,0.2,2.5,0.9s2.3,1.3,3.3,1.9"/>
	<path class="cow1" d="M-141.9,401.6c0,0,3.8,1.4,5.7,2.1s5.7,2.6,7.1,2.9c1.5,0.3,3.6,0.6,5.6,1.8c2.1,1.2,4.2,2.3,5.2,2.3
		s4.7,1.3,6.1,1.8"/>
	<path class="cow2" d="M-166.2,435.7c-0.5,4.2-0.2,4.4-0.2,7"/>
</g>
<g id="cow-chin">
	<path class="cow3" d="M-158,440.3c-1.8,4.4-4.3,14.8-13.1,14.6c-8.8,0.3-11.3-10.2-13.1-14.6c3.5-0.4,8.3-0.6,13-0.7
		C-166.4,439.7-161.5,439.8-158,440.3L-158,440.3z"/>
	<path class="cow2" d="M-159,442.6c0,0,0.2,1.7-0.9,2.8s-1.5,2-1.7,2.9s-0.6,1.7-1.2,2.4c-0.6,0.7-1.5,2.2-2.2,2.3"/>
	<path class="cow2" d="M-176.5,453.7c0,0-1.8-0.7-2.4-2.2c-0.6-1.5-1.4-1.9-1.7-2.5s-1.3-2.5-1.6-3.2s-1.4-2.7-1.1-2.8"/>
</g>
<g id="cow-tongue">
	<path class="cow4" d="M-174.9,444.1c2.1,7.7-4.7,17.3-4.7,17.3c-0.8,1.4,0.7,5.2,1.6,6.2c0.5,0.6,1.1,1.1,1.8,1.3
		c3.2,1.1,7.1-2.5,8.7-4.9c0.1-0.2,1.4-2,1.8-3.8c0.1-0.6,0.3-1.7,0.4-2.5c0-0.3,0.1-0.5,0.1-0.8c0-0.4,0.1-0.9,0.1-1.8
		c0-0.6,0-1.3,0-2.2c-0.1-0.5-0.1-1-0.1-1.4c0-0.5,0.1-0.6,0.1-1.1c0-0.2,0-0.5-0.1-1.3c-0.1-0.9-0.2-1.6-0.2-1.6
		c-0.5-3.1-0.5-3.4-0.8-3.6c-0.2-0.1-0.3-0.1-1.9,0.1c-1.9,0.3-2.3,0.4-2.9,0.4c-0.2,0-0.9-0.1-2.2-0.2c-0.4-0.1-0.8-0.1-1-0.1"/>
	<path class="cow4" d="M-166,443.9c0,0,4.3,18.8-4.9,23.8"/>
	<path class="cow5" d="M-170.5,467.6c2.2-1.1,2.2-1.6,2.9-2.8c0.7-1.3,1.3-1.2,1.5-3.1c0.1-1.9,0.1-2.7,0.4-3.5"/>
	<path class="cow5" d="M-177.4,457.3c-0.3,0.6-0.8,1.8-1.3,2.7c-0.5,0.9-1,1-0.9,2.4s0.5,2.4,0.6,3.5s0.7,1.9,1.5,2.4"/>
	<path class="cow2" d="M-165.7,457.4c0.3-0.8,0.4-2.5,0.6-3.5c0.2-1,0.2-2.1,0.1-3c-0.1-0.9-0.3-1.4-0.2-2.7c0.1-1.3-0.3-2.4-0.4-3
		c-0.1-0.6-0.4-1.9-0.4-1.9"/>
	<path class="cow2" d="M-177.4,467.5c0.8,0.5,1.9,1.2,2.8,1c0.8-0.3,2-0.6,4.2-1.7"/>
	<path class="cow2" d="M-174.7,443.4c0,0-0.5,1.6-0.3,2.9s0.4,2.5,0,3.5s-0.3,3.2-1,4.1s-1.1,2-1.4,2.6"/>
</g>
<g id="cow">
	<g>
		<g>
			<path class="cow1" d="M-155.9,430.3c0,0,1.5,1.9,2.3,4"/>
			<g>
				<g>
					<line class="cow2" x1="-128.5" y1="364.8" x2="-134.2" y2="368.1"/>
					<line class="cow2" x1="-188.2" y1="436" x2="-185.9" y2="429.5"/>
					<line class="cow2" x1="-171.3" y1="439" x2="-171.3" y2="432.1"/>
					<line class="cow2" x1="-156.7" y1="429.6" x2="-154.4" y2="436"/>
					<line class="cow2" x1="-198.5" y1="357" x2="-203" y2="351.7"/>
					<line class="cow2" x1="-214.2" y1="364.8" x2="-208" y2="368.3"/>
					<line class="cow2" x1="-149.9" y1="352.6" x2="-149.9" y2="352.6"/>
					<line class="cow2" x1="-178.7" y1="431.4" x2="-178.7" y2="431.4"/>
					<line class="cow2" x1="-211.2" y1="375" x2="-211.2" y2="375"/>
					<line class="cow2" x1="-163.9" y1="431.5" x2="-163.9" y2="431.5"/>
					<line class="cow2" x1="-192.5" y1="352.8" x2="-192.5" y2="352.8"/>
					<line class="cow2" x1="-131.1" y1="374.9" x2="-131.1" y2="374.9"/>
				</g>
				<g>
					<line class="cow1" x1="-126.5" y1="366.5" x2="-132.2" y2="369.8"/>
					<line class="cow1" x1="-186.2" y1="437.7" x2="-183.9" y2="431.2"/>
					<line class="cow1" x1="-169.3" y1="440.7" x2="-169.3" y2="433.8"/>
					<path class="cow1" d="M-154.7,431.3"/>
					<line class="cow1" x1="-196.5" y1="358.7" x2="-201" y2="353.4"/>
					<line class="cow1" x1="-212.2" y1="366.5" x2="-206" y2="370"/>
					<path class="cow1" d="M-211,383.9"/>
					<line class="cow1" x1="-147.9" y1="354.3" x2="-147.9" y2="354.3"/>
					<line class="cow1" x1="-176.7" y1="433.1" x2="-176.7" y2="433.1"/>
					<line class="cow1" x1="-209.2" y1="376.7" x2="-209.2" y2="376.7"/>
					<line class="cow1" x1="-161.9" y1="433.2" x2="-161.9" y2="433.2"/>
					<line class="cow1" x1="-190.5" y1="354.5" x2="-190.5" y2="354.5"/>
					<line class="cow1" x1="-129.1" y1="376.6" x2="-129.1" y2="376.6"/>
				</g>
			</g>
			<path class="cow4" d="M-175.7,442.7"/>
			<path class="cow4" d="M-171.4,467.5"/>
			<path class="cow4" d="M-166.5,443.7"/>
			<path class="cow3" d="M-150.7,365.8c9.4,3.8,19.9,0.8,30.9-5.4c11.1,3,3,12.9-0.5,16.6c-8.4,8.8-19,2.2-26.2-0.2
				C-146.5,376.8-150.7,365.6-150.7,365.8L-150.7,365.8z"/>
			<path class="cow6" d="M-162.5,439.6c-1.2,2.9-2.9,4.8-8.8,4.6c-5.9,0.2-7.6-1.7-8.8-4.6c2.4-0.3,5.6-0.4,8.7-0.4
				C-168.2,439.2-164.9,439.3-162.5,439.6L-162.5,439.6z"/>
			<path class="cow3" d="M-191.9,365.8c-9.4,3.8-19.9,0.8-30.9-5.4c-11.1,3-3,12.9,0.5,16.6c8.4,8.8,18.9,2.2,26.2-0.2
				C-196,376.8-191.9,365.6-191.9,365.8L-191.9,365.8z"/>
			<path class="cow7" d="M-163.2,357.3c6.3-2.3,12-4.8,16.1-8c2-2.8,8.6-2.9,4.9,3.8c-2.5,4.7-5.3,7.7-8.2,10.9
				c-3.6-0.3-7.1-0.5-10.7-0.8C-161.2,363.3-163.2,357-163.2,357.3L-163.2,357.3z"/>
			<path class="cow3" d="M-171.3,358.6c-4.8-0.5-6.2-1.5-7.4-3.3c-2.2,2.1-5.4,3.9-10,2.2c-1.4,1.7-2.1,4.2-3.1,5.7
				c-1.4,2.1-2.6,3.9-3.7,6.1c-4.9,8.9-4.5,17.2-1.2,24.8c1.3,3,1.4,10.5,2.5,14.1c1.8,6.1,5.3,6.5,5.8,14
				c1.4,20.9,7.9,17.3,17.3,14.3c10,2.7,15.7,6.6,17-14.3c0.5-7.5,4-7.8,5.8-14c1-3.7,1.1-11.1,2.5-14.1c3.3-7.5,3.7-15.9-1.2-24.8
				c-1.1-2.2-2.3-4-3.7-6.1c-1-1.5-1.8-4-3.1-5.7c-4.6,1.7-7.8-0.2-10-2.2C-165,357.1-166.5,358.1-171.3,358.6L-171.3,358.6z"/>
			<path class="cow7" d="M-180.7,357.3c-6.3-2.3-12-4.8-16.1-8c-2.1-2.8-8.6-2.9-4.9,3.8c2.5,4.7,5.3,7.7,8.2,10.9
				c3.6-0.3,7.1-0.5,10.7-0.8C-182.7,363.3-180.7,357-180.7,357.3L-180.7,357.3z"/>
			<g>
				<path class="cow8" d="M-184.2,428.8c-0.1,0-0.2-0.1-0.2-0.2c-0.5-1.3-0.6-2.9-0.6-4.9v-0.1c1.9-3.2,5-11.3,3.8-29.4
					c-0.7-9.8-8.6-15-17-19.1c-0.1,0-0.2-0.2-0.1-0.3c0.2-1.4,0.6-2.6,1-3.7c0.8-2,1.7-3.7,2.9-5.6c0,0,0-0.1-0.1-0.1v-0.3
					c0-0.1-0.1-0.2-0.1-0.2c0-0.1,0-0.2,0-0.3l0,0l-0.1-0.1c-0.1-0.1,0-0.3,0.1-0.3v-0.1c-0.1-1-0.6-2.4-2.4-3.8
					c-0.1-0.1-0.1-0.2-0.1-0.3c0-0.1,0.1-0.1,0.2-0.1h0.1c0.6,0.3,1.2,0.7,1.7,1.1c-0.2-0.3-0.3-0.7-0.5-1.1c0-0.1,0-0.3,0.1-0.3
					h0.1c0.1,0,0.2,0,0.2,0.1c0.3,0.6,1.1,1.1,2,1.2c-0.1-1-0.5-2.4-1.7-4.2c-0.1-0.1-0.1-0.3,0-0.3c0,0,0.1-0.1,0.2-0.1
					c0.1,0,0.1,0,0.2,0.1c0.3,0.3,0.5,0.6,0.8,0.9c-0.1-0.2-0.1-0.4-0.2-0.6c0-0.1,0-0.3,0.2-0.3h0.1c0.1,0,0.2,0.1,0.2,0.1
					c0.3,0.7,0.7,1.2,1.2,1.6c0-0.1,0-0.2,0.1-0.2h0.1c0.1,0,0.1,0,0.2,0.1c0.2,0.2,0.4,0.3,0.7,0.5c0,0,0,0,0.1,0
					c0-0.1,0-0.1,0.1-0.2c0.1,0,0.1-0.1,0.2-0.1l0,0c0.3,0.1,0.4,0.1,0.5,0.2c0.2,0.1,0.3,0.1,0.8,0.2c0-0.1,0-0.1,0.1-0.2
					c0-0.1,0.1-0.2,0.2-0.2h0.3c0.5-0.7,0.5-1.6,0-2.5c-0.1-0.1,0-0.3,0.1-0.3h0.1c0,0,0,0,0.1,0c-0.2-0.3-0.4-0.6-0.6-0.9
					c-0.1-0.1-0.1-0.3,0-0.3c0,0,0.1-0.1,0.2-0.1h0.1c-0.2-0.3-0.4-0.5-0.7-0.8c-0.1-0.1-0.1-0.2,0-0.3c0,0,0.1-0.1,0.2-0.1
					c0.1,0,0.1,0,0.2,0.1c0.8,0.7,1.6,1.3,2.4,1.8c-0.4-0.8-0.7-1.7-0.9-2.5c0-0.1,0-0.3,0.2-0.3h0.1c0.1,0,0.2,0.1,0.2,0.1
					c0.7,1.5,1.6,2.5,2.7,3.1c0.3,0,0.7,0.1,1.1,0.1c0.5,0,1.1-0.1,1.7-0.2c0,0,0,0,0.1,0s0.1,0,0.1,0c0.3,0.2,0.7,0.4,1.2,0.4
					c1,0,2.2-0.6,3.5-1.2c1.6-0.8,3.5-1.6,5.5-1.7c2,0.1,3.9,1,5.5,1.7c1.4,0.6,2.5,1.2,3.5,1.2c0.5,0,0.8-0.1,1.2-0.4h0.1
					c0,0,0,0,0.1,0c0.6,0.1,1.2,0.2,1.7,0.2c0.4,0,0.8,0,1.1-0.1c1-0.5,1.9-1.5,2.6-3.1c0-0.1,0.1-0.1,0.2-0.1h0.1
					c0.1,0,0.2,0.2,0.2,0.3c-0.2,0.9-0.6,1.7-0.9,2.5c0.8-0.5,1.6-1.2,2.4-1.8c0,0,0.1-0.1,0.2-0.1c0.1,0,0.1,0,0.2,0.1
					c0.1,0.1,0.1,0.2,0,0.3c-0.2,0.2-0.4,0.5-0.7,0.8h0.1c0.1,0,0.1,0,0.2,0.1s0.1,0.2,0,0.3c-0.2,0.3-0.4,0.6-0.6,0.9
					c0,0,0,0,0.1,0h0.1c0.1,0.1,0.1,0.2,0.1,0.3c-0.5,0.9-0.5,1.9,0,2.5h0.3c0.1,0,0.2,0.1,0.2,0.2l0.1,0.2c0.5-0.1,0.6-0.1,0.8-0.2
					c0.1,0,0.3-0.1,0.5-0.2h0.1c0.1,0,0.1,0,0.2,0.1s0.1,0.1,0.1,0.2c0,0,0,0,0.1,0c0.3-0.1,0.5-0.2,0.7-0.5c0,0,0.1-0.1,0.2-0.1
					h0.1c0.1,0,0.1,0.1,0.1,0.2c0.4-0.4,0.8-1,1.2-1.6c0-0.1,0.1-0.1,0.2-0.1h0.1c0.1,0,0.2,0.2,0.2,0.3c-0.3-0.2-0.3,0.1-0.4,0.3
					c0.3-0.3,0.5-0.6,0.8-0.9c0,0,0.1-0.1,0.2-0.1c0.1,0,0.1,0,0.2,0.1c0.1,0.1,0.1,0.2,0,0.3c-1.2,1.8-1.6,3.2-1.7,4.2
					c0.9-0.2,1.6-0.6,2-1.2c0-0.1,0.1-0.1,0.2-0.1h0.1c0.1,0.1,0.2,0.2,0.1,0.3c-0.1,0.4-0.3,0.8-0.5,1.1c0.5-0.4,1.1-0.7,1.7-1.1
					h0.1c0.1,0,0.2,0,0.2,0.1c0.1,0.1,0,0.3-0.1,0.3c-1.7,1.4-2.2,2.9-2.4,3.9v0.1c0.2,0,0.2,0.2,0.2,0.3l-0.1,0.1l0,0
					c0,0.1,0,0.3,0,0.3c0,0.1,0,0.2-0.1,0.2v0.3c0,0,0,0.1-0.1,0.1c1.1,2,2.1,3.7,2.9,5.6c0.4,1.1,0.8,2.3,1,3.7
					c0,0.1,0,0.2-0.1,0.3c-8.4,4.1-16.3,9.3-17,19.1c-1.3,18.2,1.8,26.2,3.8,29.4v0.1c0.1,2-0.1,3.6-0.5,4.9c0,0.1-0.1,0.2-0.2,0.2
					h-26L-184.2,428.8L-184.2,428.8z"/>
				<path d="M-155.2,351.7L-155.2,351.7 M-155.2,351.7c-0.3,1-0.7,1.9-1.1,2.8c0,0.1,0,0.2,0.1,0.3c0.9-0.6,1.9-1.3,2.9-2.1
					c-1,1.1-1.8,2.3-2.4,3.4c0,0.1,0.1,0.1,0.1,0.1c0.6-0.8,1.2-1.6,1.9-2.4c-0.8,1.1-1.2,2.1-1.5,3.1c0,0,0,0.1,0.1,0.1
					c0.2-0.6,0.6-1.2,1.1-1.9c-0.6,1.2-0.4,2.2,0.1,2.9h0.4c0.1,0.2,0.1,0.3,0.2,0.4c1-0.1,0.7-0.1,1.6-0.4c0,0.2,0,0.3-0.1,0.4h0.1
					c0.4-0.3,0.8-0.3,1.1-0.7c0,0.1-0.3,0.6-0.3,0.7c0.7-0.4,1.4-1.1,2-2.2c-0.3,0.9-0.7,1.8-1.1,2.6c0.6-0.9,1.3-1.8,2.1-2.7
					c-1.2,1.7-1.7,3.3-1.8,4.6c1.1-0.1,2.1-0.7,2.5-1.4c-0.3,0.9-0.7,1.5-1.1,2.1h0.1c0.8-0.6,1.6-1.3,2.6-1.8
					c-1.6,1.3-2.3,2.7-2.5,4c0,0.1,0,0.2,0,0.3c0,0,0.1,0,0.1,0.1c-0.1,0-0.1,0-0.2,0c0,0.1,0,0.2,0,0.3c0,0.2,0,0.3,0,0.4l-0.1,0.1
					v0.4l-0.3-0.1c1.2,2,2.2,3.9,3.1,6c0.5,1.1,0.8,2.4,1,3.7c-7.8,3.8-16.4,8.9-17.2,19.3c-1.3,18.5,2,26.6,3.8,29.6
					c0.1,2-0.1,3.6-0.5,4.8h-13h-13c-0.4-1.2-0.6-2.8-0.5-4.8c1.8-3,5.1-11.1,3.8-29.6c-0.7-10.4-9.4-15.5-17.2-19.3
					c0.2-1.3,0.5-2.5,1-3.7c0.9-2.1,1.9-4,3.1-6l-0.3,0.1v-0.4l-0.1-0.1c0-0.1,0-0.3,0-0.4s0-0.2,0-0.3c-0.1,0-0.1,0-0.2,0
					c0.1,0,0.1-0.1,0.2-0.1c0-0.1,0-0.2,0-0.3c-0.1-1.3-0.9-2.8-2.5-4c0.9,0.5,1.8,1.1,2.6,1.8h0.1c-0.4-0.5-0.8-1.2-1.1-2.1
					c0.4,0.7,1.4,1.3,2.5,1.4c-0.1-1.3-0.6-2.9-1.8-4.6c0.8,0.8,1.5,1.8,2.1,2.7c-0.4-0.8-0.8-1.7-1.1-2.6c0.6,1.1,1.3,1.9,2,2.2
					c0-0.2-0.3-0.6-0.3-0.7c0.4,0.4,0.7,0.4,1.1,0.7h0.1c0-0.1,0-0.3-0.1-0.4c0.9,0.3,0.6,0.3,1.6,0.4c0.1-0.1,0.1-0.3,0.2-0.4h0.4
					c0.6-0.7,0.8-1.7,0.1-2.9c0.6,0.7,0.9,1.3,1.1,1.9l0.1-0.1c-0.3-0.9-0.8-2-1.5-3.1c0.7,0.7,1.4,1.5,1.9,2.4c0,0,0-0.1,0.1-0.1
					c-0.6-1.1-1.4-2.3-2.4-3.4c0.9,0.8,1.9,1.5,2.9,2.1c0-0.1,0.1-0.2,0.1-0.3c-0.4-0.9-0.8-1.9-1.1-2.8c0.9,1.8,1.8,2.7,2.8,3.2
					c0.4,0.1,0.8,0.1,1.2,0.1c0.5,0,1.1-0.1,1.8-0.2c0.4,0.3,0.9,0.4,1.3,0.4c2.3,0,5.4-2.8,9-2.9c3.6,0.2,6.7,2.9,9,2.9
					c0.5,0,0.9-0.1,1.3-0.4c0.7,0.1,1.2,0.2,1.8,0.2c0.4,0,0.8,0,1.2-0.1C-157,354.5-156,353.5-155.2,351.7 M-153.3,352.7
					L-153.3,352.7 M-153.7,353.9L-153.7,353.9 M-154,355.2L-154,355.2 M-147.9,356.2L-147.9,356.2 M-148.9,356.3L-148.9,356.3
					 M-150.7,357.8L-150.7,357.8 M-151.9,358.1L-151.9,358.1 M-147.2,359.4L-147.2,359.4 M-145.7,359.8L-145.7,359.8 M-187.3,351.2
					c-0.1,0-0.1,0-0.2,0c-0.2,0.1-0.4,0.3-0.3,0.6c0.2,0.6,0.4,1.2,0.6,1.8c-0.6-0.4-1.1-0.8-1.6-1.3c-0.1-0.1-0.2-0.1-0.3-0.1
					s-0.3,0.1-0.4,0.2c-0.2,0.2-0.2,0.5,0,0.7c0.1,0.2,0.3,0.3,0.4,0.5c-0.2,0.2-0.2,0.4-0.1,0.7c0.1,0.2,0.3,0.4,0.4,0.6
					c-0.2,0.2-0.2,0.4-0.1,0.6c0.4,0.8,0.5,1.6,0.1,2.2h-0.2c-0.2,0-0.4,0.1-0.5,0.4c-0.3,0-0.4-0.1-0.6-0.1c-0.1,0-0.3-0.1-0.5-0.2
					c-0.1,0-0.1,0-0.2,0c-0.1,0-0.2,0-0.3,0.1l0,0c-0.2-0.1-0.3-0.2-0.4-0.3c-0.1-0.1-0.2-0.1-0.4-0.1c-0.1,0-0.2,0-0.2,0.1
					c0,0,0,0-0.1,0c-0.3-0.4-0.6-0.8-0.9-1.3c-0.1-0.2-0.3-0.3-0.4-0.3c-0.1,0-0.1,0-0.2,0c-0.1,0.1-0.2,0.2-0.3,0.3
					c-0.1-0.1-0.1-0.1-0.2-0.2c-0.1-0.1-0.2-0.2-0.4-0.2c-0.1,0-0.2,0-0.3,0.1c-0.2,0.2-0.2,0.5-0.1,0.7c1,1.5,1.5,2.8,1.6,3.7
					c-0.7-0.2-1.2-0.6-1.5-1c-0.1-0.2-0.3-0.3-0.4-0.3s-0.1,0-0.2,0c-0.2,0.1-0.4,0.4-0.3,0.6c0,0.1,0.1,0.2,0.1,0.3
					c-0.3-0.2-0.6-0.4-1-0.6c-0.1,0-0.2-0.1-0.2-0.1c-0.2,0-0.3,0.1-0.4,0.2c-0.1,0.2-0.1,0.5,0.1,0.7c1.7,1.3,2.2,2.7,2.3,3.7
					c-0.1,0.1-0.2,0.4-0.1,0.5c0,0.1,0.1,0.1,0.1,0.1c0,0.1,0,0.1,0,0.2s0,0.3,0.1,0.4v0.2v0.1c-1.1,1.9-2,3.6-2.8,5.5
					c-0.5,1.1-0.8,2.3-1,3.8c0,0.2,0.1,0.4,0.3,0.5c8.4,4.1,16.2,9.2,16.9,18.9c1.3,18.8-2.2,26.7-3.7,29.3c0,0.1-0.1,0.2-0.1,0.2
					c-0.1,2.1,0.1,3.7,0.6,5c0.1,0.2,0.3,0.3,0.5,0.3h13h13c0.2,0,0.4-0.1,0.5-0.3c0.5-1.4,0.6-3,0.5-5c0-0.1,0-0.2-0.1-0.2
					c-1.6-2.5-5-10.5-3.7-29.3c0.7-9.7,8.5-14.8,16.9-18.9c0.2-0.1,0.3-0.3,0.3-0.5c-0.2-1.5-0.6-2.7-1-3.8
					c-0.8-1.9-1.7-3.6-2.8-5.5v-0.1v-0.2c0.1-0.1,0.1-0.3,0.1-0.4c0,0,0-0.1,0-0.2l0.1-0.1c0.1-0.2,0.1-0.4-0.1-0.6
					c0.2-1.4,1-2.6,2.3-3.7c0.1-0.1,0.2-0.2,0.2-0.4c0-0.3-0.2-0.5-0.5-0.5l0,0h-0.1c-0.1,0-0.1,0-0.1,0.1c-0.3,0.2-0.7,0.4-1,0.6
					c0-0.1,0.1-0.2,0.1-0.3s0-0.1,0-0.2c0-0.3-0.2-0.5-0.5-0.5l0,0c0,0,0,0-0.1,0s-0.2,0-0.2,0.1c-0.1,0-0.1,0.1-0.1,0.1l0,0l0,0
					c0,0,0,0,0,0.1c-0.3,0.5-0.8,0.8-1.5,1c0.2-0.9,0.6-2.2,1.6-3.7c0.1-0.1,0.1-0.2,0.1-0.3c0-0.3-0.2-0.5-0.5-0.5l0,0l0,0l0,0l0,0
					l0,0c-0.1,0-0.2,0-0.2,0.1l-0.1,0.1c-0.1,0.1-0.1,0.1-0.2,0.2c-0.1-0.2-0.2-0.3-0.5-0.3l0,0c0,0,0,0-0.1,0s-0.2,0-0.2,0.1
					c-0.1,0-0.1,0.1-0.1,0.1s0,0,0,0.1c-0.3,0.6-0.6,1-0.9,1.3c-0.1-0.1-0.2-0.1-0.3-0.1l0,0l0,0l0,0l0,0l0,0
					c-0.1,0-0.3,0.1-0.3,0.1c-0.1,0.1-0.3,0.2-0.4,0.3c-0.1-0.1-0.2-0.2-0.4-0.2l0,0l0,0l0,0c-0.1,0-0.1,0-0.1,0
					c-0.3,0.1-0.4,0.1-0.5,0.2c-0.2,0.1-0.3,0.1-0.6,0.1l0,0c-0.1-0.2-0.3-0.3-0.5-0.3h-0.2c-0.4-0.6-0.4-1.4,0-2.1
					c0.1-0.1,0.1-0.2,0.1-0.3c0-0.2-0.1-0.3-0.2-0.4c0.1-0.2,0.3-0.4,0.4-0.6c0.1-0.1,0.1-0.2,0.1-0.3s-0.1-0.3-0.2-0.4
					c0.1-0.2,0.3-0.3,0.4-0.4s0.2-0.2,0.2-0.4c0-0.3-0.2-0.5-0.5-0.5l0,0l0,0l0,0l0,0l0,0l0,0l0,0c-0.1,0-0.2,0.1-0.3,0.1
					c-0.5,0.5-1.1,0.9-1.6,1.3c0.2-0.6,0.4-1.1,0.6-1.7c0-0.1,0-0.1,0-0.2c0-0.3-0.2-0.5-0.5-0.5l0,0c0,0,0,0-0.1,0s-0.2,0-0.2,0.1
					c-0.1,0-0.1,0.1-0.1,0.1l0,0l0,0c0,0,0,0,0,0.1c-0.7,1.5-1.5,2.4-2.5,2.9c-0.3,0.1-0.7,0.1-1,0.1c-0.5,0-1-0.1-1.6-0.2h-0.1
					c-0.1,0-0.2,0-0.3,0.1c-0.3,0.2-0.6,0.3-1,0.3c-0.9,0-2.1-0.5-3.4-1.2c-1.7-0.8-3.5-1.7-5.6-1.8c-2.1,0.1-4,1-5.6,1.8
					c-1.3,0.6-2.5,1.2-3.4,1.2c-0.4,0-0.7-0.1-1-0.3c-0.1-0.1-0.2-0.1-0.3-0.1h-0.1c-0.6,0.1-1.1,0.2-1.6,0.2c-0.3,0-0.7,0-1-0.1
					c-1-0.5-1.8-1.5-2.5-3C-187,351.3-187.2,351.2-187.3,351.2L-187.3,351.2z"/>
			</g>
			<path class="cow3" d="M-174.3,442.2c-4.7,0.9-8.7,0.7-11.1,0.1c-3.2-0.8-3.8-2.4-3.6-5.8c0.1-2.3,0.6-4.8,1.2-6.7
				c1.2-3.9,2.5-7.2,6.9-8.6c1.4-0.5,5.6-0.6,9.6-0.6s8.2,0.1,9.6,0.6c2,0.6,3.8,1.9,4.8,3.5c0.9,1.3,2.2,3.5,2.7,5.1
				c0.6,2,0.5,4.4,0.7,6.7c0.2,3.4-0.3,5.1-3.6,5.8c-3.2,0.6-7,0.7-11.1,0c-1.4-0.5-2.5-1.5-3.1-3.1
				C-171.9,440.8-172.9,441.7-174.3,442.2L-174.3,442.2z"/>
			<path class="cow6" d="M-171.4,427.5c6.9,0,12.4-0.6,12.4,2.2c0,2.9-5.6,6.5-12.4,6.5c-6.9,0-12.5-3.6-12.5-6.5
				C-183.9,426.9-178.3,427.5-171.4,427.5L-171.4,427.5z"/>
			<path class="cow3" d="M-171.3,439.9c1.5-0.2,3.3-0.3,4.8-0.7c3.9-1,7.3-3.8,7.7-6.6c0.5-3.1-2.3,1.1-4.9,2.1
				c-3.2,1.2-3.5-2.3-0.8-3.8c1.6-0.9,3.9-1.3,5.6-2.2c1.5-1.3,1.5-4.7-1.1-4.6c-3.3,1.4-7.2,3-11.3,2.8c-4,0.2-8-1.4-11.3-2.8
				c-2.6-0.1-2.6,3.3-1.1,4.6c1.6,0.9,3.9,1.3,5.6,2.2c2.7,1.5,2.5,5.1-0.8,3.8c-2.6-1-5.4-5.2-4.9-2.1c0.4,2.8,3.8,5.6,7.7,6.6
				C-174.7,439.5-172.9,439.7-171.3,439.9L-171.3,439.9z"/>
			<path class="cow2" d="M-146.7,367c0,0,2.2,0.5,3.7,0.7s3.9-0.1,4.8-0.3c0.9-0.3,1.9-0.1,3.4-0.6s4-1.3,4.9-1.9s2.2-0.8,3-1.2
				c0.8-0.4,1.7-0.3,2.4-0.9c0.7-0.6,2-1,2.7-1.4s1.6-1.1,2.4-0.8c0.9,0.3,3.3,0.9,3.9,1.8s0.9,1,0.9,2.3s0.3,3.2-0.4,4.7
				s-1.8,2.8-2.7,4c-0.9,1.2-1.7,1.3-2.3,2.6s-1.2,1.7-2.1,2.4c-1,0.7-2.5,2.1-5,2.5c-2.4,0.4-3,0.2-4.5,0.4
				c-1.5,0.2-2.6,0.2-4.2-0.7s-3.1-1.1-3.9-1.2c-0.8-0.1-2.5-0.9-3-1.2c-0.5-0.2-1.4-0.2-1.4-0.2"/>
			<path class="cow2" d="M-195.7,366.9c0,0-0.5,0.1-3,0.4s-4.7,0.8-6.4,0s-3.9-1.1-4.4-1.2s-5.4-2.6-6.6-2.4c-1.3,0.2-1-0.4-2.1-1
				s-4.2-2.4-4.8-2.3c-0.5,0.2-2.6,0.7-3.9,1.8c-1.3,1.1-1.8,1.5-1.4,3c0.4,1.5,0.4,3.3,0.9,4.4s2.2,3.7,2.4,4s-0.4-0.2,2,2.5
				c2.4,2.6,1.6,2.5,4.4,3.6c2.8,1.1,3.5,1.6,5.6,1.6c2,0,3.3-0.5,5-1s3.9-1.5,4.9-1.4s2.7-0.5,3.1-0.7"/>
			<path class="cow2" d="M-158.9,422.5c0,0,1.3,1,1.8,1.8s1.3,1.9,1.9,3.1c0.6,1.2,1.9,1.5,1.7,3.1s-0.1,2.6-0.1,3.7s0.4,3.5,0.1,4.5
				c-0.2,1-0.1,2.3-2,3c-1.9,0.6-2.3,0.7-4.9,1c-2.6,0.3-3.3,0.4-4.6,0.1s-2.4-0.3-3.1-0.6c-0.7-0.3-1-0.3-1.7-1s-0.7-1.4-1.1-1.4
				s-0.5,0.1-1.1,0.8c-0.7,0.7-0.7,1-1.7,1.3s-1.1,0.7-1.9,0.8c-0.8,0.2-1.7-0.1-2.8,0.2c-1.1,0.3-2.7,0.4-5-0.2s-3-0.7-3.7-1.1
				c-0.6-0.4-2.7-1.5-2.3-3.4s0.4-3.2,0.6-4.5c0.2-1.3,0.1-1.4,0.5-3.5s1.4-4.2,1.9-5.3s1.2-1.2,2-1.9s3.3-1.6,4.8-2.2
				s0.8-0.9,3.7-0.9s6.1,1,7.1,0.9c1,0,2.3-0.5,3.8-0.3C-163.7,420.9-160.2,420.5-158.9,422.5z"/>
			<path class="cow2" d="M-165.2,442.8c0,0-1.6,1.8-3,1.3s-2,0-2.7,0.1s-2.2,0.1-2.5,0c-0.2,0-1.6,0.5-2.1,0s-2.2-1.2-2.5-1.4"/>
			<path class="cow2" d="M-170,439.6c0.1-0.1,2.7,0.7,3.6,0c0.9-0.7,2.9-1.2,3.3-1.6c0.4-0.4,1.2-1.5,1.7-1.7s1.3-1,1.5-1.3
				s-0.1-0.7,0.5-1.4c0.6-0.7,0.6-1.2,0.6-1.5s-0.8-0.5-1.4,0c-0.6,0.5-2.2,1.3-2.9,1.9s-2,1.1-2.2,1.2s-1.1-1.3-1.2-1.8
				s0.7-1.6,1.2-2s-0.2-0.7,1.7-1.2c1.8-0.5,2.7-0.3,3.2-0.6c0.5-0.3,1.6-0.9,1.8-1.3c0.3-0.4,1.1-1.4,0.8-2.2
				c-0.2-0.8,0.5-0.4-0.4-1.2c-0.9-0.8-1.6-1.3-2-0.9s-1.3,0.7-2,1s-2.6,0.5-4,0.8s-1.2,0.7-2.6,0.8c-1.3,0.1-2.2,0.3-4,0.1
				s-4.4-0.5-5.3-1.1c-0.9-0.6-1.1-1-1.8-0.9c-0.7,0-2.3-0.6-2.9-0.7c-0.5,0-1.6,0.1-1.9,0.7c-0.2,0.6-0.2,1.8,0,2.6
				c0.2,0.8-0.5,1.2,1,1.5s2.6,0.9,3.1,1.1c0.6,0.2,1.2,0.5,2.6,1.1c1.4,0.6,1.9,1.3,1.9,1.8s-0.2,0.9-1,1.6
				c-0.8,0.8-1.2,0.9-2.7-0.2s-2.3-1.9-3-2.4c-0.7-0.4-1.2-0.6-1.2-0.2s-0.8,0.7,0.2,2.1s0.1,1.6,2.4,3.2c2.4,1.6,2.4,1.7,4.6,2
				C-174.3,439.2-171.5,440.5-170,439.6z"/>
			<path class="cow2" d="M-159.2,428.9c0,0,0.3,0.2,0.2,0.9c-0.1,0.7-0.7,1.5-0.5,1.9"/>
			<path class="cow2" d="M-183.7,428.6c0,0-0.3,0.7-0.2,1.2s-0.2,0.7,0.1,1.2"/>
			<path class="cow2" d="M-146.9,398.8c0,0,0,3.1-0.3,3.7s-0.3,1.2-0.5,2.5s-0.2,3.4-0.7,4.2c-0.5,0.8-0.9,1.8-1.5,2.8
				c-0.7,1.1-1.7,2.5-2.3,3.6s-2,1.9-1.9,3.7c0.1,1.8,0,2.9-0.1,4.4s-0.6,4.6-0.6,4.6"/>
			<path class="cow2" d="M-195.7,398.9c0,0,0.2,1.5,0.4,3.6c0.3,2.1,0.1,2.4,0.2,4.3c0.2,1.9,0.6,3.1,1.5,4.2s0.9,1.2,2,2.8
				c1,1.6,1.7,2.6,2,3.6s1.2,1.6,1.1,3.3c-0.1,1.8-0.4,2,0,4.4c0.4,2.3,0.8,3,0.8,3"/>
			<path class="cow2" d="M-157.7,422.9c0,0-0.4-3.2-1.5-4.5s-1.3-2.4-1.2-3.3s-0.9-3.6-0.7-5.5s0.6-0.7,0.2-3.1
				c-0.4-2.4-0.1-6.2-0.2-7.2c0-1,0.4-1.9,0.2-3.2c-0.2-1.3-0.3-4.7,0.6-6.6c0.9-1.9,1.7-3.8,2.7-4.7c0.9-0.9,1.4-2.1,2.5-2.9
				s2.6-2.4,4.4-3.4c1.8-1,2.3-0.9,2.9-1.5c0.7-0.6,1.9-1.3,2.9-1.7c1-0.5,1.2-0.6,1.1-1.2s-1.1-1.2-1.1-2.5s-0.4-2.3-0.5-2.5
				s-1.1-1.4-1.5-2.3s-0.7-1.4-0.6-2.1c0-0.7,0.2-1.3,0.4-2s-0.1-0.8,0.5-1.5s1.3-1.3,1.1-1.4c-0.2-0.2-0.5-0.9-0.6-0.8"/>
			<path class="cow2" d="M-144.7,375.4c0,0,0.4,0.9,0.6,1.8c0.2,0.9-0.1,1.7,0,2.5c0.1,0.9,0.3,2.5,0.5,2.9"/>
			<path class="cow2" d="M-184.9,423.7c0,0,0.1-2.2,1.1-3.7s1.7-1.8,1.6-3.6c-0.1-1.7-0.3-1.3,0-3s0.8-3,0.5-5.3s0-3.1,0.1-4.1
				s0.2-2.4,0.3-3.8c0.1-1.3-0.1-4.4,0-5.7c0.1-1.3,0.4-1.9-0.5-4.2c-0.9-2.4-1.8-2.8-2.3-4.2s-1.1-1.4-2.1-2.9
				c-1.1-1.5-5.7-3.8-6.4-4.5s0-1.5-1.7-1.9s-3.7-0.7-4-1.5s-1.5-0.6-0.4-2.1c1.2-1.5,1.2-3.1,2-4.9s1.6-2.7,1.6-2.7"/>
			<path class="cow2" d="M-198.2,375.4c0,0-0.3,1.7-0.5,2.5s-0.4,1.8-0.4,2.5s-0.6,1.7-0.4,1.9"/>
			<path class="cow2" d="M-152.9,352.7c0,0,0.9-0.4,2-0.8s1.4-0.1,1.9-1c0.5-0.8,2.1-1.3,2.5-1.9s0.7-1.1,2.1-1.3
				c1.4-0.2,1.7,0,2.2,0s1.1,0.3,1.1,1.3s-0.1,2-0.6,3c-0.4,0.9-0.7,1.9-1.3,2.4c-0.5,0.5-1.1,1.1-1.5,2s-1.1,1.6-1.4,2.3"/>
			<path class="cow2" d="M-189.7,353.6c0,0,0.1-0.4-1.3-0.6c-1.4-0.2-2.5-1-3.2-1.7c-0.8-0.7-1-0.5-2.3-1.7s-1.6-1.5-2.3-1.7
				s-1.1-0.4-2.4-0.2c-1.2,0.2-1.3,0.5-1.7,1.5s-0.7,0.7,0.1,2.3c0.8,1.7,0.2,1.5,1.4,2.9c1.1,1.4,1.8,1.3,2.4,2.8
				c0.7,1.4,1.4,2.3,1.4,2.3"/>
			<path class="cow2" d="M-149.7,400.2c0,0,0.3,6.5-3,11.4"/>
			<path class="cow2" d="M-116.6,366.2c0,0,1.2,3.1-2.2,5.9c-3.4,2.8-3.8,4.9-3.8,4.9"/>
			<path class="cow2" d="M-184.3,391c0,0,1.3,4.5,0.9,7.6c-0.4,3-0.8,3.4-0.4,5"/>
			<path class="cow2" d="M-162.3,356.5c0,0-3,0.7-5.1-0.7c-2.1-1.4-5.4-2.4-6.6-1.2"/>
			<path class="cow2" d="M-210.2,378c0,0-0.6,1.5-3.2,1s-4.2-1.4-6.5-3.6"/>
			<path class="cow2" d="M-116.6,366c0,0,0.3,1.3,0.1,2.2c-0.2,0.9-0.9,1.7-1.1,2.1s-0.9,1-1.2,1.3c-0.4,0.3-0.5,0.8-1.3,1.7
				c-0.8,0.9-1.2,1.3-1.6,1.9"/>
			<path class="cow2" d="M-161.7,356.3c-0.3,0.2-1.4,0.2-2.6,0.4c-1.2,0.2-2.1-0.2-2.7-0.6c-0.6-0.4-1.2-1.5-2.1-1.5
				c-0.9-0.1-2.5-0.6-3.2-0.5"/>
			<path class="cow2" d="M-209.7,377.7c-0.2,0.1-1.1,1-1.1,1s-2.7,0-3.3,0.1c-0.5,0.1-2.5-0.9-3.2-1.4s-2.1-1.3-2.1-1.3"/>
			<path class="cow2" d="M-184.9,390.3c0,0,0.2,0.3,0.6,1.8c0.4,1.5,0.8,2.6,0.8,4.2s-0.6,3.5-0.7,4.2c-0.1,0.7,0.4,1.7,0.2,1.9"/>
			<path class="cow2" d="M-149.7,400c0,0,0.3,2.3-0.2,3.9s-0.7,2.2-0.9,3.4c-0.2,1.2-0.8,2.7-1.2,3.3"/>
			<path class="cow2" d="M-183.5,418.5c0,0-0.6-0.1-1.6,0"/>
			<path class="cow2" d="M-183.2,417.7c0,0-0.6-0.1-1.6,0"/>
			<path class="cow2" d="M-182.7,416.3c0,0-0.6-0.1-1.6,0"/>
			<path class="cow2" d="M-182.5,414.9c0,0-0.6-0.1-1.6,0"/>
			<path class="cow2" d="M-182.3,413.8c0,0-0.6-0.1-1.6,0"/>
			<path class="cow2" d="M-181.7,412.7c0,0-0.6-0.1-1.6,0"/>
			<path class="cow2" d="M-181.5,411.4c0,0-0.6-0.1-1.6,0"/>
			<path class="cow2" d="M-181.5,410c0,0-0.6-0.1-1.6,0"/>
			<pattern  id="SVGID_9_" xlink:href="#SVGID_1_" patternTransform="matrix(1 0 0 1 -5209.7002 31056.9883)">
			</pattern>
			<path class="cow9" d="M-168.7,439.6c0,0,4.2-0.9,6.1-2.3c1.9-1.5,2.5-2.9,2.9-3.4s1.5-0.6,0.8-1.8c-0.7-1.2-0.8-0.4-0.5-1.5
				s0.6-2.3,0.6-2.3l0.8-2.2c0,0,0.3-1.4,0.6-1.4s2.2,1.3,2.5,2.9s0.9,3.6,1,5.1s0.3,7-0.5,7.8s-1.9,0.5-2.8,1.1
				c-0.8,0.6-3.8,1.3-5,1.2s-4.4-0.3-5.4-0.5s-3-1.6-3.1-1.7C-170.5,440.5-170.7,440-168.7,439.6z"/>
			<pattern  id="SVGID_10_" xlink:href="#SVGID_2_" patternTransform="matrix(1 0 0 1 -5209.7002 31056.9883)">
			</pattern>
			<path class="cow10" d="M-173.2,441.3c0,0-4.2,2.2-6.8,2s-4.9-0.8-5.4-0.9s-3-1.1-3.3-2.4s-1.5-4-0.2-4.8c1.3-0.7,1.4-5.4,1.5-6.6
				s1.3-4.1,1.9-4.1s1,0.7,1.1,1.9c0.1,1.2,0.3,1.2,0.4,2.6s0.3,2.9,0.1,3.6s0.7,1.9,1.1,2.6c0.4,0.7,1.8,1.6,2.4,2.1
				c0.6,0.5,2.9,1.7,3.3,1.7C-176.5,439-169.2,439.7-173.2,441.3z"/>
		</g>
		<pattern  id="SVGID_11_" xlink:href="#SVGID_3_" patternTransform="matrix(1 0 0 1 -5209.7002 31056.9883)">
		</pattern>
		<path class="cow11" d="M-186.3,390.1c0-0.2,0.7,5,0,6.3s-1.2,2-2.4,3.5s-2,2.4-2,2.4s-1,1.1-0.9,2.7s0.5,3.1,0.5,3.1
			s0.5,3.8,0.5,4.5s-0.4,1.8-0.4,1.8s-3.7-4.2-3.6-5.8c0.1-1.6-1.6-9.8-1-9.8s4.9,0.3,6.2-2C-188.2,394.5-185.7,393.7-186.3,390.1z"
			/>
		<pattern  id="SVGID_12_" xlink:href="#SVGID_4_" patternTransform="matrix(1 0 0 1 -5209.7002 31056.9883)">
		</pattern>
		<path class="cow12" d="M-197,367.1c-0.6,0.4-1.6,2.1-2.2,4c-0.6,1.9-2.6,3.9-2.6,3.9s-2.6,2.1-2.8,2.2s-0.3,2.8-0.3,2.8
			s2.4-1.1,3.1-1.2c0.7-0.2,3.2-0.9,3.2-0.9s0-3.2,0.5-5s2.9-6.1,2.9-6.1L-197,367.1z"/>
		<pattern  id="SVGID_13_" xlink:href="#SVGID_5_" patternTransform="matrix(1 0 0 1 -5209.7002 31056.9883)">
		</pattern>
		<path class="cow13" d="M-154.9,383.8c0,0,2.3-1.6,2.3-2.2s-0.8-1.1-0.2-1.5c0.6-0.5,8.1-4.7,8.1-4.7s1,2.1,0.8,2.7s-0.1,2.8,0,3.3
			s0.3,1.3,0.3,1.3s-2.5-1.6-4.8-1.3C-150.9,381.7-154.9,383.8-154.9,383.8z"/>
		<pattern  id="SVGID_14_" xlink:href="#SVGID_6_" patternTransform="matrix(1 0 0 1 -5209.7002 31056.9883)">
		</pattern>
		<path class="cow14" d="M-161.3,397c-0.4,0-1,5.7-1.5,8.3c-0.5,2.6-1.1,2-0.7,4.9c0.4,2.9,0.8,5.6,0.4,6c-0.4,0.4-0.1,0.9-1.2,1.4
			c-1.1,0.5-3.1,1.1-4.5,1.4s-2.3-0.2-2.4,0.3c-0.2,0.5-1.1,1.4-0.7,1.3c0.3,0,4.3-0.3,6.5-0.1c2.1,0.3,4.5,0.7,5.3,1.2
			c0.8,0.4,2,1.1,2,1.1s-2.1-5.1-2.7-8.7c-0.6-3.6-0.2-9.6-0.4-11.1S-161.3,397-161.3,397z"/>
		<g>
			<g>
				<pattern  id="SVGID_15_" xlink:href="#SVGID_7_" patternTransform="matrix(1 0 0 1 -5209.7002 31056.9883)">
				</pattern>
				<path class="cow15" d="M-156.4,401.8"/>
			</g>
		</g>
		<pattern  id="SVGID_16_" xlink:href="#SVGID_8_" patternTransform="matrix(1 0 0 1 -5209.7002 31056.9883)">
		</pattern>
		<path class="cow16" d="M-146.2,367.1c0,0,3.6,1.7,3.9,2.7c0.3,1,0.4,1.8,1.2,3.4s1.9,3,1.9,3l3.4,2.8l1.8,2l-8.4-2.7l-1.5-0.6
			l-0.8-2.3l0.5-1.3c0,0-1.2-4.6-1.6-4.6c-0.4,0-1.4-2.8-1.4-2.8L-146.2,367.1z"/>
	</g>
</g>
<g id="cow-eyeball-l">
	<g>
		<circle class="cow17" cx="-195" cy="390.3" r="8.7"/>
	</g>
	<circle class="cow2" cx="-195" cy="390.1" r="8.7"/>
	<path class="cow2" d="M-186.9,387.1c0,0.2,1.4,2.4,0.2,5.5c-1.2,3.2-2.7,3.6-3.4,4.6s-1.4,1.4-2.8,1.5c-1.4,0.1-1.7,0.9-4.5-0.2
		s-3,0.1-4.6-2.8s-2-3.3-1.9-4.8s0-3.3,0.9-4.8c1-1.5,0.6-1.9,1.6-2.7c1-0.8,2.3-1.8,4.5-2s2.7-0.9,4.4,0.1
		C-190.7,382.6-187.4,384.6-186.9,387.1z"/>
</g>
<g id="cow-eyeball-r">
	<g>
		<circle class="cow17" cx="-148.3" cy="390.2" r="8.7"/>
	</g>
	<circle class="cow2" cx="-148" cy="390.2" r="8.7"/>
	<path class="cow2" d="M-145.6,381.8c0.2,0.1,2.6,1.1,3.2,1.5c0.6,0.4,1.1,0.8,1.5,1.9s1.1,1.9,1.3,2.7c0.2,0.8,0.6,2.8,0.1,4.1
		c-0.5,1.3-0.9,2.8-1.2,3.2s-1.3,1.6-1.8,2s-1.3,1.1-2.3,1.3c-1,0.3-1.9,0.4-3.4,0.6s-2.8-0.4-3.6-0.9c-0.9-0.5-3.1-1.1-3.7-3.6
		c-0.7-2.5-0.7-2.5-1-3.3c-0.3-0.9,0.1-2.6,0.5-3.9s0.6-3,2.2-3.6c1.5-0.5,3.5-1.2,3.9-1.6c0.5-0.4,2.5-1.2,4.7-0.2"/>
</g>
<g id="cow-eye-left">
	<circle cx="-196.9" cy="392.5" r="2"/>
	<path class="cow2" d="M-196.7,394.2c0,0,0.1,0.1,0.3,0.1c0.3,0,0.8,0,1-0.5c0.3-0.7,0.7-0.4,0.7-0.9s0-0.9-0.4-1.2
		c-0.4-0.3-0.8-0.9-1-0.9c-0.2-0.1,0-1.2-0.9-0.2c-0.9,0.9-1.4,0.2-1.8,1.2c-0.6,1.6,0,2.6,1,2.5"/>
	<circle cx="-196.9" cy="392.5" r="2"/>
	<path class="cow2" d="M-196.7,394.2c0,0,0.1,0.1,0.3,0.1c0.3,0,0.8,0,1-0.5c0.3-0.7,0.7-0.4,0.7-0.9s0-0.9-0.4-1.2
		c-0.4-0.3-0.8-0.9-1-0.9c-0.2-0.1,0-1.2-0.9-0.2c-0.9,0.9-1.4,0.2-1.8,1.2c-0.6,1.6,0,2.6,1,2.5"/>
</g>
<g id="cow-eye-right">
	<path d="M-145.9,394.5c-1.1,0-2-0.9-2-2s0.9-2,2-2s2,0.9,2,2S-144.9,394.5-145.9,394.5"/>
	<path class="cow2" d="M-144.2,393.6c0.4-0.1,0.4-0.7,0.2-1.1s-0.1-0.9-0.5-1.3s-1-0.8-1.5-0.7s-0.3,0.5-1.1,0.8
		c-0.7,0.3-1-0.3-0.9,0.7c0.1,0.9,0.1,1.5,0.8,1.9c0.6,0.3,0.5-0.1,0.5-0.1"/>
	<path class="cow2" d="M-146.4,393.9c0,0,1,0.9,1.4,0.5"/>
	<path d="M-145.9,394.5c-1.1,0-2-0.9-2-2s0.9-2,2-2s2,0.9,2,2S-144.9,394.5-145.9,394.5"/>
	<path class="cow2" d="M-144.2,393.6c0.4-0.1,0.4-0.7,0.2-1.1s-0.1-0.9-0.5-1.3s-1-0.8-1.5-0.7s-0.3,0.5-1.1,0.8
		c-0.7,0.3-1-0.3-0.9,0.7c0.1,0.9,0.1,1.5,0.8,1.9c0.6,0.3,0.5-0.1,0.5-0.1"/>
	<path class="cow2" d="M-146.4,393.9c0,0,1,0.9,1.4,0.5"/>
</g>
</svg>
