<?xml version="1.0" encoding="utf-8"?>
<!-- Generator: Adobe Illustrator 19.0.0, SVG Export Plug-In . SVG Version: 6.00 Build 0)  -->
<svg version="1.1" id="Слой_1" xmlns="http://www.w3.org/2000/svg" xmlns:xlink="http://www.w3.org/1999/xlink" x="0px" y="0px"
	 viewBox="-232.3 340 152 114" style="enable-background:new -232.3 340 152 114;" xml:space="preserve">
<style type="text/css">
	.heart0{fill:none;}
	.heart1{fill:#F4DCC1;}
	.heart2{fill:none;stroke:#000000;stroke-width:0.5;stroke-linecap:round;stroke-linejoin:round;stroke-miterlimit:10;}
	.heart3{fill:#F8AA34;}
	.heart4{fill:url(#SVGID_4_);}
	.heart5{fill:url(#SVGID_5_);}
	.heart6{fill:url(#SVGID_6_);}
</style>
<pattern  x="-231" y="454" width="21.7" height="27.1" patternUnits="userSpaceOnUse" id="SVGID_1_" viewBox="0 -27.1 21.7 27.1" style="overflow:visible;">
	<g>
		<polygon class="heart0" points="0,0 21.7,0 21.7,-27.1 0,-27.1 		"/>
		<g>
			<polygon class="heart0" points="0,-27.1 21.7,-27.1 21.7,0 0,0 			"/>
			<g>
				<polygon class="heart0" points="0,0 21.7,0 21.7,-27.1 0,-27.1 				"/>
				<path d="M0.5-26.2c0.3-0.1,0.7-0.1,1-0.2c0.5-0.1,0.3-0.8-0.2-0.7C1-27,0.6-27,0.3-26.9C-0.2-26.8,0-26.1,0.5-26.2z"/>
				<path d="M2.4-23.7c0.3,0,0.7,0,1,0c0.5,0,0.5-0.8,0-0.8c-0.3,0-0.7,0-1,0C1.9-24.5,1.9-23.7,2.4-23.7z"/>
				<path d="M5.4-26.3c0.5,0.3,1,0.7,1.5,1c0.4,0.3,0.8-0.4,0.4-0.6c-0.5-0.3-1-0.7-1.5-1C5.4-27.2,5-26.6,5.4-26.3z"/>
				<path d="M10.8-23.8c0.4,0.1,0.6,0.4,0.7,0.8c0.1,0.5,0.8,0.3,0.7-0.2c-0.2-0.6-0.6-1.1-1.3-1.3C10.5-24.6,10.3-23.9,10.8-23.8z"
					/>
				<path d="M7-22.4c0,0.4,0.3,0.8,0.7,0.9c0.5,0.1,0.7-0.6,0.2-0.7c0-0.1-0.1-0.1-0.1-0.2C7.7-22.8,7-22.8,7-22.4z"/>
				<path d="M2.4-20.2c0.3,0,0.5,0,0.8,0c0.5,0,0.5-0.8,0-0.8c-0.3,0-0.5,0-0.8,0C1.9-21,1.9-20.2,2.4-20.2z"/>
				<path d="M6.2-15.3c-1.2-0.3-2.4-0.6-3.5-0.9c-0.5-0.1-0.7,0.6-0.2,0.7c1.2,0.3,2.4,0.6,3.5,0.9C6.5-14.5,6.7-15.2,6.2-15.3z"/>
				<path d="M11.7-18.4c0-0.3,0-0.5,0-0.8c0-0.5-0.8-0.5-0.8,0c0,0.3,0,0.5,0,0.8C11-17.9,11.7-17.9,11.7-18.4z"/>
				<path d="M5-18.8c0.6,0.2,1.1,0.4,1.7,0.6c0.5,0.2,0.7-0.6,0.2-0.7c-0.6-0.2-1.1-0.4-1.7-0.6C4.8-19.7,4.6-19,5-18.8z"/>
				<path d="M8.6-10.7c0.3,0.4,0.9,0,0.6-0.4c-0.2-0.3-0.3-0.5-0.5-0.8c-0.3-0.4-0.9,0-0.6,0.4C8.2-11.2,8.4-10.9,8.6-10.7z"/>
				<path d="M2.3-12.6c0.4,0.3,0.9-0.2,0.5-0.5s-0.8-0.7-1.3-1c-0.4-0.3-0.9,0.2-0.5,0.5C1.5-13.2,1.9-12.9,2.3-12.6z"/>
				<path d="M3-8.4c0,0.8,0,1.5,0,2.3c0,0.5,0.8,0.5,0.8,0c0-0.8,0-1.5,0-2.3C3.7-8.8,3-8.8,3-8.4z"/>
				<path d="M5.9-10.3c-0.2-0.4-0.5-0.8-0.7-1.3c-0.2-0.4-0.9,0-0.6,0.4c0.2,0.4,0.5,0.8,0.7,1.3C5.5-9.5,6.2-9.9,5.9-10.3z"/>
				<path d="M6.2-7C6.5-6.2,6.8-5.4,7-4.5C7.2-4,7.9-4.2,7.7-4.7C7.5-5.5,7.2-6.4,6.9-7.2C6.8-7.6,6-7.5,6.2-7z"/>
				<path d="M10.8-6.9c0.1,0.5,0.8,0.5,0.8,0C11.5-7.5,11.3-8,11-8.4s-0.8,0.2-0.5,0.5C10.6-7.6,10.7-7.2,10.8-6.9z"/>
				<path d="M13.5-10.5c-0.1-0.4-0.2-0.8-0.3-1.2c-0.1-0.5-0.8-0.3-0.7,0.2c0.1,0.4,0.2,0.8,0.3,1.2C12.9-9.8,13.6-10,13.5-10.5z"/>
				<path d="M17.5-15.3c0.5,0.1,0.9,0.4,1.3,0.9c0.3,0.4,0.9,0,0.6-0.4c-0.4-0.6-1-1-1.7-1.2C17.2-16.1,17.1-15.4,17.5-15.3z"/>
				<path d="M20.5-10.1c0,0.5,0,1,0,1.5s0.8,0.5,0.8,0s0-1,0-1.5C21.2-10.6,20.5-10.6,20.5-10.1z"/>
				<path d="M18.5-4c0.1,0.5,0.8,0.3,0.7-0.2c-0.1-0.4,0-0.8,0.2-1.2c0.2-0.5-0.4-0.8-0.6-0.4C18.5-5.2,18.4-4.7,18.5-4z"/>
				<path d="M15.7-9.9c0,0.2,0,0.3,0,0.5c0,0.5,0.8,0.5,0.8,0c0-0.2,0-0.3,0-0.5C16.5-10.3,15.7-10.3,15.7-9.9z"/>
				<path d="M11.1-15.4c0.5,0.8,1.4,1.3,2.3,1.2c0.5,0,0.5-0.8,0-0.8c-0.7,0-1.3-0.2-1.7-0.8C11.5-16.2,10.8-15.9,11.1-15.4z"/>
				<path d="M9.2-13.6c0-0.3,0-0.5,0-0.8c0-0.5-0.8-0.5-0.8,0c0,0.3,0,0.5,0,0.8C8.5-13.1,9.2-13.1,9.2-13.6z"/>
				<path d="M9.1-17c0.5,0,0.5-0.8,0-0.8S8.6-17,9.1-17z"/>
				<path d="M17-13.1c-0.3-0.1-0.5-0.2-0.8-0.2c-0.5-0.1-0.7,0.6-0.2,0.7c0.3,0.1,0.5,0.2,0.8,0.2C17.2-12.2,17.4-12.9,17-13.1z"/>
				<path d="M13.8-17.5c0.2,0.1,0.5,0.2,0.7,0.3c0.5,0.2,0.6-0.5,0.2-0.7c-0.2-0.1-0.5-0.2-0.7-0.3C13.5-18.4,13.3-17.7,13.8-17.5z"
					/>
				<path d="M15.8-21.1c0.3,0.1,0.7,0.2,1,0.3c0.5,0.1,0.7-0.6,0.2-0.7c-0.3-0.1-0.7-0.2-1-0.3C15.5-21.9,15.3-21.2,15.8-21.1z"/>
				<path d="M20-16.3c0.3,0.4,0.8-0.2,0.5-0.5c-0.3-0.3-0.5-0.6-0.8-0.9c-0.3-0.4-0.8,0.2-0.5,0.5S19.8-16.6,20-16.3z"/>
				<path d="M21.7-12.9c0-0.1,0-0.2,0-0.3c0-0.5-0.8-0.5-0.8,0c0,0.1,0,0.2,0,0.3C21-12.4,21.7-12.4,21.7-12.9z"/>
				<path d="M19.1-11.2c0.5,0,0.5-0.8,0-0.8S18.6-11.2,19.1-11.2z"/>
				<path d="M13.4-19.5c0.4,0.3,0.8-0.4,0.4-0.6c-0.3-0.3-0.7-0.5-1-0.8c-0.4-0.3-0.8,0.4-0.4,0.6C12.7-20,13.1-19.8,13.4-19.5z"/>
				<path d="M4.3-2.3C4.4-2.2,4.5-2.1,4.6-2c0.3,0.2,0.9-0.3,0.5-0.6C5-2.7,5-2.8,4.9-2.9C4.5-3.2,4-2.7,4.3-2.3z"/>
				<path d="M9.4-4.5c0.1,0.4,0.2,0.8,0.3,1.2c0.1,0.5,0.9,0.3,0.8-0.2c-0.1-0.4-0.2-0.8-0.3-1.2C10.1-5.2,9.3-5,9.4-4.5z"/>
				<path d="M14.7-3.9c-0.1-0.5-0.9-0.3-0.8,0.1c0.1,0.3,0.2,0.7,0.3,1C14.3-2.3,15-2.5,14.9-3C14.8-3.3,14.8-3.6,14.7-3.9z"/>
				<path d="M14.6-7c-0.3,0-0.5-0.2-0.5-0.5c0.1-0.5-0.6-0.7-0.7-0.2c-0.1,0.8,0.4,1.5,1.2,1.5C15.1-6.2,15.1-7,14.6-7z"/>
				<path d="M16.2-3.4c-0.1,1,0,2.1,0.3,3.1c0.1,0.5,0.9,0.3,0.7-0.2c-0.3-1-0.3-1.9-0.2-2.9C17-3.8,16.3-3.8,16.2-3.4z"/>
				<path d="M21.7-4.4c0-0.5-0.8-0.5-0.8,0s0,1,0,1.5s0.8,0.5,0.8,0S21.7-3.9,21.7-4.4z"/>
			</g>
		</g>
	</g>
</pattern>
<pattern  x="-231" y="454" width="21.7" height="27.1" patternUnits="userSpaceOnUse" id="SVGID_2_" viewBox="0 -27.1 21.7 27.1" style="overflow:visible;">
	<g>
		<polygon class="heart0" points="0,0 21.7,0 21.7,-27.1 0,-27.1 		"/>
		<g>
			<polygon class="heart0" points="0,-27.1 21.7,-27.1 21.7,0 0,0 			"/>
			<g>
				<polygon class="heart0" points="0,0 21.7,0 21.7,-27.1 0,-27.1 				"/>
				<path d="M0.5-26.2c0.3-0.1,0.7-0.1,1-0.2c0.5-0.1,0.3-0.8-0.2-0.7C1-27,0.6-27,0.3-26.9C-0.2-26.8,0-26.1,0.5-26.2z"/>
				<path d="M2.4-23.7c0.3,0,0.7,0,1,0c0.5,0,0.5-0.8,0-0.8c-0.3,0-0.7,0-1,0C1.9-24.5,1.9-23.7,2.4-23.7z"/>
				<path d="M5.4-26.3c0.5,0.3,1,0.7,1.5,1c0.4,0.3,0.8-0.4,0.4-0.6c-0.5-0.3-1-0.7-1.5-1C5.4-27.2,5-26.6,5.4-26.3z"/>
				<path d="M10.8-23.8c0.4,0.1,0.6,0.4,0.7,0.8c0.1,0.5,0.8,0.3,0.7-0.2c-0.2-0.6-0.6-1.1-1.3-1.3C10.5-24.6,10.3-23.9,10.8-23.8z"
					/>
				<path d="M7-22.4c0,0.4,0.3,0.8,0.7,0.9c0.5,0.1,0.7-0.6,0.2-0.7c0-0.1-0.1-0.1-0.1-0.2C7.7-22.8,7-22.8,7-22.4z"/>
				<path d="M2.4-20.2c0.3,0,0.5,0,0.8,0c0.5,0,0.5-0.8,0-0.8c-0.3,0-0.5,0-0.8,0C1.9-21,1.9-20.2,2.4-20.2z"/>
				<path d="M6.2-15.3c-1.2-0.3-2.4-0.6-3.5-0.9c-0.5-0.1-0.7,0.6-0.2,0.7c1.2,0.3,2.4,0.6,3.5,0.9C6.5-14.5,6.7-15.2,6.2-15.3z"/>
				<path d="M11.7-18.4c0-0.3,0-0.5,0-0.8c0-0.5-0.8-0.5-0.8,0c0,0.3,0,0.5,0,0.8C11-17.9,11.7-17.9,11.7-18.4z"/>
				<path d="M5-18.8c0.6,0.2,1.1,0.4,1.7,0.6c0.5,0.2,0.7-0.6,0.2-0.7c-0.6-0.2-1.1-0.4-1.7-0.6C4.8-19.7,4.6-19,5-18.8z"/>
				<path d="M8.6-10.7c0.3,0.4,0.9,0,0.6-0.4c-0.2-0.3-0.3-0.5-0.5-0.8c-0.3-0.4-0.9,0-0.6,0.4C8.2-11.2,8.4-10.9,8.6-10.7z"/>
				<path d="M2.3-12.6c0.4,0.3,0.9-0.2,0.5-0.5s-0.8-0.7-1.3-1c-0.4-0.3-0.9,0.2-0.5,0.5C1.5-13.2,1.9-12.9,2.3-12.6z"/>
				<path d="M3-8.4c0,0.8,0,1.5,0,2.3c0,0.5,0.8,0.5,0.8,0c0-0.8,0-1.5,0-2.3C3.7-8.8,3-8.8,3-8.4z"/>
				<path d="M5.9-10.3c-0.2-0.4-0.5-0.8-0.7-1.3c-0.2-0.4-0.9,0-0.6,0.4c0.2,0.4,0.5,0.8,0.7,1.3C5.5-9.5,6.2-9.9,5.9-10.3z"/>
				<path d="M6.2-7C6.5-6.2,6.8-5.4,7-4.5C7.2-4,7.9-4.2,7.7-4.7C7.5-5.5,7.2-6.4,6.9-7.2C6.8-7.6,6-7.5,6.2-7z"/>
				<path d="M10.8-6.9c0.1,0.5,0.8,0.5,0.8,0C11.5-7.5,11.3-8,11-8.4s-0.8,0.2-0.5,0.5C10.6-7.6,10.7-7.2,10.8-6.9z"/>
				<path d="M13.5-10.5c-0.1-0.4-0.2-0.8-0.3-1.2c-0.1-0.5-0.8-0.3-0.7,0.2c0.1,0.4,0.2,0.8,0.3,1.2C12.9-9.8,13.6-10,13.5-10.5z"/>
				<path d="M17.5-15.3c0.5,0.1,0.9,0.4,1.3,0.9c0.3,0.4,0.9,0,0.6-0.4c-0.4-0.6-1-1-1.7-1.2C17.2-16.1,17.1-15.4,17.5-15.3z"/>
				<path d="M20.5-10.1c0,0.5,0,1,0,1.5s0.8,0.5,0.8,0s0-1,0-1.5C21.2-10.6,20.5-10.6,20.5-10.1z"/>
				<path d="M18.5-4c0.1,0.5,0.8,0.3,0.7-0.2c-0.1-0.4,0-0.8,0.2-1.2c0.2-0.5-0.4-0.8-0.6-0.4C18.5-5.2,18.4-4.7,18.5-4z"/>
				<path d="M15.7-9.9c0,0.2,0,0.3,0,0.5c0,0.5,0.8,0.5,0.8,0c0-0.2,0-0.3,0-0.5C16.5-10.3,15.7-10.3,15.7-9.9z"/>
				<path d="M11.1-15.4c0.5,0.8,1.4,1.3,2.3,1.2c0.5,0,0.5-0.8,0-0.8c-0.7,0-1.3-0.2-1.7-0.8C11.5-16.2,10.8-15.9,11.1-15.4z"/>
				<path d="M9.2-13.6c0-0.3,0-0.5,0-0.8c0-0.5-0.8-0.5-0.8,0c0,0.3,0,0.5,0,0.8C8.5-13.1,9.2-13.1,9.2-13.6z"/>
				<path d="M9.1-17c0.5,0,0.5-0.8,0-0.8S8.6-17,9.1-17z"/>
				<path d="M17-13.1c-0.3-0.1-0.5-0.2-0.8-0.2c-0.5-0.1-0.7,0.6-0.2,0.7c0.3,0.1,0.5,0.2,0.8,0.2C17.2-12.2,17.4-12.9,17-13.1z"/>
				<path d="M13.8-17.5c0.2,0.1,0.5,0.2,0.7,0.3c0.5,0.2,0.6-0.5,0.2-0.7c-0.2-0.1-0.5-0.2-0.7-0.3C13.5-18.4,13.3-17.7,13.8-17.5z"
					/>
				<path d="M15.8-21.1c0.3,0.1,0.7,0.2,1,0.3c0.5,0.1,0.7-0.6,0.2-0.7c-0.3-0.1-0.7-0.2-1-0.3C15.5-21.9,15.3-21.2,15.8-21.1z"/>
				<path d="M20-16.3c0.3,0.4,0.8-0.2,0.5-0.5c-0.3-0.3-0.5-0.6-0.8-0.9c-0.3-0.4-0.8,0.2-0.5,0.5S19.8-16.6,20-16.3z"/>
				<path d="M21.7-12.9c0-0.1,0-0.2,0-0.3c0-0.5-0.8-0.5-0.8,0c0,0.1,0,0.2,0,0.3C21-12.4,21.7-12.4,21.7-12.9z"/>
				<path d="M19.1-11.2c0.5,0,0.5-0.8,0-0.8S18.6-11.2,19.1-11.2z"/>
				<path d="M13.4-19.5c0.4,0.3,0.8-0.4,0.4-0.6c-0.3-0.3-0.7-0.5-1-0.8c-0.4-0.3-0.8,0.4-0.4,0.6C12.7-20,13.1-19.8,13.4-19.5z"/>
				<path d="M4.3-2.3C4.4-2.2,4.5-2.1,4.6-2c0.3,0.2,0.9-0.3,0.5-0.6C5-2.7,5-2.8,4.9-2.9C4.5-3.2,4-2.7,4.3-2.3z"/>
				<path d="M9.4-4.5c0.1,0.4,0.2,0.8,0.3,1.2c0.1,0.5,0.9,0.3,0.8-0.2c-0.1-0.4-0.2-0.8-0.3-1.2C10.1-5.2,9.3-5,9.4-4.5z"/>
				<path d="M14.7-3.9c-0.1-0.5-0.9-0.3-0.8,0.1c0.1,0.3,0.2,0.7,0.3,1C14.3-2.3,15-2.5,14.9-3C14.8-3.3,14.8-3.6,14.7-3.9z"/>
				<path d="M14.6-7c-0.3,0-0.5-0.2-0.5-0.5c0.1-0.5-0.6-0.7-0.7-0.2c-0.1,0.8,0.4,1.5,1.2,1.5C15.1-6.2,15.1-7,14.6-7z"/>
				<path d="M16.2-3.4c-0.1,1,0,2.1,0.3,3.1c0.1,0.5,0.9,0.3,0.7-0.2c-0.3-1-0.3-1.9-0.2-2.9C17-3.8,16.3-3.8,16.2-3.4z"/>
				<path d="M21.7-4.4c0-0.5-0.8-0.5-0.8,0s0,1,0,1.5s0.8,0.5,0.8,0S21.7-3.9,21.7-4.4z"/>
			</g>
		</g>
	</g>
</pattern>
<pattern  x="-231" y="454" width="21.7" height="27.1" patternUnits="userSpaceOnUse" id="SVGID_3_" viewBox="0 -27.1 21.7 27.1" style="overflow:visible;">
	<g>
		<polygon class="heart0" points="0,0 21.7,0 21.7,-27.1 0,-27.1 		"/>
		<g>
			<polygon class="heart0" points="0,-27.1 21.7,-27.1 21.7,0 0,0 			"/>
			<g>
				<polygon class="heart0" points="0,0 21.7,0 21.7,-27.1 0,-27.1 				"/>
				<path d="M0.5-26.2c0.3-0.1,0.7-0.1,1-0.2c0.5-0.1,0.3-0.8-0.2-0.7C1-27,0.6-27,0.3-26.9C-0.2-26.8,0-26.1,0.5-26.2z"/>
				<path d="M2.4-23.7c0.3,0,0.7,0,1,0c0.5,0,0.5-0.8,0-0.8c-0.3,0-0.7,0-1,0C1.9-24.5,1.9-23.7,2.4-23.7z"/>
				<path d="M5.4-26.3c0.5,0.3,1,0.7,1.5,1c0.4,0.3,0.8-0.4,0.4-0.6c-0.5-0.3-1-0.7-1.5-1C5.4-27.2,5-26.6,5.4-26.3z"/>
				<path d="M10.8-23.8c0.4,0.1,0.6,0.4,0.7,0.8c0.1,0.5,0.8,0.3,0.7-0.2c-0.2-0.6-0.6-1.1-1.3-1.3C10.5-24.6,10.3-23.9,10.8-23.8z"
					/>
				<path d="M7-22.4c0,0.4,0.3,0.8,0.7,0.9c0.5,0.1,0.7-0.6,0.2-0.7c0-0.1-0.1-0.1-0.1-0.2C7.7-22.8,7-22.8,7-22.4z"/>
				<path d="M2.4-20.2c0.3,0,0.5,0,0.8,0c0.5,0,0.5-0.8,0-0.8c-0.3,0-0.5,0-0.8,0C1.9-21,1.9-20.2,2.4-20.2z"/>
				<path d="M6.2-15.3c-1.2-0.3-2.4-0.6-3.5-0.9c-0.5-0.1-0.7,0.6-0.2,0.7c1.2,0.3,2.4,0.6,3.5,0.9C6.5-14.5,6.7-15.2,6.2-15.3z"/>
				<path d="M11.7-18.4c0-0.3,0-0.5,0-0.8c0-0.5-0.8-0.5-0.8,0c0,0.3,0,0.5,0,0.8C11-17.9,11.7-17.9,11.7-18.4z"/>
				<path d="M5-18.8c0.6,0.2,1.1,0.4,1.7,0.6c0.5,0.2,0.7-0.6,0.2-0.7c-0.6-0.2-1.1-0.4-1.7-0.6C4.8-19.7,4.6-19,5-18.8z"/>
				<path d="M8.6-10.7c0.3,0.4,0.9,0,0.6-0.4c-0.2-0.3-0.3-0.5-0.5-0.8c-0.3-0.4-0.9,0-0.6,0.4C8.2-11.2,8.4-10.9,8.6-10.7z"/>
				<path d="M2.3-12.6c0.4,0.3,0.9-0.2,0.5-0.5s-0.8-0.7-1.3-1c-0.4-0.3-0.9,0.2-0.5,0.5C1.5-13.2,1.9-12.9,2.3-12.6z"/>
				<path d="M3-8.4c0,0.8,0,1.5,0,2.3c0,0.5,0.8,0.5,0.8,0c0-0.8,0-1.5,0-2.3C3.7-8.8,3-8.8,3-8.4z"/>
				<path d="M5.9-10.3c-0.2-0.4-0.5-0.8-0.7-1.3c-0.2-0.4-0.9,0-0.6,0.4c0.2,0.4,0.5,0.8,0.7,1.3C5.5-9.5,6.2-9.9,5.9-10.3z"/>
				<path d="M6.2-7C6.5-6.2,6.8-5.4,7-4.5C7.2-4,7.9-4.2,7.7-4.7C7.5-5.5,7.2-6.4,6.9-7.2C6.8-7.6,6-7.5,6.2-7z"/>
				<path d="M10.8-6.9c0.1,0.5,0.8,0.5,0.8,0C11.5-7.5,11.3-8,11-8.4s-0.8,0.2-0.5,0.5C10.6-7.6,10.7-7.2,10.8-6.9z"/>
				<path d="M13.5-10.5c-0.1-0.4-0.2-0.8-0.3-1.2c-0.1-0.5-0.8-0.3-0.7,0.2c0.1,0.4,0.2,0.8,0.3,1.2C12.9-9.8,13.6-10,13.5-10.5z"/>
				<path d="M17.5-15.3c0.5,0.1,0.9,0.4,1.3,0.9c0.3,0.4,0.9,0,0.6-0.4c-0.4-0.6-1-1-1.7-1.2C17.2-16.1,17.1-15.4,17.5-15.3z"/>
				<path d="M20.5-10.1c0,0.5,0,1,0,1.5s0.8,0.5,0.8,0s0-1,0-1.5C21.2-10.6,20.5-10.6,20.5-10.1z"/>
				<path d="M18.5-4c0.1,0.5,0.8,0.3,0.7-0.2c-0.1-0.4,0-0.8,0.2-1.2c0.2-0.5-0.4-0.8-0.6-0.4C18.5-5.2,18.4-4.7,18.5-4z"/>
				<path d="M15.7-9.9c0,0.2,0,0.3,0,0.5c0,0.5,0.8,0.5,0.8,0c0-0.2,0-0.3,0-0.5C16.5-10.3,15.7-10.3,15.7-9.9z"/>
				<path d="M11.1-15.4c0.5,0.8,1.4,1.3,2.3,1.2c0.5,0,0.5-0.8,0-0.8c-0.7,0-1.3-0.2-1.7-0.8C11.5-16.2,10.8-15.9,11.1-15.4z"/>
				<path d="M9.2-13.6c0-0.3,0-0.5,0-0.8c0-0.5-0.8-0.5-0.8,0c0,0.3,0,0.5,0,0.8C8.5-13.1,9.2-13.1,9.2-13.6z"/>
				<path d="M9.1-17c0.5,0,0.5-0.8,0-0.8S8.6-17,9.1-17z"/>
				<path d="M17-13.1c-0.3-0.1-0.5-0.2-0.8-0.2c-0.5-0.1-0.7,0.6-0.2,0.7c0.3,0.1,0.5,0.2,0.8,0.2C17.2-12.2,17.4-12.9,17-13.1z"/>
				<path d="M13.8-17.5c0.2,0.1,0.5,0.2,0.7,0.3c0.5,0.2,0.6-0.5,0.2-0.7c-0.2-0.1-0.5-0.2-0.7-0.3C13.5-18.4,13.3-17.7,13.8-17.5z"
					/>
				<path d="M15.8-21.1c0.3,0.1,0.7,0.2,1,0.3c0.5,0.1,0.7-0.6,0.2-0.7c-0.3-0.1-0.7-0.2-1-0.3C15.5-21.9,15.3-21.2,15.8-21.1z"/>
				<path d="M20-16.3c0.3,0.4,0.8-0.2,0.5-0.5c-0.3-0.3-0.5-0.6-0.8-0.9c-0.3-0.4-0.8,0.2-0.5,0.5S19.8-16.6,20-16.3z"/>
				<path d="M21.7-12.9c0-0.1,0-0.2,0-0.3c0-0.5-0.8-0.5-0.8,0c0,0.1,0,0.2,0,0.3C21-12.4,21.7-12.4,21.7-12.9z"/>
				<path d="M19.1-11.2c0.5,0,0.5-0.8,0-0.8S18.6-11.2,19.1-11.2z"/>
				<path d="M13.4-19.5c0.4,0.3,0.8-0.4,0.4-0.6c-0.3-0.3-0.7-0.5-1-0.8c-0.4-0.3-0.8,0.4-0.4,0.6C12.7-20,13.1-19.8,13.4-19.5z"/>
				<path d="M4.3-2.3C4.4-2.2,4.5-2.1,4.6-2c0.3,0.2,0.9-0.3,0.5-0.6C5-2.7,5-2.8,4.9-2.9C4.5-3.2,4-2.7,4.3-2.3z"/>
				<path d="M9.4-4.5c0.1,0.4,0.2,0.8,0.3,1.2c0.1,0.5,0.9,0.3,0.8-0.2c-0.1-0.4-0.2-0.8-0.3-1.2C10.1-5.2,9.3-5,9.4-4.5z"/>
				<path d="M14.7-3.9c-0.1-0.5-0.9-0.3-0.8,0.1c0.1,0.3,0.2,0.7,0.3,1C14.3-2.3,15-2.5,14.9-3C14.8-3.3,14.8-3.6,14.7-3.9z"/>
				<path d="M14.6-7c-0.3,0-0.5-0.2-0.5-0.5c0.1-0.5-0.6-0.7-0.7-0.2c-0.1,0.8,0.4,1.5,1.2,1.5C15.1-6.2,15.1-7,14.6-7z"/>
				<path d="M16.2-3.4c-0.1,1,0,2.1,0.3,3.1c0.1,0.5,0.9,0.3,0.7-0.2c-0.3-1-0.3-1.9-0.2-2.9C17-3.8,16.3-3.8,16.2-3.4z"/>
				<path d="M21.7-4.4c0-0.5-0.8-0.5-0.8,0s0,1,0,1.5s0.8,0.5,0.8,0S21.7-3.9,21.7-4.4z"/>
			</g>
		</g>
	</g>
</pattern>
<g id="hand-left">
	<path class="heart1" d="M-188,380.7l0.2,0c-0.6-0.9-1.1-1.8-1.6-2.9c-1.1-2.3-2-4.9-3.3-5.1c-1.3-0.3-2-0.6-3.4,0.6
		c-1.5,1.3-1.6,1.9-1.7,4.1c-0.1,2.2,0,3.8,0.6,5c0.6,1.1,2.3,6.5,2.3,6.5s-20.5-8.5-20.8-8.5s-5.2-1.9-6.3-1.5
		c-1.2,0.3-2.1,1.1-2.4,1.7s-1.6,1.7-0.2,3.8s0.6,2.1,2.4,2c1.8-0.1,13.5,5.4,13.5,5.4s-1.5-0.5-2.9,0.8c-1.5,1.3-1.5,0.9-1.5,2.2
		s-0.5,1.9,0.5,3.2c1,1.2,0.8,1-0.1,1.4c-1,0.4-2.2,0.8-2.5,1.1c-0.3,0.3-0.7,0.5-0.8,1.8c0,1.3,0.3,3.6,0.7,3.7s-10.6-4.1-10.6-4.1
		s-2.9-1.1-3.8-0.1c-1,0.9-2.2,1.9-2.1,2.6c0.1,0.6-0.6,2,0.4,3c0.9,1,1.7,0.8,2.2,1.7c0.7,0.6,21,8.3,24.2,9.2
		c3.3,0.9,4.9,0.6,6.2,1.1c1.4,0.5,10,1.6,10.7,1.8c0.7,0.2,5.6,1.8,5.6,1.8c1.7,0.7,4.5,1.9,8,3.4c7.1,3.1,9.1,4.1,10.9,3.1
		c1.1-0.6,1.1-1.4,3.5-6.1c1.2-2.5,2.3-4.4,3-5.8c1.4-1.8,3-4.6,2.1-6.9c-0.7-1.8-2.5-2.4-7.4-4.4c-2.7-1.1-5.7-2.4-8.9-3.8
		c-1.1-0.3-2.7-0.8-4.1-2.2c-2.1-2.1-1.7-3.9-3.8-8.1c-0.7-1.4-1.6-2.7-3.5-5.3C-185,384.3-186.7,382.2-188,380.7z"/>
	<path class="heart2" d="M-184,385.6c-0.8-0.8-1.7-1.6-2.7-3c-4.3-6.1-3.9-8.9-5.7-9.6c-2.3-0.9-3.8-0.9-5.1,2.1
		c-1.7,4.2,2.9,13.7,2.9,13.7l-25.3-10.1c-2-0.8-4.3,0.2-5.1,2.1c-0.8,2,0.2,4.3,2.1,5.1l14.5,5.8c-2-0.8-4.3,0.2-5.1,2.1
		c-0.8,2,0.2,4.3,2.1,5.1c-2-0.8-4.3,0.2-5.1,2.1c-0.8,2,0.2,4.3,2.1,5.1l-12.7-5.1c-2-0.8-4.3,0.2-5.1,2.1
		c-0.8,1.9,0.2,4.3,2.1,5.1l21.7,8.7c8.7,3.5,18.4,3.2,21.4,4.3l5.4,2.1c11,5.3,17.2,7,18.6,5.2c0.2-0.3,0.3-0.8,0.2-1.4
		c2.3-4.4,4.6-8.8,6.9-13.1c0.8-1.4,0.7-2.4,0.6-3c-0.7-3.5-6.8-4.1-17.7-9.3c-1.2-0.6-2.2-1.1-2.8-1.4"/>
	<path class="heart2" d="M-192,373.5c0,0-1.1-1.2-2.1-1c-1.1,0.1-1.4,0.2-1.9,0.4c-0.4,0.3-1,0-1.6,1.1c-0.6,1.1-0.5,2-0.4,3.2
		s0,1.7,0.2,2.7c0.2,1-0.4,1.7,0.3,2.8c0.6,1.1,0.7,1.2,1.1,2.3s0.6,1.6,0.9,2.1c0.2,0.5,0.7,0.8,0.6,1.2c-0.1,0.4-0.9,0.2-1.5-0.1
		s-6.1-3-7.6-3.5c-1.5-0.5-3.2-1.2-4.7-1.4c-1.5-0.2-3-1.1-3.5-1.4c-0.6-0.2-2.8-1.1-3.9-1.5c-1.2-0.5-2.8-1.3-3.8-1.5
		c-1-0.3-2.3,0-3.1,0.1c-0.8,0.2-2,0.4-2.2,1.5s-0.1,2.3,0.1,2.9s0.3,1.4,0.9,1.9c0.7,0.5,1.3,0.9,2.1,1.3c0.7,0.3,1.4,0.7,3,1.5
		c1.6,0.8,2.8,0.8,4.1,1.3c1.4,0.5,2.5,1,3.2,1.2s3.5,1.4,3.5,1.4s-2-0.2-3.3,0.3c-1.2,0.6-1.6,0.7-2,1.4c-0.4,0.7-0.4,1.7-0.1,2.4
		s-0.3,0.7,0.8,1.9c1.2,1.2,1.7,1.1,1,1.4c-0.8,0.3-2.7,0.3-2.8,0.3c-0.1,0-1.1,0.6-1.6,1.5c-0.5,0.8-0.5,1.1,0,2.2
		c0.3,1.2,0.4,1.4,0.8,1.8s1,0.8,0.9,0.8c-0.1,0-2.2-0.8-2.9-1.1c-0.6-0.2-1.8-0.5-2.3-0.9c-0.6-0.4-1.4-1-2.1-1.3
		c-0.5-0.2-1.2-0.4-1.9-0.7c-0.7-0.3-2.2-1-2.9-0.9s-1.2,0-2.1,0.2c-0.9,0.1-1.4,0.8-2.3,1.5c-0.8,0.7-0.6,1.4-0.5,2.4
		s-0.2,2,0.5,2.8c0.8,0.7,1.1,0.9,2.4,1.4c1.3,0.5,2,0.4,3.9,1.1s6.5,1.9,8.1,3.2c1.6,1.3,2.3,1.6,3.6,1.9c1.2,0.2,2.4,0.9,3.6,1.4
		c1.1,0.5,2.9,0.7,4.4,1.2c1.5,0.4,3.1,0.9,4.5,1.2c1.3,0.2,4.7,0.8,6.4,1c1.6,0.2,3.3,0.7,3.7,0.8c0.4,0.1,3.8,0.5,4.6,0.1"/>
	<path class="heart2" d="M-189.2,402.6c0,0-0.3,4-0.9,4.9s-0.7,2.1-0.8,3"/>
	<path class="heart2" d="M-194.1,374.7c0,0,0,2.1-0.4,2.6c-0.3,0.4-0.3,1.6-0.2,2.4"/>
	<path class="heart2" d="M-184.2,385.4c1.7,2,3.1,4.2,4.2,6.5c0.9,1.8,1.4,4.2,2.7,5.7c0.7,0.9,0.9,2.4,1.8,3.2"/>
	<path class="heart1" d="M-189.2,403.3c0,0-0.6,0.9-0.6,2.4c0,1.4-0.5,2.3-0.7,3"/>
</g>
<g id="hand-right">
	<path class="heart1" d="M-133.8,394.4c0,0-1-3.5,1.5-5.7c2.4-2.2,2-1.4,3.7-4.3c1.7-2.8,2.6-4.2,3.4-6.6s1.6-5,2.8-5.4
		c1.2-0.4,1.9-0.7,3.5,0.3c1.6,1.2,1.7,1.8,2.1,4c0.3,2.1,0.4,3.8-0.2,5c-0.5,1.2-1.7,6.6-1.7,6.6s19.7-10.3,20-10.3s5-2.3,6.2-2.1
		s2.2,0.9,2.5,1.5c0.4,0.6,1.7,1.6,0.6,3.7c-1.2,2.2-1.2,2.9-3,2.9c-1.8,0-12.1,5.9-12.1,5.9s1.4-0.6,3,0.5c1.6,1.2,1.6,0.8,1.7,2.1
		c0.1,1.3,0.6,1.8-0.2,3.2c-0.8,1.3-0.7,1.1,0.2,1.4c1,0.3,2.3,0.6,2.6,0.9s0.8,0.4,0.9,1.7c0.2,1.3,0,3.6-0.3,3.8
		c-0.3,0.2,10.1-5,10.1-5s2.8-1.3,3.8-0.5c1.1,0.8,2.3,1.7,2.3,2.4c0,0.7,0.7,1.9-0.1,3c-0.8,1.1-1.6,0.9-2.1,1.9
		c-0.4,0.9-20,10.4-23.2,11.5c-3.2,1.2-4.8,1-6.1,1.7c-1.3,0.7-9.8,2.4-10.5,2.7c-0.7,0.3-5.4,2.3-5.4,2.3
		c-2.5,1.1-12.9,5.7-19.3,4.2c-1.7-0.4-2.4-1-2.6-1.2c-1.9-1.9-0.1-4.4-1.1-10.1c-0.4-2.3-0.9-3.4-0.5-5.2c0.1-0.4,0.5-2,1.9-3.6
		c2.4-2.8,5-2,11.3-5.1c0.5-0.2,3-1.5,4.1-3.6C-133.3,397.2-133.5,395.6-133.8,394.4z"/>
	<path class="heart2" d="M-80.9,399.9c-0.9-1.9-3.3-2.7-5.2-1.7l-12.2,6.1c1.9-0.9,2.7-3.3,1.7-5.2c-0.9-1.9-3.3-2.7-5.2-1.7
		c1.9-0.9,2.7-3.3,1.7-5.2c-0.9-1.9-3.3-2.7-5.2-1.7l14-7c1.9-0.9,2.7-3.3,1.7-5.2c-0.9-1.9-3.3-2.7-5.2-1.7l-24.4,12.2
		c0,0,3.8-9.9,1.7-13.9c-1.5-3-3-2.8-5.2-1.7c-1.7,0.8-1.1,3.6-4.9,10c-2.1,3.7-4,3.9-5.5,8.8c-0.2,0.9-0.5,2.2-0.6,3.8
		c0,0.1,0,0.2,0,0.4c0,0.2,0,0.3,0,0.5c0,0.3,0,0.5,0,0.8c0,0.2-0.7,3.6-6.2,6.3c-4.4,2.1-6.3,1.2-9.1,3.6c-1.2,1-1.9,2.1-2.4,2.9
		c0.4,5.2,0.8,10.4,1.1,15.6c0.1,0.4,0.3,0.7,0.5,1c3.4,4.5,18.3-1.6,20.4-2.5l5.2-2.6c2.9-1.4,12.6-1.9,20.9-6.1l20.9-10.5
		C-80.8,404.2-80,401.8-80.9,399.9z"/>
	<path class="heart2" d="M-133.8,394.4c0,0,0.5-5.9,2.7-7c2.1-1.1,2.5-2.8,3.1-3.9c0.6-1.1,1.7-3,2.2-4.1c0.4-1,1.3-3.6,1.7-4.3
		c0.3-0.8,0.7-2.5,2.6-2.9c1.9-0.4,3.6,0.2,4.1,2.6c0.5,2.3,1.5,2.8,0.8,5s-0.9,3.4-1.2,4.1s-0.5,1.7-0.7,2.4s-0.6,2.3-0.4,2.2
		c0.2-0.1,3.7-1.4,5-2.5c1.3-1.2,2.4-1.2,4.2-2.1c1.7-0.8,5.6-2.8,6.9-3.4c1.3-0.7,1.6-0.3,3-1.5c1.3-1.2,1.9-1,3.1-1.6
		c1.1-0.6,4.3-2.3,5.7-0.6c1.4,1.8,2.2,1.7,1.7,3.8c-0.6,2.2-0.4,2.5-2.4,3.5c-2,1-4.1,1.6-5.1,2.1c-0.9,0.5-3,1.5-3.8,1.9
		c-0.8,0.4-1.2,0.7-1.6,0.8c-0.4,0.2-2.1,1.1-2.3,1.2c0,0,1.9-0.4,3,0.5c1.1,0.9,2,1,1.7,2.1c-0.3,1.1,0.5,1.6,0,2.7
		c-0.5,1.1-1.9,2-1.9,2s1.6-0.6,2.9,0.1s2,0.2,2.3,1.6c0.4,1.5,0.4,2.7,0.1,3.3c-0.3,0.6-1.3,1.7-1.3,1.7s2.3-1.1,3.3-1.6
		c0.9-0.5,1-0.6,1.9-0.9c0.8-0.5,2.9-1.4,3.6-1.8s2.9-2,3.9-1.9c1,0.1,1.6-0.6,2.9,0.5s2.1,1.7,1.8,2.6c-0.3,0.9,0.5,2.7-1.4,3.8
		c-1.9,1-4.1,2.5-5.8,3c-1.7,0.4-3,0.6-3.8,1.5c-0.8,0.9-3.7,2.4-4.5,2.7c-0.8,0.4-2.7,1.3-3.3,1.6c-0.6,0.3-2.1,1-2.8,1.4
		c-0.6,0.3-2.3,1.2-3.3,1.6c-0.8,0.4-2.6,1.1-4,1.5c-1.2,0.4-4.6,1.3-5.9,1.6s-3,0.3-4,0.8c-1,0.6-1.1,0.1-2.9,0.6s-2.8,1-3.1,1.2
		c-0.3,0.2-2.8,1.4-2.8,1.4"/>
	<path class="heart2" d="M-120.6,385.2c0,0,0.7-2.5,0.8-3.8c0.1-1.3,0.5-1.4,0.5-2.4c0-1.1,0.2-2.3-0.1-3.2"/>
	<path class="heart2" d="M-105.5,391.7c0,0,1.4,0.4,1.8,0.3c0.4-0.1,0.9,0.1,1.2,0.3s0.6,1.2,0.5,1.4"/>
	<path class="heart2" d="M-119.7,375.3c0,0,1,0.7,0.5,2.1c-0.5,1.4-0.5,3.1-0.6,3.9c-0.1,0.8-0.1,2.4-0.6,2.7"/>
	<path class="heart2" d="M-105.1,391.8c0,0,0.6,0,1.4,0.2c0.8,0.1,1.2-0.2,1.5,0.9"/>
	<path class="heart2" d="M-115.4,417.5c0,0-0.6,0.3-2.7,0.4c-2.1,0.2-2.5,0.3-3.8,0.7c-1.3,0.4-3.3,0.7-3.8,1"/>
	<path class="heart2" d="M-125.3,419.4c0.1,0,1.8-0.7,3.6-0.9c1.8-0.1,3.7,0,4.2-0.3"/>
</g>
<g id="heart">
	<g>
		<g>
			<g>
				<path class="heart2" d="M-139.4,375.5c0,0-0.3,0.6-0.1,1.3s0.6,0.7,0.4,1.2c-0.1,0.5,0,1.2,0.3,1.5c0.3,0.3,0.5,1,0.8,1.5"/>
				<path class="heart2" d="M-142.5,393c0,0,0.2-0.2,1.5,0.7s2.3,1.7,2.8,2.2s1.3,1.4,1.5,1.6c0.2,0.2,0.4,0,0.9,1.2
					c0.5,1.1,1.2,1.4,1.4,2.1c0.1,0.7,0.3,0.3,0.7,1.3c0.5,1.1,0.5,1,1,2.4c0.4,1.3,0.7,2.1,0.7,2.6c0.1,0.5,0.3,1.5,0.4,2.4
					s0.1,1.4,0.1,2.3"/>
				<g>
					<g>
						<path class="heart3" d="M-127.3,440.2c0.4,1.3-0.3-1.4-0.3-1.3c-0.4-1.1-0.5-2.4-0.6-3.5c-0.4-3.3-0.4-6.7-0.4-10.1
							c0.2-6.7,1.6-12.7-0.2-19.2c-1.2-4.7-4-10.6-7.7-13.8c-2.1-1.8-4.6-3.5-7.3-4.1c0.7-0.4,1.5-0.7,2.4-1
							c1.7-0.6,4.5-0.9,5.8-2.2c1.6-1.4,0.1-3.8-0.4-5.2c-0.7-1.8-1-4.8-2-6.4c-0.5-0.7-1.4-0.8-1.9-0.1c-3.6,5.2-9.3,5.8-14.3,8.8
							c-2.2,1.3-3,3.6-3.1,5.9c-0.1,1.2-0.1,3.4,0.6,4.6c-1.4-0.3-2.1-1.1-2.3-2.4c-0.5-1.6-0.4-3.9,0-5.5c0.6-3.2,3.4-4.9,6-6.4
							c2.2-1.1,4.1-2.3,6.4-3c0.9-0.3,2-0.3,2.7-1.1c2.3-3.6,0.8-12.9-4.3-13c0.6-2.2,0.4-4.9,0.5-7.1c0.1-2-2.6-2.3-4-1.7
							c-1.6,0.5-1.9,2.1-2.1,3.7c-0.2,2.4-0.9,5.3-0.5,7.7c0,0.1,0,0.2,0,0.3c0,0.1,0,0.2,0,0.4c-0.3-0.2-0.6-0.7-0.5-0.9
							c-0.1-0.2-0.2-0.5-0.4-0.7c-0.1-1-0.2-1.9-0.4-2.9c-0.4-1.8-0.6-4.2-0.4-6.1c0.1-1.9,0.4-3.6-2-2.8c-6.6,2.2-2.3,10.6-1,15.6
							c-1.5-1.5-4.7-7.5-5.4-8.3c-1.8-2.1-3-2.7-5.4-0.7c-2.2,2-2,3.1,0.2,5.2c1.3,1.3,2.9,2.6,4.2,4c0.8,0.8,1.3,1.4,1.9,2.4
							c0,0,0,0.1,0.1,0.1c-6.7,5.6-10.1,16.4-7,24.8c0.4,1.1,2.1,3.2,0.1,3.8c-1.8,0.6-2.4-0.8-2.6-2.3c-0.4-2.8-0.7-5.6-0.7-8.6
							c0-2.8,0.1-5.8,1.1-8.4c1.1-2.8,2.8-4.9,4.2-7.7c0.1-0.3,0.2-0.8,0-1.1c-1.5-1.3-6.3-4.7-8.4-3.7c-2.8,1.3-3.4,6.5-4.1,9.2
							c-2.2,7.6-2,18.5,3,25c-1.1,2-2.7,3.8-3.9,6c-1.5,3.1-1.8,6.9-1.4,10.2c0.9,7.4,2.8,14.3,8.5,19.2c6.4,5.6,12.9,7.8,21.4,8
							c4.1,0,8.1-0.3,12.2-0.5c4-0.1,8.1,0.1,12.1-0.1C-127.6,442.9-126.8,441.6-127.3,440.2z"/>
						<path class="heart2" d="M-127.3,440.2c0.4,1.3-0.3-1.4-0.3-1.3c-0.4-1.1-0.5-2.4-0.6-3.5c-0.4-3.3-0.4-6.7-0.4-10.1
							c0.2-6.7,1.6-12.7-0.2-19.2c-1.2-4.7-4-10.6-7.7-13.8c-2.1-1.8-4.6-3.5-7.3-4.1c0.7-0.4,1.5-0.7,2.4-1
							c1.7-0.6,4.5-0.9,5.8-2.2c1.6-1.4,0.1-3.8-0.4-5.2c-0.7-1.8-1-4.8-2-6.4c-0.5-0.7-1.4-0.8-1.9-0.1c-3.6,5.2-9.3,5.8-14.3,8.8
							c-2.2,1.3-3,3.6-3.1,5.9c-0.1,1.2-0.1,3.4,0.6,4.6c-1.4-0.3-2.1-1.1-2.3-2.4c-0.5-1.6-0.4-3.9,0-5.5c0.6-3.2,3.4-4.9,6-6.4
							c2.2-1.1,4.1-2.3,6.4-3c0.9-0.3,2-0.3,2.7-1.1c2.3-3.6,0.8-12.9-4.3-13c0.6-2.2,0.4-4.9,0.5-7.1c0.1-2-2.6-2.3-4-1.7
							c-1.6,0.5-1.9,2.1-2.1,3.7c-0.2,2.4-0.9,5.3-0.5,7.7c0,0.1,0,0.2,0,0.3c0,0.1,0,0.2,0,0.4c-0.3-0.2-0.6-0.7-0.5-0.9
							c-0.1-0.2-0.2-0.5-0.4-0.7c-0.1-1-0.2-1.9-0.4-2.9c-0.4-1.8-0.6-4.2-0.4-6.1c0.1-1.9,0.4-3.6-2-2.8c-6.6,2.2-2.3,10.6-1,15.6
							c-1.5-1.5-4.7-7.5-5.4-8.3c-1.8-2.1-3-2.7-5.4-0.7c-2.2,2-2,3.1,0.2,5.2c1.3,1.3,2.9,2.6,4.2,4c0.8,0.8,1.3,1.4,1.9,2.4
							c0,0,0,0.1,0.1,0.1c-6.7,5.6-10.1,16.4-7,24.8c0.4,1.1,2.1,3.2,0.1,3.8c-1.8,0.6-2.4-0.8-2.6-2.3c-0.4-2.8-0.7-5.6-0.7-8.6
							c0-2.8,0.1-5.8,1.1-8.4c1.1-2.8,2.8-4.9,4.2-7.7c0.1-0.3,0.2-0.8,0-1.1c-1.5-1.3-6.3-4.7-8.4-3.7c-2.8,1.3-3.4,6.5-4.1,9.2
							c-2.2,7.6-2,18.5,3,25c-1.1,2-2.7,3.8-3.9,6c-1.5,3.1-1.8,6.9-1.4,10.2c0.9,7.4,2.8,14.3,8.5,19.2c6.4,5.6,12.9,7.8,21.4,8
							c4.1,0,8.1-0.3,12.2-0.5c4-0.1,8.1,0.1,12.1-0.1C-127.6,442.9-126.8,441.6-127.3,440.2z"/>
						<path class="heart2" d="M-141.5,393.5c0,0,9.2,4.9,9.9,17.3"/>
						<path class="heart2" d="M-160.9,391.8c0,0-3.2-9.9,4.5-14.1"/>
						<path class="heart2" d="M-134.2,440.6c0,0-4.2-0.9-9.4-0.3c-5.3,0.7-15.5,1.6-22-2.3"/>
						<path class="heart2" d="M-174.1,368.3c0,0,2.4,0.8,3.5,2.1"/>
						<path class="heart2" d="M-139.4,375.8c0,0,0.2,2.7,1.5,5.1"/>
					</g>
					<path class="heart2" d="M-143.4,388.1c0,0,2.2,0.7,3.3,1.4c1.2,0.7,0.8,1.1,1.7,1.4c0.9,0.4,1.2,0.5,2,1.3
						c0.9,0.8,2.3,2.1,3.2,3.6c0.9,1.4,1.6,3.5,2.5,4.6c0.9,1.1,1.3,3.1,1.6,4.3c0.3,1.2,0.4,1.3,0.7,2.5c0.2,1.2,0.5,3.3,0.5,4.5
						s-0.1,2.7-0.2,3.4c-0.1,0.7,0,2.2,0,2.2s-0.1,0.6-0.1,1.1c0.1,0.4,0,1.2-0.1,2.1c0,0.8-0.6,3.5-0.3,4.7c0.3,1.2,0,3.7,0,5.3
						c0,1.6,0.1,2.7,0.3,3.7c0.1,1,0.1,2,0.3,3.1c0.2,1.1,0.5,1.7,0.6,2.2s0.8,2.5-0.9,3.1c-1.6,0.5-3.1-0.2-4.6,0.2
						s-6.5-0.1-8.7,0.1c-2.3,0.1-5.1,0.2-5.9,0.3c-0.7,0.1-4,0.4-5.4,0.2c-1.4-0.2-7-0.6-8.3-0.9c-1.2-0.3-5.1-2.3-6-2.4
						c-0.9-0.1-3.3-1.4-4.1-1.9c-0.8-0.5-5.8-3.8-7.1-6.7c-1.3-2.9-2.2-3.8-2.6-4.9c-0.3-1-1.2-3.8-1.3-4.5c-0.2-0.8-0.6-5.2-1.1-7
						c-0.5-1.7-0.2-3,0.2-5.1c0.5-2.1,1.3-4.2,1.9-5.4c0.8-1.2,1-1.5,1.4-2.2c0.4-0.7,2.2-1.8,1.7-2.5s-2.3-3.8-2.8-5.3
						c-0.4-1.4-1.2-4.9-1.3-6.3c-0.1-1.5-0.2-3.1-0.2-4.7c0.1-1.6-0.2-4.3,0.7-6.3c0.9-2,1.5-3.1,1.5-4.5c0-1.4,0.3-3.1,0.8-4.2
						c0.6-1.1,1.2-2.7,2.4-3c1.2-0.1,2.2-0.3,2.9,0.2c0.7,0.4,1.6,0.9,2.5,1.4c0.9,0.5,2,0.6,2.1,1.1c0.2,0.5,1.3,1.2,0.9,2.2
						c-0.5,1-1.2,2.2-2,3.5c-0.8,1.3-2.1,2.9-2.1,4.1c-0.1,1.2-0.8,2.7-0.9,3.6c-0.2,0.9,0.1,4.1-0.2,5.3c-0.3,1.2-0.5,2-0.2,3
						c0.3,1,0.6,3.2,0.7,3.8c0.1,0.6-0.1,2.7,0.1,2.9c0.2,0.2,1.4,1,2.2,0.7c0.7-0.3,1.7-1.1,0.9-2.8c-0.8-1.8-1.8-5.3-1.7-6.1
						c0-0.8-0.5-4,0.3-5.9s0.7-3.4,1.4-4.8s0.1-2.5,1.2-3.9c1.1-1.4,1.4-2.4,2.8-3.3s2.3-1.8,2-2.3c-0.3-0.5-2.4-2.8-3.4-3.8
						c-0.9-1-1.8-1.7-2.3-2.1s-2.9-2.3-1.5-3.8c1.3-1.4,1.8-1.4,1.9-2c0.2-0.5,1.5-1,2.2-0.7c0.7,0.3,1,0.2,1.9,1.2
						c0.9,1.1,1.9,2.8,2.4,3.5c0.5,0.8,0.8,2.5,1.4,3c0.7,0.4,1.6,2.3,1.8,2c0.2-0.3-0.6-2.5-1-3.8c-0.3-1.2-1.2-4.4-1.3-5.5
						c0-1.1-0.1-2.4,0.5-3.4c0.6-0.9,1.4-1.7,1.7-1.9c0.3-0.2,0.7-0.7,1.7-0.7s2-0.3,2,1c0,1.3-0.2,2.6-0.1,3.7c0,1.1,0,2.2,0.2,3.3
						c0.2,1.2,0.6,3.4,0.6,3.7c0.1,0.3-0.2,1.6,0.3,1c0.5-0.6,0.4-2.5,0.6-3.8c0.2-1.3,0.8-3.5,0.8-3.8s-0.8-1.6,0.1-2.3
						c0.9-0.6,1.8-1.2,2-1.6c0.4-0.2,1.8-0.1,2.4,0.2c0.6,0.2,1.5,0.7,1.4,1.8s0,2.9,0,4c-0.1,1.2-0.7,2.2-0.4,2.7
						c0.5,0.4,1.2,0.5,1.8,0.9s2.1,0.4,2.3,2.8c0.3,2.4,1.2,2.5,1,4.5c0,2-0.1,3.8-0.8,4.6c-0.6,0.9,0.5,0.7-1.6,1.4
						c-2,0.6-5.4,2.4-6.7,2.6c-1.3,0.2-1.9,1.1-2.9,1.8c-1,0.7-2.1,1.4-2.6,2.3c-0.7,0.9-1.8,1.7-1.8,2.8c0.1,1.1,0,2.7-0.2,3.6
						c-0.3,0.9-0.8,1.5-0.1,2.4s2.7,2.1,2.7,2.1s-0.2-2.7-0.1-4.5c0-1.9,0.2-3.4,1.2-4.4c1-0.9,1.9-1.8,2.8-2.1
						c0.8-0.5,3.5-1.6,5.4-2.4c1.9-0.8,3.4-1,4-2.1c0.7-1.1,2.3-1.8,2.8-2.4s1.4-2.3,2.4-1.7c1.1,0.7,0.9,0.7,1.4,2.5
						c0.5,1.7,0.6,2.4,1,3.7c0.4,1.2,1,2.2,1.1,3.3c0.1,1.1,0.4,3-0.6,3.2c-1,0.1-2.8,1.2-3.7,1.5
						C-140.1,387.1-142.5,387.2-143.4,388.1z"/>
					<path class="heart2" d="M-156.1,377.6c0,0-0.9,0.5-1.6,1.1s-1.5,1.2-2.1,2.2c-0.6,1-1.3,2.1-1.6,2.9c-0.1,0.8-0.5,1.6-0.6,2
						s-0.3,0.1-0.3,1.1c0,1,0.5,1.7,0.6,2.1c0.1,0.5,0.6,0.5,0.4,1.1c-0.1,0.6,0.4,0.5,0.2,1.1"/>
					<path class="heart2" d="M-133,441.2c-0.1-0.1-0.5-0.4-2.2-0.6s-2.6-0.1-3.4-0.2c-0.8-0.1-3.4,0.3-4.7,0.2c-1.3,0-2-0.3-2.7-0.2
						s-2.2,0-3,0.2c-0.8,0.3-2.7,0.4-3.4,0.4c-0.6,0-1.9,0-2.7-0.1c-0.8,0-2.8-0.3-3.8-0.4c-1-0.2-1.3-0.3-1.9-0.4
						c-0.6-0.1-1.7-0.3-2.6-0.8c-0.9-0.5-1.8-0.5-2.3-0.9c-0.6-0.4-1.3-1.1-1.3-1.2"/>
					<path class="heart2" d="M-149.7,353.8c0,0,0.2,1.7,0.2,2.3c0,0.6-0.1,0.8-0.4,1.8"/>
				</g>
			</g>
			<path class="heart2" d="M-173.2,394.4c0,0-0.6-0.1-1.6-0.1"/>
			<path class="heart2" d="M-173.4,393.3c0,0-0.6-0.1-1.6-0.1"/>
			<path class="heart2" d="M-173.8,392.1c0,0-0.6-0.1-1.6-0.1"/>
			<path class="heart2" d="M-173.8,391.1c0,0-0.6-0.1-1.6-0.1"/>
			<path class="heart2" d="M-173.7,389.8c0,0-0.6-0.1-1.6-0.1"/>
			<path class="heart2" d="M-173.9,388.7c0,0-0.6-0.1-1.6-0.1"/>
			<path class="heart2" d="M-173.9,387.6c0,0-0.6-0.1-1.6-0.1"/>
			<path class="heart2" d="M-173.8,386.3c0,0-0.6-0.1-1.6-0.1"/>
			<path class="heart2" d="M-173.7,385c0,0-0.6-0.1-1.6-0.1"/>
			<path class="heart2" d="M-173.7,383.9c0,0-0.6-0.1-1.6-0.1"/>
			<path class="heart2" d="M-173.6,382.7c0,0-0.6-0.1-1.6-0.1"/>
			<path class="heart2" d="M-173.3,381.6c0,0-0.6-0.1-1.6-0.1"/>
		</g>
		<pattern  id="SVGID_4_" xlink:href="#SVGID_1_" patternTransform="matrix(1 0 0 1 -5123.9004 14453.7188)">
		</pattern>
		<path class="heart4" d="M-127.8,438.4c0,0,0.8,3.2-2,2.9c-2.8-0.3-2.9-0.6-5.5-0.8c-2.6-0.3-15.9,0.7-17.7,0.6
			c-1.8-0.1-16.2-1.5-20.2-7c-4-5.5-9.2-12.2-9.2-12.2s2.2,10.4,8.4,14.4c6.2,4,11.8,6.7,17.4,6.9c5.6,0.1,16.5-0.4,19.2-0.3
			c2.9,0.2,10.1,0.3,10.1-1.2C-127.3,440.2-127.8,438.4-127.8,438.4z"/>
		<pattern  id="SVGID_5_" xlink:href="#SVGID_2_" patternTransform="matrix(1 0 0 1 -5123.9004 14453.7188)">
		</pattern>
		<path class="heart5" d="M-128,416.8c0,0-3.1-3.9-3.6-6.9c-0.5-3-1.4-8.2-4.2-11.3c-2.8-3.1-4.8-5.1-4.8-5.1s-4.7-2-4.6-4.2
			c0.1-2.2,0.9-3.1,2.5-3.7c1.6-0.6,4.6-0.8,4.6-1.3c0-0.5,0.5-2.4-0.1-4.3c-0.7-1.8-1.3-3-1.2-3.4s-0.6-3-0.3-3.6
			c0.3-0.6,0.7-0.5,1.4,0.1c0.7,0.5,1.2,1.3,1.6,3c0.4,1.8,1.7,4.8,1.8,6c0.1,1.2-0.3,3.2-1.4,3.4c-1.1,0.2-4.4,1.2-5,1.4
			c-0.6,0.3-3,0.2-1.4,1c1.7,0.8,6.4,3,8,5.8c1.5,2.8,4,5.5,4.5,7.5c0.5,1.9,2.2,8.2,2.3,9.1c0.1,0.8,0.2,6.3,0.2,6.3"/>
		<pattern  id="SVGID_6_" xlink:href="#SVGID_3_" patternTransform="matrix(1 0 0 1 -5123.9004 14453.7188)">
		</pattern>
		<path class="heart6" d="M-153.2,378.4c0,0,1.8-3.1,3-3.6c1.2-0.5,2.4-0.7,2.9-1.5c0.4-1,1.5-2.5,1.1-3.7c-0.3-1.2-0.8-2.1-1.1-3.2
			s-0.2-1.9-0.9-3s-2.1-0.9-2.1-2.3c0.1-1.4,0.4-3.4,0.6-4.3c0.3-0.9-0.1-2-0.1-2.5c0-0.4-2.5-0.6-3-0.2c-0.5,0.5-0.8,0.2-0.6-0.3
			c0.2-0.4,0.2-1.4,1.1-1.5c0.9-0.1,1.3-0.5,2.7-0.2s1.8,0.2,1.9,1.5s0.1,4.4,0,5.2c-0.2,0.8-0.9,2,0,2.3c0.9,0.3,2.9,1.3,3.3,1.7
			c0.3,0.5,0.6,2.1,0.7,2.7c0.2,0.6,0.8,2.2,0.8,2.9s0.1,2.6,0,3.2c-0.1,0.5-0.1,2.4-1.3,2.9c-1.1,0.5-6.9,2.6-7,2.7
			C-151.1,377.3-153.2,378.4-153.2,378.4z"/>
	</g>
</g>
</svg>
