<?xml version="1.0" encoding="utf-8"?>
<!-- Generator: Adobe Illustrator 18.0.0, SVG Export Plug-In . SVG Version: 6.00 Build 0)  -->
<!DOCTYPE svg PUBLIC "-//W3C//DTD SVG 1.1//EN" "http://www.w3.org/Graphics/SVG/1.1/DTD/svg11.dtd">
<svg version="1.1" xmlns="http://www.w3.org/2000/svg" xmlns:xlink="http://www.w3.org/1999/xlink" x="0px" y="0px"
	 viewBox="0 0 380 287.3" enable-background="new 0 0 380 287.3" xml:space="preserve">
<g id="fon" display="none">
</g>
<g id="orange">
</g>
<g id="outline">
	<path fill="none" stroke="#F7A934" stroke-width="2" stroke-miterlimit="10" d="M134.5,14.6c0,0,61,8.1,76.7,2.4s65.1-6.3,113.3,1
		c0,0,18.7,2.3,26.7,0.1s21-1.2,18.3,12.1c-2.7,13.3-2.6,44.3,0.4,62.3c3,18,2.6,40.3-2,55c-4.7,14.7-7.7,82.8-3.7,96.8
		c4,14,4.2,30.5-7,32c-64,8.3-65.7-11.3-168.7,0c-22,2.4-69.7,0.7-86.7-4.3s-37.3,0-50,2.3c-12.7,2.3-40.3,0.7-41.7-15.7
		s7.3-86.8,3.7-100.8s-8.9-51-3.8-65s4.8-35.7,3.1-45s-3.7-33,14.3-33s34.7,7.7,52.3,3S123.8,12.6,134.5,14.6z"/>
</g>
</svg>
