<?xml version="1.0" encoding="utf-8"?>
<!-- Generator: Adobe Illustrator 18.0.0, SVG Export Plug-In . SVG Version: 6.00 Build 0)  -->
<!DOCTYPE svg PUBLIC "-//W3C//DTD SVG 1.1//EN" "http://www.w3.org/Graphics/SVG/1.1/DTD/svg11.dtd">
<svg version="1.1" xmlns="http://www.w3.org/2000/svg" xmlns:xlink="http://www.w3.org/1999/xlink" x="0px" y="0px"
	 viewBox="0 0 123.9 151.1" enable-background="new 0 0 123.9 151.1" xml:space="preserve">
<g id="fon" display="none">
</g>
<g id="orange">
</g>
<g id="outline">
	<text transform="matrix(1 0 0 1 53.2021 87.4048)" fill="#F7A934" font-family="'NexaScript-Free'" font-size="72">!</text>
	<path fill="#F7A934" d="M123.7,62.7l-13.1-15l1.8-19.8L93,23.4L82.8,6.3l-18.3,7.8L46.1,6.3L35.9,23.4l-19.4,4.4l1.8,19.8l-13.1,15
		l13.1,15l-1.8,19.8l16.8,3.9v44.4l31-14.3l31,14.3v-44.3l17.1-3.9l-1.8-19.8L123.7,62.7z M60.8,103.1
		c-19.2-1.7-34.7-17.2-36.4-36.4c-2.2-25.1,18.7-46,43.8-43.8c19.2,1.7,34.7,17.2,36.4,36.4C106.8,84.4,85.9,105.3,60.8,103.1z"/>
	<path fill="none" stroke="#3C3C3B" stroke-width="3" stroke-linecap="round" stroke-linejoin="round" stroke-miterlimit="10" d="
		M107.6,45l1.8-19.8L90,20.7L79.8,3.6l-18.3,7.8L43.1,3.6L32.9,20.7l-19.4,4.4L15.3,45L2.2,60l13.1,15l-1.8,19.8l16.8,3.9v44.4
		l31-14.3l31,14.3V98.7l17.1-3.9L107.6,75l13.1-15L107.6,45z"/>
	<path fill="none" stroke="#3C3C3B" stroke-width="3" stroke-linecap="round" stroke-linejoin="round" stroke-miterlimit="10" d="
		M65.1,19.4c-25.1-2.2-46,18.7-43.8,43.8c1.7,19.2,17.2,34.7,36.4,36.4c25.1,2.2,46-18.7,43.8-43.8C99.8,36.6,84.4,21.1,65.1,19.4z"
		/>
	
		<text transform="matrix(1 0 0 1 50.2021 84.4048)" fill="none" stroke="#3C3C3B" stroke-width="3" stroke-linecap="round" stroke-linejoin="round" stroke-miterlimit="10" font-family="'NexaScript-Free'" font-size="72">!</text>
</g>
</svg>
