<?xml version="1.0" encoding="utf-8"?>
<!-- Generator: Adobe Illustrator 18.0.0, SVG Export Plug-In . SVG Version: 6.00 Build 0)  -->
<!DOCTYPE svg PUBLIC "-//W3C//DTD SVG 1.1//EN" "http://www.w3.org/Graphics/SVG/1.1/DTD/svg11.dtd">
<svg version="1.1" xmlns="http://www.w3.org/2000/svg" xmlns:xlink="http://www.w3.org/1999/xlink" x="0px" y="0px"
	 viewBox="0 0 265 98.7" enable-background="new 0 0 265 98.7" xml:space="preserve">
<g id="fon" display="none">
</g>
<g id="orange">
</g>
<g id="outline">
	<g>
		<g>
			<g>
				<g>
					<path fill="#575756" d="M65.1,94.1h-4.9V83.8h4.8c1.8,0,3.1,1.1,3.1,2.7c0,1.1-0.6,1.9-1.6,2.3c1.1,0.4,1.8,1.2,1.8,2.5
						C68.2,93,67,94.1,65.1,94.1z M64.7,85.1h-3v3.1h3c1.2,0,1.8-0.6,1.8-1.6C66.5,85.6,65.8,85.1,64.7,85.1z M64.8,89.4h-3.2v3.4
						h3.2c1.2,0,1.9-0.7,1.9-1.7C66.7,90.1,66,89.4,64.8,89.4z"/>
					<path fill="#575756" d="M71.5,94.1V83.8h1.5v5l4.6-5h1.9l-4.7,4.9l5.1,5.5h-2l-4.9-5.3v5.3H71.5z"/>
					<path fill="#575756" d="M84.5,96.6c-0.5,1.3-1.3,1.9-2.8,1.9h-0.7v-1.3h0.5c1,0,1.3-0.3,1.7-1.3l0.7-2l-3.7-10.1h1.6l2.8,8.3
						l2.8-8.3h1.6L84.5,96.6z"/>
					<path fill="#575756" d="M97.2,93.9c-0.5,0.2-1.1,0.3-1.7,0.3c-2.9,0-4.7-2-4.7-5.3c0-3.3,1.7-5.3,4.7-5.3
						c0.7,0,1.2,0.1,1.7,0.3c0.6,0.3,0.9,0.5,1.6,1.2l-1,1c-0.5-0.5-0.8-0.8-1.2-0.9c-0.3-0.1-0.7-0.2-1.2-0.2c-2,0-3.1,1.3-3.1,4
						c0,2.6,1.1,4,3.1,4c0.4,0,0.8-0.1,1.1-0.2c0.4-0.2,0.7-0.4,1.2-1l1,1C98.1,93.4,97.8,93.7,97.2,93.9z"/>
					<path fill="#575756" d="M108.2,94.1v-4.7h-5v4.7h-1.5V83.8h1.5v4.4h5v-4.4h1.5v10.4H108.2z"/>
					<path fill="#575756" d="M120.1,93.1c-0.8,0.8-1.8,1.2-3,1.2c-1.2,0-2.2-0.4-3-1.2c-0.9-0.9-1.3-2.1-1.3-4.1s0.4-3.2,1.3-4.1
						c0.8-0.8,1.8-1.2,3-1.2c1.2,0,2.2,0.4,3,1.2c0.9,0.9,1.3,2.1,1.3,4.1C121.4,90.9,121.1,92.1,120.1,93.1z M119.1,85.7
						c-0.5-0.5-1.2-0.8-1.9-0.8c-0.7,0-1.4,0.3-1.9,0.8c-0.6,0.6-0.8,1.5-0.8,3.2c0,1.7,0.2,2.6,0.8,3.2c0.5,0.5,1.1,0.8,1.9,0.8
						c0.7,0,1.4-0.3,1.9-0.8c0.6-0.6,0.8-1.5,0.8-3.1C119.9,87.2,119.7,86.3,119.1,85.7z"/>
					<path fill="#575756" d="M125.6,89.3c0,0.9,0.1,1.4,0.3,1.9c0.5,1.2,1.4,1.7,2.8,1.7c0.5,0,0.9-0.1,1.3-0.3
						c0.5-0.2,0.7-0.4,1.3-0.9l1,0.9c-0.8,0.7-1.1,1-1.7,1.2c-0.6,0.2-1.2,0.4-2,0.4c-3,0-4.6-1.9-4.6-5.4c0-3.3,1.6-5.2,4.3-5.2
						c2.6,0,4.3,1.9,4.3,5v0.7H125.6z M130.9,86.8c-0.4-1.2-1.3-1.9-2.5-1.9c-1.1,0-2,0.6-2.4,1.6c-0.2,0.5-0.3,0.8-0.3,1.7h5.5
						C131,87.4,131,87.2,130.9,86.8z"/>
					<path fill="#575756" d="M145.4,94.2c-0.6,0-1.2-0.1-1.7-0.3c-0.4-0.2-0.7-0.4-1.2-1v5.9H141v-15h1.5V85c0.5-0.6,0.7-0.8,1.2-1
						c0.5-0.2,1-0.3,1.7-0.3c2.7,0,3.9,1.7,3.9,5.3C149.3,92.6,148.1,94.2,145.4,94.2z M145.2,85c-1.8,0-2.6,1.2-2.6,4
						c0,2.8,0.8,4,2.6,4c1.8,0,2.6-1.2,2.6-3.9C147.8,86.1,147,85,145.2,85z"/>
					<path fill="#575756" d="M151.8,94.1l2.4-4.3c-1.5-0.3-2.4-1.4-2.4-3c0-1.9,1.3-3.1,3.3-3.1h4.7v10.4h-1.5V90h-2.5l-2.3,4.1
						H151.8z M158.3,85h-2.9c-1.3,0-2.1,0.7-2.1,1.9c0,1.2,0.7,1.9,2.1,1.9h2.9V85z"/>
					<path fill="#575756" d="M171.2,97.2v-3.1h-7.7v3.1h-1.5v-4.4h1.2c0.8-1.7,1.4-3.3,1.4-7.1v-2h6.5v9.1h1.5v4.4H171.2z
						 M169.7,85.1h-3.5v2c0,2.7-0.5,4.3-1.2,5.8h4.7V85.1z"/>
					<path fill="#575756" d="M182,93.1c-0.8,0.8-1.8,1.2-3,1.2s-2.2-0.4-3-1.2c-0.9-0.9-1.3-2.1-1.3-4.1s0.4-3.2,1.3-4.1
						c0.8-0.8,1.8-1.2,3-1.2c1.2,0,2.2,0.4,3,1.2c0.9,0.9,1.3,2.1,1.3,4.1C183.2,90.9,182.9,92.1,182,93.1z M180.9,85.7
						c-0.5-0.5-1.2-0.8-1.9-0.8c-0.7,0-1.4,0.3-1.9,0.8c-0.6,0.6-0.8,1.5-0.8,3.2c0,1.7,0.2,2.6,0.8,3.2c0.5,0.5,1.1,0.8,1.9,0.8
						s1.4-0.3,1.9-0.8c0.6-0.6,0.8-1.5,0.8-3.1C181.7,87.2,181.5,86.3,180.9,85.7z"/>
					<path fill="#575756" d="M195,94.1v-7.4l-2.9,5.7h-1.2l-2.9-5.7v7.4h-1.5V83.8h1.5l3.5,7l3.5-7h1.5v10.4H195z"/>
				</g>
			</g>
			<g>
				<g>
					<path fill="#575756" d="M49.7,91.7c-1.8,0-3.3-1.5-3.3-3.3c0-1.8,1.5-3.3,3.3-3.3c1.8,0,3.3,1.5,3.3,3.3
						C53,90.3,51.5,91.7,49.7,91.7z M49.7,87c-0.8,0-1.5,0.7-1.5,1.5c0,0.8,0.7,1.5,1.5,1.5c0.8,0,1.5-0.7,1.5-1.5
						C51.2,87.6,50.5,87,49.7,87z"/>
				</g>
				<g>
					<path fill="#575756" d="M206.9,91.7c-1.8,0-3.3-1.5-3.3-3.3c0-1.8,1.5-3.3,3.3-3.3c1.8,0,3.3,1.5,3.3,3.3
						C210.2,90.3,208.8,91.7,206.9,91.7z M206.9,87c-0.8,0-1.5,0.7-1.5,1.5c0,0.8,0.7,1.5,1.5,1.5c0.8,0,1.5-0.7,1.5-1.5
						C208.4,87.6,207.7,87,206.9,87z"/>
				</g>
			</g>
		</g>
		<g>
			<g>
				<path fill="#F6AB22" d="M34.8,31.9h-9.7l2.8-13.1c3.8,0.8,6.9,1.3,9.3,1.3c3-0.6,4.9-2.6,5.7-5.7l0.6-2.2
					c-1.7,0.5-3.6,0.8-5.8,0.8s-4.3-0.1-6.1-0.4c-1.9-0.3-3.5-0.4-5-0.4c-7.6,0-13.4,1.8-17.4,5.3c-1.8,1.6-3.1,3.4-3.9,5.5
					c-0.8,2.1-1.2,4-1.2,5.7c0,1.7,0.2,3,0.5,3.8c0.9,2.3,3.1,3.4,6.7,3.4c0-0.1,0-0.3-0.1-0.5c-0.5-0.9-0.8-2.3-0.8-4
					c0-5,0.7-8.5,2.2-10.5c1.5-2,3.6-3.1,6.4-3.2L9.2,61.7h9.5l5.4-24.9h9.7L34.8,31.9z"/>
				<path fill="#F6AB22" d="M92.9,33c0-0.9-0.4-1.9-1.2-2.9c-0.8-1-1.9-1.5-3.5-1.5c-1.5,0-3,0.4-4.3,1.3c-1.3,0.9-2.5,1.8-3.6,2.8
					l0.8-4.1h-9.5l-4.5,21.3c-1.1,3.9-2.9,5.8-5.3,5.8c-1.8,0-2.7-0.8-2.7-2.3c0-0.8,0.1-1.6,0.3-2.3l4.7-22.5h-9.5l-4.5,21.2
					c-1.2,3.9-3,5.8-5.3,5.8c-1.3,0-2-0.9-2-2.7c0-0.6,0.1-1.2,0.2-1.9l4.7-22.5h-9.5l-4.5,21.2c-0.3,1.6-0.5,3.1-0.5,4.3
					c0,2.8,0.7,4.8,2,6c1.4,1.3,3.1,1.9,5,1.9c3.9,0,7.2-2.1,9.8-6.3c0.4,4.2,2.6,6.3,6.6,6.3c3.4,0,6.3-1.3,8.7-4l-0.8,3.6h9.5
					l5.3-25.1c0.9-0.8,1.7-1.5,2.4-1.9c0.7-0.4,1.5-0.6,2.4-0.6c0.5,0,0.7,0.2,0.9,0.5c0.1,0.3,0.3,0.8,0.3,1.4
					c0.1,0.6,0.3,1.1,0.7,1.7c0.4,0.5,1.2,0.8,2.4,0.8c1.2,0,2.2-0.5,3.1-1.5C92.4,35.9,92.9,34.6,92.9,33z"/>
				<path fill="#F6AB22" d="M257.7,53.4c0-0.8,0.1-1.6,0.3-2.3l4.7-22.5h-9.5l-0.7,3.5v-0.5c0-1-0.4-1.8-1.3-2.4
					c-0.8-0.6-2.2-1-4.1-1c-3.6,0-6.7,1.2-9.3,3.7s-4.5,5.6-5.9,9.4c-0.6,1.7-1.1,3.5-1.4,5.2c-0.3,1.7-0.5,3.5-0.5,5.2
					c0,0.1,0,0.1,0,0.2c-0.4,0.8-0.9,1.4-1.5,2.1c-1.1,1.1-2.3,1.7-3.6,1.7c-1.8,0-2.7-0.7-2.7-2.2c0-0.8,0.1-1.6,0.3-2.4l4.2-19.8
					h4l0.5-2.6h-4l2.3-10.5l-9.8,1.3l-2,9.1h-2.2l-0.5,2.6h2.2l-4,18.6c-1.9,2.2-3.8,3.9-5.5,5c-1.7,1.1-3.9,1.7-6.4,1.7
					c-1.4,0-2.6-0.4-3.4-1.1c-0.8-0.7-1.2-2.2-1.2-4.5c0-0.5,0.1-1.4,0.2-2.6c4.1-0.3,7.6-1.7,10.7-4.3c3-2.6,4.6-5.8,4.6-9.6
					c0-1.9-0.5-3.5-1.6-4.6c-1.1-1.2-3.2-1.7-6.2-1.7c-1.9,0-3.7,0.4-5.4,1.2c-3.4,1.5-6.1,4.1-8,7.7c-2.6,4.7-3.8,9.6-3.8,14.6
					c0,0.1,0,0.2,0,0.2c-0.5,1-1,1.8-1.5,2.4c-0.8,0.9-1.9,1.4-3.4,1.4c-1.6,0-2.4-0.9-2.4-2.8c0-0.9,0.2-2,0.5-3.4l1.6-6.4
					c0.7-2.9,1.1-5.5,1.1-7.8c0-2.3-0.7-4-2.1-5.2c-1.4-1.2-3.2-1.7-5.3-1.7c-3,0-5.6,1.2-7.7,3.7l0.7-3.4H159l-1.9,8.8
					c-0.1,0-0.2,0.1-0.3,0.1c-1.9,0.8-3.4,1.1-4.6,1.1c-0.5,0-0.9,0-1.1-0.1v-0.1c0-7-2.8-10.6-8.5-10.6c-4.2,0-7.8,1.5-10.7,4.4
					c-2.5,2.5-4.4,5.7-5.7,9.6c-0.6,1.7-1,3.4-1.3,5.1c-0.3,1.6-0.4,3.3-0.4,4.9c0,0.1,0,0.2,0,0.3c-0.7,1.7-1.5,3-2.5,4
					c-1.3,1.4-3,2.4-5,3.1l6.6-30.7h-9.5l-0.7,3.4v-0.4c0-1-0.4-1.8-1.3-2.4c-0.8-0.6-2.2-1-4.1-1c-3.6,0-6.7,1.2-9.3,3.7
					s-4.5,5.6-5.9,9.4c-0.6,1.7-1.1,3.5-1.4,5.2c-0.3,1.7-0.5,3.5-0.5,5.2c0,1.7,0.2,3.3,0.7,4.6c1.4,3.8,4.1,5.7,8.1,5.7
					c3,0,5.6-1.2,7.9-3.6l-0.8,3.5c-7.2,2.4-10.8,5.6-10.8,9.6c0,2.3,0.7,4,2.2,5.1c1.4,1.1,3.4,1.6,5.8,1.6c2.4,0,4.5-0.7,6.4-2.1
					c2.5-1.9,4.2-4.9,5-9.2l1-4.8c1-0.3,2.1-0.6,3.2-1.1c2.2-1,4.1-2.6,5.6-4.8c0,0,0,0,0,0.1c1.5,3.7,4.7,5.6,9.8,5.6
					c4.1,0,7.6-1.8,10.6-5.4c3-3.6,4.7-8.4,5.2-14.5c2-0.3,3.9-0.8,5.5-1.5L152,61.7h9.5l4.5-21.2c0.2-0.8,0.5-1.6,0.9-2.3
					c1.2-2.5,2.7-3.8,4.3-3.8c1.6,0,2.4,1.1,2.4,3.4c0,1.5-0.5,4.2-1.5,8.2c-1,4-1.5,6.8-1.5,8.7c0,3.4,1.4,5.7,4.1,6.8
					c1,0.4,2,0.6,3,0.6c1,0,1.9,0,2.6-0.1c2.9-0.4,5.3-2.3,7.4-5.6c0.5,1.4,1.2,2.5,2.1,3.3c1.9,1.6,4.4,2.4,7.5,2.4
					c5.9,0,11-2.8,15.4-8.3c0,0.1,0,0.2,0,0.3c0,2.8,0.7,4.8,2,6c1.4,1.3,2.9,1.9,4.7,1.9c4.7,0,8.4-2,11.2-6.1
					c0,0.1,0.1,0.3,0.1,0.4c1.4,3.8,4,5.7,7.9,5.7c3.9,0,7.2-2,10-6.1c0.3,2,0.9,3.5,2.1,4.5c1.1,1.1,2.6,1.6,4.3,1.6
					c1.8,0,3.2-0.6,4.3-1.9c0.6-0.7,1.4-2.3,2.4-4.8c-0.4,0.2-0.9,0.3-1.5,0.3C258.6,55.7,257.7,54.9,257.7,53.4z M200.8,35.8
					c1.5-2.8,3.1-4.2,4.7-4.3c1.1,0,1.6,0.8,1.6,2.4c0,2.9-1,5.5-2.9,7.7c-1.9,2.2-4.2,3.4-6.7,3.6
					C198.2,41.7,199.3,38.6,200.8,35.8z M106,67.1c-0.4,2-1,3.5-1.7,4.4c-0.7,1-1.3,1.4-1.9,1.4s-0.9-0.1-1.2-0.2
					c-0.8-0.4-1.3-1.1-1.3-2c0-2.2,2.2-4.1,6.5-5.6L106,67.1z M109.5,50.5c-0.4,1.6-1.2,2.8-2.2,3.8c-1.1,0.9-2.2,1.4-3.4,1.4
					c-0.7,0-1.3-0.2-1.7-0.7c-0.8-0.8-1.2-2.1-1.2-4.1c0-1,0.1-2,0.2-2.9c0.7-5.9,2.5-10.5,5.3-13.6c1.2-1.3,2.4-2,3.8-2
					c0.5,0,1,0.1,1.3,0.3c0.9,0.5,1.4,1.2,1.4,2.2L109.5,50.5z M143.7,39.3c0,1.7,0.6,2.6,1.8,2.9c-0.5,3.9-1.5,7.1-3,9.8
					c-1.5,2.6-3,4-4.5,4c-0.7,0-1.3-0.1-1.7-0.2c-0.4-0.2-0.8-0.5-1.2-1.1c-0.4-0.6-0.6-1.9-0.6-4.1c0-3.5,0.9-7.4,2.8-11.9
					c1.9-4.5,3.8-6.7,5.8-6.7c1,0,1.7,0.3,2.1,0.9c0.4,0.6,0.6,1.6,0.7,3C144.4,36.5,143.7,37.6,143.7,39.3z M248.7,49.8
					c-0.4,1.8-1.2,3.2-2.2,4.3c-1.1,1-2.3,1.6-3.6,1.6c-0.7,0-1.3-0.2-1.8-0.7c-0.8-0.8-1.2-2.1-1.2-4.1c0-1,0.1-2,0.2-2.9
					c0.7-5.9,2.5-10.5,5.3-13.6c1.2-1.3,2.4-2,3.6-2c1.2,0,2,0.3,2.4,1c0.4,0.6,0.6,1.2,0.6,1.6L248.7,49.8z"/>
			</g>
		</g>
	</g>
</g>
</svg>
