<?xml version="1.0" encoding="utf-8"?>
<!-- Generator: Adobe Illustrator 18.0.0, SVG Export Plug-In . SVG Version: 6.00 Build 0)  -->
<!DOCTYPE svg PUBLIC "-//W3C//DTD SVG 1.1//EN" "http://www.w3.org/Graphics/SVG/1.1/DTD/svg11.dtd">
<svg version="1.1" xmlns="http://www.w3.org/2000/svg" xmlns:xlink="http://www.w3.org/1999/xlink" x="0px" y="0px"
	 viewBox="0 0 385 387" enable-background="new 0 0 385 387" xml:space="preserve">
<pattern  x="-5769" y="-2434" width="21.7" height="27.1" patternUnits="userSpaceOnUse" id="New_Pattern_Swatch_2" viewBox="0.2 -27.3 21.7 27.1" overflow="visible">
	<g>
		<polygon fill="none" points="0.2,-0.2 21.9,-0.2 21.9,-27.3 0.2,-27.3 		"/>
		<path d="M0.7-26.4c0.3-0.1,0.7-0.1,1-0.2c0.5-0.1,0.3-0.8-0.2-0.7c-0.3,0.1-0.7,0.1-1,0.2C0-27,0.2-26.3,0.7-26.4z"/>
		<path d="M2.6-23.9c0.3,0,0.7,0,1,0c0.5,0,0.5-0.8,0-0.8c-0.3,0-0.7,0-1,0C2.1-24.7,2.1-23.9,2.6-23.9z"/>
		<path d="M5.6-26.5c0.5,0.3,1,0.7,1.5,1c0.4,0.3,0.8-0.4,0.4-0.6c-0.5-0.3-1-0.7-1.5-1C5.6-27.4,5.2-26.8,5.6-26.5z"/>
		<path d="M11-24c0.4,0.1,0.6,0.4,0.7,0.8c0.1,0.5,0.8,0.3,0.7-0.2c-0.2-0.6-0.6-1.1-1.3-1.3C10.7-24.8,10.5-24.1,11-24z"/>
		<path d="M7.2-22.6c0,0.4,0.3,0.8,0.7,0.9c0.5,0.1,0.7-0.6,0.2-0.7C8.1-22.5,8-22.5,8-22.6C7.9-23,7.2-23,7.2-22.6z"/>
		<path d="M2.6-20.4c0.3,0,0.5,0,0.8,0c0.5,0,0.5-0.8,0-0.8c-0.3,0-0.5,0-0.8,0C2.1-21.2,2.1-20.4,2.6-20.4z"/>
		<path d="M6.4-15.5c-1.2-0.3-2.4-0.6-3.5-0.9c-0.5-0.1-0.7,0.6-0.2,0.7c1.2,0.3,2.4,0.6,3.5,0.9C6.7-14.7,6.9-15.4,6.4-15.5z"/>
		<path d="M11.9-18.6c0-0.3,0-0.5,0-0.8c0-0.5-0.8-0.5-0.8,0c0,0.3,0,0.5,0,0.8C11.2-18.1,11.9-18.1,11.9-18.6z"/>
		<path d="M5.2-19c0.6,0.2,1.1,0.4,1.7,0.6c0.5,0.2,0.7-0.6,0.2-0.7c-0.6-0.2-1.1-0.4-1.7-0.6C5-19.9,4.8-19.2,5.2-19z"/>
		<path d="M8.8-10.9c0.3,0.4,0.9,0,0.6-0.4c-0.2-0.3-0.3-0.5-0.5-0.8c-0.3-0.4-0.9,0-0.6,0.4C8.4-11.4,8.6-11.1,8.8-10.9z"/>
		<path d="M2.5-12.8c0.4,0.3,0.9-0.2,0.5-0.5c-0.4-0.3-0.8-0.7-1.3-1c-0.4-0.3-0.9,0.2-0.5,0.5C1.7-13.4,2.1-13.1,2.5-12.8z"/>
		<path d="M3.2-8.6c0,0.8,0,1.5,0,2.3c0,0.5,0.8,0.5,0.8,0c0-0.8,0-1.5,0-2.3C3.9-9,3.2-9,3.2-8.6z"/>
		<path d="M6.1-10.5c-0.2-0.4-0.5-0.8-0.7-1.3c-0.2-0.4-0.9,0-0.6,0.4c0.2,0.4,0.5,0.8,0.7,1.3C5.7-9.7,6.4-10.1,6.1-10.5z"/>
		<path d="M6.4-7.2c0.3,0.8,0.6,1.6,0.8,2.5c0.2,0.5,0.9,0.3,0.7-0.2C7.7-5.7,7.4-6.6,7.1-7.4C7-7.8,6.2-7.7,6.4-7.2z"/>
		<path d="M11-7.1c0.1,0.5,0.8,0.5,0.8,0c-0.1-0.6-0.3-1.1-0.6-1.5c-0.3-0.4-0.8,0.2-0.5,0.5C10.8-7.8,10.9-7.4,11-7.1z"/>
		<path d="M13.7-10.7c-0.1-0.4-0.2-0.8-0.3-1.2c-0.1-0.5-0.8-0.3-0.7,0.2c0.1,0.4,0.2,0.8,0.3,1.2C13.1-10,13.8-10.2,13.7-10.7z"/>
		<path d="M17.7-15.5c0.5,0.1,0.9,0.4,1.3,0.9c0.3,0.4,0.9,0,0.6-0.4c-0.4-0.6-1-1-1.7-1.2C17.4-16.3,17.3-15.6,17.7-15.5z"/>
		<path d="M20.7-10.3c0,0.5,0,1,0,1.5c0,0.5,0.8,0.5,0.8,0c0-0.5,0-1,0-1.5C21.4-10.8,20.7-10.8,20.7-10.3z"/>
		<path d="M18.7-4.2c0.1,0.5,0.8,0.3,0.7-0.2c-0.1-0.4,0-0.8,0.2-1.2C19.8-6.1,19.2-6.4,19-6C18.7-5.4,18.6-4.9,18.7-4.2z"/>
		<path d="M15.9-10.1c0,0.2,0,0.3,0,0.5c0,0.5,0.8,0.5,0.8,0c0-0.2,0-0.3,0-0.5C16.7-10.5,15.9-10.5,15.9-10.1z"/>
		<path d="M11.3-15.6c0.5,0.8,1.4,1.3,2.3,1.2c0.5,0,0.5-0.8,0-0.8c-0.7,0-1.3-0.2-1.7-0.8C11.7-16.4,11-16.1,11.3-15.6z"/>
		<path d="M9.4-13.8c0-0.3,0-0.5,0-0.8c0-0.5-0.8-0.5-0.8,0c0,0.3,0,0.5,0,0.8C8.7-13.3,9.4-13.3,9.4-13.8z"/>
		<path d="M9.3-17.2c0.5,0,0.5-0.8,0-0.8S8.8-17.2,9.3-17.2z"/>
		<path d="M17.2-13.3c-0.3-0.1-0.5-0.2-0.8-0.2c-0.5-0.1-0.7,0.6-0.2,0.7c0.3,0.1,0.5,0.2,0.8,0.2C17.4-12.4,17.6-13.1,17.2-13.3z"
			/>
		<path d="M14-17.7c0.2,0.1,0.5,0.2,0.7,0.3c0.5,0.2,0.6-0.5,0.2-0.7c-0.2-0.1-0.5-0.2-0.7-0.3C13.7-18.6,13.5-17.9,14-17.7z"/>
		<path d="M16-21.3c0.3,0.1,0.7,0.2,1,0.3c0.5,0.1,0.7-0.6,0.2-0.7c-0.3-0.1-0.7-0.2-1-0.3C15.7-22.1,15.5-21.4,16-21.3z"/>
		<path d="M20.2-16.5c0.3,0.4,0.8-0.2,0.5-0.5c-0.3-0.3-0.5-0.6-0.8-0.9c-0.3-0.4-0.8,0.2-0.5,0.5C19.7-17.1,20-16.8,20.2-16.5z"/>
		<path d="M21.9-13.1c0-0.1,0-0.2,0-0.3c0-0.5-0.8-0.5-0.8,0c0,0.1,0,0.2,0,0.3C21.2-12.6,21.9-12.6,21.9-13.1z"/>
		<path d="M19.3-11.4c0.5,0,0.5-0.8,0-0.8S18.8-11.4,19.3-11.4z"/>
		<path d="M13.6-19.7c0.4,0.3,0.8-0.4,0.4-0.6c-0.3-0.3-0.7-0.5-1-0.8c-0.4-0.3-0.8,0.4-0.4,0.6C12.9-20.2,13.3-20,13.6-19.7z"/>
		<path d="M4.5-2.5c0.1,0.1,0.2,0.2,0.3,0.3C5.1-2,5.7-2.5,5.3-2.8C5.2-2.9,5.2-3,5.1-3.1C4.7-3.4,4.2-2.9,4.5-2.5z"/>
		<path d="M9.6-4.7c0.1,0.4,0.2,0.8,0.3,1.2C10-3,10.8-3.2,10.7-3.7c-0.1-0.4-0.2-0.8-0.3-1.2C10.3-5.4,9.5-5.2,9.6-4.7z"/>
		<path d="M14.9-4.1C14.8-4.6,14-4.4,14.1-4c0.1,0.3,0.2,0.7,0.3,1c0.1,0.5,0.8,0.3,0.7-0.2C15-3.5,15-3.8,14.9-4.1z"/>
		<path d="M14.8-7.2c-0.3,0-0.5-0.2-0.5-0.5c0.1-0.5-0.6-0.7-0.7-0.2c-0.1,0.8,0.4,1.5,1.2,1.5C15.3-6.4,15.3-7.2,14.8-7.2z"/>
		<path d="M16.4-3.6c-0.1,1,0,2.1,0.3,3.1c0.1,0.5,0.9,0.3,0.7-0.2c-0.3-1-0.3-1.9-0.2-2.9C17.2-4,16.5-4,16.4-3.6z"/>
		<path d="M21.9-4.6c0-0.5-0.8-0.5-0.8,0c0,0.5,0,1,0,1.5c0,0.5,0.8,0.5,0.8,0C21.9-3.6,21.9-4.1,21.9-4.6z"/>
	</g>
</pattern>
<g id="fon" display="none">
</g>
<g id="orange">
</g>
<g id="outline">
	<g>
		<g>
			<path fill="#9D9D9C" d="M281.6,186l93.2,11.3c0,0,1,0.7,0.9,1.7c-0.1,1-0.5,0.8-0.3,1.7c0.2,0.8,1,2,0.9,2.4
				c-0.1,0.4,0.4,2.4,0.6,3.6c0.2,1.2,0.2,4.2,0,5.3c-0.2,1.2-0.8,4.8-2.7,5.1s-4.8,2.6-9.9,1.8c-5.1-0.8-6-1.9-6-1.9
				s-7.9-3.2-13-4.3c-5.1-1-19-2.6-24.5-3.7s-21.3-5.1-23.3-5.7c-2-0.6-12.6-4.8-12.6-4.8l-7.1,1.9
				C277.7,200.5,281.4,188.4,281.6,186z"/>
			<path fill="#9D9D9C" d="M173.9,122c0,0,2.4-43.6,0-66.6c-2.4-23.2-3.1-40.8-3.1-40.8s4.7-4.5,9.8-4.5c5.1,0,9.6,0.4,10.2,0.6
				s2.3,0.7,1.9,3.6s-5.2,46.7-5.2,46.7l-3.8,33.7l-4,35.6l-6.3-7.2L173.9,122z"/>
			<path fill="#F39205" d="M158.8,237l126.1-38.4c0,0,17.8,17.5,20.6,65.2l-112.3,47.7C193.1,311.4,172,251.4,158.8,237z"/>
			<path fill="#D17911" d="M240.6,291.3l-47.5,20.1c0,0-5.7-21.1-12.5-35.2c-6.8-14.1-21.8-39.2-21.8-39.2s-5.8,11.3-11.1,27.5
				c-5.3,16.2-14,45.7-17.3,57.6c-3.3,11.9-8.9,32.4-8.9,32.4l48.2-13.9l62.3-18L240.6,291.3z"/>
			<path fill="#F8AA34" d="M121.5,354.5c0,0,19.1-71.4,26.1-90c7-18.6,11.1-27.5,11.1-27.5l39.7-55.8c0,0-36.8-19.4-92.7-37.1
				S5.5,115.2,5.5,115.2l10,29.5c0,0,10.2,29.8,10.8,31.6c0.6,1.8,4.9,14.4,4.9,14.4s3.8,13.7,4.7,19.3c0.9,5.6,4.4,31.7,5.4,51.4
				s1.7,58.1,1.7,58.1S93.3,320,121.5,354.5z"/>
			<path fill="#F4DCC1" d="M158.8,237l39.7-55.8c0,0-48.5-25.5-89.7-36.4l71-13.8c0,0,6.9-5.7,11.6-4.3c4.7,1.3,6.6,2.6,7.6,3.6
				c1,1,1.1,2.2,2.2,0.3c1-1.8,6.9-8.3,13.8-9.5c6.8-1.2,11.1-2.4,16.1,1.5c5,3.9,10.4,7.2,14.3,8.3s8,0.7,12.1,3.1
				c4.1,2.4,5.8,4.1,6.3,4.5s1.6,1.8,3.6,3.2c2,1.4,8.1,7.9,9.4,11.5c1.3,3.6,2,4.8,2,8.3s-1.5,7.5-0.5,8.9s2.7,4.7,3.2,8.1
				c0.4,3.4,0.9,5.3,0.1,9.7c-0.8,4.4-3.8,12.7-3.8,12.7L158.8,237z"/>
			<path fill="#D17911" d="M108,144.7l71.8-13.8l-42.6-56L15.5,96.2c0,0,2.8,18.9,6.3,23.2L108,144.7z"/>
			<path fill="#D17911" d="M296.6,187.7l27.9-25.8c0,0-17.1-14.2-22.6-18c-5.5-3.8-23.3-13.6-34.2-19.5
				c-10.9-5.9-35.3-19.4-39.1-21.5c-3.8-2.1-16.8-9.5-16.8-9.5s-10.8,8.6-15.1,13.4c-4.3,4.7-9.6,11.4-11.4,14.3s-5.2,9.1-5.2,9.1
				s7.5-3.7,9.8-3.7c2.3,0.1,4.3,0.3,5.7,1.1s4.5,4.1,4.5,4.1s4.6-5.7,7.4-7.3s8.2-4.1,11.6-4.4s7.8-0.2,12.2,2.8
				c4.4,3,10.5,7.5,14.4,8.2c3.8,0.7,7.3,1.1,8.8,1.7c1.5,0.6,6.4,2.5,8.4,4.9c2,2.4,1.9,2.4,3.7,3.7c1.7,1.3,6.2,4.6,8.2,8.4
				c2,3.8,3.8,7.5,3.8,11.1c0,3.6-1,8.2-1,8.2s2,3.2,2.7,5.6c0.7,2.4,1.5,5,1.5,7.3c0,2.3-0.1,4.2-0.1,4.2L296.6,187.7z"/>
			<g>
				<path fill="none" stroke="#000000" stroke-linecap="round" stroke-linejoin="round" stroke-miterlimit="10" d="M31,190.1
					L5.5,115.2c0,0,140.3,35.2,193,65.9L158.8,237L31,190.1C43.3,224,43,319.5,43,319.5s15.8,0.2,41.5,8.4s37,26.5,37,26.5
					L232,322.6l8.6-31.3"/>
				<path fill="none" stroke="#000000" stroke-linecap="round" stroke-linejoin="round" stroke-miterlimit="10" d="M158.8,237
					c0,0,23.3,32.3,34.3,74.5l112.3-47.7c0,0-1.5-42.8-20.6-65.2L158.8,237z"/>
				<path fill="none" stroke="#000000" stroke-linecap="round" stroke-linejoin="round" stroke-miterlimit="10" d="M121.5,354.5
					c0,0,21.5-86.7,37.3-117.5"/>
				<path fill="none" stroke="#000000" stroke-linecap="round" stroke-linejoin="round" stroke-miterlimit="10" d="M108,144.7
					c0,0,35.2-8.5,71.8-13.8l-42.6-56L15.5,96.2c0,0,1.5,16.1,6.3,23.2"/>
				<path fill="none" stroke="#000000" stroke-linecap="round" stroke-linejoin="round" stroke-miterlimit="10" d="M277.6,200.8
					c0,0,9.3-17.9,0-31.6c0,0,6.4-16.6-12.4-28.9c0,0-3.7-7.2-16.4-8.7c-12.7-1.6-18-14-29.3-11.7c-11.3,2.3-15.3,6.7-19.3,11.8
					c0,0-6.5-11.2-20.3-0.8l13-116.7c0,0-9.3,6.5-22,0c0,0,7.4,79.8,3,108.7"/>
				<path fill="none" stroke="#000000" stroke-linecap="round" stroke-linejoin="round" stroke-miterlimit="10" d="M181.9,172.6
					c0,0,1-8.6,15.9-6.1s18.8,1.5,18.8,1.5"/>
				<path fill="none" stroke="#000000" stroke-linecap="round" stroke-linejoin="round" stroke-miterlimit="10" d="M165.8,165.6
					c0,0,23.2-12.2,40.8-8c17.7,4.2,18.1,10.3,23,15.1"/>
				<path fill="none" stroke="#000000" stroke-linecap="round" stroke-linejoin="round" stroke-miterlimit="10" d="M144.1,157.2
					c0,0,23-21,31.1-21.8c8.1-0.8,9,2.1,8,11.1"/>
				<path fill="none" stroke="#000000" stroke-linecap="round" stroke-linejoin="round" stroke-miterlimit="10" d="M127.9,151.4
					c0,0,11.8-5.3,19.7-5"/>
				<path fill="none" stroke="#000000" stroke-linecap="round" stroke-linejoin="round" stroke-miterlimit="10" d="M277.6,169.2
					c-1.1-0.2-7.4-10.3-23.8-8.2c-16.3,2.2-22.8,24.7-34.3,25"/>
				<path fill="none" stroke="#000000" stroke-linecap="round" stroke-linejoin="round" stroke-miterlimit="10" d="M172,218.3
					c0,0,20.7-15.2,24.2,7.2"/>
				<path fill="none" stroke="#000000" stroke-linecap="round" stroke-linejoin="round" stroke-miterlimit="10" d="M176.4,231.6
					c0,0-2-5.1,5.5-9.7"/>
				<path fill="none" stroke="#000000" stroke-linecap="round" stroke-linejoin="round" stroke-miterlimit="10" d="M195,186
					c0,0,3.1,0.7,2,7.5c-1.2,6.8-2.2,20.2,14.9,18.5c17.1-1.7,23.1-12.7,26.9-19.8c3.8-7.2,14.6-20.4,21.8-14.3
					c7.2,6.1,9.1,15.6-16.5,22.9"/>
				<path fill="none" stroke="#000000" stroke-linecap="round" stroke-linejoin="round" stroke-miterlimit="10" d="M220.3,188.8
					c0,0,0.9,5.8-8.4,5.4s-9.4-9.3-6.7-13.1"/>
				<path fill="none" stroke="#000000" stroke-linecap="round" stroke-linejoin="round" stroke-miterlimit="10" d="M248.5,162.5
					c0,0-3.7-19-21.2-19s-21.3,2.7-27,5.4c-5.7,2.6-22.5,9-38.5,2.5"/>
				<path fill="none" stroke="#000000" stroke-linecap="round" stroke-linejoin="round" stroke-miterlimit="10" d="M200.1,131.7
					c0,0,3.7,8-1.8,18.1"/>
				<path fill="none" stroke="#000000" stroke-linecap="round" stroke-linejoin="round" stroke-miterlimit="10" d="M258.5,160.7
					c0,0,3.8-17.5-14.8-19.2c-18.7-1.7-34.9-3.9-42.3-11.4"/>
				<path fill="none" stroke="#000000" stroke-linecap="round" stroke-linejoin="round" stroke-miterlimit="10" d="M230.2,140.1
					c0,0,11.1-1,14.5-4.9c3.3-3.8,7.4-3.9,11.4-2"/>
				<path fill="none" stroke="#000000" stroke-linecap="round" stroke-linejoin="round" stroke-miterlimit="10" d="M213.3,279.5
					c0,0,43.7-10.7,63-24.5"/>
				<path fill="none" stroke="#000000" stroke-linecap="round" stroke-linejoin="round" stroke-miterlimit="10" d="M137.2,336.2
					c0,0,22.3-10.6,46.8-8.7"/>
				<path fill="none" stroke="#000000" stroke-linecap="round" stroke-linejoin="round" stroke-miterlimit="10" d="M160.6,307.7
					c0,0-15.6,2.6-22.8,7.4"/>
				
					<line fill="none" stroke="#000000" stroke-linecap="round" stroke-linejoin="round" stroke-miterlimit="10" x1="152.6" y1="317.1" x2="149.2" y2="320"/>
				<path fill="none" stroke="#000000" stroke-linecap="round" stroke-linejoin="round" stroke-miterlimit="10" d="M119.4,315.2
					c0,0-7.7-11.7-40.4-9.2"/>
				
					<line fill="none" stroke="#000000" stroke-linecap="round" stroke-linejoin="round" stroke-miterlimit="10" x1="100.5" y1="315.6" x2="111.9" y2="318.4"/>
				
					<line fill="none" stroke="#000000" stroke-linecap="round" stroke-linejoin="round" stroke-miterlimit="10" x1="100.5" y1="320.5" x2="104.6" y2="321.4"/>
				<path fill="none" stroke="#000000" stroke-linecap="round" stroke-linejoin="round" stroke-miterlimit="10" d="M136,248.7
					c0,0-21.8-15.2-54.1-17.1"/>
				<path fill="none" stroke="#000000" stroke-linecap="round" stroke-linejoin="round" stroke-miterlimit="10" d="M145.1,184.2
					c0,0-46.5-26.8-98.6-34.4"/>
				<path fill="none" stroke="#000000" stroke-linecap="round" stroke-linejoin="round" stroke-miterlimit="10" d="M42.9,305.6
					c0,0,8-0.2,12,3.3"/>
				<path fill="none" stroke="#000000" stroke-linecap="round" stroke-linejoin="round" stroke-miterlimit="10" d="M42.9,292.5
					c0,0,6.7-0.5,10.5,1.5"/>
				<path fill="none" stroke="#000000" stroke-linecap="round" stroke-linejoin="round" stroke-miterlimit="10" d="M42.1,277.7
					c0,0,5.9-0.7,8.6,1.8"/>
				
					<line fill="none" stroke="#000000" stroke-linecap="round" stroke-linejoin="round" stroke-miterlimit="10" x1="41.3" y1="262.1" x2="51.6" y2="262.1"/>
				<path fill="none" stroke="#000000" stroke-linecap="round" stroke-linejoin="round" stroke-miterlimit="10" d="M40.4,248.7
					c0,0,6.6-1,10.3,1.2"/>
				<path fill="none" stroke="#000000" stroke-linecap="round" stroke-linejoin="round" stroke-miterlimit="10" d="M39.2,234.8
					c0,0,7.7,1.1,11.5,4.5"/>
				<path fill="none" stroke="#000000" stroke-linecap="round" stroke-linejoin="round" stroke-miterlimit="10" d="M38.2,225.3
					c0,0,9-1.1,12.6,2.6"/>
				
					<line fill="none" stroke="#000000" stroke-linecap="round" stroke-linejoin="round" stroke-miterlimit="10" x1="36.1" y1="211.3" x2="46.5" y2="216.2"/>
				<path fill="none" stroke="#000000" stroke-linecap="round" stroke-linejoin="round" stroke-miterlimit="10" d="M27.6,180.1
					c0,0,7.1,1.9,11.2,1"/>
				
					<line fill="none" stroke="#000000" stroke-linecap="round" stroke-linejoin="round" stroke-miterlimit="10" x1="23.6" y1="168.4" x2="36.4" y2="171.2"/>
				
					<line fill="none" stroke="#000000" stroke-linecap="round" stroke-linejoin="round" stroke-miterlimit="10" x1="21" y1="161" x2="29.2" y2="156.7"/>
				<path fill="none" stroke="#000000" stroke-linecap="round" stroke-linejoin="round" stroke-miterlimit="10" d="M14.2,140.9
					c0,0,7.4,2.1,9.6,2.1"/>
				<path fill="none" stroke="#000000" stroke-linecap="round" stroke-linejoin="round" stroke-miterlimit="10" d="M7.2,120.3
					c0,0,7.5,7.8,13.3,9.9"/>
				<path fill="none" stroke="#000000" stroke-linecap="round" stroke-linejoin="round" stroke-miterlimit="10" d="M22.1,99.4
					c0,0,1.3,2.2,3.8,5.1"/>
				<path fill="none" stroke="#000000" stroke-linecap="round" stroke-linejoin="round" stroke-miterlimit="10" d="M32.1,93.3
					c0,0,1.7,6.9,6.3,10.5"/>
				
					<line fill="none" stroke="#000000" stroke-linecap="round" stroke-linejoin="round" stroke-miterlimit="10" x1="49.1" y1="90.3" x2="50.4" y2="97"/>
				
					<line fill="none" stroke="#000000" stroke-linecap="round" stroke-linejoin="round" stroke-miterlimit="10" x1="67" y1="92.1" x2="69" y2="96.1"/>
				<path fill="none" stroke="#000000" stroke-linecap="round" stroke-linejoin="round" stroke-miterlimit="10" d="M79.5,85
					c0,0,2.6,5.4,3.2,7.1"/>
				<path fill="none" stroke="#000000" stroke-linecap="round" stroke-linejoin="round" stroke-miterlimit="10" d="M93.6,82.5
					c0,0,3.6,6,5.2,7.8"/>
				<path fill="none" stroke="#000000" stroke-linecap="round" stroke-linejoin="round" stroke-miterlimit="10" d="M107.5,80.1
					c0,0,7.3,2.1,9,4.9"/>
				<path fill="none" stroke="#000000" stroke-linecap="round" stroke-linejoin="round" stroke-miterlimit="10" d="M126.8,76.7
					c0,0,3.4,1.9,4.1,7"/>
				
					<line fill="none" stroke="#000000" stroke-linecap="round" stroke-linejoin="round" stroke-miterlimit="10" x1="127.9" y1="96.1" x2="112" y2="103"/>
				<path fill="none" stroke="#000000" stroke-linecap="round" stroke-linejoin="round" stroke-miterlimit="10" d="M170.8,14.2
					c0,0,5-4.3,11.3-4.3s12.3-0.2,14.6,6.1"/>
				<path fill="none" stroke="#000000" stroke-linecap="round" stroke-linejoin="round" stroke-miterlimit="10" d="M174.2,25.1
					c0,0,7.8,7.8,12.9-3.8"/>
				<path fill="none" stroke="#000000" stroke-linecap="round" stroke-linejoin="round" stroke-miterlimit="10" d="M172.9,41.7
					c0,0,7.5,4.5,15-4.6"/>
				<path fill="none" stroke="#000000" stroke-linecap="round" stroke-linejoin="round" stroke-miterlimit="10" d="M173.9,57.1
					c0,0,7.3,1.4,10.9-1"/>
				<path fill="none" stroke="#000000" stroke-linecap="round" stroke-linejoin="round" stroke-miterlimit="10" d="M174.5,70.2
					c0,0,1.4,3,6.1,0.6"/>
				<path fill="none" stroke="#000000" stroke-linecap="round" stroke-linejoin="round" stroke-miterlimit="10" d="M175,82.5
					c0,0,3.7,2.9,7.8-1.2"/>
				
					<line fill="none" stroke="#000000" stroke-linecap="round" stroke-linejoin="round" stroke-miterlimit="10" x1="175.1" y1="92.1" x2="180.6" y2="92.1"/>
				
					<line fill="none" stroke="#000000" stroke-linecap="round" stroke-linejoin="round" stroke-miterlimit="10" x1="175.1" y1="104.5" x2="178.9" y2="104.5"/>
				<path fill="none" stroke="#000000" stroke-linecap="round" stroke-linejoin="round" stroke-miterlimit="10" d="M174.5,115.9
					c0,0,1.3,0.7,3.3-0.7"/>
				<path fill="none" stroke="#000000" stroke-linecap="round" stroke-linejoin="round" stroke-miterlimit="10" d="M189.9,300.3
					c0,0,6.1-3.1,9.7-1.5"/>
				<path fill="none" stroke="#000000" stroke-linecap="round" stroke-linejoin="round" stroke-miterlimit="10" d="M186.4,290.3
					c0,0,7.1-1.8,8.3-3.5"/>
				<path fill="none" stroke="#000000" stroke-linecap="round" stroke-linejoin="round" stroke-miterlimit="10" d="M181.5,278.2
					c0,0,5.9-2.1,9.1-2"/>
				<path fill="none" stroke="#000000" stroke-linecap="round" stroke-linejoin="round" stroke-miterlimit="10" d="M177.1,268.6
					c0,0,7.3-1.5,9.3-4.2"/>
				<path fill="none" stroke="#000000" stroke-linecap="round" stroke-linejoin="round" stroke-miterlimit="10" d="M171.1,257.1
					c0,0,8.4-0.3,10-2.1"/>
				<path fill="none" stroke="#000000" stroke-linecap="round" stroke-linejoin="round" stroke-miterlimit="10" d="M164.3,245.4
					c0,0,2.4-1.6,8.4,1.7"/>
				<path fill="none" stroke="#000000" stroke-linecap="round" stroke-linejoin="round" stroke-miterlimit="10" d="M281.6,186
					l93.2,11.3c0,0,3.1,2.5-2.3,6.7s-12.5,8.1-11.8,14.1c0,0-11.9-6.1-27.4-7.3s-43.4-8.9-48.4-12.3l39.7-36.7
					c0,0-23.5-21-41.8-29.7s-70.9-38.7-70.9-38.7s-21.3,14.8-32.1,37.4"/>
				<path fill="none" stroke="#000000" stroke-linecap="round" stroke-linejoin="round" stroke-miterlimit="10" d="M360.7,218.2
					c0,0,14.2,3.8,16-4.9c1.8-8.7-1.8-6.4,0-11.7"/>
				<path fill="none" stroke="#000000" stroke-linecap="round" stroke-linejoin="round" stroke-miterlimit="10" d="M364.3,196.1
					c0,0-11.8,12.4-20.3,14.2"/>
				<path fill="none" stroke="#000000" stroke-linecap="round" stroke-linejoin="round" stroke-miterlimit="10" d="M330.5,210.6
					c0,0,14.5-7.7,16.7-12"/>
				<path fill="none" stroke="#000000" stroke-linecap="round" stroke-linejoin="round" stroke-miterlimit="10" d="M317.1,208.4
					c0,0,11.7-10.3,14.8-11.9"/>
				<path fill="none" stroke="#000000" stroke-linecap="round" stroke-linejoin="round" stroke-miterlimit="10" d="M302.3,204.8
					c0,0,11.4-9.4,17.1-10.6"/>
				<path fill="none" stroke="#000000" stroke-linecap="round" stroke-linejoin="round" stroke-miterlimit="10" d="M303.1,188.7
					c0,0-1.1,5.9-5.9,7.9"/>
			</g>
		</g>
		<path fill="url(#New_Pattern_Swatch_2)" d="M240.6,291.3l-47.5,20.1c0,0-20.1-60.2-34.3-74.5c0,0,25.6,60.1,27.6,86.2l52.3-24.9
			L240.6,291.3z"/>
		<polygon fill="url(#New_Pattern_Swatch_2)" points="178.9,131.1 108,144.7 21.7,119.5 20,116 108.3,138.2 177,128 		"/>
		<path fill="url(#New_Pattern_Swatch_2)" d="M270.3,144.2c0,0,16.1,5.7,13.8,25.5c0,0,2.8,6.2,1.7,12.6c0,0,13.5,2.9,13.3,3.1
			s-2.4,2.3-2.4,2.3l-15-1.7c0,0,0.5-6.8-1-10.5c-1.5-3.7-3.1-6.6-3.1-6.6s2.5-6.2,0.4-12.3C275.8,150.6,270.3,144.2,270.3,144.2z"
			/>
		<path fill="url(#New_Pattern_Swatch_2)" d="M233.3,139.7c0,0,7.4,1.8,11.8,0c4.4-1.8,11.7,0.4,15.2,7.6s3,10.2,3,10.2
			s14.6,5.9,14.8,8.6c0,0,1.6,4.7-2.3,1.6c-3.9-3.1-9.1-6.2-11-6.2c-1.8,0.1-7,0.7-6.1-2.9c0.9-3.6-1.4-9.9-3.6-12.1
			c-2.2-2.2-5.2-3.9-7.1-4.1C246.2,142.3,232.3,140.7,233.3,139.7z"/>
		<path fill="url(#New_Pattern_Swatch_2)" d="M115.5,142.9l17.5,6.6c0,0,16.8-6.5,20.8-0.5c0,0-7.9,9.4-11.7,7.8
			c-3.8-1.6-32-11.2-32-11.2S106.7,144.5,115.5,142.9z"/>
		<path fill="url(#New_Pattern_Swatch_2)" d="M200.1,131.7l1.2-1.5c0,0,9.8,6.7,5.6,15.8c0,0-3.2,1.3-4.6,1.9s-4.1,1.9-4.1,1.9
			s2.7-4.6,3-9.8S200.1,131.7,200.1,131.7z"/>
		<path fill="url(#New_Pattern_Swatch_2)" d="M183.3,146.4c0,0,5.2-0.7,3.8-6.5s-8.1-4.8-9.3-4.7c0,0,5.6-0.2,5.5,3.8
			S183.3,146.4,183.3,146.4z"/>
		<path fill="url(#New_Pattern_Swatch_2)" d="M255.8,160.7l-7.3,1.8c0,0-3.2-9.8-6.6-12.8C241.9,149.8,251.8,152.2,255.8,160.7z"/>
		<path fill="url(#New_Pattern_Swatch_2)" d="M217.8,120.2c0,0-10.5-1.3-18,6c0,0-11.9-6.6-19.7,4c0,0,6.2-3.8,9.8-3.7
			c3.6,0.1,6.6,1.4,7.8,2.6c1.2,1.2,2.4,2.7,2.4,2.7S206.5,122.6,217.8,120.2z"/>
		<path fill="url(#New_Pattern_Swatch_2)" d="M198.5,181.2l-14.8,32.1h4.5c0,0,10.4-2.9,17,9.6l-8.9,2.7c0,0-1.9-7.9-4-9.5
			s-6.8-3.4-10.3-2.3s-9.9,4.6-9.9,4.6L198.5,181.2z"/>
		<polygon fill="url(#New_Pattern_Swatch_2)" points="170.4,233.4 165.3,232.5 166.4,226.7 158.8,237 		"/>
		<polygon fill="url(#New_Pattern_Swatch_2)" points="140.8,348.9 127.9,348.9 132.7,312.8 121.5,355 		"/>
		<path fill="url(#New_Pattern_Swatch_2)" d="M263,205.3h21.7c0,0,13.7,17.8,15.4,24.6c0,0-8.8-27.6-15.2-31.3L263,205.3z"/>
	</g>
</g>
</svg>
