<?xml version="1.0" encoding="utf-8"?>
<!-- Generator: Adobe Illustrator 18.0.0, SVG Export Plug-In . SVG Version: 6.00 Build 0)  -->
<!DOCTYPE svg PUBLIC "-//W3C//DTD SVG 1.1//EN" "http://www.w3.org/Graphics/SVG/1.1/DTD/svg11.dtd">
<svg version="1.1" xmlns="http://www.w3.org/2000/svg" xmlns:xlink="http://www.w3.org/1999/xlink" x="0px" y="0px"
	 viewBox="0 0 115.7 445.2" enable-background="new 0 0 115.7 445.2" xml:space="preserve">
<g id="fon" display="none">
</g>
<g id="orange">
</g>
<g id="outline">
	<g>
		<g>
			<path fill="#F4DCC1" d="M41.6,70.5c0,0-4.2,35.8-6.7,41.9c-2.5,6.2-19.1,39.9-19.1,39.9s-5,10.9-5.9,15.8
				c-0.9,4.9-3.1,25.4-3.3,31.1c-0.2,5.7-0.4,17.3-0.4,18.3c0,1-1.8,22.3-2.6,26.9c-0.8,4.7-3,39.9-2.6,48.2s3.1,53,3.8,60.1
				s4.3,43.5,4.3,43.5l1.3,10.2c0,0,0.2,3.3-0.4,4.6c-0.6,1.3-1.1,2-1.1,2s14.9,14.3,32.7,18s35.2,7.1,61.2-1.7c0,0,5.1-20,5.9-34.1
				c0.8-14.2-1.9-28.9-2.9-42.2s-4.5-62.8-4-73s-0.6-47.3,0-51.3c0.5-4,1.2-16.9,0.7-24.7c-0.5-7.8-5.7-44.5-5.3-47.1
				c0.4-2.6-4.7-14.7-6.9-19.6c-2.3-4.9-11.1-24-12.6-28.8c-1.5-4.8-3.8-17.1-3.4-24.9s1.1-12.8,1.2-13.3C75.3,70,74.3,55,74.3,55
				S41.8,61.7,41.6,70.5z"/>
			<path fill="#F8AA34" d="M44.7,221.9c0,0-3.2-11.2-0.8-18.7s4.7-13.5,4.7-13.5s-5-4.4-6.5-4.9s-13.9-3.6-20.3-2.5
				s-9.5,2.6-9.5,2.6l-5.6,3.5l-0.5,17.5C6.2,205.9,20.7,226.2,44.7,221.9z"/>
			<path fill="#D17911" d="M6.2,205.9c0,0,4.2,3.9,12.3,7.9S33,220,35,220.5s9,1.3,14.8,1.9c5.8,0.6,11,0.6,11.8,1.6s2,1.3,0.8,4.2
				c-1.2,2.8-1.2,2-0.8,5.7c0.3,3.7,4.7,35.4,4.7,35.4s2.5,39.9,4.6,46.4c2.2,6.5,1.6,14,1.8,18.7c0.2,4.7-1.3,16.6-3,19.4
				c-1.7,2.8-3.2,6.5-9,7.1c-5.8,0.6-22-3.1-24.3-3.3c-2.3-0.2-31.7-11.4-31.7-11.4s-3.5-44.6-3.4-58.3c0.1-13.7,0.8-34.6,1.5-39
				c0.7-4.4,3-15.7,3-21.5C5.8,221.5,6.2,205.9,6.2,205.9z"/>
			<path fill="#6D3F0F" d="M49,22.4c0,0-6.5-1.6-8.4-4.7c-1.9-3.1-1.7-5.1,1-7c2.7-1.9,7.1-4.8,11.4-5.3s10.4-1.2,15,1.2
				s7,4,7.7,6.4c0.7,2.4,1.3,0.9,0.2,5.1s-1.6,5-1.4,9.2C74.6,31.5,75,48,75,48s0.3,9.9-4.2,14.4c-4.5,4.5-11.2,8.1-14.3,8.7
				c-3.1,0.7-9.4,1.2-10.9,0.9c-1.5-0.4-4.3-0.8-4.3-0.8l-3.5-4.5c0,0,1.9-40.3,1.9-40.8c0-0.5,0.4-6.9,0.4-6.9L49,22.4z"/>
		</g>
		<g>
			<path fill="none" stroke="#000000" stroke-linecap="round" stroke-linejoin="round" stroke-miterlimit="10" d="M42.6,70.9
				c2.8,1.7,8.5,2.3,18-1s13.8-12.3,14.3-17s-0.5-27.8-0.5-27.8s0.3-4.3,1.5-7s0.3-5.3-2.3-8.3S58.9,2.1,47.3,7.2s-7.3,10-7.3,10
				l-2.3,49.5l3.5,4.5c0,0-1.5,14.5-3.5,30.6c-2,16.1-21.5,46.4-26.5,60.6S6,214.8,6,214.8s1.1,11.1-2.9,31.7s-1.5,62.8,0,86
				c1.5,23.1,6.5,70.2,7.2,74c0.8,3.8-1.5,6.7-1.5,6.7c6,7.8,25.3,18,48,21.4s46.5-5.3,46.5-5.3s8.3-33.4,4-61.4
				c-4.3-28-7.9-127.2-5.4-141.5c2.6-14.3-2.2-54.7-5.1-70.4s-21-42.5-22.3-60.2c-1.3-17.7,0.3-30.1,5-36.2"/>
			<path fill="none" stroke="#000000" stroke-linecap="round" stroke-linejoin="round" stroke-miterlimit="10" d="M40.1,17.2
				c0,0,7.8,10.3,23.5,2"/>
			<path fill="none" stroke="#000000" stroke-linecap="round" stroke-linejoin="round" stroke-miterlimit="10" d="M74.7,22.4
				c0,0-11.2-0.2-20.8,4.9"/>
			<path fill="none" stroke="#000000" stroke-linecap="round" stroke-linejoin="round" stroke-miterlimit="10" d="M74.5,54.8
				c0,0-4,0.6-6.5,0"/>
			
				<line fill="none" stroke="#000000" stroke-linecap="round" stroke-linejoin="round" stroke-miterlimit="10" x1="56.5" y1="59.6" x2="51.2" y2="59.6"/>
			<path fill="none" stroke="#000000" stroke-linecap="round" stroke-linejoin="round" stroke-miterlimit="10" d="M51.2,103.4
				c0,0-15.3,46-28.8,65.5"/>
			<path fill="none" stroke="#000000" stroke-linecap="round" stroke-linejoin="round" stroke-miterlimit="10" d="M6,205.9
				c0,0,20.8,16.4,42.6,16.6c21.8,0.2,11.5,3.9,13.3,10.9s10.9,95.2,10.9,95.2s1.2,26-7.1,30.8s-47.2-3.8-60.9-13.3"/>
			<path fill="none" stroke="#000000" stroke-linecap="round" stroke-linejoin="round" stroke-miterlimit="10" d="M20,371.6
				c0,0,1.1,14.2-3.3,21.7"/>
			<path fill="none" stroke="#000000" stroke-linecap="round" stroke-linejoin="round" stroke-miterlimit="10" d="M27.6,401.8
				c0,0,22.6-9.5,55.9,5.5"/>
			
				<line fill="none" stroke="#000000" stroke-linecap="round" stroke-linejoin="round" stroke-miterlimit="10" x1="31.2" y1="392" x2="33" y2="390.8"/>
			<path fill="none" stroke="#000000" stroke-linecap="round" stroke-linejoin="round" stroke-miterlimit="10" d="M86.5,186.8
				c0,0,15.5,105.4,6.3,166.9"/>
			<path fill="none" stroke="#000000" stroke-linecap="round" stroke-linejoin="round" stroke-miterlimit="10" d="M44.8,222.4
				c0,0-4.8-18.5,3.8-33c0,0-14.7-13.4-35.8-4.5"/>
			<path fill="none" stroke="#000000" stroke-linecap="round" stroke-linejoin="round" stroke-miterlimit="10" d="M18.5,264.7
				c0,0,5.5,7.3,19.3,3.5"/>
		</g>
	</g>
</g>
</svg>
