<?xml version="1.0" encoding="utf-8"?>
<!-- Generator: Adobe Illustrator 18.0.0, SVG Export Plug-In . SVG Version: 6.00 Build 0)  -->
<!DOCTYPE svg PUBLIC "-//W3C//DTD SVG 1.1//EN" "http://www.w3.org/Graphics/SVG/1.1/DTD/svg11.dtd">
<svg version="1.1" xmlns="http://www.w3.org/2000/svg" xmlns:xlink="http://www.w3.org/1999/xlink" x="0px" y="0px"
	 viewBox="0 0 298.6 253.8" enable-background="new 0 0 298.6 253.8" xml:space="preserve">
<pattern  x="-5147.5" y="-2516.4" width="21.7" height="27.1" patternUnits="userSpaceOnUse" id="New_Pattern_Swatch_2" viewBox="0.2 -27.3 21.7 27.1" overflow="visible">
	<g>
		<polygon fill="none" points="0.2,-0.2 21.9,-0.2 21.9,-27.3 0.2,-27.3 		"/>
		<path d="M0.7-26.4c0.3-0.1,0.7-0.1,1-0.2c0.5-0.1,0.3-0.8-0.2-0.7c-0.3,0.1-0.7,0.1-1,0.2C0-27,0.2-26.3,0.7-26.4z"/>
		<path d="M2.6-23.9c0.3,0,0.7,0,1,0c0.5,0,0.5-0.8,0-0.8c-0.3,0-0.7,0-1,0C2.1-24.7,2.1-23.9,2.6-23.9z"/>
		<path d="M5.6-26.5c0.5,0.3,1,0.7,1.5,1c0.4,0.3,0.8-0.4,0.4-0.6c-0.5-0.3-1-0.7-1.5-1C5.6-27.4,5.2-26.8,5.6-26.5z"/>
		<path d="M11-24c0.4,0.1,0.6,0.4,0.7,0.8c0.1,0.5,0.8,0.3,0.7-0.2c-0.2-0.6-0.6-1.1-1.3-1.3C10.7-24.8,10.5-24.1,11-24z"/>
		<path d="M7.2-22.6c0,0.4,0.3,0.8,0.7,0.9c0.5,0.1,0.7-0.6,0.2-0.7C8.1-22.5,8-22.5,8-22.6C7.9-23,7.2-23,7.2-22.6z"/>
		<path d="M2.6-20.4c0.3,0,0.5,0,0.8,0c0.5,0,0.5-0.8,0-0.8c-0.3,0-0.5,0-0.8,0C2.1-21.2,2.1-20.4,2.6-20.4z"/>
		<path d="M6.4-15.5c-1.2-0.3-2.4-0.6-3.5-0.9c-0.5-0.1-0.7,0.6-0.2,0.7c1.2,0.3,2.4,0.6,3.5,0.9C6.7-14.7,6.9-15.4,6.4-15.5z"/>
		<path d="M11.9-18.6c0-0.3,0-0.5,0-0.8c0-0.5-0.8-0.5-0.8,0c0,0.3,0,0.5,0,0.8C11.2-18.1,11.9-18.1,11.9-18.6z"/>
		<path d="M5.2-19c0.6,0.2,1.1,0.4,1.7,0.6c0.5,0.2,0.7-0.6,0.2-0.7c-0.6-0.2-1.1-0.4-1.7-0.6C5-19.9,4.8-19.2,5.2-19z"/>
		<path d="M8.8-10.9c0.3,0.4,0.9,0,0.6-0.4c-0.2-0.3-0.3-0.5-0.5-0.8c-0.3-0.4-0.9,0-0.6,0.4C8.4-11.4,8.6-11.1,8.8-10.9z"/>
		<path d="M2.5-12.8c0.4,0.3,0.9-0.2,0.5-0.5c-0.4-0.3-0.8-0.7-1.3-1c-0.4-0.3-0.9,0.2-0.5,0.5C1.7-13.4,2.1-13.1,2.5-12.8z"/>
		<path d="M3.2-8.6c0,0.8,0,1.5,0,2.3c0,0.5,0.8,0.5,0.8,0c0-0.8,0-1.5,0-2.3C3.9-9,3.2-9,3.2-8.6z"/>
		<path d="M6.1-10.5c-0.2-0.4-0.5-0.8-0.7-1.3c-0.2-0.4-0.9,0-0.6,0.4c0.2,0.4,0.5,0.8,0.7,1.3C5.7-9.7,6.4-10.1,6.1-10.5z"/>
		<path d="M6.4-7.2c0.3,0.8,0.6,1.6,0.8,2.5c0.2,0.5,0.9,0.3,0.7-0.2C7.7-5.7,7.4-6.6,7.1-7.4C7-7.8,6.2-7.7,6.4-7.2z"/>
		<path d="M11-7.1c0.1,0.5,0.8,0.5,0.8,0c-0.1-0.6-0.3-1.1-0.6-1.5c-0.3-0.4-0.8,0.2-0.5,0.5C10.8-7.8,10.9-7.4,11-7.1z"/>
		<path d="M13.7-10.7c-0.1-0.4-0.2-0.8-0.3-1.2c-0.1-0.5-0.8-0.3-0.7,0.2c0.1,0.4,0.2,0.8,0.3,1.2C13.1-10,13.8-10.2,13.7-10.7z"/>
		<path d="M17.7-15.5c0.5,0.1,0.9,0.4,1.3,0.9c0.3,0.4,0.9,0,0.6-0.4c-0.4-0.6-1-1-1.7-1.2C17.4-16.3,17.3-15.6,17.7-15.5z"/>
		<path d="M20.7-10.3c0,0.5,0,1,0,1.5c0,0.5,0.8,0.5,0.8,0c0-0.5,0-1,0-1.5C21.4-10.8,20.7-10.8,20.7-10.3z"/>
		<path d="M18.7-4.2c0.1,0.5,0.8,0.3,0.7-0.2c-0.1-0.4,0-0.8,0.2-1.2C19.8-6.1,19.2-6.4,19-6C18.7-5.4,18.6-4.9,18.7-4.2z"/>
		<path d="M15.9-10.1c0,0.2,0,0.3,0,0.5c0,0.5,0.8,0.5,0.8,0c0-0.2,0-0.3,0-0.5C16.7-10.5,15.9-10.5,15.9-10.1z"/>
		<path d="M11.3-15.6c0.5,0.8,1.4,1.3,2.3,1.2c0.5,0,0.5-0.8,0-0.8c-0.7,0-1.3-0.2-1.7-0.8C11.7-16.4,11-16.1,11.3-15.6z"/>
		<path d="M9.4-13.8c0-0.3,0-0.5,0-0.8c0-0.5-0.8-0.5-0.8,0c0,0.3,0,0.5,0,0.8C8.7-13.3,9.4-13.3,9.4-13.8z"/>
		<path d="M9.3-17.2c0.5,0,0.5-0.8,0-0.8S8.8-17.2,9.3-17.2z"/>
		<path d="M17.2-13.3c-0.3-0.1-0.5-0.2-0.8-0.2c-0.5-0.1-0.7,0.6-0.2,0.7c0.3,0.1,0.5,0.2,0.8,0.2C17.4-12.4,17.6-13.1,17.2-13.3z"
			/>
		<path d="M14-17.7c0.2,0.1,0.5,0.2,0.7,0.3c0.5,0.2,0.6-0.5,0.2-0.7c-0.2-0.1-0.5-0.2-0.7-0.3C13.7-18.6,13.5-17.9,14-17.7z"/>
		<path d="M16-21.3c0.3,0.1,0.7,0.2,1,0.3c0.5,0.1,0.7-0.6,0.2-0.7c-0.3-0.1-0.7-0.2-1-0.3C15.7-22.1,15.5-21.4,16-21.3z"/>
		<path d="M20.2-16.5c0.3,0.4,0.8-0.2,0.5-0.5c-0.3-0.3-0.5-0.6-0.8-0.9c-0.3-0.4-0.8,0.2-0.5,0.5C19.7-17.1,20-16.8,20.2-16.5z"/>
		<path d="M21.9-13.1c0-0.1,0-0.2,0-0.3c0-0.5-0.8-0.5-0.8,0c0,0.1,0,0.2,0,0.3C21.2-12.6,21.9-12.6,21.9-13.1z"/>
		<path d="M19.3-11.4c0.5,0,0.5-0.8,0-0.8S18.8-11.4,19.3-11.4z"/>
		<path d="M13.6-19.7c0.4,0.3,0.8-0.4,0.4-0.6c-0.3-0.3-0.7-0.5-1-0.8c-0.4-0.3-0.8,0.4-0.4,0.6C12.9-20.2,13.3-20,13.6-19.7z"/>
		<path d="M4.5-2.5c0.1,0.1,0.2,0.2,0.3,0.3C5.1-2,5.7-2.5,5.3-2.8C5.2-2.9,5.2-3,5.1-3.1C4.7-3.4,4.2-2.9,4.5-2.5z"/>
		<path d="M9.6-4.7c0.1,0.4,0.2,0.8,0.3,1.2C10-3,10.8-3.2,10.7-3.7c-0.1-0.4-0.2-0.8-0.3-1.2C10.3-5.4,9.5-5.2,9.6-4.7z"/>
		<path d="M14.9-4.1C14.8-4.6,14-4.4,14.1-4c0.1,0.3,0.2,0.7,0.3,1c0.1,0.5,0.8,0.3,0.7-0.2C15-3.5,15-3.8,14.9-4.1z"/>
		<path d="M14.8-7.2c-0.3,0-0.5-0.2-0.5-0.5c0.1-0.5-0.6-0.7-0.7-0.2c-0.1,0.8,0.4,1.5,1.2,1.5C15.3-6.4,15.3-7.2,14.8-7.2z"/>
		<path d="M16.4-3.6c-0.1,1,0,2.1,0.3,3.1c0.1,0.5,0.9,0.3,0.7-0.2c-0.3-1-0.3-1.9-0.2-2.9C17.2-4,16.5-4,16.4-3.6z"/>
		<path d="M21.9-4.6c0-0.5-0.8-0.5-0.8,0c0,0.5,0,1,0,1.5c0,0.5,0.8,0.5,0.8,0C21.9-3.6,21.9-4.1,21.9-4.6z"/>
	</g>
</pattern>
<g id="fon" display="none">
</g>
<g id="orange">
</g>
<g id="outline">
	<g>
		<g>
			<path fill="#F4DCC1" d="M242,128.8c0,0,12.6,3.9,15.8,5.6c3.1,1.8,7.9,4,11.5,7.4c3.5,3.4,6.8,6,6.1,9c-0.7,3,0.3,4.3-4,7.1
				c-4.3,2.8-10.2,5.2-10.2,5.2l-9.2,7.1c0,0-52.2-4.4-58.5-2.6s-70.1,27.5-73.4,26.7c-3.2-0.7-100-21.8-100-21.8l-0.6-22.1
				c0,0-8.2-12.2-4.6-23.4s40.4-24.8,51.3-25.4c10.9-0.6,130.8,1.1,130.8,1.1L242,128.8z"/>
			<path fill="#FFFFFF" d="M56.4,81.4c0,0-1.1,7.7-5.4,11.9c-4.3,4.2-14.7,11.4-16.2,13.5c-1.5,2.1-5.6,6.5-7.4,12.3
				c-1.8,5.8-5.2,17.4-5.2,17.4s-10.8,0.9-14.1-3.6s-5.5-10.3-4-15.9c1.6-5.6,1.7-8.8,5.9-13.7c4.2-4.9,7-8.7,12.6-11.8
				S56.4,81.4,56.4,81.4z"/>
			<path fill="#FFFFFF" d="M175.2,74.2c0,0-8.6,17-6.8,18.9c1.8,1.9,9.8,9.1,14.1,9.9c4.3,0.8,10.8,4.8,18.8,0c8-4.8,8-4.1,12.8-8.5
				c4.7-4.4,8.2-6.4,7.3-8.5S194.4,69.2,175.2,74.2z"/>
			<path fill="#F39205" d="M105.4,77.7c0,0-0.7,6.2,2.7,8.8s13.3,8.8,16.1,9.8c2.8,1.1,8.1,4.1,13.6,2.5s8.3-0.9,12.8-1.8
				c4.4-0.9,6.4-1.3,11.1-2.7s8.1-2.1,9.5-3.8c1.4-1.7,3.1-4.4,2.9-7.6s0-6.1,0-6.6C174.1,75.8,118,71,105.4,77.7z"/>
			<path fill="#6D3F0F" d="M29.3,114.2l6,14.9c0,0,17.4-5.4,35.5-5.6s25.3,1.8,35,3.1c9.8,1.3,45.7,5.8,52.1,6.4
				c6.4,0.7,26.1,3.7,42.2,3.7c16.1,0,37.5-0.7,43.6-1.7c6-1,18.3-4.8,18.3-4.8v-18.6c0,0-5.5-7-11.6-8.4s-15.5-3.7-18-5.2
				c-2.5-1.5-6.2-4.7-6.8-5.4c-0.6-0.7-2.2-3.2-2.2-3.2l-4.8-0.8c0,0-10.4,16.5-25.8,16.5s-25.1-12.6-25.1-12.6s-6.9,2.1-8.7,2.6
				c-1.8,0.5-4.3,1-6.8,1.1c-2.4,0.1-5.2,0.2-8.4,0.9c-3.2,0.7-4.5,1.9-8.1,1.7c-3.6-0.2-8-1.1-9.8-1.8s-10-4.2-13.5-6.9
				c-3.5-2.8-6.6-5.5-6.6-5.5l-50.3,2c0,0-2,3.7-4.6,6.7s-7.3,6.9-9.7,8.7c-2.4,1.8-8.8,7.8-9.3,8.4C31.5,111,29.3,114.2,29.3,114.2
				z"/>
			<path fill="#D17911" d="M19.3,150.4c0,0-7.3,14.2-7.5,14.8c-0.3,0.5-4,5.8-3.4,8.2s-1.6,4.3,0.9,5.3c2.5,1,3.9,1.4,6.5,1.3
				c2.7-0.1,6.9-0.8,10.6-0.6c3.7,0.3,109.6,3.9,109.6,3.9s31.6,2.5,43.8,0.8c12.2-1.7,18.7-1.7,28.4-4.3c9.7-2.6,17.5-2.9,24.7-3
				c7.3-0.1,9.9-0.4,18.2,0.2c8.3,0.6,16.9,1.2,22.9,0.4c6-0.8,16.5-1.6,16-2.4c-0.5-0.8-0.9-2.2-1.8-3c-0.9-0.8-10.9-7.3-18.4-8.1
				c-7.5-0.8-8.8-0.9-8.8-0.9l-9.2,7.1c0,0-17.5-6.5-27.3-7.9c-9.7-1.4-27.5-5.1-32.6-4.4c-5.1,0.7-12.9-0.2-22.1,4.6
				s-27.8,16.8-27.8,16.8s-8.9-9.7-16.4-13.4c-7.5-3.7-14.7-7.5-25.6-6.2s-29.8,5-29.8,5s-20.1-8.2-27.1-8.3
				c-7-0.1-19.4,0.6-19.4,0.6L19.3,150.4z"/>
			<path fill="#F39205" d="M24.9,179.4c0,0,76.9,2.9,77.4,2.9c0.5,0,40.4,1.7,48,1.9c7.6,0.2,28.8,1.8,37.8,0
				c9-1.8,25.8-5.9,33.6-6.5s30.1-0.2,36,0c5.9,0.2,10.8,1.7,17.5-0.3c6.7-2,14.3-2.9,14.3-2.9s3.2,4.2,1.2,13
				c-2.1,8.7-9,30.2-21.2,37.9c-12.2,7.6-26.3,15.3-44.6,17.1s-65.4,5.2-77.4,5.9c-12,0.7-54.9-1.1-71.5-8.5s-23.1-7.2-32-17.7
				c-8.9-10.6-14.9-16-14.8-21c0.1-5.1-0.3-6.3-0.8-9S23.4,180.8,24.9,179.4z"/>
			<path fill="#F8AA34" d="M22.7,92.6c0,0,18.5-4.9,26.2-5.6c7.7-0.7,30.7-1.3,39.5-1.7s35.5-1.7,45-2.5c9.5-0.8,23.2-2.1,28.5-2
				c5.3,0.1,9.5-0.2,19.5,1.5c10,1.6,26.5,4.5,26.5,4.5s29.4,5,34.6,5.8s14,1.7,14,1.7s0.5-30.2-2-38.8s-7.3-27.1-16.9-32.7
				C228.1,17.2,221,10.2,204.1,8s-25.6-4.8-42.1-4.6c-16.5,0.2-41.2,0-57.1,5.2s-26.6,8.6-32.6,13.8c-6,5.2-15.5,9-28.4,26.4
				S29.3,73.4,27.4,78.3C25.5,83.2,21.8,92.9,22.7,92.6z"/>
			<path fill="none" stroke="#000000" stroke-linecap="round" stroke-linejoin="round" stroke-miterlimit="10" d="M290,174.2
				c0,0-11.6,4.9-31.5,3.4s-37.6-1.2-54.3,3.2s-38.7,4.2-70.3,2.7c-31.7-1.5-67.3-2-80-2.7s-30-1.5-30-1.5s6.1,9.9,5.6,18.2
				s15.8,31,35.4,38.2c19.6,7.2,43.9,15.1,100.5,11.6c56.5-3.6,91.1-7.4,108.2-26C290.6,202.8,293.1,182.5,290,174.2z"/>
			<path fill="none" stroke="#000000" stroke-linecap="round" stroke-linejoin="round" stroke-miterlimit="10" d="M290,174.2
				c0,0-6.2-10.2-29-11.1l-9.2,7.1c0,0-16.9-6.8-32.7-8.7c-15.8-2-35.9-5.4-47.1,0c0,0-21.8,10.7-29.9,17.9c0,0-18.9-21.8-40.3-19.8
				s-31.5,5.1-31.5,5.1s-25.9-11.6-46.5-7.7c0,0-9.7-11.7-9-20.5"/>
			<path fill="none" stroke="#000000" stroke-linecap="round" stroke-linejoin="round" stroke-miterlimit="10" d="M23.8,179.3
				c0,0-14.6,2.6-15.8-2.4c-1.1-5,8.8-20.4,11.3-26.5"/>
			<path fill="none" stroke="#000000" stroke-linecap="round" stroke-linejoin="round" stroke-miterlimit="10" d="M22.2,92.8
				c0,0,19.5-6.5,40.6-6.7c21.1-0.2,59.2-2.3,74.9-3.6c15.7-1.3,26.4-3.4,52.2,1.1c25.7,4.6,62.1,11,66.7,10.7c0,0,4-48-16-68.9
				S171.4,1.6,133.6,4.1S44.7,20.8,22.2,92.8z"/>
			<path fill="none" stroke="#000000" stroke-linecap="round" stroke-linejoin="round" stroke-miterlimit="10" d="M55.8,86.4
				c0,0-4.6,8.3-10.7,12.9s-14.8,10.5-17.2,18.3s-5.7,18.9-5.7,18.9s-9.3,2.9-15.8-5.5s-0.9-29.8,15.8-38.1"/>
			<path fill="none" stroke="#000000" stroke-linecap="round" stroke-linejoin="round" stroke-miterlimit="10" d="M105.4,84.5
				c0,0,20,17.4,33.4,13.9s13.9-1,21-3.5c7.1-2.5,14.7-1.8,14.3-13.5"/>
			<path fill="none" stroke="#000000" stroke-linecap="round" stroke-linejoin="round" stroke-miterlimit="10" d="M167.9,92.5
				c0,0,10.5,12.6,25.1,12.6S218.7,89,218.7,89"/>
			<path fill="none" stroke="#000000" stroke-linecap="round" stroke-linejoin="round" stroke-miterlimit="10" d="M262.1,111.7v18.6
				c0,0-16.2,9.8-76.3,5.3c-60.1-4.5-104.2-14.9-126.4-11.4c-22.1,3.5-24,4.9-24,4.9s-5.9-11.3-6-14.9c0,0,17.5-16.6,55.3-9.1
				C122.4,112.6,148.7,128.1,262.1,111.7c0,0-6.2-8.2-16.2-9.5c-10-1.4-17.6-4.9-22.6-12.7"/>
			<path fill="none" stroke="#000000" stroke-linecap="round" stroke-linejoin="round" stroke-miterlimit="10" d="M261,163.1
				c0,0,14.1-4,14.3-12.2c0.2-8.2-20.4-17.9-20.4-17.9"/>
			<path fill="none" stroke="#000000" stroke-linecap="round" stroke-linejoin="round" stroke-miterlimit="10" d="M117.4,224.7
				c0,0-10.5,4.6-18.3,3.4"/>
			<path fill="none" stroke="#000000" stroke-linecap="round" stroke-linejoin="round" stroke-miterlimit="10" d="M199.7,221.4
				c0.6,0.1,5.2,1.6,12.4,1"/>
			
				<line fill="none" stroke="#000000" stroke-linecap="round" stroke-linejoin="round" stroke-miterlimit="10" x1="168.9" y1="144.7" x2="161.1" y2="147.9"/>
			<path fill="none" stroke="#000000" stroke-linecap="round" stroke-linejoin="round" stroke-miterlimit="10" d="M198.8,149.9
				c0,0,2,1.7,8,0.5"/>
			<path fill="none" stroke="#000000" stroke-linecap="round" stroke-linejoin="round" stroke-miterlimit="10" d="M126.6,146
				c0,0-1.9-2.6-5.9-3"/>
			
				<line fill="none" stroke="#000000" stroke-linecap="round" stroke-linejoin="round" stroke-miterlimit="10" x1="105.9" y1="150.8" x2="98.7" y2="149.9"/>
			<path fill="none" stroke="#000000" stroke-linecap="round" stroke-linejoin="round" stroke-miterlimit="10" d="M85.3,139.3
				c0,0-5.3-3.6-8.9,2.5"/>
			<path fill="none" stroke="#000000" stroke-linecap="round" stroke-linejoin="round" stroke-miterlimit="10" d="M66.1,151.5
				c0,0-5-0.4-6.7-1"/>
			<path fill="none" stroke="#000000" stroke-linecap="round" stroke-linejoin="round" stroke-miterlimit="10" d="M56.4,137.8
				c0,0-6.6-7.3-13.9,0"/>
			<path fill="none" stroke="#000000" stroke-linecap="round" stroke-linejoin="round" stroke-miterlimit="10" d="M18.4,114.3
				c0,0-2.9-0.3-2.5-2.7"/>
			
				<line fill="none" stroke="#000000" stroke-linecap="round" stroke-linejoin="round" stroke-miterlimit="10" x1="25.5" y1="103.3" x2="29.3" y2="103.3"/>
			
				<line fill="none" stroke="#000000" stroke-linecap="round" stroke-linejoin="round" stroke-miterlimit="10" x1="63.4" y1="93.3" x2="71.9" y2="95.8"/>
			<path fill="none" stroke="#000000" stroke-linecap="round" stroke-linejoin="round" stroke-miterlimit="10" d="M181.8,90.1
				c0,0,2.2,3.3-1.4,5"/>
			<path fill="none" stroke="#000000" stroke-linecap="round" stroke-linejoin="round" stroke-miterlimit="10" d="M196.9,92.8
				c0,0,4,1.4,5.4,3.2c0,0-0.8-3.7-3.8-5.9"/>
			
				<line fill="none" stroke="#000000" stroke-linecap="round" stroke-linejoin="round" stroke-miterlimit="10" x1="148.7" y1="62.3" x2="152.6" y2="64"/>
			
				<line fill="none" stroke="#000000" stroke-linecap="round" stroke-linejoin="round" stroke-miterlimit="10" x1="214.1" y1="70.5" x2="215.6" y2="71.2"/>
			
				<line fill="none" stroke="#000000" stroke-linecap="round" stroke-linejoin="round" stroke-miterlimit="10" x1="220.9" y1="142.6" x2="222.5" y2="143.4"/>
			
				<line fill="none" stroke="#000000" stroke-linecap="round" stroke-linejoin="round" stroke-miterlimit="10" x1="233.3" y1="53.5" x2="234.9" y2="55.6"/>
			<path fill="none" stroke="#000000" stroke-linecap="round" stroke-linejoin="round" stroke-miterlimit="10" d="M247.1,60.8
				c0,0-0.5,3.5-1.5,5.3"/>
			
				<line fill="none" stroke="#000000" stroke-linecap="round" stroke-linejoin="round" stroke-miterlimit="10" x1="202.4" y1="25.5" x2="200.2" y2="26"/>
			
				<line fill="none" stroke="#000000" stroke-linecap="round" stroke-linejoin="round" stroke-miterlimit="10" x1="184.3" y1="44" x2="181.8" y2="44"/>
			
				<line fill="none" stroke="#000000" stroke-linecap="round" stroke-linejoin="round" stroke-miterlimit="10" x1="145.5" y1="23.3" x2="143" y2="23.3"/>
			
				<line fill="none" stroke="#000000" stroke-linecap="round" stroke-linejoin="round" stroke-miterlimit="10" x1="115.1" y1="48" x2="112.5" y2="48"/>
			
				<line fill="none" stroke="#000000" stroke-linecap="round" stroke-linejoin="round" stroke-miterlimit="10" x1="109.8" y1="20.1" x2="107.3" y2="20.1"/>
			
				<line fill="none" stroke="#000000" stroke-linecap="round" stroke-linejoin="round" stroke-miterlimit="10" x1="75.1" y1="48.2" x2="73.3" y2="46.3"/>
			
				<line fill="none" stroke="#000000" stroke-linecap="round" stroke-linejoin="round" stroke-miterlimit="10" x1="91.6" y1="64.9" x2="89.8" y2="63.1"/>
			
				<line fill="none" stroke="#000000" stroke-linecap="round" stroke-linejoin="round" stroke-miterlimit="10" x1="48.9" y1="72.1" x2="47.1" y2="70.3"/>
			
				<line fill="none" stroke="#000000" stroke-linecap="round" stroke-linejoin="round" stroke-miterlimit="10" x1="191.4" y1="163.1" x2="189.8" y2="164.7"/>
			<circle cx="180.6" cy="173.4" r="0.9"/>
			<circle cx="162" cy="199" r="1.1"/>
			<circle cx="204.7" cy="202.2" r="1.3"/>
			<circle cx="236.8" cy="196.3" r="1"/>
			<circle cx="255.8" cy="201.1" r="1.4"/>
			<circle cx="246.3" cy="226.1" r="1.4"/>
			<circle cx="183.5" cy="231.2" r="1.4"/>
			<circle cx="131.2" cy="217.5" r="0.6"/>
			<circle cx="68" cy="216.2" r="1"/>
			<circle cx="62.6" cy="194.6" r="1.3"/>
			<circle cx="101.4" cy="199.7" r="1.8"/>
			<path fill="none" stroke="#000000" stroke-linecap="round" stroke-linejoin="round" stroke-miterlimit="10" d="M152.4,239.7
				c-0.6,0-5.4,0.6-5.4,0.6"/>
		</g>
		<path fill="url(#New_Pattern_Swatch_2)" d="M29.3,114.5l2.6,7.6c0,0-2.8,1-3.3,6s-1.3,10.3-2.4,10.9S14.8,140,14.8,140l0-3.5
			l7.1,0.1c0,0,3.9-13.1,4.3-13.6S27.6,115.6,29.3,114.5z"/>
		<path fill="url(#New_Pattern_Swatch_2)" d="M167.9,92.5c0,0,8.5,18.2,22,18.2s36.3-17.6,36.3-17.6l-2.6-3.6l-4.8-0.8
			c0,0-10.6,16.4-27.4,16.4S167.9,92.5,167.9,92.5z"/>
		<path fill="url(#New_Pattern_Swatch_2)" d="M52.3,91.7c0,0,20.5,1.2,25.9,0c5.4-1.2,34.3-1.5,34.3-1.5l-6.6-5.5L71.2,86l-15.4,0.4
			L52.3,91.7z"/>
		<path fill="url(#New_Pattern_Swatch_2)" d="M142.1,179.4c0,0,29.3-15.5,48.5-15.5s61.2,6.3,61.2,6.3s-29.7-11.9-65.7-11.9
			C186.1,158.3,169.9,157.8,142.1,179.4z"/>
		<path fill="url(#New_Pattern_Swatch_2)" d="M135,172.6c0,0-31.6-13.4-65.6-3.7c0,0-29-10.5-46.1-7.8l-5.9-6.7l1.8-3.9l4.5,6.5
			c0,0,23.3-3.3,46.4,7.8C70.2,164.7,113.5,149.9,135,172.6z"/>
		<path fill="url(#New_Pattern_Swatch_2)" d="M255.9,94.4l-28.7-4.2c0,0,17.8,2.9,19.2-1.7c1.4-4.6,2.9-6,3.9-12s2-8.6,1.3-15.8
			c-0.7-7.2,0.7-12.8,0.7-12.8S259.9,74.8,255.9,94.4z"/>
		<path fill="url(#New_Pattern_Swatch_2)" d="M149.1,132.1c0,0,62,24.3,110.9,3.5l-5.2-2.7C254.8,132.9,213.3,143.1,149.1,132.1z"/>
	</g>
</g>
</svg>
