<?xml version="1.0" encoding="utf-8"?>
<!-- Generator: Adobe Illustrator 18.0.0, SVG Export Plug-In . SVG Version: 6.00 Build 0)  -->
<!DOCTYPE svg PUBLIC "-//W3C//DTD SVG 1.1//EN" "http://www.w3.org/Graphics/SVG/1.1/DTD/svg11.dtd">
<svg version="1.1" id="Layer_1" xmlns="http://www.w3.org/2000/svg" xmlns:xlink="http://www.w3.org/1999/xlink" x="0px" y="0px"
	 viewBox="0 0 280.3 249.6" enable-background="new 0 0 280.3 249.6" xml:space="preserve">
<pattern  x="0" y="325.8" width="21.7" height="27.1" patternUnits="userSpaceOnUse" id="New_Pattern_Swatch_2" viewBox="0.2 -27.3 21.7 27.1" overflow="visible">
	<g>
		<polygon fill="none" points="0.2,-0.2 21.9,-0.2 21.9,-27.3 0.2,-27.3 		"/>
		<path d="M0.7-26.4c0.3-0.1,0.7-0.1,1-0.2c0.5-0.1,0.3-0.8-0.2-0.7c-0.3,0.1-0.7,0.1-1,0.2C0-27,0.2-26.3,0.7-26.4z"/>
		<path d="M2.6-23.9c0.3,0,0.7,0,1,0c0.5,0,0.5-0.8,0-0.8c-0.3,0-0.7,0-1,0C2.1-24.7,2.1-23.9,2.6-23.9z"/>
		<path d="M5.6-26.5c0.5,0.3,1,0.7,1.5,1c0.4,0.3,0.8-0.4,0.4-0.6c-0.5-0.3-1-0.7-1.5-1C5.6-27.4,5.2-26.8,5.6-26.5z"/>
		<path d="M11-24c0.4,0.1,0.6,0.4,0.7,0.8c0.1,0.5,0.8,0.3,0.7-0.2c-0.2-0.6-0.6-1.1-1.3-1.3C10.7-24.8,10.5-24.1,11-24z"/>
		<path d="M7.2-22.6c0,0.4,0.3,0.8,0.7,0.9c0.5,0.1,0.7-0.6,0.2-0.7C8.1-22.5,8-22.5,8-22.6C7.9-23,7.2-23,7.2-22.6z"/>
		<path d="M2.6-20.4c0.3,0,0.5,0,0.8,0c0.5,0,0.5-0.8,0-0.8c-0.3,0-0.5,0-0.8,0C2.1-21.2,2.1-20.4,2.6-20.4z"/>
		<path d="M6.4-15.5c-1.2-0.3-2.4-0.6-3.5-0.9c-0.5-0.1-0.7,0.6-0.2,0.7c1.2,0.3,2.4,0.6,3.5,0.9C6.7-14.7,6.9-15.4,6.4-15.5z"/>
		<path d="M11.9-18.6c0-0.3,0-0.5,0-0.8c0-0.5-0.8-0.5-0.8,0c0,0.3,0,0.5,0,0.8C11.2-18.1,11.9-18.1,11.9-18.6z"/>
		<path d="M5.2-19c0.6,0.2,1.1,0.4,1.7,0.6c0.5,0.2,0.7-0.6,0.2-0.7c-0.6-0.2-1.1-0.4-1.7-0.6C5-19.9,4.8-19.2,5.2-19z"/>
		<path d="M8.8-10.9c0.3,0.4,0.9,0,0.6-0.4c-0.2-0.3-0.3-0.5-0.5-0.8c-0.3-0.4-0.9,0-0.6,0.4C8.4-11.4,8.6-11.1,8.8-10.9z"/>
		<path d="M2.5-12.8c0.4,0.3,0.9-0.2,0.5-0.5c-0.4-0.3-0.8-0.7-1.3-1c-0.4-0.3-0.9,0.2-0.5,0.5C1.7-13.4,2.1-13.1,2.5-12.8z"/>
		<path d="M3.2-8.6c0,0.8,0,1.5,0,2.3c0,0.5,0.8,0.5,0.8,0c0-0.8,0-1.5,0-2.3C3.9-9,3.2-9,3.2-8.6z"/>
		<path d="M6.1-10.5c-0.2-0.4-0.5-0.8-0.7-1.3c-0.2-0.4-0.9,0-0.6,0.4c0.2,0.4,0.5,0.8,0.7,1.3C5.7-9.7,6.4-10.1,6.1-10.5z"/>
		<path d="M6.4-7.2c0.3,0.8,0.6,1.6,0.8,2.5c0.2,0.5,0.9,0.3,0.7-0.2C7.7-5.7,7.4-6.6,7.1-7.4C7-7.8,6.2-7.7,6.4-7.2z"/>
		<path d="M11-7.1c0.1,0.5,0.8,0.5,0.8,0c-0.1-0.6-0.3-1.1-0.6-1.5c-0.3-0.4-0.8,0.2-0.5,0.5C10.8-7.8,10.9-7.4,11-7.1z"/>
		<path d="M13.7-10.7c-0.1-0.4-0.2-0.8-0.3-1.2c-0.1-0.5-0.8-0.3-0.7,0.2c0.1,0.4,0.2,0.8,0.3,1.2C13.1-10,13.8-10.2,13.7-10.7z"/>
		<path d="M17.7-15.5c0.5,0.1,0.9,0.4,1.3,0.9c0.3,0.4,0.9,0,0.6-0.4c-0.4-0.6-1-1-1.7-1.2C17.4-16.3,17.3-15.6,17.7-15.5z"/>
		<path d="M20.7-10.3c0,0.5,0,1,0,1.5c0,0.5,0.8,0.5,0.8,0c0-0.5,0-1,0-1.5C21.4-10.8,20.7-10.8,20.7-10.3z"/>
		<path d="M18.7-4.2c0.1,0.5,0.8,0.3,0.7-0.2c-0.1-0.4,0-0.8,0.2-1.2C19.8-6.1,19.2-6.4,19-6C18.7-5.4,18.6-4.9,18.7-4.2z"/>
		<path d="M15.9-10.1c0,0.2,0,0.3,0,0.5c0,0.5,0.8,0.5,0.8,0c0-0.2,0-0.3,0-0.5C16.7-10.5,15.9-10.5,15.9-10.1z"/>
		<path d="M11.3-15.6c0.5,0.8,1.4,1.3,2.3,1.2c0.5,0,0.5-0.8,0-0.8c-0.7,0-1.3-0.2-1.7-0.8C11.7-16.4,11-16.1,11.3-15.6z"/>
		<path d="M9.4-13.8c0-0.3,0-0.5,0-0.8c0-0.5-0.8-0.5-0.8,0c0,0.3,0,0.5,0,0.8C8.7-13.3,9.4-13.3,9.4-13.8z"/>
		<path d="M9.3-17.2c0.5,0,0.5-0.8,0-0.8S8.8-17.2,9.3-17.2z"/>
		<path d="M17.2-13.3c-0.3-0.1-0.5-0.2-0.8-0.2c-0.5-0.1-0.7,0.6-0.2,0.7c0.3,0.1,0.5,0.2,0.8,0.2C17.4-12.4,17.6-13.1,17.2-13.3z"
			/>
		<path d="M14-17.7c0.2,0.1,0.5,0.2,0.7,0.3c0.5,0.2,0.6-0.5,0.2-0.7c-0.2-0.1-0.5-0.2-0.7-0.3C13.7-18.6,13.5-17.9,14-17.7z"/>
		<path d="M16-21.3c0.3,0.1,0.7,0.2,1,0.3c0.5,0.1,0.7-0.6,0.2-0.7c-0.3-0.1-0.7-0.2-1-0.3C15.7-22.1,15.5-21.4,16-21.3z"/>
		<path d="M20.2-16.5c0.3,0.4,0.8-0.2,0.5-0.5c-0.3-0.3-0.5-0.6-0.8-0.9c-0.3-0.4-0.8,0.2-0.5,0.5C19.7-17.1,20-16.8,20.2-16.5z"/>
		<path d="M21.9-13.1c0-0.1,0-0.2,0-0.3c0-0.5-0.8-0.5-0.8,0c0,0.1,0,0.2,0,0.3C21.2-12.6,21.9-12.6,21.9-13.1z"/>
		<path d="M19.3-11.4c0.5,0,0.5-0.8,0-0.8S18.8-11.4,19.3-11.4z"/>
		<path d="M13.6-19.7c0.4,0.3,0.8-0.4,0.4-0.6c-0.3-0.3-0.7-0.5-1-0.8c-0.4-0.3-0.8,0.4-0.4,0.6C12.9-20.2,13.3-20,13.6-19.7z"/>
		<path d="M4.5-2.5c0.1,0.1,0.2,0.2,0.3,0.3C5.1-2,5.7-2.5,5.3-2.8C5.2-2.9,5.2-3,5.1-3.1C4.7-3.4,4.2-2.9,4.5-2.5z"/>
		<path d="M9.6-4.7c0.1,0.4,0.2,0.8,0.3,1.2C10-3,10.8-3.2,10.7-3.7c-0.1-0.4-0.2-0.8-0.3-1.2C10.3-5.4,9.5-5.2,9.6-4.7z"/>
		<path d="M14.9-4.1C14.8-4.6,14-4.4,14.1-4c0.1,0.3,0.2,0.7,0.3,1c0.1,0.5,0.8,0.3,0.7-0.2C15-3.5,15-3.8,14.9-4.1z"/>
		<path d="M14.8-7.2c-0.3,0-0.5-0.2-0.5-0.5c0.1-0.5-0.6-0.7-0.7-0.2c-0.1,0.8,0.4,1.5,1.2,1.5C15.3-6.4,15.3-7.2,14.8-7.2z"/>
		<path d="M16.4-3.6c-0.1,1,0,2.1,0.3,3.1c0.1,0.5,0.9,0.3,0.7-0.2c-0.3-1-0.3-1.9-0.2-2.9C17.2-4,16.5-4,16.4-3.6z"/>
		<path d="M21.9-4.6c0-0.5-0.8-0.5-0.8,0c0,0.5,0,1,0,1.5c0,0.5,0.8,0.5,0.8,0C21.9-3.6,21.9-4.1,21.9-4.6z"/>
	</g>
</pattern>
<g>
	<path fill="#F79323" d="M101.9,86c0,0,9.1,6.9,9.5,7.1s7.9,4.4,10.3,5.2s5.2,2.1,8.7,2.1c3.4-0.1,3.8-0.1,7.1-1.1s4.5-1.7,9.4-1.6
		s4.7,0.6,7-0.3s9.8-2.4,11.5-3.9c1.7-1.5,4.8-3.9,5-6.4c0.2-2.5,3.8-3.6-2-4.4C162.6,82,106.7,83.9,101.9,86z"/>
	<path fill="#FFFFFF" d="M170.6,83c0,0,0.3,3.8-0.7,5.7c-0.9,1.9-2.2,3.8-3.8,4.5c-1.6,0.8-1.9,0.9-1.9,0.9s5,4.7,6.3,5.7
		c1.4,1,8.1,6.1,14.1,6.5s10.2,0.5,14.4-1.8c4.2-2.3,9.4-6.1,11.4-8.4c2-2.3,4.7-5.8,4.7-5.8S174.1,82.6,170.6,83z"/>
	<path fill="#FFFFFF" d="M17.7,94.9c0,0-8.8,5-12.6,12c-3.7,7.1-6.4,13.4-4.6,20.6c1.9,7.2,5.3,8.3,6.4,8.9s3.7,2,6.9,2.2
		s4.5,0.4,5.1-1.7s4.4-15.1,5-16.6c0.6-1.5,2.2-5.2,4.3-7.9c2-2.7,6.4-6.1,8.8-8c2.5-1.9,9.2-7.4,10.7-9.5c1.4-2.1,4.5-6.8,4.5-6.8
		S21.7,92.2,17.7,94.9z"/>
	<path fill="#643C12" d="M25.8,115.8c0,0,0.7,3,2,6.3c1.3,3.2,4,8.7,4,8.7s8.7-2.7,17.3-3.9s16.1-2.1,25.1-1.4
		c9.1,0.7,37.8,4.1,37.8,4.1s36.4,4.5,37.6,4.6c1.1,0.1,19,2.1,26.9,2.7c7.8,0.6,27.1,1.6,34,1.6c6.9,0,21.6-0.4,30.3-1.9
		c8.7-1.5,17.2-3.5,17.7-4.6v-18.7c0,0-1.3-3.3-3.5-5.1c-2.2-1.8-5.4-2.5-8.3-3.9s-5.4-1.8-6-3.6c-0.6-1.8-2.5-6.4-2.5-6.4
		l-23.1-3.9c0,0-11,16.2-24.5,16.5c-13.5,0.2-20.1-6.7-21.6-8.1s-4.5-4.7-4.5-4.7s-4.4,1.2-6.6,1.9c-2.2,0.7-2.6,1.7-5.5,1.6
		c-2.9-0.1-6,0.3-8.4,0.7s-7.2,1.5-8.8,1.8c-1.6,0.3-3.7,0.6-4.9,0.4s-6-0.4-11.3-3.2c-5.3-2.8-14.9-9.3-14.9-9.3l-1.8-1.8L82,87
		c0,0-24.6,0.6-26.4,0.7s-3.3,0.2-3.3,0.2s-5,8.5-9.9,12.2C37.5,103.9,27.1,111.8,25.8,115.8z"/>
	<path fill="#F0D5B9" d="M25.8,116.2c0,0,2.1,6.4,3,8.3c0.9,1.9,3,6.2,3,6.2s18.2-4.6,25.5-5.1c7.3-0.5,11.7-0.8,20.4,0
		c8.8,0.8,39.1,4.5,39.1,4.5l28.7,3.6c0,0,25,2.6,29.8,3c4.8,0.4,21.8,1.7,30.1,1.7s22.3-0.4,25.5-0.7s13.7-1.7,13.7-1.7l6.7-1.5
		l6.2,3.3c0,0,8.3,4.8,9.9,6.8c1.6,2,4.7,4.8,4.3,7.4c-0.4,2.7-0.7,5.1-2.9,6.5c-2.2,1.3-8,5-9.1,5.4c-1.1,0.4-2.8,0.8-3.2,1.3
		s-8.5,6.6-8.5,6.6s-16.6-6.1-20.8-6.7c-4.3-0.7-25.3-4-33.7-4.4s-16.6-0.4-19.9,0.4s-5.1,2-7.4,2.8c-2.3,0.8-16.7,5.2-18.9,6.2
		c-2.1,1-17.8,7.6-19.5,8.7c-1.7,1.1-3.3,1.9-3.3,1.9s-2.5-7-4.5-9.5s-5.3-7.8-12.8-9.4s-13.4,0-16.5,0.3
		c-3.1,0.3-23.9,4.3-23.9,4.3s-15.1-5.6-24.9-7.4s-21.6-0.4-21.6-0.4s-4.6-6-6-9.3s-3.8-10.9-3-11.2c0,0,3.5,0.4,4.9,0.3
		c1.4-0.1,2.5-0.3,2.5-0.3S24.5,117,25.8,116.2z"/>
	<path fill="#CD7A28" d="M66.8,166.3c0,0-15.4-5.8-24.9-7.4s-21.6-0.4-21.6-0.4l-4.5-6.5c0,0-3.3,6.4-4.6,8.9
		c-1.4,2.5-6.1,10.7-6.3,13c-0.2,2.4-0.8,3.5,0,5.1c0.8,1.6,1.8,1.9,1.8,1.9l123.7,4.7c0,0,17.3,0.6,26.7,0.3
		c9.4-0.4,17.8-1,24.8-2.4c7-1.4,18.2-4,23.9-4c5.7,0,27.2-0.4,27.2-0.4s19.3,0.1,21.3,0.1c2.1,0,6.5-0.2,12.1-1.4s6.1-1.6,6.2-2.7
		c0.1-1,0.3-5.4-2.6-7.1c-2.9-1.7-5-2.6-6.9-2.8c-2-0.3-5.3-0.5-5.3-0.5l-9.7,7.1c0,0-15.5-5.2-19.7-6.2c-4.2-1-18.3-3.2-24.2-3.9
		c-5.9-0.7-16-1.7-20.7-1.4c-4.7,0.3-8.8,0.8-17.3,3.6c-8.5,2.7-23.6,8-27.6,9.8c-4,1.7-14,7.4-14,7.4s-1.7-5.9-3.8-8.8
		c-2.1-2.9-7-9.7-14.8-10.7s-20.6,1.1-24.6,1.7C77.3,163.9,66.8,166.3,66.8,166.3z"/>
	<path fill="#F79323" d="M6.7,180.9c0,0,44,2,54.1,2.2c10.1,0.3,56.1,1.9,56.1,1.9s26.3,1.2,35.6,1c9.2-0.2,21.6-1.1,26-1.9
		c4.4-0.8,16.5-3.7,24.9-4.2c8.4-0.5,26.9-0.9,30.8-0.8c3.9,0,22.4,0.3,25.8-0.2c3.5-0.5,12.6-3.1,12.6-3.1s2.3,8.5-0.4,18.4
		c-2.7,9.9-8.8,19.9-11.9,23.6s-12.1,14.1-24,18c-11.9,3.9-24.8,7.4-40.6,9c-15.8,1.6-46.7,4-52.7,4.3c-6,0.3-31.3,0.8-39.7,0.1
		s-26.5-2.8-35.4-5.3c-8.8-2.5-27.4-8.4-34.1-14.1S19,216.6,15.8,210s-4.2-8.3-3.9-11.3c0.3-3.1-1.2-7.9-1.8-9.7
		S6.7,180.9,6.7,180.9z"/>
	<path fill="#FAA840" d="M18.7,94.4c0,0,12.5-3.7,20.2-4.8s14.9-1.8,19.7-1.9c4.7-0.1,21.6-0.5,26.6-0.8c5.1-0.2,33.6-1.8,36.8-2
		c3.2-0.2,22.7-2,27.5-2.2s14.7-0.5,21.2,0.3c6.5,0.8,19.2,2.8,25,3.9c5.9,1,30.4,5.3,30.4,5.3s16.6,2.7,20,3.1
		c3.4,0.4,6.9,0.7,6.9,0.7s0.4-11.1,0.3-14.8s-1.3-18.3-2.6-24s-4.2-17.1-8.1-22.7c-3.9-5.6-9.9-12.8-17.8-16.4s-17-7.2-25.1-8.7
		S180,5.9,171,5.5c-9-0.4-26.5-0.3-33.9-0.2c-7.4,0.1-24.9,2.1-32,4s-18.1,5-24.6,8.3s-15.7,8.5-20.9,12.9
		c-5.2,4.4-10.4,8.7-15.1,14.7s-9.6,13.1-11.3,16c-1.7,2.9-8.9,16.7-9.7,19.7C22.7,83.7,18.6,93.9,18.7,94.4z"/>
	<g>
		<g>
			<path fill="none" stroke="#000000" stroke-linecap="round" stroke-linejoin="round" stroke-miterlimit="10" d="M272.5,175.7
				c-5.7,2.4-13,3.4-17.5,3.4c-20,0.1-51.6-1.2-68.3,3.2c-16.7,4.4-38.7,4.2-70.3,2.7c-31.7-1.5-67.3-2-80-2.7
				c-12.7-0.7-30-1.5-30-1.5s6.1,9.9,5.6,18.2s15.8,31,35.4,38.2s43.9,15.1,100.5,11.6c56.5-3.6,91.1-7.4,108.2-26
				S275.6,184,272.5,175.7z"/>
			<path fill="none" stroke="#000000" stroke-linecap="round" stroke-linejoin="round" stroke-miterlimit="10" d="M272.5,175.7
				c0,0,3.4-11.1-15-11.1l-9.2,7.1c0,0-16.9-6.8-32.7-8.7c-15.8-2-35.9-5.4-47.1,0c0,0-35.8,10.7-43.9,17.9c0,0-4.9-21.8-26.3-19.8
				s-31.5,5.1-31.5,5.1s-25.9-11.6-46.5-7.7c0,0-9.7-11.7-9-20.5"/>
			<path fill="none" stroke="#000000" stroke-linecap="round" stroke-linejoin="round" stroke-miterlimit="10" d="M6.3,180.9
				c0,0-1.1,0.5-1.9-3.5c-1-5,8.9-19.3,11.4-25.4"/>
			<path fill="none" stroke="#000000" stroke-linecap="round" stroke-linejoin="round" stroke-miterlimit="10" d="M18.7,94.4
				c0,0,19.5-6.5,40.6-6.7c21.1-0.2,59.2-2.3,74.9-3.6s26.4-3.4,52.2,1.1s62.1,11,66.7,10.7c0,0,4-48-16-68.9S167.9,3.1,130.1,5.7
				S41.2,22.3,18.7,94.4z"/>
			<path fill="none" stroke="#000000" stroke-linecap="round" stroke-linejoin="round" stroke-miterlimit="10" d="M52.3,87.9
				c0,0-4.6,8.3-10.7,12.9s-14.8,10.5-17.2,18.3s-5.7,18.9-5.7,18.9s-9.3,2.9-15.8-5.5S2,102.7,18.7,94.4"/>
			<path fill="none" stroke="#000000" stroke-linecap="round" stroke-linejoin="round" stroke-miterlimit="10" d="M101.9,86.1
				c0,0,20,17.4,33.4,13.9c13.4-3.5,13.9-1,21-3.5c7.1-2.5,14.7-1.8,14.3-13.5"/>
			<path fill="none" stroke="#000000" stroke-linecap="round" stroke-linejoin="round" stroke-miterlimit="10" d="M164.4,94.1
				c0,0,10.5,12.6,25.1,12.6s25.8-16.1,25.8-16.1"/>
			<path fill="none" stroke="#000000" stroke-linecap="round" stroke-linejoin="round" stroke-miterlimit="10" d="M258.6,113.2v18.6
				c0,0-16.2,9.8-76.3,5.3S78,122.4,55.9,125.8c-22.1,3.5-24,4.9-24,4.9s-5.9-11.3-6-14.9c0,0,17.5-16.6,55.3-9.1
				C118.9,114.2,145.2,129.7,258.6,113.2c0,0-3.2-6.3-6.2-7.2c-9.8-3.1-11.4-4.3-14.1-11.9"/>
			<path fill="none" stroke="#000000" stroke-linecap="round" stroke-linejoin="round" stroke-miterlimit="10" d="M257.5,164.7
				c0,0,14.1-4,14.3-12.2c0.2-8.2-20.4-17.9-20.4-17.9"/>
			<path fill="none" stroke="#000000" stroke-linecap="round" stroke-linejoin="round" stroke-miterlimit="10" d="M99.9,226.2
				c0,0-10.5,4.6-18.3,3.4"/>
			<path fill="none" stroke="#000000" stroke-linecap="round" stroke-linejoin="round" stroke-miterlimit="10" d="M182.2,222.9
				c0.6,0.1,5.2,1.6,12.4,1"/>
			
				<line fill="none" stroke="#000000" stroke-linecap="round" stroke-linejoin="round" stroke-miterlimit="10" x1="165.4" y1="146.3" x2="157.6" y2="149.5"/>
			<path fill="none" stroke="#000000" stroke-linecap="round" stroke-linejoin="round" stroke-miterlimit="10" d="M195.3,151.5
				c0,0,2,1.7,8,0.5"/>
			<path fill="none" stroke="#000000" stroke-linecap="round" stroke-linejoin="round" stroke-miterlimit="10" d="M123.1,147.6
				c0,0-1.9-2.6-5.9-3"/>
			
				<line fill="none" stroke="#000000" stroke-linecap="round" stroke-linejoin="round" stroke-miterlimit="10" x1="102.4" y1="152.4" x2="95.2" y2="151.5"/>
			<path fill="none" stroke="#000000" stroke-linecap="round" stroke-linejoin="round" stroke-miterlimit="10" d="M81.8,140.9
				c0,0-5.3-3.6-8.9,2.5"/>
			<path fill="none" stroke="#000000" stroke-linecap="round" stroke-linejoin="round" stroke-miterlimit="10" d="M62.6,153
				c0,0-5-0.4-6.7-1"/>
			<path fill="none" stroke="#000000" stroke-linecap="round" stroke-linejoin="round" stroke-miterlimit="10" d="M52.9,139.3
				c0,0-6.6-7.3-13.9,0"/>
			<path fill="none" stroke="#000000" stroke-linecap="round" stroke-linejoin="round" stroke-miterlimit="10" d="M14.9,115.9
				c0,0-2.9-0.3-2.5-2.7"/>
			
				<line fill="none" stroke="#000000" stroke-linecap="round" stroke-linejoin="round" stroke-miterlimit="10" x1="22" y1="104.9" x2="25.8" y2="104.9"/>
			
				<line fill="none" stroke="#000000" stroke-linecap="round" stroke-linejoin="round" stroke-miterlimit="10" x1="59.9" y1="94.9" x2="68.4" y2="97.3"/>
			<path fill="none" stroke="#000000" stroke-linecap="round" stroke-linejoin="round" stroke-miterlimit="10" d="M178.3,91.7
				c0,0,2.2,3.3-1.4,5"/>
			<path fill="none" stroke="#000000" stroke-linecap="round" stroke-linejoin="round" stroke-miterlimit="10" d="M193.4,94.4
				c0,0,4,1.4,5.4,3.2c0,0-0.8-3.7-3.8-5.9"/>
			
				<line fill="none" stroke="#000000" stroke-linecap="round" stroke-linejoin="round" stroke-miterlimit="10" x1="145.2" y1="63.9" x2="149.1" y2="65.6"/>
			
				<line fill="none" stroke="#000000" stroke-linecap="round" stroke-linejoin="round" stroke-miterlimit="10" x1="210.6" y1="72" x2="212.1" y2="72.8"/>
			
				<line fill="none" stroke="#000000" stroke-linecap="round" stroke-linejoin="round" stroke-miterlimit="10" x1="217.4" y1="144.2" x2="219" y2="144.9"/>
			
				<line fill="none" stroke="#000000" stroke-linecap="round" stroke-linejoin="round" stroke-miterlimit="10" x1="229.8" y1="55.1" x2="231.4" y2="57.1"/>
			<path fill="none" stroke="#000000" stroke-linecap="round" stroke-linejoin="round" stroke-miterlimit="10" d="M243.6,62.4
				c0,0-0.5,3.5-1.5,5.3"/>
			
				<line fill="none" stroke="#000000" stroke-linecap="round" stroke-linejoin="round" stroke-miterlimit="10" x1="198.9" y1="27.1" x2="196.7" y2="27.6"/>
			
				<line fill="none" stroke="#000000" stroke-linecap="round" stroke-linejoin="round" stroke-miterlimit="10" x1="180.8" y1="45.6" x2="178.3" y2="45.6"/>
			
				<line fill="none" stroke="#000000" stroke-linecap="round" stroke-linejoin="round" stroke-miterlimit="10" x1="142" y1="24.9" x2="139.5" y2="24.9"/>
			
				<line fill="none" stroke="#000000" stroke-linecap="round" stroke-linejoin="round" stroke-miterlimit="10" x1="111.6" y1="49.5" x2="109" y2="49.5"/>
			
				<line fill="none" stroke="#000000" stroke-linecap="round" stroke-linejoin="round" stroke-miterlimit="10" x1="106.3" y1="21.7" x2="103.8" y2="21.7"/>
			
				<line fill="none" stroke="#000000" stroke-linecap="round" stroke-linejoin="round" stroke-miterlimit="10" x1="71.6" y1="49.8" x2="69.8" y2="47.9"/>
			
				<line fill="none" stroke="#000000" stroke-linecap="round" stroke-linejoin="round" stroke-miterlimit="10" x1="88.1" y1="66.5" x2="86.3" y2="64.6"/>
			
				<line fill="none" stroke="#000000" stroke-linecap="round" stroke-linejoin="round" stroke-miterlimit="10" x1="45.4" y1="73.7" x2="43.6" y2="71.8"/>
			
				<line fill="none" stroke="#000000" stroke-linecap="round" stroke-linejoin="round" stroke-miterlimit="10" x1="187.9" y1="164.7" x2="186.3" y2="166.3"/>
			<circle cx="177.1" cy="175" r="0.9"/>
			<circle cx="144.5" cy="200.5" r="1.1"/>
			<circle cx="187.2" cy="203.8" r="1.3"/>
			<circle cx="219.3" cy="197.8" r="1"/>
			<circle cx="238.3" cy="202.7" r="1.4"/>
			<circle cx="228.8" cy="227.7" r="1.4"/>
			<circle cx="166" cy="232.8" r="1.4"/>
			<circle cx="113.7" cy="219.1" r="0.6"/>
			<circle cx="50.5" cy="217.8" r="1"/>
			<circle cx="45.1" cy="196.1" r="1.3"/>
			<circle cx="83.9" cy="201.3" r="1.8"/>
			<path fill="none" stroke="#000000" stroke-linecap="round" stroke-linejoin="round" stroke-miterlimit="10" d="M134.9,241.2
				c-0.6,0-5.4,0.6-5.4,0.6"/>
		</g>
	</g>
	<path fill="none" stroke="#000000" stroke-width="0.5" stroke-linecap="round" stroke-linejoin="round" stroke-miterlimit="10" d="
		M164.5,94.2c0,0-0.3,0,1,1.1c1.4,1.1,1.1-0.1,1.8,1.4c0.7,1.5,0.6,1.8,1.7,2.3s3.7,1.1,5.5,3.4c1.8,2.2,2.3,1.3,4,2
		c1.7,0.7,2,1.4,4.3,1.5s5.2,0.4,5.9,0.8s0.6,0.6,3-0.1c2.4-0.8,3.2-0.7,4.5-0.9s2.7,0.9,3.6-1.3s1-1.7,2.4-2.1
		c1.4-0.4,1.6,0.1,2.7-1.3s1.4-0.9,2.6-2c1.2-1,0.8,0.1,1.9-1.8s1.5-1.5,2.4-2.6c0.9-1.1,1.2-0.7,1.7-2.1s2.1-2.2,2.1-2.2"/>
	<path fill="none" stroke="#000000" stroke-width="0.5" stroke-linecap="round" stroke-linejoin="round" stroke-miterlimit="10" d="
		M193,94.2c0,0,0,0.4,1.3,0.5c1.3,0.1,0.6-0.9,2,0.5c1.4,1.3,2.1,1.9,2.1,1.9s0.6-1.1-0.5-2.4c-1.1-1.3-2-1-2.1-2
		c-0.2-1-0.8-1.1-0.8-1.1"/>
	<path fill="none" stroke="#000000" stroke-width="0.5" stroke-linecap="round" stroke-linejoin="round" stroke-miterlimit="10" d="
		M177.9,91.5c0,0,0.3,1.1,0.9,1.6c0.6,0.5,1.3,0.8,0.4,1.7s-2,1-2.1,1.4"/>
	<path fill="none" stroke="#000000" stroke-width="0.5" stroke-linecap="round" stroke-linejoin="round" stroke-miterlimit="10" d="
		M170.6,83c0,0,0.4,1,0.4,2.5s0.3,1.6-0.9,2.7c-1.2,1-1.3,2.2-1.5,3.1c-0.3,0.9-1.3,1.3-2.4,1.7c-1.1,0.3-1,0.2-2.2,1
		c-1.2,0.7-5.6,2.9-7.7,2.8c-2.1-0.1-1.9,0.1-3.3,0.9c-1.4,0.8-2.9,0.4-5.2,0.2c-2.2-0.2-1.7-0.4-4,0.4c-2.3,0.8-3.8,0.4-5.4,1.1
		s-1.6,0.4-4,0.9c-2.4,0.5-4.4,0.8-7,0c-2.6-0.8-2.3-1.1-4.2-1.5c-1.9-0.4-4.4-0.5-6.8-2.7c-2.4-2.2-3.7-2.4-5.4-3.2
		c-1.8-0.7-3-1.1-3.4-2c-0.4-0.8-3.5-4.8-4.7-4.7"/>
	<path fill="none" stroke="#000000" stroke-width="0.5" stroke-linecap="round" stroke-linejoin="round" stroke-miterlimit="10" d="
		M18.7,94.4c0,0-2.2,0.1-4.3,2.2c-2.1,2.1-1.4,2-3.9,4.1c-2.5,2.1-3.4,2.3-4.5,4.9s-1.1,2.4-2.8,5.1s-1.9,5.1-2.2,6.6
		c-0.4,1.4,0,2.6-0.5,4.2s-0.2,1.7,0,4.8c0.2,3.2,0.5,4.1,2.4,6.2c2,2.1,2.6,2.7,4.6,4s3.4,1.8,4.4,1.8c1,0,2.1,0.1,3.9,0.3
		s2.8-0.3,3.2-0.9c0.4-0.7,0.2-1.3,0.7-2.9c0.4-1.6,0.8-2.9,1.3-4.1c0.4-1.2,1-1.6,0.7-3.6c-0.3-2,0.8-1.8,1.6-4.3
		c0.8-2.5,0.7-2.2,1.5-5.1c0.7-2.9,0.5-1.3,1.9-2.7s0.7-1.1,2.2-3.4c1.6-2.2,1.6-2.3,3.9-3.9s3.9-3.2,4.8-4.4s1.9-0.9,2.8-1.5
		c0.8-0.6,1.4-1,2.2-2.3s2.5-1.8,3.9-2.8c1.4-1,1.7-2.5,2-3.5s0.8-1.6,2.3-2.7C52,89.5,52,88,52,88"/>
	<path fill="url(#New_Pattern_Swatch_2)" d="M238.3,168.3c0,0-15.5-4.6-30.1-6.2s-28.1-3.6-35.7-0.8c-7.6,2.9-21.9,7.3-24.1,8.2
		c-2.2,0.9-3.3,1.4-3.3,1.4s35-7.2,46.6-4.7C203.3,168.8,234.4,166.8,238.3,168.3z"/>
	<path fill="url(#New_Pattern_Swatch_2)" d="M122.2,175c0,0-25.5-10.9-46.2-4.1l-9.1,3.2c0,0-27.2-15.6-46.6-15.6
		c0,0,13.9-4.6,46.5,7.6c0,0,25.1-5.6,36.1-5C113.9,161.6,120.8,171.8,122.2,175z"/>
	<path fill="url(#New_Pattern_Swatch_2)" d="M31.8,130.7l-6-4l-4.4,17.2c0,0-5.6,0.2-10.1-5.8c0,0,5.2,1,7.6-0.3
		c0,0,6.2-20.2,6.9-21.5L31.8,130.7z"/>
	<path fill="url(#New_Pattern_Swatch_2)" d="M226.1,92.1c0,0,3.1-3.8,7.1-2.6s7.6,2.2,8.3,0.3c0.8-1.8,4.1-4.3,5.8-4.9
		c1.8-0.7,2.4-2.5,1.2-6.1c-1.3-3.6-4.9-3.8-2.1-7.8c2.8-4,3.6-4.8,3.4-7.1c-0.2-2.3,1.2-5,1.2-5s1.1,5.3,1.5,11
		c0.5,5.7,0.8,11.9,0.8,14.3s0.4,11.7-0.3,11.7c-0.7,0-1.5,0.1-1.8,0C250.9,95.8,226.1,92.1,226.1,92.1z"/>
	<path fill="url(#New_Pattern_Swatch_2)" d="M65.1,87.6c0,0,11.6-0.4,15.5-0.5c3.9-0.1,15.9-0.7,15.9-0.7l4.6-0.3
		c0,0,1.2-0.4,1.7,0.7c0.5,1.1-17.2,7.6-25.9,5.9s-26.3-2.1-26.3-2.1s0.8-2.5,2.6-2.7C54.9,87.8,65.1,87.6,65.1,87.6z"/>
	<path fill="url(#New_Pattern_Swatch_2)" d="M171.7,136.3c0,0,53.7,5.4,79.6-1.8c0,0-11.9,9.7-33.9,9.7S171.7,136.3,171.7,136.3z"/>
	<path fill="none" stroke="#000000" stroke-width="0.5" stroke-linecap="round" stroke-linejoin="round" stroke-miterlimit="10" d="
		M25.8,116.2c0,0,0.9,0.7,0.8,2.6c0,1.9,0.4,1.8,1,3c0.5,1.3,1,0.8,1.1,2.4c0.1,1.6-0.5,1.2,0.4,2.1c0.9,0.9,1.6,1.4,1.5,2.1
		c-0.1,0.7,0.2,1.8,0.6,1.9c0.4,0.1,1,0.3,2-0.3s2.5-0.8,4.8-1.1c2.3-0.3,2.6-0.4,4.7-0.9c2.1-0.5,6.2-2.3,10.1-1.8s2.8-1.6,6.6-1.2
		s6.6,0.6,8.9,0c2.3-0.6,1.8-0.1,4.8,0.2c2.9,0.2,1.7,0.5,5.4,0.5c3.6-0.1,3.3-0.7,5.4,0.4c2.2,1,3.2,1.4,6.7,0.9
		c3.5-0.5,2-0.6,5.5,0.4s6.1,1.3,8.1,1s4.3-0.4,7.2,0.9c2.9,1.4,0.5,0.1,6.3,0.8c5.9,0.7,6.1,1.5,9,1.1s2.3-0.6,5.7,0.8
		s4.2,1.7,7.8,0.9s3.5,0.5,7.9,1s7,1.3,11.9,1.3c4.9,0,6.9,0.3,9.9,0.9c3,0.6,3.9,0.8,6.8,0.6c2.9-0.2,3.1-0.5,6.9,0.5
		c3.9,1.1,4,0.6,8.1,0.4s4.9,0.2,11.4,0.4c6.5,0.2,6.3-0.6,8.8,0.2c2.5,0.8,4.3,0.8,7.2,0.1c2.9-0.7,8-0.9,10.4-0.7
		c2.5,0.2,1.7,0,4.9-0.4c3.2-0.4,4.7-0.2,7.1-0.5s2.2-0.6,3.8-1c1.6-0.3,3.9-1.1,6.1-1.3c2.2-0.2,3-0.9,4.1-1.3
		c1.1-0.4,1.9,0.3,2.4-1.5s1.9-2.2,0.9-4.1s-1.3-2.3-0.9-4s0.4-3.4,0.4-4.3s0.3-5.5,0-6.1c-0.3-0.6-1.1-3.1-2.8-4.5
		c-1.7-1.3-1.6-1.3-2.5-2.2c-0.9-0.9-0.5-0.3-3.4-1.2c-2.8-1-5.2-1.7-6.7-3c-1.4-1.2-1.1-0.7-1.8-1.7c-0.7-1-1.2-2.9-1.7-3.4
		c-0.4-0.5-1.1-2.9-1.5-3.1c0,0,1-0.1,3.2,0.3c2.2,0.5,2.1,1.1,3.7,0.7c1.5-0.5,1.6,0.1,3.8,0.4s3.7,2.1,4.1-0.4
		c0.4-2.5,1-3,0.2-5.9c-0.9-2.9,1.6-3.5,0.8-5.3c-0.7-1.9-0.7-1.9-0.8-3.2c-0.1-1.3,0.5-7.9-0.6-9.6c-1.1-1.6-0.6-4.4-0.8-6.1
		c-0.1-1.7-0.9-6.1-1-7c-0.2-0.9-0.4-2-0.8-3.4c-0.3-1.3-0.9-6.3-2-7.2c-1.1-0.9-0.9-3.2-1.8-5.4s-2.2-2.9-2.7-4.8
		c-0.5-1.9-0.8-2.5-2-4.1c-1.1-1.5-2.8-3.3-3.5-4.9c-0.7-1.6-4.2-2.8-4.9-4.1c-0.7-1.2,2.6-0.5-1.4-2.3s-5-2.8-5.7-3.2
		c-0.7-0.4-3.4-1.7-5.3-2.5c-1.9-0.8-1-0.8-4.7-2.1s-6.6-1.8-7.5-2.5c-0.9-0.8-2.8-1-6.3-1.7c-3.5-0.8-4.1-0.9-6.5-1.3
		c-2.4-0.4-4.7-1.3-6.3-1.5s-2.7,0.1-5.4-0.3s-6.7-1.4-11.9-1.2s-7.6-0.3-9.3-0.6s-1.3-0.2-5.1,0s-5.4,0.5-6.2,0.2
		s-8.4-0.9-12.6,0.1s-5.6,0.2-7.4,0.3c-1.8,0.1-2.5,0.1-4.6,0.4c-2.1,0.2-1.6,0.5-5.7,0.7s-2.3-0.3-6.8,0.9
		c-4.5,1.2-4.7,1.1-6.5,1.2s-2.6,0-3.7,0.8s-5.6,1.9-8.4,2.2C92.9,12,93,12.6,91,13.3s-8.2,4-10.8,4.4c-2.5,0.4-3.1,1.3-4.2,2.1
		s-3.2,1.9-4.4,2.6c-1.2,0.7-3.7,2.2-5.8,3.5c-2,1.4-9.5,5.5-11.6,8.3s-2.1,2.7-3.5,4.1c-1.4,1.4-3.5,3.7-4,4.2
		c-0.5,0.5-6.1,6.4-7.4,9.2s-2.5,4.5-3.8,5.5c-1.2,1-2.5,0.9-2.7,2.8c-0.2,1.9-0.4,2.5-1,3.4c-0.6,0.9-3.9,6.4-4.4,8.4
		s-2.8,3.1-3.2,4.8s-0.2,2.5-0.8,4.1c-0.6,1.6-0.7,3-1.5,3.9c-0.8,1-1.1,2.9-1.7,4.6s-1.6,4.7-1.6,4.7"/>
	<path fill="none" stroke="#000000" stroke-width="0.5" stroke-linecap="round" stroke-linejoin="round" stroke-miterlimit="10" d="
		M25.6,115.7c0.3,0.1,2.3-1.7,3.9-2.6c1.6-1,0.4-0.8,2.8-1.6s2.3-1.2,4.1-1.9c1.7-0.7,2.5-1.1,4-1.8s1.8-0.5,3-0.6s6.2-0.9,7.5-1.6
		s3.7-0.6,7.1-0.7c3.4-0.1,2.9,0.4,4.5-0.1c1.6-0.5,6-0.5,7.8,0c1.8,0.5,1.6,0.9,3.7,0.8c2.1-0.1,1.3-0.5,5,0.5
		c3.7,1,2.8,1.2,5.5,1.4c2.7,0.2,2.6,0.2,5.2,1.2c2.6,0.9,6.1,2.7,9.5,2.3s-0.5-0.1,4.2,1c4.7,1.1,3.5,1.6,6.9,1.6
		c3.4,0.1,2.9-0.3,5.3,0.8c2.4,1.1,1.1,0.9,4.8,1.4s6.3,0.5,7.7,1.4c1.3,0.8,2.3,0.4,4.5,0.7c2.2,0.3,9,1.9,11.9,1.4
		s4.6-0.5,6.9,0.1c2.3,0.6,5.5,1.6,11.7,1s7.8,0.2,12.5,0.2s6.2,0.3,9.3-0.2c3.1-0.5,5.9,0.5,11.3-0.3c5.4-0.8,4.7-1.5,8.2-1.1
		c3.5,0.5,4.7,0.3,5.8-0.1s4.6-1.3,10.6-1s6.9-0.5,10.2-1.1c3.3-0.6,6-0.4,10.3-1.2s9.7-1.1,11.2-1.5c1.5-0.4,6-0.9,6-0.9"/>
	<path fill="none" stroke="#000000" stroke-width="0.5" stroke-linecap="round" stroke-linejoin="round" stroke-miterlimit="10" d="
		M6.3,180.9c0,0,1.5,0.8,4.3,0.1c2.8-0.8,0.2,0.3,5,0.6c4.8,0.3,7.9-0.1,9.4,0.1c1.5,0.2,2.2,1,5.3,0.8c3.2-0.3,6.6,0.8,10.4,0.4
		s7.1-0.3,8.7,0.1s6.8,0.9,7.5,0.4c0.8-0.5,2-1.1,4.3-0.6c2.3,0.5,1,0.6,3.6,0.5c2.6,0,3.9-0.1,5.7,0.1s3.5,0.8,4.8,0.5
		s5.9-1.2,10.2,0c4.3,1.2,3,0,6.5,0.2c3.5,0.3,5,1,7.6,0.4c2.6-0.6,1.3-1.3,5.9-0.2c4.6,1,4.9,1.1,6.7,0.7c1.8-0.4,3.3-0.3,8.1,0.2
		s0.6,1.2,7.1,0.4c6.5-0.8,5.4,1.3,9.7,0.3c4.3-1,5.2,0.4,9.8,0.3c4.7-0.1,1.4,0,7.2,0c5.8,0,8.5,1,11.1-0.1c2.7-1.1,2.3-0.8,5-0.9
		c2.7-0.2,4.6,0.9,7.9-0.9s6.2-1.2,8.4-1.7s4.7-1,5.5-1.1c0.8-0.2,5.1-1,11-1.8c6-0.8,4.3,0.4,10.3,0c6-0.4,9.1-1.2,12.2-0.5
		c3.1,0.7,6.4,0.5,9.1,0c2.7-0.5,3.3-1,8.8-0.3c5.5,0.7,4.7-0.5,8.1,0.3c3.4,0.8,4.8,0.7,7.7-0.2c2.9-0.9,3.1-1.3,7-1.2
		s6-1.5,6.4-2.4c0.4-0.9,0.7-1.8,0-3.8c-0.7-2,1.1-1.4-1.5-2.7c-2.6-1.4-2.3-1.6-2.9-1.9c-0.7-0.3-1.3-1.4-3.4-1.4
		c-2.1,0-5.7-0.2-6.2-0.7"/>
	<path fill="none" stroke="#000000" stroke-width="0.5" stroke-linecap="round" stroke-linejoin="round" stroke-miterlimit="10" d="
		M15.8,151.7c0,0-0.5,2.8-1.8,4.1s-2,3.7-2.8,5.1c-0.8,1.4-0.3,1.8-2.2,4.1s-2.4,4.2-2.9,5.6c-0.5,1.4-0.6,2.9-1.3,3.7
		c-0.7,0.8-1.7-0.1-0.7,2.6s0.8,3.1,1.3,3.6s1.6,0.3,1.9,2.2c0.3,1.9,0.7,3.6,2.7,5.4s-0.1,0.4,1,4.4c1.1,4,1.3,2.7,0.8,5.7
		c-0.5,3.1-0.3,3.1,0.7,5.2s2.3,7.5,4.3,9.5s0.8,0.2,2.4,2.8s1.3,3.3,2.7,4c1.4,0.7,3.5,2.2,5.3,4.5c1.7,2.3,1.5,1.4,3.7,3.4
		s2.3,3.2,4.5,4.2c2.3,1,3.2,1.3,4.7,2.3c1.5,1,2.4,1.6,4.3,2.4s1.3,2,6.9,2.8s5.3,1.3,7.2,2.1s4,1.5,6.1,2c2.2,0.6,3.1,0.6,5.7,1.5
		s3.4,0.9,5.5,1.2s7.9-0.1,12.1,2c4.2,2.1,4.1,0.1,8,0.9s5.8,1.1,8.3,0.9c2.5-0.2,2.9-0.1,6.1,0s10.3,0,15.6,0
		c5.3-0.1,2.3,0,8.3,0.2s4.7-0.1,8.7-0.6s9.5-1.4,13.4-0.9c0,0,3.5,0.6,5.3-0.4s2.9,0.4,5.1-0.3c2.2-0.6,2.8-0.4,4.9-0.5
		c2.1-0.2,8,0,11.3-1s4.8-0.5,7.6-0.7s2.5,0.3,5.4-0.5c2.8-0.9,6.4-0.8,10.4-1.5c4-0.7,5.1-0.9,6.7-1.2c1.6-0.3,4.6-1.2,5.6-1.3
		c1,0,0.9,0.3,2.6-0.4c1.7-0.7,8.6-1.4,9.9-2.8c1.3-1.4,3.5-1.3,5.6-2.1s3.4-2.4,5.7-3.2c2.3-0.7,3.9-1.4,5.5-2.7
		c1.6-1.3,4.5-3.2,6.4-5.3c1.9-2,2.7-3.3,4.4-4.9s3.4-4.3,4.9-6.8c1.5-2.5,1.4-3.3,2.8-4.9c1.4-1.6,1.7-2.7,2.3-4.4
		c0.6-1.7,0.6-3.3,1.6-4c1-0.7,1.2-1.9,1.1-2.6c-0.1-0.7,0.8-1.6,0.8-4c0-2.4,0.8-2.7,1.2-4.4c0.3-1.7,0.2-2.1,0-3.7
		c-0.2-1.6,0.6-2.1,0.2-3.6s-0.8-5.4-1.6-5.2"/>
	<path fill="none" stroke="#000000" stroke-width="0.5" stroke-linecap="round" stroke-linejoin="round" stroke-miterlimit="10" d="
		M257.4,164.7c0,0-1.8,1.4-3.2,2.5s-2.2,0.2-2.8,2.1c-0.6,1.9-1.9,1.9-2.6,2.2c-0.7,0.2-2.2-0.2-3.2-0.6c-1-0.4-3.3-0.9-4.3-1.4
		c-1-0.5-2.7-1.1-3.9-1.5s-2.6-0.3-4.6-1.2c-2-0.9-2.3-1.4-4.2-1.5c-2-0.1-10.4-0.3-14.7-2.4c-4.3-2.1,5.3-0.3-6.8-0.9
		s-11.5-0.7-14.2-1.5c-2.8-0.8-2.4-0.8-6-0.5c-3.6,0.3-6.4,0-8.2,0.2c-1.7,0.2-3.1,0.4-5.2,1.3s-5.1,1.5-6.4,1.9
		c-1.3,0.4-17.2,4.7-20.5,7.1s-6.5,2.5-8.5,3.4s-5.4,2.4-5.9,2.7c-0.6,0.3-4,0.5-5,2c-1,1.5-2.1,3.1-2.4,2.2c-0.3-0.9-0.7-2.4-2-5.1
		s-3.3-4.2-3.6-5.7c-0.3-1.5-0.6-2.7-4.6-4.4s-4.6-3.7-8.4-4s-6.3-1.3-10.4-0.2s-9.7,1.7-12.4,1.7c-2.7,0-4.5,0.6-7.5,1.2
		c-3,0.6-7.8,2.4-9.6,1.8c-1.8-0.6-2.7-1.7-5.3-1.8c-2.5-0.1-2.1,0-5.6-2.1c-3.5-2.1-4.9-1.4-9.7-2.3c-4.8-0.9-7.9-1.3-9.1-1.5
		c-1.2-0.2-4.7-1.4-7.9-0.9c-3.2,0.6-7.1,2.5-8.2,1.2c-1-1.3,0.2-1.6-1.6-3.2c-1.7-1.6-2.9-2.8-2.9-2.8"/>
</g>
</svg>
