<?xml version="1.0" encoding="utf-8"?>
<!-- Generator: Adobe Illustrator 18.0.0, SVG Export Plug-In . SVG Version: 6.00 Build 0)  -->
<!DOCTYPE svg PUBLIC "-//W3C//DTD SVG 1.1//EN" "http://www.w3.org/Graphics/SVG/1.1/DTD/svg11.dtd">
<svg version="1.1" id="Layer_1" xmlns="http://www.w3.org/2000/svg" xmlns:xlink="http://www.w3.org/1999/xlink" x="0px" y="0px"
	 viewBox="0 0 128 442.4" enable-background="new 0 0 128 442.4" xml:space="preserve">
<pattern  x="-424.3" y="538.3" width="21.7" height="27.1" patternUnits="userSpaceOnUse" id="New_Pattern_Swatch_2" viewBox="0.2 -27.3 21.7 27.1" overflow="visible">
	<g>
		<polygon fill="none" points="0.2,-0.2 21.9,-0.2 21.9,-27.3 0.2,-27.3 		"/>
		<path d="M0.7-26.4c0.3-0.1,0.7-0.1,1-0.2c0.5-0.1,0.3-0.8-0.2-0.7c-0.3,0.1-0.7,0.1-1,0.2C0-27,0.2-26.3,0.7-26.4z"/>
		<path d="M2.6-23.9c0.3,0,0.7,0,1,0c0.5,0,0.5-0.8,0-0.8c-0.3,0-0.7,0-1,0C2.1-24.7,2.1-23.9,2.6-23.9z"/>
		<path d="M5.6-26.5c0.5,0.3,1,0.7,1.5,1c0.4,0.3,0.8-0.4,0.4-0.6c-0.5-0.3-1-0.7-1.5-1C5.6-27.4,5.2-26.8,5.6-26.5z"/>
		<path d="M11-24c0.4,0.1,0.6,0.4,0.7,0.8c0.1,0.5,0.8,0.3,0.7-0.2c-0.2-0.6-0.6-1.1-1.3-1.3C10.7-24.8,10.5-24.1,11-24z"/>
		<path d="M7.2-22.6c0,0.4,0.3,0.8,0.7,0.9c0.5,0.1,0.7-0.6,0.2-0.7C8.1-22.5,8-22.5,8-22.6C7.9-23,7.2-23,7.2-22.6z"/>
		<path d="M2.6-20.4c0.3,0,0.5,0,0.8,0c0.5,0,0.5-0.8,0-0.8c-0.3,0-0.5,0-0.8,0C2.1-21.2,2.1-20.4,2.6-20.4z"/>
		<path d="M6.4-15.5c-1.2-0.3-2.4-0.6-3.5-0.9c-0.5-0.1-0.7,0.6-0.2,0.7c1.2,0.3,2.4,0.6,3.5,0.9C6.7-14.7,6.9-15.4,6.4-15.5z"/>
		<path d="M11.9-18.6c0-0.3,0-0.5,0-0.8c0-0.5-0.8-0.5-0.8,0c0,0.3,0,0.5,0,0.8C11.2-18.1,11.9-18.1,11.9-18.6z"/>
		<path d="M5.2-19c0.6,0.2,1.1,0.4,1.7,0.6c0.5,0.2,0.7-0.6,0.2-0.7c-0.6-0.2-1.1-0.4-1.7-0.6C5-19.9,4.8-19.2,5.2-19z"/>
		<path d="M8.8-10.9c0.3,0.4,0.9,0,0.6-0.4c-0.2-0.3-0.3-0.5-0.5-0.8c-0.3-0.4-0.9,0-0.6,0.4C8.4-11.4,8.6-11.1,8.8-10.9z"/>
		<path d="M2.5-12.8c0.4,0.3,0.9-0.2,0.5-0.5c-0.4-0.3-0.8-0.7-1.3-1c-0.4-0.3-0.9,0.2-0.5,0.5C1.7-13.4,2.1-13.1,2.5-12.8z"/>
		<path d="M3.2-8.6c0,0.8,0,1.5,0,2.3c0,0.5,0.8,0.5,0.8,0c0-0.8,0-1.5,0-2.3C3.9-9,3.2-9,3.2-8.6z"/>
		<path d="M6.1-10.5c-0.2-0.4-0.5-0.8-0.7-1.3c-0.2-0.4-0.9,0-0.6,0.4c0.2,0.4,0.5,0.8,0.7,1.3C5.7-9.7,6.4-10.1,6.1-10.5z"/>
		<path d="M6.4-7.2c0.3,0.8,0.6,1.6,0.8,2.5c0.2,0.5,0.9,0.3,0.7-0.2C7.7-5.7,7.4-6.6,7.1-7.4C7-7.8,6.2-7.7,6.4-7.2z"/>
		<path d="M11-7.1c0.1,0.5,0.8,0.5,0.8,0c-0.1-0.6-0.3-1.1-0.6-1.5c-0.3-0.4-0.8,0.2-0.5,0.5C10.8-7.8,10.9-7.4,11-7.1z"/>
		<path d="M13.7-10.7c-0.1-0.4-0.2-0.8-0.3-1.2c-0.1-0.5-0.8-0.3-0.7,0.2c0.1,0.4,0.2,0.8,0.3,1.2C13.1-10,13.8-10.2,13.7-10.7z"/>
		<path d="M17.7-15.5c0.5,0.1,0.9,0.4,1.3,0.9c0.3,0.4,0.9,0,0.6-0.4c-0.4-0.6-1-1-1.7-1.2C17.4-16.3,17.3-15.6,17.7-15.5z"/>
		<path d="M20.7-10.3c0,0.5,0,1,0,1.5c0,0.5,0.8,0.5,0.8,0c0-0.5,0-1,0-1.5C21.4-10.8,20.7-10.8,20.7-10.3z"/>
		<path d="M18.7-4.2c0.1,0.5,0.8,0.3,0.7-0.2c-0.1-0.4,0-0.8,0.2-1.2C19.8-6.1,19.2-6.4,19-6C18.7-5.4,18.6-4.9,18.7-4.2z"/>
		<path d="M15.9-10.1c0,0.2,0,0.3,0,0.5c0,0.5,0.8,0.5,0.8,0c0-0.2,0-0.3,0-0.5C16.7-10.5,15.9-10.5,15.9-10.1z"/>
		<path d="M11.3-15.6c0.5,0.8,1.4,1.3,2.3,1.2c0.5,0,0.5-0.8,0-0.8c-0.7,0-1.3-0.2-1.7-0.8C11.7-16.4,11-16.1,11.3-15.6z"/>
		<path d="M9.4-13.8c0-0.3,0-0.5,0-0.8c0-0.5-0.8-0.5-0.8,0c0,0.3,0,0.5,0,0.8C8.7-13.3,9.4-13.3,9.4-13.8z"/>
		<path d="M9.3-17.2c0.5,0,0.5-0.8,0-0.8S8.8-17.2,9.3-17.2z"/>
		<path d="M17.2-13.3c-0.3-0.1-0.5-0.2-0.8-0.2c-0.5-0.1-0.7,0.6-0.2,0.7c0.3,0.1,0.5,0.2,0.8,0.2C17.4-12.4,17.6-13.1,17.2-13.3z"
			/>
		<path d="M14-17.7c0.2,0.1,0.5,0.2,0.7,0.3c0.5,0.2,0.6-0.5,0.2-0.7c-0.2-0.1-0.5-0.2-0.7-0.3C13.7-18.6,13.5-17.9,14-17.7z"/>
		<path d="M16-21.3c0.3,0.1,0.7,0.2,1,0.3c0.5,0.1,0.7-0.6,0.2-0.7c-0.3-0.1-0.7-0.2-1-0.3C15.7-22.1,15.5-21.4,16-21.3z"/>
		<path d="M20.2-16.5c0.3,0.4,0.8-0.2,0.5-0.5c-0.3-0.3-0.5-0.6-0.8-0.9c-0.3-0.4-0.8,0.2-0.5,0.5C19.7-17.1,20-16.8,20.2-16.5z"/>
		<path d="M21.9-13.1c0-0.1,0-0.2,0-0.3c0-0.5-0.8-0.5-0.8,0c0,0.1,0,0.2,0,0.3C21.2-12.6,21.9-12.6,21.9-13.1z"/>
		<path d="M19.3-11.4c0.5,0,0.5-0.8,0-0.8S18.8-11.4,19.3-11.4z"/>
		<path d="M13.6-19.7c0.4,0.3,0.8-0.4,0.4-0.6c-0.3-0.3-0.7-0.5-1-0.8c-0.4-0.3-0.8,0.4-0.4,0.6C12.9-20.2,13.3-20,13.6-19.7z"/>
		<path d="M4.5-2.5c0.1,0.1,0.2,0.2,0.3,0.3C5.1-2,5.7-2.5,5.3-2.8C5.2-2.9,5.2-3,5.1-3.1C4.7-3.4,4.2-2.9,4.5-2.5z"/>
		<path d="M9.6-4.7c0.1,0.4,0.2,0.8,0.3,1.2C10-3,10.8-3.2,10.7-3.7c-0.1-0.4-0.2-0.8-0.3-1.2C10.3-5.4,9.5-5.2,9.6-4.7z"/>
		<path d="M14.9-4.1C14.8-4.6,14-4.4,14.1-4c0.1,0.3,0.2,0.7,0.3,1c0.1,0.5,0.8,0.3,0.7-0.2C15-3.5,15-3.8,14.9-4.1z"/>
		<path d="M14.8-7.2c-0.3,0-0.5-0.2-0.5-0.5c0.1-0.5-0.6-0.7-0.7-0.2c-0.1,0.8,0.4,1.5,1.2,1.5C15.3-6.4,15.3-7.2,14.8-7.2z"/>
		<path d="M16.4-3.6c-0.1,1,0,2.1,0.3,3.1c0.1,0.5,0.9,0.3,0.7-0.2c-0.3-1-0.3-1.9-0.2-2.9C17.2-4,16.5-4,16.4-3.6z"/>
		<path d="M21.9-4.6c0-0.5-0.8-0.5-0.8,0c0,0.5,0,1,0,1.5c0,0.5,0.8,0.5,0.8,0C21.9-3.6,21.9-4.1,21.9-4.6z"/>
	</g>
</pattern>
<g>
	<path fill="#F0D5B9" d="M7.4,343.4l2.6,29.8l3.2,30.5l1.2,10l-1.7,4.8c0,0,2.7,3.7,7.8,6.8s17.9,9.7,27.3,11.9s22,4.9,33.3,1
		s29.1-13.6,29.1-13.6s2.8-16.9,2.7-25c-0.1-8.1-0.3-15.9-1-20.8c-0.7-5-2.3-18.8-2.5-21.3c-0.2-2.6-2.3-33-2.4-34.9s-1.4-33-1.4-33
		s-1.1-26.7-0.7-31.7c0.4-5-0.2-18.4,0.5-23.4c0.7-5,1.5-17.8,0.6-28.7c-0.9-10.9-3.2-31.4-4.1-36.7s-2.6-14.4-6.8-23.6
		c-4.2-9.2-12.5-27.9-12.5-27.9s-3.9-10.7-4.3-17.2C78,94,77.5,88.1,78.1,84.5c0.6-3.6,0.9-28.7,0.9-28.7l-34,20.3l-3.1,29.5
		c0,0-2.6,12.3-6.7,20.9s-17.5,35.2-17.5,35.2s-3.1,6.4-5,17.1s-2.4,30.3-2.4,30.3s-0.3,4.3-0.3,7.3c0,3-0.2,18.5-1.3,25.3
		S5,260.8,4.8,271.7s0.9,45.1,0.9,45.1L7.4,343.4z"/>
	<path fill="#CD7A28" d="M8.2,245c0,0-2.2,11.9-2.6,17.6c-0.4,5.7-0.8,22-0.8,26.1c0.1,4.1,0.7,24.5,0.9,28.3
		c0.2,3.8,1.4,22.7,1.4,22.7L8,351.4c0,0,13.3,6.6,20.1,8.5c6.7,1.9,19.7,5.1,22.2,5.2c2.6,0,13.8,1.4,16.5,0.5
		c2.7-0.9,5.3-2.3,6.6-5.9c1.2-3.6,3.3-11.1,3.3-15.8c0-4.7-0.3-12.5-0.9-18.1c-0.6-5.6-4.1-38.2-4.1-38.2L67,247.9
		c0,0-1.8-10.4-1.5-12c0.3-1.6,1.2-3.7,0.8-4.6c-0.4-0.9-0.4-2.3-2.6-2.7c-2.2-0.4-8.9-0.8-11.3-0.9s-9.6-0.4-14.8-2.3
		c-5.2-1.9-16.9-7.2-21.5-10.3s-6-5.1-6.1-2.6c-0.1,2.5,0,13.9-0.1,15.7S8.8,241.7,8.2,245z"/>
	<path fill="#643C12" d="M43.9,22.5l-2.4,49.3l3.3,4.3c0,0,4.9,2.5,10.2,1.5s13.2-2.3,16.4-6.2c3.1-3.9,7-8.2,7.2-13.2
		S78,31,78.2,30.5c0.2-0.5,0.1-3.3,0.5-4.5s3.1-5.3,0.3-8.6c-2.8-3.2-6.4-7.2-16.9-7.2s-18,5.5-18.9,9
		C42.4,22.8,43.9,22.5,43.9,22.5z"/>
	<path fill="#FAA840" d="M49.1,227.6c0,0-2.3-9.3-1.5-16c0.8-6.7,4.8-16.9,4.8-16.9s-9-7.6-19.8-7.6s-21.6,5.7-21.6,5.7l-1.2,18.4
		C9.9,211.2,31.7,226.5,49.1,227.6z"/>
	<g>
		<g>
			<g>
				<path fill="none" stroke="#000000" stroke-linecap="round" stroke-linejoin="round" stroke-miterlimit="10" d="M46.4,76.2
					c2.8,1.7,8.5,2.3,18-1s13.8-12.3,14.3-17s-0.5-27.8-0.5-27.8s0.3-4.3,1.5-7s0.3-5.3-2.3-8.2s-14.7-7.8-26.3-2.8s-7.3,10-7.3,10
					L41.7,72l3.5,4.5c0,0-1.5,14.5-3.5,30.6s-21.5,46.4-26.5,60.6s-5.3,52.4-5.3,52.4s1.1,11.1-2.9,31.7s-1.5,62.8,0,86
					c1.5,23.1,6.5,70.2,7.2,74c0.8,3.8-1.5,6.7-1.5,6.7c6,7.8,25.3,18,48,21.4s49.5-15.3,49.5-15.3s5.3-23.4,1-51.4
					s-7.9-127.2-5.4-141.5c2.6-14.3-2.2-54.7-5.1-70.4s-21-42.5-22.3-60.2c-1.3-17.7,0.3-30.1,5-36.2"/>
				<path fill="none" stroke="#000000" stroke-linecap="round" stroke-linejoin="round" stroke-miterlimit="10" d="M43.9,22.5
					c0,0,7.8,10.3,23.5,2"/>
				<path fill="none" stroke="#000000" stroke-linecap="round" stroke-linejoin="round" stroke-miterlimit="10" d="M78.5,27.7
					c0,0-11.2-0.2-20.8,4.9"/>
				<path fill="none" stroke="#000000" stroke-linecap="round" stroke-linejoin="round" stroke-miterlimit="10" d="M78.4,60
					c0,0-4,0.6-6.5,0"/>
				
					<line fill="none" stroke="#000000" stroke-linecap="round" stroke-linejoin="round" stroke-miterlimit="10" x1="60.4" y1="64.9" x2="55" y2="64.9"/>
				<path fill="none" stroke="#000000" stroke-linecap="round" stroke-linejoin="round" stroke-miterlimit="10" d="M55,108.7
					c0,0-15.3,46-28.8,65.5"/>
				<path fill="none" stroke="#000000" stroke-linecap="round" stroke-linejoin="round" stroke-miterlimit="10" d="M9.9,211.2
					c0,0,20.8,16.4,42.6,16.6c21.8,0.2,11.5,3.9,13.3,10.9s10.9,95.2,10.9,95.2s1.2,26-7.1,30.8s-47.2-3.8-60.9-13.3"/>
				<path fill="none" stroke="#000000" stroke-linecap="round" stroke-linejoin="round" stroke-miterlimit="10" d="M23.9,376.9
					c0,0,1.1,14.2-3.3,21.7"/>
				<path fill="none" stroke="#000000" stroke-linecap="round" stroke-linejoin="round" stroke-miterlimit="10" d="M31.4,407.1
					c0,0,22.6-9.5,55.9,5.5"/>
				
					<line fill="none" stroke="#000000" stroke-linecap="round" stroke-linejoin="round" stroke-miterlimit="10" x1="35.1" y1="397.3" x2="36.8" y2="396.1"/>
				<path fill="none" stroke="#000000" stroke-linecap="round" stroke-linejoin="round" stroke-miterlimit="10" d="M90.4,192.1
					c0,0,15.5,105.4,6.3,166.9"/>
				<path fill="none" stroke="#000000" stroke-linecap="round" stroke-linejoin="round" stroke-miterlimit="10" d="M49.2,227.7
					c0,0-5.2-18.4,3.3-32.9c0,0-14.7-13.4-35.8-4.5"/>
				<path fill="none" stroke="#000000" stroke-linecap="round" stroke-linejoin="round" stroke-miterlimit="10" d="M22.4,270
					c0,0,5.5,7.3,19.3,3.5"/>
			</g>
		</g>
		<g>
			
				<path fill="none" stroke="#000000" stroke-width="0.5" stroke-linecap="round" stroke-linejoin="round" stroke-miterlimit="10" d="
				M43.9,22.5c0,0,0.4,1.4-0.1,2.6c-0.5,1.2-0.1,1.6-0.1,3s0.5,2.3,0.1,3.9c-0.4,1.6-0.4,2.1-0.5,3.1c0,1-0.1,1.6-0.1,2.7
				c-0.1,1.1-0.2,3.5-0.5,5.6s0,2,0,4.3c0,2.3,0.6,2.9,0.2,4.8c-0.4,1.9-0.4,2.3-0.5,4.1s-0.2,4.7-0.3,6.9c-0.1,2.2-0.1,2.6-0.2,3.8
				c-0.1,1.2,0.1,1.8,0,2.4c-0.1,0.6-0.1,0.8-0.2,1.6c0,0.8-0.4,0.3,0.4,1.3c0.8,1,1.6,0.8,1.7,1.6c0.1,0.8,0.5,1,0.9,1.8
				c0.5,0.7,0.5,0.9,0.4,1.1s-0.2,4.5-1.1,6.8s-0.1,4-0.3,5.5s-0.1,4.3-0.4,5.6s-0.6,3.2-0.8,4.7c-0.2,1.5-0.6,5.3-0.8,6.7
				c-0.2,1.4,0.7,3.7-0.2,4.6c-0.8,0.9-1,1.5-1.5,3.1c-0.5,1.6-1.3,4.1-2.3,6.4c-1,2.3-2.4,5.2-3.2,6.5c-0.8,1.4-1.4,3.9-1.9,5
				s-1.8,3.6-2.1,4.2c-0.3,0.6-2,4-2.9,5.8c-0.9,1.8-1.3,2.6-2.1,4.1c-0.8,1.5-0.9,2.6-2.1,4.1c-1.2,1.4-1.1,1.3-1.7,3.4
				c-0.6,2.2-1.2,2.3-2,3.9c-0.8,1.6-1,3.3-2.6,5.6c-1.6,2.2-1,1.8-1.9,4.8c-0.9,3.1-2,4.3-2,6.2c0,1.9-0.4,4-0.7,6.3
				s0.1,4.3-0.8,6.2c-0.9,1.9-0.2,1.4-0.4,4.5c-0.3,3-0.5,3.2,0,5.6s-0.5,0-0.7,4.5c-0.2,4.6-0.2,4.4-0.3,5.8
				c-0.1,1.4-0.1,2.6-0.2,4c0,1.4-0.6,2.7-0.6,3.8s-0.8,1.9,0,4.1s0.5,3.3,0.5,4.8c0,1.6,0.1,0.7-0.1,4c-0.2,3.3-0.4,6.4-0.6,8.9
				s-0.7,5.6-0.7,6.8s0.4,1.5-0.7,3.4c-1.1,2-0.9,4.7-1.1,6.2c-0.2,1.4-0.3,1.5-0.6,4.1S5,262,5.3,266.6s-0.6,4.3-0.5,7.2
				c0.1,2.9-0.5,7.3,0,10.5c0.5,3.2,0.4,3.7,0.1,8.9c-0.3,5.2-1.2,8.1-0.1,10.4s0.8,4.5,0.7,8.4c-0.1,3.9,0.3,6.4,0.4,7.9
				c0.1,1.5,0.7,4.4,0.4,6.4c-0.4,2,0.2,2.7,0.3,4.4c0.1,1.7-0.9,1.8,0.3,5.1c1.2,3.3,0.2,3.1,0.4,5.6c0.2,2.5-0.1,3.4,0.5,6
				s0.2,2.2,0.4,4.3c0.2,2-0.7,2.2,0.6,7.3s1.1,4.2,0.8,7.9s0.3,3.7,0.6,6.2s-0.8,3.8,0.7,6.8s0.4,4,0.7,6.7
				c0.3,2.7-0.4,0.8,0.5,5.1c0.9,4.3,1.2,4.6,1,5.9c-0.2,1.2-0.5,5.2,0.5,7.5s0.3,2.9,0.6,5.1c0.3,2.2,1.2,3.8,0.7,4.4
				c-0.5,0.6-1.4,0.9-1.3,1.8c0,0.9-1.5,1.1-0.7,2.1c0.8,1,2.5,3.5,4.5,4.4s1.6,0.3,3.5,2.5c1.8,2.3,4,2.5,5.4,3.2
				c1.4,0.7,5.5,2.2,7.1,3.4s4,1.7,5.1,2c1.1,0.4,3,1.1,5,1.7c2,0.6,3.1,1.5,5,1.5c2-0.1,2.2-0.2,4.4,0.7c2.2,0.9,0.9,1.1,5,1.4
				s6.2,0.9,11.2,0.8c5,0,3.6,0.4,6.3-0.7c2.7-1.1,4.8-1,6.5-1.5c1.7-0.5,4.1-0.6,5.5-1.7c1.4-1.2,6.1-2.4,8.9-3.7
				c2.8-1.3,2.1-0.9,4.6-2.3c2.5-1.4,3.7-1.1,4.7-2.6c0.9-1.5,4-1.1,4.6-2.9c0.6-1.8,0.5-1.3,0.9-3.5s0.8-5.1,1-6.9
				c0.2-1.8,0.7-1.3,0.4-3.8c-0.3-2.5-0.7-3.5,0.1-5.3s0.6-5.8,0.6-9.2s0.3-4.8-0.1-6.9s-0.5-7.2-0.7-9.2c-0.2-2,0-3.2-1-5.6
				s-0.8-4.6-0.6-6.4c0.2-1.8-0.5-4.5-0.7-6.6s-1.1-1.9-0.5-4.9c0.7-3,0.1-2.4-0.4-5c-0.5-2.6-1.4-4.4-0.5-7
				c0.9-2.6-0.1-1.9-0.4-5.4c-0.2-3.5-0.3-4.2-0.4-6.2c-0.1-2.1,0-5.7-0.4-7.4c-0.5-1.8-1-2.2-0.3-5.7s0.2-4.2-0.3-5.7
				c-0.5-1.6-1.5-6.2-0.7-9.6s0.2-1.1,0.1-5.1c-0.1-3.9-0.7-3.9-0.5-6.4c0.2-2.5,0.2-3.3,0.1-4.4c0-1.1,1-4.6-0.3-9.4
				s-0.1-3.4-0.2-6.4s-0.1-6.1-0.1-6.9c0-0.7,0-1.3-0.1-4.2s0.4-4.9,0.4-6.1c-0.1-1.2,0.4-7.5-0.4-8.9s0-3.6,0.1-6.4
				c0.1-2.8,0.2-4.9,0.4-6.4c0.2-1.5,1-2.4,0.8-3.7c-0.2-1.3,0.5-4.7,0.2-7.6c-0.3-2.9,0-3.5,0-5.3c0-1.8,0.7-4.3-0.2-5.6
				c-0.9-1.3-0.6-1.8-0.3-5.5c0.3-3.7,0.4-5.5-0.7-8.7c-1.1-3.2-0.5-5.8-0.7-7c0,0,0.2-1.5-0.2-3.7c-0.4-2.2-0.5-2.6-0.6-3.8
				c-0.1-1.1-0.1-0.9-0.2-2c-0.1-1.1-0.9-3.1-0.7-5.3c0.2-2.2,0-2.7-0.5-4.7c-0.5-2-1.4-5.2-1.3-7.4c0.1-2.2-0.1-2.5-0.6-3.4
				c-0.5-0.9-0.9-1.4-1.2-4.2c-0.3-2.7-0.2-2.3-1.5-4.1s-1.8-4.4-2.3-5.7s-0.7-1.5-1.4-3.2c-0.7-1.6-0.7-1.6-1.2-2.6s-0.2-1.5-0.9-2
				c-0.7-0.5-1.1-0.4-1.1-1.4c0-1-0.1-0.7-0.2-1.4c-0.1-0.6-1-3.2-2.4-5.2c-1.4-2-2.1-2.8-2-3.5c0.1-0.7-0.7-3.4-1.9-5.3
				s-1.4-3.1-1.6-3.9c-0.1-0.8-0.5-2.3-1.8-5.1c-1.4-2.8-0.8-2.4-1.2-4c-0.4-1.6-0.5-2.8-0.9-3.9c-0.4-1.1-0.7-1.4-0.6-2.5
				c0.1-1.2,0.3-3.1-0.2-5.7s-0.5-4.4-0.3-5.4s0.3-3.9,0.4-5.7s0.1-2.3,0.5-4.7s0.2-2.5,0.2-3.7c0-1.2-0.1-2.4,0.8-4.1
				c1-1.7,1.1-2.9,1.3-4c0.2-1,2.5-4.4,2.5-4.4"/>
			
				<path fill="none" stroke="#000000" stroke-width="0.5" stroke-linecap="round" stroke-linejoin="round" stroke-miterlimit="10" d="
				M31.4,407.1c0.3-0.1,3.1-0.4,4.1-1.3s2.7-0.6,4.1-0.8c1.5-0.2,3.5,0.1,4.3,0s2.6,0.2,3.8-0.1c1.3-0.3,3.5-0.8,4.5-0.8
				c1,0,3-0.6,5,0.3s5.2,0.6,6.1,0.8c0.9,0.2,4.6-0.2,5.9,1.2c1.3,1.4,4.9,1.3,6.1,1.7c1.2,0.4,2.9,0.9,4,1.3c1.1,0.4,7.4,3,7.4,3"
				/>
			
				<path fill="none" stroke="#000000" stroke-width="0.5" stroke-linecap="round" stroke-linejoin="round" stroke-miterlimit="10" d="
				M37,396.1c0,0,0.3,0.7-0.3,0.9s-1.8-1.2-1.5,0.2"/>
			
				<path fill="none" stroke="#000000" stroke-width="0.5" stroke-linecap="round" stroke-linejoin="round" stroke-miterlimit="10" d="
				M23.9,376.9c0,0-0.6,0.9-0.2,1.9c0.4,1,0.6,1.3,0.4,3.1c-0.3,1.9-0.8,2-0.5,3.2s1.3,1,0.1,3.3c-1.2,2.3-1.4,2.8-1.3,4.2
				s0.2,2.5-0.5,3.5c-0.8,0.9-1.1,1.8-1.2,2.2"/>
			
				<path fill="none" stroke="#000000" stroke-width="0.5" stroke-linecap="round" stroke-linejoin="round" stroke-miterlimit="10" d="
				M8.3,351.5c0,0,1.7-0.4,2.9,1.5c1.2,1.9,3.6,1.9,4.6,2.3c0.9,0.4,1.3,0.1,2.9,1.2s1.6,1.5,2.6,1.3s1.3-0.8,2.9,0.4
				c1.6,1.2,5.4,3.2,8,2.9s1.5-0.5,4.5,0.8c2.9,1.3,4,1.7,6.3,1.8s3.7,0.4,5.7,1.1c2,0.7,4.1,1,6.3,0.8c2.2-0.1,4.5,0.1,5.8,0.4
				s3,0.1,4.7-0.2c1.6-0.3,4.4,0.9,5-1.8s2.6-2.8,2.9-4.3c0.3-1.5,0.5-1.8,0.8-3.5c0.3-1.7,0.9-1.5,1.2-3.2c0.3-1.7,1.3-3.4,0.8-5.8
				c-0.5-2.3,0.5-4.2,0.5-5.6c0-1.5,0-2.9,0-3.6c0-0.7,1-2.6-0.2-5.3c-1.2-2.7-0.9-2.6-0.7-4.4s0.4-2.4,0-3.7
				c-0.3-1.3-0.2-6.5-0.9-8.9c-0.7-2.4-1.5-1.5-1.2-3.6c0.3-2.1,0.2-3.8,0.1-4.6c-0.1-0.7-0.1-5-0.8-7.9c-0.7-2.8-0.8-4.3-0.5-6.8
				s-0.4-2-0.7-4.3s-0.4-5-1-6.7c-0.6-1.7-0.9-7.9-0.7-9c0.2-1.1,0.2-3.8-0.3-4.5s-1.3-4.5-1.1-7.6c0.2-3.1-0.7-2.7-0.8-5.1
				s-1.1-2.4-0.9-4.6c0.2-2.2,0-4.3-0.3-6.1s0.1-2.7-0.7-4.5c-0.8-1.9-1.1-2.1-0.5-4c0.5-1.9,1.4-3.4,1-4.7
				c-0.3-1.3-1.2-2.9-2.6-3.2c-1.4-0.3-5.8-1.3-9.5-0.9c-3.6,0.4-6,0.8-7.7-0.2c-1.7-1-2.7-1.4-4.3-1.5s-4.5-0.5-7.2-1.4
				c-2.7-1-5.2-3-7.2-2.8s-1.8,0.7-3.9-1.5c-2.1-2.2-4.4-2.6-5.2-3.1c-0.8-0.5-4-2.9-4.3-3.2s-3.4-2.5-4.5-2.5"/>
			
				<path fill="none" stroke="#000000" stroke-width="0.5" stroke-linecap="round" stroke-linejoin="round" stroke-miterlimit="10" d="
				M49.2,227.7c0,0-0.3-2.3-0.9-4.5c-0.7-2.2-1.1-3.5-0.8-5c0.2-1.5,0.1-3.5,0.2-5.3c0.1-1.7,0.1-2.4,0.3-4c0.2-1.6,0.1-1.4,0.4-2.8
				c0.3-1.4,0.5-4.6,1.7-6.2c1.2-1.7,2.2-3.1,2.1-3.9c-0.1-0.7,1-0.1,0.3-1.3s-5.3-2.3-6.6-3.8s-1.8-1.4-4.1-2.1
				c-2.3-0.7-5.3-2-10.2-1.7s-6,0.3-8,0.9s-7.2,2.2-7.2,2.2"/>
			
				<path fill="none" stroke="#000000" stroke-width="0.5" stroke-linecap="round" stroke-linejoin="round" stroke-miterlimit="10" d="
				M90.4,192.1c0,0-0.3,5.9,0.7,7.4s1.4,2.4,1.4,5.3c0,2.9-0.1,3.6,0,5.4c0.1,1.8,0.8,4,0.9,5c0.1,1,1,8.9,1.3,11.7
				c0.3,2.8-0.1,3.7,0.4,5.7c0.4,2,0.2,2.5,0.7,4.6s0.6,6.2,0.9,9.5c0.3,3.3-0.6,3.4,0,5.3c0.6,2,0.8,4.4,0.9,5.6s1.5,7.3,0.8,11.4
				c-0.7,4.1,0.2,3.4,0.2,7.6c0,4.2,0.2,7.5,0.7,9s0.4,14.5,0.5,14.9c0,0-0.3,3.3,0.1,5.3c0.4,1.9,0.9,4.7,0,6.8
				c-0.9,2.1-1,6.9-0.4,10s-0.4,3.9-0.3,7.5c0.2,3.6,0.3,1.8,0,6.1s0.8,7.8-0.9,11.3s-1,7.1-1.1,9.4c-0.1,2.3-0.5,2.8-0.5,2.8"/>
			
				<path fill="none" stroke="#000000" stroke-width="0.5" stroke-linecap="round" stroke-linejoin="round" stroke-miterlimit="10" d="
				M22.4,270c0,0,1.6,1.6,2.8,2.3c1.2,0.6,1.9,0.5,2.7,1.3c0.8,0.7,3.5,1.8,5.6,1.4c2.1-0.4,3.6,0.1,4.6-0.4c1-0.5,2.3-0.7,2.3-0.7"
				/>
			
				<path fill="none" stroke="#000000" stroke-width="0.5" stroke-linecap="round" stroke-linejoin="round" stroke-miterlimit="10" d="
				M26.2,174.2c0,0,3.2-4.8,5.3-8.8c2.1-4,2-5.2,3.1-6.6c1.1-1.4,2.2-3.8,2.8-5.2c0.7-1.5,1.2-2.7,2-4.3c0.7-1.6,1.3-3.1,1.6-3.7
				c0.3-0.6,1.2-1.7,1.7-2.2s0.3-2.5,0.6-3.2s1.3-5.5,3.5-8.6c2.2-3.1,1.8-4.6,2.7-7.1c0.9-2.4,1.5-3.9,2.7-7.2
				c1.2-3.3,2-5.6,2.3-6.5c0.3-1,0.7-2,0.7-2"/>
			
				<path fill="none" stroke="#000000" stroke-width="0.5" stroke-linecap="round" stroke-linejoin="round" stroke-miterlimit="10" d="
				M53.8,64.9c0,0,0.9,0,1.9,0s2.7,1.6,3.1,0.8c0.4-0.8,1.5-0.8,1.5-0.8"/>
			
				<path fill="none" stroke="#000000" stroke-width="0.5" stroke-linecap="round" stroke-linejoin="round" stroke-miterlimit="10" d="
				M67.5,24.5c0,0-1.1,1.6-2.9,1.6s-1.4-0.2-3.1,0.5c-1.7,0.7-0.3,1.1-3.6,1.1c-3.4-0.1-2.6,0.4-5-0.3c-2.4-0.6-5.1-1.9-5.4-2
				c-0.3-0.2-3.4-1.8-3.7-4.6s-1.3-0.4,0.6-3.6c1.9-3.2,2.3-3.3,3.6-3.3s3.6-0.9,5.7-2.3s4.9-1.2,6.5-1.2c1.6-0.1,3.6-1.5,6.4,0
				s4.1,1.4,5.1,1.5c1,0.1,4.1,2,5.1,2.6c1,0.6,0.6-0.3,1.9,2.2c1.4,2.6,1.6,1.6,1.4,3.6s0.5,1.8-0.7,3.9s-1.8,2.4-1.3,4.3
				s1,2.8,0.5,4.5c-0.5,1.8-0.7,3.1,0,5.8c0.7,2.7,0.1,1.6,0.1,4.8c0.1,3.2-0.7,7.2,0.2,9.4c0.8,2.3,0.6,2.7,0.2,4.6
				c-0.5,1.8-0.3,2-1.1,4s-0.9,2.2-1.3,3.6s0.3,0.9-1.7,2.1c-1.9,1.3-2.7,3.2-4.7,4.9c-2.1,1.6-4.3,1.7-5.7,2.6
				c-1.4,0.9-1.5,1.3-3.3,1.7s-3.2,1.1-6.1,1.2s-3.2,0-4.4,0s-0.4-0.1-3.9-1.3"/>
			
				<path fill="none" stroke="#000000" stroke-width="0.5" stroke-linecap="round" stroke-linejoin="round" stroke-miterlimit="10" d="
				M78.4,60.2c0,0-1.2-0.7-2.1-0.1c-0.9,0.6-1.5,0.5-2.3,0.5S72.2,60,72.2,60"/>
			
				<path fill="none" stroke="#000000" stroke-width="0.5" stroke-linecap="round" stroke-linejoin="round" stroke-miterlimit="10" d="
				M77.7,27.4c0,0-1.1-0.7-3.1,0.2c-2,0.9-3.4,1.3-4.7,1.2c-1.3-0.1-1.6-0.5-3.5,0.4c-2,0.9-3.8,1.4-4.1,1.5s-0.8,0.4-1.6,0.4
				s-1.7,0.8-2.1,1"/>
		</g>
		<path fill="url(#New_Pattern_Swatch_2)" d="M77.7,62.2c0,0-0.9,23.7-33.5,23.7l1-9C45.1,76.9,72.6,80.5,77.7,62.2z"/>
		<path fill="url(#New_Pattern_Swatch_2)" d="M47.8,405c0,0,23.4-18,38.1,6.9C85.9,411.8,64.1,402.8,47.8,405z"/>
		<path fill="url(#New_Pattern_Swatch_2)" d="M66.8,365.6c0,0-11.2,2.1-30.2-3.6S8.8,352.8,8,350.8l1.6,12.9
			C9.6,363.7,54.2,379.8,66.8,365.6z"/>
	</g>
</g>
</svg>
