<?xml version="1.0" encoding="utf-8"?>
<!-- Generator: Adobe Illustrator 18.0.0, SVG Export Plug-In . SVG Version: 6.00 Build 0)  -->
<!DOCTYPE svg PUBLIC "-//W3C//DTD SVG 1.1//EN" "http://www.w3.org/Graphics/SVG/1.1/DTD/svg11.dtd">
<svg version="1.1" id="Layer_1" xmlns="http://www.w3.org/2000/svg" xmlns:xlink="http://www.w3.org/1999/xlink" x="0px" y="0px"
	 viewBox="0 0 339.8 350" enable-background="new 0 0 339.8 350" xml:space="preserve">
<pattern  x="-644.6" y="435.7" width="21.7" height="27.1" patternUnits="userSpaceOnUse" id="New_Pattern_Swatch_2" viewBox="0.2 -27.3 21.7 27.1" overflow="visible">
	<g>
		<polygon fill="none" points="0.2,-0.2 21.9,-0.2 21.9,-27.3 0.2,-27.3 		"/>
		<path d="M0.7-26.4c0.3-0.1,0.7-0.1,1-0.2c0.5-0.1,0.3-0.8-0.2-0.7c-0.3,0.1-0.7,0.1-1,0.2C0-27,0.2-26.3,0.7-26.4z"/>
		<path d="M2.6-23.9c0.3,0,0.7,0,1,0c0.5,0,0.5-0.8,0-0.8c-0.3,0-0.7,0-1,0C2.1-24.7,2.1-23.9,2.6-23.9z"/>
		<path d="M5.6-26.5c0.5,0.3,1,0.7,1.5,1c0.4,0.3,0.8-0.4,0.4-0.6c-0.5-0.3-1-0.7-1.5-1C5.6-27.4,5.2-26.8,5.6-26.5z"/>
		<path d="M11-24c0.4,0.1,0.6,0.4,0.7,0.8c0.1,0.5,0.8,0.3,0.7-0.2c-0.2-0.6-0.6-1.1-1.3-1.3C10.7-24.8,10.5-24.1,11-24z"/>
		<path d="M7.2-22.6c0,0.4,0.3,0.8,0.7,0.9c0.5,0.1,0.7-0.6,0.2-0.7C8.1-22.5,8-22.5,8-22.6C7.9-23,7.2-23,7.2-22.6z"/>
		<path d="M2.6-20.4c0.3,0,0.5,0,0.8,0c0.5,0,0.5-0.8,0-0.8c-0.3,0-0.5,0-0.8,0C2.1-21.2,2.1-20.4,2.6-20.4z"/>
		<path d="M6.4-15.5c-1.2-0.3-2.4-0.6-3.5-0.9c-0.5-0.1-0.7,0.6-0.2,0.7c1.2,0.3,2.4,0.6,3.5,0.9C6.7-14.7,6.9-15.4,6.4-15.5z"/>
		<path d="M11.9-18.6c0-0.3,0-0.5,0-0.8c0-0.5-0.8-0.5-0.8,0c0,0.3,0,0.5,0,0.8C11.2-18.1,11.9-18.1,11.9-18.6z"/>
		<path d="M5.2-19c0.6,0.2,1.1,0.4,1.7,0.6c0.5,0.2,0.7-0.6,0.2-0.7c-0.6-0.2-1.1-0.4-1.7-0.6C5-19.9,4.8-19.2,5.2-19z"/>
		<path d="M8.8-10.9c0.3,0.4,0.9,0,0.6-0.4c-0.2-0.3-0.3-0.5-0.5-0.8c-0.3-0.4-0.9,0-0.6,0.4C8.4-11.4,8.6-11.1,8.8-10.9z"/>
		<path d="M2.5-12.8c0.4,0.3,0.9-0.2,0.5-0.5c-0.4-0.3-0.8-0.7-1.3-1c-0.4-0.3-0.9,0.2-0.5,0.5C1.7-13.4,2.1-13.1,2.5-12.8z"/>
		<path d="M3.2-8.6c0,0.8,0,1.5,0,2.3c0,0.5,0.8,0.5,0.8,0c0-0.8,0-1.5,0-2.3C3.9-9,3.2-9,3.2-8.6z"/>
		<path d="M6.1-10.5c-0.2-0.4-0.5-0.8-0.7-1.3c-0.2-0.4-0.9,0-0.6,0.4c0.2,0.4,0.5,0.8,0.7,1.3C5.7-9.7,6.4-10.1,6.1-10.5z"/>
		<path d="M6.4-7.2c0.3,0.8,0.6,1.6,0.8,2.5c0.2,0.5,0.9,0.3,0.7-0.2C7.7-5.7,7.4-6.6,7.1-7.4C7-7.8,6.2-7.7,6.4-7.2z"/>
		<path d="M11-7.1c0.1,0.5,0.8,0.5,0.8,0c-0.1-0.6-0.3-1.1-0.6-1.5c-0.3-0.4-0.8,0.2-0.5,0.5C10.8-7.8,10.9-7.4,11-7.1z"/>
		<path d="M13.7-10.7c-0.1-0.4-0.2-0.8-0.3-1.2c-0.1-0.5-0.8-0.3-0.7,0.2c0.1,0.4,0.2,0.8,0.3,1.2C13.1-10,13.8-10.2,13.7-10.7z"/>
		<path d="M17.7-15.5c0.5,0.1,0.9,0.4,1.3,0.9c0.3,0.4,0.9,0,0.6-0.4c-0.4-0.6-1-1-1.7-1.2C17.4-16.3,17.3-15.6,17.7-15.5z"/>
		<path d="M20.7-10.3c0,0.5,0,1,0,1.5c0,0.5,0.8,0.5,0.8,0c0-0.5,0-1,0-1.5C21.4-10.8,20.7-10.8,20.7-10.3z"/>
		<path d="M18.7-4.2c0.1,0.5,0.8,0.3,0.7-0.2c-0.1-0.4,0-0.8,0.2-1.2C19.8-6.1,19.2-6.4,19-6C18.7-5.4,18.6-4.9,18.7-4.2z"/>
		<path d="M15.9-10.1c0,0.2,0,0.3,0,0.5c0,0.5,0.8,0.5,0.8,0c0-0.2,0-0.3,0-0.5C16.7-10.5,15.9-10.5,15.9-10.1z"/>
		<path d="M11.3-15.6c0.5,0.8,1.4,1.3,2.3,1.2c0.5,0,0.5-0.8,0-0.8c-0.7,0-1.3-0.2-1.7-0.8C11.7-16.4,11-16.1,11.3-15.6z"/>
		<path d="M9.4-13.8c0-0.3,0-0.5,0-0.8c0-0.5-0.8-0.5-0.8,0c0,0.3,0,0.5,0,0.8C8.7-13.3,9.4-13.3,9.4-13.8z"/>
		<path d="M9.3-17.2c0.5,0,0.5-0.8,0-0.8S8.8-17.2,9.3-17.2z"/>
		<path d="M17.2-13.3c-0.3-0.1-0.5-0.2-0.8-0.2c-0.5-0.1-0.7,0.6-0.2,0.7c0.3,0.1,0.5,0.2,0.8,0.2C17.4-12.4,17.6-13.1,17.2-13.3z"
			/>
		<path d="M14-17.7c0.2,0.1,0.5,0.2,0.7,0.3c0.5,0.2,0.6-0.5,0.2-0.7c-0.2-0.1-0.5-0.2-0.7-0.3C13.7-18.6,13.5-17.9,14-17.7z"/>
		<path d="M16-21.3c0.3,0.1,0.7,0.2,1,0.3c0.5,0.1,0.7-0.6,0.2-0.7c-0.3-0.1-0.7-0.2-1-0.3C15.7-22.1,15.5-21.4,16-21.3z"/>
		<path d="M20.2-16.5c0.3,0.4,0.8-0.2,0.5-0.5c-0.3-0.3-0.5-0.6-0.8-0.9c-0.3-0.4-0.8,0.2-0.5,0.5C19.7-17.1,20-16.8,20.2-16.5z"/>
		<path d="M21.9-13.1c0-0.1,0-0.2,0-0.3c0-0.5-0.8-0.5-0.8,0c0,0.1,0,0.2,0,0.3C21.2-12.6,21.9-12.6,21.9-13.1z"/>
		<path d="M19.3-11.4c0.5,0,0.5-0.8,0-0.8S18.8-11.4,19.3-11.4z"/>
		<path d="M13.6-19.7c0.4,0.3,0.8-0.4,0.4-0.6c-0.3-0.3-0.7-0.5-1-0.8c-0.4-0.3-0.8,0.4-0.4,0.6C12.9-20.2,13.3-20,13.6-19.7z"/>
		<path d="M4.5-2.5c0.1,0.1,0.2,0.2,0.3,0.3C5.1-2,5.7-2.5,5.3-2.8C5.2-2.9,5.2-3,5.1-3.1C4.7-3.4,4.2-2.9,4.5-2.5z"/>
		<path d="M9.6-4.7c0.1,0.4,0.2,0.8,0.3,1.2C10-3,10.8-3.2,10.7-3.7c-0.1-0.4-0.2-0.8-0.3-1.2C10.3-5.4,9.5-5.2,9.6-4.7z"/>
		<path d="M14.9-4.1C14.8-4.6,14-4.4,14.1-4c0.1,0.3,0.2,0.7,0.3,1c0.1,0.5,0.8,0.3,0.7-0.2C15-3.5,15-3.8,14.9-4.1z"/>
		<path d="M14.8-7.2c-0.3,0-0.5-0.2-0.5-0.5c0.1-0.5-0.6-0.7-0.7-0.2c-0.1,0.8,0.4,1.5,1.2,1.5C15.3-6.4,15.3-7.2,14.8-7.2z"/>
		<path d="M16.4-3.6c-0.1,1,0,2.1,0.3,3.1c0.1,0.5,0.9,0.3,0.7-0.2c-0.3-1-0.3-1.9-0.2-2.9C17.2-4,16.5-4,16.4-3.6z"/>
		<path d="M21.9-4.6c0-0.5-0.8-0.5-0.8,0c0,0.5,0,1,0,1.5c0,0.5,0.8,0.5,0.8,0C21.9-3.6,21.9-4.1,21.9-4.6z"/>
	</g>
</pattern>
<g>
	<g>
		<g>
			<path fill="#939598" d="M40.4,31.8c0,0,2,6.6,3.9,10c1.9,3.3,6.2,8.9,8.8,12.2s22.4,26,22.4,26s18.9,19.9,28.4,28.1
				s15.1,12.7,20.3,16.3s12,7.6,12,7.6l3.5,1.5c0,0,1.4,4.7,1.8,6.4s0.9,5.1,0.8,5.4s1.5,3.1-1.5,1.3S122,132.8,122,132.8
				l-33.4-25.3c0,0-22.3-19.6-25.5-22.6c-3.2-3-15.6-14.9-20.8-21.4S30.5,47.3,30.5,47.3s-2.6-4.1-1.8-7.4s5.3-5.6,5.3-5.6
				L40.4,31.8z"/>
			<path fill="#939598" d="M262.3,21.2c0,0-4.3,4.7-5.7,7.2c-1.4,2.5-13.7,26.2-13.7,26.2l-11.1,24.1l-9.3,21.1l-4.9,12.2
				c0,0,1.4,2.1,2.1,4c0.6,2,1.8,5.1,2,6c0.2,0.8,3.2,5.3,3.2,5.3s6.5-17.7,8.4-22c1.9-4.4,11.1-22.7,13.6-27
				c2.5-4.4,17.1-28.9,17.1-28.9l11.3-15.4c0,0,2.6-3.8,0.2-8.5s-5-5.1-5-5.1S266.1,17.7,262.3,21.2z"/>
			<path fill="#F79323" d="M136.3,177.8c0,0-14.3-4.5-21.4-10.4c-7.1-5.9-16.6-14.1-19.7-15.9c-3.1-1.8-11.3-5.2-16.1-5.7
				s-13.8-3.1-16.8-4.6c-3-1.5-20.1-7.3-26.5-11.4c-6.3-4.1-18.9-12.9-18.9-12.9l-13.3-9.8l-3.9-2.9l9.4,18.9l38.6,22.1l53.6,28.5
				l17.7,8.7c0,0,5.6,2.9,8.4,2.8c2.8,0,4.3-0.5,5.5-0.8c1.2-0.3,2.7-0.1,3-0.1s15.4,1.1,24.8-1.1s20.1-5,29.9-9.2
				c9.8-4.3,26.7-11.3,29.4-12.1c2.7-0.8,18.8-6.7,25.2-7.7c6.4-1,20.7-4.2,28.2-6.6c7.5-2.4,24.2-10.2,30.1-13
				c5.9-2.8,14.8-9.4,15-9.6s5.4-4.4,5.4-4.4l-0.8-1.8c0,0-4.2,2.8-6.7,3.8c-2.5,1.1-24.4,8.6-24.4,8.6l-27.4,7l-16.2,4.1l-28.2,6.1
				c0,0-3.8,0.6-6.3,1.3c-2.5,0.7-15.9,5.5-21.2,7.7c-5.3,2.2-32,13.8-32,13.8S138.3,177.9,136.3,177.8z"/>
			<path fill="#CD7A28" d="M139.6,184.7c0,0,12.5-0.3,20.4-1.3s26.1-7.6,26.6-7.8c0.5-0.2,22.2-8.6,22.5-8.9
				c0.3-0.4,19.7-8.1,25.2-9.7c5.5-1.5,22-4.7,22-4.7s22.5-6.6,24.9-7.5c2.4-0.9,19.2-8.8,21.9-10s12.3-7.3,12.3-7.3l-6.3,24.5
				l-9.5,30.1c0,0-6.9,18.4-9.1,25.2S275.3,255,275.3,255s-12.9,41.9-13,42.3s-7.8,25.7-7.8,25.7s-19.7,6.2-26.2,9
				s-11.6,5.3-11.9,5.4c-0.3,0.1-5.6,3.4-10.2,4.3c-4.6,0.9-31.5,4.3-43.8,4.3c-12.3,0-16.2,0-16.2,0l-7.5-123.1
				c0,0-0.2-9.3,0.1-11.9S139.6,184.7,139.6,184.7z"/>
			<path fill="#FAA840" d="M139.6,184.7l-6-0.5c0,0-5.4,2.1-10.3,0s-59.1-29.9-67.2-34.4c-8.1-4.4-42.8-24.2-42.8-24.2l8,45.3
				c0,0,3.5,15.7,4.1,17.7s1.8,4.5,2.4,6.2c0.6,1.8,7.5,28.4,7.5,28.4l9,40.4L51,294c0,0,1,6.7,3.6,9.5c2.5,2.8,8.5,8.5,19.1,12.8
				c10.6,4.3,72.4,29.7,72.4,29.7l-6.8-110.2c0,0-1.1-15.7-0.9-18.6S139.6,184.7,139.6,184.7z"/>
			<path fill="#F0D5B9" d="M139.8,133.9c0,0-18.9-11.6-24.8-16.4c-5.9-4.8-29.9-24.8-35.1-32.8L74,78.3l1.2,0.4
				c0,0-1.6-6.9-0.2-10.4c1.4-3.5,4.5-10.8,12.8-12.7c8.3-1.9,15.2,1.2,15.2,1.2l4.9,2.6c0,0-1-9.6,3-15.6s10.1-10.7,18.3-12.6
				c8.2-1.9,20.1-1.2,28.9,1.5c8.9,2.7,18.8,7.4,23.3,9.1c4.5,1.7,13.4,8.3,13.4,8.3s8.3-5,15.4-5.7c7.1-0.7,10.7,1.6,11.1,1.8
				s4.6,2.8,6.2,4.5c1.6,1.7,3.2,3.4,4.1,5.1c0.9,1.8,2.3,5.2,2.6,6.4s2.5,5.1,2.5,5.1s-2.9,5.3-2.9,5.8c0,0.5-16.4,38.7-16.4,38.7
				s1.7,2.7,2.3,4.7s2.2,6.6,3,7.9c0.8,1.3,2,2.6,2,2.6s6.7-18.2,8-21.1s6.9-15.5,6.9-15.5l5.7-10c0,0,4,2.5,5.5,3.4
				c1.6,0.8,4.7,2.9,6.8,3.2c2.1,0.3,2.7,0.5,2.7,0.5s2.2-7.3,7.3-9.6c5.1-2.3,10.7-4.7,21-2.1c10.3,2.6,15.6,7.4,15.6,7.4
				l14.4,12.9c0,0-1.9,5-7.8,4.6c0,0,2,2.8,2,4.2c0,0,9.2,1.9,12.4,5.3c3.3,3.3,7.2,8.1,8,15.4c0.9,7.3,1.4,19.3,1.4,19.3
				s0.4,8.9,0.8,11.4c0.4,2.5,1.4,6.5,1.7,7.2s2.5,4.8,2.5,4.8s-1.6,2.8-2.9,3s-4.8-1-4.8-1s-4-9.3-4.6-11.3s-2.1-8.9-2.2-12.4
				c0-3.5,0.5-12.7,0.5-14.3c0-1.6-0.1-6.5-1-9.1c-0.9-2.7-2.3-5.8-4.7-7.6s-6.7-2.4-9.1-2.5c-2.4-0.1-6.3,0.7-7.6,1
				c-1.3,0.3-7.4,2.1-7.4,2.1s0.6,1,2.8,2.4s10.2,5.1,10.4,5.1s1.9,0.7,1.9,0.7l-13.5,4.6l-19,5.4l-30.3,7.8l-18.7,4.2l-12.6,2.3
				c0,0-8.5,2.5-10.1,3.1c-1.6,0.6-29.9,12.2-29.9,12.2l-13.4,6.1l-8.3,3.2l-9.7,2.6l-9.3,1.6c0,0-6.9-2.2-11-4.2
				c-4.1-2.1-10.6-6-12.4-7.6c-1.8-1.5-13.6-11.7-17-13.7c-3.4-2-9.6-4.7-11.2-5.2c-1.5-0.5-15-3.5-15-3.5L46.4,135
				c0,0-15.6-8.2-19-10.5c-3.3-2.3-11.7-8.3-11.7-8.3l-16.1-11.9c0,0,3.5-3.3,5.6-4c2.1-0.7,5.2-1.4,8.1-1c2.9,0.4,5.4,0.9,7.5,1.6
				c2.1,0.7,5.6,1.8,5.6,1.8s-3.8-8.6-4.3-11.9c-0.6-3.3-1.3-8.3,0.3-11.5c1.5-3.3,2.9-3.5,4.8-3.2c1.9,0.3,3.6,0.2,4.7,2.5
				c1.1,2.3,2,3.7,2,5.8c-0.1,2.2-0.4,8.7-0.4,9.8c0,1.2,0.3,4.3,0.3,4.3l3.7-8.3c0,0,4.4-6.3,8-6.7s5.6,0.1,5.8,0.4
				c0.2,0.3,6.2,3.2,7.1,3.8c0.9,0.6,3.4,2.6,3.4,2.6l2.9-4.2l20.7,18l34.1,26.7l23,16.1C142.3,147.1,140.5,134.9,139.8,133.9z"/>
			<g>
				<g>
					<path fill="none" stroke="#000000" stroke-linecap="round" stroke-linejoin="round" stroke-miterlimit="10" d="M141.9,147.1
						c0,0-89-60.6-111.4-99.8c0,0,7.5,2,15.9-1.9c0,0,49.6,66.1,93.4,88.5"/>
					<path fill="none" stroke="#000000" stroke-linecap="round" stroke-linejoin="round" stroke-miterlimit="10" d="M46.4,45.3
						c0,0-5.1-8.2-6-13.5c0,0-16.1,3.4-10.5,14.2"/>
					<path fill="none" stroke="#000000" stroke-linecap="round" stroke-linejoin="round" stroke-miterlimit="10" d="M37.5,57.6
						c0,0,3.3,0.8,6-0.2"/>
					<path fill="none" stroke="#000000" stroke-linecap="round" stroke-linejoin="round" stroke-miterlimit="10" d="M44.6,66.1
						c0,0,3.7,0,5.2-1.9"/>
					<path fill="none" stroke="#000000" stroke-linecap="round" stroke-linejoin="round" stroke-miterlimit="10" d="M49.4,71.3
						c0,0,3.7,0.4,6.7-1.7"/>
					<path fill="none" stroke="#000000" stroke-linecap="round" stroke-linejoin="round" stroke-miterlimit="10" d="M55,77.1
						c0,0,5.8,0.8,8-0.8"/>
					<path fill="none" stroke="#000000" stroke-linecap="round" stroke-linejoin="round" stroke-miterlimit="10" d="M65.3,86.9
						c0,0,2.7-2.4,2.9-4"/>
					<path fill="none" stroke="#000000" stroke-linecap="round" stroke-linejoin="round" stroke-miterlimit="10" d="M79.9,99.8
						c0,0,1.8-1.6,2.2-3.9"/>
					<path fill="none" stroke="#000000" stroke-linecap="round" stroke-linejoin="round" stroke-miterlimit="10" d="M87,105.7
						c0,0,1.6-1.6,1.6-3.5"/>
					<path fill="none" stroke="#000000" stroke-linecap="round" stroke-linejoin="round" stroke-miterlimit="10" d="M95.9,113
						c0,0-0.3-2.1,2.1-3.1"/>
					<path fill="none" stroke="#000000" stroke-linecap="round" stroke-linejoin="round" stroke-miterlimit="10" d="M105.1,120.2
						c0,0,2.6-1.8,2.5-3.4"/>
					
						<line fill="none" stroke="#000000" stroke-linecap="round" stroke-linejoin="round" stroke-miterlimit="10" x1="113.3" y1="126.4" x2="114.3" y2="124.4"/>
					
						<line fill="none" stroke="#000000" stroke-linecap="round" stroke-linejoin="round" stroke-miterlimit="10" x1="120.6" y1="131.9" x2="122" y2="130.1"/>
					<path fill="none" stroke="#000000" stroke-linecap="round" stroke-linejoin="round" stroke-miterlimit="10" d="M40.3,105.7
						c0,0-4.1-6.4,3.7-10.5c7.7-4.1,12.2,1.7,12.2,1.7"/>
					<path fill="none" stroke="#000000" stroke-linecap="round" stroke-linejoin="round" stroke-miterlimit="10" d="M37.4,105.6
						c0,0-4.7-3.8-4-12.1s0.6-17-6.3-17.3c-6.9-0.3-8.2,11.7-0.7,26.6"/>
					<path fill="none" stroke="#000000" stroke-linecap="round" stroke-linejoin="round" stroke-miterlimit="10" d="M33.7,99
						c0,0,2.6-11,9.7-14.7s18.2,6.1,18.2,6.1"/>
					<path fill="none" stroke="#000000" stroke-linecap="round" stroke-linejoin="round" stroke-miterlimit="10" d="M64.5,86.2
						c0,0-11.5,19-24.3,19.5c-12.8,0.5-29.3-13.8-40.6-1.5c0,0,26.6,20,35.1,25c8.6,5,31.3,14.6,44.3,16.5s22.4,10.2,32.4,19
						s24.9,13,24.9,13s12.6-1.6,21.2-5c8.6-3.3,48.8-22.5,61.8-24.2s93.2-20.5,103.8-29.7"/>
					<path fill="none" stroke="#000000" stroke-linecap="round" stroke-linejoin="round" stroke-miterlimit="10" d="M6.6,109.5
						c0,0,2.1-2.2,11.8-0.4c9.6,1.7,34.3,7.1,42.7,3.7s13.4-8.1,15.4-15.9"/>
					<path fill="none" stroke="#000000" stroke-linecap="round" stroke-linejoin="round" stroke-miterlimit="10" d="M71.9,92.9
						c0,0,2.2-1.3,2-4"/>
					<path fill="none" stroke="#000000" stroke-linecap="round" stroke-linejoin="round" stroke-miterlimit="10" d="M29,111
						c0,0,3.1,8.4-1.6,13.4"/>
					<path fill="none" stroke="#000000" stroke-linecap="round" stroke-linejoin="round" stroke-miterlimit="10" d="M40.1,112.8
						c0,0,2,3.9,0.3,7.2c-1.8,3.3-4.3,7.1-2,11.2"/>
					<path fill="none" stroke="#000000" stroke-linecap="round" stroke-linejoin="round" stroke-miterlimit="10" d="M39.9,120.7
						c0,0,34,11.9,44.8-16.9"/>
					<path fill="none" stroke="#000000" stroke-linecap="round" stroke-linejoin="round" stroke-miterlimit="10" d="M103.1,157.6
						c0,0,3.9-6.1,10.4-0.4c6.4,5.7,13.7,7.7,18.3,6.1"/>
					<path fill="none" stroke="#000000" stroke-linecap="round" stroke-linejoin="round" stroke-miterlimit="10" d="M70.4,143.8
						c0,0,13.3-15.7,36,0.8s31.3,11.3,34.8,6.3s-2.7-20.6-2.7-20.6s-11.9-18.2-7.3-26.2c4.7-8,16-21.5,28.9-12.5
						c12.9,9.1,12.9,17.8,12.9,17.8s0.1,12.7,18.6,9.9"/>
					<path fill="none" stroke="#000000" stroke-linecap="round" stroke-linejoin="round" stroke-miterlimit="10" d="M147.6,89.2
						c0,0-9.6-7-25.6,2.5S86,90.8,86,90.8"/>
					<path fill="none" stroke="#000000" stroke-linecap="round" stroke-linejoin="round" stroke-miterlimit="10" d="M112.1,95.2
						c0,0,9.2,1.5,9.9,12.4c0.7,10.9,5.5,17.1,12.8,16"/>
					<path fill="none" stroke="#000000" stroke-linecap="round" stroke-linejoin="round" stroke-miterlimit="10" d="M129.9,175.6
						c0,0,21.6-14.1,18.5-29.2c-3.1-15.1-16.3-30.2-8-39.8c8.2-9.6,19.4-4.5,24,3.4c4.6,7.9,17.7,31.2,44.3,9.4"/>
					<path fill="none" stroke="#000000" stroke-linecap="round" stroke-linejoin="round" stroke-miterlimit="10" d="M164.4,109.9
						c0,0-19.9-0.6-14.1,17.8c5.8,18.4,7.1,24.6,3.3,32c-3.8,7.4-5.9,12-5.2,15.1"/>
					<path fill="none" stroke="#000000" stroke-linecap="round" stroke-linejoin="round" stroke-miterlimit="10" d="M78.1,114.7
						c0,0,31.5,13.5,30.2,31.2"/>
					<path fill="none" stroke="#000000" stroke-linecap="round" stroke-linejoin="round" stroke-miterlimit="10" d="M136.9,180.4
						c0,0-2.6,8.9-16.4,2.7c-13.8-6.1-61.6-31.8-67.9-35.2S8.9,123.1,8.9,123.1l-9.2-18.8"/>
					<path fill="none" stroke="#000000" stroke-linecap="round" stroke-linejoin="round" stroke-miterlimit="10" d="M146.1,346
						c0,0-57.1-23.5-72.4-29.7s-19.9-13.1-21.3-16.6c-1.3-3.5-20.8-99.4-25.5-107.1c-2.3-3.8-8.5-34.9-9.6-44.4
						c-1.1-9.5-4-22.6-4-22.6"/>
					<path fill="none" stroke="#000000" stroke-linecap="round" stroke-linejoin="round" stroke-miterlimit="10" d="M161.2,92.4
						c0,0,4.9,5.7,16.6,1.7c11.8-4,16.5-21.3,52.2-12.6"/>
					<path fill="none" stroke="#000000" stroke-linecap="round" stroke-linejoin="round" stroke-miterlimit="10" d="M186.3,88.9
						c0,0-16.6-20.6-36.5-15.7S117.9,87.1,109,86.7c-16.7-0.7-25.2-3.3-35.5-8.8"/>
					<path fill="none" stroke="#000000" stroke-linecap="round" stroke-linejoin="round" stroke-miterlimit="10" d="M155.3,145.9
						c0,0,9.6-10.3,24.9-6.5c15.3,3.7,37.8,8.6,57.5,5.6"/>
					<path fill="none" stroke="#000000" stroke-linecap="round" stroke-linejoin="round" stroke-miterlimit="10" d="M167.6,139.2
						c0,0,4.3,20.4-7,32.3"/>
					<path fill="none" stroke="#000000" stroke-linecap="round" stroke-linejoin="round" stroke-miterlimit="10" d="M179.2,139.1
						c0,0,0.3,18.7-7.4,27.5"/>
					<path fill="none" stroke="#000000" stroke-linecap="round" stroke-linejoin="round" stroke-miterlimit="10" d="M179,143
						c0,0,9.6,1.4,9.4,16.4"/>
					<path fill="none" stroke="#000000" stroke-linecap="round" stroke-linejoin="round" stroke-miterlimit="10" d="M181.2,119.1
						c0,0,3.4-11.1,12.6-11.3s16.6,14.5,16.6,14.5s6.5,15.6,19.8,15.1c13.2-0.5,21.8-12.9,21.8-12.9s10.3-14.9,18.1-16.1"/>
					<path fill="none" stroke="#000000" stroke-linecap="round" stroke-linejoin="round" stroke-miterlimit="10" d="M219.6,133.9
						c0,0-19.8,4.4-33,0.1c-13.2-4.2-30-10-36.3-6.3"/>
					<path fill="none" stroke="#000000" stroke-linecap="round" stroke-linejoin="round" stroke-miterlimit="10" d="M173,108.5
						c0,0,14.6-19.3,37.5-3.6c0,0,7,4.5,9.3,11.8s3.7,12.3,10.9,12.7c7.2,0.4,17.7-11.5,17.7-11.5"/>
					<path fill="none" stroke="#000000" stroke-linecap="round" stroke-linejoin="round" stroke-miterlimit="10" d="M217.5,111.9
						c0,0,33.5-81.8,44.8-90.8c0,0,0.6,11.3,13.1,12.3c0,0-36.2,48-50.6,93.7"/>
					<path fill="none" stroke="#000000" stroke-linecap="round" stroke-linejoin="round" stroke-miterlimit="10" d="M193.9,98.8
						c0,0,17.1-16,31.8-6.2"/>
					<path fill="none" stroke="#000000" stroke-linecap="round" stroke-linejoin="round" stroke-miterlimit="10" d="M185.5,87.9
						c0,0,10.3-32.2,48.5-14.2"/>
					<path fill="none" stroke="#000000" stroke-linecap="round" stroke-linejoin="round" stroke-miterlimit="10" d="M275.4,33.5
						c0,0,3.6-5.5-2.4-11.4c-6.1-5.8-10.7-1-10.7-1"/>
					<path fill="none" stroke="#000000" stroke-linecap="round" stroke-linejoin="round" stroke-miterlimit="10" d="M267.8,44.3
						c0,0-5.4,1-7.6-6.3"/>
					<path fill="none" stroke="#000000" stroke-linecap="round" stroke-linejoin="round" stroke-miterlimit="10" d="M256.6,46.5
						c0,0,0.2,1.9,3.9,2.4"/>
					<path fill="none" stroke="#000000" stroke-linecap="round" stroke-linejoin="round" stroke-miterlimit="10" d="M253.7,61
						c0,0-4.3,0.1-5.6-3.7"/>
					<path fill="none" stroke="#000000" stroke-linecap="round" stroke-linejoin="round" stroke-miterlimit="10" d="M248.1,70.2
						c0,0-4-0.6-5.8-4"/>
					<path fill="none" stroke="#000000" stroke-linecap="round" stroke-linejoin="round" stroke-miterlimit="10" d="M244.5,82.4
						c0,0-3.9,1.5-7-2.4"/>
					<path fill="none" stroke="#000000" stroke-linecap="round" stroke-linejoin="round" stroke-miterlimit="10" d="M240.2,90.5
						c0,0-2.7,0.8-3.6-1.9"/>
					<path fill="none" stroke="#000000" stroke-linecap="round" stroke-linejoin="round" stroke-miterlimit="10" d="M235,101.3
						c0,0-2.4,0.9-4.5-2.1"/>
					<path fill="none" stroke="#000000" stroke-linecap="round" stroke-linejoin="round" stroke-miterlimit="10" d="M231.8,108.5
						c0,0-3.8,1.3-5.6-2.4"/>
					<path fill="none" stroke="#000000" stroke-linecap="round" stroke-linejoin="round" stroke-miterlimit="10" d="M227.3,119.9
						c0,0-4-0.1-5.7-2.8"/>
					<path fill="none" stroke="#000000" stroke-linecap="round" stroke-linejoin="round" stroke-miterlimit="10" d="M194.4,74.9
						c0,0-24-16-43.6-15.3C131.3,60.3,99.1,84.2,88.7,84"/>
					<path fill="none" stroke="#000000" stroke-linecap="round" stroke-linejoin="round" stroke-miterlimit="10" d="M130.3,79.7
						c0,0-7.2-2.7-8.3-10.5"/>
					<path fill="none" stroke="#000000" stroke-linecap="round" stroke-linejoin="round" stroke-miterlimit="10" d="M120.8,83.8
						c0,0-6.2-2.1-7.2-10.2"/>
					<path fill="none" stroke="#000000" stroke-linecap="round" stroke-linejoin="round" stroke-miterlimit="10" d="M80.4,81.2
						c0,0,46.8-30.7,72.6-31.7s43.5,18.6,49.3,20.4"/>
					<path fill="none" stroke="#000000" stroke-linecap="round" stroke-linejoin="round" stroke-miterlimit="10" d="M106,66.2
						c0,0-9.6-6.5-17.4-0.9s-5.4,14.1-5.4,14.1"/>
					<path fill="none" stroke="#000000" stroke-linecap="round" stroke-linejoin="round" stroke-miterlimit="10" d="M75.2,78.7
						c0,0-4.7-13.8,9-21.6s28.4,5.7,28.4,5.7"/>
					<path fill="none" stroke="#000000" stroke-linecap="round" stroke-linejoin="round" stroke-miterlimit="10" d="M119.9,59.4
						c0,0-1.2-16.1,15.8-21.9s33.3,14,33.3,14"/>
					<path fill="none" stroke="#000000" stroke-linecap="round" stroke-linejoin="round" stroke-miterlimit="10" d="M108,59.4
						c0,0-3.6-20.1,18.4-27.4s65.5,7.4,87.1,36.3"/>
					<path fill="none" stroke="#000000" stroke-linecap="round" stroke-linejoin="round" stroke-miterlimit="10" d="M200.4,54.5
						c0,0,11.9-4.4,18.2,1.3c6.3,5.7,9.7,15.4,12.7,16.8"/>
					<path fill="none" stroke="#000000" stroke-linecap="round" stroke-linejoin="round" stroke-miterlimit="10" d="M194.8,50.1
						c0,0,16.6-10.9,28.6-2.6s9.5,15.9,13.4,19.9"/>
					<path fill="none" stroke="#000000" stroke-linecap="round" stroke-linejoin="round" stroke-miterlimit="10" d="M227.8,118.3
						c0,0,26.9-20.8,43.6-9.2s22.8,17.2,29.9,18.7"/>
					<path fill="none" stroke="#000000" stroke-linecap="round" stroke-linejoin="round" stroke-miterlimit="10" d="M235.8,99.5
						c0,0,27.2-8.8,43,2.6s16.9,17.5,32.2,22.4"/>
					<path fill="none" stroke="#000000" stroke-linecap="round" stroke-linejoin="round" stroke-miterlimit="10" d="M277,113
						c0,0-5.5,3.6-9.2,9.4c-3.7,5.9-13.5,19.4-22.6,20.7"/>
					<path fill="none" stroke="#000000" stroke-linecap="round" stroke-linejoin="round" stroke-miterlimit="10" d="M263.9,128.2
						c0,0,12.1-1.3,14.5,6.5"/>
					<path fill="none" stroke="#000000" stroke-linecap="round" stroke-linejoin="round" stroke-miterlimit="10" d="M245.6,80.3
						c0,0,6.8,6.2,16.9,7.8c10.1,1.6,27.2,8.5,25.9,21.7"/>
					<path fill="none" stroke="#000000" stroke-linecap="round" stroke-linejoin="round" stroke-miterlimit="10" d="M260.4,87.7
						c0,0,3.4-14.5,22.9-12.7c19.5,1.8,35.6,21.6,35.6,21.6s-1.8,5.6-11.2,4.1c0,0-10.4-17.1-35.2-9.8"/>
					<path fill="none" stroke="#000000" stroke-linecap="round" stroke-linejoin="round" stroke-miterlimit="10" d="M288.3,105.7
						c0,0,27.6-6.2,39.4,7c11.8,13.1,2.6,43.2,12.1,55.9c0,0-2.4,5.7-7.3,2.1c0,0-8.5-13.1-7-30.4c1.5-17.3,0.2-34.1-29.6-23.7"/>
					<path fill="none" stroke="#000000" stroke-linecap="round" stroke-linejoin="round" stroke-miterlimit="10" d="M133.6,184.2
						c0,0,18.8,3.1,42.8-4.9c24-8.1,51.5-22.8,71.9-25.6c20.4-2.8,58.3-16.5,75.6-33.3"/>
					<path fill="none" stroke="#000000" stroke-linecap="round" stroke-linejoin="round" stroke-miterlimit="10" d="M310,100.9
						c0,0,3.1,1.4,2.9,4.2"/>
					<path fill="none" stroke="#000000" stroke-linecap="round" stroke-linejoin="round" stroke-miterlimit="10" d="M159.5,183.5
						c0,0-3.6-2.9-3.1-6.7"/>
					<path fill="none" stroke="#000000" stroke-linecap="round" stroke-linejoin="round" stroke-miterlimit="10" d="M167.9,181.8
						c0,0-2.6-2.1-2.7-4.5"/>
					<path fill="none" stroke="#000000" stroke-linecap="round" stroke-linejoin="round" stroke-miterlimit="10" d="M174.2,180
						c0,0-1.4-1.1-1.4-3.5"/>
					
						<line fill="none" stroke="#000000" stroke-linecap="round" stroke-linejoin="round" stroke-miterlimit="10" x1="185.4" y1="176" x2="183.1" y2="170.6"/>
					
						<line fill="none" stroke="#000000" stroke-linecap="round" stroke-linejoin="round" stroke-miterlimit="10" x1="201" y1="169.8" x2="198.1" y2="166"/>
					
						<line fill="none" stroke="#000000" stroke-linecap="round" stroke-linejoin="round" stroke-miterlimit="10" x1="194.7" y1="172.4" x2="190.5" y2="170.4"/>
					<path fill="none" stroke="#000000" stroke-linecap="round" stroke-linejoin="round" stroke-miterlimit="10" d="M211.2,165.6
						c0,0-1.4-1.8,0.5-4.8"/>
					
						<line fill="none" stroke="#000000" stroke-linecap="round" stroke-linejoin="round" stroke-miterlimit="10" x1="223.2" y1="160.8" x2="221.7" y2="158.2"/>
					<path fill="none" stroke="#000000" stroke-linecap="round" stroke-linejoin="round" stroke-miterlimit="10" d="M232.2,157.6
						c0,0-2.3-2.3-1.6-4.7"/>
					
						<line fill="none" stroke="#000000" stroke-linecap="round" stroke-linejoin="round" stroke-miterlimit="10" x1="243.5" y1="154.6" x2="240.5" y2="151.9"/>
					<path fill="none" stroke="#000000" stroke-linecap="round" stroke-linejoin="round" stroke-miterlimit="10" d="M258.7,151.7
						c0,0-1.3-3.5-0.2-5.7"/>
					<path fill="none" stroke="#000000" stroke-linecap="round" stroke-linejoin="round" stroke-miterlimit="10" d="M272.9,147.7
						c0,0-3.6-4.7-7.6-4.1"/>
					<path fill="none" stroke="#000000" stroke-linecap="round" stroke-linejoin="round" stroke-miterlimit="10" d="M281.8,144.5
						c0,0-3.7-0.4-3.8-2.7"/>
					<path fill="none" stroke="#000000" stroke-linecap="round" stroke-linejoin="round" stroke-miterlimit="10" d="M289.9,141.2
						c0,0-0.6-2.3-1.9-3.1"/>
					<path fill="none" stroke="#000000" stroke-linecap="round" stroke-linejoin="round" stroke-miterlimit="10" d="M299.6,136.7
						c0,0-1-1.4-3.1-2.6"/>
					<path fill="none" stroke="#000000" stroke-linecap="round" stroke-linejoin="round" stroke-miterlimit="10" d="M308.5,147.9
						c0,0-15.8,12.5-24.8,14.5"/>
					<path fill="none" stroke="#000000" stroke-linecap="round" stroke-linejoin="round" stroke-miterlimit="10" d="M302.3,166.6
						c0,0-11.8,10.3-23.6,12.4"/>
					<path fill="none" stroke="#000000" stroke-linecap="round" stroke-linejoin="round" stroke-miterlimit="10" d="M297.1,183.1
						c0,0-6.1,5.7-12.4,5.5"/>
					<path fill="none" stroke="#000000" stroke-linecap="round" stroke-linejoin="round" stroke-miterlimit="10" d="M139.6,184.7
						l-1.2,36.1l7.7,125.2c0,0,56.4,0.2,67.6-7c11.1-7.3,40.8-16,40.8-16s36.7-121.3,42.6-134.8c8.9-20.3,18.3-60.8,18.3-60.8"/>
					<path fill="none" stroke="#000000" stroke-linecap="round" stroke-linejoin="round" stroke-miterlimit="10" d="M139.3,193.4
						c0,0-11.6,0.7-15.1-2.5"/>
					<path fill="none" stroke="#000000" stroke-linecap="round" stroke-linejoin="round" stroke-miterlimit="10" d="M139,202
						c0,0-3.8-1.5-10.4-0.5"/>
					<path fill="none" stroke="#000000" stroke-linecap="round" stroke-linejoin="round" stroke-miterlimit="10" d="M138.7,213.4
						c0,0-5.9,2.1-9.8-3.4"/>
					
						<line fill="none" stroke="#000000" stroke-linecap="round" stroke-linejoin="round" stroke-miterlimit="10" x1="229.9" y1="175" x2="211.8" y2="204.7"/>
					
						<line fill="none" stroke="#000000" stroke-linecap="round" stroke-linejoin="round" stroke-miterlimit="10" x1="280.2" y1="201.3" x2="269.6" y2="212.3"/>
				</g>
				
					<line fill="none" stroke="#000000" stroke-linecap="round" stroke-linejoin="round" stroke-miterlimit="10" x1="145.8" y1="338.9" x2="103.6" y2="323"/>
				<path fill="none" stroke="#000000" stroke-linecap="round" stroke-linejoin="round" stroke-miterlimit="10" d="M39.2,217.3
					c0,0,7.8,29.9,9.5,44.4c1.7,14.5,7.4,37.5,10.2,40.1"/>
				<path fill="none" stroke="#000000" stroke-linecap="round" stroke-linejoin="round" stroke-miterlimit="10" d="M212.4,331.7
					c0,0,21.9-10.5,34.6-12.3c0,0,9.2-18.5,8.6-30.4"/>
			</g>
		</g>
		<path fill="url(#New_Pattern_Swatch_2)" d="M60.7,152.3l-47.4-26.7l6.8,39.1c0,0-1.6-16.8,0.1-17.6s2.4,1.2,4.4-2.4s1.9-6,6.5-3.1
			s4.6,6.5,8.8,6.9S54.4,153.9,60.7,152.3z"/>
		<path fill="url(#New_Pattern_Swatch_2)" d="M146.1,346l-3.2-52.1l10,42.3c0,0,7.5,5.2,17.3,3.7c9.8-1.5,11.7-1.9,19-1.1
			c7.3,0.8,15,1.2,19,0c4-1.2,8.1-1.5,8.1-1.5s-5.2,3.9-18.6,5.6C184.4,344.7,146.1,346,146.1,346z"/>
		<path fill="url(#New_Pattern_Swatch_2)" d="M138.4,220.8l1.2-36.1c0,0,17.3-0.1,24.8-2.2c7.5-2.1,19-5.8,19-5.8l17.6-7
			c0,0-28.2,21.5-41.5,23.1s-13.6,6.4-11.2,11c2.4,4.6,3.8,6.1,0,8.4C144.6,214.7,138.3,220.3,138.4,220.8z"/>
		<path fill="url(#New_Pattern_Swatch_2)" d="M142.1,148l-57.6-43.2L64.5,86.2L63,88.6c0,0-1.6,3.9,3,6.6c4.6,2.7,8.8,4.3,8.9,6
			s1.5,7.2,7.8,7.2c0,0,5.5,0.4,9.5,7.1c4,6.7,4.5,8.6,11.8,11c7.3,2.5,11.3,7,15,12s7.8,8.3,6.8,10.7c-1,2.4-2.6,4.3-3.8,4.1
			s6,3.5,10.8,2.5C137.6,154.9,142.6,151.6,142.1,148z"/>
		<path fill="url(#New_Pattern_Swatch_2)" d="M248.4,117.9c0,0-12.9,6.1-15.2-3.2c0,0,2.9-11.9,4.5-15.7c1.6-3.8,7.8-18.6,7.8-18.6
			s-11.2,21.2-13.8,28.2c-2.6,6.9-7,18.7-7,18.7s1.8,1.8,4.2,2C231.4,129.3,240.2,128.4,248.4,117.9z"/>
		<path fill="url(#New_Pattern_Swatch_2)" d="M130.3,54.7c0,0-4.8-4.3,1.8-15.7c0,0-12.6,4.7-12.3,20.4l10.5-4.4"/>
		<path fill="url(#New_Pattern_Swatch_2)" d="M113.5,74c0,0-6.3,8.6-13.2,9.5c0,0,17.2,1,20.4,0.3c0,0-8.6,5.3-22.8,2l-8.2-1.5
			l9.3-3.4L113.5,74z"/>
		<path fill="url(#New_Pattern_Swatch_2)" d="M105.3,66.6c0,0-14.7-4-18.3,10.7l-3.8,2.1c0,0-1.4-7.3,3-12.3
			C90.6,62,102.7,62.1,105.3,66.6z"/>
		<path fill="url(#New_Pattern_Swatch_2)" d="M78.1,114.7c0,0-5,18.2-30.4,13.2c0,0-1.8,6.7,2.9,8.7s-0.1,0.5-0.1,0.5L37.7,131
			c0,0-1-2.7,0-5.4c1-2.6,2.2-4.9,2.2-4.9S62.7,128.8,78.1,114.7z"/>
		<path fill="url(#New_Pattern_Swatch_2)" d="M29.3,111.4c0,0-5.7,3.3-9.7,1.9s-5.9,1.4-5.9,1.4l-7-5.2
			C6.8,109.5,12.9,106.2,29.3,111.4z"/>
		<path fill="url(#New_Pattern_Swatch_2)" d="M155.3,145.5c0,0,6.7,2.5,4.2,10.5s-0.8,13.7,1.9,14.7c0,0-0.1-0.1-4,1.7s-9,2.6-9,2.6
			s0-5.1,2.8-10.1C154.1,159.8,158.4,150.9,155.3,145.5z"/>
		<path fill="url(#New_Pattern_Swatch_2)" d="M164.4,109.9c0,0-12.4,0.9-7.2,16.7l-6.9,1.2C150.3,127.8,143.4,111.2,164.4,109.9z"/>
		<path fill="url(#New_Pattern_Swatch_2)" d="M191.7,119.4c0,0-6.8-4.5,2-11.7c0,0-9.4-0.3-12.6,11.7
			C181.2,119.4,189.3,120.6,191.7,119.4z"/>
		<path fill="url(#New_Pattern_Swatch_2)" d="M225.7,92.5c0,0-15.5-2.8-22.4,5.2c0,0,12.7,2.5,14.3,13.9c0,0-11.2-12.6-22.8-12.9
			l-1,0C193.9,98.8,208.2,83,225.7,92.5z"/>
		<path fill="url(#New_Pattern_Swatch_2)" d="M200.8,54.4c0,0,11.6,2.7,14,10.9c0,0,11-0.2,15.2,6.1c0,0-12.7-3.5-16.7-3.2
			C213.2,68.2,202.6,55.4,200.8,54.4z"/>
		<path fill="url(#New_Pattern_Swatch_2)" d="M277,113c0,0-5.6,6.2-4.5,12.8c0,0,9.8,0,6.3,8.8c0,0-3.4-7.2-14.8-6.5l5.2-7.7
			L277,113z"/>
		<path fill="url(#New_Pattern_Swatch_2)" d="M273.3,90.7c0,0,11.7-0.6,16.7,8.6c0,0,14.5-1.8,23.1,5.9c0,0-11.3-2.2-24.8,0.5
			C288.3,105.7,284.4,95.4,273.3,90.7z"/>
		<path fill="url(#New_Pattern_Swatch_2)" d="M44.8,94.8c0,0-3.2,4,0.3,9.9c0,0-5,2-5.2,0.9S37.1,98.4,44.8,94.8z"/>
		<path fill="url(#New_Pattern_Swatch_2)" d="M113.1,95.5c0,0-6.8,5.2-13.4,3.3c0,0,10.1,14,18.4,21.2c0,0-25.5-21.5-30.1-26.2
			c-4.5-4.6-2.1-2.9-2.1-2.9S98.7,97.5,113.1,95.5z"/>
		<g>
			<g>
				<path fill="url(#New_Pattern_Swatch_2)" d="M133.9,97.5c3.2,0,3.2-5,0-5C130.6,92.5,130.6,97.5,133.9,97.5L133.9,97.5z"/>
			</g>
		</g>
		<path fill="url(#New_Pattern_Swatch_2)" d="M122,69.3c0,0,3.4,6.9,10.5,5.7c0,0,17.4-12.9,34.8-0.4c0,0-9.4-3.7-20.5-0.6
			c-11.1,3.2-17.2,5.4-17.2,5.4s-4.7-2.2-6.1-5.1S122,69.3,122,69.3z"/>
		<path fill="url(#New_Pattern_Swatch_2)" d="M186.1,148.5c0,0-2.8-3.8-4.5-4.6c-1.6-0.7-2.6-1-2.6-1l0.1-3.8l5.8,1.4
			c0,0,10.1,5,8.1,12.1l11.8,0.3l-16.4,6.2C188.4,159.1,187.3,151.6,186.1,148.5z"/>
	</g>
	<path fill="none" stroke="#000000" stroke-width="0.5" stroke-linecap="round" stroke-linejoin="round" stroke-miterlimit="10" d="
		M13.3,125.6c0,0-0.2,3.3,0.9,5s0.9,3.4,1.1,4.9c0.3,1.4-0.4,2.6,0.5,4.1c0.9,1.6,0.8,1.6,0.8,3.3c0,1.6-1.1,1.3,0,3.4
		s1.1,1.7,1,3.5c-0.1,1.8,0,2,0.5,3.7s1.1,1.1,0.7,2.9s-1.1,1.9-0.2,3.7c1,1.9,1.7,0.4,1.4,3.2s-0.2,3.6,1,6
		c1.2,2.4,1.5,4.3,1.5,6.7s0.9,3.8,1.4,6.3s-0.4,3.3,0.4,4.4s0.9,1.4,1.5,3.1s0.6,2.5,1.4,3.3s1.9,2.8,1.9,5.4s0.2,2.9,1.7,6.2
		s1.6,5.5,1.8,6.9s0,2.9,1.1,5.2s0.7,2.4,1.2,4.5c0.5,2.2,0.9,8.1,2.2,9.8s2.2,5.9,1.8,8.3c-0.4,2.4,0.8,3.8,1.7,7.6
		s1.9,6.6,2.1,9.4c0.2,2.8-0.3,2.6,1.2,5.6c1.5,3.1,1.1,3.1,1.2,5.3c0.1,2.2-0.6,2.2,0.4,4.3c1,2.1,0.6,1.4,2.1,5.6s0.5,3.9,1.2,7.3
		c0.7,3.4,1.7,9.6,2.2,10.2c0.6,0.6,0.7,0.7,0.6,2.5c-0.1,1.8-0.1,1.4,1,3.2c1,1.9,1.9,5.4,5.6,7c3.6,1.6,2.1,1.3,3.8,2.7
		s0.5,1.7,3.2,2.6c2.7,0.9,5.4,0.5,8.4,3.6c3,3.1,4.5,1.3,6.3,2.6c1.8,1.3,2.9,1.2,5.3,2.2c2.4,1,1.8,1.8,4.1,1.9s2.8,0.2,4.8,1.7
		c1.9,1.6,2.1,0.9,5.1,2.1c3,1.2,8.6,1.9,10.7,4.4s2.9,0.8,5.1,2.1s2.7,1.3,4.8,2.4s3.5,1.6,5.2,1.8c1.8,0.1-0.5-1,3,0.9
		s1,0.8,4.7,2.3s3.1,1.2,6.2,2.5s6.1,2.7,6.8,2.8c0,0,0.6,0.9,0-2.1s-0.9-3.2-0.6-4.1c0.4-0.9,0.4-0.5,0.3-1.7s0.3-1.7-0.2-3.1
		c-0.5-1.4-0.9-1.7-0.6-3s0.8-2.2,0.1-4.8c-0.7-2.6-0.9-1.4-0.7-4.6s0.2-3.4,0.1-4.3s-0.1-1.1-0.1-2.1c-0.1-1-0.1-1.2-0.1-2
		s0-0.3-0.1-2c-0.1-1.8-0.4-2.4-0.6-2.9s-0.2-2.2,0.2-4.1c0.4-1.9-0.1-2.1-0.3-4.5c-0.2-2.4-0.8-2.6-0.3-4.5s0.9-0.7-0.1-3.4
		s-1.1-3-0.8-4.1s1.6-3.5,0.8-6.2s-0.8-1-0.9-3.1c-0.1-2,0.3-1.2-0.2-3c-0.5-1.8-0.6-2.3-0.3-4.5c0.3-2.2,0-1-0.2-3.7
		c-0.2-2.7-0.2-2.5-0.3-3.8c-0.1-1.2,0.5-1.3-0.3-4.4s-1-2.3-0.3-5.4s0.4-2.2-0.3-4.7c-0.6-2.5-0.6-2.7-0.4-5.9c0.2-3.2,1.1-3,0-5.7
		s-1.4-0.1-0.9-3.9s0.8-4.5,0.1-6.6s-1-2.7-0.6-3.9c0.4-1.2,0.5-1.8,0-4s-0.4-1.9,0.2-4.3c0.7-2.4,0.1-2.3,0-3.7s0.2-3.4,0-5.5
		c-0.2-2.1-0.9-1,0-4c0.9-3,0.7-2.8,0.7-4.6c0-1.8,0.4-3.1,0-4.6c-0.4-1.4-0.6-2.1,0.1-4.4s0.1-4,0.1-4"/>
	<path fill="none" stroke="#000000" stroke-width="0.5" stroke-linecap="round" stroke-linejoin="round" stroke-miterlimit="10" d="
		M145.6,338.6c0,0-2.6-0.1-3.6-0.8c-1-0.7,3.5,0-2.2-1.2s-6-2-6.1-2.3c-0.1-0.3-2.3-1.5-4.7-1.8c-2.4-0.3-0.7,1.5-3.5-1
		c-2.9-2.5-3.9-2-5.6-2.4c-1.7-0.4-2.4-0.4-3.5-1.3c-1.2-0.9-0.7-1.1-1.5-1s-1.3-0.1-2.5-0.5c-1.2-0.4-7.6-1.4-8.6-3.3"/>
	<path fill="none" stroke="#000000" stroke-width="0.5" stroke-linecap="round" stroke-linejoin="round" stroke-miterlimit="10" d="
		M58.9,301.8c0,0-1.2-0.8-1.8-3.3s-0.8-2-1.5-4.2c-0.7-2.2-1.8-1.6-1.5-3.5s0.8-1.2-0.6-3.9s-1.4-2.9-1.2-5.1s-1.4-3.2-1.5-5.4
		s0-3.9-0.9-6.2c-0.9-2.4-0.8-2.7-0.9-4.4s0.1-3.3-0.5-4.7s-0.3-2.1-0.4-3.1s0.1-3.6-1.1-6.5c-1.2-2.8-1.1-0.7-0.9-4.5
		c0.2-3.9,0-4.1-1.3-6.1c-1.3-2-1.3-3.2-1.2-5.3c0.1-2-1.2-3.3-1.7-4.7s-0.6-3-0.4-4.2c0.2-1.2,0.9-2-0.6-4.2s-1.5-5.2-1.5-5.2"/>
	<path fill="none" stroke="#000000" stroke-width="0.5" stroke-linecap="round" stroke-linejoin="round" stroke-miterlimit="10" d="
		M138.7,213.4c0,0-0.5,0.4-2.1,0.2s-1.7-0.2-2.5-0.2c-0.8,0-1.3,0.5-1.9-0.5c-0.7-1-1.4-1.4-1.9-1.7c-0.6-0.3-1-0.1-1.2-1.2"/>
	<path fill="none" stroke="#000000" stroke-width="0.5" stroke-linecap="round" stroke-linejoin="round" stroke-miterlimit="10" d="
		M139,202c0,0-1.3-1.1-3.8-0.8c-2.4,0.3-1.8,0.7-3.1,0s-2.9-0.4-3.2,0"/>
	<path fill="none" stroke="#000000" stroke-width="0.5" stroke-linecap="round" stroke-linejoin="round" stroke-miterlimit="10" d="
		M139.3,193.2c0,0,0.7,1.1-2.6,0.2c-3.3-0.9-3.8-0.8-4.8-0.4s-1.9,0-2.6-0.2s-1.2-0.6-2.2-0.7c-1-0.2-2.7-0.6-2.9-1.3"/>
	<path fill="none" stroke="#000000" stroke-width="0.5" stroke-linecap="round" stroke-linejoin="round" stroke-miterlimit="10" d="
		M145.8,345.9c0,0,2.4,0.4,3.8,0c1.3-0.4,0.9-0.4,3.3-0.1c2.3,0.3,2.1,0.5,3.2,0.3c1.1-0.2,2.1,0,2.8,0.1c0.7,0.1,2.2,0.4,3.8,0
		c1.6-0.4,1.9-1.4,3.5-1c1.6,0.4,1.1,1,3.3,0.6c2.1-0.3,3.1-0.5,4.2-0.4c1.1,0.1,6.3,0.5,8-0.6s3.4-0.1,5.5,0
		c2.1,0.1,2.6-0.2,4.4-0.8c1.8-0.6,3-0.6,4.5-0.5c1.5,0.1,1,0.9,3.2,0c2.2-1,5-1.6,6.9-1.7c1.8-0.1,2.4-0.3,4.3-1.2
		c1.9-1,2.3-0.4,3.7-1.5c1.4-1.2,1-1.6,2.8-2.2c1.8-0.6,1.1,0.2,2.5-1c1.5-1.2,2.9-0.1,4.9-2.2s2.4-0.8,5.6-2.3
		c3.2-1.5,4.2-1.8,5.6-1.8c1.5,0,1.1,0.4,3.3-1.1c2.3-1.5,2.3-1.2,3.4-1.5c1.2-0.3,1.4,0.2,2.9-0.6c1.5-0.8,2.2-1.6,4.2-1.9
		s1.7,0.2,3.3-0.8s1.7,1.3,2.3-1.5c0.6-2.8,0.2-2.9,0.8-3.7s1.5-2.2,1.5-4.9c0-2.7,0-3.4,0.9-4.7c0.9-1.3,0.6-0.2,1.3-2.7
		c0.7-2.5,0.7-2.3,1.4-3.5s0.8-1.6,0.6-2.9s0-2.6,1.5-5s0.7-2.3,1-3.1s0.5-1.7,0.9-3.1c0.4-1.3,1.7-3.1,1.6-5.4
		c0-2.2,0.2-2.3,0.9-3.6c0.6-1.3,0.7-1.5,1-3.5c0.3-1.9,2-1.7,2.3-4.5c0.3-2.8-0.4-1.7,0.5-3.5c0.9-1.8,1-2.2,1.3-4.4s0-1.4,1-3.2
		c1-1.8,1.7-3,1.8-5.8c0.1-2.9-0.3-2.4,0.9-4s1-1.9,1.5-3.5c0.5-1.7,1.4-2.4,1.6-5.2c0.2-2.7,0.1-2.5,0.9-3.9
		c0.8-1.5,0.9-0.4,1.1-2.3s-0.5-2.4,0-2.9s1.1-0.8,1.4-1.7c0.3-0.9,1-3.2,1.2-3.7c0.2-0.5,0.9-0.2,1-1.8c0.1-1.6-0.3-2.4,1.2-5
		c1.5-2.5,0.1-0.2,1.1-3.4c1-3.3,1-3.2,1.5-4.7c0.5-1.6,1.1-2.7,1.3-4.1c0.2-1.4,0.2-1.8,1.2-3.6s0.7-1.6,1-2.8
		c0.3-1.2,1.7-3.1,2.1-5.8c0.4-2.8,0.3-0.8,1.3-3.4s1-3.4,1.8-5.2s1.4-2,1.4-3.5c0-1.5,0-1.8,0.6-2.6c0.6-0.8,0.9-1.4,1.2-2.2
		c0.3-0.8,1.1-1.6,1.7-4.5c0.5-2.9,0.7-3.6,1.4-4.7c0.7-1.1,0.6-0.8,0.7-2.3c0.1-1.5,0.4-1.2,0.9-2.8c0.5-1.6,1.1-1.8,0.9-2.9
		c-0.2-1.1,0.4-3.7,1.5-5.1c1.1-1.5,1.6-3.3,1.9-5.6s0.1-1.9,0.7-4.2c0.7-2.3,0.9-2.1,0.9-3.5s0.4-3.6,1.4-5.3c1-1.7,1-1.8,1-3.8
		c0-2,0.7-3,0.9-3.6c0.2-0.6,0.9-1.1,0.3-2.8"/>
	<path fill="none" stroke="#000000" stroke-width="0.5" stroke-linecap="round" stroke-linejoin="round" stroke-miterlimit="10" d="
		M229.9,175c0,0-0.3,2.6-2.3,3.7c-2,1.1-1.7,2.1-2.5,4.1s-2.7,4.5-3.1,5.1s-2.2,0.7-2.4,3s-1.3,3.1-2,4.2s-1.5,1.1-2.2,3
		s-0.4,0.7-1.4,3c-1,2.3-1.6,3.3-2.1,3.4"/>
	<path fill="none" stroke="#000000" stroke-width="0.5" stroke-linecap="round" stroke-linejoin="round" stroke-miterlimit="10" d="
		M280.2,201.2c0,0,0.1,0.8-1.2,1.3c-1.3,0.6-0.9,0.5-1.7,1.8c-0.8,1.2-0.9,1.7-1.8,2.2c-0.9,0.6-1.1,0.7-1.7,1.6s-1.1,1.4-1.9,1.7
		c-0.9,0.4-1.3,1.1-1.9,2c-0.6,0.8-0.4,1.3-1.1,1.1"/>
	<path fill="none" stroke="#000000" stroke-width="0.5" stroke-linecap="round" stroke-linejoin="round" stroke-miterlimit="10" d="
		M297.5,182.9c0,0-0.6,1-1.8,1.4c-1.3,0.4-0.2-2-1.8,1s-0.2,1.3-2.4,1.6c-2.2,0.3-2.6,0.4-3.4,1c-0.8,0.5-0.8,0.8-1.7,0.8s-2,0-2,0"
		/>
	<path fill="none" stroke="#000000" stroke-width="0.5" stroke-linecap="round" stroke-linejoin="round" stroke-miterlimit="10" d="
		M302.6,166.4c0,0-1.2,1.6-3.2,2.4c-1.9,0.9-2.4,1.5-3.2,2.3s-1.2,1.5-2.6,2s-1.8,0.7-3.1,1.4s-2.1,0.9-3.8,1.9
		c-1.7,0.9-1.7,1.3-3.3,1.6s-4.3,1-4.7,1.1"/>
	<path fill="none" stroke="#000000" stroke-width="0.5" stroke-linecap="round" stroke-linejoin="round" stroke-miterlimit="10" d="
		M308.7,147.9c0,0,1.8-0.1-2.3,1.6c-4.1,1.7-2.3,2.3-4.5,3.8c-2.3,1.5-3,1.5-5,2.8c-2.1,1.3-2,0.7-3.8,2.3c-1.8,1.5-1.8,1.8-3.2,2.1
		c-1.3,0.2-2.4,0.1-3.2,1c-0.8,0.9-2.1,1.2-3,1.1"/>
	<path fill="none" stroke="#000000" stroke-width="0.5" stroke-linecap="round" stroke-linejoin="round" stroke-miterlimit="10" d="
		M133.9,184.3c0,0,1,0.8,3,0.6s3.1-1,4.5-0.1c1.4,0.9,3,0.9,3.8,0.6s0.8-0.5,2.2-0.6c1.4-0.1,2.1,0.5,3.5,0.1c1.4-0.4,1.7-0.8,3-0.7
		s2.3,0.5,3.3,0s2.3-0.6,2.9-0.8s4.1,0.1,4.9-1c0.8-1.1,1.8-0.9,4.1-1.2c2.3-0.2,3.2,0,4.3-0.7c1.1-0.7,1.2-0.9,2.4-1.1
		c1.2-0.2,3.4-0.4,3.5-0.8s0.1-0.3,2.6-1.3s2.5-0.5,4.1-1.5c1.6-1.1,2.2-1.3,3.5-1.5c1.4-0.1,1.9,0.2,2.9-0.7c1-0.9,1.2-0.8,2.8-1.5
		c1.6-0.6,1.8-0.3,3.9-1.5c2.2-1.3,1.8-1.9,3.7-1.7s1.8-0.5,3.1-1.3c1.4-0.8,3.2-1.2,5.7-2.2c2.6-1,3-1.2,4.6-2
		c1.6-0.8,2.1-1.5,4.4-1.7c2.3-0.3,2.8,0.2,4-1.1c1.2-1.3,2.2-2.1,5.1-2.2c2.8,0,2-0.8,4.3-1.4c2.3-0.6,4.5-0.9,5.2-1.3
		c0.7-0.4,3.3-1.2,4.2-1.2s4.9-0.2,6.7-0.9c1.8-0.7,3.7-0.8,5.3-1c1.6-0.2,1.6-0.6,3.9-1.3c2.2-0.7,3.4-1,4.8-1s1.6,0,3.4-1
		s0.8-0.5,3.4-1.4c2.6-0.9,2.3-1.4,5-1.9c2.7-0.4,2.5-0.3,4.8-1.3c2.3-1,2.5-0.6,4.6-1.6s3.9-0.9,7.9-3.5c4.1-2.7,4.5-3.1,6.9-3.3
		c2.4-0.3,3.8-2.3,4.1-2.6c0.3-0.3,1.7-1.4,4.3-2.2c2.6-0.8,5.4-2.6,6.8-4.2c1.4-1.6,4.2-3.2,5.2-4c1-0.8,3-3.2,3-3.2"/>
	<path fill="none" stroke="#000000" stroke-width="0.5" stroke-linecap="round" stroke-linejoin="round" stroke-miterlimit="10" d="
		M159.4,183.5c0,0-0.6-1.2-1.5-1.7c-0.9-0.5-1.4,0.5-1.2-1.1s0.3-1.8,0-2.6s-0.3-1.3-0.3-1.3"/>
	<path fill="none" stroke="#000000" stroke-width="0.5" stroke-linecap="round" stroke-linejoin="round" stroke-miterlimit="10" d="
		M167.7,181.6c0,0,0.1-0.1-0.9-1c-1-0.8-1.3,0.1-1-0.8s-0.5-2.1-0.5-2.2"/>
	<path fill="none" stroke="#000000" stroke-width="0.5" stroke-linecap="round" stroke-linejoin="round" stroke-miterlimit="10" d="
		M174.2,180c0,0,0.3-0.6-0.5-1.1s-1.1,0-1-1.1"/>
	<path fill="none" stroke="#000000" stroke-width="0.5" stroke-linecap="round" stroke-linejoin="round" stroke-miterlimit="10" d="
		M183.1,170.4c0,0-0.6,0.4,0.4,1.1c1,0.7,1.2,0.7,1.1,1.7s0,0.7,0.3,1.4c0.3,0.8,0.6,1.4,0.6,1.4"/>
	<path fill="none" stroke="#000000" stroke-width="0.5" stroke-linecap="round" stroke-linejoin="round" stroke-miterlimit="10" d="
		M190.3,170.3c0,0,0.3,0.6,1.4,0.7s1.3-0.5,1.8,0.4s0.9,1,0.9,1"/>
	<path fill="none" stroke="#000000" stroke-width="0.5" stroke-linecap="round" stroke-linejoin="round" stroke-miterlimit="10" d="
		M197.9,166c0,0,0,0.1,1.1,0.7s0.9,0.8,1.2,1.4s1.1,1.6,1.1,1.6"/>
	<path fill="none" stroke="#000000" stroke-width="0.5" stroke-linecap="round" stroke-linejoin="round" stroke-miterlimit="10" d="
		M211.7,160.6c0,0,0.2,0.9-0.5,1.8c-0.7,0.8-1.1,0.5-0.7,1.5s0.6,1.5,0.6,1.5"/>
	<path fill="none" stroke="#000000" stroke-width="0.5" stroke-linecap="round" stroke-linejoin="round" stroke-miterlimit="10" d="
		M221.6,158.2c0,0-0.6,0.5,0.4,0.9s1.2,1,1.2,1.3"/>
	<path fill="none" stroke="#000000" stroke-width="0.5" stroke-linecap="round" stroke-linejoin="round" stroke-miterlimit="10" d="
		M230.8,153.2c0,0-1.2-0.4-0.5,1.1c0.7,1.5,0.6,1.2,1.1,2s0.9,1,0.9,1"/>
	<path fill="none" stroke="#000000" stroke-width="0.5" stroke-linecap="round" stroke-linejoin="round" stroke-miterlimit="10" d="
		M240.5,152c0,0-0.4,0.3,0.7,0.4c1.1,0.1,0.8,0.3,1.4,0.9s0.9,0.8,0.9,0.8"/>
	<path fill="none" stroke="#000000" stroke-width="0.5" stroke-linecap="round" stroke-linejoin="round" stroke-miterlimit="10" d="
		M258.5,146.1c0,0,0.1,0.9-0.4,1.9s-1.1,1.1-0.5,2s1.1,1.8,1.1,1.8"/>
	<path fill="none" stroke="#000000" stroke-width="0.5" stroke-linecap="round" stroke-linejoin="round" stroke-miterlimit="10" d="
		M265.1,143.5c0.1,0.1,1.2-1,2.4,0.2c1.2,1.2,1.1,1.3,1.8,1.3c0.7-0.1,0.2-1,1.3,0.4c1.2,1.4,1.7,1.6,1.8,1.7
		c0.1,0.1,0.5,0.6,0.5,0.6"/>
	<path fill="none" stroke="#000000" stroke-width="0.5" stroke-linecap="round" stroke-linejoin="round" stroke-miterlimit="10" d="
		M281.4,144.5c0,0-0.2-0.4-1-0.4s-1.2,0.3-1.5-0.3s-0.8-0.7-0.8-1c0-0.3-0.1-0.9,0-1"/>
	<path fill="none" stroke="#000000" stroke-width="0.5" stroke-linecap="round" stroke-linejoin="round" stroke-miterlimit="10" d="
		M287.8,138.1c0,0,0.3,0.4,0.9,0.7c0.6,0.3,0.7,0.1,0.9,0.9c0.1,0.8,0.3,1.4,0.4,1.5"/>
	<path fill="none" stroke="#000000" stroke-width="0.5" stroke-linecap="round" stroke-linejoin="round" stroke-miterlimit="10" d="
		M299.6,136.8c0,0,0-1.3-1.2-1.4s-1.3,0-1.5-0.4s-0.5-1.2-0.5-1.2"/>
	<path fill="none" stroke="#000000" stroke-width="0.5" stroke-linecap="round" stroke-linejoin="round" stroke-miterlimit="10" d="
		M13.7,126.2c0,0-0.3-1.4-1.6-1.3c-1.3,0.1-1.2,0.1-2.1-0.9c-1-1-1.5-0.2-1.7-1.5s-0.2-3-1.8-4.5s-1.5-1.6-1.8-3
		c-0.3-1.3-0.8-1.3-1-2.2c-0.2-0.9-0.9-2.3-1.1-2.7s-0.9-2.8-1.9-3.8s-1.4-1.9-0.8-2.7c0.7-0.8,2.3-1.2,3.4-2.4s1.6-1.3,3.3-1.5
		c1.7-0.2,2.3,0,3.3-0.5s0.8-1.3,4,0.1s4.3,1.2,5.2,1.1c0.9-0.2,0.2-0.1,2.8,0.8c2.6,0.9,4.7,2,4.3,1.1c-0.4-0.9,0,0.3-1.1-2.4
		c-1.1-2.8-0.7-2.2-1.8-4c-1.1-1.8-0.4-2.5-0.7-3.9s0-2.7-1.1-4.6c-1.1-1.9-0.7-0.8,0-4.1c0.6-3.4-0.5-3.3,1.4-5s1-1.9,2.1-2.1
		s0-0.5,2.4,0s1.6-0.8,3.1,1.1c1.6,1.9,2.3,1.1,2.4,2.9c0.2,1.9-0.1,1.9,0.5,3.6s1.6,0.1,0.5,2.8c-1.1,2.7-0.7,2.8-0.8,4.6
		c0,1.8,0,1.3,0,3.5c-0.1,2.3,0.2,3.5,0.4,3.6"/>
	<path fill="none" stroke="#000000" stroke-width="0.5" stroke-linecap="round" stroke-linejoin="round" stroke-miterlimit="10" d="
		M75.1,77.3c-0.4-1.6-0.1-1.7-0.4-3c-0.3-1.3,0.2-1.1-0.3-2.2c-0.5-1.1-0.4-0.6,0-2.5s0.7-1.5,0.9-3c0.2-1.4,0.9-0.2,1.5-2.3
		c0.6-2.1-0.9-1.4,1.6-3.2s3.3-3,3.6-3.7c0.3-0.7,0.5-1,1.8-1s1.8-0.2,2.7-0.9c0.9-0.8,4-1.8,5.5-1.2S95.5,55,96,55
		c0.4,0,0-1.1,3.3,0.5c3.3,1.6,3.2,0.3,5.3,1.9c2,1.6,2.6,2,3,1.7c0.4-0.4,1.2-1.9,0.4-4.1c-0.8-2.2-0.1-1.6,0.2-3.2
		c0.3-1.6,1.1-2.8,1.6-5.7s1.6-4,3-5.3c1.4-1.3,2.4-2,3.5-3.3c1.1-1.3,2.7-3.8,6.5-4.3s4.3-1.1,5.8-1.8c1.5-0.8,2.4-1.4,4.7-1.3
		c2.4,0.1,1.9,0.8,5.1,0c3.2-0.8,6.9-0.8,10.7,0.6s5.2,1.2,7.5,1.6c2.3,0.3,2.1-0.3,4.5,1.2c2.4,1.4,1.2,0.2,5,1.6
		c3.8,1.4,2.8,0.4,5.7,2.1c2.9,1.8,2.9,0,6.4,2.9c3.6,2.9,3.9,2.7,5.9,3.1c2,0.4,2.2,0.9,3.9,2.2c1.8,1.3,0.2,1.1,2.6,1.7
		c2.4,0.6,4.9,3.1,4.9,3.1s2.5-1.4,4.4-2.7c1.9-1.3,5.7-1.1,6.8-1.8c1.1-0.8-0.1-1.3,3.2-1.3s3.6-0.1,5.5,0.1
		c1.9,0.2,3.4,0.4,5.1,1.2c1.7,0.9,3.3,1.5,4.3,2c1,0.6,2.2,2.1,4,4.1s1.7,2.8,3.2,4c1.5,1.2,1.4,2.1,1.8,4.3
		c0.4,2.2,0.4,2.3,1.4,3.8c1,1.5,2.2,3.4,2.2,3.4"/>
	<path fill="none" stroke="#000000" stroke-width="0.5" stroke-linecap="round" stroke-linejoin="round" stroke-miterlimit="10" d="
		M247.4,81.8c0,0,0,1.4,1.8,1.8s1.3,0.1,3.1,1.1c1.8,1.1,3.3,1.5,3.4,1.5s1.6,0.9,2.9,1.1c1.3,0.2,1.3,2.5,2,0s0.8-1.6,2.4-4.7
		s3.3-3.7,4.8-4.5s5.4-1.7,6.2-2.4s2.9-0.8,5-0.8c2.1,0,4.2-0.6,5.7,0.3c1.5,0.9,3.6,0.4,6.7,1.5c3.1,1.1,3.4,0.3,5.6,2.1
		s4.2,2.7,6.4,3.7c2.1,1,2.9,1.1,5.1,3.4s3,2.6,4.7,3.8s4.1,5.2,4.8,5.8c0.7,0.6,1.5,0.8,0.5,2s-0.7,0.3-2.4,1.7
		c-1.7,1.3-1.4,1.3-2.9,1.7s-3-0.1-2.2,0.5c0.7,0.6,1,0.5,1.4,1.4c0.4,0.9,0.7,2.1,1.1,2.3c0.4,0.2,1.8-0.6,5.5,1.5s2.5,1.3,5.4,3.1
		c2.9,1.8,1.9,1,4.7,4.6c2.7,3.6,1.2,4.2,3,7.3s1.6,3.8,2,8.7c0.4,4.9,0,2.3,0.4,7.2s0.3,3.8,0.4,7.7c0.2,3.9-0.9,4.5-0.4,6.1
		s1,5,1.6,7.4c0.6,2.5,0.1,1.7,1.4,4.4s2.9,4,2.3,5.4c-0.6,1.3-1.7,2.2-2.1,2.8c-0.4,0.6-1.2,0.9-2.6,0.5c-1.3-0.4-3.6-2.8-3.6-2.8
		s-0.2-0.3-1.9-4.5c-1.7-4.2-2.3-5.1-2.6-5.7s-1.1-5.6-1.4-9.2c-0.2-3.6-0.1-4.7-0.1-6.9c0-2.2-0.7-2.4-0.2-4.7
		c0.5-2.3,0.6-2.6,0.6-4.7c0-2.1,0-3.9-0.2-5.5c-0.2-1.6-1.1-5.1-1.2-5.6s-0.8-1.5-0.8-1.5"/>
	<path fill="none" stroke="#000000" stroke-width="0.5" stroke-linecap="round" stroke-linejoin="round" stroke-miterlimit="10" d="
		M322.9,118.8c0,0-0.7,1.3-2.4,1.6s-1.7,1.1-2.3,1.4c-0.6,0.3-1.4,0.7-2.6,1.2c-1.1,0.4-3.2,1.6-3.4,1.5c-0.3,0-1.7,0-2.8-0.5
		c-1.1-0.5-4.5-2.2-5.7-2.4c-1.2-0.1-0.8-0.3-2.3-1.3s-2.7-1.4-3.3-1.8c-0.6-0.4-1.5-1.6-1.6-1.7c-0.1-0.1-1.7-1,1.9-1.1
		c3.6-0.1,6.5-0.9,7-1.6s2.6-0.8,4.8-0.4c2.2,0.3,3-0.6,4.2-0.2c1.2,0.4,1.7,0,3.4,1C319.7,115.5,322.5,118.2,322.9,118.8z"/>
	<path fill="none" stroke="#000000" stroke-width="0.5" stroke-linecap="round" stroke-linejoin="round" stroke-miterlimit="10" d="
		M136.9,180.4c0,0,1,0.9-0.7,2c-1.6,1.2-1.8,1.6-2.9,1.9c-1.1,0.4-1,0.4-2.2,0.6c-1.3,0.2-1.7,0.6-3.5,0.3c-1.8-0.3-2.5-1.3-4.6-1.7
		c-2.1-0.4-2.7-0.8-4.8-1.4c-2.1-0.6-3.9-1.9-5.5-2.7c-1.6-0.8-5.1-2.1-10.7-5.4c-5.6-3.3-5.3-3.1-8.4-3.4s-1-1.5-3.4-2.7
		c-2.4-1.2-6.9-4.7-10.4-5.7c-3.6-1-4.1-1.8-5.3-2.6s0.7-1-3.4-1.9c-4.1-0.9-5.2-2.3-6.4-3.4c-1.2-1.1-7.4-3.9-9.8-5.3
		c-2.4-1.4-3.4-1.8-5.6-3c-2.2-1.2-1.9-1.6-4-2.2c-2-0.6-4.6-1.6-5.2-2.5c-0.6-0.9-1.8-1.6-4.2-2.9c-2.4-1.3-4.5-3-5.2-3.4
		c-0.8-0.4-5.6-2.8-5.8-2.8c-0.2,0-6-2.8-6.7-3.4c-0.6-0.6-4.7-3-4.7-3"/>
	<path fill="none" stroke="#000000" stroke-width="0.5" stroke-linecap="round" stroke-linejoin="round" stroke-miterlimit="10" d="
		M0,104.3c0,0,3.2,4,5.6,4.4s2.8,0.9,3.6,2.1c0.8,1.2,2.2,1.7,3,2.8c0.8,1.1,2.9,2.2,3.9,2.9c1,0.7,1.6,0.2,3.5,2.5
		c2,2.2,2.9,2.8,6.2,4.3c3.3,1.5,3.6,2.2,4.4,3c0.8,0.8-0.3,0.1,2.1,1.6c2.4,1.5,3.7,2.3,6.6,3.8c2.9,1.5,4.3,2.3,6.1,2.8
		c1.8,0.5,4.7,1.2,8.2,3.6c3.5,2.4,5.9,1.8,8.6,2.8c2.8,1,1.5,0.7,4.8,2c3.3,1.2,1.6,0.9,5.9,1.7s4.4,0.7,7,1.4
		c2.7,0.7,3,0.9,5.1,1.4c2,0.5,3.5,0.3,6.9,2.9c3.4,2.6,5.2,2.3,6.7,3.7c1.5,1.4,0.1,0.6,2.9,3s2.9,1.6,4.9,3.4
		c2,1.8,5.8,4.7,6.8,5.7c1,1,2.1,1.7,5.5,3.8c3.3,2.1,5.2,1.9,7.2,3.4c2,1.5,4.5,3.9,7.1,4.1c2.6,0.2,4.4,0.9,4.4,0.9
		s5.8-2.1,9.8-2.4c3.9-0.3,7.8-1.7,9.4-2.5c1.6-0.8,1.8-0.8,3.6-1.5c1.8-0.7,3.3-0.1,5.2-1.5c1.9-1.4,2.9-3,8.1-4.2
		c5.2-1.3,6.3-2.7,7.7-3.3c1.3-0.6,7.3-3,8.1-3.3c0.8-0.3,0.7-0.9,4.1-2.1c3.4-1.2,5.1-2.1,6.5-2.5c1.4-0.4,4.2-1.6,5.2-2
		s2.7-0.9,5.1-1.7c2.4-0.8,3.8-1.6,6.3-1.9c2.5-0.3,2.2-0.2,5-0.8c2.7-0.6,2.1-1,4.5-1c2.4,0,4.6-1.4,5.8-1.5
		c1.2-0.1,3.5-0.3,7.6-1.3c4.2-1,9.4-1.6,12.5-3c3.1-1.4,3.8-2.1,7.2-2.1c3.4,0,6.9-1.2,10.3-2.3c3.4-1.1,6.7-2.5,9-2.4
		c2.3,0.1,3.3-0.3,4.7-1c1.4-0.6,2.3-0.9,4.1-1s3.4-0.8,4.3-1.4c0.9-0.6,2.3-0.8,6.3-2.2c3.9-1.5,5.4-2.4,5.6-2.2
		c0.3,0.2,4.3-0.2,4.9-0.7s1.1-1,3.2-1.8c2.1-0.7,6.6-2.7,6.6-2.7"/>
	<path fill="none" stroke="#000000" stroke-width="0.5" stroke-linecap="round" stroke-linejoin="round" stroke-miterlimit="10" d="
		M217.5,111.9c0,0,2.1-3.2,2.7-6.2s0.4-2.6,1.8-4.4c1.4-1.8,1.2-3.3,2-5c0.7-1.7,1.2-1.8,1.7-3.2s1.1-1.6,2.2-5.8
		c1.2-4.2,2-3.4,2.6-6.1s1.2-2,1.9-3.9c0.7-1.9,0.7-2.8,1.6-4.1c0.9-1.3,3-6.2,3-6.2s1.7-1.7,2.1-4.3c0.4-2.6,0-2,1.3-4
		s1.1-1.6,1.5-3.4s2.4-2.6,3.1-5.3c0.7-2.7,0.2-2.5,1.5-3.9c1.2-1.5,0.8-0.6,1.6-3.4s2.9-2.7,3.8-5.6s0.7-3.6,1.7-4.4
		c1-0.7,1.9-1.4,2.3-2.6c0.4-1.2,1.3-3.4,2.6-4.9c1.3-1.5,1.7-1.9,3-3.2c1.3-1.3,0.6-1.9,1.8-2.1c1.3-0.2,2.3-0.5,3.3-0.6
		c1-0.1,0.4-1.1,3,0.5s1.6,1.2,3.3,2.3c1.7,1.1,2.1,1.5,2.8,3.8c0.6,2.4,0.2,3.4,0.7,4.4c0.5,1,0,1-0.8,2.7
		c-0.8,1.8,0.1,1.1-2.4,3.3s-3.3,4.6-3.9,5.8c-0.6,1.3,0.1,1.2-2.4,3.1c-2.5,1.9-3.8,3.3-4.5,6.2c-0.7,2.9-1.7,4.3-3,5.8
		c-1.3,1.4-2.1,1.9-3.4,4.1s-2.3,4.6-4.2,7.7c-1.8,3.1-2.4,4.3-3.6,6.2c-1.1,1.9-0.8,1.3-1.9,3.3c-1.1,2-0.4,2.4,0.5,3.2"/>
	<path fill="none" stroke="#000000" stroke-width="0.5" stroke-linecap="round" stroke-linejoin="round" stroke-miterlimit="10" d="
		M245.2,80.3c0,0,0.8-0.2-0.7,2.3s-1.1,1.6-2.5,4c-1.4,2.4-1.6,1.8-2.2,3.9c-0.6,2.1-0.3,3-1.3,4.5c-1.1,1.5-1.1,1.2-1.8,2.8
		s-0.7,2.7-1.9,4c-1.1,1.2-1.5,0.7-1.6,2.1c0,1.4-0.2,1.9-0.6,2.9c-0.4,1-0.8,0.9-1.2,2.1c-0.3,1.3,0,1.2-0.5,2.2
		c-0.6,1-1.2,5.2-2.6,7s-1.5,1.6-1.7,3c-0.1,1.4-0.4,2-0.8,3.3s-0.9,2.8-0.9,2.8"/>
	<path fill="none" stroke="#000000" stroke-width="0.5" stroke-linecap="round" stroke-linejoin="round" stroke-miterlimit="10" d="
		M139.9,133.5c0,0-4.2-1.7-6.9-3.4c-2.7-1.8-1.2-1.6-4.8-3.5s-3.6-1.7-4.7-2.8c-1.1-1.1-1.1-2.3-3.6-3.4s-3.2-0.8-4.9-3
		c-1.7-2.1-3.8-3-4.8-3.9c-1-0.9-1.8-1.2-3-2.5c-1.2-1.3-1.8-1.6-2.9-2.5c-1.1-1-2.5-1.9-3.2-2.8c-0.7-0.9-3.1-4-4.2-4.5
		c-1.1-0.5-2.7,0-3.4-1.5c-0.7-1.5-1.7-2.3-3.2-3.8s-2.5-4.2-3.6-4.8c-1.1-0.6-2.1-2.2-3.1-2.6c-0.9-0.3-1.6-2-2.7-3
		c-1.1-1-3.6-3.7-4.5-4.7c-0.9-1-2.9-3.2-2.9-3.2s0.6,0.6,0.9,0.6c0.3,0-2.7-3.9-5.3-5.8c-2.6-1.9-1.7-1-2.4-1.4
		c-0.7-0.4-0.3-0.6-2.4-4.1c-2.1-3.5-3-3.5-5.2-5.9c-2.2-2.3-3.1-3.7-5.6-6.3c-2.6-2.6,0-2.3-2.3-3.4c-2.2-1.1-1.5-1.8-2.7-3.6
		s-1.3-1.7-2.1-2.4c-0.9-0.6-0.6,0-1.4,0.4s-2,0.3-3.1,0.5c-1,0.2-2.6,1-4.1,1.4c-1.5,0.4-3.4-0.1-4.5-0.4s-1.9,0-2.7,0s0,1-0.1,1.6
		c-0.1,0.5,1.6,1.3,4.1,4.7c2.6,3.4,2.5,3.4,2.7,4.2c0.2,0.8,1.1,1,1.9,1.9c0.7,0.9,1.8,1.3,3,3.7c1.3,2.4,0.4,1.8,3.5,3.2
		c3.1,1.4,3.2,4.2,4.8,5.9c1.6,1.7,1.4,1.4,2.8,2.4c1.4,1,0.8,0.5,1.4,2.3c0.6,1.8,1.6,1.8,3,2.5c1.4,0.7,1.4,2,4.6,4.4s1.5,1,2,1.9
		c0.5,0.9-0.1,1.2-1.1,2.2s-1.6,2-1.6,2s-2.2-1.6-3.9-3.3s-0.8-0.7-2.1-0.5s-1.4-0.2-3.3-1.8c-2-1.5-1.5-1.2-3.4-0.7
		c-1.8,0.4-1.8-0.4-3.1-0.6c-1.3-0.2-1.6,0.4-3.5,1.6c-1.9,1.2-0.9,0.6-1.8,0.8c-0.9,0.2-0.9,0.7-1.6,2.2c-0.7,1.5-0.9,1.2-2.1,3
		c-1.1,1.8-2,1.1-1.8,3.5c0.3,2.4-1.4,3.9-1.4,4.1"/>
	<path fill="none" stroke="#000000" stroke-width="0.5" stroke-linecap="round" stroke-linejoin="round" stroke-miterlimit="10" d="
		M64.3,86c0,0,0.6,0.8,2.4,2.3c1.8,1.5,1.2,1,2.9,2.6s1.8,1.8,3,2.9c1.1,1.1,2.1,1.1,3.1,2.5c1,1.4,0.2,2.2,1.7,2.5
		c1.5,0.3,3,1.1,4.1,2.4s2.8,1.9,2.9,2.8c0,0.9-0.2,0.2,1.2,1s1.4,0.3,2.2,1.5c0.8,1.1,0.7,1.7,2,2.3c1.3,0.7,1.5,0.3,3.8,2.3
		c2.3,1.9,3.4,2.1,4.4,3.2c1,1.2,1.9,2,3.1,3c1.2,0.9,3,2.3,4,2.9c1,0.6,1.7,1,3,2.1c1.2,1.1,3.7,3.1,5.2,4.2
		c1.6,1.1,1.7,0.9,3.9,2.7c2.2,1.8,3.3,2.4,4.8,3.7s2,0,3,2.3c1,2.3,1.8,2.7,3.9,3.3c2.1,0.6,1.4,0.5,3.3,1.8
		c1.9,1.3,4.5,2.9,5.5,3.5s4.3,3.3,4.3,3.3"/>
	<path fill="none" stroke="#000000" stroke-width="0.5" stroke-linecap="round" stroke-linejoin="round" stroke-miterlimit="10" d="
		M26.4,102.8c0,0,3.2,0.2,3.9,1.1s0.7,0.9,3.7,1.1c3,0.3,4.3,1.4,6.5,0.7c2.2-0.6,5.4-1.6,6.8-2s2.5-0.2,3.9-2.4
		c1.4-2.2,2.8-2.2,4-3.4s2.4-0.8,3.3-3.5c0.9-2.7,2.7-3.9,3.2-3.9"/>
	<path fill="none" stroke="#000000" stroke-width="0.5" stroke-linecap="round" stroke-linejoin="round" stroke-miterlimit="10" d="
		M56.2,96.9c0,0-1-0.9-2.6-2.1c-1.6-1.2,0.8-1.3-2.7-1.1c-3.5,0.2-3-0.4-4.6,0.5c-1.6,0.9-3,1.4-3.4,1.7c-0.5,0.3-1.9,0.1-2.4,1.6
		c-0.5,1.5-1.1,2.5-1.1,3.2c0,0.7-0.6,0.7,0.1,2.6c0.7,2,1.1,2.4,1.1,2.4"/>
	<path fill="none" stroke="#000000" stroke-width="0.5" stroke-linecap="round" stroke-linejoin="round" stroke-miterlimit="10" d="
		M33.7,99.7c0,0-0.3,0.6,0.7,2s0.6,1.1,1.4,2.2c0.8,1.1,1.3,1.7,1.3,1.7"/>
	<path fill="none" stroke="#000000" stroke-width="0.5" stroke-linecap="round" stroke-linejoin="round" stroke-miterlimit="10" d="
		M29,111c0,0-0.8,1.7,0.3,2.8c1,1.1,1.2,0.3,0.9,2.4s-0.2,2.6-0.5,3.6s-0.2,1.1-0.7,2.1c-0.5,1-1.3,2.1-1.3,2.1"/>
	<path fill="none" stroke="#000000" stroke-width="0.5" stroke-linecap="round" stroke-linejoin="round" stroke-miterlimit="10" d="
		M40.1,113c0,0,0.6,0.8,0.8,2.5c0.1,1.7,0.7,1,0,2.9c-0.7,1.9-0.4,2.5-1.6,3.5c-1.2,1.1-1.6,1.5-1.6,2.6c0,1.1-0.2,1.4-0.3,2.4
		c-0.1,1,0.6,3.6,0.6,3.6"/>
	<path fill="none" stroke="#000000" stroke-width="0.5" stroke-linecap="round" stroke-linejoin="round" stroke-miterlimit="10" d="
		M39.9,120.7c0,0,1.7,0.6,3.6,1c1.9,0.4,3.7,0.1,4.9,0.9c1.2,0.8,1.9,0.7,2.6,0.6c0.8-0.1,2.1-0.3,4,0c1.9,0.3,3.8-0.3,5.2-0.5
		c1.4-0.2,3-0.8,3.9-0.7c0.9,0.1,1.3,0.3,2.5-0.4c1.1-0.7,3.7-1.3,4.8-2c1.1-0.6,1.6-0.8,2.3-1.4c0.8-0.5-0.4-1.2,1.6-1.3
		c1.9-0.1,2.6-0.7,2.8-1.6c0.2-0.9,0.7-1.4,1.1-1.8c0.4-0.4,1.8-0.9,2.3-3c0.5-2.1,2.1-3.7,2.3-4.1s0.7-2.5,0.7-2.5"/>
	<path fill="none" stroke="#000000" stroke-width="0.5" stroke-linecap="round" stroke-linejoin="round" stroke-miterlimit="10" d="
		M78.3,114.8c0,0,2.6,1.8,5.2,2.6c2.6,0.8,2.6,1,3.2,1.8c0.6,0.8,1.6,0.9,2.7,1.6c1.1,0.7,2.8,0.9,4.4,2.5s2.2,2,3.7,3.3
		c1.5,1.3,1,0.6,2.9,2.7s2.4,2.6,3.2,3.6c0.8,1.1,0.9,1.9,1.8,2.6c0.9,0.7,2.4,1.1,2.2,3.3s-0.7,1.5,0,3.3c0.7,1.8,0.7,3.6,0.7,3.6"
		/>
</g>
</svg>
